<svg id="SvgjsSvg1702" width="994" height="417.5" xmlns="http://www.w3.org/2000/svg" version="1.1" xmlns:xlink="http://www.w3.org/1999/xlink" xmlns:svgjs="http://svgjs.com/svgjs"><defs id="SvgjsDefs1703"><marker id="SvgjsMarker1804" markerWidth="20" markerHeight="16" refX="13" refY="8" viewBox="0 0 20 16" orient="auto" markerUnits="userSpaceOnUse" stroke-dasharray="0,0"><path id="SvgjsPath1805" d="M0,0 L20,8 L0,16 L0,0" fill="#323232" stroke="#323232" stroke-width="1"></path></marker></defs><g id="SvgjsG1704" transform="translate(164,25)"><path id="SvgjsPath1705" d="M 0 30C 0 -10 60 -10 60 30C 60 70 0 70 0 30Z" stroke="rgba(50,50,50,1)" stroke-width="2" fill-opacity="1" fill="#81c784"></path><g id="SvgjsG1706"><text id="SvgjsText1707" font-family="微软雅黑" text-anchor="middle" font-size="22px" width="40px" fill="#323232" font-weight="700" align="middle" lineHeight="125%" anchor="middle" family="微软雅黑" size="22px" weight="700" font-style="" opacity="1" y="10.25" transform="rotate(0)"><tspan id="SvgjsTspan1708" dy="27" x="30"><tspan id="SvgjsTspan1709" style="text-decoration:;">4</tspan></tspan></text></g></g><g id="SvgjsG1710" transform="translate(98,128)"><path id="SvgjsPath1711" d="M 0 30C 0 -10 60 -10 60 30C 60 70 0 70 0 30Z" stroke="rgba(50,50,50,1)" stroke-width="2" fill-opacity="1" fill="#81c784"></path><g id="SvgjsG1712"><text id="SvgjsText1713" font-family="微软雅黑" text-anchor="middle" font-size="22px" width="40px" fill="#323232" font-weight="700" align="middle" lineHeight="125%" anchor="middle" family="微软雅黑" size="22px" weight="700" font-style="" opacity="1" y="10.25" transform="rotate(0)"><tspan id="SvgjsTspan1714" dy="27" x="30"><tspan id="SvgjsTspan1715" style="text-decoration:;">2</tspan></tspan></text></g></g><g id="SvgjsG1716" transform="translate(232,128)"><path id="SvgjsPath1717" d="M 0 30C 0 -10 60 -10 60 30C 60 70 0 70 0 30Z" stroke="rgba(50,50,50,1)" stroke-width="2" fill-opacity="1" fill="#81c784"></path><g id="SvgjsG1718"><text id="SvgjsText1719" font-family="微软雅黑" text-anchor="middle" font-size="22px" width="40px" fill="#323232" font-weight="700" align="middle" lineHeight="125%" anchor="middle" family="微软雅黑" size="22px" weight="700" font-style="" opacity="1" y="10.25" transform="rotate(0)"><tspan id="SvgjsTspan1720" dy="27" x="30"><tspan id="SvgjsTspan1721" style="text-decoration:;">5</tspan></tspan></text></g></g><g id="SvgjsG1722"><path id="SvgjsPath1723" d="M193.7348682022773 85.96421218092095C 196.74616667461027 116.38882872289534 130.74616667461027 96.61117127710466 128.42230604182063 127.09354668788637" stroke="#323232" stroke-width="2" fill="none"></path></g><g id="SvgjsG1724"><path id="SvgjsPath1725" d="M194.41967031239247 85.90767661030588C 196.80484459108845 117.05952037725831 264.80484459108845 95.94047962274169 261.73861695301446 127.03476484588026" stroke="#323232" stroke-width="2" fill="none"></path></g><g id="SvgjsG1726" transform="translate(537,25)"><path id="SvgjsPath1727" d="M 0 30C 0 -10 60 -10 60 30C 60 70 0 70 0 30Z" stroke="rgba(50,50,50,1)" stroke-width="2" fill-opacity="1" fill="#81c784"></path><g id="SvgjsG1728"><text id="SvgjsText1729" font-family="微软雅黑" text-anchor="middle" font-size="22px" width="40px" fill="#323232" font-weight="700" align="middle" lineHeight="125%" anchor="middle" family="微软雅黑" size="22px" weight="700" font-style="" opacity="1" y="10.25" transform="rotate(0)"><tspan id="SvgjsTspan1730" dy="27" x="30"><tspan id="SvgjsTspan1731" style="text-decoration:;">4</tspan></tspan></text></g></g><g id="SvgjsG1732" transform="translate(467,132.5)"><path id="SvgjsPath1733" d="M 0 30C 0 -10 60 -10 60 30C 60 70 0 70 0 30Z" stroke-dasharray="10,6" stroke="rgba(50,50,50,1)" stroke-width="2" fill-opacity="1" fill="#ffb74d"></path><g id="SvgjsG1734"><text id="SvgjsText1735" font-family="微软雅黑" text-anchor="middle" font-size="22px" width="40px" fill="#323232" font-weight="700" align="middle" lineHeight="125%" anchor="middle" family="微软雅黑" size="22px" weight="700" font-style="" opacity="1" y="10.25" transform="rotate(0)"><tspan id="SvgjsTspan1736" dy="27" x="30"><tspan id="SvgjsTspan1737" style="text-decoration:;">2</tspan></tspan></text></g></g><g id="SvgjsG1738" transform="translate(391,233)"><path id="SvgjsPath1739" d="M 0 30C 0 -10 60 -10 60 30C 60 70 0 70 0 30Z" stroke-dasharray="10,6" stroke="rgba(50,50,50,1)" stroke-width="2" fill-opacity="1" fill="#81c784"></path><g id="SvgjsG1740"><text id="SvgjsText1741" font-family="微软雅黑" text-anchor="middle" font-size="22px" width="40px" fill="#323232" font-weight="700" align="middle" lineHeight="125%" anchor="middle" family="微软雅黑" size="22px" weight="700" font-style="" opacity="1" y="10.25" transform="rotate(0)"><tspan id="SvgjsTspan1742" dy="27" x="30"><tspan id="SvgjsTspan1743" style="text-decoration:;">1</tspan></tspan></text></g></g><g id="SvgjsG1744"><path id="SvgjsPath1745" d="M566.765847658885 85.97219991830403C 569.9491628304505 118.70908540140906 499.9491628304505 98.79091459859094 497.39469021934315 131.58118574741414" stroke="#323232" stroke-width="2" fill="none"></path></g><g id="SvgjsG1746"><path id="SvgjsPath1747" d="M567.3982956669964 85.91725708590988C 569.834853578512 117.40252467306209 635.834853578512 100.09747532693791 633 132.5" stroke="#323232" stroke-width="2" fill="none"></path></g><g id="SvgjsG1748" transform="translate(326,332.5)"><path id="SvgjsPath1749" d="M 0 30C 0 -10 60 -10 60 30C 60 70 0 70 0 30Z" stroke-dasharray="10,6" stroke="rgba(50,50,50,1)" stroke-width="2" fill-opacity="1" fill="#e57373"></path><g id="SvgjsG1750"><text id="SvgjsText1751" font-family="微软雅黑" text-anchor="middle" font-size="22px" width="40px" fill="#323232" font-weight="700" align="middle" lineHeight="125%" anchor="middle" family="微软雅黑" size="22px" weight="700" font-style="" opacity="1" y="10.25" transform="rotate(0)"><tspan id="SvgjsTspan1752" dy="27" x="30"><tspan id="SvgjsTspan1753" style="text-decoration:;">0</tspan></tspan></text></g></g><g id="SvgjsG1754"><path id="SvgjsPath1755" d="M420.71156730447916 293.9575001724045C 423.65165528507947 323.30855859735186 358.65165528507947 302.19144140264814 356.4436443239481 331.60379705767684" stroke-dasharray="8,5" stroke="#323232" stroke-width="2" fill="none"></path></g><g id="SvgjsG1756" transform="translate(842,25)"><path id="SvgjsPath1757" d="M 0 30C 0 -10 60 -10 60 30C 60 70 0 70 0 30Z" stroke="rgba(50,50,50,1)" stroke-width="2" fill-opacity="1" fill="#81c784"></path><g id="SvgjsG1758"><text id="SvgjsText1759" font-family="微软雅黑" text-anchor="middle" font-size="22px" width="40px" fill="#323232" font-weight="700" align="middle" lineHeight="125%" anchor="middle" family="微软雅黑" size="22px" weight="700" font-style="" opacity="1" y="10.25" transform="rotate(0)"><tspan id="SvgjsTspan1760" dy="27" x="30"><tspan id="SvgjsTspan1761" style="text-decoration:;">4</tspan></tspan></text></g></g><g id="SvgjsG1762" transform="translate(772,132.5)"><path id="SvgjsPath1763" d="M 0 30C 0 -10 60 -10 60 30C 60 70 0 70 0 30Z" stroke="rgba(50,50,50,1)" stroke-width="2" fill-opacity="1" fill="#81c784"></path><g id="SvgjsG1764"><text id="SvgjsText1765" font-family="微软雅黑" text-anchor="middle" font-size="22px" width="40px" fill="#323232" font-weight="700" align="middle" lineHeight="125%" anchor="middle" family="微软雅黑" size="22px" weight="700" font-style="" opacity="1" y="10.25" transform="rotate(0)"><tspan id="SvgjsTspan1766" dy="27" x="30"><tspan id="SvgjsTspan1767" style="text-decoration:;">1</tspan></tspan></text></g></g><g id="SvgjsG1768" transform="translate(909,132.5)"><path id="SvgjsPath1769" d="M 0 30C 0 -10 60 -10 60 30C 60 70 0 70 0 30Z" stroke="rgba(50,50,50,1)" stroke-width="2" fill-opacity="1" fill="#81c784"></path><g id="SvgjsG1770"><text id="SvgjsText1771" font-family="微软雅黑" text-anchor="middle" font-size="22px" width="40px" fill="#323232" font-weight="700" align="middle" lineHeight="125%" anchor="middle" family="微软雅黑" size="22px" weight="700" font-style="" opacity="1" y="10.25" transform="rotate(0)"><tspan id="SvgjsTspan1772" dy="27" x="30"><tspan id="SvgjsTspan1773" style="text-decoration:;">5</tspan></tspan></text></g></g><g id="SvgjsG1774" transform="translate(698,233)"><path id="SvgjsPath1775" d="M 0 30C 0 -10 60 -10 60 30C 60 70 0 70 0 30Z" stroke="rgba(50,50,50,1)" stroke-width="2" fill-opacity="1" fill="#e57373"></path><g id="SvgjsG1776"><text id="SvgjsText1777" font-family="微软雅黑" text-anchor="middle" font-size="22px" width="40px" fill="#323232" font-weight="700" align="middle" lineHeight="125%" anchor="middle" family="微软雅黑" size="22px" weight="700" font-style="" opacity="1" y="10.25" transform="rotate(0)"><tspan id="SvgjsTspan1778" dy="27" x="30"><tspan id="SvgjsTspan1779" style="text-decoration:;">0</tspan></tspan></text></g></g><g id="SvgjsG1780"><path id="SvgjsPath1781" d="M871.765847658885 85.97219991830403C 874.9491628304505 118.70908540140908 804.9491628304505 98.79091459859094 802.394690219343 131.58118574741414" stroke="#323232" stroke-width="2" fill="none"></path></g><g id="SvgjsG1782"><path id="SvgjsPath1783" d="M872.397470376482 85.91761500631762C 874.8632220171604 117.72677741056165 941.8632220171604 99.77322258943835 938.7616712053442 131.52881547292085" stroke="#323232" stroke-width="2" fill="none"></path></g><g id="SvgjsG1784" transform="translate(842,233)"><path id="SvgjsPath1785" d="M 0 30C 0 -10 60 -10 60 30C 60 70 0 70 0 30Z" stroke="rgba(50,50,50,1)" stroke-width="2" fill-opacity="1" fill="#ffb74d"></path><g id="SvgjsG1786"><text id="SvgjsText1787" font-family="微软雅黑" text-anchor="middle" font-size="22px" width="40px" fill="#323232" font-weight="700" align="middle" lineHeight="125%" anchor="middle" family="微软雅黑" size="22px" weight="700" font-style="" opacity="1" y="10.25" transform="rotate(0)"><tspan id="SvgjsTspan1788" dy="27" x="30"><tspan id="SvgjsTspan1789" style="text-decoration:;">2</tspan></tspan></text></g></g><g id="SvgjsG1790"><path id="SvgjsPath1791" d="M801.7383717186582 193.4651687118852C 804.9409090788649 226.1147445890914 730.9409090788649 199.3852554109086 728.4225966787008 232.09368214893937" stroke="#323232" stroke-width="2" fill="none"></path></g><g id="SvgjsG1792"><path id="SvgjsPath1793" d="M802.4296814768489 193.40298052495774C 804.8193771420214 224.7256281945139 874.8193771420214 200.7743718054861 871.7289896320227 232.03742357163247" stroke="#323232" stroke-width="2" fill="none"></path></g><g id="SvgjsG1794" transform="translate(25,233)"><path id="SvgjsPath1795" d="M 0 30C 0 -10 60 -10 60 30C 60 70 0 70 0 30Z" stroke="rgba(50,50,50,1)" stroke-width="2" fill-opacity="1" fill="#81c784"></path><g id="SvgjsG1796"><text id="SvgjsText1797" font-family="微软雅黑" text-anchor="middle" font-size="22px" width="40px" fill="#323232" font-weight="700" align="middle" lineHeight="125%" anchor="middle" family="微软雅黑" size="22px" weight="700" font-style="" opacity="1" y="10.25" transform="rotate(0)"><tspan id="SvgjsTspan1798" dy="27" x="30"><tspan id="SvgjsTspan1799" style="text-decoration:;">1</tspan></tspan></text></g></g><g id="SvgjsG1800"><path id="SvgjsPath1801" d="M127.75840592206228 188.97037740158424C 130.98963254395215 222.1716563434104 57.989632543952155 198.8283436565896 55.40298862580357 232.08479501341344" stroke="#323232" stroke-width="2" fill="none"></path></g><g id="SvgjsG1802"><path id="SvgjsPath1803" d="M490 306C 505 233 591 245 603 306" stroke-dasharray="3,3" stroke="#323232" stroke-width="5" fill="none" marker-end="url(#SvgjsMarker1804)"></path></g><g id="SvgjsG1806" transform="translate(604,132.5)"><path id="SvgjsPath1807" d="M 0 30C 0 -10 60 -10 60 30C 60 70 0 70 0 30Z" stroke="rgba(50,50,50,1)" stroke-width="2" fill-opacity="1" fill="#81c784"></path><g id="SvgjsG1808"><text id="SvgjsText1809" font-family="微软雅黑" text-anchor="middle" font-size="22px" width="40px" fill="#323232" font-weight="700" align="middle" lineHeight="125%" anchor="middle" family="微软雅黑" size="22px" weight="700" font-style="" opacity="1" y="10.25" transform="rotate(0)"><tspan id="SvgjsTspan1810" dy="27" x="30"><tspan id="SvgjsTspan1811" style="text-decoration:;">5</tspan></tspan></text></g></g><g id="SvgjsG1812"><path id="SvgjsPath1813" d="M421.41892369315116 232.0919785578982C 424.0022591723329 198.6840206337901 500.00225917233297 226.8159793662099 496.743141794666 193.46644909972156" stroke-dasharray="8,5" stroke="#323232" stroke-width="2" fill="none"></path></g></svg>