<svg id="SvgjsSvg1150" width="445" height="490" xmlns="http://www.w3.org/2000/svg" version="1.1" xmlns:xlink="http://www.w3.org/1999/xlink" xmlns:svgjs="http://svgjs.com/svgjs"><defs id="SvgjsDefs1151"></defs><g id="SvgjsG1152" transform="translate(200,105)"><path id="SvgjsPath1153" d="M 0 4Q 0 0 4 0L 46 0Q 50 0 50 4L 50 96Q 50 100 46 100L 4 100Q 0 100 0 96Z" stroke="rgba(50,50,50,1)" stroke-width="2" fill-opacity="1" fill="#c8e6c9"></path><g id="SvgjsG1154"><text id="SvgjsText1155" font-family="微软雅黑" text-anchor="middle" font-size="18px" width="30px" fill="#323232" font-weight="400" align="middle" lineHeight="125%" anchor="middle" family="微软雅黑" size="18px" weight="400" font-style="" opacity="1" y="34.25" transform="rotate(0)"><tspan id="SvgjsTspan1156" dy="22" x="25"><tspan id="SvgjsTspan1157" style="text-decoration:;">a1</tspan></tspan></text></g></g><g id="SvgjsG1158" transform="translate(370,25)"><path id="SvgjsPath1159" d="M 0 4Q 0 0 4 0L 46 0Q 50 0 50 4L 50 176Q 50 180 46 180L 4 180Q 0 180 0 176Z" stroke="rgba(50,50,50,1)" stroke-width="2" fill-opacity="1" fill="#fff9c4"></path><g id="SvgjsG1160"><text id="SvgjsText1161" font-family="微软雅黑" text-anchor="middle" font-size="18px" width="30px" fill="#323232" font-weight="400" align="middle" lineHeight="125%" anchor="middle" family="微软雅黑" size="18px" weight="400" font-style="" opacity="1" y="74.25" transform="rotate(0)"><tspan id="SvgjsTspan1162" dy="22" x="25"><tspan id="SvgjsTspan1163" style="text-decoration:;">a2</tspan></tspan></text></g></g><g id="SvgjsG1164" transform="translate(200,285)"><path id="SvgjsPath1165" d="M 0 4Q 0 0 4 0L 46 0Q 50 0 50 4L 50 176Q 50 180 46 180L 4 180Q 0 180 0 176Z" stroke="rgba(50,50,50,1)" stroke-width="2" fill-opacity="1" fill="#ffcdd2"></path><g id="SvgjsG1166"><text id="SvgjsText1167" font-family="微软雅黑" text-anchor="middle" font-size="18px" width="30px" fill="#323232" font-weight="400" align="middle" lineHeight="125%" anchor="middle" family="微软雅黑" size="18px" weight="400" font-style="" opacity="1" y="74.25" transform="rotate(0)"><tspan id="SvgjsTspan1168" dy="22" x="25"><tspan id="SvgjsTspan1169" style="text-decoration:;">a1</tspan></tspan></text></g></g><g id="SvgjsG1170" transform="translate(370,365)"><path id="SvgjsPath1171" d="M 0 4Q 0 0 4 0L 46 0Q 50 0 50 4L 50 96Q 50 100 46 100L 4 100Q 0 100 0 96Z" stroke="rgba(50,50,50,1)" stroke-width="2" fill-opacity="1" fill="#bbdefb"></path><g id="SvgjsG1172"><text id="SvgjsText1173" font-family="微软雅黑" text-anchor="middle" font-size="18px" width="30px" fill="#323232" font-weight="400" align="middle" lineHeight="125%" anchor="middle" family="微软雅黑" size="18px" weight="400" font-style="" opacity="1" y="34.25" transform="rotate(0)"><tspan id="SvgjsTspan1174" dy="22" x="25"><tspan id="SvgjsTspan1175" style="text-decoration:;">a2</tspan></tspan></text></g></g><g id="SvgjsG1176" transform="translate(25,120.5)"><path id="SvgjsPath1177" d="M 0 0L 139 0L 139 69L 0 69Z" stroke="none" fill="none"></path><g id="SvgjsG1178"><text id="SvgjsText1179" font-family="微软雅黑" text-anchor="middle" font-size="18px" width="139px" fill="#323232" font-weight="400" align="middle" lineHeight="125%" anchor="middle" family="微软雅黑" size="18px" weight="400" font-style="" opacity="1" y="7.75" transform="rotate(0)"><tspan id="SvgjsTspan1180" dy="22" x="69.5"><tspan id="SvgjsTspan1181" style="text-decoration:;">a1 &lt; a2</tspan></tspan><tspan id="SvgjsTspan1182" dy="22" x="69.5"><tspan id="SvgjsTspan1183" style="text-decoration:;">dp[2] = dp[1] + 1</tspan></tspan></text></g></g><g id="SvgjsG1184" transform="translate(44,355)"><path id="SvgjsPath1185" d="M 0 0L 120 0L 120 40L 0 40Z" stroke="none" fill="none"></path><g id="SvgjsG1186"><text id="SvgjsText1187" font-family="微软雅黑" text-anchor="middle" font-size="18px" width="120px" fill="#323232" font-weight="400" align="middle" lineHeight="125%" anchor="middle" family="微软雅黑" size="18px" weight="400" font-style="" opacity="1" y="-6.75" transform="rotate(0)"><tspan id="SvgjsTspan1188" dy="22" x="60"><tspan id="SvgjsTspan1189" style="text-decoration:;">a1 &gt; a2</tspan></tspan><tspan id="SvgjsTspan1190" dy="22" x="60"><tspan id="SvgjsTspan1191" style="text-decoration:;">dp[2] = 1</tspan></tspan></text></g></g></svg>