<svg id="SvgjsSvg1006" width="1024" height="651" xmlns="http://www.w3.org/2000/svg" version="1.1" xmlns:xlink="http://www.w3.org/1999/xlink" xmlns:svgjs="http://svgjs.com/svgjs"><defs id="SvgjsDefs1007"></defs><g id="SvgjsG1008" transform="translate(507,25)"><path id="SvgjsPath1009" d="M 0 30C 0 -10 60 -10 60 30C 60 70 0 70 0 30Z" stroke="rgba(50,50,50,1)" stroke-width="2" fill-opacity="1" fill="#c8e6c9"></path><g id="SvgjsG1010"><text id="SvgjsText1011" font-family="微软雅黑" text-anchor="middle" font-size="16px" width="40px" fill="#323232" font-weight="700" align="middle" lineHeight="125%" anchor="middle" family="微软雅黑" size="16px" weight="700" font-style="" opacity="1" y="6" transform="rotate(0)"><tspan id="SvgjsTspan1012" dy="20" x="30"><tspan id="SvgjsTspan1013" style="text-decoration:;">1</tspan></tspan><tspan id="SvgjsTspan1014" dy="20" x="30"><tspan id="SvgjsTspan1015" style="text-decoration:;">[1,10]</tspan></tspan></text></g></g><g id="SvgjsG1016" transform="translate(267,209)"><path id="SvgjsPath1017" d="M 0 30C 0 -10 60 -10 60 30C 60 70 0 70 0 30Z" stroke="rgba(50,50,50,1)" stroke-width="2" fill-opacity="1" fill="#c8e6c9"></path><g id="SvgjsG1018"><text id="SvgjsText1019" font-family="微软雅黑" text-anchor="middle" font-size="16px" width="40px" fill="#323232" font-weight="700" align="middle" lineHeight="125%" anchor="middle" family="微软雅黑" size="16px" weight="700" font-style="" opacity="1" y="6" transform="rotate(0)"><tspan id="SvgjsTspan1020" dy="20" x="30"><tspan id="SvgjsTspan1021" style="text-decoration:;">2</tspan></tspan><tspan id="SvgjsTspan1022" dy="20" x="30"><tspan id="SvgjsTspan1023" style="text-decoration:;">[1,5]</tspan></tspan></text></g></g><g id="SvgjsG1024" transform="translate(746,209)"><path id="SvgjsPath1025" d="M 0 30C 0 -10 60 -10 60 30C 60 70 0 70 0 30Z" stroke="rgba(50,50,50,1)" stroke-width="2" fill-opacity="1" fill="#c8e6c9"></path><g id="SvgjsG1026"><text id="SvgjsText1027" font-family="微软雅黑" text-anchor="middle" font-size="16px" width="40px" fill="#323232" font-weight="700" align="middle" lineHeight="125%" anchor="middle" family="微软雅黑" size="16px" weight="700" font-style="" opacity="1" y="6" transform="rotate(0)"><tspan id="SvgjsTspan1028" dy="20" x="30"><tspan id="SvgjsTspan1029" style="text-decoration:;">3</tspan></tspan><tspan id="SvgjsTspan1030" dy="20" x="30"><tspan id="SvgjsTspan1031" style="text-decoration:;">[6,10]</tspan></tspan></text></g></g><g id="SvgjsG1032"><path id="SvgjsPath1033" d="M536.9864147491468 85.99990771622149C 546.417725484133 192.64509485668873 306.41772548413303 101.35490514331127 297.19164463164674 208.0185356169677" stroke="#323232" stroke-width="2" fill="none"></path></g><g id="SvgjsG1034"><path id="SvgjsPath1035" d="M537.1918778651194 85.98141881216799C 546.3867665566966 192.2912326968522 785.3867665566966 101.7087673031478 775.9861580952737 208.0000958037524" stroke="#323232" stroke-width="2" fill="none"></path></g><g id="SvgjsG1036" transform="translate(158,323)"><path id="SvgjsPath1037" d="M 0 30C 0 -10 60 -10 60 30C 60 70 0 70 0 30Z" stroke="rgba(50,50,50,1)" stroke-width="2" fill-opacity="1" fill="#c8e6c9"></path><g id="SvgjsG1038"><text id="SvgjsText1039" font-family="微软雅黑" text-anchor="middle" font-size="16px" width="40px" fill="#323232" font-weight="700" align="middle" lineHeight="125%" anchor="middle" family="微软雅黑" size="16px" weight="700" font-style="" opacity="1" y="6" transform="rotate(0)"><tspan id="SvgjsTspan1040" dy="20" x="30"><tspan id="SvgjsTspan1041" style="text-decoration:;">4</tspan></tspan><tspan id="SvgjsTspan1042" dy="20" x="30"><tspan id="SvgjsTspan1043" style="text-decoration:;">[1,3]</tspan></tspan></text></g></g><g id="SvgjsG1044" transform="translate(387,329)"><path id="SvgjsPath1045" d="M 0 30C 0 -10 60 -10 60 30C 60 70 0 70 0 30Z" stroke="rgba(50,50,50,1)" stroke-width="2" fill-opacity="1" fill="#c8e6c9"></path><g id="SvgjsG1046"><text id="SvgjsText1047" font-family="微软雅黑" text-anchor="middle" font-size="16px" width="40px" fill="#323232" font-weight="700" align="middle" lineHeight="125%" anchor="middle" family="微软雅黑" size="16px" weight="700" font-style="" opacity="1" y="6" transform="rotate(0)"><tspan id="SvgjsTspan1048" dy="20" x="30"><tspan id="SvgjsTspan1049" style="text-decoration:;">5</tspan></tspan><tspan id="SvgjsTspan1050" dy="20" x="30"><tspan id="SvgjsTspan1051" style="text-decoration:;">[4,5]</tspan></tspan></text></g></g><g id="SvgjsG1052"><path id="SvgjsPath1053" d="M296.8464452240061 269.98814013721204C 301.2407516190256 317.47201280848293 192.24075161902567 274.52798719151707 188.32722869065077 322.05505482486285" stroke="#323232" stroke-width="2" fill="none"></path></g><g id="SvgjsG1054"><path id="SvgjsPath1055" d="M297.3037433842509 269.952753880351C 301.677267969918 322.46141753019253 421.6772679699179 275.53858246980747 416.8714780677011 328.00829333322895" stroke="#323232" stroke-width="2" fill="none"></path></g><g id="SvgjsG1056" transform="translate(85,446)"><path id="SvgjsPath1057" d="M 0 30C 0 -10 60 -10 60 30C 60 70 0 70 0 30Z" stroke="rgba(50,50,50,1)" stroke-width="2" fill-opacity="1" fill="#c8e6c9"></path><g id="SvgjsG1058"><text id="SvgjsText1059" font-family="微软雅黑" text-anchor="middle" font-size="16px" width="40px" fill="#323232" font-weight="700" align="middle" lineHeight="125%" anchor="middle" family="微软雅黑" size="16px" weight="700" font-style="" opacity="1" y="6" transform="rotate(0)"><tspan id="SvgjsTspan1060" dy="20" x="30"><tspan id="SvgjsTspan1061" style="text-decoration:;">8</tspan></tspan><tspan id="SvgjsTspan1062" dy="20" x="30"><tspan id="SvgjsTspan1063" style="text-decoration:;">[1,2]</tspan></tspan></text></g></g><g id="SvgjsG1064" transform="translate(218,446)"><path id="SvgjsPath1065" d="M 0 30C 0 -10 60 -10 60 30C 60 70 0 70 0 30Z" stroke="rgba(50,50,50,1)" stroke-width="2" fill-opacity="1" fill="#ffe0b2"></path><g id="SvgjsG1066"><text id="SvgjsText1067" font-family="微软雅黑" text-anchor="middle" font-size="16px" width="40px" fill="#323232" font-weight="700" align="middle" lineHeight="125%" anchor="middle" family="微软雅黑" size="16px" weight="700" font-style="" opacity="1" y="6" transform="rotate(0)"><tspan id="SvgjsTspan1068" dy="20" x="30"><tspan id="SvgjsTspan1069" style="text-decoration:;">9</tspan></tspan><tspan id="SvgjsTspan1070" dy="20" x="30"><tspan id="SvgjsTspan1071" style="text-decoration:;">[3,3]</tspan></tspan></text></g></g><g id="SvgjsG1072"><path id="SvgjsPath1073" d="M187.83625319774814 383.9865023997702C 191.36163665487499 421.4236827881009 118.36163665487499 407.5763172118991 115.32811522791792 445.0553622931471" stroke="#323232" stroke-width="2" fill="none"></path></g><g id="SvgjsG1074"><path id="SvgjsPath1075" d="M188.32444618216874 383.9459041573416C 191.0330198476185 417.6675754935927 251.0330198476185 411.3324245064073 247.83631031002682 445.01348812201957" stroke="#323232" stroke-width="2" fill="none"></path></g><g id="SvgjsG1076" transform="translate(25,566)"><path id="SvgjsPath1077" d="M 0 30C 0 -10 60 -10 60 30C 60 70 0 70 0 30Z" stroke="rgba(50,50,50,1)" stroke-width="2" fill-opacity="1" fill="#ffe0b2"></path><g id="SvgjsG1078"><text id="SvgjsText1079" font-family="微软雅黑" text-anchor="middle" font-size="16px" width="40px" fill="#323232" font-weight="700" align="middle" lineHeight="125%" anchor="middle" family="微软雅黑" size="16px" weight="700" font-style="" opacity="1" y="6" transform="rotate(0)"><tspan id="SvgjsTspan1080" dy="20" x="30"><tspan id="SvgjsTspan1081" style="text-decoration:;">16</tspan></tspan><tspan id="SvgjsTspan1082" dy="20" x="30"><tspan id="SvgjsTspan1083" style="text-decoration:;">[1,1]</tspan></tspan></text></g></g><g id="SvgjsG1084"><path id="SvgjsPath1085" d="M114.8223571074974 506.9840950171316C 117.95816400237851 539.8119692673324 57.95816400237854 532.1880307326676 55.337651318705554 565.058728738898" stroke="#323232" stroke-width="2" fill="none"></path></g><g id="SvgjsG1086" transform="translate(152,566)"><path id="SvgjsPath1087" d="M 0 30C 0 -10 60 -10 60 30C 60 70 0 70 0 30Z" stroke="rgba(50,50,50,1)" stroke-width="2" fill-opacity="1" fill="#ffe0b2"></path><g id="SvgjsG1088"><text id="SvgjsText1089" font-family="微软雅黑" text-anchor="middle" font-size="16px" width="40px" fill="#323232" font-weight="700" align="middle" lineHeight="125%" anchor="middle" family="微软雅黑" size="16px" weight="700" font-style="" opacity="1" y="6" transform="rotate(0)"><tspan id="SvgjsTspan1090" dy="20" x="30"><tspan id="SvgjsTspan1091" style="text-decoration:;">17</tspan></tspan><tspan id="SvgjsTspan1092" dy="20" x="30"><tspan id="SvgjsTspan1093" style="text-decoration:;">[2,2]</tspan></tspan></text></g></g><g id="SvgjsG1094"><path id="SvgjsPath1095" d="M115.33979301868845 506.9405002416005C 118.13547554140354 541.8386494322716 185.1354755414036 530.1613505677284 181.82234543951637 565.0159070891733" stroke="#323232" stroke-width="2" fill="none"></path></g><g id="SvgjsG1096" transform="translate(327,446)"><path id="SvgjsPath1097" d="M 0 30C 0 -10 60 -10 60 30C 60 70 0 70 0 30Z" stroke="rgba(50,50,50,1)" stroke-width="2" fill-opacity="1" fill="#ffe0b2"></path><g id="SvgjsG1098"><text id="SvgjsText1099" font-family="微软雅黑" text-anchor="middle" font-size="16px" width="40px" fill="#323232" font-weight="700" align="middle" lineHeight="125%" anchor="middle" family="微软雅黑" size="16px" weight="700" font-style="" opacity="1" y="6" transform="rotate(0)"><tspan id="SvgjsTspan1100" dy="20" x="30"><tspan id="SvgjsTspan1101" style="text-decoration:;">10</tspan></tspan><tspan id="SvgjsTspan1102" dy="20" x="30"><tspan id="SvgjsTspan1103" style="text-decoration:;">[4,4]</tspan></tspan></text></g></g><g id="SvgjsG1104"><path id="SvgjsPath1105" d="M416.79512129611976 389.9787873705235C 419.8851578760184 421.97750542461404 357 412.89652586207905 357.28554732193726 445.0416353893562" stroke="#323232" stroke-width="2" fill="none"></path></g><g id="SvgjsG1106" transform="translate(447,446)"><path id="SvgjsPath1107" d="M 0 30C 0 -10 60 -10 60 30C 60 70 0 70 0 30Z" stroke="rgba(50,50,50,1)" stroke-width="2" fill-opacity="1" fill="#ffe0b2"></path><g id="SvgjsG1108"><text id="SvgjsText1109" font-family="微软雅黑" text-anchor="middle" font-size="16px" width="40px" fill="#323232" font-weight="700" align="middle" lineHeight="125%" anchor="middle" family="微软雅黑" size="16px" weight="700" font-style="" opacity="1" y="6" transform="rotate(0)"><tspan id="SvgjsTspan1110" dy="20" x="30"><tspan id="SvgjsTspan1111" style="text-decoration:;">11</tspan></tspan><tspan id="SvgjsTspan1112" dy="20" x="30"><tspan id="SvgjsTspan1113" style="text-decoration:;">[5,5]</tspan></tspan></text></g></g><g id="SvgjsG1114"><path id="SvgjsPath1115" d="M417.3516880806816 389.9361172436754C 419.8851578760184 421.97750542461404 479.8851578760184 413.02249457538596 476.80748380662374 445.0187062033785" stroke="#323232" stroke-width="2" fill="none"></path></g><g id="SvgjsG1116" transform="translate(879,329)"><path id="SvgjsPath1117" d="M 0 30C 0 -10 60 -10 60 30C 60 70 0 70 0 30Z" stroke="rgba(50,50,50,1)" stroke-width="2" fill-opacity="1" fill="#c8e6c9"></path><g id="SvgjsG1118"><text id="SvgjsText1119" font-family="微软雅黑" text-anchor="middle" font-size="16px" width="40px" fill="#323232" font-weight="700" align="middle" lineHeight="125%" anchor="middle" family="微软雅黑" size="16px" weight="700" font-style="" opacity="1" y="6" transform="rotate(0)"><tspan id="SvgjsTspan1120" dy="20" x="30"><tspan id="SvgjsTspan1121" style="text-decoration:;">7</tspan></tspan><tspan id="SvgjsTspan1122" dy="20" x="30"><tspan id="SvgjsTspan1123" style="text-decoration:;">[9,10]</tspan></tspan></text></g></g><g id="SvgjsG1124" transform="translate(806,450)"><path id="SvgjsPath1125" d="M 0 30C 0 -10 60 -10 60 30C 60 70 0 70 0 30Z" stroke="rgba(50,50,50,1)" stroke-width="2" fill-opacity="1" fill="#ffe0b2"></path><g id="SvgjsG1126"><text id="SvgjsText1127" font-family="微软雅黑" text-anchor="middle" font-size="16px" width="40px" fill="#323232" font-weight="700" align="middle" lineHeight="125%" anchor="middle" family="微软雅黑" size="16px" weight="700" font-style="" opacity="1" y="6" transform="rotate(0)"><tspan id="SvgjsTspan1128" dy="20" x="30"><tspan id="SvgjsTspan1129" style="text-decoration:;">14</tspan></tspan><tspan id="SvgjsTspan1130" dy="20" x="30"><tspan id="SvgjsTspan1131" style="text-decoration:;">[9,9]</tspan></tspan></text></g></g><g id="SvgjsG1132"><path id="SvgjsPath1133" d="M908.8175406679559 389.9832134011241C 912.3165021964655 426.907793567825 836 411.94740481911913 836.2657060979946 449.03594591983205" stroke="#323232" stroke-width="2" fill="none"></path></g><g id="SvgjsG1134" transform="translate(939,450)"><path id="SvgjsPath1135" d="M 0 30C 0 -10 60 -10 60 30C 60 70 0 70 0 30Z" stroke="rgba(50,50,50,1)" stroke-width="2" fill-opacity="1" fill="#ffe0b2"></path><g id="SvgjsG1136"><text id="SvgjsText1137" font-family="微软雅黑" text-anchor="middle" font-size="16px" width="40px" fill="#323232" font-weight="700" align="middle" lineHeight="125%" anchor="middle" family="微软雅黑" size="16px" weight="700" font-style="" opacity="1" y="-4" transform="rotate(0)"><tspan id="SvgjsTspan1138" dy="20" x="30"><tspan id="SvgjsTspan1139" style="text-decoration:;">15</tspan></tspan><tspan id="SvgjsTspan1140" dy="20" x="30"><tspan id="SvgjsTspan1141" style="text-decoration:;">[10,1</tspan></tspan><tspan id="SvgjsTspan1142" dy="20" x="30"><tspan id="SvgjsTspan1143" style="text-decoration:;">0]</tspan></tspan></text></g></g><g id="SvgjsG1144"><path id="SvgjsPath1145" d="M909.3331588877438 389.94287069925696C 911.9829172324773 423.09489998202355 971.9829172324773 415.90510001797645 968.8271081849693 449.0150591792928" stroke="#323232" stroke-width="2" fill="none"></path></g><g id="SvgjsG1146"><path id="SvgjsPath1147" d="M776.2914994409821 269.9565709988846C 781.0866707864623 327.1409131361914 914.0866707864623 270.8590868638086 908.8856128031709 328.0065637568512" stroke="#323232" stroke-width="2" fill="none"></path></g><g id="SvgjsG1148" transform="translate(616,329)"><path id="SvgjsPath1149" d="M 0 30C 0 -10 60 -10 60 30C 60 70 0 70 0 30Z" stroke="rgba(50,50,50,1)" stroke-width="2" fill-opacity="1" fill="#c8e6c9"></path><g id="SvgjsG1150"><text id="SvgjsText1151" font-family="微软雅黑" text-anchor="middle" font-size="16px" width="40px" fill="#323232" font-weight="700" align="middle" lineHeight="125%" anchor="middle" family="微软雅黑" size="16px" weight="700" font-style="" opacity="1" y="6" transform="rotate(0)"><tspan id="SvgjsTspan1152" dy="20" x="30"><tspan id="SvgjsTspan1153" style="text-decoration:;">6</tspan></tspan><tspan id="SvgjsTspan1154" dy="20" x="30"><tspan id="SvgjsTspan1155" style="text-decoration:;">[6,8]</tspan></tspan></text></g></g><g id="SvgjsG1156" transform="translate(556,446)"><path id="SvgjsPath1157" d="M 0 30C 0 -10 60 -10 60 30C 60 70 0 70 0 30Z" stroke="rgba(50,50,50,1)" stroke-width="2" fill-opacity="1" fill="#c8e6c9"></path><g id="SvgjsG1158"><text id="SvgjsText1159" font-family="微软雅黑" text-anchor="middle" font-size="16px" width="40px" fill="#323232" font-weight="700" align="middle" lineHeight="125%" anchor="middle" family="微软雅黑" size="16px" weight="700" font-style="" opacity="1" y="6" transform="rotate(0)"><tspan id="SvgjsTspan1160" dy="20" x="30"><tspan id="SvgjsTspan1161" style="text-decoration:;">12</tspan></tspan><tspan id="SvgjsTspan1162" dy="20" x="30"><tspan id="SvgjsTspan1163" style="text-decoration:;">[6,7]</tspan></tspan></text></g></g><g id="SvgjsG1164"><path id="SvgjsPath1165" d="M645.7951212961198 389.9787873705235C 648.8851578760184 421.97750542461404 586 412.89652586207905 586.2855473219373 445.0416353893562" stroke="#323232" stroke-width="2" fill="none"></path></g><g id="SvgjsG1166" transform="translate(686,450)"><path id="SvgjsPath1167" d="M 0 30C 0 -10 60 -10 60 30C 60 70 0 70 0 30Z" stroke="rgba(50,50,50,1)" stroke-width="2" fill-opacity="1" fill="#ffe0b2"></path><g id="SvgjsG1168"><text id="SvgjsText1169" font-family="微软雅黑" text-anchor="middle" font-size="16px" width="40px" fill="#323232" font-weight="700" align="middle" lineHeight="125%" anchor="middle" family="微软雅黑" size="16px" weight="700" font-style="" opacity="1" y="6" transform="rotate(0)"><tspan id="SvgjsTspan1170" dy="20" x="30"><tspan id="SvgjsTspan1171" style="text-decoration:;">13</tspan></tspan><tspan id="SvgjsTspan1172" dy="20" x="30"><tspan id="SvgjsTspan1173" style="text-decoration:;">[8,8]</tspan></tspan></text></g></g><g id="SvgjsG1174"><path id="SvgjsPath1175" d="M646.3358294738647 389.9419228017644C 649.2369412880898 425.9984082238339 719.2369412880898 413.0015917761661 715.8273911138198 449.0150095571978" stroke="#323232" stroke-width="2" fill="none"></path></g><g id="SvgjsG1176"><path id="SvgjsPath1177" d="M775.8824236608912 269.9930638471326C 780.9915213171917 326.0533497258489 650.9915213171917 271.9466502741511 646.2942934541039 328.04428489450487" stroke="#323232" stroke-width="2" fill="none"></path></g><g id="SvgjsG1178" transform="translate(500,566)"><path id="SvgjsPath1179" d="M 0 30C 0 -10 60 -10 60 30C 60 70 0 70 0 30Z" stroke="rgba(50,50,50,1)" stroke-width="2" fill-opacity="1" fill="#ffe0b2"></path><g id="SvgjsG1180"><text id="SvgjsText1181" font-family="微软雅黑" text-anchor="middle" font-size="16px" width="40px" fill="#323232" font-weight="700" align="middle" lineHeight="125%" anchor="middle" family="微软雅黑" size="16px" weight="700" font-style="" opacity="1" y="6" transform="rotate(0)"><tspan id="SvgjsTspan1182" dy="20" x="30"><tspan id="SvgjsTspan1183" style="text-decoration:;">24</tspan></tspan><tspan id="SvgjsTspan1184" dy="20" x="30"><tspan id="SvgjsTspan1185" style="text-decoration:;">[6,6]</tspan></tspan></text></g></g><g id="SvgjsG1186" transform="translate(616,566)"><path id="SvgjsPath1187" d="M 0 30C 0 -10 60 -10 60 30C 60 70 0 70 0 30Z" stroke="rgba(50,50,50,1)" stroke-width="2" fill-opacity="1" fill="#ffe0b2"></path><g id="SvgjsG1188"><text id="SvgjsText1189" font-family="微软雅黑" text-anchor="middle" font-size="16px" width="40px" fill="#323232" font-weight="700" align="middle" lineHeight="125%" anchor="middle" family="微软雅黑" size="16px" weight="700" font-style="" opacity="1" y="6" transform="rotate(0)"><tspan id="SvgjsTspan1190" dy="20" x="30"><tspan id="SvgjsTspan1191" style="text-decoration:;">25</tspan></tspan><tspan id="SvgjsTspan1192" dy="20" x="30"><tspan id="SvgjsTspan1193" style="text-decoration:;">[7,7]</tspan></tspan></text></g></g><g id="SvgjsG1194"><path id="SvgjsPath1195" d="M585.8240421744641 506.9843977060277C 588.8612581248083 538.7043300182594 532.8612581248083 533.2956699817406 530.3347872256586 565.0577062488078" stroke="#323232" stroke-width="2" fill="none"></path></g><g id="SvgjsG1196"><path id="SvgjsPath1197" d="M586.3376513187055 506.941271261102C 588.9581640023786 539.8119692673324 648.9581640023786 532.1880307326676 645.8223571074974 565.0159049828684" stroke="#323232" stroke-width="2" fill="none"></path></g></svg>