<svg id="SvgjsSvg1006" width="762" height="543" xmlns="http://www.w3.org/2000/svg" version="1.1" xmlns:xlink="http://www.w3.org/1999/xlink" xmlns:svgjs="http://svgjs.com/svgjs"><defs id="SvgjsDefs1007"><marker id="SvgjsMarker1058" markerWidth="14" markerHeight="10" refX="10" refY="5" viewBox="0 0 14 10" orient="auto" markerUnits="userSpaceOnUse" stroke-dasharray="0,0"><path id="SvgjsPath1059" d="M0,0 L14,5 L0,10 L0,0" fill="#323232" stroke="#323232" stroke-width="1"></path></marker><marker id="SvgjsMarker1062" markerWidth="14" markerHeight="10" refX="10" refY="5" viewBox="0 0 14 10" orient="auto" markerUnits="userSpaceOnUse" stroke-dasharray="0,0"><path id="SvgjsPath1063" d="M0,0 L14,5 L0,10 L0,0" fill="#323232" stroke="#323232" stroke-width="1"></path></marker><marker id="SvgjsMarker1066" markerWidth="14" markerHeight="10" refX="10" refY="5" viewBox="0 0 14 10" orient="auto" markerUnits="userSpaceOnUse" stroke-dasharray="0,0"><path id="SvgjsPath1067" d="M0,0 L14,5 L0,10 L0,0" fill="#323232" stroke="#323232" stroke-width="1"></path></marker><marker id="SvgjsMarker1070" markerWidth="14" markerHeight="10" refX="10" refY="5" viewBox="0 0 14 10" orient="auto" markerUnits="userSpaceOnUse" stroke-dasharray="0,0"><path id="SvgjsPath1071" d="M0,0 L14,5 L0,10 L0,0" fill="#323232" stroke="#323232" stroke-width="1"></path></marker><marker id="SvgjsMarker1074" markerWidth="14" markerHeight="10" refX="10" refY="5" viewBox="0 0 14 10" orient="auto" markerUnits="userSpaceOnUse" stroke-dasharray="0,0"><path id="SvgjsPath1075" d="M0,0 L14,5 L0,10 L0,0" fill="#323232" stroke="#323232" stroke-width="1"></path></marker><marker id="SvgjsMarker1078" markerWidth="14" markerHeight="10" refX="10" refY="5" viewBox="0 0 14 10" orient="auto" markerUnits="userSpaceOnUse" stroke-dasharray="0,0"><path id="SvgjsPath1079" d="M0,0 L14,5 L0,10 L0,0" fill="#323232" stroke="#323232" stroke-width="1"></path></marker><marker id="SvgjsMarker1082" markerWidth="14" markerHeight="10" refX="10" refY="5" viewBox="0 0 14 10" orient="auto" markerUnits="userSpaceOnUse" stroke-dasharray="0,0"><path id="SvgjsPath1083" d="M0,0 L14,5 L0,10 L0,0" fill="#323232" stroke="#323232" stroke-width="1"></path></marker><marker id="SvgjsMarker1092" markerWidth="14" markerHeight="10" refX="10" refY="5" viewBox="0 0 14 10" orient="auto" markerUnits="userSpaceOnUse" stroke-dasharray="0,0"><path id="SvgjsPath1093" d="M0,0 L14,5 L0,10 L0,0" fill="#323232" stroke="#323232" stroke-width="1"></path></marker></defs><g id="SvgjsG1008" transform="translate(386,25)"><path id="SvgjsPath1009" d="M 0 30C 0 -10 60 -10 60 30C 60 70 0 70 0 30Z" stroke="rgba(50,50,50,1)" stroke-width="2" fill-opacity="1" fill="#4caf50"></path><g id="SvgjsG1010"><text id="SvgjsText1011" font-family="微软雅黑" text-anchor="middle" font-size="20px" width="40px" fill="#323232" font-weight="700" align="middle" lineHeight="125%" anchor="middle" family="微软雅黑" size="20px" weight="700" font-style="" opacity="1" y="12" transform="rotate(0)"><tspan id="SvgjsTspan1012" dy="25" x="30"><tspan id="SvgjsTspan1013" style="text-decoration:;">/</tspan></tspan></text></g></g><g id="SvgjsG1014" transform="translate(201,189)"><path id="SvgjsPath1015" d="M 0 30C 0 -10 60 -10 60 30C 60 70 0 70 0 30Z" stroke="rgba(50,50,50,1)" stroke-width="2" fill-opacity="1" fill="#c8e6c9"></path><g id="SvgjsG1016"><text id="SvgjsText1017" font-family="微软雅黑" text-anchor="middle" font-size="20px" width="40px" fill="#323232" font-weight="700" align="middle" lineHeight="125%" anchor="middle" family="微软雅黑" size="20px" weight="700" font-style="" opacity="1" y="12" transform="rotate(0)"><tspan id="SvgjsTspan1018" dy="25" x="30"><tspan id="SvgjsTspan1019" style="text-decoration:;">H</tspan></tspan></text></g></g><g id="SvgjsG1020" transform="translate(564,189)"><path id="SvgjsPath1021" d="M 0 30C 0 -10 60 -10 60 30C 60 70 0 70 0 30Z" stroke="rgba(50,50,50,1)" stroke-width="2" fill-opacity="1" fill="#c8e6c9"></path><g id="SvgjsG1022"><text id="SvgjsText1023" font-family="微软雅黑" text-anchor="middle" font-size="20px" width="40px" fill="#323232" font-weight="700" align="middle" lineHeight="125%" anchor="middle" family="微软雅黑" size="20px" weight="700" font-style="" opacity="1" y="12" transform="rotate(0)"><tspan id="SvgjsTspan1024" dy="25" x="30"><tspan id="SvgjsTspan1025" style="text-decoration:;">S</tspan></tspan></text></g></g><g id="SvgjsG1026" transform="translate(81,327)"><path id="SvgjsPath1027" d="M 0 30C 0 -10 60 -10 60 30C 60 70 0 70 0 30Z" stroke="rgba(50,50,50,1)" stroke-width="2" fill-opacity="1" fill="#c8e6c9"></path><g id="SvgjsG1028"><text id="SvgjsText1029" font-family="微软雅黑" text-anchor="middle" font-size="20px" width="40px" fill="#323232" font-weight="700" align="middle" lineHeight="125%" anchor="middle" family="微软雅黑" size="20px" weight="700" font-style="" opacity="1" y="12" transform="rotate(0)"><tspan id="SvgjsTspan1030" dy="25" x="30"><tspan id="SvgjsTspan1031" style="text-decoration:;">E</tspan></tspan></text></g></g><g id="SvgjsG1032" transform="translate(326,327)"><path id="SvgjsPath1033" d="M 0 30C 0 -10 60 -10 60 30C 60 70 0 70 0 30Z" stroke="rgba(50,50,50,1)" stroke-width="2" fill-opacity="1" fill="#ffe0b2"></path><g id="SvgjsG1034"><text id="SvgjsText1035" font-family="微软雅黑" text-anchor="middle" font-size="20px" width="40px" fill="#323232" font-weight="700" align="middle" lineHeight="125%" anchor="middle" family="微软雅黑" size="20px" weight="700" font-style="" opacity="1" y="12" transform="rotate(0)"><tspan id="SvgjsTspan1036" dy="25" x="30"><tspan id="SvgjsTspan1037" style="text-decoration:;">I</tspan></tspan></text></g></g><g id="SvgjsG1038" transform="translate(446,327)"><path id="SvgjsPath1039" d="M 0 30C 0 -10 60 -10 60 30C 60 70 0 70 0 30Z" stroke="rgba(50,50,50,1)" stroke-width="2" fill-opacity="1" fill="#c8e6c9"></path><g id="SvgjsG1040"><text id="SvgjsText1041" font-family="微软雅黑" text-anchor="middle" font-size="20px" width="40px" fill="#323232" font-weight="700" align="middle" lineHeight="125%" anchor="middle" family="微软雅黑" size="20px" weight="700" font-style="" opacity="1" y="12" transform="rotate(0)"><tspan id="SvgjsTspan1042" dy="25" x="30"><tspan id="SvgjsTspan1043" style="text-decoration:;">E</tspan></tspan></text></g></g><g id="SvgjsG1044" transform="translate(677,327)"><path id="SvgjsPath1045" d="M 0 30C 0 -10 60 -10 60 30C 60 70 0 70 0 30Z" stroke="rgba(50,50,50,1)" stroke-width="2" fill-opacity="1" fill="#ffe0b2"></path><g id="SvgjsG1046"><text id="SvgjsText1047" font-family="微软雅黑" text-anchor="middle" font-size="20px" width="40px" fill="#323232" font-weight="700" align="middle" lineHeight="125%" anchor="middle" family="微软雅黑" size="20px" weight="700" font-style="" opacity="1" y="12" transform="rotate(0)"><tspan id="SvgjsTspan1048" dy="25" x="30"><tspan id="SvgjsTspan1049" style="text-decoration:;">O</tspan></tspan></text></g></g><g id="SvgjsG1050" transform="translate(25,458)"><path id="SvgjsPath1051" d="M 0 30C 0 -10 60 -10 60 30C 60 70 0 70 0 30Z" stroke="rgba(50,50,50,1)" stroke-width="2" fill-opacity="1" fill="#ffe0b2"></path><g id="SvgjsG1052"><text id="SvgjsText1053" font-family="微软雅黑" text-anchor="middle" font-size="20px" width="40px" fill="#323232" font-weight="700" align="middle" lineHeight="125%" anchor="middle" family="微软雅黑" size="20px" weight="700" font-style="" opacity="1" y="12" transform="rotate(0)"><tspan id="SvgjsTspan1054" dy="25" x="30"><tspan id="SvgjsTspan1055" style="text-decoration:;">R</tspan></tspan></text></g></g><g id="SvgjsG1056"><path id="SvgjsPath1057" d="M415.9544958783738 85.99896415096592C 423.3987782590216 169.5684224771506 231.00000000000006 104.10853988768952 231.48642158859013 185.4330133111892" stroke="#323232" stroke-width="2" fill="none" marker-end="url(#SvgjsMarker1058)"></path></g><g id="SvgjsG1060"><path id="SvgjsPath1061" d="M416.21998248330624 85.97550382215468C 423.18704666455506 167.14831927825128 601.1870466645552 106.85168072174872 593.8453102941629 185.403324994539" stroke="#323232" stroke-width="2" fill="none" marker-end="url(#SvgjsMarker1062)"></path></g><g id="SvgjsG1064"><path id="SvgjsPath1065" d="M230.90126002240874 249.99511326833948C 235.98957302620522 306.0310806579725 115.98957302620522 269.9689193420275 111.98132091481301 323.53633008758766" stroke="#323232" stroke-width="2" fill="none" marker-end="url(#SvgjsMarker1066)"></path></g><g id="SvgjsG1068"><path id="SvgjsPath1069" d="M110.87297321504948 387.99189928717846C 114.15248478022244 423.0330659216013 58.15248478022244 421.9669340783987 56.03891135682758 454.55316620756753" stroke="#323232" stroke-width="2" fill="none" marker-end="url(#SvgjsMarker1070)"></path></g><g id="SvgjsG1072"><path id="SvgjsPath1073" d="M231.26338969931697 249.96468951808015C 236.13660191066413 307.71162849735447 356 268.0641026198803 355.36212217541845 323.4569629015621" stroke="#323232" stroke-width="2" fill="none" marker-end="url(#SvgjsMarker1074)"></path></g><g id="SvgjsG1076"><path id="SvgjsPath1077" d="M593.8922987601188 249.99418330449072C 598.9312592933793 305.36455164180285 476 270.4201449277218 476.7044000975977 323.4695863553254" stroke="#323232" stroke-width="2" fill="none" marker-end="url(#SvgjsMarker1078)"></path></g><g id="SvgjsG1080"><path id="SvgjsPath1081" d="M594.2758778262253 249.9611927096047C 598.7868104826562 303.71349418016666 711.7868104826562 272.28650581983334 706.6291707325388 323.4191501491414" stroke="#323232" stroke-width="2" fill="none" marker-end="url(#SvgjsMarker1082)"></path></g><g id="SvgjsG1084" transform="translate(386,458)"><path id="SvgjsPath1085" d="M 0 30C 0 -10 60 -10 60 30C 60 70 0 70 0 30Z" stroke="rgba(50,50,50,1)" stroke-width="2" fill-opacity="1" fill="#ffe0b2"></path><g id="SvgjsG1086"><text id="SvgjsText1087" font-family="微软雅黑" text-anchor="middle" font-size="20px" width="40px" fill="#323232" font-weight="700" align="middle" lineHeight="125%" anchor="middle" family="微软雅黑" size="20px" weight="700" font-style="" opacity="1" y="12" transform="rotate(0)"><tspan id="SvgjsTspan1088" dy="25" x="30"><tspan id="SvgjsTspan1089" style="text-decoration:;">E</tspan></tspan></text></g></g><g id="SvgjsG1090"><path id="SvgjsPath1091" d="M475.86937627670227 387.99143201628345C 479.24069382967923 424.04129997046914 419.24069382967923 420.95870002953086 417.0548677777623 454.558015983268" stroke="#323232" stroke-width="2" fill="none" marker-end="url(#SvgjsMarker1092)"></path></g></svg>