<svg id="SvgjsSvg1280" width="380" height="380" xmlns="http://www.w3.org/2000/svg" version="1.1" xmlns:xlink="http://www.w3.org/1999/xlink" xmlns:svgjs="http://svgjs.com/svgjs"><defs id="SvgjsDefs1281"><marker id="SvgjsMarker1358" markerWidth="14" markerHeight="10" refX="10" refY="5" viewBox="0 0 14 10" orient="auto" markerUnits="userSpaceOnUse" stroke-dasharray="0,0"><path id="SvgjsPath1359" d="M0,0 L14,5 L0,10 L0,0" fill="#323232" stroke="#323232" stroke-width="1"></path></marker><marker id="SvgjsMarker1362" markerWidth="14" markerHeight="10" refX="10" refY="5" viewBox="0 0 14 10" orient="auto" markerUnits="userSpaceOnUse" stroke-dasharray="0,0"><path id="SvgjsPath1363" d="M0,0 L14,5 L0,10 L0,0" fill="#323232" stroke="#323232" stroke-width="1"></path></marker><marker id="SvgjsMarker1366" markerWidth="14" markerHeight="10" refX="10" refY="5" viewBox="0 0 14 10" orient="auto" markerUnits="userSpaceOnUse" stroke-dasharray="0,0"><path id="SvgjsPath1367" d="M0,0 L14,5 L0,10 L0,0" fill="#323232" stroke="#323232" stroke-width="1"></path></marker></defs><g id="SvgjsG1282" transform="translate(25,25)"><path id="SvgjsPath1283" d="M 0 4Q 0 0 4 0L 56 0Q 60 0 60 4L 60 56Q 60 60 56 60L 4 60Q 0 60 0 56Z" stroke="rgba(50,50,50,1)" stroke-width="2" fill-opacity="1" fill="#ffcdd2"></path><g id="SvgjsG1284"><text id="SvgjsText1285" font-family="微软雅黑" text-anchor="middle" font-size="19px" width="40px" fill="#323232" font-weight="400" align="middle" lineHeight="125%" anchor="middle" family="微软雅黑" size="19px" weight="400" font-style="" opacity="1" y="13.625" transform="rotate(0)"><tspan id="SvgjsTspan1286" dy="23" x="30"><tspan id="SvgjsTspan1287" style="text-decoration:;">STA</tspan></tspan></text></g></g><g id="SvgjsG1288" transform="translate(115,25)"><path id="SvgjsPath1289" d="M 0 4Q 0 0 4 0L 56 0Q 60 0 60 4L 60 56Q 60 60 56 60L 4 60Q 0 60 0 56Z" stroke="rgba(50,50,50,1)" stroke-width="2" fill-opacity="1" fill="#ffffff"></path><g id="SvgjsG1290"><text id="SvgjsText1291" font-family="微软雅黑" text-anchor="middle" font-size="19px" width="40px" fill="#323232" font-weight="400" align="middle" lineHeight="125%" anchor="middle" family="微软雅黑" size="19px" weight="400" font-style="" opacity="1" y="13.625" transform="rotate(0)"></text></g></g><g id="SvgjsG1292" transform="translate(205,25)"><path id="SvgjsPath1293" d="M 0 4Q 0 0 4 0L 56 0Q 60 0 60 4L 60 56Q 60 60 56 60L 4 60Q 0 60 0 56Z" stroke="rgba(50,50,50,1)" stroke-width="2" fill-opacity="1" fill="#ffffff"></path><g id="SvgjsG1294"><text id="SvgjsText1295" font-family="微软雅黑" text-anchor="middle" font-size="19px" width="40px" fill="#323232" font-weight="400" align="middle" lineHeight="125%" anchor="middle" family="微软雅黑" size="19px" weight="400" font-style="" opacity="1" y="13.625" transform="rotate(0)"></text></g></g><g id="SvgjsG1296" transform="translate(295,25)"><path id="SvgjsPath1297" d="M 0 4Q 0 0 4 0L 56 0Q 60 0 60 4L 60 56Q 60 60 56 60L 4 60Q 0 60 0 56Z" stroke="rgba(50,50,50,1)" stroke-width="2" fill-opacity="1" fill="#ffffff"></path><g id="SvgjsG1298"><text id="SvgjsText1299" font-family="微软雅黑" text-anchor="middle" font-size="19px" width="40px" fill="#323232" font-weight="400" align="middle" lineHeight="125%" anchor="middle" family="微软雅黑" size="19px" weight="400" font-style="" opacity="1" y="13.625" transform="rotate(0)"></text></g></g><g id="SvgjsG1300" transform="translate(25,115)"><path id="SvgjsPath1301" d="M 0 4Q 0 0 4 0L 56 0Q 60 0 60 4L 60 56Q 60 60 56 60L 4 60Q 0 60 0 56Z" stroke="rgba(50,50,50,1)" stroke-width="2" fill-opacity="1" fill="#ffe0b2"></path><g id="SvgjsG1302"><text id="SvgjsText1303" font-family="微软雅黑" text-anchor="middle" font-size="19px" width="40px" fill="#323232" font-weight="400" align="middle" lineHeight="125%" anchor="middle" family="微软雅黑" size="19px" weight="400" font-style="" opacity="1" y="13.625" transform="rotate(0)"><tspan id="SvgjsTspan1304" dy="23" x="30"><tspan id="SvgjsTspan1305" style="text-decoration:;">2</tspan></tspan></text></g></g><g id="SvgjsG1306" transform="translate(115,115)"><path id="SvgjsPath1307" d="M 0 4Q 0 0 4 0L 56 0Q 60 0 60 4L 60 56Q 60 60 56 60L 4 60Q 0 60 0 56Z" stroke="rgba(50,50,50,1)" stroke-width="2" fill-opacity="1" fill="#ffffff"></path><g id="SvgjsG1308"><text id="SvgjsText1309" font-family="微软雅黑" text-anchor="middle" font-size="19px" width="40px" fill="#323232" font-weight="400" align="middle" lineHeight="125%" anchor="middle" family="微软雅黑" size="19px" weight="400" font-style="" opacity="1" y="13.625" transform="rotate(0)"></text></g></g><g id="SvgjsG1310" transform="translate(205,115)"><path id="SvgjsPath1311" d="M 0 4Q 0 0 4 0L 56 0Q 60 0 60 4L 60 56Q 60 60 56 60L 4 60Q 0 60 0 56Z" stroke="rgba(50,50,50,1)" stroke-width="2" fill-opacity="1" fill="#ffffff"></path><g id="SvgjsG1312"><text id="SvgjsText1313" font-family="微软雅黑" text-anchor="middle" font-size="19px" width="40px" fill="#323232" font-weight="400" align="middle" lineHeight="125%" anchor="middle" family="微软雅黑" size="19px" weight="400" font-style="" opacity="1" y="13.625" transform="rotate(0)"></text></g></g><g id="SvgjsG1314" transform="translate(295,115)"><path id="SvgjsPath1315" d="M 0 4Q 0 0 4 0L 56 0Q 60 0 60 4L 60 56Q 60 60 56 60L 4 60Q 0 60 0 56Z" stroke="rgba(50,50,50,1)" stroke-width="2" fill-opacity="1" fill="#ffffff"></path><g id="SvgjsG1316"><text id="SvgjsText1317" font-family="微软雅黑" text-anchor="middle" font-size="19px" width="40px" fill="#323232" font-weight="400" align="middle" lineHeight="125%" anchor="middle" family="微软雅黑" size="19px" weight="400" font-style="" opacity="1" y="13.625" transform="rotate(0)"></text></g></g><g id="SvgjsG1318" transform="translate(25,205)"><path id="SvgjsPath1319" d="M 0 4Q 0 0 4 0L 56 0Q 60 0 60 4L 60 56Q 60 60 56 60L 4 60Q 0 60 0 56Z" stroke="rgba(50,50,50,1)" stroke-width="2" fill-opacity="1" fill="#c8e6c9"></path><g id="SvgjsG1320"><text id="SvgjsText1321" font-family="微软雅黑" text-anchor="middle" font-size="19px" width="40px" fill="#323232" font-weight="400" align="middle" lineHeight="125%" anchor="middle" family="微软雅黑" size="19px" weight="400" font-style="" opacity="1" y="13.625" transform="rotate(0)"><tspan id="SvgjsTspan1322" dy="23" x="30"><tspan id="SvgjsTspan1323" style="text-decoration:;">3</tspan></tspan></text></g></g><g id="SvgjsG1324" transform="translate(115,205)"><path id="SvgjsPath1325" d="M 0 4Q 0 0 4 0L 56 0Q 60 0 60 4L 60 56Q 60 60 56 60L 4 60Q 0 60 0 56Z" stroke="rgba(50,50,50,1)" stroke-width="2" fill-opacity="1" fill="#ffffff"></path><g id="SvgjsG1326"><text id="SvgjsText1327" font-family="微软雅黑" text-anchor="middle" font-size="19px" width="40px" fill="#323232" font-weight="400" align="middle" lineHeight="125%" anchor="middle" family="微软雅黑" size="19px" weight="400" font-style="" opacity="1" y="13.625" transform="rotate(0)"></text></g></g><g id="SvgjsG1328" transform="translate(205,205)"><path id="SvgjsPath1329" d="M 0 4Q 0 0 4 0L 56 0Q 60 0 60 4L 60 56Q 60 60 56 60L 4 60Q 0 60 0 56Z" stroke="rgba(50,50,50,1)" stroke-width="2" fill-opacity="1" fill="#ffffff"></path><g id="SvgjsG1330"><text id="SvgjsText1331" font-family="微软雅黑" text-anchor="middle" font-size="19px" width="40px" fill="#323232" font-weight="400" align="middle" lineHeight="125%" anchor="middle" family="微软雅黑" size="19px" weight="400" font-style="" opacity="1" y="13.625" transform="rotate(0)"></text></g></g><g id="SvgjsG1332" transform="translate(295,205)"><path id="SvgjsPath1333" d="M 0 4Q 0 0 4 0L 56 0Q 60 0 60 4L 60 56Q 60 60 56 60L 4 60Q 0 60 0 56Z" stroke="rgba(50,50,50,1)" stroke-width="2" fill-opacity="1" fill="#ffffff"></path><g id="SvgjsG1334"><text id="SvgjsText1335" font-family="微软雅黑" text-anchor="middle" font-size="19px" width="40px" fill="#323232" font-weight="400" align="middle" lineHeight="125%" anchor="middle" family="微软雅黑" size="19px" weight="400" font-style="" opacity="1" y="13.625" transform="rotate(0)"></text></g></g><g id="SvgjsG1336" transform="translate(25,295)"><path id="SvgjsPath1337" d="M 0 4Q 0 0 4 0L 56 0Q 60 0 60 4L 60 56Q 60 60 56 60L 4 60Q 0 60 0 56Z" stroke="rgba(50,50,50,1)" stroke-width="2" fill-opacity="1" fill="#b2ebf2"></path><g id="SvgjsG1338"><text id="SvgjsText1339" font-family="微软雅黑" text-anchor="middle" font-size="19px" width="40px" fill="#323232" font-weight="400" align="middle" lineHeight="125%" anchor="middle" family="微软雅黑" size="19px" weight="400" font-style="" opacity="1" y="13.625" transform="rotate(0)"><tspan id="SvgjsTspan1340" dy="23" x="30"><tspan id="SvgjsTspan1341" style="text-decoration:;">4</tspan></tspan></text></g></g><g id="SvgjsG1342" transform="translate(115,295)"><path id="SvgjsPath1343" d="M 0 4Q 0 0 4 0L 56 0Q 60 0 60 4L 60 56Q 60 60 56 60L 4 60Q 0 60 0 56Z" stroke="rgba(50,50,50,1)" stroke-width="2" fill-opacity="1" fill="#ffffff"></path><g id="SvgjsG1344"><text id="SvgjsText1345" font-family="微软雅黑" text-anchor="middle" font-size="19px" width="40px" fill="#323232" font-weight="400" align="middle" lineHeight="125%" anchor="middle" family="微软雅黑" size="19px" weight="400" font-style="" opacity="1" y="13.625" transform="rotate(0)"></text></g></g><g id="SvgjsG1346" transform="translate(205,295)"><path id="SvgjsPath1347" d="M 0 4Q 0 0 4 0L 56 0Q 60 0 60 4L 60 56Q 60 60 56 60L 4 60Q 0 60 0 56Z" stroke="rgba(50,50,50,1)" stroke-width="2" fill-opacity="1" fill="#ffffff"></path><g id="SvgjsG1348"><text id="SvgjsText1349" font-family="微软雅黑" text-anchor="middle" font-size="19px" width="40px" fill="#323232" font-weight="400" align="middle" lineHeight="125%" anchor="middle" family="微软雅黑" size="19px" weight="400" font-style="" opacity="1" y="13.625" transform="rotate(0)"></text></g></g><g id="SvgjsG1350" transform="translate(295,295)"><path id="SvgjsPath1351" d="M 0 4Q 0 0 4 0L 56 0Q 60 0 60 4L 60 56Q 60 60 56 60L 4 60Q 0 60 0 56Z" stroke="rgba(50,50,50,1)" stroke-width="2" fill-opacity="1" fill="#e1bee7"></path><g id="SvgjsG1352"><text id="SvgjsText1353" font-family="微软雅黑" text-anchor="middle" font-size="19px" width="40px" fill="#323232" font-weight="400" align="middle" lineHeight="125%" anchor="middle" family="微软雅黑" size="19px" weight="400" font-style="" opacity="1" y="13.625" transform="rotate(0)"><tspan id="SvgjsTspan1354" dy="23" x="30"><tspan id="SvgjsTspan1355" style="text-decoration:;">END</tspan></tspan></text></g></g><g id="SvgjsG1356"><path id="SvgjsPath1357" d="M55 86L55 111.4" stroke-dasharray="3,3" stroke="#323232" stroke-width="2" fill="none" marker-end="url(#SvgjsMarker1358)"></path></g><g id="SvgjsG1360"><path id="SvgjsPath1361" d="M55 176L55 201.39999999999998" stroke-dasharray="3,3" stroke="#323232" stroke-width="2" fill="none" marker-end="url(#SvgjsMarker1362)"></path></g><g id="SvgjsG1364"><path id="SvgjsPath1365" d="M55 266L55 291.4" stroke-dasharray="3,3" stroke="#323232" stroke-width="2" fill="none" marker-end="url(#SvgjsMarker1366)"></path></g></svg>