<svg id="SvgjsSvg1994" width="1262" height="397.5" xmlns="http://www.w3.org/2000/svg" version="1.1" xmlns:xlink="http://www.w3.org/1999/xlink" xmlns:svgjs="http://svgjs.com/svgjs"><defs id="SvgjsDefs1995"><marker id="SvgjsMarker2112" markerWidth="14" markerHeight="10" refX="10" refY="5" viewBox="0 0 14 10" orient="auto" markerUnits="userSpaceOnUse" stroke-dasharray="0,0"><path id="SvgjsPath2113" d="M0,0 L14,5 L0,10 L0,0" fill="#323232" stroke="#323232" stroke-width="1"></path></marker><marker id="SvgjsMarker2120" markerWidth="14" markerHeight="10" refX="10" refY="5" viewBox="0 0 14 10" orient="auto" markerUnits="userSpaceOnUse" stroke-dasharray="0,0"><path id="SvgjsPath2121" d="M0,0 L14,5 L0,10 L0,0" fill="#323232" stroke="#323232" stroke-width="1"></path></marker></defs><g id="SvgjsG1996" transform="translate(160,28)"><path id="SvgjsPath1997" d="M 0 30C 0 -10 60 -10 60 30C 60 70 0 70 0 30Z" stroke="rgba(50,50,50,1)" stroke-width="2" fill-opacity="1" fill="#81c784"></path><g id="SvgjsG1998"><text id="SvgjsText1999" font-family="微软雅黑" text-anchor="middle" font-size="22px" width="40px" fill="#323232" font-weight="700" align="middle" lineHeight="125%" anchor="middle" family="微软雅黑" size="22px" weight="700" font-style="" opacity="1" y="10.25" transform="rotate(0)"><tspan id="SvgjsTspan2000" dy="27" x="30"><tspan id="SvgjsTspan2001" style="text-decoration:;">5</tspan></tspan></text></g></g><g id="SvgjsG2002" transform="translate(92,125)"><path id="SvgjsPath2003" d="M 0 30C 0 -10 60 -10 60 30C 60 70 0 70 0 30Z" stroke-dasharray="10,6" stroke="rgba(50,50,50,1)" stroke-width="2" fill-opacity="1" fill="#ffb74d"></path><g id="SvgjsG2004"><text id="SvgjsText2005" font-family="微软雅黑" text-anchor="middle" font-size="22px" width="40px" fill="#323232" font-weight="700" align="middle" lineHeight="125%" anchor="middle" family="微软雅黑" size="22px" weight="700" font-style="" opacity="1" y="10.25" transform="rotate(0)"><tspan id="SvgjsTspan2006" dy="27" x="30"><tspan id="SvgjsTspan2007" style="text-decoration:;">4</tspan></tspan></text></g></g><g id="SvgjsG2008" transform="translate(224,125)"><path id="SvgjsPath2009" d="M 0 30C 0 -10 60 -10 60 30C 60 70 0 70 0 30Z" stroke="rgba(50,50,50,1)" stroke-width="2" fill-opacity="1" fill="#81c784"></path><g id="SvgjsG2010"><text id="SvgjsText2011" font-family="微软雅黑" text-anchor="middle" font-size="22px" width="40px" fill="#323232" font-weight="700" align="middle" lineHeight="125%" anchor="middle" family="微软雅黑" size="22px" weight="700" font-style="" opacity="1" y="10.25" transform="rotate(0)"><tspan id="SvgjsTspan2012" dy="27" x="30"><tspan id="SvgjsTspan2013" style="text-decoration:;">6</tspan></tspan></text></g></g><g id="SvgjsG2014"><path id="SvgjsPath2015" d="M189.70385368822804 88.95514258727368C 192.69884621566828 118.8479534021979 124.69884621566828 94.1520465978021 122.45238761311509 124.1081785786941" stroke="#323232" stroke-width="2" fill="none"></path></g><g id="SvgjsG2016"><path id="SvgjsPath2017" d="M190.46048062316635 88.88766975598381C 192.57721756610937 117.45773157622523 256.57721756610937 95.54226842377477 253.69291291399952 124.04831858187117" stroke="#323232" stroke-width="2" fill="none"></path></g><g id="SvgjsG2018" transform="translate(25,217)"><path id="SvgjsPath2019" d="M 0 30C 0 -10 60 -10 60 30C 60 70 0 70 0 30Z" stroke-dasharray="10,6" stroke="rgba(50,50,50,1)" stroke-width="2" fill-opacity="1" fill="#81c784"></path><g id="SvgjsG2020"><text id="SvgjsText2021" font-family="微软雅黑" text-anchor="middle" font-size="22px" width="40px" fill="#323232" font-weight="700" align="middle" lineHeight="125%" anchor="middle" family="微软雅黑" size="22px" weight="700" font-style="" opacity="1" y="10.25" transform="rotate(0)"><tspan id="SvgjsTspan2022" dy="27" x="30"><tspan id="SvgjsTspan2023" style="text-decoration:;">2</tspan></tspan></text></g></g><g id="SvgjsG2024"><path id="SvgjsPath2025" d="M121.66961532527864 185.9438463681708C 124.5885108868799 214.5868148233044 57.5885108868799 187.4131851766956 55.48382795168473 216.12483686482545" stroke-dasharray="8,5" stroke="#323232" stroke-width="2" fill="none"></path></g><g id="SvgjsG2026" transform="translate(100,312.5)"><path id="SvgjsPath2027" d="M 0 30C 0 -10 60 -10 60 30C 60 70 0 70 0 30Z" stroke-dasharray="10,6" stroke="rgba(50,50,50,1)" stroke-width="2" fill-opacity="1" fill="#e57373"></path><g id="SvgjsG2028"><text id="SvgjsText2029" font-family="微软雅黑" text-anchor="middle" font-size="22px" width="40px" fill="#323232" font-weight="700" align="middle" lineHeight="125%" anchor="middle" family="微软雅黑" size="22px" weight="700" font-style="" opacity="1" y="10.25" transform="rotate(0)"><tspan id="SvgjsTspan2030" dy="27" x="30"><tspan id="SvgjsTspan2031" style="text-decoration:;">3</tspan></tspan></text></g></g><g id="SvgjsG2032" transform="translate(295,217)"><path id="SvgjsPath2033" d="M 0 30C 0 -10 60 -10 60 30C 60 70 0 70 0 30Z" stroke="rgba(50,50,50,1)" stroke-width="2" fill-opacity="1" fill="#81c784"></path><g id="SvgjsG2034"><text id="SvgjsText2035" font-family="微软雅黑" text-anchor="middle" font-size="22px" width="40px" fill="#323232" font-weight="700" align="middle" lineHeight="125%" anchor="middle" family="微软雅黑" size="22px" weight="700" font-style="" opacity="1" y="10.25" transform="rotate(0)"><tspan id="SvgjsTspan2036" dy="27" x="30"><tspan id="SvgjsTspan2037" style="text-decoration:;">7</tspan></tspan></text></g></g><g id="SvgjsG2038"><path id="SvgjsPath2039" d="M254.47263676862582 185.881257331852C 256.71500980448997 216.0327040678302 327.71500980448997 185.9672959321698 324.68410394298246 216.05120619671038" stroke="#323232" stroke-width="2" fill="none"></path></g><g id="SvgjsG2040" transform="translate(579,28)"><path id="SvgjsPath2041" d="M 0 30C 0 -10 60 -10 60 30C 60 70 0 70 0 30Z" stroke="rgba(50,50,50,1)" stroke-width="2" fill-opacity="1" fill="#81c784"></path><g id="SvgjsG2042"><text id="SvgjsText2043" font-family="微软雅黑" text-anchor="middle" font-size="22px" width="40px" fill="#323232" font-weight="700" align="middle" lineHeight="125%" anchor="middle" family="微软雅黑" size="22px" weight="700" font-style="" opacity="1" y="10.25" transform="rotate(0)"><tspan id="SvgjsTspan2044" dy="27" x="30"><tspan id="SvgjsTspan2045" style="text-decoration:;">5</tspan></tspan></text></g></g><g id="SvgjsG2046" transform="translate(512,125)"><path id="SvgjsPath2047" d="M 0 30C 0 -10 60 -10 60 30C 60 70 0 70 0 30Z" stroke-dasharray="10,6" stroke="rgba(50,50,50,1)" stroke-width="2" fill-opacity="1" fill="#ffb74d"></path><g id="SvgjsG2048"><text id="SvgjsText2049" font-family="微软雅黑" text-anchor="middle" font-size="22px" width="40px" fill="#323232" font-weight="700" align="middle" lineHeight="125%" anchor="middle" family="微软雅黑" size="22px" weight="700" font-style="" opacity="1" y="10.25" transform="rotate(0)"><tspan id="SvgjsTspan2050" dy="27" x="30"><tspan id="SvgjsTspan2051" style="text-decoration:;">4</tspan></tspan></text></g></g><g id="SvgjsG2052"><path id="SvgjsPath2053" d="M608.7010820599363 88.95427881937519C 611.6682755907811 118.49852956081065 544.6682755907811 94.50147043918935 542.4544616120629 124.1092336764554" stroke="#323232" stroke-width="2" fill="none"></path></g><g id="SvgjsG2054"><path id="SvgjsPath2055" d="M609.4604806231663 88.88766975598381C 611.5772175661093 117.45773157622523 675.5772175661093 95.54226842377477 673 125" stroke="#323232" stroke-width="2" fill="none"></path></g><g id="SvgjsG2056" transform="translate(444,217)"><path id="SvgjsPath2057" d="M 0 30C 0 -10 60 -10 60 30C 60 70 0 70 0 30Z" stroke-dasharray="10,6" stroke="rgba(50,50,50,1)" stroke-width="2" fill-opacity="1" fill="#e57373"></path><g id="SvgjsG2058"><text id="SvgjsText2059" font-family="微软雅黑" text-anchor="middle" font-size="22px" width="40px" fill="#323232" font-weight="700" align="middle" lineHeight="125%" anchor="middle" family="微软雅黑" size="22px" weight="700" font-style="" opacity="1" y="10.25" transform="rotate(0)"><tspan id="SvgjsTspan2060" dy="27" x="30"><tspan id="SvgjsTspan2061" style="text-decoration:;">3</tspan></tspan></text></g></g><g id="SvgjsG2062"><path id="SvgjsPath2063" d="M541.6732487739429 185.94511038311413C 544.6200123814524 214.94687855388332 476.6200123814524 187.05312144611668 474.4810429703758 216.12330298240954" stroke-dasharray="8,5" stroke="#323232" stroke-width="2" fill="none"></path></g><g id="SvgjsG2064" transform="translate(1007,25)"><path id="SvgjsPath2065" d="M 0 30C 0 -10 60 -10 60 30C 60 70 0 70 0 30Z" stroke="rgba(50,50,50,1)" stroke-width="2" fill-opacity="1" fill="#81c784"></path><g id="SvgjsG2066"><text id="SvgjsText2067" font-family="微软雅黑" text-anchor="middle" font-size="22px" width="40px" fill="#323232" font-weight="700" align="middle" lineHeight="125%" anchor="middle" family="微软雅黑" size="22px" weight="700" font-style="" opacity="1" y="10.25" transform="rotate(0)"><tspan id="SvgjsTspan2068" dy="27" x="30"><tspan id="SvgjsTspan2069" style="text-decoration:;">5</tspan></tspan></text></g></g><g id="SvgjsG2070" transform="translate(901,133)"><path id="SvgjsPath2071" d="M 0 30C 0 -10 60 -10 60 30C 60 70 0 70 0 30Z" stroke="rgba(50,50,50,1)" stroke-width="2" fill-opacity="1" fill="#e57373"></path><g id="SvgjsG2072"><text id="SvgjsText2073" font-family="微软雅黑" text-anchor="middle" font-size="22px" width="40px" fill="#323232" font-weight="700" align="middle" lineHeight="125%" anchor="middle" family="微软雅黑" size="22px" weight="700" font-style="" opacity="1" y="10.25" transform="rotate(0)"><tspan id="SvgjsTspan2074" dy="27" x="30"><tspan id="SvgjsTspan2075" style="text-decoration:;">3</tspan></tspan></text></g></g><g id="SvgjsG2076"><path id="SvgjsPath2077" d="M1036.8286765043565 85.9852148292837C 1041.0566293812938 131.36748600110667 935.0566293812939 86.63251399889333 931.3448001839719 132.06132389338336" stroke="#323232" stroke-width="2" fill="none"></path></g><g id="SvgjsG2078" transform="translate(833,225)"><path id="SvgjsPath2079" d="M 0 30C 0 -10 60 -10 60 30C 60 70 0 70 0 30Z" stroke="rgba(50,50,50,1)" stroke-width="2" fill-opacity="1" fill="#81c784"></path><g id="SvgjsG2080"><text id="SvgjsText2081" font-family="微软雅黑" text-anchor="middle" font-size="22px" width="40px" fill="#323232" font-weight="700" align="middle" lineHeight="125%" anchor="middle" family="微软雅黑" size="22px" weight="700" font-style="" opacity="1" y="10.25" transform="rotate(0)"><tspan id="SvgjsTspan2082" dy="27" x="30"><tspan id="SvgjsTspan2083" style="text-decoration:;">2</tspan></tspan></text></g></g><g id="SvgjsG2084"><path id="SvgjsPath2085" d="M930.6732487739429 193.94511038311413C 933.6200123814524 222.94687855388332 865.6200123814524 195.05312144611668 863.4810429703758 224.12330298240954" stroke="#323232" stroke-width="2" fill="none"></path></g><g id="SvgjsG2086" transform="translate(968,225)"><path id="SvgjsPath2087" d="M 0 30C 0 -10 60 -10 60 30C 60 70 0 70 0 30Z" stroke="rgba(50,50,50,1)" stroke-width="2" fill-opacity="1" fill="#ffb74d"></path><g id="SvgjsG2088"><text id="SvgjsText2089" font-family="微软雅黑" text-anchor="middle" font-size="22px" width="40px" fill="#323232" font-weight="700" align="middle" lineHeight="125%" anchor="middle" family="微软雅黑" size="22px" weight="700" font-style="" opacity="1" y="10.25" transform="rotate(0)"><tspan id="SvgjsTspan2090" dy="27" x="30"><tspan id="SvgjsTspan2091" style="text-decoration:;">4</tspan></tspan></text></g></g><g id="SvgjsG2092" transform="translate(1108,133)"><path id="SvgjsPath2093" d="M 0 30C 0 -10 60 -10 60 30C 60 70 0 70 0 30Z" stroke="rgba(50,50,50,1)" stroke-width="2" fill-opacity="1" fill="#81c784"></path><g id="SvgjsG2094"><text id="SvgjsText2095" font-family="微软雅黑" text-anchor="middle" font-size="22px" width="40px" fill="#323232" font-weight="700" align="middle" lineHeight="125%" anchor="middle" family="微软雅黑" size="22px" weight="700" font-style="" opacity="1" y="10.25" transform="rotate(0)"><tspan id="SvgjsTspan2096" dy="27" x="30"><tspan id="SvgjsTspan2097" style="text-decoration:;">6</tspan></tspan></text></g></g><g id="SvgjsG2098"><path id="SvgjsPath2099" d="M931.4838279516847 193.87516313517455C 933.5885108868799 222.5868148233044 1000.5885108868799 195.4131851766956 997.6696153252786 224.0561536318292" stroke="#323232" stroke-width="2" fill="none"></path></g><g id="SvgjsG2100" transform="translate(1177,225)"><path id="SvgjsPath2101" d="M 0 30C 0 -10 60 -10 60 30C 60 70 0 70 0 30Z" stroke="rgba(50,50,50,1)" stroke-width="2" fill-opacity="1" fill="#81c784"></path><g id="SvgjsG2102"><text id="SvgjsText2103" font-family="微软雅黑" text-anchor="middle" font-size="22px" width="40px" fill="#323232" font-weight="700" align="middle" lineHeight="125%" anchor="middle" family="微软雅黑" size="22px" weight="700" font-style="" opacity="1" y="10.25" transform="rotate(0)"><tspan id="SvgjsTspan2104" dy="27" x="30"><tspan id="SvgjsTspan2105" style="text-decoration:;">7</tspan></tspan></text></g></g><g id="SvgjsG2106"><path id="SvgjsPath2107" d="M1138.4782474877225 193.87822510809428C 1140.6515979910141 223.3079037231883 1209.6515979910141 194.6920962768117 1206.6768767755875 224.05364310017558" stroke="#323232" stroke-width="2" fill="none"></path></g><g id="SvgjsG2108"><path id="SvgjsPath2109" d="M1037.3519036864823 85.93603621481233C 1040.8985027749877 129.56009062057 1141.8985027749877 88.43990937942996 1137.8202414149946 132.01628924417952" stroke="#323232" stroke-width="2" fill="none"></path></g><g id="SvgjsG2110"><path id="SvgjsPath2111" d="M299 120L379 120L379 120L459 120" stroke="#323232" stroke-width="2" fill="none" marker-end="url(#SvgjsMarker2112)"></path><rect id="SvgjsRect2114" width="40" height="25" x="359" y="107.5" fill="#ffffff"></rect><text id="SvgjsText2115" font-family="微软雅黑" text-anchor="middle" font-size="20px" width="40px" fill="#323232" font-weight="400" align="top" lineHeight="25px" anchor="middle" family="微软雅黑" size="20px" weight="400" font-style="" opacity="1" y="102" transform="rotate(0)"><tspan id="SvgjsTspan2116" dy="25" x="379"><tspan id="SvgjsTspan2117" style="text-decoration:;">左旋</tspan></tspan></text></g><g id="SvgjsG2118"><path id="SvgjsPath2119" d="M715 119L795 119L795 119L875 119" stroke="#323232" stroke-width="2" fill="none" marker-end="url(#SvgjsMarker2120)"></path><rect id="SvgjsRect2122" width="40" height="25" x="775" y="106.5" fill="#ffffff"></rect><text id="SvgjsText2123" font-family="微软雅黑" text-anchor="middle" font-size="20px" width="40px" fill="#323232" font-weight="400" align="top" lineHeight="25px" anchor="middle" family="微软雅黑" size="20px" weight="400" font-style="" opacity="1" y="101" transform="rotate(0)"><tspan id="SvgjsTspan2124" dy="25" x="795"><tspan id="SvgjsTspan2125" style="text-decoration:;">右旋</tspan></tspan></text></g><g id="SvgjsG2126"><path id="SvgjsPath2127" d="M55.4444399635274 277.89580863962107C 57.892783000125576 310.0646609919743 132.8927830001256 279.4353390080257 129.7160764935149 311.54115306619605" stroke-dasharray="8,5" stroke="#323232" stroke-width="2" fill="none"></path></g><g id="SvgjsG2128" transform="translate(374,312.5)"><path id="SvgjsPath2129" d="M 0 30C 0 -10 60 -10 60 30C 60 70 0 70 0 30Z" stroke-dasharray="10,6" stroke="rgba(50,50,50,1)" stroke-width="2" fill-opacity="1" fill="#81c784"></path><g id="SvgjsG2130"><text id="SvgjsText2131" font-family="微软雅黑" text-anchor="middle" font-size="22px" width="40px" fill="#323232" font-weight="700" align="middle" lineHeight="125%" anchor="middle" family="微软雅黑" size="22px" weight="700" font-style="" opacity="1" y="10.25" transform="rotate(0)"><tspan id="SvgjsTspan2132" dy="27" x="30"><tspan id="SvgjsTspan2133" style="text-decoration:;">2</tspan></tspan></text></g></g><g id="SvgjsG2134"><path id="SvgjsPath2135" d="M473.7008757805677 277.9542141800188C 476.7362461805407 308.2754369568113 406.7362461805407 281.2245630431887 404.4562473017432 311.61014697862396" stroke-dasharray="8,5" stroke="#323232" stroke-width="2" fill="none"></path></g><g id="SvgjsG2136" transform="translate(643,125)"><path id="SvgjsPath2137" d="M 0 30C 0 -10 60 -10 60 30C 60 70 0 70 0 30Z" stroke="rgba(50,50,50,1)" stroke-width="2" fill-opacity="1" fill="#81c784"></path><g id="SvgjsG2138"><text id="SvgjsText2139" font-family="微软雅黑" text-anchor="middle" font-size="22px" width="40px" fill="#323232" font-weight="700" align="middle" lineHeight="125%" anchor="middle" family="微软雅黑" size="22px" weight="700" font-style="" opacity="1" y="10.25" transform="rotate(0)"><tspan id="SvgjsTspan2140" dy="27" x="30"><tspan id="SvgjsTspan2141" style="text-decoration:;">6</tspan></tspan></text></g></g><g id="SvgjsG2142" transform="translate(710,217)"><path id="SvgjsPath2143" d="M 0 30C 0 -10 60 -10 60 30C 60 70 0 70 0 30Z" stroke="rgba(50,50,50,1)" stroke-width="2" fill-opacity="1" fill="#81c784"></path><g id="SvgjsG2144"><text id="SvgjsText2145" font-family="微软雅黑" text-anchor="middle" font-size="22px" width="40px" fill="#323232" font-weight="700" align="middle" lineHeight="125%" anchor="middle" family="微软雅黑" size="22px" weight="700" font-style="" opacity="1" y="10.25" transform="rotate(0)"><tspan id="SvgjsTspan2146" dy="27" x="30"><tspan id="SvgjsTspan2147" style="text-decoration:;">7</tspan></tspan></text></g></g><g id="SvgjsG2148"><path id="SvgjsPath2149" d="M673.4838279516847 185.87516313517455C 675.5885108868799 214.5868148233044 742.5885108868799 187.4131851766956 739.6696153252786 216.05615363182915" stroke="#323232" stroke-width="2" fill="none"></path></g></svg>