<svg id="SvgjsSvg1814" width="1262" height="397.5" xmlns="http://www.w3.org/2000/svg" version="1.1" xmlns:xlink="http://www.w3.org/1999/xlink" xmlns:svgjs="http://svgjs.com/svgjs"><defs id="SvgjsDefs1815"><marker id="SvgjsMarker1980" markerWidth="14" markerHeight="10" refX="10" refY="5" viewBox="0 0 14 10" orient="auto" markerUnits="userSpaceOnUse" stroke-dasharray="0,0"><path id="SvgjsPath1981" d="M0,0 L14,5 L0,10 L0,0" fill="#323232" stroke="#323232" stroke-width="1"></path></marker><marker id="SvgjsMarker1988" markerWidth="14" markerHeight="10" refX="10" refY="5" viewBox="0 0 14 10" orient="auto" markerUnits="userSpaceOnUse" stroke-dasharray="0,0"><path id="SvgjsPath1989" d="M0,0 L14,5 L0,10 L0,0" fill="#323232" stroke="#323232" stroke-width="1"></path></marker></defs><g id="SvgjsG1816" transform="translate(160,28)"><path id="SvgjsPath1817" d="M 0 30C 0 -10 60 -10 60 30C 60 70 0 70 0 30Z" stroke="rgba(50,50,50,1)" stroke-width="2" fill-opacity="1" fill="#81c784"></path><g id="SvgjsG1818"><text id="SvgjsText1819" font-family="微软雅黑" text-anchor="middle" font-size="22px" width="40px" fill="#323232" font-weight="700" align="middle" lineHeight="125%" anchor="middle" family="微软雅黑" size="22px" weight="700" font-style="" opacity="1" y="10.25" transform="rotate(0)"><tspan id="SvgjsTspan1820" dy="27" x="30"><tspan id="SvgjsTspan1821" style="text-decoration:;">5</tspan></tspan></text></g></g><g id="SvgjsG1822" transform="translate(93,125)"><path id="SvgjsPath1823" d="M 0 30C 0 -10 60 -10 60 30C 60 70 0 70 0 30Z" stroke="rgba(50,50,50,1)" stroke-width="2" fill-opacity="1" fill="#81c784"></path><g id="SvgjsG1824"><text id="SvgjsText1825" font-family="微软雅黑" text-anchor="middle" font-size="22px" width="40px" fill="#323232" font-weight="700" align="middle" lineHeight="125%" anchor="middle" family="微软雅黑" size="22px" weight="700" font-style="" opacity="1" y="10.25" transform="rotate(0)"><tspan id="SvgjsTspan1826" dy="27" x="30"><tspan id="SvgjsTspan1827" style="text-decoration:;">3</tspan></tspan></text></g></g><g id="SvgjsG1828" transform="translate(224,125)"><path id="SvgjsPath1829" d="M 0 30C 0 -10 60 -10 60 30C 60 70 0 70 0 30Z" stroke-dasharray="10,6" stroke="rgba(50,50,50,1)" stroke-width="2" fill-opacity="1" fill="#ffb74d"></path><g id="SvgjsG1830"><text id="SvgjsText1831" font-family="微软雅黑" text-anchor="middle" font-size="22px" width="40px" fill="#323232" font-weight="700" align="middle" lineHeight="125%" anchor="middle" family="微软雅黑" size="22px" weight="700" font-style="" opacity="1" y="10.25" transform="rotate(0)"><tspan id="SvgjsTspan1832" dy="27" x="30"><tspan id="SvgjsTspan1833" style="text-decoration:;">6</tspan></tspan></text></g></g><g id="SvgjsG1834"><path id="SvgjsPath1835" d="M189.70108205993634 88.95427881937519C 192.6682755907812 118.49852956081065 125.6682755907812 94.50147043918935 123.45446161206291 124.1092336764554" stroke="#323232" stroke-width="2" fill="none"></path></g><g id="SvgjsG1836"><path id="SvgjsPath1837" d="M190.46048062316635 88.88766975598381C 192.57721756610937 117.45773157622523 256.57721756610937 95.54226842377477 253.69291291399952 124.04831858187117" stroke="#323232" stroke-width="2" fill="none"></path></g><g id="SvgjsG1838" transform="translate(25,217)"><path id="SvgjsPath1839" d="M 0 30C 0 -10 60 -10 60 30C 60 70 0 70 0 30Z" stroke="rgba(50,50,50,1)" stroke-width="2" fill-opacity="1" fill="#81c784"></path><g id="SvgjsG1840"><text id="SvgjsText1841" font-family="微软雅黑" text-anchor="middle" font-size="22px" width="40px" fill="#323232" font-weight="700" align="middle" lineHeight="125%" anchor="middle" family="微软雅黑" size="22px" weight="700" font-style="" opacity="1" y="10.25" transform="rotate(0)"><tspan id="SvgjsTspan1842" dy="27" x="30"><tspan id="SvgjsTspan1843" style="text-decoration:;">2</tspan></tspan></text></g></g><g id="SvgjsG1844"><path id="SvgjsPath1845" d="M122.67324877394287 185.94511038311413C 125.6200123814524 214.94687855388332 57.62001238145241 187.05312144611668 55.481042970375825 216.12330298240954" stroke="#323232" stroke-width="2" fill="none"></path></g><g id="SvgjsG1846" transform="translate(160,217)"><path id="SvgjsPath1847" d="M 0 30C 0 -10 60 -10 60 30C 60 70 0 70 0 30Z" stroke="rgba(50,50,50,1)" stroke-width="2" fill-opacity="1" fill="#81c784"></path><g id="SvgjsG1848"><text id="SvgjsText1849" font-family="微软雅黑" text-anchor="middle" font-size="22px" width="40px" fill="#323232" font-weight="700" align="middle" lineHeight="125%" anchor="middle" family="微软雅黑" size="22px" weight="700" font-style="" opacity="1" y="10.25" transform="rotate(0)"><tspan id="SvgjsTspan1850" dy="27" x="30"><tspan id="SvgjsTspan1851" style="text-decoration:;">4</tspan></tspan></text></g></g><g id="SvgjsG1852" transform="translate(295,217)"><path id="SvgjsPath1853" d="M 0 30C 0 -10 60 -10 60 30C 60 70 0 70 0 30Z" stroke-dasharray="10,6" stroke="rgba(50,50,50,1)" stroke-width="2" fill-opacity="1" fill="#81c784"></path><g id="SvgjsG1854"><text id="SvgjsText1855" font-family="微软雅黑" text-anchor="middle" font-size="22px" width="40px" fill="#323232" font-weight="700" align="middle" lineHeight="125%" anchor="middle" family="微软雅黑" size="22px" weight="700" font-style="" opacity="1" y="10.25" transform="rotate(0)"><tspan id="SvgjsTspan1856" dy="27" x="30"><tspan id="SvgjsTspan1857" style="text-decoration:;">8</tspan></tspan></text></g></g><g id="SvgjsG1858"><path id="SvgjsPath1859" d="M123.48382795168473 185.87516313517455C 125.5885108868799 214.5868148233044 192.5885108868799 187.4131851766956 189.6696153252786 216.0561536318292" stroke="#323232" stroke-width="2" fill="none"></path></g><g id="SvgjsG1860"><path id="SvgjsPath1861" d="M254.47263676862582 185.881257331852C 256.71500980448997 216.0327040678302 327.71500980448997 185.9672959321698 324.68410394298246 216.05120619671038" stroke-dasharray="8,5" stroke="#323232" stroke-width="2" fill="none"></path></g><g id="SvgjsG1862" transform="translate(224,312.5)"><path id="SvgjsPath1863" d="M 0 30C 0 -10 60 -10 60 30C 60 70 0 70 0 30Z" stroke-dasharray="10,6" stroke="rgba(50,50,50,1)" stroke-width="2" fill-opacity="1" fill="#e57373"></path><g id="SvgjsG1864"><text id="SvgjsText1865" font-family="微软雅黑" text-anchor="middle" font-size="22px" width="40px" fill="#323232" font-weight="700" align="middle" lineHeight="125%" anchor="middle" family="微软雅黑" size="22px" weight="700" font-style="" opacity="1" y="10.25" transform="rotate(0)"><tspan id="SvgjsTspan1866" dy="27" x="30"><tspan id="SvgjsTspan1867" style="text-decoration:;">7</tspan></tspan></text></g></g><g id="SvgjsG1868"><path id="SvgjsPath1869" d="M324.7039177504737 277.95516244771005C 327.7673835488681 308.63133870536393 256.7673835488681 280.86866129463607 254.4539091364951 311.60895202384705" stroke-dasharray="8,5" stroke="#323232" stroke-width="2" fill="none"></path></g><g id="SvgjsG1870" transform="translate(549,28)"><path id="SvgjsPath1871" d="M 0 30C 0 -10 60 -10 60 30C 60 70 0 70 0 30Z" stroke="rgba(50,50,50,1)" stroke-width="2" fill-opacity="1" fill="#81c784"></path><g id="SvgjsG1872"><text id="SvgjsText1873" font-family="微软雅黑" text-anchor="middle" font-size="22px" width="40px" fill="#323232" font-weight="700" align="middle" lineHeight="125%" anchor="middle" family="微软雅黑" size="22px" weight="700" font-style="" opacity="1" y="10.25" transform="rotate(0)"><tspan id="SvgjsTspan1874" dy="27" x="30"><tspan id="SvgjsTspan1875" style="text-decoration:;">5</tspan></tspan></text></g></g><g id="SvgjsG1876" transform="translate(482,125)"><path id="SvgjsPath1877" d="M 0 30C 0 -10 60 -10 60 30C 60 70 0 70 0 30Z" stroke="rgba(50,50,50,1)" stroke-width="2" fill-opacity="1" fill="#81c784"></path><g id="SvgjsG1878"><text id="SvgjsText1879" font-family="微软雅黑" text-anchor="middle" font-size="22px" width="40px" fill="#323232" font-weight="700" align="middle" lineHeight="125%" anchor="middle" family="微软雅黑" size="22px" weight="700" font-style="" opacity="1" y="10.25" transform="rotate(0)"><tspan id="SvgjsTspan1880" dy="27" x="30"><tspan id="SvgjsTspan1881" style="text-decoration:;">3</tspan></tspan></text></g></g><g id="SvgjsG1882" transform="translate(613,125)"><path id="SvgjsPath1883" d="M 0 30C 0 -10 60 -10 60 30C 60 70 0 70 0 30Z" stroke-dasharray="10,6" stroke="rgba(50,50,50,1)" stroke-width="2" fill-opacity="1" fill="#ffb74d"></path><g id="SvgjsG1884"><text id="SvgjsText1885" font-family="微软雅黑" text-anchor="middle" font-size="22px" width="40px" fill="#323232" font-weight="700" align="middle" lineHeight="125%" anchor="middle" family="微软雅黑" size="22px" weight="700" font-style="" opacity="1" y="10.25" transform="rotate(0)"><tspan id="SvgjsTspan1886" dy="27" x="30"><tspan id="SvgjsTspan1887" style="text-decoration:;">6</tspan></tspan></text></g></g><g id="SvgjsG1888"><path id="SvgjsPath1889" d="M578.7010820599363 88.95427881937519C 581.6682755907811 118.49852956081065 514.6682755907811 94.50147043918935 512.4544616120629 124.1092336764554" stroke="#323232" stroke-width="2" fill="none"></path></g><g id="SvgjsG1890"><path id="SvgjsPath1891" d="M579.4604806231663 88.88766975598381C 581.5772175661093 117.45773157622523 645.5772175661093 95.54226842377477 642.6929129139995 124.04831858187117" stroke="#323232" stroke-width="2" fill="none"></path></g><g id="SvgjsG1892" transform="translate(414,217)"><path id="SvgjsPath1893" d="M 0 30C 0 -10 60 -10 60 30C 60 70 0 70 0 30Z" stroke="rgba(50,50,50,1)" stroke-width="2" fill-opacity="1" fill="#81c784"></path><g id="SvgjsG1894"><text id="SvgjsText1895" font-family="微软雅黑" text-anchor="middle" font-size="22px" width="40px" fill="#323232" font-weight="700" align="middle" lineHeight="125%" anchor="middle" family="微软雅黑" size="22px" weight="700" font-style="" opacity="1" y="10.25" transform="rotate(0)"><tspan id="SvgjsTspan1896" dy="27" x="30"><tspan id="SvgjsTspan1897" style="text-decoration:;">2</tspan></tspan></text></g></g><g id="SvgjsG1898"><path id="SvgjsPath1899" d="M511.6732487739429 185.94511038311413C 514.6200123814524 214.94687855388332 446.6200123814524 187.05312144611668 444.4810429703758 216.12330298240954" stroke="#323232" stroke-width="2" fill="none"></path></g><g id="SvgjsG1900" transform="translate(549,217)"><path id="SvgjsPath1901" d="M 0 30C 0 -10 60 -10 60 30C 60 70 0 70 0 30Z" stroke="rgba(50,50,50,1)" stroke-width="2" fill-opacity="1" fill="#81c784"></path><g id="SvgjsG1902"><text id="SvgjsText1903" font-family="微软雅黑" text-anchor="middle" font-size="22px" width="40px" fill="#323232" font-weight="700" align="middle" lineHeight="125%" anchor="middle" family="微软雅黑" size="22px" weight="700" font-style="" opacity="1" y="10.25" transform="rotate(0)"><tspan id="SvgjsTspan1904" dy="27" x="30"><tspan id="SvgjsTspan1905" style="text-decoration:;">4</tspan></tspan></text></g></g><g id="SvgjsG1906" transform="translate(684,217)"><path id="SvgjsPath1907" d="M 0 30C 0 -10 60 -10 60 30C 60 70 0 70 0 30Z" stroke-dasharray="10,6" stroke="rgba(50,50,50,1)" stroke-width="2" fill-opacity="1" fill="#81c784"></path><g id="SvgjsG1908"><text id="SvgjsText1909" font-family="微软雅黑" text-anchor="middle" font-size="22px" width="40px" fill="#323232" font-weight="700" align="middle" lineHeight="125%" anchor="middle" family="微软雅黑" size="22px" weight="700" font-style="" opacity="1" y="10.25" transform="rotate(0)"><tspan id="SvgjsTspan1910" dy="27" x="30"><tspan id="SvgjsTspan1911" style="text-decoration:;">7</tspan></tspan></text></g></g><g id="SvgjsG1912"><path id="SvgjsPath1913" d="M512.4838279516848 185.87516313517455C 514.5885108868799 214.5868148233044 581.5885108868799 187.4131851766956 578.6696153252786 216.0561536318292" stroke="#323232" stroke-width="2" fill="none"></path></g><g id="SvgjsG1914"><path id="SvgjsPath1915" d="M643.4726367686258 185.88125733185205C 645.7150098044899 216.0327040678302 716.7150098044899 185.9672959321698 713.6841039429825 216.05120619671038" stroke-dasharray="8,5" stroke="#323232" stroke-width="2" fill="none"></path></g><g id="SvgjsG1916" transform="translate(757,312.5)"><path id="SvgjsPath1917" d="M 0 30C 0 -10 60 -10 60 30C 60 70 0 70 0 30Z" stroke-dasharray="10,6" stroke="rgba(50,50,50,1)" stroke-width="2" fill-opacity="1" fill="#e57373"></path><g id="SvgjsG1918"><text id="SvgjsText1919" font-family="微软雅黑" text-anchor="middle" font-size="22px" width="40px" fill="#323232" font-weight="700" align="middle" lineHeight="125%" anchor="middle" family="微软雅黑" size="22px" weight="700" font-style="" opacity="1" y="10.25" transform="rotate(0)"><tspan id="SvgjsTspan1920" dy="27" x="30"><tspan id="SvgjsTspan1921" style="text-decoration:;">8</tspan></tspan></text></g></g><g id="SvgjsG1922"><path id="SvgjsPath1923" d="M714.4491928689639 277.8934348137788C 716.8299189170618 309.34612123459095 789.8299189170618 280.15387876540905 786.7100042007283 311.54297208170044" stroke-dasharray="8,5" stroke="#323232" stroke-width="2" fill="none"></path></g><g id="SvgjsG1924" transform="translate(1007,25)"><path id="SvgjsPath1925" d="M 0 30C 0 -10 60 -10 60 30C 60 70 0 70 0 30Z" stroke="rgba(50,50,50,1)" stroke-width="2" fill-opacity="1" fill="#81c784"></path><g id="SvgjsG1926"><text id="SvgjsText1927" font-family="微软雅黑" text-anchor="middle" font-size="22px" width="40px" fill="#323232" font-weight="700" align="middle" lineHeight="125%" anchor="middle" family="微软雅黑" size="22px" weight="700" font-style="" opacity="1" y="10.25" transform="rotate(0)"><tspan id="SvgjsTspan1928" dy="27" x="30"><tspan id="SvgjsTspan1929" style="text-decoration:;">5</tspan></tspan></text></g></g><g id="SvgjsG1930" transform="translate(901,133)"><path id="SvgjsPath1931" d="M 0 30C 0 -10 60 -10 60 30C 60 70 0 70 0 30Z" stroke="rgba(50,50,50,1)" stroke-width="2" fill-opacity="1" fill="#81c784"></path><g id="SvgjsG1932"><text id="SvgjsText1933" font-family="微软雅黑" text-anchor="middle" font-size="22px" width="40px" fill="#323232" font-weight="700" align="middle" lineHeight="125%" anchor="middle" family="微软雅黑" size="22px" weight="700" font-style="" opacity="1" y="10.25" transform="rotate(0)"><tspan id="SvgjsTspan1934" dy="27" x="30"><tspan id="SvgjsTspan1935" style="text-decoration:;">3</tspan></tspan></text></g></g><g id="SvgjsG1936" transform="translate(1042,225)"><path id="SvgjsPath1937" d="M 0 30C 0 -10 60 -10 60 30C 60 70 0 70 0 30Z" stroke="rgba(50,50,50,1)" stroke-width="2" fill-opacity="1" fill="#ffb74d"></path><g id="SvgjsG1938"><text id="SvgjsText1939" font-family="微软雅黑" text-anchor="middle" font-size="22px" width="40px" fill="#323232" font-weight="700" align="middle" lineHeight="125%" anchor="middle" family="微软雅黑" size="22px" weight="700" font-style="" opacity="1" y="10.25" transform="rotate(0)"><tspan id="SvgjsTspan1940" dy="27" x="30"><tspan id="SvgjsTspan1941" style="text-decoration:;">6</tspan></tspan></text></g></g><g id="SvgjsG1942"><path id="SvgjsPath1943" d="M1036.8286765043565 85.9852148292837C 1041.0566293812938 131.36748600110667 935.0566293812939 86.63251399889333 931.3448001839719 132.06132389338336" stroke="#323232" stroke-width="2" fill="none"></path></g><g id="SvgjsG1944" transform="translate(833,225)"><path id="SvgjsPath1945" d="M 0 30C 0 -10 60 -10 60 30C 60 70 0 70 0 30Z" stroke="rgba(50,50,50,1)" stroke-width="2" fill-opacity="1" fill="#81c784"></path><g id="SvgjsG1946"><text id="SvgjsText1947" font-family="微软雅黑" text-anchor="middle" font-size="22px" width="40px" fill="#323232" font-weight="700" align="middle" lineHeight="125%" anchor="middle" family="微软雅黑" size="22px" weight="700" font-style="" opacity="1" y="10.25" transform="rotate(0)"><tspan id="SvgjsTspan1948" dy="27" x="30"><tspan id="SvgjsTspan1949" style="text-decoration:;">2</tspan></tspan></text></g></g><g id="SvgjsG1950"><path id="SvgjsPath1951" d="M930.6732487739429 193.94511038311413C 933.6200123814524 222.94687855388332 865.6200123814524 195.05312144611668 863.4810429703758 224.12330298240954" stroke="#323232" stroke-width="2" fill="none"></path></g><g id="SvgjsG1952" transform="translate(968,225)"><path id="SvgjsPath1953" d="M 0 30C 0 -10 60 -10 60 30C 60 70 0 70 0 30Z" stroke="rgba(50,50,50,1)" stroke-width="2" fill-opacity="1" fill="#81c784"></path><g id="SvgjsG1954"><text id="SvgjsText1955" font-family="微软雅黑" text-anchor="middle" font-size="22px" width="40px" fill="#323232" font-weight="700" align="middle" lineHeight="125%" anchor="middle" family="微软雅黑" size="22px" weight="700" font-style="" opacity="1" y="10.25" transform="rotate(0)"><tspan id="SvgjsTspan1956" dy="27" x="30"><tspan id="SvgjsTspan1957" style="text-decoration:;">4</tspan></tspan></text></g></g><g id="SvgjsG1958" transform="translate(1108,133)"><path id="SvgjsPath1959" d="M 0 30C 0 -10 60 -10 60 30C 60 70 0 70 0 30Z" stroke="rgba(50,50,50,1)" stroke-width="2" fill-opacity="1" fill="#81c784"></path><g id="SvgjsG1960"><text id="SvgjsText1961" font-family="微软雅黑" text-anchor="middle" font-size="22px" width="40px" fill="#323232" font-weight="700" align="middle" lineHeight="125%" anchor="middle" family="微软雅黑" size="22px" weight="700" font-style="" opacity="1" y="10.25" transform="rotate(0)"><tspan id="SvgjsTspan1962" dy="27" x="30"><tspan id="SvgjsTspan1963" style="text-decoration:;">7</tspan></tspan></text></g></g><g id="SvgjsG1964"><path id="SvgjsPath1965" d="M931.4838279516847 193.87516313517455C 933.5885108868799 222.5868148233044 1000.5885108868799 195.4131851766956 997.6696153252786 224.0561536318292" stroke="#323232" stroke-width="2" fill="none"></path></g><g id="SvgjsG1966"><path id="SvgjsPath1967" d="M1072.48659921519 224.12637467769264C 1074.5570966159976 195.772251935935 1140.5570966159974 222.227748064065 1137.6659798983912 193.94256595086034" stroke="#323232" stroke-width="2" fill="none"></path></g><g id="SvgjsG1968" transform="translate(1177,225)"><path id="SvgjsPath1969" d="M 0 30C 0 -10 60 -10 60 30C 60 70 0 70 0 30Z" stroke="rgba(50,50,50,1)" stroke-width="2" fill-opacity="1" fill="#e57373"></path><g id="SvgjsG1970"><text id="SvgjsText1971" font-family="微软雅黑" text-anchor="middle" font-size="22px" width="40px" fill="#323232" font-weight="700" align="middle" lineHeight="125%" anchor="middle" family="微软雅黑" size="22px" weight="700" font-style="" opacity="1" y="10.25" transform="rotate(0)"><tspan id="SvgjsTspan1972" dy="27" x="30"><tspan id="SvgjsTspan1973" style="text-decoration:;">8</tspan></tspan></text></g></g><g id="SvgjsG1974"><path id="SvgjsPath1975" d="M1138.4782474877225 193.87822510809428C 1140.6515979910141 223.3079037231883 1209.6515979910141 194.6920962768117 1206.6768767755875 224.05364310017558" stroke="#323232" stroke-width="2" fill="none"></path></g><g id="SvgjsG1976"><path id="SvgjsPath1977" d="M1037.3519036864823 85.93603621481233C 1040.8985027749877 129.56009062057 1141.8985027749877 88.43990937942996 1137.8202414149946 132.01628924417952" stroke="#323232" stroke-width="2" fill="none"></path></g><g id="SvgjsG1978"><path id="SvgjsPath1979" d="M299 120L379 120L379 120L459 120" stroke="#323232" stroke-width="2" fill="none" marker-end="url(#SvgjsMarker1980)"></path><rect id="SvgjsRect1982" width="40" height="25" x="359" y="107.5" fill="#ffffff"></rect><text id="SvgjsText1983" font-family="微软雅黑" text-anchor="middle" font-size="20px" width="40px" fill="#323232" font-weight="400" align="top" lineHeight="25px" anchor="middle" family="微软雅黑" size="20px" weight="400" font-style="" opacity="1" y="102" transform="rotate(0)"><tspan id="SvgjsTspan1984" dy="25" x="379"><tspan id="SvgjsTspan1985" style="text-decoration:;">右旋</tspan></tspan></text></g><g id="SvgjsG1986"><path id="SvgjsPath1987" d="M715 119L795 119L795 119L875 119" stroke="#323232" stroke-width="2" fill="none" marker-end="url(#SvgjsMarker1988)"></path><rect id="SvgjsRect1990" width="40" height="25" x="775" y="106.5" fill="#ffffff"></rect><text id="SvgjsText1991" font-family="微软雅黑" text-anchor="middle" font-size="20px" width="40px" fill="#323232" font-weight="400" align="top" lineHeight="25px" anchor="middle" family="微软雅黑" size="20px" weight="400" font-style="" opacity="1" y="101" transform="rotate(0)"><tspan id="SvgjsTspan1992" dy="25" x="795"><tspan id="SvgjsTspan1993" style="text-decoration:;">左旋</tspan></tspan></text></g></svg>