<svg xmlns="http://www.w3.org/2000/svg" xmlns:xlink="http://www.w3.org/1999/xlink" width="2611.836426" height="462.651154" viewBox="0 0 2611.84 462.651"><path d="M5 0L2580.19 0C2582.95 0 2585.19 2.24 2585.19 5L2585.19 431C2585.19 433.76 2582.95 436 2580.19 436L5 436C2.24 436 0 433.76 0 431L0 5C0 2.24 2.24 0 5 0Z" fill="#FBF0F8" fill-opacity="1.000000" transform="matrix(1 0 0 1 13.3256 13.3256)"/><path d="M5 0L2580.19 0C2582.95 0 2585.19 2.24 2585.19 5L2585.19 431C2585.19 433.76 2582.95 436 2580.19 436L5 436C2.24 436 0 433.76 0 431L0 5C0 2.24 2.24 0 5 0Z" fill="none" stroke="#19191A" stroke-opacity="1.000000" stroke-width="2" stroke-dasharray="12 12" transform="matrix(1 0 0 1 13.3256 13.3256)"/><path d="M5 0L2054.26 0C2057.02 0 2059.26 2.24 2059.26 5L2059.26 254.259C2059.26 257.019 2057.02 259.259 2054.26 259.259L5 259.259C2.24 259.259 0 257.019 0 254.259L0 5C0 2.24 2.24 0 5 0Z" fill="#E9F4FF" fill-opacity="1.000000" transform="matrix(1 0 0 1 118.771 119.364)"/><path d="M5 0L2054.26 0C2057.02 0 2059.26 2.24 2059.26 5L2059.26 254.259C2059.26 257.019 2057.02 259.259 2054.26 259.259L5 259.259C2.24 259.259 0 257.019 0 254.259L0 5C0 2.24 2.24 0 5 0Z" fill="none" stroke="#19191A" stroke-opacity="1.000000" stroke-width="2" stroke-dasharray="12 12" transform="matrix(1 0 0 1 118.771 119.364)"/><path d="M15 0L314.659 0C322.939 0 329.659 6.72 329.659 15L329.659 94.8774C329.659 103.157 322.939 109.877 314.659 109.877L15 109.877C6.72 109.877 0 103.157 0 94.8774L0 15C0 6.72 6.72 0 15 0Z" fill="#D5FFEC" fill-opacity="1.000000" transform="matrix(1 0 0 1 165.163 201.04)"/><path d="M15 0L314.659 0C322.939 0 329.659 6.72 329.659 15L329.659 94.8774C329.659 103.157 322.939 109.877 314.659 109.877L15 109.877C6.72 109.877 0 103.157 0 94.8774L0 15C0 6.72 6.72 0 15 0Z" fill="none" stroke="#000000" stroke-opacity="1.000000" stroke-width="2" stroke-dasharray="0 0" transform="matrix(1 0 0 1 165.163 201.04)"/><clipPath id="clip_7_11_0"><path d="M171.06 219.936L486.926 219.936L486.926 316.021L171.06 316.021L171.06 219.936Z"/></clipPath><g clip-path="url(#clip_7_11_0)"><path d="M138.298 49.7166L140.982 49.7166L141.849 40.8338L141.943 35.8885L137.338 35.8885L137.431 40.8338L138.298 49.7166ZM151.162 72.8963L155.627 72.8963L155.627 56.2909L172.033 56.2909L172.033 72.8963L176.451 72.8963L176.451 37.7166L172.033 37.7166L172.033 52.4471L155.627 52.4471L155.627 37.7166L151.162 37.7166L151.162 72.8963ZM186.587 49.7166L189.27 49.7166L190.137 40.8338L190.231 35.8885L185.626 35.8885L185.719 40.8338L186.587 49.7166Z" fill="#19191A" fill-opacity="1.000000" transform="matrix(1 0 0 1 165.163 201.04)"/></g><path d="M15 0L314.659 0C322.939 0 329.659 6.72 329.659 15L329.659 94.8774C329.659 103.157 322.939 109.877 314.659 109.877L15 109.877C6.72 109.877 0 103.157 0 94.8774L0 15C0 6.72 6.72 0 15 0Z" fill="#D5FFEC" fill-opacity="1.000000" transform="matrix(1 0 0 1 574.367 201.04)"/><path d="M15 0L314.659 0C322.939 0 329.659 6.72 329.659 15L329.659 94.8774C329.659 103.157 322.939 109.877 314.659 109.877L15 109.877C6.72 109.877 0 103.157 0 94.8774L0 15C0 6.72 6.72 0 15 0Z" fill="none" stroke="#000000" stroke-opacity="1.000000" stroke-width="2" stroke-dasharray="0 0" transform="matrix(1 0 0 1 574.367 201.04)"/><clipPath id="clip_7_14_0"><path d="M580.263 219.936L896.13 219.936L896.13 316.021L580.263 316.021L580.263 219.936Z"/></clipPath><g clip-path="url(#clip_7_14_0)"><path d="M141.658 49.7166L144.342 49.7166L145.209 40.8338L145.303 35.8885L140.698 35.8885L140.791 40.8338L141.658 49.7166ZM154.522 72.8963L175.346 72.8963L175.346 69.0994L158.987 69.0994L158.987 56.2909L172.323 56.2909L172.323 52.494L158.987 52.494L158.987 41.4549L174.819 41.4549L174.819 37.7166L154.522 37.7166L154.522 72.8963ZM183.227 49.7166L185.91 49.7166L186.777 40.8338L186.871 35.8885L182.266 35.8885L182.359 40.8338L183.227 49.7166Z" fill="#19191A" fill-opacity="1.000000" transform="matrix(1 0 0 1 574.367 201.04)"/></g><path d="M15 0L314.659 0C322.939 0 329.659 6.72 329.659 15L329.659 94.8774C329.659 103.157 322.939 109.877 314.659 109.877L15 109.877C6.72 109.877 0 103.157 0 94.8774L0 15C0 6.72 6.72 0 15 0Z" fill="#D5FFEC" fill-opacity="1.000000" transform="matrix(1 0 0 1 983.571 201.04)"/><path d="M15 0L314.659 0C322.939 0 329.659 6.72 329.659 15L329.659 94.8774C329.659 103.157 322.939 109.877 314.659 109.877L15 109.877C6.72 109.877 0 103.157 0 94.8774L0 15C0 6.72 6.72 0 15 0Z" fill="none" stroke="#000000" stroke-opacity="1.000000" stroke-width="2" stroke-dasharray="0 0" transform="matrix(1 0 0 1 983.571 201.04)"/><clipPath id="clip_7_17_0"><path d="M989.467 219.936L1305.33 219.936L1305.33 316.021L989.467 316.021L989.467 219.936Z"/></clipPath><g clip-path="url(#clip_7_17_0)"><path d="M145.138 49.7166L147.822 49.7166L148.689 40.8338L148.783 35.8885L144.178 35.8885L144.271 40.8338L145.138 49.7166ZM158.002 72.8963L177.818 72.8963L177.818 69.0994L162.467 69.0994L162.467 37.7166L158.002 37.7166L158.002 72.8963ZM179.747 49.7166L182.43 49.7166L183.297 40.8338L183.391 35.8885L178.786 35.8885L178.879 40.8338L179.747 49.7166Z" fill="#19191A" fill-opacity="1.000000" transform="matrix(1 0 0 1 983.571 201.04)"/></g><path d="M15 0L314.659 0C322.939 0 329.659 6.72 329.659 15L329.659 94.8774C329.659 103.157 322.939 109.877 314.659 109.877L15 109.877C6.72 109.877 0 103.157 0 94.8774L0 15C0 6.72 6.72 0 15 0Z" fill="#D5FFEC" fill-opacity="1.000000" transform="matrix(1 0 0 1 1392.78 201.04)"/><path d="M15 0L314.659 0C322.939 0 329.659 6.72 329.659 15L329.659 94.8774C329.659 103.157 322.939 109.877 314.659 109.877L15 109.877C6.72 109.877 0 103.157 0 94.8774L0 15C0 6.72 6.72 0 15 0Z" fill="none" stroke="#000000" stroke-opacity="1.000000" stroke-width="2" stroke-dasharray="0 0" transform="matrix(1 0 0 1 1392.78 201.04)"/><clipPath id="clip_7_20_0"><path d="M1398.67 219.936L1714.54 219.936L1714.54 316.021L1398.67 316.021L1398.67 219.936Z"/></clipPath><g clip-path="url(#clip_7_20_0)"><path d="M145.138 49.7166L147.822 49.7166L148.689 40.8338L148.783 35.8885L144.178 35.8885L144.271 40.8338L145.138 49.7166ZM158.002 72.8963L177.818 72.8963L177.818 69.0994L162.467 69.0994L162.467 37.7166L158.002 37.7166L158.002 72.8963ZM179.747 49.7166L182.43 49.7166L183.297 40.8338L183.391 35.8885L178.786 35.8885L178.879 40.8338L179.747 49.7166Z" fill="#19191A" fill-opacity="1.000000" transform="matrix(1 0 0 1 1392.78 201.04)"/></g><path d="M15 0L314.659 0C322.939 0 329.659 6.72 329.659 15L329.659 94.8774C329.659 103.157 322.939 109.877 314.659 109.877L15 109.877C6.72 109.877 0 103.157 0 94.8774L0 15C0 6.72 6.72 0 15 0Z" fill="#D5FFEC" fill-opacity="1.000000" transform="matrix(1 0 0 1 1801.98 201.04)"/><path d="M15 0L314.659 0C322.939 0 329.659 6.72 329.659 15L329.659 94.8774C329.659 103.157 322.939 109.877 314.659 109.877L15 109.877C6.72 109.877 0 103.157 0 94.8774L0 15C0 6.72 6.72 0 15 0Z" fill="none" stroke="#000000" stroke-opacity="1.000000" stroke-width="2" stroke-dasharray="0 0" transform="matrix(1 0 0 1 1801.98 201.04)"/><clipPath id="clip_7_23_0"><path d="M1807.88 219.936L2123.74 219.936L2123.74 316.021L1807.88 316.021L1807.88 219.936Z"/></clipPath><g clip-path="url(#clip_7_23_0)"><path d="M137.962 49.7166L140.646 49.7166L141.513 40.8338L141.607 35.8885L137.002 35.8885L137.095 40.8338L137.962 49.7166ZM163.834 73.5174C172.658 73.5174 178.857 66.4627 178.857 55.1893C178.857 43.9041 172.658 37.0369 163.834 37.0369C154.998 37.0369 148.81 43.9041 148.81 55.1893C148.81 66.4627 154.998 73.5174 163.834 73.5174ZM163.834 69.6268C157.494 69.6268 153.369 63.9666 153.369 55.1893C153.369 46.3534 157.494 40.9276 163.834 40.9276C170.115 40.9276 174.299 46.3534 174.299 55.1893C174.299 63.9666 170.115 69.6268 163.834 69.6268ZM186.923 49.7166L189.606 49.7166L190.473 40.8338L190.567 35.8885L185.962 35.8885L186.055 40.8338L186.923 49.7166Z" fill="#19191A" fill-opacity="1.000000" transform="matrix(1 0 0 1 1801.98 201.04)"/></g><path d="M15 0L314.659 0C322.939 0 329.659 6.72 329.659 15L329.659 94.8774C329.659 103.157 322.939 109.877 314.659 109.877L15 109.877C6.72 109.877 0 103.157 0 94.8774L0 15C0 6.72 6.72 0 15 0Z" fill="#D5FFEC" fill-opacity="1.000000" transform="matrix(1 0 0 1 2209.33 201.039)"/><path d="M15 0L314.659 0C322.939 0 329.659 6.72 329.659 15L329.659 94.8774C329.659 103.157 322.939 109.877 314.659 109.877L15 109.877C6.72 109.877 0 103.157 0 94.8774L0 15C0 6.72 6.72 0 15 0Z" fill="none" stroke="#000000" stroke-opacity="1.000000" stroke-width="2" stroke-dasharray="0 0" transform="matrix(1 0 0 1 2209.33 201.039)"/><clipPath id="clip_7_26_0"><path d="M2215.23 219.936L2531.09 219.936L2531.09 316.021L2215.23 316.021L2215.23 219.936Z"/></clipPath><g clip-path="url(#clip_7_26_0)"><path d="M133.042 49.7166L135.726 49.7166L136.593 40.8338L136.687 35.8885L132.082 35.8885L132.175 40.8338L133.042 49.7166ZM156.172 81.4862L159.336 81.4862L144.992 34.8338L141.816 34.8338L156.172 81.4862ZM173.265 73.5174C179.933 73.5174 184.21 67.4237 184.21 55.1893C184.21 42.9901 179.933 37.0369 173.265 37.0369C166.538 37.0369 162.273 42.9432 162.273 55.1893C162.273 67.4237 166.538 73.5174 173.265 73.5174ZM173.265 70.0135C169.234 70.0135 166.538 65.5487 166.538 55.1893C166.538 44.9119 169.234 40.5877 173.265 40.5877C177.249 40.5877 179.933 44.9119 179.933 55.1893C179.933 65.5487 177.249 70.0135 173.265 70.0135ZM191.843 49.7166L194.526 49.7166L195.393 40.8338L195.487 35.8885L190.882 35.8885L190.975 40.8338L191.843 49.7166Z" fill="#19191A" fill-opacity="1.000000" transform="matrix(1 0 0 1 2209.33 201.039)"/></g><path d="M11.2266 54.6211C17.3789 54.6211 20.7305 51.1172 20.7305 46.8984C20.7305 41.9531 16.5586 40.418 12.7734 38.9766C9.84375 37.875 7.00781 36.9609 7.00781 34.4648C7.00781 32.4492 8.49609 30.7148 11.7656 30.7148C14.1094 30.7148 15.9375 31.6758 17.7656 33.0234L19.875 30.1875C17.8125 28.6055 14.9766 27.2695 11.7656 27.2695C6.09375 27.2695 2.78906 30.5273 2.78906 34.6523C2.78906 39.0703 6.91406 40.8516 10.5586 42.1875C13.4414 43.3008 16.5117 44.4961 16.5117 47.1328C16.5117 49.3945 14.8359 51.2109 11.3789 51.2109C8.26172 51.2109 5.90625 49.9688 3.64453 48.1406L1.48828 51.0234C3.98438 53.0859 7.53516 54.6211 11.2266 54.6211ZM34.0291 54.6211C35.6112 54.6211 37.3456 54.1406 38.8338 53.6602L37.9666 50.4023C37.0995 50.7305 35.9041 51.0703 34.9901 51.0703C31.9666 51.0703 30.9588 49.2422 30.9588 46.0312L30.9588 31.4883L38.0135 31.4883L38.0135 27.9375L30.9588 27.9375L30.9588 20.6367L27.3143 20.6367L26.787 27.9375L22.7088 28.1719L22.7088 31.4883L26.5877 31.4883L26.5877 45.9375C26.5877 51.1641 28.4627 54.6211 34.0291 54.6211ZM43.9221 54L48.2932 54L48.2932 37.2422C50.0158 32.7891 52.6994 31.2422 54.8674 31.2422C55.9221 31.2422 56.5432 31.3477 57.4103 31.6758L58.2189 27.8438C57.4103 27.4102 56.59 27.2695 55.4416 27.2695C52.5119 27.2695 49.8752 29.3789 48.0471 32.6836L47.9064 32.6836L47.5197 27.9375L43.9221 27.9375L43.9221 54ZM67.1516 54.6211C68.3 54.6211 69.0734 54.4805 69.6945 54.2344L69.0734 50.8828C68.593 50.9766 68.4055 50.9766 68.1594 50.9766C67.4914 50.9766 66.9172 50.4492 66.9172 49.1016L66.9172 15.7969L62.5461 15.7969L62.5461 48.8203C62.5461 52.5117 63.8938 54.6211 67.1516 54.6211ZM86.7378 54.6211C90.2886 54.6211 93.0777 53.4258 95.3746 51.9375L93.7925 49.0547C91.8707 50.3555 89.8082 51.1172 87.2652 51.1172C82.3199 51.1172 78.9097 47.5664 78.6285 42L96.1949 42C96.2886 41.3789 96.3824 40.4648 96.3824 39.5039C96.3824 32.0625 92.6441 27.2695 86.0113 27.2695C79.9644 27.2695 74.2574 32.543 74.2574 40.9922C74.2574 49.582 79.8238 54.6211 86.7378 54.6211ZM78.5816 38.8828C79.1089 33.7383 82.3667 30.7734 86.0699 30.7734C90.148 30.7734 92.5386 33.5977 92.5386 38.8828L78.5816 38.8828ZM102.818 54L107.189 54L107.189 35.0859C109.826 32.4492 111.642 31.1016 114.338 31.1016C117.795 31.1016 119.283 33.1641 119.283 38.0625L119.283 54L123.642 54L123.642 37.4883C123.642 30.8203 121.158 27.2695 115.685 27.2695C112.123 27.2695 109.439 29.2266 106.943 31.6758L106.803 31.6758L106.416 27.9375L102.818 27.9375L102.818 54Z" fill="#19191A" fill-opacity="1.000000" transform="matrix(1 0 0 1 165.163 129.04)"/><path d="M11.2266 54.6211C17.3789 54.6211 20.7305 51.1172 20.7305 46.8984C20.7305 41.9531 16.5586 40.418 12.7734 38.9766C9.84375 37.875 7.00781 36.9609 7.00781 34.4648C7.00781 32.4492 8.49609 30.7148 11.7656 30.7148C14.1094 30.7148 15.9375 31.6758 17.7656 33.0234L19.875 30.1875C17.8125 28.6055 14.9766 27.2695 11.7656 27.2695C6.09375 27.2695 2.78906 30.5273 2.78906 34.6523C2.78906 39.0703 6.91406 40.8516 10.5586 42.1875C13.4414 43.3008 16.5117 44.4961 16.5117 47.1328C16.5117 49.3945 14.8359 51.2109 11.3789 51.2109C8.26172 51.2109 5.90625 49.9688 3.64453 48.1406L1.48828 51.0234C3.98438 53.0859 7.53516 54.6211 11.2266 54.6211ZM26.882 54L31.2531 54L31.2531 27.9375L26.882 27.9375L26.882 54ZM29.0851 22.5586C30.8195 22.5586 32.1086 21.3633 32.1086 19.7227C32.1086 17.9531 30.8195 16.8984 29.0851 16.8984C27.3625 16.8984 26.0617 17.9531 26.0617 19.7227C26.0617 21.3633 27.3625 22.5586 29.0851 22.5586ZM37.3399 54L57.0742 54L57.0742 50.4492L42.8594 50.4492L56.5938 30.293L56.5938 27.9375L38.8281 27.9375L38.8281 31.4883L51.0742 31.4883L37.3399 51.6445L37.3399 54ZM72.8178 54.6211C76.3686 54.6211 79.1577 53.4258 81.4545 51.9375L79.8725 49.0547C77.9506 50.3555 75.8881 51.1172 73.3452 51.1172C68.3998 51.1172 64.9897 47.5664 64.7084 42L82.2748 42C82.3686 41.3789 82.4623 40.4648 82.4623 39.5039C82.4623 32.0625 78.7241 27.2695 72.0912 27.2695C66.0444 27.2695 60.3373 32.543 60.3373 40.9922C60.3373 49.582 65.9037 54.6211 72.8178 54.6211ZM64.6616 38.8828C65.1889 33.7383 68.4467 30.7734 72.1498 30.7734C76.228 30.7734 78.6186 33.5977 78.6186 38.8828L64.6616 38.8828ZM99.0231 54.6211C105.41 54.6211 111.117 49.6289 111.117 40.9922C111.117 32.3086 105.41 27.2695 99.0231 27.2695C92.6364 27.2695 86.9294 32.3086 86.9294 40.9922C86.9294 49.6289 92.6364 54.6211 99.0231 54.6211ZM99.0231 50.9766C94.5114 50.9766 91.488 46.9922 91.488 40.9922C91.488 34.9922 94.5114 30.9141 99.0231 30.9141C103.535 30.9141 106.605 34.9922 106.605 40.9922C106.605 46.9922 103.535 50.9766 99.0231 50.9766ZM130.654 16.0312C129.412 15.5039 127.877 15.1641 126.283 15.1641C121.103 15.1641 118.701 18.4805 118.701 23.7656L118.701 27.9375L115.15 28.1719L115.15 31.4883L118.701 31.4883L118.701 54L123.072 54L123.072 31.4883L128.592 31.4883L128.592 27.9375L123.072 27.9375L123.072 23.8125C123.072 20.4492 124.267 18.668 126.764 18.668C127.678 18.668 128.732 18.9141 129.693 19.3477L130.654 16.0312Z" fill="#19191A" fill-opacity="1.000000" transform="matrix(1 0 0 1 35.035 25.9553)"/></svg>