<svg id="SvgjsSvg1590" width="1007" height="407.5" xmlns="http://www.w3.org/2000/svg" version="1.1" xmlns:xlink="http://www.w3.org/1999/xlink" xmlns:svgjs="http://svgjs.com/svgjs"><defs id="SvgjsDefs1591"><marker id="SvgjsMarker1700" markerWidth="20" markerHeight="16" refX="13" refY="8" viewBox="0 0 20 16" orient="auto" markerUnits="userSpaceOnUse" stroke-dasharray="0,0"><path id="SvgjsPath1701" d="M0,0 L20,8 L0,16 L0,0" fill="#323232" stroke="#323232" stroke-width="1"></path></marker></defs><g id="SvgjsG1592" transform="translate(91,25)"><path id="SvgjsPath1593" d="M 0 30C 0 -10 60 -10 60 30C 60 70 0 70 0 30Z" stroke="rgba(50,50,50,1)" stroke-width="2" fill-opacity="1" fill="#81c784"></path><g id="SvgjsG1594"><text id="SvgjsText1595" font-family="微软雅黑" text-anchor="middle" font-size="22px" width="40px" fill="#323232" font-weight="700" align="middle" lineHeight="125%" anchor="middle" family="微软雅黑" size="22px" weight="700" font-style="" opacity="1" y="10.25" transform="rotate(0)"><tspan id="SvgjsTspan1596" dy="27" x="30"><tspan id="SvgjsTspan1597" style="text-decoration:;">4</tspan></tspan></text></g></g><g id="SvgjsG1598" transform="translate(25,128)"><path id="SvgjsPath1599" d="M 0 30C 0 -10 60 -10 60 30C 60 70 0 70 0 30Z" stroke="rgba(50,50,50,1)" stroke-width="2" fill-opacity="1" fill="#81c784"></path><g id="SvgjsG1600"><text id="SvgjsText1601" font-family="微软雅黑" text-anchor="middle" font-size="22px" width="40px" fill="#323232" font-weight="700" align="middle" lineHeight="125%" anchor="middle" family="微软雅黑" size="22px" weight="700" font-style="" opacity="1" y="10.25" transform="rotate(0)"><tspan id="SvgjsTspan1602" dy="27" x="30"><tspan id="SvgjsTspan1603" style="text-decoration:;">2</tspan></tspan></text></g></g><g id="SvgjsG1604" transform="translate(159,128)"><path id="SvgjsPath1605" d="M 0 30C 0 -10 60 -10 60 30C 60 70 0 70 0 30Z" stroke="rgba(50,50,50,1)" stroke-width="2" fill-opacity="1" fill="#81c784"></path><g id="SvgjsG1606"><text id="SvgjsText1607" font-family="微软雅黑" text-anchor="middle" font-size="22px" width="40px" fill="#323232" font-weight="700" align="middle" lineHeight="125%" anchor="middle" family="微软雅黑" size="22px" weight="700" font-style="" opacity="1" y="10.25" transform="rotate(0)"><tspan id="SvgjsTspan1608" dy="27" x="30"><tspan id="SvgjsTspan1609" style="text-decoration:;">5</tspan></tspan></text></g></g><g id="SvgjsG1610" transform="translate(227,222)"><path id="SvgjsPath1611" d="M 0 30C 0 -10 60 -10 60 30C 60 70 0 70 0 30Z" stroke="rgba(50,50,50,1)" stroke-width="2" fill-opacity="1" fill="#81c784"></path><g id="SvgjsG1612"><text id="SvgjsText1613" font-family="微软雅黑" text-anchor="middle" font-size="22px" width="40px" fill="#323232" font-weight="700" align="middle" lineHeight="125%" anchor="middle" family="微软雅黑" size="22px" weight="700" font-style="" opacity="1" y="10.25" transform="rotate(0)"><tspan id="SvgjsTspan1614" dy="27" x="30"><tspan id="SvgjsTspan1615" style="text-decoration:;">6</tspan></tspan></text></g></g><g id="SvgjsG1616"><path id="SvgjsPath1617" d="M120.73486820227731 85.96421218092095C 123.74616667461027 116.38882872289534 57.746166674610265 96.61117127710466 55.42230604182065 127.09354668788637" stroke="#323232" stroke-width="2" fill="none"></path></g><g id="SvgjsG1618"><path id="SvgjsPath1619" d="M121.41967031239247 85.90767661030588C 123.80484459108845 117.05952037725831 191.80484459108845 95.94047962274169 188.73861695301449 127.03476484588026" stroke="#323232" stroke-width="2" fill="none"></path></g><g id="SvgjsG1620"><path id="SvgjsPath1621" d="M189.46945482453344 188.88295649254212C 191.6504518496202 218.2948032671091 259.6504518496202 191.7051967328909 256.6856422708101 221.0506954028877" stroke="#323232" stroke-width="2" fill="none"></path></g><g id="SvgjsG1622" transform="translate(415,25)"><path id="SvgjsPath1623" d="M 0 30C 0 -10 60 -10 60 30C 60 70 0 70 0 30Z" stroke="rgba(50,50,50,1)" stroke-width="2" fill-opacity="1" fill="#81c784"></path><g id="SvgjsG1624"><text id="SvgjsText1625" font-family="微软雅黑" text-anchor="middle" font-size="22px" width="40px" fill="#323232" font-weight="700" align="middle" lineHeight="125%" anchor="middle" family="微软雅黑" size="22px" weight="700" font-style="" opacity="1" y="10.25" transform="rotate(0)"><tspan id="SvgjsTspan1626" dy="27" x="30"><tspan id="SvgjsTspan1627" style="text-decoration:;">4</tspan></tspan></text></g></g><g id="SvgjsG1628" transform="translate(345,132.5)"><path id="SvgjsPath1629" d="M 0 30C 0 -10 60 -10 60 30C 60 70 0 70 0 30Z" stroke="rgba(50,50,50,1)" stroke-width="2" fill-opacity="1" fill="#81c784"></path><g id="SvgjsG1630"><text id="SvgjsText1631" font-family="微软雅黑" text-anchor="middle" font-size="22px" width="40px" fill="#323232" font-weight="700" align="middle" lineHeight="125%" anchor="middle" family="微软雅黑" size="22px" weight="700" font-style="" opacity="1" y="10.25" transform="rotate(0)"><tspan id="SvgjsTspan1632" dy="27" x="30"><tspan id="SvgjsTspan1633" style="text-decoration:;">2</tspan></tspan></text></g></g><g id="SvgjsG1634" transform="translate(481,132.5)"><path id="SvgjsPath1635" d="M 0 30C 0 -10 60 -10 60 30C 60 70 0 70 0 30Z" stroke-dasharray="10,6" stroke="rgba(50,50,50,1)" stroke-width="2" fill-opacity="1" fill="#ffb74d"></path><g id="SvgjsG1636"><text id="SvgjsText1637" font-family="微软雅黑" text-anchor="middle" font-size="22px" width="40px" fill="#323232" font-weight="700" align="middle" lineHeight="125%" anchor="middle" family="微软雅黑" size="22px" weight="700" font-style="" opacity="1" y="10.25" transform="rotate(0)"><tspan id="SvgjsTspan1638" dy="27" x="30"><tspan id="SvgjsTspan1639" style="text-decoration:;">5</tspan></tspan></text></g></g><g id="SvgjsG1640" transform="translate(551,226.5)"><path id="SvgjsPath1641" d="M 0 30C 0 -10 60 -10 60 30C 60 70 0 70 0 30Z" stroke-dasharray="10,6" stroke="rgba(50,50,50,1)" stroke-width="2" fill-opacity="1" fill="#81c784"></path><g id="SvgjsG1642"><text id="SvgjsText1643" font-family="微软雅黑" text-anchor="middle" font-size="22px" width="40px" fill="#323232" font-weight="700" align="middle" lineHeight="125%" anchor="middle" family="微软雅黑" size="22px" weight="700" font-style="" opacity="1" y="10.25" transform="rotate(0)"><tspan id="SvgjsTspan1644" dy="27" x="30"><tspan id="SvgjsTspan1645" style="text-decoration:;">6</tspan></tspan></text></g></g><g id="SvgjsG1646"><path id="SvgjsPath1647" d="M444.765847658885 85.97219991830403C 447.9491628304505 118.70908540140906 377.9491628304505 98.79091459859094 375.3946902193431 131.58118574741414" stroke="#323232" stroke-width="2" fill="none"></path></g><g id="SvgjsG1648"><path id="SvgjsPath1649" d="M445.3982956669964 85.91725708590988C 447.834853578512 117.40252467306209 513.834853578512 100.09747532693791 510.76037426740754 131.5291346600689" stroke="#323232" stroke-width="2" fill="none"></path></g><g id="SvgjsG1650"><path id="SvgjsPath1651" d="M511.46442364073573 193.38561316720438C 513.7129946223031 223.50967043003448 583.7129946223031 195.49032956996552 580.6922019381412 225.54854829175832" stroke-dasharray="8,5" stroke="#323232" stroke-width="2" fill="none"></path></g><g id="SvgjsG1652" transform="translate(624,322.5)"><path id="SvgjsPath1653" d="M 0 30C 0 -10 60 -10 60 30C 60 70 0 70 0 30Z" stroke-dasharray="10,6" stroke="rgba(50,50,50,1)" stroke-width="2" fill-opacity="1" fill="#e57373"></path><g id="SvgjsG1654"><text id="SvgjsText1655" font-family="微软雅黑" text-anchor="middle" font-size="22px" width="40px" fill="#323232" font-weight="700" align="middle" lineHeight="125%" anchor="middle" family="微软雅黑" size="22px" weight="700" font-style="" opacity="1" y="10.25" transform="rotate(0)"><tspan id="SvgjsTspan1656" dy="27" x="30"><tspan id="SvgjsTspan1657" style="text-decoration:;">7</tspan></tspan></text></g></g><g id="SvgjsG1658"><path id="SvgjsPath1659" d="M581.446674263951 287.3946966535781C 583.8375854002179 318.9337495380425 656.8375854002179 290.0662504619575 653.712648581102 321.54217477478545" stroke-dasharray="8,5" stroke="#323232" stroke-width="2" fill="none"></path></g><g id="SvgjsG1660" transform="translate(790,25)"><path id="SvgjsPath1661" d="M 0 30C 0 -10 60 -10 60 30C 60 70 0 70 0 30Z" stroke="rgba(50,50,50,1)" stroke-width="2" fill-opacity="1" fill="#81c784"></path><g id="SvgjsG1662"><text id="SvgjsText1663" font-family="微软雅黑" text-anchor="middle" font-size="22px" width="40px" fill="#323232" font-weight="700" align="middle" lineHeight="125%" anchor="middle" family="微软雅黑" size="22px" weight="700" font-style="" opacity="1" y="10.25" transform="rotate(0)"><tspan id="SvgjsTspan1664" dy="27" x="30"><tspan id="SvgjsTspan1665" style="text-decoration:;">4</tspan></tspan></text></g></g><g id="SvgjsG1666" transform="translate(720,132.5)"><path id="SvgjsPath1667" d="M 0 30C 0 -10 60 -10 60 30C 60 70 0 70 0 30Z" stroke="rgba(50,50,50,1)" stroke-width="2" fill-opacity="1" fill="#81c784"></path><g id="SvgjsG1668"><text id="SvgjsText1669" font-family="微软雅黑" text-anchor="middle" font-size="22px" width="40px" fill="#323232" font-weight="700" align="middle" lineHeight="125%" anchor="middle" family="微软雅黑" size="22px" weight="700" font-style="" opacity="1" y="10.25" transform="rotate(0)"><tspan id="SvgjsTspan1670" dy="27" x="30"><tspan id="SvgjsTspan1671" style="text-decoration:;">2</tspan></tspan></text></g></g><g id="SvgjsG1672" transform="translate(856,132.5)"><path id="SvgjsPath1673" d="M 0 30C 0 -10 60 -10 60 30C 60 70 0 70 0 30Z" stroke="rgba(50,50,50,1)" stroke-width="2" fill-opacity="1" fill="#81c784"></path><g id="SvgjsG1674"><text id="SvgjsText1675" font-family="微软雅黑" text-anchor="middle" font-size="22px" width="40px" fill="#323232" font-weight="700" align="middle" lineHeight="125%" anchor="middle" family="微软雅黑" size="22px" weight="700" font-style="" opacity="1" y="10.25" transform="rotate(0)"><tspan id="SvgjsTspan1676" dy="27" x="30"><tspan id="SvgjsTspan1677" style="text-decoration:;">6</tspan></tspan></text></g></g><g id="SvgjsG1678" transform="translate(790,237.5)"><path id="SvgjsPath1679" d="M 0 30C 0 -10 60 -10 60 30C 60 70 0 70 0 30Z" stroke="rgba(50,50,50,1)" stroke-width="2" fill-opacity="1" fill="#ffb74d"></path><g id="SvgjsG1680"><text id="SvgjsText1681" font-family="微软雅黑" text-anchor="middle" font-size="22px" width="40px" fill="#323232" font-weight="700" align="middle" lineHeight="125%" anchor="middle" family="微软雅黑" size="22px" weight="700" font-style="" opacity="1" y="10.25" transform="rotate(0)"><tspan id="SvgjsTspan1682" dy="27" x="30"><tspan id="SvgjsTspan1683" style="text-decoration:;">5</tspan></tspan></text></g></g><g id="SvgjsG1684"><path id="SvgjsPath1685" d="M819.765847658885 85.97219991830403C 822.9491628304505 118.70908540140908 752.9491628304505 98.79091459859094 750.394690219343 131.58118574741414" stroke="#323232" stroke-width="2" fill="none"></path></g><g id="SvgjsG1686"><path id="SvgjsPath1687" d="M820.3982956669964 85.91725708590988C 822.834853578512 117.40252467306209 888.834853578512 100.09747532693791 885.7603742674075 131.52913466006888" stroke="#323232" stroke-width="2" fill="none"></path></g><g id="SvgjsG1688" transform="translate(922,237.5)"><path id="SvgjsPath1689" d="M 0 30C 0 -10 60 -10 60 30C 60 70 0 70 0 30Z" stroke="rgba(50,50,50,1)" stroke-width="2" fill-opacity="1" fill="#e57373"></path><g id="SvgjsG1690"><text id="SvgjsText1691" font-family="微软雅黑" text-anchor="middle" font-size="22px" width="40px" fill="#323232" font-weight="700" align="middle" lineHeight="125%" anchor="middle" family="微软雅黑" size="22px" weight="700" font-style="" opacity="1" y="10.25" transform="rotate(0)"><tspan id="SvgjsTspan1692" dy="27" x="30"><tspan id="SvgjsTspan1693" style="text-decoration:;">7</tspan></tspan></text></g></g><g id="SvgjsG1694"><path id="SvgjsPath1695" d="M885.746413832386 193.4673128013186C 888.7848407929948 224.33087591879416 822.7848407929948 205.66912408120584 820.4114514155142 236.58856830608573" stroke="#323232" stroke-width="2" fill="none"></path></g><g id="SvgjsG1696"><path id="SvgjsPath1697" d="M886.4114514155142 193.41143169391427C 888.7848407929948 224.33087591879416 954.7848407929948 205.66912408120584 951.746413832386 236.5326871986814" stroke="#323232" stroke-width="2" fill="none"></path></g><g id="SvgjsG1698"><path id="SvgjsPath1699" d="M527 276C 510 220 445 231 440 276" stroke-dasharray="3,3" stroke="#323232" stroke-width="5" fill="none" marker-end="url(#SvgjsMarker1700)"></path></g></svg>