<svg id="SvgjsSvg1001" width="1005.3999938964844" height="318" xmlns="http://www.w3.org/2000/svg" version="1.1" xmlns:xlink="http://www.w3.org/1999/xlink" xmlns:svgjs="http://svgjs.com/svgjs"><defs id="SvgjsDefs1002"></defs><g id="SvgjsG1008" transform="translate(176.5,26.99999237060547)"><path id="SvgjsPath1009" d="M 0 0L 200 0L 200 200L 0 200Z" stroke="rgba(33,41,48,1)" stroke-width="2" fill-opacity="1" fill="#fcf9ea"></path><g id="SvgjsG1010"><text id="SvgjsText1011" font-family="微软雅黑" text-anchor="middle" font-size="29px" width="180px" fill="#323232" font-weight="400" align="middle" lineHeight="125%" anchor="middle" family="微软雅黑" size="29px" weight="400" font-style="" opacity="1" y="75.375" transform="rotate(0)"><tspan id="SvgjsTspan1012" dy="36" x="100"><tspan id="SvgjsTspan1013" style="text-decoration:;">f(x) = x^2</tspan></tspan></text></g></g><g id="SvgjsG1014" transform="translate(25,26.99999237060547)"><path id="SvgjsPath1015" d="M 116 0Q 107 0 107 9L 107 91Q 107 100 94 100Q 107 100 107 109L 107 191Q 107 200 116 200" stroke="rgba(33,41,48,1)" stroke-width="2" fill="none"></path><path id="SvgjsPath1016" d="M 0 0L 116 0L 116 200L 0 200Z" stroke="none" fill="none"></path><g id="SvgjsG1017"><text id="SvgjsText1018" font-family="微软雅黑" text-anchor="end" font-size="24px" width="89px" fill="#323232" font-weight="400" align="middle" lineHeight="125%" anchor="end" family="微软雅黑" size="24px" weight="400" font-style="" opacity="1" y="79" transform="rotate(0)"><tspan id="SvgjsTspan1019" dy="30" x="89"><tspan id="SvgjsTspan1020" style="text-decoration:;">X</tspan></tspan></text></g></g><g id="SvgjsG1021" transform="translate(612,26.99999237060547)"><path id="SvgjsPath1022" d="M 0 0L 200 0L 200 200L 0 200Z" stroke="rgba(33,41,48,1)" stroke-width="2" fill-opacity="1" fill="#fcf9ea"></path><g id="SvgjsG1023"><text id="SvgjsText1024" font-family="微软雅黑" text-anchor="middle" font-size="29px" width="180px" fill="#323232" font-weight="400" align="middle" lineHeight="125%" anchor="middle" family="微软雅黑" size="29px" weight="400" font-style="" opacity="1" y="75.375" transform="rotate(0)"><tspan id="SvgjsTspan1025" dy="36" x="100"><tspan id="SvgjsTspan1026" style="text-decoration:;">f(x) = x^2</tspan></tspan></text></g></g><g id="SvgjsG1027" transform="translate(461,26.99999237060547)"><path id="SvgjsPath1028" d="M 116 0Q 107 0 107 9L 107 91Q 107 100 94 100Q 107 100 107 109L 107 191Q 107 200 116 200" stroke="rgba(33,41,48,1)" stroke-width="2" fill="none"></path><path id="SvgjsPath1029" d="M 0 0L 116 0L 116 200L 0 200Z" stroke="none" fill="none"></path><g id="SvgjsG1030"><text id="SvgjsText1031" font-family="微软雅黑" text-anchor="end" font-size="24px" width="89px" fill="#323232" font-weight="400" align="middle" lineHeight="125%" anchor="end" family="微软雅黑" size="24px" weight="400" font-style="" opacity="1" y="79" transform="rotate(0)"><tspan id="SvgjsTspan1032" dy="30" x="89"><tspan id="SvgjsTspan1033" style="text-decoration:;">X</tspan></tspan></text></g></g><g id="SvgjsG1034" transform="translate(612,238.99999237060547)"><path id="SvgjsPath1035" d="M 0 0L 200 0L 200 54L 0 54Z" stroke-dasharray="10,6" stroke="rgba(33,41,48,1)" stroke-width="2" fill-opacity="1" fill="#95da69"></path><g id="SvgjsG1036"><text id="SvgjsText1037" font-family="微软雅黑" text-anchor="middle" font-size="13px" width="180px" fill="#323232" font-weight="400" align="middle" lineHeight="125%" anchor="middle" family="微软雅黑" size="13px" weight="400" font-style="" opacity="1" y="16.375" transform="rotate(0)"></text></g></g><g id="SvgjsG1038" transform="matrix(6.123233995736766e-17,1,-1,6.123233995736766e-17,881,24.99999237060547)"><path id="SvgjsPath1039" d="M 0 0L 200 0L 200 54L 0 54Z" stroke-dasharray="10,6" stroke="rgba(33,41,48,1)" stroke-width="2" fill-opacity="1" fill="#95da69"></path><g id="SvgjsG1040"><text id="SvgjsText1041" font-family="微软雅黑" text-anchor="middle" font-size="13px" width="180px" fill="#323232" font-weight="400" align="middle" lineHeight="125%" anchor="middle" family="微软雅黑" size="13px" weight="400" font-style="" opacity="1" y="16.375" transform="rotate(0)"></text></g></g><g id="SvgjsG1042" transform="translate(827.3999938964844,238.99999237060547)"><path id="SvgjsPath1043" d="M 0 0L 53.20001220703125 0L 53.20001220703125 54L 0 54Z" stroke-dasharray="10,6" stroke="rgba(33,41,48,1)" stroke-width="2" fill-opacity="1" fill="#95da69"></path><g id="SvgjsG1044"><text id="SvgjsText1045" font-family="微软雅黑" text-anchor="middle" font-size="13px" width="34px" fill="#323232" font-weight="400" align="middle" lineHeight="125%" anchor="middle" family="微软雅黑" size="13px" weight="400" font-style="" opacity="1" y="16.375" transform="rotate(0)"></text></g></g><g id="SvgjsG1046" transform="translate(908.3999938964844,241.49999237060547)"><path id="SvgjsPath1047" d="M 0 49Q 7.2 49 7.2 44.1L 7.2 29.4Q 7.2 24.5 22 24.5Q 7.2 24.5 7.2 19.6L 7.2 4.9Q 7.2 0 0 0" stroke="rgba(33,41,48,1)" stroke-width="2" fill="none"></path><path id="SvgjsPath1048" d="M 0 0L 72 0L 72 49L 0 49Z" stroke="none" fill="none"></path><g id="SvgjsG1049"><text id="SvgjsText1050" font-family="微软雅黑" text-anchor="start" font-size="24px" width="45px" fill="#323232" font-weight="400" align="middle" lineHeight="125%" anchor="start" family="微软雅黑" size="24px" weight="400" font-style="" opacity="1" y="3.5" transform="rotate(0)"><tspan id="SvgjsTspan1051" dy="30" x="27"><tspan id="SvgjsTspan1052" style="text-decoration:;">dx</tspan></tspan></text></g></g></svg>