<svg id="SvgjsSvg1006" width="423.9765625" height="527" xmlns="http://www.w3.org/2000/svg" version="1.1" xmlns:xlink="http://www.w3.org/1999/xlink" xmlns:svgjs="http://svgjs.com/svgjs"><defs id="SvgjsDefs1007"><marker id="SvgjsMarker1030" markerWidth="14" markerHeight="10" refX="10" refY="5" viewBox="0 0 14 10" orient="auto" markerUnits="userSpaceOnUse" stroke-dasharray="0,0"><path id="SvgjsPath1031" d="M0,0 L14,5 L0,10 L0,0" fill="#323232" stroke="#323232" stroke-width="1"></path></marker><marker id="SvgjsMarker1038" markerWidth="14" markerHeight="10" refX="10" refY="5" viewBox="0 0 14 10" orient="auto" markerUnits="userSpaceOnUse" stroke-dasharray="0,0"><path id="SvgjsPath1039" d="M0,0 L14,5 L0,10 L0,0" fill="#323232" stroke="#323232" stroke-width="1"></path></marker><marker id="SvgjsMarker1046" markerWidth="14" markerHeight="10" refX="10" refY="5" viewBox="0 0 14 10" orient="auto" markerUnits="userSpaceOnUse" stroke-dasharray="0,0"><path id="SvgjsPath1047" d="M0,0 L14,5 L0,10 L0,0" fill="#323232" stroke="#323232" stroke-width="1"></path></marker><marker id="SvgjsMarker1054" markerWidth="14" markerHeight="10" refX="10" refY="5" viewBox="0 0 14 10" orient="auto" markerUnits="userSpaceOnUse" stroke-dasharray="0,0"><path id="SvgjsPath1055" d="M0,0 L14,5 L0,10 L0,0" fill="#323232" stroke="#323232" stroke-width="1"></path></marker><marker id="SvgjsMarker1066" markerWidth="14" markerHeight="10" refX="10" refY="5" viewBox="0 0 14 10" orient="auto" markerUnits="userSpaceOnUse" stroke-dasharray="0,0"><path id="SvgjsPath1067" d="M0,0 L14,5 L0,10 L0,0" fill="#323232" stroke="#323232" stroke-width="1"></path></marker><marker id="SvgjsMarker1074" markerWidth="14" markerHeight="10" refX="10" refY="5" viewBox="0 0 14 10" orient="auto" markerUnits="userSpaceOnUse" stroke-dasharray="0,0"><path id="SvgjsPath1075" d="M0,0 L14,5 L0,10 L0,0" fill="#323232" stroke="#323232" stroke-width="1"></path></marker><marker id="SvgjsMarker1082" markerWidth="14" markerHeight="10" refX="10" refY="5" viewBox="0 0 14 10" orient="auto" markerUnits="userSpaceOnUse" stroke-dasharray="0,0"><path id="SvgjsPath1083" d="M0,0 L14,5 L0,10 L0,0" fill="#323232" stroke="#323232" stroke-width="1"></path></marker></defs><g id="SvgjsG1008" transform="translate(201.8046875,164)"><path id="SvgjsPath1009" d="M 0 4Q 0 0 4 0L 136 0Q 140 0 140 4L 140 55.5Q 140 59.5 136 59.5L 4 59.5Q 0 59.5 0 55.5Z" stroke="rgba(50,50,50,1)" stroke-width="2" fill-opacity="1" fill="#64b5f6"></path><g id="SvgjsG1010"><text id="SvgjsText1011" font-family="微软雅黑" text-anchor="middle" font-size="18px" width="120px" fill="#323232" font-weight="700" align="middle" lineHeight="125%" anchor="middle" family="微软雅黑" size="18px" weight="700" font-style="" opacity="1" y="3" transform="rotate(0)"><tspan id="SvgjsTspan1012" dy="22" x="70"><tspan id="SvgjsTspan1013" style="text-decoration:;">Local </tspan></tspan><tspan id="SvgjsTspan1014" dy="22" x="70"><tspan id="SvgjsTspan1015" style="text-decoration:;">Repository</tspan></tspan></text></g></g><g id="SvgjsG1016" transform="translate(201.8046875,303)"><path id="SvgjsPath1017" d="M 0 4Q 0 0 4 0L 136 0Q 140 0 140 4L 140 55.5Q 140 59.5 136 59.5L 4 59.5Q 0 59.5 0 55.5Z" stroke="rgba(50,50,50,1)" stroke-width="2" fill-opacity="1" fill="#ffeb3b"></path><g id="SvgjsG1018"><text id="SvgjsText1019" font-family="微软雅黑" text-anchor="middle" font-size="18px" width="120px" fill="#323232" font-weight="700" align="middle" lineHeight="125%" anchor="middle" family="微软雅黑" size="18px" weight="700" font-style="" opacity="1" y="14" transform="rotate(0)"><tspan id="SvgjsTspan1020" dy="22" x="70"><tspan id="SvgjsTspan1021" style="text-decoration:;">StageArea</tspan></tspan></text></g></g><g id="SvgjsG1022" transform="translate(201.8046875,442)"><path id="SvgjsPath1023" d="M 0 4Q 0 0 4 0L 136 0Q 140 0 140 4L 140 56Q 140 60 136 60L 4 60Q 0 60 0 56Z" stroke="rgba(50,50,50,1)" stroke-width="2" fill-opacity="1" fill="#81c784"></path><g id="SvgjsG1024"><text id="SvgjsText1025" font-family="微软雅黑" text-anchor="middle" font-size="18px" width="120px" fill="#323232" font-weight="700" align="middle" lineHeight="125%" anchor="middle" family="微软雅黑" size="18px" weight="700" font-style="" opacity="1" y="14.25" transform="rotate(0)"><tspan id="SvgjsTspan1026" dy="22" x="70"><tspan id="SvgjsTspan1027" style="text-decoration:;">WorkSpace</tspan></tspan></text></g></g><g id="SvgjsG1028"><path id="SvgjsPath1029" d="M342.77619970178444 320.7630104606023C 392.7046875 320.99999999999994 392.7046875 193.75 345.302131426424 194.60316234183188" stroke="#323232" stroke-width="2" fill="none" marker-end="url(#SvgjsMarker1030)"></path><rect id="SvgjsRect1032" width="58" height="23" x="351.538307016026" y="245.95202160030425" fill="#ffffff"></rect><text id="SvgjsText1033" font-family="微软雅黑" text-anchor="middle" font-size="18px" width="58px" fill="#323232" font-weight="700" align="top" lineHeight="23px" anchor="middle" family="微软雅黑" size="18px" weight="700" font-style="" opacity="1" y="241.70202160030425" transform="rotate(0)"><tspan id="SvgjsTspan1034" dy="22" x="380.538307016026"><tspan id="SvgjsTspan1035" style="text-decoration:;">commit</tspan></tspan></text></g><g id="SvgjsG1036"><path id="SvgjsPath1037" d="M342.7808766665602 471.78307902109145C 397.50468750000005 472 397.50468750000005 332.75 345.3189684996165 333.5309155240706" stroke="#323232" stroke-width="2" fill="none" marker-end="url(#SvgjsMarker1038)"></path><rect id="SvgjsRect1040" width="29" height="23" x="369.64099627077206" y="390.94549931814527" fill="#ffffff"></rect><text id="SvgjsText1041" font-family="微软雅黑" text-anchor="middle" font-size="18px" width="29px" fill="#323232" font-weight="700" align="top" lineHeight="23px" anchor="middle" family="微软雅黑" size="18px" weight="700" font-style="" opacity="1" y="386.69549931814527" transform="rotate(0)"><tspan id="SvgjsTspan1042" dy="22" x="384.14099627077206"><tspan id="SvgjsTspan1043" style="text-decoration:;">add</tspan></tspan></text></g><g id="SvgjsG1044"><path id="SvgjsPath1045" d="M200.81062241694235 193.8587869966754C 90.50468750000005 193.75 90.50468750000005 472 198.22605320099262 471.6083668119685" stroke="#323232" stroke-width="2" fill="none" marker-end="url(#SvgjsMarker1046)"></path><rect id="SvgjsRect1048" width="69" height="23" x="83.2581000772419" y="321.3396442260805" fill="#ffffff"></rect><text id="SvgjsText1049" font-family="微软雅黑" text-anchor="middle" font-size="18px" width="69px" fill="#323232" font-weight="700" align="top" lineHeight="23px" anchor="middle" family="微软雅黑" size="18px" weight="700" font-style="" opacity="1" y="317.0896442260805" transform="rotate(0)"><tspan id="SvgjsTspan1050" dy="22" x="117.7581000772419"><tspan id="SvgjsTspan1051" style="text-decoration:;">checkout </tspan></tspan></text></g><g id="SvgjsG1052"><path id="SvgjsPath1053" d="M200.834085628224 332.99069068636925C 151.70468749999998 332.75 151.70468749999998 458 198.3105207616063 457.1335135290708" stroke="#323232" stroke-width="2" fill="none" marker-end="url(#SvgjsMarker1054)"></path></g><g id="SvgjsG1056" transform="translate(201.8046875,25)"><path id="SvgjsPath1057" d="M 0 4Q 0 0 4 0L 136 0Q 140 0 140 4L 140 55.5Q 140 59.5 136 59.5L 4 59.5Q 0 59.5 0 55.5Z" stroke="rgba(50,50,50,1)" stroke-width="2" fill-opacity="1" fill="#ff9800"></path><g id="SvgjsG1058"><text id="SvgjsText1059" font-family="微软雅黑" text-anchor="middle" font-size="18px" width="120px" fill="#323232" font-weight="700" align="middle" lineHeight="125%" anchor="middle" family="微软雅黑" size="18px" weight="700" font-style="" opacity="1" y="3" transform="rotate(0)"><tspan id="SvgjsTspan1060" dy="22" x="70"><tspan id="SvgjsTspan1061" style="text-decoration:;">Remote </tspan></tspan><tspan id="SvgjsTspan1062" dy="22" x="70"><tspan id="SvgjsTspan1063" style="text-decoration:;">Repository</tspan></tspan></text></g></g><g id="SvgjsG1064"><path id="SvgjsPath1065" d="M342.775289371776 179.75930931363075C 391.9046875 180.00000000000006 391.9046875 54.75 345.2988542383937 55.6164864709292" stroke="#323232" stroke-width="2" fill="none" marker-end="url(#SvgjsMarker1066)"></path><rect id="SvgjsRect1068" width="37" height="23" x="361.4377835762713" y="105.95322447307002" fill="#ffffff"></rect><text id="SvgjsText1069" font-family="微软雅黑" text-anchor="middle" font-size="18px" width="37px" fill="#323232" font-weight="700" align="top" lineHeight="23px" anchor="middle" family="微软雅黑" size="18px" weight="700" font-style="" opacity="1" y="101.70322447307002" transform="rotate(0)"><tspan id="SvgjsTspan1070" dy="22" x="379.9377835762713"><tspan id="SvgjsTspan1071" style="text-decoration:;">push</tspan></tspan></text></g><g id="SvgjsG1072"><path id="SvgjsPath1073" d="M200.83317529821556 54.98698953939774C 150.90468750000002 54.75 150.90468750000002 182 198.307243573576 181.14683765816812" stroke="#323232" stroke-width="2" fill="none" marker-end="url(#SvgjsMarker1074)"></path><rect id="SvgjsRect1076" width="83" height="23" x="121.57106798397396" y="106.79797839969574" fill="#ffffff"></rect><text id="SvgjsText1077" font-family="微软雅黑" text-anchor="middle" font-size="18px" width="83px" fill="#323232" font-weight="700" align="top" lineHeight="23px" anchor="middle" family="微软雅黑" size="18px" weight="700" font-style="" opacity="1" y="102.54797839969574" transform="rotate(0)"><tspan id="SvgjsTspan1078" dy="22" x="163.07106798397396"><tspan id="SvgjsTspan1079" style="text-decoration:;">clone/fetch</tspan></tspan></text></g><g id="SvgjsG1080"><path id="SvgjsPath1081" d="M200.807025719232 45.06834450376513C 25.00468749999999 45 25.00468749999999 487 198.21310508923534 486.75395978644565" stroke="#323232" stroke-width="2" fill="none" marker-end="url(#SvgjsMarker1082)"></path><rect id="SvgjsRect1084" width="30" height="23" x="53.63103197605841" y="254.47778803627637" fill="#ffffff"></rect><text id="SvgjsText1085" font-family="微软雅黑" text-anchor="middle" font-size="18px" width="30px" fill="#323232" font-weight="700" align="top" lineHeight="23px" anchor="middle" family="微软雅黑" size="18px" weight="700" font-style="" opacity="1" y="250.22778803627637" transform="rotate(0)"><tspan id="SvgjsTspan1086" dy="22" x="68.63103197605841"><tspan id="SvgjsTspan1087" style="text-decoration:;">pull</tspan></tspan></text></g></svg>