<svg id="SvgjsSvg3244" width="810" height="516" xmlns="http://www.w3.org/2000/svg" version="1.1" xmlns:xlink="http://www.w3.org/1999/xlink" xmlns:svgjs="http://svgjs.com/svgjs"><defs id="SvgjsDefs3245"><marker id="SvgjsMarker3344" markerWidth="14" markerHeight="10" refX="4" refY="5" viewBox="0 0 14 10" orient="auto" markerUnits="userSpaceOnUse" stroke-dasharray="0,0"><path id="SvgjsPath3345" d="M14,0 L0,5 L14,10 L14,0" fill="#323232" stroke="#323232" stroke-width="1"></path></marker><marker id="SvgjsMarker3348" markerWidth="14" markerHeight="10" refX="10" refY="5" viewBox="0 0 14 10" orient="auto" markerUnits="userSpaceOnUse" stroke-dasharray="0,0"><path id="SvgjsPath3349" d="M0,0 L14,5 L0,10 L0,0" fill="#323232" stroke="#323232" stroke-width="1"></path></marker><marker id="SvgjsMarker3352" markerWidth="14" markerHeight="10" refX="10" refY="5" viewBox="0 0 14 10" orient="auto" markerUnits="userSpaceOnUse" stroke-dasharray="0,0"><path id="SvgjsPath3353" d="M0,0 L14,5 L0,10 L0,0" fill="#323232" stroke="#323232" stroke-width="1"></path></marker><marker id="SvgjsMarker3356" markerWidth="14" markerHeight="10" refX="10" refY="5" viewBox="0 0 14 10" orient="auto" markerUnits="userSpaceOnUse" stroke-dasharray="0,0"><path id="SvgjsPath3357" d="M0,0 L14,5 L0,10 L0,0" fill="#323232" stroke="#323232" stroke-width="1"></path></marker><marker id="SvgjsMarker3360" markerWidth="14" markerHeight="10" refX="10" refY="5" viewBox="0 0 14 10" orient="auto" markerUnits="userSpaceOnUse" stroke-dasharray="0,0"><path id="SvgjsPath3361" d="M0,0 L14,5 L0,10 L0,0" fill="#323232" stroke="#323232" stroke-width="1"></path></marker><marker id="SvgjsMarker3364" markerWidth="14" markerHeight="10" refX="10" refY="5" viewBox="0 0 14 10" orient="auto" markerUnits="userSpaceOnUse" stroke-dasharray="0,0"><path id="SvgjsPath3365" d="M0,0 L14,5 L0,10 L0,0" fill="#323232" stroke="#323232" stroke-width="1"></path></marker><marker id="SvgjsMarker3368" markerWidth="14" markerHeight="10" refX="10" refY="5" viewBox="0 0 14 10" orient="auto" markerUnits="userSpaceOnUse" stroke-dasharray="0,0"><path id="SvgjsPath3369" d="M0,0 L14,5 L0,10 L0,0" fill="#323232" stroke="#323232" stroke-width="1"></path></marker><marker id="SvgjsMarker3372" markerWidth="14" markerHeight="10" refX="10" refY="5" viewBox="0 0 14 10" orient="auto" markerUnits="userSpaceOnUse" stroke-dasharray="0,0"><path id="SvgjsPath3373" d="M0,0 L14,5 L0,10 L0,0" fill="#323232" stroke="#323232" stroke-width="1"></path></marker><marker id="SvgjsMarker3386" markerWidth="14" markerHeight="10" refX="10" refY="5" viewBox="0 0 14 10" orient="auto" markerUnits="userSpaceOnUse" stroke-dasharray="0,0"><path id="SvgjsPath3387" d="M0,0 L14,5 L0,10 L0,0" fill="#323232" stroke="#323232" stroke-width="1"></path></marker></defs><g id="SvgjsG3246" transform="translate(25,431)"><path id="SvgjsPath3247" d="M 0 4Q 0 0 4 0L 56 0Q 60 0 60 4L 60 56Q 60 60 56 60L 4 60Q 0 60 0 56Z" stroke="rgba(50,50,50,1)" stroke-width="2" fill-opacity="1" fill="#fff9c4"></path><g id="SvgjsG3248"><text id="SvgjsText3249" font-family="微软雅黑" text-anchor="middle" font-size="20px" width="40px" fill="#323232" font-weight="400" align="middle" lineHeight="125%" anchor="middle" family="微软雅黑" size="20px" weight="400" font-style="" opacity="1" y="12" transform="rotate(0)"><tspan id="SvgjsTspan3250" dy="25" x="30"><tspan id="SvgjsTspan3251" style="text-decoration:;">A1</tspan></tspan></text></g></g><g id="SvgjsG3252" transform="translate(125,431)"><path id="SvgjsPath3253" d="M 0 4Q 0 0 4 0L 56 0Q 60 0 60 4L 60 56Q 60 60 56 60L 4 60Q 0 60 0 56Z" stroke="rgba(50,50,50,1)" stroke-width="2" fill-opacity="1" fill="#fff9c4"></path><g id="SvgjsG3254"><text id="SvgjsText3255" font-family="微软雅黑" text-anchor="middle" font-size="20px" width="40px" fill="#323232" font-weight="400" align="middle" lineHeight="125%" anchor="middle" family="微软雅黑" size="20px" weight="400" font-style="" opacity="1" y="12" transform="rotate(0)"><tspan id="SvgjsTspan3256" dy="25" x="30"><tspan id="SvgjsTspan3257" style="text-decoration:;">A2</tspan></tspan></text></g></g><g id="SvgjsG3258" transform="translate(225,431)"><path id="SvgjsPath3259" d="M 0 4Q 0 0 4 0L 56 0Q 60 0 60 4L 60 56Q 60 60 56 60L 4 60Q 0 60 0 56Z" stroke="rgba(50,50,50,1)" stroke-width="2" fill-opacity="1" fill="#fff9c4"></path><g id="SvgjsG3260"><text id="SvgjsText3261" font-family="微软雅黑" text-anchor="middle" font-size="20px" width="40px" fill="#323232" font-weight="400" align="middle" lineHeight="125%" anchor="middle" family="微软雅黑" size="20px" weight="400" font-style="" opacity="1" y="12" transform="rotate(0)"><tspan id="SvgjsTspan3262" dy="25" x="30"><tspan id="SvgjsTspan3263" style="text-decoration:;">A3</tspan></tspan></text></g></g><g id="SvgjsG3264" transform="translate(325,431)"><path id="SvgjsPath3265" d="M 0 4Q 0 0 4 0L 56 0Q 60 0 60 4L 60 56Q 60 60 56 60L 4 60Q 0 60 0 56Z" stroke="rgba(50,50,50,1)" stroke-width="2" fill-opacity="1" fill="#fff9c4"></path><g id="SvgjsG3266"><text id="SvgjsText3267" font-family="微软雅黑" text-anchor="middle" font-size="20px" width="40px" fill="#323232" font-weight="400" align="middle" lineHeight="125%" anchor="middle" family="微软雅黑" size="20px" weight="400" font-style="" opacity="1" y="12" transform="rotate(0)"><tspan id="SvgjsTspan3268" dy="25" x="30"><tspan id="SvgjsTspan3269" style="text-decoration:;">A4</tspan></tspan></text></g></g><g id="SvgjsG3270" transform="translate(425,431)"><path id="SvgjsPath3271" d="M 0 4Q 0 0 4 0L 56 0Q 60 0 60 4L 60 56Q 60 60 56 60L 4 60Q 0 60 0 56Z" stroke="rgba(50,50,50,1)" stroke-width="2" fill-opacity="1" fill="#fff9c4"></path><g id="SvgjsG3272"><text id="SvgjsText3273" font-family="微软雅黑" text-anchor="middle" font-size="20px" width="40px" fill="#323232" font-weight="400" align="middle" lineHeight="125%" anchor="middle" family="微软雅黑" size="20px" weight="400" font-style="" opacity="1" y="12" transform="rotate(0)"><tspan id="SvgjsTspan3274" dy="25" x="30"><tspan id="SvgjsTspan3275" style="text-decoration:;">A5</tspan></tspan></text></g></g><g id="SvgjsG3276" transform="translate(525,431)"><path id="SvgjsPath3277" d="M 0 4Q 0 0 4 0L 56 0Q 60 0 60 4L 60 56Q 60 60 56 60L 4 60Q 0 60 0 56Z" stroke="rgba(50,50,50,1)" stroke-width="2" fill-opacity="1" fill="#ffb74d"></path><g id="SvgjsG3278"><text id="SvgjsText3279" font-family="微软雅黑" text-anchor="middle" font-size="20px" width="40px" fill="#323232" font-weight="400" align="middle" lineHeight="125%" anchor="middle" family="微软雅黑" size="20px" weight="400" font-style="" opacity="1" y="12" transform="rotate(0)"><tspan id="SvgjsTspan3280" dy="25" x="30"><tspan id="SvgjsTspan3281" style="text-decoration:;">A6</tspan></tspan></text></g></g><g id="SvgjsG3282" transform="translate(625,431)"><path id="SvgjsPath3283" d="M 0 4Q 0 0 4 0L 56 0Q 60 0 60 4L 60 56Q 60 60 56 60L 4 60Q 0 60 0 56Z" stroke="rgba(50,50,50,1)" stroke-width="2" fill-opacity="1" fill="#fff9c4"></path><g id="SvgjsG3284"><text id="SvgjsText3285" font-family="微软雅黑" text-anchor="middle" font-size="20px" width="40px" fill="#323232" font-weight="400" align="middle" lineHeight="125%" anchor="middle" family="微软雅黑" size="20px" weight="400" font-style="" opacity="1" y="12" transform="rotate(0)"><tspan id="SvgjsTspan3286" dy="25" x="30"><tspan id="SvgjsTspan3287" style="text-decoration:;">A7</tspan></tspan></text></g></g><g id="SvgjsG3288" transform="translate(725,431)"><path id="SvgjsPath3289" d="M 0 4Q 0 0 4 0L 56 0Q 60 0 60 4L 60 56Q 60 60 56 60L 4 60Q 0 60 0 56Z" stroke="rgba(50,50,50,1)" stroke-width="2" fill-opacity="1" fill="#fff9c4"></path><g id="SvgjsG3290"><text id="SvgjsText3291" font-family="微软雅黑" text-anchor="middle" font-size="20px" width="40px" fill="#323232" font-weight="400" align="middle" lineHeight="125%" anchor="middle" family="微软雅黑" size="20px" weight="400" font-style="" opacity="1" y="12" transform="rotate(0)"><tspan id="SvgjsTspan3292" dy="25" x="30"><tspan id="SvgjsTspan3293" style="text-decoration:;">A8</tspan></tspan></text></g></g><g id="SvgjsG3294" transform="translate(25,330)"><path id="SvgjsPath3295" d="M 0 30C 0 -10 60 -10 60 30C 60 70 0 70 0 30Z" stroke="rgba(50,50,50,1)" stroke-width="2" fill-opacity="1" fill="#c8e6c9"></path><g id="SvgjsG3296"><text id="SvgjsText3297" font-family="微软雅黑" text-anchor="middle" font-size="20px" width="40px" fill="#323232" font-weight="400" align="middle" lineHeight="125%" anchor="middle" family="微软雅黑" size="20px" weight="400" font-style="" opacity="1" y="12" transform="rotate(0)"><tspan id="SvgjsTspan3298" dy="25" x="30"><tspan id="SvgjsTspan3299" style="text-decoration:;">C1</tspan></tspan></text></g></g><g id="SvgjsG3300" transform="translate(225,330)"><path id="SvgjsPath3301" d="M 0 30C 0 -10 60 -10 60 30C 60 70 0 70 0 30Z" stroke="rgba(50,50,50,1)" stroke-width="2" fill-opacity="1" fill="#c8e6c9"></path><g id="SvgjsG3302"><text id="SvgjsText3303" font-family="微软雅黑" text-anchor="middle" font-size="20px" width="40px" fill="#323232" font-weight="400" align="middle" lineHeight="125%" anchor="middle" family="微软雅黑" size="20px" weight="400" font-style="" opacity="1" y="12" transform="rotate(0)"><tspan id="SvgjsTspan3304" dy="25" x="30"><tspan id="SvgjsTspan3305" style="text-decoration:;">C3</tspan></tspan></text></g></g><g id="SvgjsG3306" transform="translate(425,330)"><path id="SvgjsPath3307" d="M 0 30C 0 -10 60 -10 60 30C 60 70 0 70 0 30Z" stroke="rgba(50,50,50,1)" stroke-width="2" fill-opacity="1" fill="#c8e6c9"></path><g id="SvgjsG3308"><text id="SvgjsText3309" font-family="微软雅黑" text-anchor="middle" font-size="20px" width="40px" fill="#323232" font-weight="400" align="middle" lineHeight="125%" anchor="middle" family="微软雅黑" size="20px" weight="400" font-style="" opacity="1" y="12" transform="rotate(0)"><tspan id="SvgjsTspan3310" dy="25" x="30"><tspan id="SvgjsTspan3311" style="text-decoration:;">C5</tspan></tspan></text></g></g><g id="SvgjsG3312" transform="translate(625,330)"><path id="SvgjsPath3313" d="M 0 30C 0 -10 60 -10 60 30C 60 70 0 70 0 30Z" stroke="rgba(50,50,50,1)" stroke-width="2" fill-opacity="1" fill="#c8e6c9"></path><g id="SvgjsG3314"><text id="SvgjsText3315" font-family="微软雅黑" text-anchor="middle" font-size="20px" width="40px" fill="#323232" font-weight="400" align="middle" lineHeight="125%" anchor="middle" family="微软雅黑" size="20px" weight="400" font-style="" opacity="1" y="12" transform="rotate(0)"><tspan id="SvgjsTspan3316" dy="25" x="30"><tspan id="SvgjsTspan3317" style="text-decoration:;">C7</tspan></tspan></text></g></g><g id="SvgjsG3318" transform="translate(125,224)"><path id="SvgjsPath3319" d="M 0 30C 0 -10 60 -10 60 30C 60 70 0 70 0 30Z" stroke="rgba(50,50,50,1)" stroke-width="2" fill-opacity="1" fill="#c8e6c9"></path><g id="SvgjsG3320"><text id="SvgjsText3321" font-family="微软雅黑" text-anchor="middle" font-size="20px" width="40px" fill="#323232" font-weight="400" align="middle" lineHeight="125%" anchor="middle" family="微软雅黑" size="20px" weight="400" font-style="" opacity="1" y="12" transform="rotate(0)"><tspan id="SvgjsTspan3322" dy="25" x="30"><tspan id="SvgjsTspan3323" style="text-decoration:;">C2</tspan></tspan></text></g></g><g id="SvgjsG3324" transform="translate(525,224)"><path id="SvgjsPath3325" d="M 0 30C 0 -10 60 -10 60 30C 60 70 0 70 0 30Z" stroke="rgba(50,50,50,1)" stroke-width="2" fill-opacity="1" fill="#4caf50"></path><g id="SvgjsG3326"><text id="SvgjsText3327" font-family="微软雅黑" text-anchor="middle" font-size="20px" width="40px" fill="#323232" font-weight="400" align="middle" lineHeight="125%" anchor="middle" family="微软雅黑" size="20px" weight="400" font-style="" opacity="1" y="12" transform="rotate(0)"><tspan id="SvgjsTspan3328" dy="25" x="30"><tspan id="SvgjsTspan3329" style="text-decoration:;">C6</tspan></tspan></text></g></g><g id="SvgjsG3330" transform="translate(325,123)"><path id="SvgjsPath3331" d="M 0 30C 0 -10 60 -10 60 30C 60 70 0 70 0 30Z" stroke="rgba(50,50,50,1)" stroke-width="2" fill-opacity="1" fill="#c8e6c9"></path><g id="SvgjsG3332"><text id="SvgjsText3333" font-family="微软雅黑" text-anchor="middle" font-size="20px" width="40px" fill="#323232" font-weight="400" align="middle" lineHeight="125%" anchor="middle" family="微软雅黑" size="20px" weight="400" font-style="" opacity="1" y="12" transform="rotate(0)"><tspan id="SvgjsTspan3334" dy="25" x="30"><tspan id="SvgjsTspan3335" style="text-decoration:;">C4</tspan></tspan></text></g></g><g id="SvgjsG3336" transform="translate(725,25)"><path id="SvgjsPath3337" d="M 0 30C 0 -10 60 -10 60 30C 60 70 0 70 0 30Z" stroke="rgba(50,50,50,1)" stroke-width="2" fill-opacity="1" fill="#4caf50"></path><g id="SvgjsG3338"><text id="SvgjsText3339" font-family="微软雅黑" text-anchor="middle" font-size="20px" width="40px" fill="#323232" font-weight="400" align="middle" lineHeight="125%" anchor="middle" family="微软雅黑" size="20px" weight="400" font-style="" opacity="1" y="12" transform="rotate(0)"><tspan id="SvgjsTspan3340" dy="25" x="30"><tspan id="SvgjsTspan3341" style="text-decoration:;">C8</tspan></tspan></text></g></g><g id="SvgjsG3342"><path id="SvgjsPath3343" d="M55 393.6L55 430" stroke="#323232" stroke-width="2" fill="none" marker-start="url(#SvgjsMarker3344)"></path></g><g id="SvgjsG3346"><path id="SvgjsPath3347" d="M155 430L155 287.6" stroke="#323232" stroke-width="2" fill="none" marker-end="url(#SvgjsMarker3348)"></path></g><g id="SvgjsG3350"><path id="SvgjsPath3351" d="M255 430L255 393.6" stroke="#323232" stroke-width="2" fill="none" marker-end="url(#SvgjsMarker3352)"></path></g><g id="SvgjsG3354"><path id="SvgjsPath3355" d="M355 430L355 186.60000000000002" stroke="#323232" stroke-width="2" fill="none" marker-end="url(#SvgjsMarker3356)"></path></g><g id="SvgjsG3358"><path id="SvgjsPath3359" d="M455 430L455 393.6" stroke="#323232" stroke-width="2" fill="none" marker-end="url(#SvgjsMarker3360)"></path></g><g id="SvgjsG3362"><path id="SvgjsPath3363" d="M555 430L555 287.6" stroke-dasharray="8,5" stroke="#323232" stroke-width="2" fill="none" marker-end="url(#SvgjsMarker3364)"></path></g><g id="SvgjsG3366"><path id="SvgjsPath3367" d="M655 430L655 393.6" stroke="#323232" stroke-width="2" fill="none" marker-end="url(#SvgjsMarker3368)"></path></g><g id="SvgjsG3370"><path id="SvgjsPath3371" d="M755 430L755 88.6" stroke="#323232" stroke-width="2" fill="none" marker-end="url(#SvgjsMarker3372)"></path></g><g id="SvgjsG3374"><path id="SvgjsPath3375" d="M55.90849045267856 329.58209439176784L154.09150954732144 284.41790560823216" stroke="#323232" stroke-width="2" fill="none"></path></g><g id="SvgjsG3376"><path id="SvgjsPath3377" d="M155.9796274156859 223.7991763797844L354.02037258431403 183.2008236202156" stroke="#323232" stroke-width="2" fill="none"></path></g><g id="SvgjsG3378"><path id="SvgjsPath3379" d="M255.562463858464 329.17317812805794L354.43753614153604 183.82682187194206" stroke="#323232" stroke-width="2" fill="none"></path></g><g id="SvgjsG3380"><path id="SvgjsPath3381" d="M455.9084904526786 329.58209439176784L554.0915095473214 284.41790560823216" stroke="#323232" stroke-width="2" fill="none"></path></g><g id="SvgjsG3382"><path id="SvgjsPath3383" d="M655.3778969974267 329.0741523563048L754.6221030025733 85.92584764369519" stroke="#323232" stroke-width="2" fill="none"></path></g><g id="SvgjsG3384"><path id="SvgjsPath3385" d="M555.821156176575 223.42929645728037L752.04383776433 87.05453275379065" stroke-dasharray="8,5" stroke="#323232" stroke-width="2" fill="none" marker-end="url(#SvgjsMarker3386)"></path></g><g id="SvgjsG3388"><path id="SvgjsPath3389" d="M355.9955178160676 122.90542580747359L754.0044821839324 85.09457419252641" stroke="#323232" stroke-width="2" fill="none"></path></g></svg>