<svg id="SvgjsSvg2670" width="677.5" height="519" xmlns="http://www.w3.org/2000/svg" version="1.1" xmlns:xlink="http://www.w3.org/1999/xlink" xmlns:svgjs="http://svgjs.com/svgjs"><defs id="SvgjsDefs2671"><marker id="SvgjsMarker2698" markerWidth="14" markerHeight="10" refX="10" refY="5" viewBox="0 0 14 10" orient="auto" markerUnits="userSpaceOnUse" stroke-dasharray="0,0"><path id="SvgjsPath2699" d="M0,0 L14,5 L0,10 L0,0" fill="#323232" stroke="#323232" stroke-width="1"></path></marker><marker id="SvgjsMarker2702" markerWidth="14" markerHeight="10" refX="10" refY="5" viewBox="0 0 14 10" orient="auto" markerUnits="userSpaceOnUse" stroke-dasharray="0,0"><path id="SvgjsPath2703" d="M0,0 L14,5 L0,10 L0,0" fill="#323232" stroke="#323232" stroke-width="1"></path></marker><marker id="SvgjsMarker2706" markerWidth="14" markerHeight="10" refX="10" refY="5" viewBox="0 0 14 10" orient="auto" markerUnits="userSpaceOnUse" stroke-dasharray="0,0"><path id="SvgjsPath2707" d="M0,0 L14,5 L0,10 L0,0" fill="#323232" stroke="#323232" stroke-width="1"></path></marker><marker id="SvgjsMarker2734" markerWidth="14" markerHeight="10" refX="10" refY="5" viewBox="0 0 14 10" orient="auto" markerUnits="userSpaceOnUse" stroke-dasharray="0,0"><path id="SvgjsPath2735" d="M0,0 L14,5 L0,10 L0,0" fill="#323232" stroke="#323232" stroke-width="1"></path></marker><marker id="SvgjsMarker2738" markerWidth="14" markerHeight="10" refX="10" refY="5" viewBox="0 0 14 10" orient="auto" markerUnits="userSpaceOnUse" stroke-dasharray="0,0"><path id="SvgjsPath2739" d="M0,0 L14,5 L0,10 L0,0" fill="#323232" stroke="#323232" stroke-width="1"></path></marker><marker id="SvgjsMarker2742" markerWidth="14" markerHeight="10" refX="10" refY="5" viewBox="0 0 14 10" orient="auto" markerUnits="userSpaceOnUse" stroke-dasharray="0,0"><path id="SvgjsPath2743" d="M0,0 L14,5 L0,10 L0,0" fill="#323232" stroke="#323232" stroke-width="1"></path></marker></defs><g id="SvgjsG2672" transform="translate(172,373)"><path id="SvgjsPath2673" d="M 0 30C 0 -10 60 -10 60 30C 60 70 0 70 0 30Z" stroke="rgba(50,50,50,1)" stroke-width="2" fill-opacity="1" fill="#c8e6c9"></path><g id="SvgjsG2674"><text id="SvgjsText2675" font-family="微软雅黑" text-anchor="middle" font-size="20px" width="40px" fill="#323232" font-weight="400" align="middle" lineHeight="125%" anchor="middle" family="微软雅黑" size="20px" weight="400" font-style="" opacity="1" y="12" transform="rotate(0)"><tspan id="SvgjsTspan2676" dy="25" x="30"><tspan id="SvgjsTspan2677" style="text-decoration:;">A</tspan></tspan></text></g></g><g id="SvgjsG2678" transform="translate(172,273)"><path id="SvgjsPath2679" d="M 0 30C 0 -10 60 -10 60 30C 60 70 0 70 0 30Z" stroke="rgba(50,50,50,1)" stroke-width="2" fill-opacity="1" fill="#c8e6c9"></path><g id="SvgjsG2680"><text id="SvgjsText2681" font-family="微软雅黑" text-anchor="middle" font-size="20px" width="40px" fill="#323232" font-weight="400" align="middle" lineHeight="125%" anchor="middle" family="微软雅黑" size="20px" weight="400" font-style="" opacity="1" y="12" transform="rotate(0)"><tspan id="SvgjsTspan2682" dy="25" x="30"><tspan id="SvgjsTspan2683" style="text-decoration:;">B</tspan></tspan></text></g></g><g id="SvgjsG2684" transform="translate(172,173)"><path id="SvgjsPath2685" d="M 0 30C 0 -10 60 -10 60 30C 60 70 0 70 0 30Z" stroke="rgba(50,50,50,1)" stroke-width="2" fill-opacity="1" fill="#c8e6c9"></path><g id="SvgjsG2686"><text id="SvgjsText2687" font-family="微软雅黑" text-anchor="middle" font-size="20px" width="40px" fill="#323232" font-weight="400" align="middle" lineHeight="125%" anchor="middle" family="微软雅黑" size="20px" weight="400" font-style="" opacity="1" y="12" transform="rotate(0)"><tspan id="SvgjsTspan2688" dy="25" x="30"><tspan id="SvgjsTspan2689" style="text-decoration:;">C</tspan></tspan></text></g></g><g id="SvgjsG2690" transform="translate(162,25)"><path id="SvgjsPath2691" d="M 0 40C 0 -13.333333333333334 80 -13.333333333333334 80 40C 80 93.33333333333333 0 93.33333333333333 0 40Z" stroke="rgba(50,50,50,1)" stroke-width="2" fill-opacity="1" fill="#81c784"></path><g id="SvgjsG2692"><text id="SvgjsText2693" font-family="微软雅黑" text-anchor="middle" font-size="20px" width="60px" fill="#323232" font-weight="400" align="middle" lineHeight="125%" anchor="middle" family="微软雅黑" size="20px" weight="400" font-style="" opacity="1" y="22" transform="rotate(0)"><tspan id="SvgjsTspan2694" dy="25" x="40"><tspan id="SvgjsTspan2695" style="text-decoration:;">D</tspan></tspan></text></g></g><g id="SvgjsG2696"><path id="SvgjsPath2697" d="M202 372L202 353L202 353L202 336.6" stroke="#323232" stroke-width="2" fill="none" marker-end="url(#SvgjsMarker2698)"></path></g><g id="SvgjsG2700"><path id="SvgjsPath2701" d="M202 272L202 253L202 253L202 236.60000000000002" stroke="#323232" stroke-width="2" fill="none" marker-end="url(#SvgjsMarker2702)"></path></g><g id="SvgjsG2704"><path id="SvgjsPath2705" d="M202 172L202 139L202 139L202 108.60000000000002" stroke="#323232" stroke-width="2" fill="none" marker-end="url(#SvgjsMarker2706)"></path></g><g id="SvgjsG2708" transform="translate(547,273)"><path id="SvgjsPath2709" d="M 0 30C 0 -10 60 -10 60 30C 60 70 0 70 0 30Z" stroke="rgba(50,50,50,1)" stroke-width="2" fill-opacity="1" fill="#c8e6c9"></path><g id="SvgjsG2710"><text id="SvgjsText2711" font-family="微软雅黑" text-anchor="middle" font-size="20px" width="40px" fill="#323232" font-weight="400" align="middle" lineHeight="125%" anchor="middle" family="微软雅黑" size="20px" weight="400" font-style="" opacity="1" y="12" transform="rotate(0)"><tspan id="SvgjsTspan2712" dy="25" x="30"><tspan id="SvgjsTspan2713" style="text-decoration:;">C</tspan></tspan></text></g></g><g id="SvgjsG2714" transform="translate(457,273)"><path id="SvgjsPath2715" d="M 0 30C 0 -10 60 -10 60 30C 60 70 0 70 0 30Z" stroke="rgba(50,50,50,1)" stroke-width="2" fill-opacity="1" fill="#c8e6c9"></path><g id="SvgjsG2716"><text id="SvgjsText2717" font-family="微软雅黑" text-anchor="middle" font-size="20px" width="40px" fill="#323232" font-weight="400" align="middle" lineHeight="125%" anchor="middle" family="微软雅黑" size="20px" weight="400" font-style="" opacity="1" y="12" transform="rotate(0)"><tspan id="SvgjsTspan2718" dy="25" x="30"><tspan id="SvgjsTspan2719" style="text-decoration:;">B</tspan></tspan></text></g></g><g id="SvgjsG2720" transform="translate(367,273)"><path id="SvgjsPath2721" d="M 0 30C 0 -10 60 -10 60 30C 60 70 0 70 0 30Z" stroke="rgba(50,50,50,1)" stroke-width="2" fill-opacity="1" fill="#c8e6c9"></path><g id="SvgjsG2722"><text id="SvgjsText2723" font-family="微软雅黑" text-anchor="middle" font-size="20px" width="40px" fill="#323232" font-weight="400" align="middle" lineHeight="125%" anchor="middle" family="微软雅黑" size="20px" weight="400" font-style="" opacity="1" y="12" transform="rotate(0)"><tspan id="SvgjsTspan2724" dy="25" x="30"><tspan id="SvgjsTspan2725" style="text-decoration:;">A</tspan></tspan></text></g></g><g id="SvgjsG2726" transform="translate(447,25)"><path id="SvgjsPath2727" d="M 0 40C 0 -13.333333333333334 80 -13.333333333333334 80 40C 80 93.33333333333333 0 93.33333333333333 0 40Z" stroke="rgba(50,50,50,1)" stroke-width="2" fill-opacity="1" fill="#81c784"></path><g id="SvgjsG2728"><text id="SvgjsText2729" font-family="微软雅黑" text-anchor="middle" font-size="20px" width="60px" fill="#323232" font-weight="400" align="middle" lineHeight="125%" anchor="middle" family="微软雅黑" size="20px" weight="400" font-style="" opacity="1" y="22" transform="rotate(0)"><tspan id="SvgjsTspan2730" dy="25" x="40"><tspan id="SvgjsTspan2731" style="text-decoration:;">D</tspan></tspan></text></g></g><g id="SvgjsG2732"><path id="SvgjsPath2733" d="M397.0788645438338 272.0031146586864C 398 183 493.64435507530754 180.94532602888233 487.0233696453786 108.59992414637793" stroke="#323232" stroke-width="2" fill="none" marker-end="url(#SvgjsMarker2734)"></path></g><g id="SvgjsG2736"><path id="SvgjsPath2737" d="M487 272L487 189L487 189L487 108.60000000000002" stroke="#323232" stroke-width="2" fill="none" marker-end="url(#SvgjsMarker2738)"></path></g><g id="SvgjsG2740"><path id="SvgjsPath2741" d="M576.9476946427684 272.0013688620893C 578 174 482 182 487.0549486523521 108.59958062079522" stroke="#323232" stroke-width="2" fill="none" marker-end="url(#SvgjsMarker2742)"></path></g><g id="SvgjsG2744" transform="translate(25,445)"><path id="SvgjsPath2745" d="M 0 0L 331 0L 331 49L 0 49Z" stroke="none" fill="none"></path><g id="SvgjsG2746"><text id="SvgjsText2747" font-family="微软雅黑" text-anchor="middle" font-size="18px" width="331px" fill="#323232" font-weight="400" align="middle" lineHeight="125%" anchor="middle" family="微软雅黑" size="18px" weight="400" font-style="" opacity="1" y="8.75" transform="rotate(0)"><tspan id="SvgjsTspan2748" dy="22" x="165.5"><tspan id="SvgjsTspan2749" style="text-decoration:;">P[A] = B,  </tspan><tspan id="SvgjsTspan2750" style="text-decoration:;font-size: inherit;">P[B] = C,  P[C] = D</tspan></tspan></text></g></g><g id="SvgjsG2751" transform="translate(321.5,355)"><path id="SvgjsPath2752" d="M 0 0L 331 0L 331 49L 0 49Z" stroke="none" fill="none"></path><g id="SvgjsG2753"><text id="SvgjsText2754" font-family="微软雅黑" text-anchor="middle" font-size="18px" width="331px" fill="#323232" font-weight="400" align="middle" lineHeight="125%" anchor="middle" family="微软雅黑" size="18px" weight="400" font-style="" opacity="1" y="8.75" transform="rotate(0)"><tspan id="SvgjsTspan2755" dy="22" x="165.5"><tspan id="SvgjsTspan2756" style="text-decoration:;">P[A] = D,  </tspan><tspan id="SvgjsTspan2757" style="text-decoration:;font-size: inherit;">P[B] = D,  P[C] = D</tspan></tspan></text></g></g></svg>