<svg id="SvgjsSvg1478" width="702" height="477" xmlns="http://www.w3.org/2000/svg" version="1.1" xmlns:xlink="http://www.w3.org/1999/xlink" xmlns:svgjs="http://svgjs.com/svgjs"><defs id="SvgjsDefs1479"></defs><g id="SvgjsG1480" transform="translate(324,25)"><path id="SvgjsPath1481" d="M 0 30C 0 -10 60 -10 60 30C 60 70 0 70 0 30Z" stroke="rgba(50,50,50,1)" stroke-width="2" fill-opacity="1" fill="#81c784"></path><g id="SvgjsG1482"><text id="SvgjsText1483" font-family="微软雅黑" text-anchor="middle" font-size="22px" width="40px" fill="#323232" font-weight="700" align="middle" lineHeight="125%" anchor="middle" family="微软雅黑" size="22px" weight="700" font-style="" opacity="1" y="10.25" transform="rotate(0)"><tspan id="SvgjsTspan1484" dy="27" x="30"><tspan id="SvgjsTspan1485" style="text-decoration:;">1</tspan></tspan></text></g></g><g id="SvgjsG1486" transform="translate(158,157)"><path id="SvgjsPath1487" d="M 0 30C 0 -10 60 -10 60 30C 60 70 0 70 0 30Z" stroke="rgba(50,50,50,1)" stroke-width="2" fill-opacity="1" fill="#81c784"></path><g id="SvgjsG1488"><text id="SvgjsText1489" font-family="微软雅黑" text-anchor="middle" font-size="22px" width="40px" fill="#323232" font-weight="700" align="middle" lineHeight="125%" anchor="middle" family="微软雅黑" size="22px" weight="700" font-style="" opacity="1" y="10.25" transform="rotate(0)"><tspan id="SvgjsTspan1490" dy="27" x="30"><tspan id="SvgjsTspan1491" style="text-decoration:;">-1</tspan></tspan></text></g></g><g id="SvgjsG1492" transform="translate(477,157)"><path id="SvgjsPath1493" d="M 0 30C 0 -10 60 -10 60 30C 60 70 0 70 0 30Z" stroke="rgba(50,50,50,1)" stroke-width="2" fill-opacity="1" fill="#81c784"></path><g id="SvgjsG1494"><text id="SvgjsText1495" font-family="微软雅黑" text-anchor="middle" font-size="22px" width="40px" fill="#323232" font-weight="700" align="middle" lineHeight="125%" anchor="middle" family="微软雅黑" size="22px" weight="700" font-style="" opacity="1" y="10.25" transform="rotate(0)"><tspan id="SvgjsTspan1496" dy="27" x="30"><tspan id="SvgjsTspan1497" style="text-decoration:;">-1</tspan></tspan></text></g></g><g id="SvgjsG1498" transform="translate(25,279)"><path id="SvgjsPath1499" d="M 0 30C 0 -10 60 -10 60 30C 60 70 0 70 0 30Z" stroke="rgba(50,50,50,1)" stroke-width="2" fill-opacity="1" fill="#81c784"></path><g id="SvgjsG1500"><text id="SvgjsText1501" font-family="微软雅黑" text-anchor="middle" font-size="22px" width="40px" fill="#323232" font-weight="700" align="middle" lineHeight="125%" anchor="middle" family="微软雅黑" size="22px" weight="700" font-style="" opacity="1" y="10.25" transform="rotate(0)"><tspan id="SvgjsTspan1502" dy="27" x="30"><tspan id="SvgjsTspan1503" style="text-decoration:;">0</tspan></tspan></text></g></g><g id="SvgjsG1504" transform="translate(293,279)"><path id="SvgjsPath1505" d="M 0 30C 0 -10 60 -10 60 30C 60 70 0 70 0 30Z" stroke="rgba(50,50,50,1)" stroke-width="2" fill-opacity="1" fill="#81c784"></path><g id="SvgjsG1506"><text id="SvgjsText1507" font-family="微软雅黑" text-anchor="middle" font-size="22px" width="40px" fill="#323232" font-weight="700" align="middle" lineHeight="125%" anchor="middle" family="微软雅黑" size="22px" weight="700" font-style="" opacity="1" y="10.25" transform="rotate(0)"><tspan id="SvgjsTspan1508" dy="27" x="30"><tspan id="SvgjsTspan1509" style="text-decoration:;">1</tspan></tspan></text></g></g><g id="SvgjsG1510" transform="translate(617,279)"><path id="SvgjsPath1511" d="M 0 30C 0 -10 60 -10 60 30C 60 70 0 70 0 30Z" stroke="rgba(50,50,50,1)" stroke-width="2" fill-opacity="1" fill="#81c784"></path><g id="SvgjsG1512"><text id="SvgjsText1513" font-family="微软雅黑" text-anchor="middle" font-size="22px" width="40px" fill="#323232" font-weight="700" align="middle" lineHeight="125%" anchor="middle" family="微软雅黑" size="22px" weight="700" font-style="" opacity="1" y="10.25" transform="rotate(0)"><tspan id="SvgjsTspan1514" dy="27" x="30"><tspan id="SvgjsTspan1515" style="text-decoration:;">0</tspan></tspan></text></g></g><g id="SvgjsG1516" transform="translate(180,392)"><path id="SvgjsPath1517" d="M 0 30C 0 -10 60 -10 60 30C 60 70 0 70 0 30Z" stroke="rgba(50,50,50,1)" stroke-width="2" fill-opacity="1" fill="#81c784"></path><g id="SvgjsG1518"><text id="SvgjsText1519" font-family="微软雅黑" text-anchor="middle" font-size="22px" width="40px" fill="#323232" font-weight="700" align="middle" lineHeight="125%" anchor="middle" family="微软雅黑" size="22px" weight="700" font-style="" opacity="1" y="10.25" transform="rotate(0)"><tspan id="SvgjsTspan1520" dy="27" x="30"><tspan id="SvgjsTspan1521" style="text-decoration:;">0</tspan></tspan></text></g></g><g id="SvgjsG1522"><path id="SvgjsPath1523" d="M353.92661166289724 85.99730344027147C 360.30805305228364 157.10137631619506 194.30805305228364 84.89862368380493 188.252265767481 156.03234201157784" stroke="#323232" stroke-width="2" fill="none"></path></g><g id="SvgjsG1524"><path id="SvgjsPath1525" d="M187.88831828561695 217.99374402874807C 193.1157377132775 275.47314962997075 60.115737713277525 220.52685037002925 55.28857768706192 278.0425435161168" stroke="#323232" stroke-width="2" fill="none"></path></g><g id="SvgjsG1526"><path id="SvgjsPath1527" d="M188.28681902943254 217.95798478294563C 193.1790168856537 276.1964338799063 328.17901688565377 219.80356612009373 322.8903244093844 278.0060325634996" stroke="#323232" stroke-width="2" fill="none"></path></g><g id="SvgjsG1528"><path id="SvgjsPath1529" d="M354.2607231629564 85.96541360685356C 359.8950278582679 152.38047674623743 512.8950278582679 89.61952325376255 506.9171971786726 156.00343404995945" stroke="#323232" stroke-width="2" fill="none"></path></g><g id="SvgjsG1530"><path id="SvgjsPath1531" d="M507.28246888784383 217.9592764603597C 512.3379174844263 278.01267603481637 652.3379174844263 217.98732396518363 646.8952524712809 278.00550115373255" stroke="#323232" stroke-width="2" fill="none"></path></g><g id="SvgjsG1532"><path id="SvgjsPath1533" d="M322.84993225053057 339.9886757155757C 327.35122808940946 388.73476464319435 214.35122808940946 342.26523535680565 210.32467349455231 391.05417384158864" stroke="#323232" stroke-width="2" fill="none"></path></g></svg>