<svg id="SvgjsSvg1058" width="545" height="229" xmlns="http://www.w3.org/2000/svg" version="1.1" xmlns:xlink="http://www.w3.org/1999/xlink" xmlns:svgjs="http://svgjs.com/svgjs"><defs id="SvgjsDefs1059"></defs><g id="SvgjsG1060" transform="translate(50,70)"><path id="SvgjsPath1061" d="M 0 4Q 0 0 4 0L 296 0Q 300 0 300 4L 300 56Q 300 60 296 60L 4 60Q 0 60 0 56Z" stroke="rgba(50,50,50,1)" stroke-width="2" fill-opacity="1" fill="#81c784"></path><g id="SvgjsG1062"><text id="SvgjsText1063" font-family="微软雅黑" text-anchor="middle" font-size="18px" width="280px" fill="#323232" font-weight="400" align="middle" lineHeight="125%" anchor="middle" family="微软雅黑" size="18px" weight="400" font-style="" opacity="1" y="14.25" transform="rotate(0)"><tspan id="SvgjsTspan1064" dy="22" x="150"><tspan id="SvgjsTspan1065" style="text-decoration:;">索引号</tspan></tspan></text></g></g><g id="SvgjsG1066" transform="translate(349,70)"><path id="SvgjsPath1067" d="M 0 4Q 0 0 4 0L 46 0Q 50 0 50 4L 50 56Q 50 60 46 60L 4 60Q 0 60 0 56Z" stroke="rgba(50,50,50,1)" stroke-width="2" fill-opacity="1" fill="#64b5f6"></path><g id="SvgjsG1068"><text id="SvgjsText1069" font-family="微软雅黑" text-anchor="middle" font-size="18px" width="30px" fill="#323232" font-weight="700" align="middle" lineHeight="125%" anchor="middle" family="微软雅黑" size="18px" weight="700" font-style="" opacity="1" y="14.25" transform="rotate(0)"><tspan id="SvgjsTspan1070" dy="22" x="25"><tspan id="SvgjsTspan1071" style="text-decoration:;">TI</tspan></tspan></text></g></g><g id="SvgjsG1072" transform="translate(398,70)"><path id="SvgjsPath1073" d="M 0 4Q 0 0 4 0L 96 0Q 100 0 100 4L 100 56Q 100 60 96 60L 4 60Q 0 60 0 56Z" stroke="rgba(50,50,50,1)" stroke-width="2" fill-opacity="1" fill="#e1bee7"></path><g id="SvgjsG1074"><text id="SvgjsText1075" font-family="微软雅黑" text-anchor="middle" font-size="18px" width="80px" fill="#323232" font-weight="700" align="middle" lineHeight="125%" anchor="middle" family="微软雅黑" size="18px" weight="700" font-style="" opacity="1" y="14.25" transform="rotate(0)"><tspan id="SvgjsTspan1076" dy="22" x="50"><tspan id="SvgjsTspan1077" style="text-decoration:;">RPL</tspan></tspan></text></g></g><g id="SvgjsG1078" transform="translate(25,25)"><path id="SvgjsPath1079" d="M 0 0L 46 0L 46 38L 0 38Z" stroke="none" fill="none"></path><g id="SvgjsG1080"><text id="SvgjsText1081" font-family="微软雅黑" text-anchor="middle" font-size="18px" width="46px" fill="#323232" font-weight="700" align="middle" lineHeight="125%" anchor="middle" family="微软雅黑" size="18px" weight="700" font-style="" opacity="1" y="3.25" transform="rotate(0)"><tspan id="SvgjsTspan1082" dy="22" x="23"><tspan id="SvgjsTspan1083" style="text-decoration:;">15</tspan></tspan></text></g></g><g id="SvgjsG1084" transform="translate(324,25)"><path id="SvgjsPath1085" d="M 0 0L 46 0L 46 38L 0 38Z" stroke="none" fill="none"></path><g id="SvgjsG1086"><text id="SvgjsText1087" font-family="微软雅黑" text-anchor="middle" font-size="18px" width="46px" fill="#323232" font-weight="700" align="middle" lineHeight="125%" anchor="middle" family="微软雅黑" size="18px" weight="700" font-style="" opacity="1" y="3.25" transform="rotate(0)"><tspan id="SvgjsTspan1088" dy="22" x="23"><tspan id="SvgjsTspan1089" style="text-decoration:;">3</tspan></tspan></text></g></g><g id="SvgjsG1090" transform="translate(375,25)"><path id="SvgjsPath1091" d="M 0 0L 46 0L 46 38L 0 38Z" stroke="none" fill="none"></path><g id="SvgjsG1092"><text id="SvgjsText1093" font-family="微软雅黑" text-anchor="middle" font-size="18px" width="46px" fill="#323232" font-weight="700" align="middle" lineHeight="125%" anchor="middle" family="微软雅黑" size="18px" weight="700" font-style="" opacity="1" y="3.25" transform="rotate(0)"><tspan id="SvgjsTspan1094" dy="22" x="23"><tspan id="SvgjsTspan1095" style="text-decoration:;">2</tspan></tspan></text></g></g><g id="SvgjsG1096" transform="translate(474,25)"><path id="SvgjsPath1097" d="M 0 0L 46 0L 46 38L 0 38Z" stroke="none" fill="none"></path><g id="SvgjsG1098"><text id="SvgjsText1099" font-family="微软雅黑" text-anchor="middle" font-size="18px" width="46px" fill="#323232" font-weight="700" align="middle" lineHeight="125%" anchor="middle" family="微软雅黑" size="18px" weight="700" font-style="" opacity="1" y="3.25" transform="rotate(0)"><tspan id="SvgjsTspan1100" dy="22" x="23"><tspan id="SvgjsTspan1101" style="text-decoration:;">1</tspan></tspan></text></g></g><g id="SvgjsG1102" transform="translate(150,161)"><path id="SvgjsPath1103" d="M 0 0L 280 0L 280 43L 0 43Z" stroke="none" fill="none"></path><g id="SvgjsG1104"><text id="SvgjsText1105" font-family="微软雅黑" text-anchor="middle" font-size="18px" width="280px" fill="#323232" font-weight="400" align="middle" lineHeight="125%" anchor="middle" family="微软雅黑" size="18px" weight="400" font-style="" opacity="1" y="-5.25" transform="rotate(0)"><tspan id="SvgjsTspan1106" dy="22" x="140"><tspan id="SvgjsTspan1107" style="text-decoration:;">TI = 表指示器</tspan></tspan><tspan id="SvgjsTspan1108" dy="22" x="140"><tspan id="SvgjsTspan1109" style="text-decoration:;">RPL = 请求者特权级</tspan></tspan></text></g></g></svg>