<svg id="SvgjsSvg1006" width="735" height="120" xmlns="http://www.w3.org/2000/svg" version="1.1" xmlns:xlink="http://www.w3.org/1999/xlink" xmlns:svgjs="http://svgjs.com/svgjs"><defs id="SvgjsDefs1007"><marker id="SvgjsMarker1026" markerWidth="14" markerHeight="10" refX="10" refY="5" viewBox="0 0 14 10" orient="auto" markerUnits="userSpaceOnUse" stroke-dasharray="0,0"><path id="SvgjsPath1027" d="M0,0 L14,5 L0,10 L0,0" fill="#323232" stroke="#323232" stroke-width="1"></path></marker><marker id="SvgjsMarker1034" markerWidth="14" markerHeight="10" refX="10" refY="5" viewBox="0 0 14 10" orient="auto" markerUnits="userSpaceOnUse" stroke-dasharray="0,0"><path id="SvgjsPath1035" d="M0,0 L14,5 L0,10 L0,0" fill="#323232" stroke="#323232" stroke-width="1"></path></marker><marker id="SvgjsMarker1042" markerWidth="14" markerHeight="10" refX="10" refY="5" viewBox="0 0 14 10" orient="auto" markerUnits="userSpaceOnUse" stroke-dasharray="0,0"><path id="SvgjsPath1043" d="M0,0 L14,5 L0,10 L0,0" fill="#323232" stroke="#323232" stroke-width="1"></path></marker></defs><g id="SvgjsG1008" transform="translate(158,25)"><path id="SvgjsPath1009" d="M 0 4Q 0 0 4 0L 150 0Q 154 0 154 4L 154 66Q 154 70 150 70L 4 70Q 0 70 0 66Z" stroke="rgba(50,50,50,1)" stroke-width="2" fill-opacity="1" fill="#81c784"></path><g id="SvgjsG1010"><text id="SvgjsText1011" font-family="微软雅黑" text-anchor="middle" font-size="18px" width="134px" fill="#323232" font-weight="400" align="middle" lineHeight="125%" anchor="middle" family="微软雅黑" size="18px" weight="400" font-style="" opacity="1" y="8.25" transform="rotate(0)"><tspan id="SvgjsTspan1012" dy="22" x="77"><tspan id="SvgjsTspan1013" style="text-decoration:;">分段单元</tspan></tspan><tspan id="SvgjsTspan1014" dy="22" x="77"><tspan id="SvgjsTspan1015" style="text-decoration:;">segmentation unit</tspan></tspan></text></g></g><g id="SvgjsG1016" transform="translate(432,25)"><path id="SvgjsPath1017" d="M 0 4Q 0 0 4 0L 150 0Q 154 0 154 4L 154 66Q 154 70 150 70L 4 70Q 0 70 0 66Z" stroke="rgba(50,50,50,1)" stroke-width="2" fill-opacity="1" fill="#64b5f6"></path><g id="SvgjsG1018"><text id="SvgjsText1019" font-family="微软雅黑" text-anchor="middle" font-size="18px" width="134px" fill="#323232" font-weight="400" align="middle" lineHeight="125%" anchor="middle" family="微软雅黑" size="18px" weight="400" font-style="" opacity="1" y="8.25" transform="rotate(0)"><tspan id="SvgjsTspan1020" dy="22" x="77"><tspan id="SvgjsTspan1021" style="text-decoration:;">分页单元</tspan></tspan><tspan id="SvgjsTspan1022" dy="22" x="77"><tspan id="SvgjsTspan1023" style="text-decoration:;">paging unit</tspan></tspan></text></g></g><g id="SvgjsG1024"><path id="SvgjsPath1025" d="M313 60L372 60L372 60L428.4 60" stroke="#323232" stroke-width="2" fill="none" marker-end="url(#SvgjsMarker1026)"></path><rect id="SvgjsRect1028" width="64" height="20" x="338.7" y="50" fill="#ffffff"></rect><text id="SvgjsText1029" font-family="微软雅黑" text-anchor="middle" font-size="16px" width="64px" fill="#323232" font-weight="400" align="top" lineHeight="20px" anchor="middle" family="微软雅黑" size="16px" weight="400" font-style="" opacity="1" y="46" transform="rotate(0)"><tspan id="SvgjsTspan1030" dy="20" x="370.7"><tspan id="SvgjsTspan1031" style="text-decoration:;">线性地址</tspan></tspan></text></g><g id="SvgjsG1032"><path id="SvgjsPath1033" d="M25 60L91.5 60L91.5 60L154.39999999999998 60" stroke="#323232" stroke-width="2" fill="none" marker-end="url(#SvgjsMarker1034)"></path><rect id="SvgjsRect1036" width="64" height="20" x="57.69999999999999" y="50" fill="#ffffff"></rect><text id="SvgjsText1037" font-family="微软雅黑" text-anchor="middle" font-size="16px" width="64px" fill="#323232" font-weight="400" align="top" lineHeight="20px" anchor="middle" family="微软雅黑" size="16px" weight="400" font-style="" opacity="1" y="46" transform="rotate(0)"><tspan id="SvgjsTspan1038" dy="20" x="89.69999999999999"><tspan id="SvgjsTspan1039" style="text-decoration:;">逻辑地址</tspan></tspan></text></g><g id="SvgjsG1040"><path id="SvgjsPath1041" d="M587 60L648 60L648 60L710 60" stroke="#323232" stroke-width="2" fill="none" marker-end="url(#SvgjsMarker1042)"></path><rect id="SvgjsRect1044" width="64" height="20" x="616.5" y="50" fill="#ffffff"></rect><text id="SvgjsText1045" font-family="微软雅黑" text-anchor="middle" font-size="16px" width="64px" fill="#323232" font-weight="400" align="top" lineHeight="20px" anchor="middle" family="微软雅黑" size="16px" weight="400" font-style="" opacity="1" y="46" transform="rotate(0)"><tspan id="SvgjsTspan1046" dy="20" x="648.5"><tspan id="SvgjsTspan1047" style="text-decoration:;">物理地址</tspan></tspan></text></g></svg>