<svg id="SvgjsSvg2002" width="1191" height="651" xmlns="http://www.w3.org/2000/svg" version="1.1" xmlns:xlink="http://www.w3.org/1999/xlink" xmlns:svgjs="http://svgjs.com/svgjs"><defs id="SvgjsDefs2003"><marker id="SvgjsMarker2024" markerWidth="14" markerHeight="10" refX="10" refY="5" viewBox="0 0 14 10" orient="auto" markerUnits="userSpaceOnUse" stroke-dasharray="0,0"><path id="SvgjsPath2025" d="M0,0 L14,5 L0,10 L0,0" fill="#323232" stroke="#323232" stroke-width="1"></path></marker><marker id="SvgjsMarker2028" markerWidth="14" markerHeight="10" refX="10" refY="5" viewBox="0 0 14 10" orient="auto" markerUnits="userSpaceOnUse" stroke-dasharray="0,0"><path id="SvgjsPath2029" d="M0,0 L14,5 L0,10 L0,0" fill="#323232" stroke="#323232" stroke-width="1"></path></marker><marker id="SvgjsMarker2044" markerWidth="14" markerHeight="10" refX="10" refY="5" viewBox="0 0 14 10" orient="auto" markerUnits="userSpaceOnUse" stroke-dasharray="0,0"><path id="SvgjsPath2045" d="M0,0 L14,5 L0,10 L0,0" fill="#323232" stroke="#323232" stroke-width="1"></path></marker><marker id="SvgjsMarker2048" markerWidth="14" markerHeight="10" refX="10" refY="5" viewBox="0 0 14 10" orient="auto" markerUnits="userSpaceOnUse" stroke-dasharray="0,0"><path id="SvgjsPath2049" d="M0,0 L14,5 L0,10 L0,0" fill="#323232" stroke="#323232" stroke-width="1"></path></marker><marker id="SvgjsMarker2066" markerWidth="14" markerHeight="10" refX="10" refY="5" viewBox="0 0 14 10" orient="auto" markerUnits="userSpaceOnUse" stroke-dasharray="0,0"><path id="SvgjsPath2067" d="M0,0 L14,5 L0,10 L0,0" fill="#323232" stroke="#323232" stroke-width="1"></path></marker><marker id="SvgjsMarker2140" markerWidth="14" markerHeight="10" refX="10" refY="5" viewBox="0 0 14 10" orient="auto" markerUnits="userSpaceOnUse" stroke-dasharray="0,0"><path id="SvgjsPath2141" d="M0,0 L14,5 L0,10 L0,0" fill="#323232" stroke="#323232" stroke-width="1"></path></marker><marker id="SvgjsMarker2152" markerWidth="14" markerHeight="10" refX="10" refY="5" viewBox="0 0 14 10" orient="auto" markerUnits="userSpaceOnUse" stroke-dasharray="0,0"><path id="SvgjsPath2153" d="M0,0 L14,5 L0,10 L0,0" fill="#323232" stroke="#323232" stroke-width="1"></path></marker><marker id="SvgjsMarker2168" markerWidth="14" markerHeight="10" refX="10" refY="5" viewBox="0 0 14 10" orient="auto" markerUnits="userSpaceOnUse" stroke-dasharray="0,0"><path id="SvgjsPath2169" d="M0,0 L14,5 L0,10 L0,0" fill="#323232" stroke="#323232" stroke-width="1"></path></marker></defs><g id="SvgjsG2004" transform="translate(621,25)"><path id="SvgjsPath2005" d="M 0 30C 0 -10 60 -10 60 30C 60 70 0 70 0 30Z" stroke="rgba(50,50,50,1)" stroke-width="2" fill-opacity="1" fill="#4caf50"></path><g id="SvgjsG2006"><text id="SvgjsText2007" font-family="微软雅黑" text-anchor="middle" font-size="16px" width="40px" fill="#323232" font-weight="700" align="middle" lineHeight="125%" anchor="middle" family="微软雅黑" size="16px" weight="700" font-style="" opacity="1" y="16" transform="rotate(0)"><tspan id="SvgjsTspan2008" dy="20" x="30"><tspan id="SvgjsTspan2009" style="text-decoration:;">[1,10]</tspan></tspan></text></g></g><g id="SvgjsG2010" transform="translate(381,209)"><path id="SvgjsPath2011" d="M 0 30C 0 -10 60 -10 60 30C 60 70 0 70 0 30Z" stroke="rgba(50,50,50,1)" stroke-width="2" fill-opacity="1" fill="#4caf50"></path><g id="SvgjsG2012"><text id="SvgjsText2013" font-family="微软雅黑" text-anchor="middle" font-size="16px" width="40px" fill="#323232" font-weight="700" align="middle" lineHeight="125%" anchor="middle" family="微软雅黑" size="16px" weight="700" font-style="" opacity="1" y="16" transform="rotate(0)"><tspan id="SvgjsTspan2014" dy="20" x="30"><tspan id="SvgjsTspan2015" style="text-decoration:;">[1,5]</tspan></tspan></text></g></g><g id="SvgjsG2016" transform="translate(860,209)"><path id="SvgjsPath2017" d="M 0 30C 0 -10 60 -10 60 30C 60 70 0 70 0 30Z" stroke="rgba(50,50,50,1)" stroke-width="2" fill-opacity="1" fill="#4caf50"></path><g id="SvgjsG2018"><text id="SvgjsText2019" font-family="微软雅黑" text-anchor="middle" font-size="16px" width="40px" fill="#323232" font-weight="700" align="middle" lineHeight="125%" anchor="middle" family="微软雅黑" size="16px" weight="700" font-style="" opacity="1" y="16" transform="rotate(0)"><tspan id="SvgjsTspan2020" dy="20" x="30"><tspan id="SvgjsTspan2021" style="text-decoration:;">[6,10]</tspan></tspan></text></g></g><g id="SvgjsG2022"><path id="SvgjsPath2023" d="M650.9864147491468 85.99990771622149C 660.417725484133 192.64509485668873 420.41772548413303 101.35490514331127 411.68992067392827 205.4667282210837" stroke-dasharray="8,5" stroke="#323232" stroke-width="2" fill="none" marker-end="url(#SvgjsMarker2024)"></path></g><g id="SvgjsG2026"><path id="SvgjsPath2027" d="M651.1918778651194 85.98141881216799C 660.3867665566966 192.2912326968522 899.3867665566966 101.7087673031478 889.9501691429854 205.40034489350865" stroke-dasharray="8,5" stroke="#323232" stroke-width="2" fill="none" marker-end="url(#SvgjsMarker2028)"></path></g><g id="SvgjsG2030" transform="translate(272,323)"><path id="SvgjsPath2031" d="M 0 30C 0 -10 60 -10 60 30C 60 70 0 70 0 30Z" stroke="rgba(50,50,50,1)" stroke-width="2" fill-opacity="1" fill="#4caf50"></path><g id="SvgjsG2032"><text id="SvgjsText2033" font-family="微软雅黑" text-anchor="middle" font-size="16px" width="40px" fill="#323232" font-weight="700" align="middle" lineHeight="125%" anchor="middle" family="微软雅黑" size="16px" weight="700" font-style="" opacity="1" y="16" transform="rotate(0)"><tspan id="SvgjsTspan2034" dy="20" x="30"><tspan id="SvgjsTspan2035" style="text-decoration:;">[1,3]</tspan></tspan></text></g></g><g id="SvgjsG2036" transform="translate(501,329)"><path id="SvgjsPath2037" d="M 0 30C 0 -10 60 -10 60 30C 60 70 0 70 0 30Z" stroke="rgba(50,50,50,1)" stroke-width="2" fill-opacity="1" fill="#ffb74d"></path><g id="SvgjsG2038"><text id="SvgjsText2039" font-family="微软雅黑" text-anchor="middle" font-size="16px" width="40px" fill="#323232" font-weight="700" align="middle" lineHeight="125%" anchor="middle" family="微软雅黑" size="16px" weight="700" font-style="" opacity="1" y="16" transform="rotate(0)"><tspan id="SvgjsTspan2040" dy="20" x="30"><tspan id="SvgjsTspan2041" style="text-decoration:;">[4,5]</tspan></tspan></text></g></g><g id="SvgjsG2042"><path id="SvgjsPath2043" d="M410.8464452240061 269.98814013721204C 415.2407516190256 317.47201280848293 306.2407516190257 274.52798719151707 303.17802328634275 319.59819736950624" stroke-dasharray="8,5" stroke="#323232" stroke-width="2" fill="none" marker-end="url(#SvgjsMarker2044)"></path></g><g id="SvgjsG2046"><path id="SvgjsPath2047" d="M411.3037433842509 269.952753880351C 415.677267969918 322.46141753019253 535.6772679699179 275.53858246980747 530.5373210437238 325.42985599962424" stroke-dasharray="8,5" stroke="#323232" stroke-width="2" fill="none" marker-end="url(#SvgjsMarker2048)"></path></g><g id="SvgjsG2050" transform="translate(199,446)"><path id="SvgjsPath2051" d="M 0 30C 0 -10 60 -10 60 30C 60 70 0 70 0 30Z" stroke="rgba(50,50,50,1)" stroke-width="2" fill-opacity="1" fill="#c8e6c9"></path><g id="SvgjsG2052"><text id="SvgjsText2053" font-family="微软雅黑" text-anchor="middle" font-size="16px" width="40px" fill="#323232" font-weight="700" align="middle" lineHeight="125%" anchor="middle" family="微软雅黑" size="16px" weight="700" font-style="" opacity="1" y="16" transform="rotate(0)"><tspan id="SvgjsTspan2054" dy="20" x="30"><tspan id="SvgjsTspan2055" style="text-decoration:;font-size: inherit;">[1,2]</tspan></tspan></text></g></g><g id="SvgjsG2056" transform="translate(332,446)"><path id="SvgjsPath2057" d="M 0 30C 0 -10 60 -10 60 30C 60 70 0 70 0 30Z" stroke="rgba(50,50,50,1)" stroke-width="2" fill-opacity="1" fill="#ffb74d"></path><g id="SvgjsG2058"><text id="SvgjsText2059" font-family="微软雅黑" text-anchor="middle" font-size="16px" width="40px" fill="#323232" font-weight="700" align="middle" lineHeight="125%" anchor="middle" family="微软雅黑" size="16px" weight="700" font-style="" opacity="1" y="16" transform="rotate(0)"><tspan id="SvgjsTspan2060" dy="20" x="30"><tspan id="SvgjsTspan2061" style="text-decoration:;">[3,3]</tspan></tspan></text></g></g><g id="SvgjsG2062"><path id="SvgjsPath2063" d="M301.83625319774814 383.9865023997702C 305.361636654875 421.4236827881009 232.36163665487499 407.5763172118991 229.32811522791792 445.0553622931471" stroke="#323232" stroke-width="2" fill="none"></path></g><g id="SvgjsG2064"><path id="SvgjsPath2065" d="M302.32444618216874 383.9459041573416C 305.0330198476185 417.6675754935927 365.0330198476185 411.3324245064073 361.4107171160966 442.44855723927043" stroke-dasharray="8,5" stroke="#323232" stroke-width="2" fill="none" marker-end="url(#SvgjsMarker2066)"></path></g><g id="SvgjsG2068" transform="translate(139,566)"><path id="SvgjsPath2069" d="M 0 30C 0 -10 60 -10 60 30C 60 70 0 70 0 30Z" stroke="rgba(50,50,50,1)" stroke-width="2" fill-opacity="1" fill="#c8e6c9"></path><g id="SvgjsG2070"><text id="SvgjsText2071" font-family="微软雅黑" text-anchor="middle" font-size="16px" width="40px" fill="#323232" font-weight="700" align="middle" lineHeight="125%" anchor="middle" family="微软雅黑" size="16px" weight="700" font-style="" opacity="1" y="16" transform="rotate(0)"><tspan id="SvgjsTspan2072" dy="20" x="30"><tspan id="SvgjsTspan2073" style="text-decoration:;">[1,1]</tspan></tspan></text></g></g><g id="SvgjsG2074"><path id="SvgjsPath2075" d="M228.8223571074974 506.9840950171316C 231.9581640023785 539.8119692673324 171.95816400237854 532.1880307326676 169.33765131870555 565.058728738898" stroke="#323232" stroke-width="2" fill="none"></path></g><g id="SvgjsG2076" transform="translate(266,566)"><path id="SvgjsPath2077" d="M 0 30C 0 -10 60 -10 60 30C 60 70 0 70 0 30Z" stroke="rgba(50,50,50,1)" stroke-width="2" fill-opacity="1" fill="#c8e6c9"></path><g id="SvgjsG2078"><text id="SvgjsText2079" font-family="微软雅黑" text-anchor="middle" font-size="16px" width="40px" fill="#323232" font-weight="700" align="middle" lineHeight="125%" anchor="middle" family="微软雅黑" size="16px" weight="700" font-style="" opacity="1" y="16" transform="rotate(0)"><tspan id="SvgjsTspan2080" dy="20" x="30"><tspan id="SvgjsTspan2081" style="text-decoration:;">[2,2]</tspan></tspan></text></g></g><g id="SvgjsG2082"><path id="SvgjsPath2083" d="M229.33979301868845 506.9405002416005C 232.13547554140354 541.8386494322716 299.1354755414036 530.1613505677284 295.82234543951637 565.0159070891733" stroke="#323232" stroke-width="2" fill="none"></path></g><g id="SvgjsG2084" transform="translate(441,446)"><path id="SvgjsPath2085" d="M 0 30C 0 -10 60 -10 60 30C 60 70 0 70 0 30Z" stroke="rgba(50,50,50,1)" stroke-width="2" fill-opacity="1" fill="#c8e6c9"></path><g id="SvgjsG2086"><text id="SvgjsText2087" font-family="微软雅黑" text-anchor="middle" font-size="16px" width="40px" fill="#323232" font-weight="700" align="middle" lineHeight="125%" anchor="middle" family="微软雅黑" size="16px" weight="700" font-style="" opacity="1" y="16" transform="rotate(0)"><tspan id="SvgjsTspan2088" dy="20" x="30"><tspan id="SvgjsTspan2089" style="text-decoration:;">[4,4]</tspan></tspan></text></g></g><g id="SvgjsG2090"><path id="SvgjsPath2091" d="M530.7951212961198 389.9787873705235C 533.8851578760184 421.97750542461404 471 412.89652586207905 471.28554732193726 445.0416353893562" stroke="#323232" stroke-width="2" fill="none"></path></g><g id="SvgjsG2092" transform="translate(561,446)"><path id="SvgjsPath2093" d="M 0 30C 0 -10 60 -10 60 30C 60 70 0 70 0 30Z" stroke="rgba(50,50,50,1)" stroke-width="2" fill-opacity="1" fill="#c8e6c9"></path><g id="SvgjsG2094"><text id="SvgjsText2095" font-family="微软雅黑" text-anchor="middle" font-size="16px" width="40px" fill="#323232" font-weight="700" align="middle" lineHeight="125%" anchor="middle" family="微软雅黑" size="16px" weight="700" font-style="" opacity="1" y="16" transform="rotate(0)"><tspan id="SvgjsTspan2096" dy="20" x="30"><tspan id="SvgjsTspan2097" style="text-decoration:;">[5,5]</tspan></tspan></text></g></g><g id="SvgjsG2098"><path id="SvgjsPath2099" d="M531.3516880806816 389.9361172436754C 533.8851578760184 421.97750542461404 593.8851578760184 413.02249457538596 590.8074838066237 445.0187062033785" stroke="#323232" stroke-width="2" fill="none"></path></g><g id="SvgjsG2100" transform="translate(993,329)"><path id="SvgjsPath2101" d="M 0 30C 0 -10 60 -10 60 30C 60 70 0 70 0 30Z" stroke="rgba(50,50,50,1)" stroke-width="2" fill-opacity="1" fill="#c8e6c9"></path><g id="SvgjsG2102"><text id="SvgjsText2103" font-family="微软雅黑" text-anchor="middle" font-size="16px" width="40px" fill="#323232" font-weight="700" align="middle" lineHeight="125%" anchor="middle" family="微软雅黑" size="16px" weight="700" font-style="" opacity="1" y="16" transform="rotate(0)"><tspan id="SvgjsTspan2104" dy="20" x="30"><tspan id="SvgjsTspan2105" style="text-decoration:;">[9,10]</tspan></tspan></text></g></g><g id="SvgjsG2106" transform="translate(920,450)"><path id="SvgjsPath2107" d="M 0 30C 0 -10 60 -10 60 30C 60 70 0 70 0 30Z" stroke="rgba(50,50,50,1)" stroke-width="2" fill-opacity="1" fill="#c8e6c9"></path><g id="SvgjsG2108"><text id="SvgjsText2109" font-family="微软雅黑" text-anchor="middle" font-size="16px" width="40px" fill="#323232" font-weight="700" align="middle" lineHeight="125%" anchor="middle" family="微软雅黑" size="16px" weight="700" font-style="" opacity="1" y="16" transform="rotate(0)"><tspan id="SvgjsTspan2110" dy="20" x="30"><tspan id="SvgjsTspan2111" style="text-decoration:;">[9,9]</tspan></tspan></text></g></g><g id="SvgjsG2112"><path id="SvgjsPath2113" d="M1022.8175406679559 389.9832134011241C 1026.3165021964655 426.907793567825 950 411.94740481911913 950.2657060979946 449.03594591983205" stroke="#323232" stroke-width="2" fill="none"></path></g><g id="SvgjsG2114" transform="translate(1053,450)"><path id="SvgjsPath2115" d="M 0 30C 0 -10 60 -10 60 30C 60 70 0 70 0 30Z" stroke="rgba(50,50,50,1)" stroke-width="2" fill-opacity="1" fill="#c8e6c9"></path><g id="SvgjsG2116"><text id="SvgjsText2117" font-family="微软雅黑" text-anchor="middle" font-size="16px" width="40px" fill="#323232" font-weight="700" align="middle" lineHeight="125%" anchor="middle" family="微软雅黑" size="16px" weight="700" font-style="" opacity="1" y="6" transform="rotate(0)"><tspan id="SvgjsTspan2118" dy="20" x="30"><tspan id="SvgjsTspan2119" style="text-decoration:;">[10,1</tspan></tspan><tspan id="SvgjsTspan2120" dy="20" x="30"><tspan id="SvgjsTspan2121" style="text-decoration:;">0]</tspan></tspan></text></g></g><g id="SvgjsG2122"><path id="SvgjsPath2123" d="M1023.3331588877438 389.94287069925696C 1025.9829172324773 423.09489998202355 1085.9829172324773 415.90510001797645 1082.8271081849693 449.0150591792928" stroke="#323232" stroke-width="2" fill="none"></path></g><g id="SvgjsG2124"><path id="SvgjsPath2125" d="M890.2914994409821 269.9565709988846C 895.0866707864623 327.1409131361914 1028.0866707864623 270.8590868638086 1022.8856128031709 328.0065637568512" stroke="#323232" stroke-width="2" fill="none"></path></g><g id="SvgjsG2126" transform="translate(730,329)"><path id="SvgjsPath2127" d="M 0 30C 0 -10 60 -10 60 30C 60 70 0 70 0 30Z" stroke="rgba(50,50,50,1)" stroke-width="2" fill-opacity="1" fill="#4caf50"></path><g id="SvgjsG2128"><text id="SvgjsText2129" font-family="微软雅黑" text-anchor="middle" font-size="16px" width="40px" fill="#323232" font-weight="700" align="middle" lineHeight="125%" anchor="middle" family="微软雅黑" size="16px" weight="700" font-style="" opacity="1" y="16" transform="rotate(0)"><tspan id="SvgjsTspan2130" dy="20" x="30"><tspan id="SvgjsTspan2131" style="text-decoration:;">[6,8]</tspan></tspan></text></g></g><g id="SvgjsG2132" transform="translate(670,446)"><path id="SvgjsPath2133" d="M 0 30C 0 -10 60 -10 60 30C 60 70 0 70 0 30Z" stroke="rgba(50,50,50,1)" stroke-width="2" fill-opacity="1" fill="#4caf50"></path><g id="SvgjsG2134"><text id="SvgjsText2135" font-family="微软雅黑" text-anchor="middle" font-size="16px" width="40px" fill="#323232" font-weight="700" align="middle" lineHeight="125%" anchor="middle" family="微软雅黑" size="16px" weight="700" font-style="" opacity="1" y="16" transform="rotate(0)"><tspan id="SvgjsTspan2136" dy="20" x="30"><tspan id="SvgjsTspan2137" style="text-decoration:;">[6,7]</tspan></tspan></text></g></g><g id="SvgjsG2138"><path id="SvgjsPath2139" d="M759.7951212961198 389.9787873705235C 762.8851578760184 421.97750542461404 700 412.89652586207905 701.0279703589741 442.5498874016823" stroke-dasharray="8,5" stroke="#323232" stroke-width="2" fill="none" marker-end="url(#SvgjsMarker2140)"></path></g><g id="SvgjsG2142" transform="translate(800,450)"><path id="SvgjsPath2143" d="M 0 30C 0 -10 60 -10 60 30C 60 70 0 70 0 30Z" stroke="rgba(50,50,50,1)" stroke-width="2" fill-opacity="1" fill="#c8e6c9"></path><g id="SvgjsG2144"><text id="SvgjsText2145" font-family="微软雅黑" text-anchor="middle" font-size="16px" width="40px" fill="#323232" font-weight="700" align="middle" lineHeight="125%" anchor="middle" family="微软雅黑" size="16px" weight="700" font-style="" opacity="1" y="16" transform="rotate(0)"><tspan id="SvgjsTspan2146" dy="20" x="30"><tspan id="SvgjsTspan2147" style="text-decoration:;">[8,8]</tspan></tspan></text></g></g><g id="SvgjsG2148"><path id="SvgjsPath2149" d="M760.3358294738647 389.9419228017644C 763.2369412880898 425.9984082238339 833.2369412880898 413.0015917761661 829.8273911138198 449.0150095571978" stroke="#323232" stroke-width="2" fill="none"></path></g><g id="SvgjsG2150"><path id="SvgjsPath2151" d="M889.8824236608912 269.9930638471326C 894.9915213171917 326.0533497258489 764.9915213171917 271.9466502741511 761.0594564347743 325.55942562021755" stroke-dasharray="8,5" stroke="#323232" stroke-width="2" fill="none" marker-end="url(#SvgjsMarker2152)"></path></g><g id="SvgjsG2154" transform="translate(614,566)"><path id="SvgjsPath2155" d="M 0 30C 0 -10 60 -10 60 30C 60 70 0 70 0 30Z" stroke="rgba(50,50,50,1)" stroke-width="2" fill-opacity="1" fill="#ffb74d"></path><g id="SvgjsG2156"><text id="SvgjsText2157" font-family="微软雅黑" text-anchor="middle" font-size="16px" width="40px" fill="#323232" font-weight="700" align="middle" lineHeight="125%" anchor="middle" family="微软雅黑" size="16px" weight="700" font-style="" opacity="1" y="16" transform="rotate(0)"><tspan id="SvgjsTspan2158" dy="20" x="30"><tspan id="SvgjsTspan2159" style="text-decoration:;">[6,6]</tspan></tspan></text></g></g><g id="SvgjsG2160" transform="translate(730,566)"><path id="SvgjsPath2161" d="M 0 30C 0 -10 60 -10 60 30C 60 70 0 70 0 30Z" stroke="rgba(50,50,50,1)" stroke-width="2" fill-opacity="1" fill="#c8e6c9"></path><g id="SvgjsG2162"><text id="SvgjsText2163" font-family="微软雅黑" text-anchor="middle" font-size="16px" width="40px" fill="#323232" font-weight="700" align="middle" lineHeight="125%" anchor="middle" family="微软雅黑" size="16px" weight="700" font-style="" opacity="1" y="16" transform="rotate(0)"><tspan id="SvgjsTspan2164" dy="20" x="30"><tspan id="SvgjsTspan2165" style="text-decoration:;">[7,7]</tspan></tspan></text></g></g><g id="SvgjsG2166"><path id="SvgjsPath2167" d="M699.8240421744641 506.9843977060277C 702.8612581248083 538.7043300182594 646.8612581248083 533.2956699817406 645.2052340123711 562.6077424957082" stroke-dasharray="8,5" stroke="#323232" stroke-width="2" fill="none" marker-end="url(#SvgjsMarker2168)"></path></g><g id="SvgjsG2170"><path id="SvgjsPath2171" d="M700.3376513187055 506.941271261102C 702.9581640023786 539.8119692673324 762.9581640023786 532.1880307326676 759.8223571074974 565.0159049828684" stroke="#323232" stroke-width="2" fill="none"></path></g><g id="SvgjsG2172" transform="translate(674,37)"><path id="SvgjsPath2173" d="M 0 0L 120 0L 120 40L 0 40Z" stroke="none" fill="none"></path><g id="SvgjsG2174"><text id="SvgjsText2175" font-family="微软雅黑" text-anchor="middle" font-size="17px" width="120px" fill="#323232" font-weight="400" align="middle" lineHeight="125%" anchor="middle" family="微软雅黑" size="17px" weight="400" font-style="" opacity="1" y="4.875" transform="rotate(0)"><tspan id="SvgjsTspan2176" dy="21" x="60"><tspan id="SvgjsTspan2177" style="text-decoration:;">minv[1] = 1</tspan></tspan></text></g></g><g id="SvgjsG2178" transform="translate(441,219)"><path id="SvgjsPath2179" d="M 0 0L 120 0L 120 40L 0 40Z" stroke="none" fill="none"></path><g id="SvgjsG2180"><text id="SvgjsText2181" font-family="微软雅黑" text-anchor="middle" font-size="17px" width="120px" fill="#323232" font-weight="400" align="middle" lineHeight="125%" anchor="middle" family="微软雅黑" size="17px" weight="400" font-style="" opacity="1" y="4.875" transform="rotate(0)"><tspan id="SvgjsTspan2182" dy="21" x="60"><tspan id="SvgjsTspan2183" style="text-decoration:;">minv[2] = 1</tspan></tspan></text></g></g><g id="SvgjsG2184" transform="translate(321,337.5)"><path id="SvgjsPath2185" d="M 0 0L 120 0L 120 40L 0 40Z" stroke="none" fill="none"></path><g id="SvgjsG2186"><text id="SvgjsText2187" font-family="微软雅黑" text-anchor="middle" font-size="17px" width="120px" fill="#323232" font-weight="400" align="middle" lineHeight="125%" anchor="middle" family="微软雅黑" size="17px" weight="400" font-style="" opacity="1" y="4.875" transform="rotate(0)"><tspan id="SvgjsTspan2188" dy="21" x="60"><tspan id="SvgjsTspan2189" style="text-decoration:;">minv[4] = 1</tspan></tspan></text></g></g><g id="SvgjsG2190" transform="translate(550,339)"><path id="SvgjsPath2191" d="M 0 0L 120 0L 120 40L 0 40Z" stroke="none" fill="none"></path><g id="SvgjsG2192"><text id="SvgjsText2193" font-family="微软雅黑" text-anchor="middle" font-size="17px" width="120px" fill="#323232" font-weight="700" align="middle" lineHeight="125%" anchor="middle" family="微软雅黑" size="17px" weight="700" font-style="" opacity="1" y="4.875" transform="rotate(0)"><tspan id="SvgjsTspan2194" dy="21" x="60"><tspan id="SvgjsTspan2195" style="text-decoration:;">minv[5] = 7</tspan></tspan></text></g></g><g id="SvgjsG2196" transform="translate(87,450)"><path id="SvgjsPath2197" d="M 0 0L 120 0L 120 40L 0 40Z" stroke="none" fill="none"></path><g id="SvgjsG2198"><text id="SvgjsText2199" font-family="微软雅黑" text-anchor="middle" font-size="17px" width="120px" fill="#323232" font-weight="400" align="middle" lineHeight="125%" anchor="middle" family="微软雅黑" size="17px" weight="400" font-style="" opacity="1" y="4.875" transform="rotate(0)"><tspan id="SvgjsTspan2200" dy="21" x="60"><tspan id="SvgjsTspan2201" style="text-decoration:;">minv[8] = 1</tspan></tspan></text></g></g><g id="SvgjsG2202" transform="translate(25,572)"><path id="SvgjsPath2203" d="M 0 0L 120 0L 120 40L 0 40Z" stroke="none" fill="none"></path><g id="SvgjsG2204"><text id="SvgjsText2205" font-family="微软雅黑" text-anchor="middle" font-size="17px" width="120px" fill="#323232" font-weight="400" align="middle" lineHeight="125%" anchor="middle" family="微软雅黑" size="17px" weight="400" font-style="" opacity="1" y="4.875" transform="rotate(0)"><tspan id="SvgjsTspan2206" dy="21" x="60"><tspan id="SvgjsTspan2207" style="text-decoration:;">minv[16] = 11</tspan></tspan></text></g></g><g id="SvgjsG2208" transform="translate(328,582)"><path id="SvgjsPath2209" d="M 0 0L 120 0L 120 40L 0 40Z" stroke="none" fill="none"></path><g id="SvgjsG2210"><text id="SvgjsText2211" font-family="微软雅黑" text-anchor="middle" font-size="17px" width="120px" fill="#323232" font-weight="400" align="middle" lineHeight="125%" anchor="middle" family="微软雅黑" size="17px" weight="400" font-style="" opacity="1" y="4.875" transform="rotate(0)"><tspan id="SvgjsTspan2212" dy="21" x="60"><tspan id="SvgjsTspan2213" style="text-decoration:;">minv[17] = 3</tspan></tspan></text></g></g><g id="SvgjsG2214" transform="translate(306,510)"><path id="SvgjsPath2215" d="M 0 0L 120 0L 120 40L 0 40Z" stroke="none" fill="none"></path><g id="SvgjsG2216"><text id="SvgjsText2217" font-family="微软雅黑" text-anchor="middle" font-size="17px" width="120px" fill="#323232" font-weight="700" align="middle" lineHeight="125%" anchor="middle" family="微软雅黑" size="17px" weight="700" font-style="" opacity="1" y="4.875" transform="rotate(0)"><tspan id="SvgjsTspan2218" dy="21" x="60"><tspan id="SvgjsTspan2219" style="text-decoration:;">minv[9] = 5</tspan></tspan></text></g></g><g id="SvgjsG2220" transform="translate(406,510)"><path id="SvgjsPath2221" d="M 0 0L 120 0L 120 40L 0 40Z" stroke="none" fill="none"></path><g id="SvgjsG2222"><text id="SvgjsText2223" font-family="微软雅黑" text-anchor="middle" font-size="17px" width="120px" fill="#323232" font-weight="400" align="middle" lineHeight="125%" anchor="middle" family="微软雅黑" size="17px" weight="400" font-style="" opacity="1" y="4.875" transform="rotate(0)"><tspan id="SvgjsTspan2224" dy="21" x="60"><tspan id="SvgjsTspan2225" style="text-decoration:;">minv[10] = 7</tspan></tspan></text></g></g><g id="SvgjsG2226" transform="translate(527,510)"><path id="SvgjsPath2227" d="M 0 0L 120 0L 120 40L 0 40Z" stroke="none" fill="none"></path><g id="SvgjsG2228"><text id="SvgjsText2229" font-family="微软雅黑" text-anchor="middle" font-size="17px" width="120px" fill="#323232" font-weight="400" align="middle" lineHeight="125%" anchor="middle" family="微软雅黑" size="17px" weight="400" font-style="" opacity="1" y="4.875" transform="rotate(0)"><tspan id="SvgjsTspan2230" dy="21" x="60"><tspan id="SvgjsTspan2231" style="text-decoration:;">minv[11] = 9</tspan></tspan></text></g></g><g id="SvgjsG2232" transform="translate(912,219)"><path id="SvgjsPath2233" d="M 0 0L 120 0L 120 40L 0 40Z" stroke="none" fill="none"></path><g id="SvgjsG2234"><text id="SvgjsText2235" font-family="微软雅黑" text-anchor="middle" font-size="17px" width="120px" fill="#323232" font-weight="400" align="middle" lineHeight="125%" anchor="middle" family="微软雅黑" size="17px" weight="400" font-style="" opacity="1" y="4.875" transform="rotate(0)"><tspan id="SvgjsTspan2236" dy="21" x="60"><tspan id="SvgjsTspan2237" style="text-decoration:;">minv[3] = 2</tspan></tspan></text></g></g><g id="SvgjsG2238" transform="translate(783,339)"><path id="SvgjsPath2239" d="M 0 0L 120 0L 120 40L 0 40Z" stroke="none" fill="none"></path><g id="SvgjsG2240"><text id="SvgjsText2241" font-family="微软雅黑" text-anchor="middle" font-size="17px" width="120px" fill="#323232" font-weight="400" align="middle" lineHeight="125%" anchor="middle" family="微软雅黑" size="17px" weight="400" font-style="" opacity="1" y="4.875" transform="rotate(0)"><tspan id="SvgjsTspan2242" dy="21" x="60"><tspan id="SvgjsTspan2243" style="text-decoration:;">minv[6] = 2</tspan></tspan></text></g></g><g id="SvgjsG2244" transform="translate(1046,339)"><path id="SvgjsPath2245" d="M 0 0L 120 0L 120 40L 0 40Z" stroke="none" fill="none"></path><g id="SvgjsG2246"><text id="SvgjsText2247" font-family="微软雅黑" text-anchor="middle" font-size="17px" width="120px" fill="#323232" font-weight="400" align="middle" lineHeight="125%" anchor="middle" family="微软雅黑" size="17px" weight="400" font-style="" opacity="1" y="4.875" transform="rotate(0)"><tspan id="SvgjsTspan2248" dy="21" x="60"><tspan id="SvgjsTspan2249" style="text-decoration:;">minv[7] = 6</tspan></tspan></text></g></g><g id="SvgjsG2250" transform="translate(599,406)"><path id="SvgjsPath2251" d="M 0 0L 120 0L 120 40L 0 40Z" stroke="none" fill="none"></path><g id="SvgjsG2252"><text id="SvgjsText2253" font-family="微软雅黑" text-anchor="middle" font-size="17px" width="120px" fill="#323232" font-weight="400" align="middle" lineHeight="125%" anchor="middle" family="微软雅黑" size="17px" weight="400" font-style="" opacity="1" y="4.875" transform="rotate(0)"><tspan id="SvgjsTspan2254" dy="21" x="60"><tspan id="SvgjsTspan2255" style="text-decoration:;">minv[12] = 2</tspan></tspan></text></g></g><g id="SvgjsG2256" transform="translate(771,510)"><path id="SvgjsPath2257" d="M 0 0L 120 0L 120 40L 0 40Z" stroke="none" fill="none"></path><g id="SvgjsG2258"><text id="SvgjsText2259" font-family="微软雅黑" text-anchor="middle" font-size="17px" width="120px" fill="#323232" font-weight="400" align="middle" lineHeight="125%" anchor="middle" family="微软雅黑" size="17px" weight="400" font-style="" opacity="1" y="4.875" transform="rotate(0)"><tspan id="SvgjsTspan2260" dy="21" x="60"><tspan id="SvgjsTspan2261" style="text-decoration:;">minv[13] = 4</tspan></tspan></text></g></g><g id="SvgjsG2262" transform="translate(890,510)"><path id="SvgjsPath2263" d="M 0 0L 120 0L 120 40L 0 40Z" stroke="none" fill="none"></path><g id="SvgjsG2264"><text id="SvgjsText2265" font-family="微软雅黑" text-anchor="middle" font-size="17px" width="120px" fill="#323232" font-weight="400" align="middle" lineHeight="125%" anchor="middle" family="微软雅黑" size="17px" weight="400" font-style="" opacity="1" y="4.875" transform="rotate(0)"><tspan id="SvgjsTspan2266" dy="21" x="60"><tspan id="SvgjsTspan2267" style="text-decoration:;">minv[14] = 8</tspan></tspan></text></g></g><g id="SvgjsG2268" transform="translate(1021,510)"><path id="SvgjsPath2269" d="M 0 0L 120 0L 120 40L 0 40Z" stroke="none" fill="none"></path><g id="SvgjsG2270"><text id="SvgjsText2271" font-family="微软雅黑" text-anchor="middle" font-size="17px" width="120px" fill="#323232" font-weight="400" align="middle" lineHeight="125%" anchor="middle" family="微软雅黑" size="17px" weight="400" font-style="" opacity="1" y="4.875" transform="rotate(0)"><tspan id="SvgjsTspan2272" dy="21" x="60"><tspan id="SvgjsTspan2273" style="text-decoration:;">minv[15] = 6</tspan></tspan></text></g></g><g id="SvgjsG2274" transform="translate(496,582)"><path id="SvgjsPath2275" d="M 0 0L 120 0L 120 40L 0 40Z" stroke="none" fill="none"></path><g id="SvgjsG2276"><text id="SvgjsText2277" font-family="微软雅黑" text-anchor="middle" font-size="17px" width="120px" fill="#323232" font-weight="700" align="middle" lineHeight="125%" anchor="middle" family="微软雅黑" size="17px" weight="700" font-style="" opacity="1" y="4.875" transform="rotate(0)"><tspan id="SvgjsTspan2278" dy="21" x="60"><tspan id="SvgjsTspan2279" style="text-decoration:;">minv[24] = 10</tspan></tspan></text></g></g><g id="SvgjsG2280" transform="translate(792,582)"><path id="SvgjsPath2281" d="M 0 0L 120 0L 120 40L 0 40Z" stroke="none" fill="none"></path><g id="SvgjsG2282"><text id="SvgjsText2283" font-family="微软雅黑" text-anchor="middle" font-size="17px" width="120px" fill="#323232" font-weight="400" align="middle" lineHeight="125%" anchor="middle" family="微软雅黑" size="17px" weight="400" font-style="" opacity="1" y="4.875" transform="rotate(0)"><tspan id="SvgjsTspan2284" dy="21" x="60"><tspan id="SvgjsTspan2285" style="text-decoration:;">minv[25] = 2</tspan></tspan></text></g></g></svg>