<svg id="SvgjsSvg2830" width="1191" height="651" xmlns="http://www.w3.org/2000/svg" version="1.1" xmlns:xlink="http://www.w3.org/1999/xlink" xmlns:svgjs="http://svgjs.com/svgjs"><defs id="SvgjsDefs2831"><marker id="SvgjsMarker2852" markerWidth="14" markerHeight="10" refX="4" refY="5" viewBox="0 0 14 10" orient="auto" markerUnits="userSpaceOnUse" stroke-dasharray="0,0"><path id="SvgjsPath2853" d="M14,0 L0,5 L14,10 L14,0" fill="#323232" stroke="#323232" stroke-width="1"></path></marker><marker id="SvgjsMarker2870" markerWidth="14" markerHeight="10" refX="4" refY="5" viewBox="0 0 14 10" orient="auto" markerUnits="userSpaceOnUse" stroke-dasharray="0,0"><path id="SvgjsPath2871" d="M14,0 L0,5 L14,10 L14,0" fill="#323232" stroke="#323232" stroke-width="1"></path></marker><marker id="SvgjsMarker2888" markerWidth="14" markerHeight="10" refX="4" refY="5" viewBox="0 0 14 10" orient="auto" markerUnits="userSpaceOnUse" stroke-dasharray="0,0"><path id="SvgjsPath2889" d="M14,0 L0,5 L14,10 L14,0" fill="#323232" stroke="#323232" stroke-width="1"></path></marker><marker id="SvgjsMarker2900" markerWidth="14" markerHeight="10" refX="4" refY="5" viewBox="0 0 14 10" orient="auto" markerUnits="userSpaceOnUse" stroke-dasharray="0,0"><path id="SvgjsPath2901" d="M14,0 L0,5 L14,10 L14,0" fill="#323232" stroke="#323232" stroke-width="1"></path></marker></defs><g id="SvgjsG2832" transform="translate(621,25)"><path id="SvgjsPath2833" d="M 0 30C 0 -10 60 -10 60 30C 60 70 0 70 0 30Z" stroke="rgba(50,50,50,1)" stroke-width="2" fill-opacity="1" fill="#4caf50"></path><g id="SvgjsG2834"><text id="SvgjsText2835" font-family="微软雅黑" text-anchor="middle" font-size="16px" width="40px" fill="#323232" font-weight="700" align="middle" lineHeight="125%" anchor="middle" family="微软雅黑" size="16px" weight="700" font-style="" opacity="1" y="16" transform="rotate(0)"><tspan id="SvgjsTspan2836" dy="20" x="30"><tspan id="SvgjsTspan2837" style="text-decoration:;">[1,10]</tspan></tspan></text></g></g><g id="SvgjsG2838" transform="translate(381,209)"><path id="SvgjsPath2839" d="M 0 30C 0 -10 60 -10 60 30C 60 70 0 70 0 30Z" stroke="rgba(50,50,50,1)" stroke-width="2" fill-opacity="1" fill="#4caf50"></path><g id="SvgjsG2840"><text id="SvgjsText2841" font-family="微软雅黑" text-anchor="middle" font-size="16px" width="40px" fill="#323232" font-weight="700" align="middle" lineHeight="125%" anchor="middle" family="微软雅黑" size="16px" weight="700" font-style="" opacity="1" y="16" transform="rotate(0)"><tspan id="SvgjsTspan2842" dy="20" x="30"><tspan id="SvgjsTspan2843" style="text-decoration:;">[1,5]</tspan></tspan></text></g></g><g id="SvgjsG2844" transform="translate(860,209)"><path id="SvgjsPath2845" d="M 0 30C 0 -10 60 -10 60 30C 60 70 0 70 0 30Z" stroke="rgba(50,50,50,1)" stroke-width="2" fill-opacity="1" fill="#c8e6c9"></path><g id="SvgjsG2846"><text id="SvgjsText2847" font-family="微软雅黑" text-anchor="middle" font-size="16px" width="40px" fill="#323232" font-weight="700" align="middle" lineHeight="125%" anchor="middle" family="微软雅黑" size="16px" weight="700" font-style="" opacity="1" y="16" transform="rotate(0)"><tspan id="SvgjsTspan2848" dy="20" x="30"><tspan id="SvgjsTspan2849" style="text-decoration:;">[6,10]</tspan></tspan></text></g></g><g id="SvgjsG2850"><path id="SvgjsPath2851" d="M650.9510930969285 88.59966777839733C 660.417725484133 192.64509485668873 420.41772548413303 101.35490514331127 411.19164463164674 208.0185356169677" stroke-dasharray="8,5" stroke="#323232" stroke-width="2" fill="none" marker-start="url(#SvgjsMarker2852)"></path></g><g id="SvgjsG2854"><path id="SvgjsPath2855" d="M651.1918778651194 85.98141881216799C 660.3867665566966 192.2912326968522 899.3867665566966 101.7087673031478 889.9861580952737 208.0000958037524" stroke="#323232" stroke-width="2" fill="none"></path></g><g id="SvgjsG2856" transform="translate(272,323)"><path id="SvgjsPath2857" d="M 0 30C 0 -10 60 -10 60 30C 60 70 0 70 0 30Z" stroke="rgba(50,50,50,1)" stroke-width="2" fill-opacity="1" fill="#4caf50"></path><g id="SvgjsG2858"><text id="SvgjsText2859" font-family="微软雅黑" text-anchor="middle" font-size="16px" width="40px" fill="#323232" font-weight="700" align="middle" lineHeight="125%" anchor="middle" family="微软雅黑" size="16px" weight="700" font-style="" opacity="1" y="16" transform="rotate(0)"><tspan id="SvgjsTspan2860" dy="20" x="30"><tspan id="SvgjsTspan2861" style="text-decoration:;">[1,3]</tspan></tspan></text></g></g><g id="SvgjsG2862" transform="translate(501,329)"><path id="SvgjsPath2863" d="M 0 30C 0 -10 60 -10 60 30C 60 70 0 70 0 30Z" stroke="rgba(50,50,50,1)" stroke-width="2" fill-opacity="1" fill="#c8e6c9"></path><g id="SvgjsG2864"><text id="SvgjsText2865" font-family="微软雅黑" text-anchor="middle" font-size="16px" width="40px" fill="#323232" font-weight="700" align="middle" lineHeight="125%" anchor="middle" family="微软雅黑" size="16px" weight="700" font-style="" opacity="1" y="16" transform="rotate(0)"><tspan id="SvgjsTspan2866" dy="20" x="30"><tspan id="SvgjsTspan2867" style="text-decoration:;">[4,5]</tspan></tspan></text></g></g><g id="SvgjsG2868"><path id="SvgjsPath2869" d="M410.44720280642196 272.5573044939634C 415.2407516190256 317.47201280848293 306.2407516190257 274.52798719151707 302.32722869065077 322.05505482486285" stroke-dasharray="8,5" stroke="#323232" stroke-width="2" fill="none" marker-start="url(#SvgjsMarker2870)"></path></g><g id="SvgjsG2872"><path id="SvgjsPath2873" d="M411.3037433842509 269.952753880351C 415.677267969918 322.46141753019253 535.6772679699179 275.53858246980747 530.8714780677011 328.00829333322895" stroke="#323232" stroke-width="2" fill="none"></path></g><g id="SvgjsG2874" transform="translate(199,446)"><path id="SvgjsPath2875" d="M 0 30C 0 -10 60 -10 60 30C 60 70 0 70 0 30Z" stroke="rgba(50,50,50,1)" stroke-width="2" fill-opacity="1" fill="#4caf50"></path><g id="SvgjsG2876"><text id="SvgjsText2877" font-family="微软雅黑" text-anchor="middle" font-size="16px" width="40px" fill="#323232" font-weight="700" align="middle" lineHeight="125%" anchor="middle" family="微软雅黑" size="16px" weight="700" font-style="" opacity="1" y="16" transform="rotate(0)"><tspan id="SvgjsTspan2878" dy="20" x="30"><tspan id="SvgjsTspan2879" style="text-decoration:;font-size: inherit;">[1,2]</tspan></tspan></text></g></g><g id="SvgjsG2880" transform="translate(332,446)"><path id="SvgjsPath2881" d="M 0 30C 0 -10 60 -10 60 30C 60 70 0 70 0 30Z" stroke="rgba(50,50,50,1)" stroke-width="2" fill-opacity="1" fill="#c8e6c9"></path><g id="SvgjsG2882"><text id="SvgjsText2883" font-family="微软雅黑" text-anchor="middle" font-size="16px" width="40px" fill="#323232" font-weight="700" align="middle" lineHeight="125%" anchor="middle" family="微软雅黑" size="16px" weight="700" font-style="" opacity="1" y="16" transform="rotate(0)"><tspan id="SvgjsTspan2884" dy="20" x="30"><tspan id="SvgjsTspan2885" style="text-decoration:;">[3,3]</tspan></tspan></text></g></g><g id="SvgjsG2886"><path id="SvgjsPath2887" d="M301.41051151189333 386.5514086391726C 305.361636654875 421.4236827881009 232.36163665487499 407.5763172118991 229.32811522791792 445.0553622931471" stroke-dasharray="8,5" stroke="#323232" stroke-width="2" fill="none" marker-start="url(#SvgjsMarker2888)"></path></g><g id="SvgjsG2890"><path id="SvgjsPath2891" d="M302.32444618216874 383.9459041573416C 305.0330198476185 417.6675754935927 365.0330198476185 411.3324245064073 361.8363103100268 445.01348812201957" stroke="#323232" stroke-width="2" fill="none"></path></g><g id="SvgjsG2892" transform="translate(139,566)"><path id="SvgjsPath2893" d="M 0 30C 0 -10 60 -10 60 30C 60 70 0 70 0 30Z" stroke="rgba(50,50,50,1)" stroke-width="2" fill-opacity="1" fill="#ffb74d"></path><g id="SvgjsG2894"><text id="SvgjsText2895" font-family="微软雅黑" text-anchor="middle" font-size="16px" width="40px" fill="#323232" font-weight="700" align="middle" lineHeight="125%" anchor="middle" family="微软雅黑" size="16px" weight="700" font-style="" opacity="1" y="16" transform="rotate(0)"><tspan id="SvgjsTspan2896" dy="20" x="30"><tspan id="SvgjsTspan2897" style="text-decoration:;">[1,1]</tspan></tspan></text></g></g><g id="SvgjsG2898"><path id="SvgjsPath2899" d="M228.3604855869907 509.54274206167383C 231.9581640023785 539.8119692673324 171.95816400237854 532.1880307326676 169.33765131870555 565.058728738898" stroke-dasharray="8,5" stroke="#323232" stroke-width="2" fill="none" marker-start="url(#SvgjsMarker2900)"></path></g><g id="SvgjsG2902" transform="translate(266,566)"><path id="SvgjsPath2903" d="M 0 30C 0 -10 60 -10 60 30C 60 70 0 70 0 30Z" stroke="rgba(50,50,50,1)" stroke-width="2" fill-opacity="1" fill="#c8e6c9"></path><g id="SvgjsG2904"><text id="SvgjsText2905" font-family="微软雅黑" text-anchor="middle" font-size="16px" width="40px" fill="#323232" font-weight="700" align="middle" lineHeight="125%" anchor="middle" family="微软雅黑" size="16px" weight="700" font-style="" opacity="1" y="16" transform="rotate(0)"><tspan id="SvgjsTspan2906" dy="20" x="30"><tspan id="SvgjsTspan2907" style="text-decoration:;">[2,2]</tspan></tspan></text></g></g><g id="SvgjsG2908"><path id="SvgjsPath2909" d="M229.33979301868845 506.9405002416005C 232.13547554140354 541.8386494322716 299.1354755414036 530.1613505677284 295.82234543951637 565.0159070891733" stroke="#323232" stroke-width="2" fill="none"></path></g><g id="SvgjsG2910" transform="translate(441,446)"><path id="SvgjsPath2911" d="M 0 30C 0 -10 60 -10 60 30C 60 70 0 70 0 30Z" stroke="rgba(50,50,50,1)" stroke-width="2" fill-opacity="1" fill="#c8e6c9"></path><g id="SvgjsG2912"><text id="SvgjsText2913" font-family="微软雅黑" text-anchor="middle" font-size="16px" width="40px" fill="#323232" font-weight="700" align="middle" lineHeight="125%" anchor="middle" family="微软雅黑" size="16px" weight="700" font-style="" opacity="1" y="16" transform="rotate(0)"><tspan id="SvgjsTspan2914" dy="20" x="30"><tspan id="SvgjsTspan2915" style="text-decoration:;">[4,4]</tspan></tspan></text></g></g><g id="SvgjsG2916"><path id="SvgjsPath2917" d="M530.7951212961198 389.9787873705235C 533.8851578760184 421.97750542461404 471 412.89652586207905 471.28554732193726 445.0416353893562" stroke="#323232" stroke-width="2" fill="none"></path></g><g id="SvgjsG2918" transform="translate(561,446)"><path id="SvgjsPath2919" d="M 0 30C 0 -10 60 -10 60 30C 60 70 0 70 0 30Z" stroke="rgba(50,50,50,1)" stroke-width="2" fill-opacity="1" fill="#c8e6c9"></path><g id="SvgjsG2920"><text id="SvgjsText2921" font-family="微软雅黑" text-anchor="middle" font-size="16px" width="40px" fill="#323232" font-weight="700" align="middle" lineHeight="125%" anchor="middle" family="微软雅黑" size="16px" weight="700" font-style="" opacity="1" y="16" transform="rotate(0)"><tspan id="SvgjsTspan2922" dy="20" x="30"><tspan id="SvgjsTspan2923" style="text-decoration:;">[5,5]</tspan></tspan></text></g></g><g id="SvgjsG2924"><path id="SvgjsPath2925" d="M531.3516880806816 389.9361172436754C 533.8851578760184 421.97750542461404 593.8851578760184 413.02249457538596 590.8074838066237 445.0187062033785" stroke="#323232" stroke-width="2" fill="none"></path></g><g id="SvgjsG2926" transform="translate(993,329)"><path id="SvgjsPath2927" d="M 0 30C 0 -10 60 -10 60 30C 60 70 0 70 0 30Z" stroke="rgba(50,50,50,1)" stroke-width="2" fill-opacity="1" fill="#c8e6c9"></path><g id="SvgjsG2928"><text id="SvgjsText2929" font-family="微软雅黑" text-anchor="middle" font-size="16px" width="40px" fill="#323232" font-weight="700" align="middle" lineHeight="125%" anchor="middle" family="微软雅黑" size="16px" weight="700" font-style="" opacity="1" y="16" transform="rotate(0)"><tspan id="SvgjsTspan2930" dy="20" x="30"><tspan id="SvgjsTspan2931" style="text-decoration:;">[9,10]</tspan></tspan></text></g></g><g id="SvgjsG2932" transform="translate(920,450)"><path id="SvgjsPath2933" d="M 0 30C 0 -10 60 -10 60 30C 60 70 0 70 0 30Z" stroke="rgba(50,50,50,1)" stroke-width="2" fill-opacity="1" fill="#c8e6c9"></path><g id="SvgjsG2934"><text id="SvgjsText2935" font-family="微软雅黑" text-anchor="middle" font-size="16px" width="40px" fill="#323232" font-weight="700" align="middle" lineHeight="125%" anchor="middle" family="微软雅黑" size="16px" weight="700" font-style="" opacity="1" y="16" transform="rotate(0)"><tspan id="SvgjsTspan2936" dy="20" x="30"><tspan id="SvgjsTspan2937" style="text-decoration:;">[9,9]</tspan></tspan></text></g></g><g id="SvgjsG2938"><path id="SvgjsPath2939" d="M1022.8175406679559 389.9832134011241C 1026.3165021964655 426.907793567825 950 411.94740481911913 950.2657060979946 449.03594591983205" stroke="#323232" stroke-width="2" fill="none"></path></g><g id="SvgjsG2940" transform="translate(1053,450)"><path id="SvgjsPath2941" d="M 0 30C 0 -10 60 -10 60 30C 60 70 0 70 0 30Z" stroke="rgba(50,50,50,1)" stroke-width="2" fill-opacity="1" fill="#c8e6c9"></path><g id="SvgjsG2942"><text id="SvgjsText2943" font-family="微软雅黑" text-anchor="middle" font-size="16px" width="40px" fill="#323232" font-weight="700" align="middle" lineHeight="125%" anchor="middle" family="微软雅黑" size="16px" weight="700" font-style="" opacity="1" y="6" transform="rotate(0)"><tspan id="SvgjsTspan2944" dy="20" x="30"><tspan id="SvgjsTspan2945" style="text-decoration:;">[10,1</tspan></tspan><tspan id="SvgjsTspan2946" dy="20" x="30"><tspan id="SvgjsTspan2947" style="text-decoration:;">0]</tspan></tspan></text></g></g><g id="SvgjsG2948"><path id="SvgjsPath2949" d="M1023.3331588877438 389.94287069925696C 1025.9829172324773 423.09489998202355 1085.9829172324773 415.90510001797645 1082.8271081849693 449.0150591792928" stroke="#323232" stroke-width="2" fill="none"></path></g><g id="SvgjsG2950"><path id="SvgjsPath2951" d="M890.2914994409821 269.9565709988846C 895.0866707864623 327.1409131361914 1028.0866707864623 270.8590868638086 1022.8856128031709 328.0065637568512" stroke="#323232" stroke-width="2" fill="none"></path></g><g id="SvgjsG2952" transform="translate(730,329)"><path id="SvgjsPath2953" d="M 0 30C 0 -10 60 -10 60 30C 60 70 0 70 0 30Z" stroke="rgba(50,50,50,1)" stroke-width="2" fill-opacity="1" fill="#c8e6c9"></path><g id="SvgjsG2954"><text id="SvgjsText2955" font-family="微软雅黑" text-anchor="middle" font-size="16px" width="40px" fill="#323232" font-weight="700" align="middle" lineHeight="125%" anchor="middle" family="微软雅黑" size="16px" weight="700" font-style="" opacity="1" y="16" transform="rotate(0)"><tspan id="SvgjsTspan2956" dy="20" x="30"><tspan id="SvgjsTspan2957" style="text-decoration:;">[6,8]</tspan></tspan></text></g></g><g id="SvgjsG2958" transform="translate(670,446)"><path id="SvgjsPath2959" d="M 0 30C 0 -10 60 -10 60 30C 60 70 0 70 0 30Z" stroke="rgba(50,50,50,1)" stroke-width="2" fill-opacity="1" fill="#c8e6c9"></path><g id="SvgjsG2960"><text id="SvgjsText2961" font-family="微软雅黑" text-anchor="middle" font-size="16px" width="40px" fill="#323232" font-weight="700" align="middle" lineHeight="125%" anchor="middle" family="微软雅黑" size="16px" weight="700" font-style="" opacity="1" y="16" transform="rotate(0)"><tspan id="SvgjsTspan2962" dy="20" x="30"><tspan id="SvgjsTspan2963" style="text-decoration:;">[6,7]</tspan></tspan></text></g></g><g id="SvgjsG2964"><path id="SvgjsPath2965" d="M759.7951212961198 389.9787873705235C 762.8851578760184 421.97750542461404 700 412.89652586207905 700.2855473219373 445.0416353893562" stroke="#323232" stroke-width="2" fill="none"></path></g><g id="SvgjsG2966" transform="translate(800,450)"><path id="SvgjsPath2967" d="M 0 30C 0 -10 60 -10 60 30C 60 70 0 70 0 30Z" stroke="rgba(50,50,50,1)" stroke-width="2" fill-opacity="1" fill="#c8e6c9"></path><g id="SvgjsG2968"><text id="SvgjsText2969" font-family="微软雅黑" text-anchor="middle" font-size="16px" width="40px" fill="#323232" font-weight="700" align="middle" lineHeight="125%" anchor="middle" family="微软雅黑" size="16px" weight="700" font-style="" opacity="1" y="16" transform="rotate(0)"><tspan id="SvgjsTspan2970" dy="20" x="30"><tspan id="SvgjsTspan2971" style="text-decoration:;">[8,8]</tspan></tspan></text></g></g><g id="SvgjsG2972"><path id="SvgjsPath2973" d="M760.3358294738647 389.9419228017644C 763.2369412880898 425.9984082238339 833.2369412880898 413.0015917761661 829.8273911138198 449.0150095571978" stroke="#323232" stroke-width="2" fill="none"></path></g><g id="SvgjsG2974"><path id="SvgjsPath2975" d="M889.8824236608912 269.9930638471326C 894.9915213171917 326.0533497258489 764.9915213171917 271.9466502741511 760.2942934541039 328.04428489450487" stroke="#323232" stroke-width="2" fill="none"></path></g><g id="SvgjsG2976" transform="translate(614,566)"><path id="SvgjsPath2977" d="M 0 30C 0 -10 60 -10 60 30C 60 70 0 70 0 30Z" stroke="rgba(50,50,50,1)" stroke-width="2" fill-opacity="1" fill="#c8e6c9"></path><g id="SvgjsG2978"><text id="SvgjsText2979" font-family="微软雅黑" text-anchor="middle" font-size="16px" width="40px" fill="#323232" font-weight="700" align="middle" lineHeight="125%" anchor="middle" family="微软雅黑" size="16px" weight="700" font-style="" opacity="1" y="16" transform="rotate(0)"><tspan id="SvgjsTspan2980" dy="20" x="30"><tspan id="SvgjsTspan2981" style="text-decoration:;">[6,6]</tspan></tspan></text></g></g><g id="SvgjsG2982" transform="translate(730,566)"><path id="SvgjsPath2983" d="M 0 30C 0 -10 60 -10 60 30C 60 70 0 70 0 30Z" stroke="rgba(50,50,50,1)" stroke-width="2" fill-opacity="1" fill="#c8e6c9"></path><g id="SvgjsG2984"><text id="SvgjsText2985" font-family="微软雅黑" text-anchor="middle" font-size="16px" width="40px" fill="#323232" font-weight="700" align="middle" lineHeight="125%" anchor="middle" family="微软雅黑" size="16px" weight="700" font-style="" opacity="1" y="16" transform="rotate(0)"><tspan id="SvgjsTspan2986" dy="20" x="30"><tspan id="SvgjsTspan2987" style="text-decoration:;">[7,7]</tspan></tspan></text></g></g><g id="SvgjsG2988"><path id="SvgjsPath2989" d="M699.8240421744641 506.9843977060277C 702.8612581248083 538.7043300182594 646.8612581248083 533.2956699817406 644.3347872256586 565.0577062488078" stroke="#323232" stroke-width="2" fill="none"></path></g><g id="SvgjsG2990"><path id="SvgjsPath2991" d="M700.3376513187055 506.941271261102C 702.9581640023786 539.8119692673324 762.9581640023786 532.1880307326676 759.8223571074974 565.0159049828684" stroke="#323232" stroke-width="2" fill="none"></path></g><g id="SvgjsG2992" transform="translate(674,37)"><path id="SvgjsPath2993" d="M 0 0L 120 0L 120 40L 0 40Z" stroke="none" fill="none"></path><g id="SvgjsG2994"><text id="SvgjsText2995" font-family="微软雅黑" text-anchor="middle" font-size="17px" width="120px" fill="#323232" font-weight="700" align="middle" lineHeight="125%" anchor="middle" family="微软雅黑" size="17px" weight="700" font-style="" opacity="1" y="4.875" transform="rotate(0)"><tspan id="SvgjsTspan2996" dy="21" x="60"><tspan id="SvgjsTspan2997" style="text-decoration:;">minv[1] = 2</tspan></tspan></text></g></g><g id="SvgjsG2998" transform="translate(441,219)"><path id="SvgjsPath2999" d="M 0 0L 120 0L 120 40L 0 40Z" stroke="none" fill="none"></path><g id="SvgjsG3000"><text id="SvgjsText3001" font-family="微软雅黑" text-anchor="middle" font-size="17px" width="120px" fill="#323232" font-weight="700" align="middle" lineHeight="125%" anchor="middle" family="微软雅黑" size="17px" weight="700" font-style="" opacity="1" y="4.875" transform="rotate(0)"><tspan id="SvgjsTspan3002" dy="21" x="60"><tspan id="SvgjsTspan3003" style="text-decoration:;">minv[2] = 3</tspan></tspan></text></g></g><g id="SvgjsG3004" transform="translate(321,337.5)"><path id="SvgjsPath3005" d="M 0 0L 120 0L 120 40L 0 40Z" stroke="none" fill="none"></path><g id="SvgjsG3006"><text id="SvgjsText3007" font-family="微软雅黑" text-anchor="middle" font-size="17px" width="120px" fill="#323232" font-weight="700" align="middle" lineHeight="125%" anchor="middle" family="微软雅黑" size="17px" weight="700" font-style="" opacity="1" y="4.875" transform="rotate(0)"><tspan id="SvgjsTspan3008" dy="21" x="60"><tspan id="SvgjsTspan3009" style="text-decoration:;">minv[4] = 3</tspan></tspan></text></g></g><g id="SvgjsG3010" transform="translate(550,339)"><path id="SvgjsPath3011" d="M 0 0L 120 0L 120 40L 0 40Z" stroke="none" fill="none"></path><g id="SvgjsG3012"><text id="SvgjsText3013" font-family="微软雅黑" text-anchor="middle" font-size="17px" width="120px" fill="#323232" font-weight="400" align="middle" lineHeight="125%" anchor="middle" family="微软雅黑" size="17px" weight="400" font-style="" opacity="1" y="4.875" transform="rotate(0)"><tspan id="SvgjsTspan3014" dy="21" x="60"><tspan id="SvgjsTspan3015" style="text-decoration:;">minv[5] = 7</tspan></tspan></text></g></g><g id="SvgjsG3016" transform="translate(87,450)"><path id="SvgjsPath3017" d="M 0 0L 120 0L 120 40L 0 40Z" stroke="none" fill="none"></path><g id="SvgjsG3018"><text id="SvgjsText3019" font-family="微软雅黑" text-anchor="middle" font-size="17px" width="120px" fill="#323232" font-weight="700" align="middle" lineHeight="125%" anchor="middle" family="微软雅黑" size="17px" weight="700" font-style="" opacity="1" y="4.875" transform="rotate(0)"><tspan id="SvgjsTspan3020" dy="21" x="60"><tspan id="SvgjsTspan3021" style="text-decoration:;">minv[8] = 3</tspan></tspan></text></g></g><g id="SvgjsG3022" transform="translate(25,572)"><path id="SvgjsPath3023" d="M 0 0L 120 0L 120 40L 0 40Z" stroke="none" fill="none"></path><g id="SvgjsG3024"><text id="SvgjsText3025" font-family="微软雅黑" text-anchor="middle" font-size="17px" width="120px" fill="#323232" font-weight="700" align="middle" lineHeight="125%" anchor="middle" family="微软雅黑" size="17px" weight="700" font-style="" opacity="1" y="4.875" transform="rotate(0)"><tspan id="SvgjsTspan3026" dy="21" x="60"><tspan id="SvgjsTspan3027" style="text-decoration:;">minv[16] = 11</tspan></tspan></text></g></g><g id="SvgjsG3028" transform="translate(328,582)"><path id="SvgjsPath3029" d="M 0 0L 120 0L 120 40L 0 40Z" stroke="none" fill="none"></path><g id="SvgjsG3030"><text id="SvgjsText3031" font-family="微软雅黑" text-anchor="middle" font-size="17px" width="120px" fill="#323232" font-weight="400" align="middle" lineHeight="125%" anchor="middle" family="微软雅黑" size="17px" weight="400" font-style="" opacity="1" y="4.875" transform="rotate(0)"><tspan id="SvgjsTspan3032" dy="21" x="60"><tspan id="SvgjsTspan3033" style="text-decoration:;">minv[17] = 3</tspan></tspan></text></g></g><g id="SvgjsG3034" transform="translate(306,510)"><path id="SvgjsPath3035" d="M 0 0L 120 0L 120 40L 0 40Z" stroke="none" fill="none"></path><g id="SvgjsG3036"><text id="SvgjsText3037" font-family="微软雅黑" text-anchor="middle" font-size="17px" width="120px" fill="#323232" font-weight="400" align="middle" lineHeight="125%" anchor="middle" family="微软雅黑" size="17px" weight="400" font-style="" opacity="1" y="4.875" transform="rotate(0)"><tspan id="SvgjsTspan3038" dy="21" x="60"><tspan id="SvgjsTspan3039" style="text-decoration:;">minv[9] = 5</tspan></tspan></text></g></g><g id="SvgjsG3040" transform="translate(406,510)"><path id="SvgjsPath3041" d="M 0 0L 120 0L 120 40L 0 40Z" stroke="none" fill="none"></path><g id="SvgjsG3042"><text id="SvgjsText3043" font-family="微软雅黑" text-anchor="middle" font-size="17px" width="120px" fill="#323232" font-weight="400" align="middle" lineHeight="125%" anchor="middle" family="微软雅黑" size="17px" weight="400" font-style="" opacity="1" y="4.875" transform="rotate(0)"><tspan id="SvgjsTspan3044" dy="21" x="60"><tspan id="SvgjsTspan3045" style="text-decoration:;">minv[10] = 7</tspan></tspan></text></g></g><g id="SvgjsG3046" transform="translate(527,510)"><path id="SvgjsPath3047" d="M 0 0L 120 0L 120 40L 0 40Z" stroke="none" fill="none"></path><g id="SvgjsG3048"><text id="SvgjsText3049" font-family="微软雅黑" text-anchor="middle" font-size="17px" width="120px" fill="#323232" font-weight="400" align="middle" lineHeight="125%" anchor="middle" family="微软雅黑" size="17px" weight="400" font-style="" opacity="1" y="4.875" transform="rotate(0)"><tspan id="SvgjsTspan3050" dy="21" x="60"><tspan id="SvgjsTspan3051" style="text-decoration:;">minv[11] = 9</tspan></tspan></text></g></g><g id="SvgjsG3052" transform="translate(912,219)"><path id="SvgjsPath3053" d="M 0 0L 120 0L 120 40L 0 40Z" stroke="none" fill="none"></path><g id="SvgjsG3054"><text id="SvgjsText3055" font-family="微软雅黑" text-anchor="middle" font-size="17px" width="120px" fill="#323232" font-weight="400" align="middle" lineHeight="125%" anchor="middle" family="微软雅黑" size="17px" weight="400" font-style="" opacity="1" y="4.875" transform="rotate(0)"><tspan id="SvgjsTspan3056" dy="21" x="60"><tspan id="SvgjsTspan3057" style="text-decoration:;">minv[3] = 2</tspan></tspan></text></g></g><g id="SvgjsG3058" transform="translate(783,339)"><path id="SvgjsPath3059" d="M 0 0L 120 0L 120 40L 0 40Z" stroke="none" fill="none"></path><g id="SvgjsG3060"><text id="SvgjsText3061" font-family="微软雅黑" text-anchor="middle" font-size="17px" width="120px" fill="#323232" font-weight="400" align="middle" lineHeight="125%" anchor="middle" family="微软雅黑" size="17px" weight="400" font-style="" opacity="1" y="4.875" transform="rotate(0)"><tspan id="SvgjsTspan3062" dy="21" x="60"><tspan id="SvgjsTspan3063" style="text-decoration:;">minv[6] = 2</tspan></tspan></text></g></g><g id="SvgjsG3064" transform="translate(1046,339)"><path id="SvgjsPath3065" d="M 0 0L 120 0L 120 40L 0 40Z" stroke="none" fill="none"></path><g id="SvgjsG3066"><text id="SvgjsText3067" font-family="微软雅黑" text-anchor="middle" font-size="17px" width="120px" fill="#323232" font-weight="400" align="middle" lineHeight="125%" anchor="middle" family="微软雅黑" size="17px" weight="400" font-style="" opacity="1" y="4.875" transform="rotate(0)"><tspan id="SvgjsTspan3068" dy="21" x="60"><tspan id="SvgjsTspan3069" style="text-decoration:;">minv[7] = 6</tspan></tspan></text></g></g><g id="SvgjsG3070" transform="translate(599,406)"><path id="SvgjsPath3071" d="M 0 0L 120 0L 120 40L 0 40Z" stroke="none" fill="none"></path><g id="SvgjsG3072"><text id="SvgjsText3073" font-family="微软雅黑" text-anchor="middle" font-size="17px" width="120px" fill="#323232" font-weight="400" align="middle" lineHeight="125%" anchor="middle" family="微软雅黑" size="17px" weight="400" font-style="" opacity="1" y="4.875" transform="rotate(0)"><tspan id="SvgjsTspan3074" dy="21" x="60"><tspan id="SvgjsTspan3075" style="text-decoration:;">minv[12] = 2</tspan></tspan></text></g></g><g id="SvgjsG3076" transform="translate(771,510)"><path id="SvgjsPath3077" d="M 0 0L 120 0L 120 40L 0 40Z" stroke="none" fill="none"></path><g id="SvgjsG3078"><text id="SvgjsText3079" font-family="微软雅黑" text-anchor="middle" font-size="17px" width="120px" fill="#323232" font-weight="400" align="middle" lineHeight="125%" anchor="middle" family="微软雅黑" size="17px" weight="400" font-style="" opacity="1" y="4.875" transform="rotate(0)"><tspan id="SvgjsTspan3080" dy="21" x="60"><tspan id="SvgjsTspan3081" style="text-decoration:;">minv[13] = 4</tspan></tspan></text></g></g><g id="SvgjsG3082" transform="translate(890,510)"><path id="SvgjsPath3083" d="M 0 0L 120 0L 120 40L 0 40Z" stroke="none" fill="none"></path><g id="SvgjsG3084"><text id="SvgjsText3085" font-family="微软雅黑" text-anchor="middle" font-size="17px" width="120px" fill="#323232" font-weight="400" align="middle" lineHeight="125%" anchor="middle" family="微软雅黑" size="17px" weight="400" font-style="" opacity="1" y="4.875" transform="rotate(0)"><tspan id="SvgjsTspan3086" dy="21" x="60"><tspan id="SvgjsTspan3087" style="text-decoration:;">minv[14] = 8</tspan></tspan></text></g></g><g id="SvgjsG3088" transform="translate(1021,510)"><path id="SvgjsPath3089" d="M 0 0L 120 0L 120 40L 0 40Z" stroke="none" fill="none"></path><g id="SvgjsG3090"><text id="SvgjsText3091" font-family="微软雅黑" text-anchor="middle" font-size="17px" width="120px" fill="#323232" font-weight="400" align="middle" lineHeight="125%" anchor="middle" family="微软雅黑" size="17px" weight="400" font-style="" opacity="1" y="4.875" transform="rotate(0)"><tspan id="SvgjsTspan3092" dy="21" x="60"><tspan id="SvgjsTspan3093" style="text-decoration:;">minv[15] = 6</tspan></tspan></text></g></g><g id="SvgjsG3094" transform="translate(496,582)"><path id="SvgjsPath3095" d="M 0 0L 120 0L 120 40L 0 40Z" stroke="none" fill="none"></path><g id="SvgjsG3096"><text id="SvgjsText3097" font-family="微软雅黑" text-anchor="middle" font-size="17px" width="120px" fill="#323232" font-weight="400" align="middle" lineHeight="125%" anchor="middle" family="微软雅黑" size="17px" weight="400" font-style="" opacity="1" y="4.875" transform="rotate(0)"><tspan id="SvgjsTspan3098" dy="21" x="60"><tspan id="SvgjsTspan3099" style="text-decoration:;">minv[24] = 10</tspan></tspan></text></g></g><g id="SvgjsG3100" transform="translate(792,582)"><path id="SvgjsPath3101" d="M 0 0L 120 0L 120 40L 0 40Z" stroke="none" fill="none"></path><g id="SvgjsG3102"><text id="SvgjsText3103" font-family="微软雅黑" text-anchor="middle" font-size="17px" width="120px" fill="#323232" font-weight="400" align="middle" lineHeight="125%" anchor="middle" family="微软雅黑" size="17px" weight="400" font-style="" opacity="1" y="4.875" transform="rotate(0)"><tspan id="SvgjsTspan3104" dy="21" x="60"><tspan id="SvgjsTspan3105" style="text-decoration:;">minv[25] = 2</tspan></tspan></text></g></g></svg>