<svg id="SvgjsSvg1006" width="661.2890625" height="197" xmlns="http://www.w3.org/2000/svg" version="1.1" xmlns:xlink="http://www.w3.org/1999/xlink" xmlns:svgjs="http://svgjs.com/svgjs"><defs id="SvgjsDefs1007"></defs><g id="SvgjsG1008" transform="translate(126,25)"><path id="SvgjsPath1009" d="M 0 4Q 0 0 4 0L 56 0Q 60 0 60 4L 60 56Q 60 60 56 60L 4 60Q 0 60 0 56Z" stroke="rgba(50,50,50,1)" stroke-width="2" fill-opacity="1" fill="#c8e6c9"></path><g id="SvgjsG1010"><text id="SvgjsText1011" font-family="微软雅黑" text-anchor="middle" font-size="18px" width="40px" fill="#323232" font-weight="400" align="middle" lineHeight="125%" anchor="middle" family="微软雅黑" size="18px" weight="400" font-style="" opacity="1" y="14.25" transform="rotate(0)"><tspan id="SvgjsTspan1012" dy="22" x="30"><tspan id="SvgjsTspan1013" style="text-decoration:;">H</tspan></tspan></text></g></g><g id="SvgjsG1014" transform="translate(216,25)"><path id="SvgjsPath1015" d="M 0 4Q 0 0 4 0L 56 0Q 60 0 60 4L 60 56Q 60 60 56 60L 4 60Q 0 60 0 56Z" stroke="rgba(50,50,50,1)" stroke-width="2" fill-opacity="1" fill="#c8e6c9"></path><g id="SvgjsG1016"><text id="SvgjsText1017" font-family="微软雅黑" text-anchor="middle" font-size="18px" width="40px" fill="#323232" font-weight="400" align="middle" lineHeight="125%" anchor="middle" family="微软雅黑" size="18px" weight="400" font-style="" opacity="1" y="14.25" transform="rotate(0)"><tspan id="SvgjsTspan1018" dy="22" x="30"><tspan id="SvgjsTspan1019" style="text-decoration:;">E</tspan></tspan></text></g></g><g id="SvgjsG1020" transform="translate(306,25)"><path id="SvgjsPath1021" d="M 0 4Q 0 0 4 0L 56 0Q 60 0 60 4L 60 56Q 60 60 56 60L 4 60Q 0 60 0 56Z" stroke="rgba(50,50,50,1)" stroke-width="2" fill-opacity="1" fill="#c8e6c9"></path><g id="SvgjsG1022"><text id="SvgjsText1023" font-family="微软雅黑" text-anchor="middle" font-size="18px" width="40px" fill="#323232" font-weight="400" align="middle" lineHeight="125%" anchor="middle" family="微软雅黑" size="18px" weight="400" font-style="" opacity="1" y="14.25" transform="rotate(0)"><tspan id="SvgjsTspan1024" dy="22" x="30"><tspan id="SvgjsTspan1025" style="text-decoration:;">L</tspan></tspan></text></g></g><g id="SvgjsG1026" transform="translate(396,25)"><path id="SvgjsPath1027" d="M 0 4Q 0 0 4 0L 56 0Q 60 0 60 4L 60 56Q 60 60 56 60L 4 60Q 0 60 0 56Z" stroke="rgba(50,50,50,1)" stroke-width="2" fill-opacity="1" fill="#c8e6c9"></path><g id="SvgjsG1028"><text id="SvgjsText1029" font-family="微软雅黑" text-anchor="middle" font-size="18px" width="40px" fill="#323232" font-weight="400" align="middle" lineHeight="125%" anchor="middle" family="微软雅黑" size="18px" weight="400" font-style="" opacity="1" y="14.25" transform="rotate(0)"><tspan id="SvgjsTspan1030" dy="22" x="30"><tspan id="SvgjsTspan1031" style="text-decoration:;">L</tspan></tspan></text></g></g><g id="SvgjsG1032" transform="translate(486,25)"><path id="SvgjsPath1033" d="M 0 4Q 0 0 4 0L 56 0Q 60 0 60 4L 60 56Q 60 60 56 60L 4 60Q 0 60 0 56Z" stroke="rgba(50,50,50,1)" stroke-width="2" fill-opacity="1" fill="#c8e6c9"></path><g id="SvgjsG1034"><text id="SvgjsText1035" font-family="微软雅黑" text-anchor="middle" font-size="18px" width="40px" fill="#323232" font-weight="400" align="middle" lineHeight="125%" anchor="middle" family="微软雅黑" size="18px" weight="400" font-style="" opacity="1" y="14.25" transform="rotate(0)"><tspan id="SvgjsTspan1036" dy="22" x="30"><tspan id="SvgjsTspan1037" style="text-decoration:;">O</tspan></tspan></text></g></g><g id="SvgjsG1038" transform="translate(576,25)"><path id="SvgjsPath1039" d="M 0 4Q 0 0 4 0L 56 0Q 60 0 60 4L 60 56Q 60 60 56 60L 4 60Q 0 60 0 56Z" stroke="rgba(50,50,50,1)" stroke-width="2" fill-opacity="1" fill="#c8e6c9"></path><g id="SvgjsG1040"><text id="SvgjsText1041" font-family="微软雅黑" text-anchor="middle" font-size="18px" width="40px" fill="#323232" font-weight="700" align="middle" lineHeight="125%" anchor="middle" family="微软雅黑" size="18px" weight="700" font-style="" opacity="1" y="14.25" transform="rotate(0)"><tspan id="SvgjsTspan1042" dy="22" x="30"><tspan id="SvgjsTspan1043" style="text-decoration:;">'\0'</tspan></tspan></text></g></g><g id="SvgjsG1044" transform="translate(128.5,138)"><path id="SvgjsPath1045" d="M 0 4Q 0 0 4 0L 55.705882352941174 0Q 59.705882352941174 0 59.705882352941174 4L 59.705882352941174 24Q 59.705882352941174 28 55.705882352941174 28L 4 28Q 0 28 0 24Z" stroke="rgba(50,50,50,1)" stroke-width="2" fill-opacity="1" fill="#ffe0b2"></path><g id="SvgjsG1046"><text id="SvgjsText1047" font-family="微软雅黑" text-anchor="middle" font-size="18px" width="40px" fill="#323232" font-weight="400" align="middle" lineHeight="125%" anchor="middle" family="微软雅黑" size="18px" weight="400" font-style="" opacity="1" y="-1.75" transform="rotate(0)"><tspan id="SvgjsTspan1048" dy="22" x="30"><tspan id="SvgjsTspan1049" style="text-decoration:;">0</tspan></tspan></text></g></g><g id="SvgjsG1050" transform="translate(218.05882352941177,138)"><path id="SvgjsPath1051" d="M 0 4Q 0 0 4 0L 55.705882352941174 0Q 59.705882352941174 0 59.705882352941174 4L 59.705882352941174 24Q 59.705882352941174 28 55.705882352941174 28L 4 28Q 0 28 0 24Z" stroke="rgba(50,50,50,1)" stroke-width="2" fill-opacity="1" fill="#ffe0b2"></path><g id="SvgjsG1052"><text id="SvgjsText1053" font-family="微软雅黑" text-anchor="middle" font-size="18px" width="40px" fill="#323232" font-weight="400" align="middle" lineHeight="125%" anchor="middle" family="微软雅黑" size="18px" weight="400" font-style="" opacity="1" y="-1.75" transform="rotate(0)"><tspan id="SvgjsTspan1054" dy="22" x="30"><tspan id="SvgjsTspan1055" style="text-decoration:;">1</tspan></tspan></text></g></g><g id="SvgjsG1056" transform="translate(307.61764705882354,138)"><path id="SvgjsPath1057" d="M 0 4Q 0 0 4 0L 55.705882352941174 0Q 59.705882352941174 0 59.705882352941174 4L 59.705882352941174 24Q 59.705882352941174 28 55.705882352941174 28L 4 28Q 0 28 0 24Z" stroke="rgba(50,50,50,1)" stroke-width="2" fill-opacity="1" fill="#ffe0b2"></path><g id="SvgjsG1058"><text id="SvgjsText1059" font-family="微软雅黑" text-anchor="middle" font-size="18px" width="40px" fill="#323232" font-weight="400" align="middle" lineHeight="125%" anchor="middle" family="微软雅黑" size="18px" weight="400" font-style="" opacity="1" y="-1.75" transform="rotate(0)"><tspan id="SvgjsTspan1060" dy="22" x="30"><tspan id="SvgjsTspan1061" style="text-decoration:;">2</tspan></tspan></text></g></g><g id="SvgjsG1062" transform="translate(397.1764705882353,138)"><path id="SvgjsPath1063" d="M 0 4Q 0 0 4 0L 55.705882352941174 0Q 59.705882352941174 0 59.705882352941174 4L 59.705882352941174 24Q 59.705882352941174 28 55.705882352941174 28L 4 28Q 0 28 0 24Z" stroke="rgba(50,50,50,1)" stroke-width="2" fill-opacity="1" fill="#ffe0b2"></path><g id="SvgjsG1064"><text id="SvgjsText1065" font-family="微软雅黑" text-anchor="middle" font-size="18px" width="40px" fill="#323232" font-weight="400" align="middle" lineHeight="125%" anchor="middle" family="微软雅黑" size="18px" weight="400" font-style="" opacity="1" y="-1.75" transform="rotate(0)"><tspan id="SvgjsTspan1066" dy="22" x="30"><tspan id="SvgjsTspan1067" style="text-decoration:;">3</tspan></tspan></text></g></g><g id="SvgjsG1068" transform="translate(486.7352941176471,138)"><path id="SvgjsPath1069" d="M 0 4Q 0 0 4 0L 55.705882352941174 0Q 59.705882352941174 0 59.705882352941174 4L 59.705882352941174 24Q 59.705882352941174 28 55.705882352941174 28L 4 28Q 0 28 0 24Z" stroke="rgba(50,50,50,1)" stroke-width="2" fill-opacity="1" fill="#ffe0b2"></path><g id="SvgjsG1070"><text id="SvgjsText1071" font-family="微软雅黑" text-anchor="middle" font-size="18px" width="40px" fill="#323232" font-weight="400" align="middle" lineHeight="125%" anchor="middle" family="微软雅黑" size="18px" weight="400" font-style="" opacity="1" y="-1.75" transform="rotate(0)"><tspan id="SvgjsTspan1072" dy="22" x="30"><tspan id="SvgjsTspan1073" style="text-decoration:;">4</tspan></tspan></text></g></g><g id="SvgjsG1074" transform="translate(576.2941176470588,138)"><path id="SvgjsPath1075" d="M 0 4Q 0 0 4 0L 55.705882352941174 0Q 59.705882352941174 0 59.705882352941174 4L 59.705882352941174 24Q 59.705882352941174 28 55.705882352941174 28L 4 28Q 0 28 0 24Z" stroke="rgba(50,50,50,1)" stroke-width="2" fill-opacity="1" fill="#ffe0b2"></path><g id="SvgjsG1076"><text id="SvgjsText1077" font-family="微软雅黑" text-anchor="middle" font-size="18px" width="40px" fill="#323232" font-weight="400" align="middle" lineHeight="125%" anchor="middle" family="微软雅黑" size="18px" weight="400" font-style="" opacity="1" y="-1.75" transform="rotate(0)"><tspan id="SvgjsTspan1078" dy="22" x="30"><tspan id="SvgjsTspan1079" style="text-decoration:;">5</tspan></tspan></text></g></g><g id="SvgjsG1080" transform="translate(25,35)"><path id="SvgjsPath1081" d="M 0 0L 120 0L 120 40L 0 40Z" stroke="none" fill="none"></path><g id="SvgjsG1082"><text id="SvgjsText1083" font-family="微软雅黑" text-anchor="middle" font-size="17px" width="120px" fill="#323232" font-weight="400" align="middle" lineHeight="125%" anchor="middle" family="微软雅黑" size="17px" weight="400" font-style="" opacity="1" y="4.875" transform="rotate(0)"><tspan id="SvgjsTspan1084" dy="21" x="60"><tspan id="SvgjsTspan1085" style="text-decoration:;">变量</tspan></tspan></text></g></g><g id="SvgjsG1086" transform="translate(25,132)"><path id="SvgjsPath1087" d="M 0 0L 120 0L 120 40L 0 40Z" stroke="none" fill="none"></path><g id="SvgjsG1088"><text id="SvgjsText1089" font-family="微软雅黑" text-anchor="middle" font-size="17px" width="120px" fill="#323232" font-weight="400" align="middle" lineHeight="125%" anchor="middle" family="微软雅黑" size="17px" weight="400" font-style="" opacity="1" y="4.875" transform="rotate(0)"><tspan id="SvgjsTspan1090" dy="21" x="60"><tspan id="SvgjsTspan1091" style="text-decoration:;">索引</tspan></tspan></text></g></g></svg>