<svg id="SvgjsSvg2954" width="810" height="516" xmlns="http://www.w3.org/2000/svg" version="1.1" xmlns:xlink="http://www.w3.org/1999/xlink" xmlns:svgjs="http://svgjs.com/svgjs"><defs id="SvgjsDefs2955"><marker id="SvgjsMarker3054" markerWidth="14" markerHeight="10" refX="4" refY="5" viewBox="0 0 14 10" orient="auto" markerUnits="userSpaceOnUse" stroke-dasharray="0,0"><path id="SvgjsPath3055" d="M14,0 L0,5 L14,10 L14,0" fill="#323232" stroke="#323232" stroke-width="1"></path></marker><marker id="SvgjsMarker3058" markerWidth="14" markerHeight="10" refX="10" refY="5" viewBox="0 0 14 10" orient="auto" markerUnits="userSpaceOnUse" stroke-dasharray="0,0"><path id="SvgjsPath3059" d="M0,0 L14,5 L0,10 L0,0" fill="#323232" stroke="#323232" stroke-width="1"></path></marker><marker id="SvgjsMarker3062" markerWidth="14" markerHeight="10" refX="10" refY="5" viewBox="0 0 14 10" orient="auto" markerUnits="userSpaceOnUse" stroke-dasharray="0,0"><path id="SvgjsPath3063" d="M0,0 L14,5 L0,10 L0,0" fill="#323232" stroke="#323232" stroke-width="1"></path></marker><marker id="SvgjsMarker3066" markerWidth="14" markerHeight="10" refX="10" refY="5" viewBox="0 0 14 10" orient="auto" markerUnits="userSpaceOnUse" stroke-dasharray="0,0"><path id="SvgjsPath3067" d="M0,0 L14,5 L0,10 L0,0" fill="#323232" stroke="#323232" stroke-width="1"></path></marker><marker id="SvgjsMarker3070" markerWidth="14" markerHeight="10" refX="10" refY="5" viewBox="0 0 14 10" orient="auto" markerUnits="userSpaceOnUse" stroke-dasharray="0,0"><path id="SvgjsPath3071" d="M0,0 L14,5 L0,10 L0,0" fill="#323232" stroke="#323232" stroke-width="1"></path></marker><marker id="SvgjsMarker3074" markerWidth="14" markerHeight="10" refX="10" refY="5" viewBox="0 0 14 10" orient="auto" markerUnits="userSpaceOnUse" stroke-dasharray="0,0"><path id="SvgjsPath3075" d="M0,0 L14,5 L0,10 L0,0" fill="#323232" stroke="#323232" stroke-width="1"></path></marker><marker id="SvgjsMarker3078" markerWidth="14" markerHeight="10" refX="10" refY="5" viewBox="0 0 14 10" orient="auto" markerUnits="userSpaceOnUse" stroke-dasharray="0,0"><path id="SvgjsPath3079" d="M0,0 L14,5 L0,10 L0,0" fill="#323232" stroke="#323232" stroke-width="1"></path></marker><marker id="SvgjsMarker3082" markerWidth="14" markerHeight="10" refX="10" refY="5" viewBox="0 0 14 10" orient="auto" markerUnits="userSpaceOnUse" stroke-dasharray="0,0"><path id="SvgjsPath3083" d="M0,0 L14,5 L0,10 L0,0" fill="#323232" stroke="#323232" stroke-width="1"></path></marker></defs><g id="SvgjsG2956" transform="translate(25,431)"><path id="SvgjsPath2957" d="M 0 4Q 0 0 4 0L 56 0Q 60 0 60 4L 60 56Q 60 60 56 60L 4 60Q 0 60 0 56Z" stroke="rgba(50,50,50,1)" stroke-width="2" fill-opacity="1" fill="#fff9c4"></path><g id="SvgjsG2958"><text id="SvgjsText2959" font-family="微软雅黑" text-anchor="middle" font-size="20px" width="40px" fill="#323232" font-weight="400" align="middle" lineHeight="125%" anchor="middle" family="微软雅黑" size="20px" weight="400" font-style="" opacity="1" y="12" transform="rotate(0)"><tspan id="SvgjsTspan2960" dy="25" x="30"><tspan id="SvgjsTspan2961" style="text-decoration:;">A1</tspan></tspan></text></g></g><g id="SvgjsG2962" transform="translate(125,431)"><path id="SvgjsPath2963" d="M 0 4Q 0 0 4 0L 56 0Q 60 0 60 4L 60 56Q 60 60 56 60L 4 60Q 0 60 0 56Z" stroke="rgba(50,50,50,1)" stroke-width="2" fill-opacity="1" fill="#fff9c4"></path><g id="SvgjsG2964"><text id="SvgjsText2965" font-family="微软雅黑" text-anchor="middle" font-size="20px" width="40px" fill="#323232" font-weight="400" align="middle" lineHeight="125%" anchor="middle" family="微软雅黑" size="20px" weight="400" font-style="" opacity="1" y="12" transform="rotate(0)"><tspan id="SvgjsTspan2966" dy="25" x="30"><tspan id="SvgjsTspan2967" style="text-decoration:;">A2</tspan></tspan></text></g></g><g id="SvgjsG2968" transform="translate(225,431)"><path id="SvgjsPath2969" d="M 0 4Q 0 0 4 0L 56 0Q 60 0 60 4L 60 56Q 60 60 56 60L 4 60Q 0 60 0 56Z" stroke="rgba(50,50,50,1)" stroke-width="2" fill-opacity="1" fill="#fff9c4"></path><g id="SvgjsG2970"><text id="SvgjsText2971" font-family="微软雅黑" text-anchor="middle" font-size="20px" width="40px" fill="#323232" font-weight="400" align="middle" lineHeight="125%" anchor="middle" family="微软雅黑" size="20px" weight="400" font-style="" opacity="1" y="12" transform="rotate(0)"><tspan id="SvgjsTspan2972" dy="25" x="30"><tspan id="SvgjsTspan2973" style="text-decoration:;">A3</tspan></tspan></text></g></g><g id="SvgjsG2974" transform="translate(325,431)"><path id="SvgjsPath2975" d="M 0 4Q 0 0 4 0L 56 0Q 60 0 60 4L 60 56Q 60 60 56 60L 4 60Q 0 60 0 56Z" stroke="rgba(50,50,50,1)" stroke-width="2" fill-opacity="1" fill="#fff9c4"></path><g id="SvgjsG2976"><text id="SvgjsText2977" font-family="微软雅黑" text-anchor="middle" font-size="20px" width="40px" fill="#323232" font-weight="400" align="middle" lineHeight="125%" anchor="middle" family="微软雅黑" size="20px" weight="400" font-style="" opacity="1" y="12" transform="rotate(0)"><tspan id="SvgjsTspan2978" dy="25" x="30"><tspan id="SvgjsTspan2979" style="text-decoration:;">A4</tspan></tspan></text></g></g><g id="SvgjsG2980" transform="translate(425,431)"><path id="SvgjsPath2981" d="M 0 4Q 0 0 4 0L 56 0Q 60 0 60 4L 60 56Q 60 60 56 60L 4 60Q 0 60 0 56Z" stroke="rgba(50,50,50,1)" stroke-width="2" fill-opacity="1" fill="#fff9c4"></path><g id="SvgjsG2982"><text id="SvgjsText2983" font-family="微软雅黑" text-anchor="middle" font-size="20px" width="40px" fill="#323232" font-weight="400" align="middle" lineHeight="125%" anchor="middle" family="微软雅黑" size="20px" weight="400" font-style="" opacity="1" y="12" transform="rotate(0)"><tspan id="SvgjsTspan2984" dy="25" x="30"><tspan id="SvgjsTspan2985" style="text-decoration:;">A5</tspan></tspan></text></g></g><g id="SvgjsG2986" transform="translate(525,431)"><path id="SvgjsPath2987" d="M 0 4Q 0 0 4 0L 56 0Q 60 0 60 4L 60 56Q 60 60 56 60L 4 60Q 0 60 0 56Z" stroke="rgba(50,50,50,1)" stroke-width="2" fill-opacity="1" fill="#fff9c4"></path><g id="SvgjsG2988"><text id="SvgjsText2989" font-family="微软雅黑" text-anchor="middle" font-size="20px" width="40px" fill="#323232" font-weight="400" align="middle" lineHeight="125%" anchor="middle" family="微软雅黑" size="20px" weight="400" font-style="" opacity="1" y="12" transform="rotate(0)"><tspan id="SvgjsTspan2990" dy="25" x="30"><tspan id="SvgjsTspan2991" style="text-decoration:;">A6</tspan></tspan></text></g></g><g id="SvgjsG2992" transform="translate(625,431)"><path id="SvgjsPath2993" d="M 0 4Q 0 0 4 0L 56 0Q 60 0 60 4L 60 56Q 60 60 56 60L 4 60Q 0 60 0 56Z" stroke="rgba(50,50,50,1)" stroke-width="2" fill-opacity="1" fill="#fff9c4"></path><g id="SvgjsG2994"><text id="SvgjsText2995" font-family="微软雅黑" text-anchor="middle" font-size="20px" width="40px" fill="#323232" font-weight="400" align="middle" lineHeight="125%" anchor="middle" family="微软雅黑" size="20px" weight="400" font-style="" opacity="1" y="12" transform="rotate(0)"><tspan id="SvgjsTspan2996" dy="25" x="30"><tspan id="SvgjsTspan2997" style="text-decoration:;">A7</tspan></tspan></text></g></g><g id="SvgjsG2998" transform="translate(725,431)"><path id="SvgjsPath2999" d="M 0 4Q 0 0 4 0L 56 0Q 60 0 60 4L 60 56Q 60 60 56 60L 4 60Q 0 60 0 56Z" stroke="rgba(50,50,50,1)" stroke-width="2" fill-opacity="1" fill="#fff9c4"></path><g id="SvgjsG3000"><text id="SvgjsText3001" font-family="微软雅黑" text-anchor="middle" font-size="20px" width="40px" fill="#323232" font-weight="400" align="middle" lineHeight="125%" anchor="middle" family="微软雅黑" size="20px" weight="400" font-style="" opacity="1" y="12" transform="rotate(0)"><tspan id="SvgjsTspan3002" dy="25" x="30"><tspan id="SvgjsTspan3003" style="text-decoration:;">A8</tspan></tspan></text></g></g><g id="SvgjsG3004" transform="translate(25,330)"><path id="SvgjsPath3005" d="M 0 30C 0 -10 60 -10 60 30C 60 70 0 70 0 30Z" stroke="rgba(50,50,50,1)" stroke-width="2" fill-opacity="1" fill="#c8e6c9"></path><g id="SvgjsG3006"><text id="SvgjsText3007" font-family="微软雅黑" text-anchor="middle" font-size="20px" width="40px" fill="#323232" font-weight="700" align="middle" lineHeight="125%" anchor="middle" family="微软雅黑" size="20px" weight="700" font-style="" opacity="1" y="12" transform="rotate(0)"><tspan id="SvgjsTspan3008" dy="25" x="30"><tspan id="SvgjsTspan3009" style="text-decoration:;">C1</tspan></tspan></text></g></g><g id="SvgjsG3010" transform="translate(225,330)"><path id="SvgjsPath3011" d="M 0 30C 0 -10 60 -10 60 30C 60 70 0 70 0 30Z" stroke="rgba(50,50,50,1)" stroke-width="2" fill-opacity="1" fill="#c8e6c9"></path><g id="SvgjsG3012"><text id="SvgjsText3013" font-family="微软雅黑" text-anchor="middle" font-size="20px" width="40px" fill="#323232" font-weight="700" align="middle" lineHeight="125%" anchor="middle" family="微软雅黑" size="20px" weight="700" font-style="" opacity="1" y="12" transform="rotate(0)"><tspan id="SvgjsTspan3014" dy="25" x="30"><tspan id="SvgjsTspan3015" style="text-decoration:;">C3</tspan></tspan></text></g></g><g id="SvgjsG3016" transform="translate(425,330)"><path id="SvgjsPath3017" d="M 0 30C 0 -10 60 -10 60 30C 60 70 0 70 0 30Z" stroke="rgba(50,50,50,1)" stroke-width="2" fill-opacity="1" fill="#c8e6c9"></path><g id="SvgjsG3018"><text id="SvgjsText3019" font-family="微软雅黑" text-anchor="middle" font-size="20px" width="40px" fill="#323232" font-weight="700" align="middle" lineHeight="125%" anchor="middle" family="微软雅黑" size="20px" weight="700" font-style="" opacity="1" y="12" transform="rotate(0)"><tspan id="SvgjsTspan3020" dy="25" x="30"><tspan id="SvgjsTspan3021" style="text-decoration:;">C5</tspan></tspan></text></g></g><g id="SvgjsG3022" transform="translate(625,330)"><path id="SvgjsPath3023" d="M 0 30C 0 -10 60 -10 60 30C 60 70 0 70 0 30Z" stroke="rgba(50,50,50,1)" stroke-width="2" fill-opacity="1" fill="#c8e6c9"></path><g id="SvgjsG3024"><text id="SvgjsText3025" font-family="微软雅黑" text-anchor="middle" font-size="20px" width="40px" fill="#323232" font-weight="700" align="middle" lineHeight="125%" anchor="middle" family="微软雅黑" size="20px" weight="700" font-style="" opacity="1" y="12" transform="rotate(0)"><tspan id="SvgjsTspan3026" dy="25" x="30"><tspan id="SvgjsTspan3027" style="text-decoration:;">C7</tspan></tspan></text></g></g><g id="SvgjsG3028" transform="translate(125,224)"><path id="SvgjsPath3029" d="M 0 30C 0 -10 60 -10 60 30C 60 70 0 70 0 30Z" stroke="rgba(50,50,50,1)" stroke-width="2" fill-opacity="1" fill="#c8e6c9"></path><g id="SvgjsG3030"><text id="SvgjsText3031" font-family="微软雅黑" text-anchor="middle" font-size="20px" width="40px" fill="#323232" font-weight="700" align="middle" lineHeight="125%" anchor="middle" family="微软雅黑" size="20px" weight="700" font-style="" opacity="1" y="12" transform="rotate(0)"><tspan id="SvgjsTspan3032" dy="25" x="30"><tspan id="SvgjsTspan3033" style="text-decoration:;">C2</tspan></tspan></text></g></g><g id="SvgjsG3034" transform="translate(525,224)"><path id="SvgjsPath3035" d="M 0 30C 0 -10 60 -10 60 30C 60 70 0 70 0 30Z" stroke="rgba(50,50,50,1)" stroke-width="2" fill-opacity="1" fill="#c8e6c9"></path><g id="SvgjsG3036"><text id="SvgjsText3037" font-family="微软雅黑" text-anchor="middle" font-size="20px" width="40px" fill="#323232" font-weight="700" align="middle" lineHeight="125%" anchor="middle" family="微软雅黑" size="20px" weight="700" font-style="" opacity="1" y="12" transform="rotate(0)"><tspan id="SvgjsTspan3038" dy="25" x="30"><tspan id="SvgjsTspan3039" style="text-decoration:;">C6</tspan></tspan></text></g></g><g id="SvgjsG3040" transform="translate(325,123)"><path id="SvgjsPath3041" d="M 0 30C 0 -10 60 -10 60 30C 60 70 0 70 0 30Z" stroke="rgba(50,50,50,1)" stroke-width="2" fill-opacity="1" fill="#c8e6c9"></path><g id="SvgjsG3042"><text id="SvgjsText3043" font-family="微软雅黑" text-anchor="middle" font-size="20px" width="40px" fill="#323232" font-weight="700" align="middle" lineHeight="125%" anchor="middle" family="微软雅黑" size="20px" weight="700" font-style="" opacity="1" y="12" transform="rotate(0)"><tspan id="SvgjsTspan3044" dy="25" x="30"><tspan id="SvgjsTspan3045" style="text-decoration:;">C4</tspan></tspan></text></g></g><g id="SvgjsG3046" transform="translate(725,25)"><path id="SvgjsPath3047" d="M 0 30C 0 -10 60 -10 60 30C 60 70 0 70 0 30Z" stroke="rgba(50,50,50,1)" stroke-width="2" fill-opacity="1" fill="#c8e6c9"></path><g id="SvgjsG3048"><text id="SvgjsText3049" font-family="微软雅黑" text-anchor="middle" font-size="20px" width="40px" fill="#323232" font-weight="700" align="middle" lineHeight="125%" anchor="middle" family="微软雅黑" size="20px" weight="700" font-style="" opacity="1" y="12" transform="rotate(0)"><tspan id="SvgjsTspan3050" dy="25" x="30"><tspan id="SvgjsTspan3051" style="text-decoration:;">C8</tspan></tspan></text></g></g><g id="SvgjsG3052"><path id="SvgjsPath3053" d="M55 393.6L55 430" stroke="#323232" stroke-width="2" fill="none" marker-start="url(#SvgjsMarker3054)"></path></g><g id="SvgjsG3056"><path id="SvgjsPath3057" d="M155 430L155 287.6" stroke="#323232" stroke-width="2" fill="none" marker-end="url(#SvgjsMarker3058)"></path></g><g id="SvgjsG3060"><path id="SvgjsPath3061" d="M255 430L255 393.6" stroke="#323232" stroke-width="2" fill="none" marker-end="url(#SvgjsMarker3062)"></path></g><g id="SvgjsG3064"><path id="SvgjsPath3065" d="M355 430L355 186.60000000000002" stroke="#323232" stroke-width="2" fill="none" marker-end="url(#SvgjsMarker3066)"></path></g><g id="SvgjsG3068"><path id="SvgjsPath3069" d="M455 430L455 393.6" stroke="#323232" stroke-width="2" fill="none" marker-end="url(#SvgjsMarker3070)"></path></g><g id="SvgjsG3072"><path id="SvgjsPath3073" d="M555 430L555 287.6" stroke="#323232" stroke-width="2" fill="none" marker-end="url(#SvgjsMarker3074)"></path></g><g id="SvgjsG3076"><path id="SvgjsPath3077" d="M655 430L655 393.6" stroke="#323232" stroke-width="2" fill="none" marker-end="url(#SvgjsMarker3078)"></path></g><g id="SvgjsG3080"><path id="SvgjsPath3081" d="M755 430L755 88.6" stroke="#323232" stroke-width="2" fill="none" marker-end="url(#SvgjsMarker3082)"></path></g><g id="SvgjsG3084"><path id="SvgjsPath3085" d="M55.90849045267856 329.58209439176784L154.09150954732144 284.41790560823216" stroke="#323232" stroke-width="2" fill="none"></path></g><g id="SvgjsG3086"><path id="SvgjsPath3087" d="M155.9796274156859 223.7991763797844L354.02037258431403 183.2008236202156" stroke="#323232" stroke-width="2" fill="none"></path></g><g id="SvgjsG3088"><path id="SvgjsPath3089" d="M255.562463858464 329.17317812805794L354.43753614153604 183.82682187194206" stroke="#323232" stroke-width="2" fill="none"></path></g><g id="SvgjsG3090"><path id="SvgjsPath3091" d="M455.9084904526786 329.58209439176784L554.0915095473214 284.41790560823216" stroke="#323232" stroke-width="2" fill="none"></path></g><g id="SvgjsG3092"><path id="SvgjsPath3093" d="M655.3778969974267 329.0741523563048L754.6221030025733 85.92584764369519" stroke="#323232" stroke-width="2" fill="none"></path></g><g id="SvgjsG3094"><path id="SvgjsPath3095" d="M555.821156176575 223.42929645728037L754.178843823425 85.57070354271963" stroke="#323232" stroke-width="2" fill="none"></path></g><g id="SvgjsG3096"><path id="SvgjsPath3097" d="M355.9955178160676 122.90542580747359L754.0044821839324 85.09457419252641" stroke="#323232" stroke-width="2" fill="none"></path></g></svg>