<svg id="SvgjsSvg1006" width="1029" height="439.25" xmlns="http://www.w3.org/2000/svg" version="1.1" xmlns:xlink="http://www.w3.org/1999/xlink" xmlns:svgjs="http://svgjs.com/svgjs"><defs id="SvgjsDefs1007"><marker id="SvgjsMarker1064" markerWidth="14" markerHeight="10" refX="10" refY="5" viewBox="0 0 14 10" orient="auto" markerUnits="userSpaceOnUse" stroke-dasharray="0,0"><path id="SvgjsPath1065" d="M0,0 L14,5 L0,10 L0,0" fill="#323232" stroke="#323232" stroke-width="1"></path></marker><marker id="SvgjsMarker1068" markerWidth="14" markerHeight="10" refX="10" refY="5" viewBox="0 0 14 10" orient="auto" markerUnits="userSpaceOnUse" stroke-dasharray="0,0"><path id="SvgjsPath1069" d="M0,0 L14,5 L0,10 L0,0" fill="#323232" stroke="#323232" stroke-width="1"></path></marker><marker id="SvgjsMarker1072" markerWidth="14" markerHeight="10" refX="10" refY="5" viewBox="0 0 14 10" orient="auto" markerUnits="userSpaceOnUse" stroke-dasharray="0,0"><path id="SvgjsPath1073" d="M0,0 L14,5 L0,10 L0,0" fill="#323232" stroke="#323232" stroke-width="1"></path></marker><marker id="SvgjsMarker1076" markerWidth="14" markerHeight="10" refX="10" refY="5" viewBox="0 0 14 10" orient="auto" markerUnits="userSpaceOnUse" stroke-dasharray="0,0"><path id="SvgjsPath1077" d="M0,0 L14,5 L0,10 L0,0" fill="#323232" stroke="#323232" stroke-width="1"></path></marker><marker id="SvgjsMarker1080" markerWidth="14" markerHeight="10" refX="10" refY="5" viewBox="0 0 14 10" orient="auto" markerUnits="userSpaceOnUse" stroke-dasharray="0,0"><path id="SvgjsPath1081" d="M0,0 L14,5 L0,10 L0,0" fill="#323232" stroke="#323232" stroke-width="1"></path></marker><marker id="SvgjsMarker1084" markerWidth="14" markerHeight="10" refX="10" refY="5" viewBox="0 0 14 10" orient="auto" markerUnits="userSpaceOnUse" stroke-dasharray="0,0"><path id="SvgjsPath1085" d="M0,0 L14,5 L0,10 L0,0" fill="#323232" stroke="#323232" stroke-width="1"></path></marker><marker id="SvgjsMarker1088" markerWidth="14" markerHeight="10" refX="10" refY="5" viewBox="0 0 14 10" orient="auto" markerUnits="userSpaceOnUse" stroke-dasharray="0,0"><path id="SvgjsPath1089" d="M0,0 L14,5 L0,10 L0,0" fill="#323232" stroke="#323232" stroke-width="1"></path></marker><marker id="SvgjsMarker1092" markerWidth="14" markerHeight="10" refX="10" refY="5" viewBox="0 0 14 10" orient="auto" markerUnits="userSpaceOnUse" stroke-dasharray="0,0"><path id="SvgjsPath1093" d="M0,0 L14,5 L0,10 L0,0" fill="#323232" stroke="#323232" stroke-width="1"></path></marker></defs><g id="SvgjsG1008" transform="translate(167,165)"><path id="SvgjsPath1009" d="M 0 4Q 0 0 4 0L 76 0Q 80 0 80 4L 80 46Q 80 50 76 50L 4 50Q 0 50 0 46Z" stroke="rgba(50,50,50,1)" stroke-width="2" fill-opacity="1" fill="#81c784"></path><g id="SvgjsG1010"><text id="SvgjsText1011" font-family="微软雅黑" text-anchor="middle" font-size="15px" width="60px" fill="#323232" font-weight="400" align="middle" lineHeight="125%" anchor="middle" family="微软雅黑" size="15px" weight="400" font-style="" opacity="1" y="12.625" transform="rotate(0)"><tspan id="SvgjsTspan1012" dy="18" x="40"><tspan id="SvgjsTspan1013" style="text-decoration:;">a4735</tspan></tspan></text></g></g><g id="SvgjsG1014" transform="translate(297,165)"><path id="SvgjsPath1015" d="M 0 4Q 0 0 4 0L 76 0Q 80 0 80 4L 80 46Q 80 50 76 50L 4 50Q 0 50 0 46Z" stroke="rgba(50,50,50,1)" stroke-width="2" fill-opacity="1" fill="#81c784"></path><g id="SvgjsG1016"><text id="SvgjsText1017" font-family="微软雅黑" text-anchor="middle" font-size="15px" width="60px" fill="#323232" font-weight="400" align="middle" lineHeight="125%" anchor="middle" family="微软雅黑" size="15px" weight="400" font-style="" opacity="1" y="12.625" transform="rotate(0)"><tspan id="SvgjsTspan1018" dy="18" x="40"><tspan id="SvgjsTspan1019" style="text-decoration:;">b35w6</tspan></tspan></text></g></g><g id="SvgjsG1020" transform="translate(427,165)"><path id="SvgjsPath1021" d="M 0 4Q 0 0 4 0L 76 0Q 80 0 80 4L 80 46Q 80 50 76 50L 4 50Q 0 50 0 46Z" stroke="rgba(50,50,50,1)" stroke-width="2" fill-opacity="1" fill="#81c784"></path><g id="SvgjsG1022"><text id="SvgjsText1023" font-family="微软雅黑" text-anchor="middle" font-size="15px" width="60px" fill="#323232" font-weight="400" align="middle" lineHeight="125%" anchor="middle" family="微软雅黑" size="15px" weight="400" font-style="" opacity="1" y="12.625" transform="rotate(0)"><tspan id="SvgjsTspan1024" dy="18" x="40"><tspan id="SvgjsTspan1025" style="text-decoration:;">c1067</tspan></tspan></text></g></g><g id="SvgjsG1026" transform="translate(557,165)"><path id="SvgjsPath1027" d="M 0 4Q 0 0 4 0L 76 0Q 80 0 80 4L 80 46Q 80 50 76 50L 4 50Q 0 50 0 46Z" stroke="rgba(50,50,50,1)" stroke-width="2" fill-opacity="1" fill="#81c784"></path><g id="SvgjsG1028"><text id="SvgjsText1029" font-family="微软雅黑" text-anchor="middle" font-size="15px" width="60px" fill="#323232" font-weight="400" align="middle" lineHeight="125%" anchor="middle" family="微软雅黑" size="15px" weight="400" font-style="" opacity="1" y="12.625" transform="rotate(0)"><tspan id="SvgjsTspan1030" dy="18" x="40"><tspan id="SvgjsTspan1031" style="text-decoration:;">da34f</tspan></tspan></text></g></g><g id="SvgjsG1032" transform="translate(687,165)"><path id="SvgjsPath1033" d="M 0 4Q 0 0 4 0L 76 0Q 80 0 80 4L 80 46Q 80 50 76 50L 4 50Q 0 50 0 46Z" stroke="rgba(50,50,50,1)" stroke-width="2" fill-opacity="1" fill="#81c784"></path><g id="SvgjsG1034"><text id="SvgjsText1035" font-family="微软雅黑" text-anchor="middle" font-size="15px" width="60px" fill="#323232" font-weight="400" align="middle" lineHeight="125%" anchor="middle" family="微软雅黑" size="15px" weight="400" font-style="" opacity="1" y="12.625" transform="rotate(0)"><tspan id="SvgjsTspan1036" dy="18" x="40"><tspan id="SvgjsTspan1037" style="text-decoration:;">ed091</tspan></tspan></text></g></g><g id="SvgjsG1038" transform="translate(817,165)"><path id="SvgjsPath1039" d="M 0 4Q 0 0 4 0L 76 0Q 80 0 80 4L 80 46Q 80 50 76 50L 4 50Q 0 50 0 46Z" stroke="rgba(50,50,50,1)" stroke-width="2" fill-opacity="1" fill="#81c784"></path><g id="SvgjsG1040"><text id="SvgjsText1041" font-family="微软雅黑" text-anchor="middle" font-size="15px" width="60px" fill="#323232" font-weight="400" align="middle" lineHeight="125%" anchor="middle" family="微软雅黑" size="15px" weight="400" font-style="" opacity="1" y="12.625" transform="rotate(0)"><tspan id="SvgjsTspan1042" dy="18" x="40"><tspan id="SvgjsTspan1043" style="text-decoration:;">h5132</tspan></tspan></text></g></g><g id="SvgjsG1044" transform="translate(167,65)"><path id="SvgjsPath1045" d="M 0 4Q 0 0 4 0L 76 0Q 80 0 80 4L 80 46Q 80 50 76 50L 4 50Q 0 50 0 46Z" stroke="rgba(50,50,50,1)" stroke-width="2" fill-opacity="1" fill="#ffb74d"></path><g id="SvgjsG1046"><text id="SvgjsText1047" font-family="微软雅黑" text-anchor="middle" font-size="20px" width="60px" fill="#323232" font-weight="400" align="middle" lineHeight="125%" anchor="middle" family="微软雅黑" size="20px" weight="400" font-style="" opacity="1" y="7" transform="rotate(0)"><tspan id="SvgjsTspan1048" dy="25" x="40"><tspan id="SvgjsTspan1049" style="text-decoration:;">stable</tspan></tspan></text></g></g><g id="SvgjsG1050" transform="translate(817,65)"><path id="SvgjsPath1051" d="M 0 4Q 0 0 4 0L 76 0Q 80 0 80 4L 80 46Q 80 50 76 50L 4 50Q 0 50 0 46Z" stroke="rgba(50,50,50,1)" stroke-width="2" fill-opacity="1" fill="#ffb74d"></path><g id="SvgjsG1052"><text id="SvgjsText1053" font-family="微软雅黑" text-anchor="middle" font-size="20px" width="60px" fill="#323232" font-weight="400" align="middle" lineHeight="125%" anchor="middle" family="微软雅黑" size="20px" weight="400" font-style="" opacity="1" y="7" transform="rotate(0)"><tspan id="SvgjsTspan1054" dy="25" x="40"><tspan id="SvgjsTspan1055" style="text-decoration:;">main</tspan></tspan></text></g></g><g id="SvgjsG1056" transform="translate(817,25)"><path id="SvgjsPath1057" d="M 0 4Q 0 0 4 0L 76 0Q 80 0 80 4L 80 36Q 80 40 76 40L 4 40Q 0 40 0 36Z" stroke="rgba(50,50,50,1)" stroke-width="2" fill-opacity="1" fill="#9e9e9e"></path><g id="SvgjsG1058"><text id="SvgjsText1059" font-family="微软雅黑" text-anchor="middle" font-size="20px" width="60px" fill="#323232" font-weight="700" align="middle" lineHeight="125%" anchor="middle" family="微软雅黑" size="20px" weight="700" font-style="" opacity="1" y="2" transform="rotate(0)"><tspan id="SvgjsTspan1060" dy="25" x="40"><tspan id="SvgjsTspan1061" style="text-decoration:;">HEAD</tspan></tspan></text></g></g><g id="SvgjsG1062"><path id="SvgjsPath1063" d="M857 116L857 140L857 140L857 161.39999999999998" stroke="#323232" stroke-width="2" fill="none" marker-end="url(#SvgjsMarker1064)"></path></g><g id="SvgjsG1066"><path id="SvgjsPath1067" d="M816 190L792 190L792 190L770.6 190" stroke="#323232" stroke-width="2" fill="none" marker-end="url(#SvgjsMarker1068)"></path></g><g id="SvgjsG1070"><path id="SvgjsPath1071" d="M686 190L662 190L662 190L640.6 190" stroke="#323232" stroke-width="2" fill="none" marker-end="url(#SvgjsMarker1072)"></path></g><g id="SvgjsG1074"><path id="SvgjsPath1075" d="M556 190L532 190L532 190L510.6 190" stroke="#323232" stroke-width="2" fill="none" marker-end="url(#SvgjsMarker1076)"></path></g><g id="SvgjsG1078"><path id="SvgjsPath1079" d="M426 190L402 190L402 190L380.6 190" stroke="#323232" stroke-width="2" fill="none" marker-end="url(#SvgjsMarker1080)"></path></g><g id="SvgjsG1082"><path id="SvgjsPath1083" d="M296 190L272 190L272 190L250.60000000000002 190" stroke="#323232" stroke-width="2" fill="none" marker-end="url(#SvgjsMarker1084)"></path></g><g id="SvgjsG1086"><path id="SvgjsPath1087" d="M207 116L207 140L207 140L207 161.39999999999998" stroke="#323232" stroke-width="2" fill="none" marker-end="url(#SvgjsMarker1088)"></path></g><g id="SvgjsG1090"><path id="SvgjsPath1091" d="M166 190L144.5 190L144.5 190L122 190" stroke="#323232" stroke-width="2" fill="none" marker-end="url(#SvgjsMarker1092)"></path></g><g id="SvgjsG1094" transform="translate(25,161)"><path id="SvgjsPath1095" d="M 0 0L 120 0L 120 40L 0 40Z" stroke="none" fill="none"></path><g id="SvgjsG1096"><text id="SvgjsText1097" font-family="微软雅黑" text-anchor="middle" font-size="30px" width="120px" fill="#323232" font-weight="400" align="middle" lineHeight="125%" anchor="middle" family="微软雅黑" size="30px" weight="400" font-style="" opacity="1" y="-5.75" transform="rotate(0)"><tspan id="SvgjsTspan1098" dy="37" x="60"><tspan id="SvgjsTspan1099" style="text-decoration:;">......</tspan></tspan></text></g></g><g id="SvgjsG1100" transform="translate(884,70)"><path id="SvgjsPath1101" d="M 0 0L 120 0L 120 40L 0 40Z" stroke="none" fill="none"></path><g id="SvgjsG1102"><text id="SvgjsText1103" font-family="微软雅黑" text-anchor="middle" font-size="15px" width="120px" fill="#323232" font-weight="400" align="middle" lineHeight="125%" anchor="middle" family="微软雅黑" size="15px" weight="400" font-style="" opacity="1" y="7.625" transform="rotate(0)"><tspan id="SvgjsTspan1104" dy="18" x="60"><tspan id="SvgjsTspan1105" style="text-decoration:;">当前分支</tspan></tspan></text></g></g><g id="SvgjsG1106" transform="translate(238,70)"><path id="SvgjsPath1107" d="M 0 0L 120 0L 120 40L 0 40Z" stroke="none" fill="none"></path><g id="SvgjsG1108"><text id="SvgjsText1109" font-family="微软雅黑" text-anchor="middle" font-size="15px" width="120px" fill="#323232" font-weight="400" align="middle" lineHeight="125%" anchor="middle" family="微软雅黑" size="15px" weight="400" font-style="" opacity="1" y="7.625" transform="rotate(0)"><tspan id="SvgjsTspan1110" dy="18" x="60"><tspan id="SvgjsTspan1111" style="text-decoration:;">其他分支</tspan></tspan></text></g></g><g id="SvgjsG1112" transform="translate(318,280.5)"><path id="SvgjsPath1113" d="M 0 4Q 0 0 4 0L 36 0Q 40 0 40 4L 40 16Q 40 20 36 20L 4 20Q 0 20 0 16Z" stroke="rgba(50,50,50,1)" stroke-width="2" fill-opacity="1" fill="#ffb74d"></path><g id="SvgjsG1114"><text id="SvgjsText1115" font-family="微软雅黑" text-anchor="middle" font-size="20px" width="20px" fill="#323232" font-weight="400" align="middle" lineHeight="125%" anchor="middle" family="微软雅黑" size="20px" weight="400" font-style="" opacity="1" y="-8" transform="rotate(0)"></text></g></g><g id="SvgjsG1116" transform="translate(318,339)"><path id="SvgjsPath1117" d="M 0 4Q 0 0 4 0L 36 0Q 40 0 40 4L 40 16Q 40 20 36 20L 4 20Q 0 20 0 16Z" stroke="rgba(50,50,50,1)" stroke-width="2" fill-opacity="1" fill="#81c784"></path><g id="SvgjsG1118"><text id="SvgjsText1119" font-family="微软雅黑" text-anchor="middle" font-size="20px" width="20px" fill="#323232" font-weight="400" align="middle" lineHeight="125%" anchor="middle" family="微软雅黑" size="20px" weight="400" font-style="" opacity="1" y="-8" transform="rotate(0)"></text></g></g><g id="SvgjsG1120" transform="translate(351,279.25)"><path id="SvgjsPath1121" d="M 0 0L 223 0L 223 30.5L 0 30.5Z" stroke="none" fill="none"></path><g id="SvgjsG1122"><text id="SvgjsText1123" font-family="微软雅黑" text-anchor="middle" font-size="15px" width="223px" fill="#323232" font-weight="400" align="middle" lineHeight="125%" anchor="middle" family="微软雅黑" size="15px" weight="400" font-style="" opacity="1" y="2.875" transform="rotate(0)"><tspan id="SvgjsTspan1124" dy="18" x="111.5"><tspan id="SvgjsTspan1125" style="text-decoration:;">branch ,指向特定的提交</tspan></tspan></text></g></g><g id="SvgjsG1126" transform="translate(347,331.25)"><path id="SvgjsPath1127" d="M 0 0L 223 0L 223 30.5L 0 30.5Z" stroke="none" fill="none"></path><g id="SvgjsG1128"><text id="SvgjsText1129" font-family="微软雅黑" text-anchor="middle" font-size="15px" width="223px" fill="#323232" font-weight="400" align="middle" lineHeight="125%" anchor="middle" family="微软雅黑" size="15px" weight="400" font-style="" opacity="1" y="2.875" transform="rotate(0)"><tspan id="SvgjsTspan1130" dy="18" x="111.5"><tspan id="SvgjsTspan1131" style="text-decoration:;">commit ID ,指向父节点</tspan></tspan></text></g></g><g id="SvgjsG1132" transform="translate(318,388.5)"><path id="SvgjsPath1133" d="M 0 4Q 0 0 4 0L 36 0Q 40 0 40 4L 40 16Q 40 20 36 20L 4 20Q 0 20 0 16Z" stroke="rgba(50,50,50,1)" stroke-width="2" fill-opacity="1" fill="#9e9e9e"></path><g id="SvgjsG1134"><text id="SvgjsText1135" font-family="微软雅黑" text-anchor="middle" font-size="20px" width="20px" fill="#323232" font-weight="400" align="middle" lineHeight="125%" anchor="middle" family="微软雅黑" size="20px" weight="400" font-style="" opacity="1" y="-8" transform="rotate(0)"></text></g></g><g id="SvgjsG1136" transform="translate(334,383.25)"><path id="SvgjsPath1137" d="M 0 0L 223 0L 223 30.5L 0 30.5Z" stroke="none" fill="none"></path><g id="SvgjsG1138"><text id="SvgjsText1139" font-family="微软雅黑" text-anchor="middle" font-size="15px" width="223px" fill="#323232" font-weight="400" align="middle" lineHeight="125%" anchor="middle" family="微软雅黑" size="15px" weight="400" font-style="" opacity="1" y="2.875" transform="rotate(0)"><tspan id="SvgjsTspan1140" dy="18" x="111.5"><tspan id="SvgjsTspan1141" style="text-decoration:;">HEAD 标识当前分支</tspan></tspan></text></g></g></svg>