<svg id="SvgjsSvg1006" width="1052" height="416" xmlns="http://www.w3.org/2000/svg" version="1.1" xmlns:xlink="http://www.w3.org/1999/xlink" xmlns:svgjs="http://svgjs.com/svgjs"><defs id="SvgjsDefs1007"><marker id="SvgjsMarker1064" markerWidth="14" markerHeight="10" refX="10" refY="5" viewBox="0 0 14 10" orient="auto" markerUnits="userSpaceOnUse" stroke-dasharray="0,0"><path id="SvgjsPath1065" d="M0,0 L14,5 L0,10 L0,0" fill="#9e9e9e" stroke="#9e9e9e" stroke-width="1"></path></marker><marker id="SvgjsMarker1068" markerWidth="14" markerHeight="10" refX="10" refY="5" viewBox="0 0 14 10" orient="auto" markerUnits="userSpaceOnUse" stroke-dasharray="0,0"><path id="SvgjsPath1069" d="M0,0 L14,5 L0,10 L0,0" fill="#323232" stroke="#323232" stroke-width="1"></path></marker><marker id="SvgjsMarker1072" markerWidth="14" markerHeight="10" refX="10" refY="5" viewBox="0 0 14 10" orient="auto" markerUnits="userSpaceOnUse" stroke-dasharray="0,0"><path id="SvgjsPath1073" d="M0,0 L14,5 L0,10 L0,0" fill="#323232" stroke="#323232" stroke-width="1"></path></marker><marker id="SvgjsMarker1076" markerWidth="14" markerHeight="10" refX="10" refY="5" viewBox="0 0 14 10" orient="auto" markerUnits="userSpaceOnUse" stroke-dasharray="0,0"><path id="SvgjsPath1077" d="M0,0 L14,5 L0,10 L0,0" fill="#323232" stroke="#323232" stroke-width="1"></path></marker><marker id="SvgjsMarker1080" markerWidth="14" markerHeight="10" refX="10" refY="5" viewBox="0 0 14 10" orient="auto" markerUnits="userSpaceOnUse" stroke-dasharray="0,0"><path id="SvgjsPath1081" d="M0,0 L14,5 L0,10 L0,0" fill="#323232" stroke="#323232" stroke-width="1"></path></marker><marker id="SvgjsMarker1084" markerWidth="14" markerHeight="10" refX="10" refY="5" viewBox="0 0 14 10" orient="auto" markerUnits="userSpaceOnUse" stroke-dasharray="0,0"><path id="SvgjsPath1085" d="M0,0 L14,5 L0,10 L0,0" fill="#323232" stroke="#323232" stroke-width="1"></path></marker><marker id="SvgjsMarker1088" markerWidth="14" markerHeight="10" refX="10" refY="5" viewBox="0 0 14 10" orient="auto" markerUnits="userSpaceOnUse" stroke-dasharray="0,0"><path id="SvgjsPath1089" d="M0,0 L14,5 L0,10 L0,0" fill="#323232" stroke="#323232" stroke-width="1"></path></marker><marker id="SvgjsMarker1092" markerWidth="14" markerHeight="10" refX="10" refY="5" viewBox="0 0 14 10" orient="auto" markerUnits="userSpaceOnUse" stroke-dasharray="0,0"><path id="SvgjsPath1093" d="M0,0 L14,5 L0,10 L0,0" fill="#323232" stroke="#323232" stroke-width="1"></path></marker><marker id="SvgjsMarker1126" markerWidth="14" markerHeight="10" refX="10" refY="5" viewBox="0 0 14 10" orient="auto" markerUnits="userSpaceOnUse" stroke-dasharray="0,0"><path id="SvgjsPath1127" d="M0,0 L14,5 L0,10 L0,0" fill="#323232" stroke="#323232" stroke-width="1"></path></marker><marker id="SvgjsMarker1130" markerWidth="14" markerHeight="10" refX="10" refY="5" viewBox="0 0 14 10" orient="auto" markerUnits="userSpaceOnUse" stroke-dasharray="0,0"><path id="SvgjsPath1131" d="M0,0 L14,5 L0,10 L0,0" fill="#323232" stroke="#323232" stroke-width="1"></path></marker><marker id="SvgjsMarker1134" markerWidth="14" markerHeight="10" refX="10" refY="5" viewBox="0 0 14 10" orient="auto" markerUnits="userSpaceOnUse" stroke-dasharray="0,0"><path id="SvgjsPath1135" d="M0,0 L14,5 L0,10 L0,0" fill="#323232" stroke="#323232" stroke-width="1"></path></marker><marker id="SvgjsMarker1142" markerWidth="14" markerHeight="10" refX="10" refY="5" viewBox="0 0 14 10" orient="auto" markerUnits="userSpaceOnUse" stroke-dasharray="0,0"><path id="SvgjsPath1143" d="M0,0 L14,5 L0,10 L0,0" fill="#323232" stroke="#323232" stroke-width="1"></path></marker></defs><g id="SvgjsG1008" transform="translate(167,217)"><path id="SvgjsPath1009" d="M 0 4Q 0 0 4 0L 76 0Q 80 0 80 4L 80 46Q 80 50 76 50L 4 50Q 0 50 0 46Z" stroke="rgba(50,50,50,1)" stroke-width="2" fill-opacity="1" fill="#81c784"></path><g id="SvgjsG1010"><text id="SvgjsText1011" font-family="微软雅黑" text-anchor="middle" font-size="15px" width="60px" fill="#323232" font-weight="400" align="middle" lineHeight="125%" anchor="middle" family="微软雅黑" size="15px" weight="400" font-style="" opacity="1" y="12.625" transform="rotate(0)"><tspan id="SvgjsTspan1012" dy="18" x="40"><tspan id="SvgjsTspan1013" style="text-decoration:;">a4735</tspan></tspan></text></g></g><g id="SvgjsG1014" transform="translate(297,217)"><path id="SvgjsPath1015" d="M 0 4Q 0 0 4 0L 76 0Q 80 0 80 4L 80 46Q 80 50 76 50L 4 50Q 0 50 0 46Z" stroke="rgba(50,50,50,1)" stroke-width="2" fill-opacity="1" fill="#81c784"></path><g id="SvgjsG1016"><text id="SvgjsText1017" font-family="微软雅黑" text-anchor="middle" font-size="15px" width="60px" fill="#323232" font-weight="400" align="middle" lineHeight="125%" anchor="middle" family="微软雅黑" size="15px" weight="400" font-style="" opacity="1" y="12.625" transform="rotate(0)"><tspan id="SvgjsTspan1018" dy="18" x="40"><tspan id="SvgjsTspan1019" style="text-decoration:;">b35w6</tspan></tspan></text></g></g><g id="SvgjsG1020" transform="translate(427,217)"><path id="SvgjsPath1021" d="M 0 4Q 0 0 4 0L 76 0Q 80 0 80 4L 80 46Q 80 50 76 50L 4 50Q 0 50 0 46Z" stroke="rgba(50,50,50,1)" stroke-width="2" fill-opacity="1" fill="#81c784"></path><g id="SvgjsG1022"><text id="SvgjsText1023" font-family="微软雅黑" text-anchor="middle" font-size="15px" width="60px" fill="#323232" font-weight="400" align="middle" lineHeight="125%" anchor="middle" family="微软雅黑" size="15px" weight="400" font-style="" opacity="1" y="12.625" transform="rotate(0)"><tspan id="SvgjsTspan1024" dy="18" x="40"><tspan id="SvgjsTspan1025" style="text-decoration:;">c1067</tspan></tspan></text></g></g><g id="SvgjsG1026" transform="translate(557,217)"><path id="SvgjsPath1027" d="M 0 4Q 0 0 4 0L 76 0Q 80 0 80 4L 80 46Q 80 50 76 50L 4 50Q 0 50 0 46Z" stroke="rgba(50,50,50,1)" stroke-width="2" fill-opacity="1" fill="#81c784"></path><g id="SvgjsG1028"><text id="SvgjsText1029" font-family="微软雅黑" text-anchor="middle" font-size="15px" width="60px" fill="#323232" font-weight="400" align="middle" lineHeight="125%" anchor="middle" family="微软雅黑" size="15px" weight="400" font-style="" opacity="1" y="12.625" transform="rotate(0)"><tspan id="SvgjsTspan1030" dy="18" x="40"><tspan id="SvgjsTspan1031" style="text-decoration:;">da34f</tspan></tspan></text></g></g><g id="SvgjsG1032" transform="translate(687,217)"><path id="SvgjsPath1033" d="M 0 4Q 0 0 4 0L 76 0Q 80 0 80 4L 80 46Q 80 50 76 50L 4 50Q 0 50 0 46Z" stroke="rgba(50,50,50,1)" stroke-width="2" fill-opacity="1" fill="#81c784"></path><g id="SvgjsG1034"><text id="SvgjsText1035" font-family="微软雅黑" text-anchor="middle" font-size="15px" width="60px" fill="#323232" font-weight="400" align="middle" lineHeight="125%" anchor="middle" family="微软雅黑" size="15px" weight="400" font-style="" opacity="1" y="12.625" transform="rotate(0)"><tspan id="SvgjsTspan1036" dy="18" x="40"><tspan id="SvgjsTspan1037" style="text-decoration:;">ed091</tspan></tspan></text></g></g><g id="SvgjsG1038" transform="translate(817,217)"><path id="SvgjsPath1039" d="M 0 4Q 0 0 4 0L 76 0Q 80 0 80 4L 80 46Q 80 50 76 50L 4 50Q 0 50 0 46Z" stroke="rgba(50,50,50,1)" stroke-width="2" fill-opacity="1" fill="#81c784"></path><g id="SvgjsG1040"><text id="SvgjsText1041" font-family="微软雅黑" text-anchor="middle" font-size="15px" width="60px" fill="#323232" font-weight="400" align="middle" lineHeight="125%" anchor="middle" family="微软雅黑" size="15px" weight="400" font-style="" opacity="1" y="12.625" transform="rotate(0)"><tspan id="SvgjsTspan1042" dy="18" x="40"><tspan id="SvgjsTspan1043" style="text-decoration:;">h5132</tspan></tspan></text></g></g><g id="SvgjsG1044" transform="translate(167,117)"><path id="SvgjsPath1045" d="M 0 4Q 0 0 4 0L 76 0Q 80 0 80 4L 80 46Q 80 50 76 50L 4 50Q 0 50 0 46Z" stroke="rgba(50,50,50,1)" stroke-width="2" fill-opacity="1" fill="#ffb74d"></path><g id="SvgjsG1046"><text id="SvgjsText1047" font-family="微软雅黑" text-anchor="middle" font-size="20px" width="60px" fill="#323232" font-weight="400" align="middle" lineHeight="125%" anchor="middle" family="微软雅黑" size="20px" weight="400" font-style="" opacity="1" y="7" transform="rotate(0)"><tspan id="SvgjsTspan1048" dy="25" x="40"><tspan id="SvgjsTspan1049" style="text-decoration:;">stable</tspan></tspan></text></g></g><g id="SvgjsG1050" transform="translate(817,117)"><path id="SvgjsPath1051" d="M 0 4Q 0 0 4 0L 76 0Q 80 0 80 4L 80 46Q 80 50 76 50L 4 50Q 0 50 0 46Z" stroke="rgba(158,158,158,1)" stroke-width="2" fill-opacity="1" fill="#ffe0b2"></path><g id="SvgjsG1052"><text id="SvgjsText1053" font-family="微软雅黑" text-anchor="middle" font-size="20px" width="60px" fill="#9e9e9e" font-weight="400" align="middle" lineHeight="125%" anchor="middle" family="微软雅黑" size="20px" weight="400" font-style="" opacity="1" y="7" transform="rotate(0)"><tspan id="SvgjsTspan1054" dy="25" x="40"><tspan id="SvgjsTspan1055" style="text-decoration:;">main</tspan></tspan></text></g></g><g id="SvgjsG1056" transform="translate(817,77)"><path id="SvgjsPath1057" d="M 0 4Q 0 0 4 0L 76 0Q 80 0 80 4L 80 36Q 80 40 76 40L 4 40Q 0 40 0 36Z" stroke="rgba(158,158,158,1)" stroke-width="2" fill-opacity="1" fill="#e0e0e0"></path><g id="SvgjsG1058"><text id="SvgjsText1059" font-family="微软雅黑" text-anchor="middle" font-size="20px" width="60px" fill="#9e9e9e" font-weight="700" align="middle" lineHeight="125%" anchor="middle" family="微软雅黑" size="20px" weight="700" font-style="" opacity="1" y="2" transform="rotate(0)"><tspan id="SvgjsTspan1060" dy="25" x="40"><tspan id="SvgjsTspan1061" style="text-decoration:;">HEAD</tspan></tspan></text></g></g><g id="SvgjsG1062"><path id="SvgjsPath1063" d="M857 168L857 192L857 192L857 213.39999999999998" stroke="#9e9e9e" stroke-width="2" fill="none" marker-end="url(#SvgjsMarker1064)"></path></g><g id="SvgjsG1066"><path id="SvgjsPath1067" d="M816 242L792 242L792 242L770.6 242" stroke="#323232" stroke-width="2" fill="none" marker-end="url(#SvgjsMarker1068)"></path></g><g id="SvgjsG1070"><path id="SvgjsPath1071" d="M686 242L662 242L662 242L640.6 242" stroke="#323232" stroke-width="2" fill="none" marker-end="url(#SvgjsMarker1072)"></path></g><g id="SvgjsG1074"><path id="SvgjsPath1075" d="M556 242L532 242L532 242L510.6 242" stroke="#323232" stroke-width="2" fill="none" marker-end="url(#SvgjsMarker1076)"></path></g><g id="SvgjsG1078"><path id="SvgjsPath1079" d="M426 242L402 242L402 242L380.6 242" stroke="#323232" stroke-width="2" fill="none" marker-end="url(#SvgjsMarker1080)"></path></g><g id="SvgjsG1082"><path id="SvgjsPath1083" d="M296 242L272 242L272 242L250.60000000000002 242" stroke="#323232" stroke-width="2" fill="none" marker-end="url(#SvgjsMarker1084)"></path></g><g id="SvgjsG1086"><path id="SvgjsPath1087" d="M207 168L207 192L207 192L207 213.39999999999998" stroke="#323232" stroke-width="2" fill="none" marker-end="url(#SvgjsMarker1088)"></path></g><g id="SvgjsG1090"><path id="SvgjsPath1091" d="M166 242L144.5 242L144.5 242L122 242" stroke="#323232" stroke-width="2" fill="none" marker-end="url(#SvgjsMarker1092)"></path></g><g id="SvgjsG1094" transform="translate(25,213)"><path id="SvgjsPath1095" d="M 0 0L 120 0L 120 40L 0 40Z" stroke="none" fill="none"></path><g id="SvgjsG1096"><text id="SvgjsText1097" font-family="微软雅黑" text-anchor="middle" font-size="30px" width="120px" fill="#323232" font-weight="400" align="middle" lineHeight="125%" anchor="middle" family="微软雅黑" size="30px" weight="400" font-style="" opacity="1" y="-5.75" transform="rotate(0)"><tspan id="SvgjsTspan1098" dy="37" x="60"><tspan id="SvgjsTspan1099" style="text-decoration:;">......</tspan></tspan></text></g></g><g id="SvgjsG1100" transform="translate(708,354)"><path id="SvgjsPath1101" d="M 0 4Q 0 0 4 0L 115 0Q 119 0 119 4L 119 33Q 119 37 115 37L 4 37Q 0 37 0 33Z" stroke="rgba(50,50,50,1)" stroke-width="2" fill-opacity="1" fill="#64b5f6"></path><g id="SvgjsG1102"><text id="SvgjsText1103" font-family="微软雅黑" text-anchor="middle" font-size="18px" width="99px" fill="#323232" font-weight="400" align="middle" lineHeight="125%" anchor="middle" family="微软雅黑" size="18px" weight="400" font-style="" opacity="1" y="2.75" transform="rotate(0)"><tspan id="SvgjsTspan1104" dy="22" x="59.5"><tspan id="SvgjsTspan1105" style="text-decoration:;">Stage Area</tspan></tspan></text></g></g><g id="SvgjsG1106" transform="translate(947,217)"><path id="SvgjsPath1107" d="M 0 4Q 0 0 4 0L 76 0Q 80 0 80 4L 80 46Q 80 50 76 50L 4 50Q 0 50 0 46Z" stroke="rgba(255,235,59,1)" stroke-width="4" fill-opacity="1" fill="#81c784"></path><g id="SvgjsG1108"><text id="SvgjsText1109" font-family="微软雅黑" text-anchor="middle" font-size="15px" width="60px" fill="#323232" font-weight="400" align="middle" lineHeight="125%" anchor="middle" family="微软雅黑" size="15px" weight="400" font-style="" opacity="1" y="12.625" transform="rotate(0)"><tspan id="SvgjsTspan1110" dy="18" x="40"><tspan id="SvgjsTspan1111" style="text-decoration:;">g6789</tspan></tspan></text></g></g><g id="SvgjsG1112" transform="translate(947,117)"><path id="SvgjsPath1113" d="M 0 4Q 0 0 4 0L 76 0Q 80 0 80 4L 80 46Q 80 50 76 50L 4 50Q 0 50 0 46Z" stroke="rgba(50,50,50,1)" stroke-width="2" fill-opacity="1" fill="#ffb74d"></path><g id="SvgjsG1114"><text id="SvgjsText1115" font-family="微软雅黑" text-anchor="middle" font-size="20px" width="60px" fill="#323232" font-weight="400" align="middle" lineHeight="125%" anchor="middle" family="微软雅黑" size="20px" weight="400" font-style="" opacity="1" y="7" transform="rotate(0)"><tspan id="SvgjsTspan1116" dy="25" x="40"><tspan id="SvgjsTspan1117" style="text-decoration:;">main</tspan></tspan></text></g></g><g id="SvgjsG1118" transform="translate(947,77)"><path id="SvgjsPath1119" d="M 0 4Q 0 0 4 0L 76 0Q 80 0 80 4L 80 36Q 80 40 76 40L 4 40Q 0 40 0 36Z" stroke="rgba(50,50,50,1)" stroke-width="2" fill-opacity="1" fill="#9e9e9e"></path><g id="SvgjsG1120"><text id="SvgjsText1121" font-family="微软雅黑" text-anchor="middle" font-size="20px" width="60px" fill="#323232" font-weight="700" align="middle" lineHeight="125%" anchor="middle" family="微软雅黑" size="20px" weight="700" font-style="" opacity="1" y="2" transform="rotate(0)"><tspan id="SvgjsTspan1122" dy="25" x="40"><tspan id="SvgjsTspan1123" style="text-decoration:;">HEAD</tspan></tspan></text></g></g><g id="SvgjsG1124"><path id="SvgjsPath1125" d="M987 168L987 192L987 192L987 212.39999999999998" stroke="#323232" stroke-width="2" fill="none" marker-end="url(#SvgjsMarker1126)"></path></g><g id="SvgjsG1128"><path id="SvgjsPath1129" d="M857.2320777011652 76.0273027497613C 857 25 987 25 986.1645202758054 73.49828989914076" stroke-dasharray="8,5" stroke="#323232" stroke-width="2" fill="none" marker-end="url(#SvgjsMarker1130)"></path></g><g id="SvgjsG1132"><path id="SvgjsPath1133" d="M827.9997172475117 372.4762213325119C 903.6605504806743 372.5 987 343.6605504806742 986.6823695139772 271.58902068794083" stroke-dasharray="10,5,3,5" stroke="#323232" stroke-width="2" fill="none" marker-end="url(#SvgjsMarker1134)"></path><rect id="SvgjsRect1136" width="65" height="25" x="903.3329672754389" y="336.56836168280944" fill="#ffffff"></rect><text id="SvgjsText1137" font-family="微软雅黑" text-anchor="middle" font-size="20px" width="65px" fill="#323232" font-weight="700" align="top" lineHeight="25px" anchor="middle" family="微软雅黑" size="20px" weight="700" font-style="" opacity="1" y="331.06836168280944" transform="rotate(0)"><tspan id="SvgjsTspan1138" dy="25" x="935.8329672754389"><tspan id="SvgjsTspan1139" style="text-decoration:;">commit</tspan></tspan></text></g><g id="SvgjsG1140"><path id="SvgjsPath1141" d="M945 242C 927 242 917 242 900.6 242" stroke="#323232" stroke-width="2" fill="none" marker-end="url(#SvgjsMarker1142)"></path></g></svg>