<svg id="SvgjsSvg1006" width="785" height="251" xmlns="http://www.w3.org/2000/svg" version="1.1" xmlns:xlink="http://www.w3.org/1999/xlink" xmlns:svgjs="http://svgjs.com/svgjs"><defs id="SvgjsDefs1007"></defs><g id="SvgjsG1008" transform="translate(25,25)"><path id="SvgjsPath1009" d="M 0 4Q 0 0 4 0L 56 0Q 60 0 60 4L 60 56Q 60 60 56 60L 4 60Q 0 60 0 56Z" stroke="rgba(50,50,50,1)" stroke-width="2" fill-opacity="1" fill="#ffcdd2"></path><g id="SvgjsG1010"><text id="SvgjsText1011" font-family="微软雅黑" text-anchor="middle" font-size="20px" width="40px" fill="#323232" font-weight="400" align="middle" lineHeight="125%" anchor="middle" family="微软雅黑" size="20px" weight="400" font-style="" opacity="1" y="-0.5" transform="rotate(0)"><tspan id="SvgjsTspan1012" dy="25" x="30"><tspan id="SvgjsTspan1013" style="text-decoration:;">File </tspan></tspan><tspan id="SvgjsTspan1014" dy="25" x="30"><tspan id="SvgjsTspan1015" style="text-decoration:;">Type</tspan></tspan></text></g></g><g id="SvgjsG1016" transform="translate(100,25)"><path id="SvgjsPath1017" d="M 0 4Q 0 0 4 0L 56 0Q 60 0 60 4L 60 56Q 60 60 56 60L 4 60Q 0 60 0 56Z" stroke="rgba(50,50,50,1)" stroke-width="2" fill-opacity="1" fill="#ffe0b2"></path><g id="SvgjsG1018"><text id="SvgjsText1019" font-family="微软雅黑" text-anchor="middle" font-size="34px" width="40px" fill="#323232" font-weight="700" align="middle" lineHeight="125%" anchor="middle" family="微软雅黑" size="34px" weight="700" font-style="" opacity="1" y="0.25" transform="rotate(0)"><tspan id="SvgjsTspan1020" dy="42" x="30"><tspan id="SvgjsTspan1021" style="text-decoration:;">r</tspan></tspan></text></g></g><g id="SvgjsG1022" transform="translate(175,25)"><path id="SvgjsPath1023" d="M 0 4Q 0 0 4 0L 56 0Q 60 0 60 4L 60 56Q 60 60 56 60L 4 60Q 0 60 0 56Z" stroke="rgba(50,50,50,1)" stroke-width="2" fill-opacity="1" fill="#ffe0b2"></path><g id="SvgjsG1024"><text id="SvgjsText1025" font-family="微软雅黑" text-anchor="middle" font-size="34px" width="40px" fill="#323232" font-weight="700" align="middle" lineHeight="125%" anchor="middle" family="微软雅黑" size="34px" weight="700" font-style="" opacity="1" y="0.25" transform="rotate(0)"><tspan id="SvgjsTspan1026" dy="42" x="30"><tspan id="SvgjsTspan1027" style="text-decoration:;">w</tspan></tspan></text></g></g><g id="SvgjsG1028" transform="translate(250,25)"><path id="SvgjsPath1029" d="M 0 4Q 0 0 4 0L 56 0Q 60 0 60 4L 60 56Q 60 60 56 60L 4 60Q 0 60 0 56Z" stroke="rgba(50,50,50,1)" stroke-width="2" fill-opacity="1" fill="#ffe0b2"></path><g id="SvgjsG1030"><text id="SvgjsText1031" font-family="微软雅黑" text-anchor="middle" font-size="34px" width="40px" fill="#323232" font-weight="700" align="middle" lineHeight="125%" anchor="middle" family="微软雅黑" size="34px" weight="700" font-style="" opacity="1" y="0.25" transform="rotate(0)"><tspan id="SvgjsTspan1032" dy="42" x="30"><tspan id="SvgjsTspan1033" style="text-decoration:;">x</tspan></tspan></text></g></g><g id="SvgjsG1034" transform="translate(325,25)"><path id="SvgjsPath1035" d="M 0 4Q 0 0 4 0L 56 0Q 60 0 60 4L 60 56Q 60 60 56 60L 4 60Q 0 60 0 56Z" stroke="rgba(50,50,50,1)" stroke-width="2" fill-opacity="1" fill="#c8e6c9"></path><g id="SvgjsG1036"><text id="SvgjsText1037" font-family="微软雅黑" text-anchor="middle" font-size="34px" width="40px" fill="#323232" font-weight="700" align="middle" lineHeight="125%" anchor="middle" family="微软雅黑" size="34px" weight="700" font-style="" opacity="1" y="0.25" transform="rotate(0)"><tspan id="SvgjsTspan1038" dy="42" x="30"><tspan id="SvgjsTspan1039" style="text-decoration:;">r</tspan></tspan></text></g></g><g id="SvgjsG1040" transform="translate(400,25)"><path id="SvgjsPath1041" d="M 0 4Q 0 0 4 0L 56 0Q 60 0 60 4L 60 56Q 60 60 56 60L 4 60Q 0 60 0 56Z" stroke="rgba(50,50,50,1)" stroke-width="2" fill-opacity="1" fill="#c8e6c9"></path><g id="SvgjsG1042"><text id="SvgjsText1043" font-family="微软雅黑" text-anchor="middle" font-size="34px" width="40px" fill="#323232" font-weight="700" align="middle" lineHeight="125%" anchor="middle" family="微软雅黑" size="34px" weight="700" font-style="" opacity="1" y="0.25" transform="rotate(0)"><tspan id="SvgjsTspan1044" dy="42" x="30"><tspan id="SvgjsTspan1045" style="text-decoration:;">w</tspan></tspan></text></g></g><g id="SvgjsG1046" transform="translate(475,25)"><path id="SvgjsPath1047" d="M 0 4Q 0 0 4 0L 56 0Q 60 0 60 4L 60 56Q 60 60 56 60L 4 60Q 0 60 0 56Z" stroke="rgba(50,50,50,1)" stroke-width="2" fill-opacity="1" fill="#c8e6c9"></path><g id="SvgjsG1048"><text id="SvgjsText1049" font-family="微软雅黑" text-anchor="middle" font-size="34px" width="40px" fill="#323232" font-weight="700" align="middle" lineHeight="125%" anchor="middle" family="微软雅黑" size="34px" weight="700" font-style="" opacity="1" y="0.25" transform="rotate(0)"><tspan id="SvgjsTspan1050" dy="42" x="30"><tspan id="SvgjsTspan1051" style="text-decoration:;">x</tspan></tspan></text></g></g><g id="SvgjsG1052" transform="translate(550,25)"><path id="SvgjsPath1053" d="M 0 4Q 0 0 4 0L 56 0Q 60 0 60 4L 60 56Q 60 60 56 60L 4 60Q 0 60 0 56Z" stroke="rgba(50,50,50,1)" stroke-width="2" fill-opacity="1" fill="#b2ebf2"></path><g id="SvgjsG1054"><text id="SvgjsText1055" font-family="微软雅黑" text-anchor="middle" font-size="34px" width="40px" fill="#323232" font-weight="700" align="middle" lineHeight="125%" anchor="middle" family="微软雅黑" size="34px" weight="700" font-style="" opacity="1" y="0.25" transform="rotate(0)"><tspan id="SvgjsTspan1056" dy="42" x="30"><tspan id="SvgjsTspan1057" style="text-decoration:;">r</tspan></tspan></text></g></g><g id="SvgjsG1058" transform="translate(625,25)"><path id="SvgjsPath1059" d="M 0 4Q 0 0 4 0L 56 0Q 60 0 60 4L 60 56Q 60 60 56 60L 4 60Q 0 60 0 56Z" stroke="rgba(50,50,50,1)" stroke-width="2" fill-opacity="1" fill="#b2ebf2"></path><g id="SvgjsG1060"><text id="SvgjsText1061" font-family="微软雅黑" text-anchor="middle" font-size="34px" width="40px" fill="#323232" font-weight="700" align="middle" lineHeight="125%" anchor="middle" family="微软雅黑" size="34px" weight="700" font-style="" opacity="1" y="0.25" transform="rotate(0)"><tspan id="SvgjsTspan1062" dy="42" x="30"><tspan id="SvgjsTspan1063" style="text-decoration:;">w</tspan></tspan></text></g></g><g id="SvgjsG1064" transform="translate(700,25)"><path id="SvgjsPath1065" d="M 0 4Q 0 0 4 0L 56 0Q 60 0 60 4L 60 56Q 60 60 56 60L 4 60Q 0 60 0 56Z" stroke="rgba(50,50,50,1)" stroke-width="2" fill-opacity="1" fill="#b2ebf2"></path><g id="SvgjsG1066"><text id="SvgjsText1067" font-family="微软雅黑" text-anchor="middle" font-size="34px" width="40px" fill="#323232" font-weight="700" align="middle" lineHeight="125%" anchor="middle" family="微软雅黑" size="34px" weight="700" font-style="" opacity="1" y="0.25" transform="rotate(0)"><tspan id="SvgjsTspan1068" dy="42" x="30"><tspan id="SvgjsTspan1069" style="text-decoration:;">x</tspan></tspan></text></g></g><g id="SvgjsG1070" transform="matrix(-1.8369701987210297e-16,-1,1,-1.8369701987210297e-16,98.99999999999993,226.0000000000001)"><path id="SvgjsPath1071" d="M 126.99999999999999 0Q 117.99999999999999 0 117.99999999999999 9L 117.99999999999999 94.00000000000009Q 117.99999999999999 103.00000000000009 104.99999999999999 103.00000000000009Q 117.99999999999999 103.00000000000009 117.99999999999999 112.00000000000009L 117.99999999999999 197.00000000000017Q 117.99999999999999 206.00000000000017 126.99999999999999 206.00000000000017" stroke="rgba(50,50,50,1)" stroke-width="2" fill="none"></path><path id="SvgjsPath1072" d="M 0 0L 126.99999999999999 0L 126.99999999999999 206.00000000000017L 0 206.00000000000017Z" stroke="none" fill="none"></path><g id="SvgjsG1073"><text id="SvgjsText1074" font-family="微软雅黑" text-anchor="end" font-size="13px" width="100px" fill="#323232" font-weight="400" align="middle" lineHeight="125%" anchor="end" family="微软雅黑" size="13px" weight="400" font-style="" opacity="1" y="92.37500000000009" transform="rotate(0)"></text></g></g><g id="SvgjsG1075" transform="matrix(-1.8369701987210297e-16,-1,1,-1.8369701987210297e-16,325.99999999999994,225.0000000000001)"><path id="SvgjsPath1076" d="M 126.99999999999999 0Q 117.99999999999999 0 117.99999999999999 9L 117.99999999999999 94.00000000000009Q 117.99999999999999 103.00000000000009 104.99999999999999 103.00000000000009Q 117.99999999999999 103.00000000000009 117.99999999999999 112.00000000000009L 117.99999999999999 197.00000000000017Q 117.99999999999999 206.00000000000017 126.99999999999999 206.00000000000017" stroke="rgba(50,50,50,1)" stroke-width="2" fill="none"></path><path id="SvgjsPath1077" d="M 0 0L 126.99999999999999 0L 126.99999999999999 206.00000000000017L 0 206.00000000000017Z" stroke="none" fill="none"></path><g id="SvgjsG1078"><text id="SvgjsText1079" font-family="微软雅黑" text-anchor="end" font-size="13px" width="100px" fill="#323232" font-weight="400" align="middle" lineHeight="125%" anchor="end" family="微软雅黑" size="13px" weight="400" font-style="" opacity="1" y="92.37500000000009" transform="rotate(0)"></text></g></g><g id="SvgjsG1080" transform="matrix(-1.8369701987210297e-16,-1,1,-1.8369701987210297e-16,553.9999999999999,226.0000000000001)"><path id="SvgjsPath1081" d="M 126.99999999999999 0Q 117.99999999999999 0 117.99999999999999 9L 117.99999999999999 94.00000000000009Q 117.99999999999999 103.00000000000009 104.99999999999999 103.00000000000009Q 117.99999999999999 103.00000000000009 117.99999999999999 112.00000000000009L 117.99999999999999 197.00000000000017Q 117.99999999999999 206.00000000000017 126.99999999999999 206.00000000000017" stroke="rgba(50,50,50,1)" stroke-width="2" fill="none"></path><path id="SvgjsPath1082" d="M 0 0L 126.99999999999999 0L 126.99999999999999 206.00000000000017L 0 206.00000000000017Z" stroke="none" fill="none"></path><g id="SvgjsG1083"><text id="SvgjsText1084" font-family="微软雅黑" text-anchor="end" font-size="13px" width="100px" fill="#323232" font-weight="400" align="middle" lineHeight="125%" anchor="end" family="微软雅黑" size="13px" weight="400" font-style="" opacity="1" y="92.37500000000009" transform="rotate(0)"></text></g></g><g id="SvgjsG1085" transform="translate(129.5,131.75)"><path id="SvgjsPath1086" d="M 0 0L 151 0L 151 59.5L 0 59.5Z" stroke="none" fill="none"></path><g id="SvgjsG1087"><text id="SvgjsText1088" font-family="微软雅黑" text-anchor="middle" font-size="18px" width="151px" fill="#323232" font-weight="400" align="middle" lineHeight="125%" anchor="middle" family="微软雅黑" size="18px" weight="400" font-style="" opacity="1" y="14" transform="rotate(0)"><tspan id="SvgjsTspan1089" dy="22" x="75.5"><tspan id="SvgjsTspan1090" style="text-decoration:;">文件所有者(属主)</tspan></tspan></text></g></g><g id="SvgjsG1091" transform="translate(355,137.125)"><path id="SvgjsPath1092" d="M 0 0L 150 0L 150 48.75L 0 48.75Z" stroke="none" fill="none"></path><g id="SvgjsG1093"><text id="SvgjsText1094" font-family="微软雅黑" text-anchor="middle" font-size="18px" width="150px" fill="#323232" font-weight="400" align="middle" lineHeight="125%" anchor="middle" family="微软雅黑" size="18px" weight="400" font-style="" opacity="1" y="8.625" transform="rotate(0)"><tspan id="SvgjsTspan1095" dy="22" x="75"><tspan id="SvgjsTspan1096" style="text-decoration:;">同组所有者(属组)</tspan></tspan></text></g></g><g id="SvgjsG1097" transform="translate(600,141.5)"><path id="SvgjsPath1098" d="M 0 0L 120 0L 120 40L 0 40Z" stroke="none" fill="none"></path><g id="SvgjsG1099"><text id="SvgjsText1100" font-family="微软雅黑" text-anchor="middle" font-size="18px" width="120px" fill="#323232" font-weight="400" align="middle" lineHeight="125%" anchor="middle" family="微软雅黑" size="18px" weight="400" font-style="" opacity="1" y="4.25" transform="rotate(0)"><tspan id="SvgjsTspan1101" dy="22" x="60"><tspan id="SvgjsTspan1102" style="text-decoration:;">其他用户</tspan></tspan></text></g></g></svg>