<svg id="SvgjsSvg1192" width="380" height="380" xmlns="http://www.w3.org/2000/svg" version="1.1" xmlns:xlink="http://www.w3.org/1999/xlink" xmlns:svgjs="http://svgjs.com/svgjs"><defs id="SvgjsDefs1193"><marker id="SvgjsMarker1270" markerWidth="14" markerHeight="10" refX="10" refY="5" viewBox="0 0 14 10" orient="auto" markerUnits="userSpaceOnUse" stroke-dasharray="0,0"><path id="SvgjsPath1271" d="M0,0 L14,5 L0,10 L0,0" fill="#323232" stroke="#323232" stroke-width="1"></path></marker><marker id="SvgjsMarker1274" markerWidth="14" markerHeight="10" refX="10" refY="5" viewBox="0 0 14 10" orient="auto" markerUnits="userSpaceOnUse" stroke-dasharray="0,0"><path id="SvgjsPath1275" d="M0,0 L14,5 L0,10 L0,0" fill="#323232" stroke="#323232" stroke-width="1"></path></marker><marker id="SvgjsMarker1278" markerWidth="14" markerHeight="10" refX="10" refY="5" viewBox="0 0 14 10" orient="auto" markerUnits="userSpaceOnUse" stroke-dasharray="0,0"><path id="SvgjsPath1279" d="M0,0 L14,5 L0,10 L0,0" fill="#323232" stroke="#323232" stroke-width="1"></path></marker></defs><g id="SvgjsG1194" transform="translate(25,25)"><path id="SvgjsPath1195" d="M 0 4Q 0 0 4 0L 56 0Q 60 0 60 4L 60 56Q 60 60 56 60L 4 60Q 0 60 0 56Z" stroke="rgba(50,50,50,1)" stroke-width="2" fill-opacity="1" fill="#ffcdd2"></path><g id="SvgjsG1196"><text id="SvgjsText1197" font-family="微软雅黑" text-anchor="middle" font-size="19px" width="40px" fill="#323232" font-weight="400" align="middle" lineHeight="125%" anchor="middle" family="微软雅黑" size="19px" weight="400" font-style="" opacity="1" y="13.625" transform="rotate(0)"><tspan id="SvgjsTspan1198" dy="23" x="30"><tspan id="SvgjsTspan1199" style="text-decoration:;">STA</tspan></tspan></text></g></g><g id="SvgjsG1200" transform="translate(115,25)"><path id="SvgjsPath1201" d="M 0 4Q 0 0 4 0L 56 0Q 60 0 60 4L 60 56Q 60 60 56 60L 4 60Q 0 60 0 56Z" stroke="rgba(50,50,50,1)" stroke-width="2" fill-opacity="1" fill="#ffe0b2"></path><g id="SvgjsG1202"><text id="SvgjsText1203" font-family="微软雅黑" text-anchor="middle" font-size="19px" width="40px" fill="#323232" font-weight="400" align="middle" lineHeight="125%" anchor="middle" family="微软雅黑" size="19px" weight="400" font-style="" opacity="1" y="13.625" transform="rotate(0)"><tspan id="SvgjsTspan1204" dy="23" x="30"><tspan id="SvgjsTspan1205" style="text-decoration:;">2</tspan></tspan></text></g></g><g id="SvgjsG1206" transform="translate(205,25)"><path id="SvgjsPath1207" d="M 0 4Q 0 0 4 0L 56 0Q 60 0 60 4L 60 56Q 60 60 56 60L 4 60Q 0 60 0 56Z" stroke="rgba(50,50,50,1)" stroke-width="2" fill-opacity="1" fill="#c8e6c9"></path><g id="SvgjsG1208"><text id="SvgjsText1209" font-family="微软雅黑" text-anchor="middle" font-size="19px" width="40px" fill="#323232" font-weight="400" align="middle" lineHeight="125%" anchor="middle" family="微软雅黑" size="19px" weight="400" font-style="" opacity="1" y="13.625" transform="rotate(0)"><tspan id="SvgjsTspan1210" dy="23" x="30"><tspan id="SvgjsTspan1211" style="text-decoration:;">3</tspan></tspan></text></g></g><g id="SvgjsG1212" transform="translate(295,25)"><path id="SvgjsPath1213" d="M 0 4Q 0 0 4 0L 56 0Q 60 0 60 4L 60 56Q 60 60 56 60L 4 60Q 0 60 0 56Z" stroke="rgba(50,50,50,1)" stroke-width="2" fill-opacity="1" fill="#b2ebf2"></path><g id="SvgjsG1214"><text id="SvgjsText1215" font-family="微软雅黑" text-anchor="middle" font-size="19px" width="40px" fill="#323232" font-weight="400" align="middle" lineHeight="125%" anchor="middle" family="微软雅黑" size="19px" weight="400" font-style="" opacity="1" y="13.625" transform="rotate(0)"><tspan id="SvgjsTspan1216" dy="23" x="30"><tspan id="SvgjsTspan1217" style="text-decoration:;">4</tspan></tspan></text></g></g><g id="SvgjsG1218" transform="translate(25,115)"><path id="SvgjsPath1219" d="M 0 4Q 0 0 4 0L 56 0Q 60 0 60 4L 60 56Q 60 60 56 60L 4 60Q 0 60 0 56Z" stroke="rgba(50,50,50,1)" stroke-width="2" fill-opacity="1" fill="#ffffff"></path><g id="SvgjsG1220"><text id="SvgjsText1221" font-family="微软雅黑" text-anchor="middle" font-size="19px" width="40px" fill="#323232" font-weight="400" align="middle" lineHeight="125%" anchor="middle" family="微软雅黑" size="19px" weight="400" font-style="" opacity="1" y="13.625" transform="rotate(0)"></text></g></g><g id="SvgjsG1222" transform="translate(115,115)"><path id="SvgjsPath1223" d="M 0 4Q 0 0 4 0L 56 0Q 60 0 60 4L 60 56Q 60 60 56 60L 4 60Q 0 60 0 56Z" stroke="rgba(50,50,50,1)" stroke-width="2" fill-opacity="1" fill="#ffffff"></path><g id="SvgjsG1224"><text id="SvgjsText1225" font-family="微软雅黑" text-anchor="middle" font-size="19px" width="40px" fill="#323232" font-weight="400" align="middle" lineHeight="125%" anchor="middle" family="微软雅黑" size="19px" weight="400" font-style="" opacity="1" y="13.625" transform="rotate(0)"></text></g></g><g id="SvgjsG1226" transform="translate(205,115)"><path id="SvgjsPath1227" d="M 0 4Q 0 0 4 0L 56 0Q 60 0 60 4L 60 56Q 60 60 56 60L 4 60Q 0 60 0 56Z" stroke="rgba(50,50,50,1)" stroke-width="2" fill-opacity="1" fill="#ffffff"></path><g id="SvgjsG1228"><text id="SvgjsText1229" font-family="微软雅黑" text-anchor="middle" font-size="19px" width="40px" fill="#323232" font-weight="400" align="middle" lineHeight="125%" anchor="middle" family="微软雅黑" size="19px" weight="400" font-style="" opacity="1" y="13.625" transform="rotate(0)"></text></g></g><g id="SvgjsG1230" transform="translate(295,115)"><path id="SvgjsPath1231" d="M 0 4Q 0 0 4 0L 56 0Q 60 0 60 4L 60 56Q 60 60 56 60L 4 60Q 0 60 0 56Z" stroke="rgba(50,50,50,1)" stroke-width="2" fill-opacity="1" fill="#ffffff"></path><g id="SvgjsG1232"><text id="SvgjsText1233" font-family="微软雅黑" text-anchor="middle" font-size="19px" width="40px" fill="#323232" font-weight="400" align="middle" lineHeight="125%" anchor="middle" family="微软雅黑" size="19px" weight="400" font-style="" opacity="1" y="13.625" transform="rotate(0)"></text></g></g><g id="SvgjsG1234" transform="translate(25,205)"><path id="SvgjsPath1235" d="M 0 4Q 0 0 4 0L 56 0Q 60 0 60 4L 60 56Q 60 60 56 60L 4 60Q 0 60 0 56Z" stroke="rgba(50,50,50,1)" stroke-width="2" fill-opacity="1" fill="#ffffff"></path><g id="SvgjsG1236"><text id="SvgjsText1237" font-family="微软雅黑" text-anchor="middle" font-size="19px" width="40px" fill="#323232" font-weight="400" align="middle" lineHeight="125%" anchor="middle" family="微软雅黑" size="19px" weight="400" font-style="" opacity="1" y="13.625" transform="rotate(0)"></text></g></g><g id="SvgjsG1238" transform="translate(115,205)"><path id="SvgjsPath1239" d="M 0 4Q 0 0 4 0L 56 0Q 60 0 60 4L 60 56Q 60 60 56 60L 4 60Q 0 60 0 56Z" stroke="rgba(50,50,50,1)" stroke-width="2" fill-opacity="1" fill="#ffffff"></path><g id="SvgjsG1240"><text id="SvgjsText1241" font-family="微软雅黑" text-anchor="middle" font-size="19px" width="40px" fill="#323232" font-weight="400" align="middle" lineHeight="125%" anchor="middle" family="微软雅黑" size="19px" weight="400" font-style="" opacity="1" y="13.625" transform="rotate(0)"></text></g></g><g id="SvgjsG1242" transform="translate(205,205)"><path id="SvgjsPath1243" d="M 0 4Q 0 0 4 0L 56 0Q 60 0 60 4L 60 56Q 60 60 56 60L 4 60Q 0 60 0 56Z" stroke="rgba(50,50,50,1)" stroke-width="2" fill-opacity="1" fill="#ffffff"></path><g id="SvgjsG1244"><text id="SvgjsText1245" font-family="微软雅黑" text-anchor="middle" font-size="19px" width="40px" fill="#323232" font-weight="400" align="middle" lineHeight="125%" anchor="middle" family="微软雅黑" size="19px" weight="400" font-style="" opacity="1" y="13.625" transform="rotate(0)"></text></g></g><g id="SvgjsG1246" transform="translate(295,205)"><path id="SvgjsPath1247" d="M 0 4Q 0 0 4 0L 56 0Q 60 0 60 4L 60 56Q 60 60 56 60L 4 60Q 0 60 0 56Z" stroke="rgba(50,50,50,1)" stroke-width="2" fill-opacity="1" fill="#ffffff"></path><g id="SvgjsG1248"><text id="SvgjsText1249" font-family="微软雅黑" text-anchor="middle" font-size="19px" width="40px" fill="#323232" font-weight="400" align="middle" lineHeight="125%" anchor="middle" family="微软雅黑" size="19px" weight="400" font-style="" opacity="1" y="13.625" transform="rotate(0)"></text></g></g><g id="SvgjsG1250" transform="translate(25,295)"><path id="SvgjsPath1251" d="M 0 4Q 0 0 4 0L 56 0Q 60 0 60 4L 60 56Q 60 60 56 60L 4 60Q 0 60 0 56Z" stroke="rgba(50,50,50,1)" stroke-width="2" fill-opacity="1" fill="#ffffff"></path><g id="SvgjsG1252"><text id="SvgjsText1253" font-family="微软雅黑" text-anchor="middle" font-size="19px" width="40px" fill="#323232" font-weight="400" align="middle" lineHeight="125%" anchor="middle" family="微软雅黑" size="19px" weight="400" font-style="" opacity="1" y="13.625" transform="rotate(0)"></text></g></g><g id="SvgjsG1254" transform="translate(115,295)"><path id="SvgjsPath1255" d="M 0 4Q 0 0 4 0L 56 0Q 60 0 60 4L 60 56Q 60 60 56 60L 4 60Q 0 60 0 56Z" stroke="rgba(50,50,50,1)" stroke-width="2" fill-opacity="1" fill="#ffffff"></path><g id="SvgjsG1256"><text id="SvgjsText1257" font-family="微软雅黑" text-anchor="middle" font-size="19px" width="40px" fill="#323232" font-weight="400" align="middle" lineHeight="125%" anchor="middle" family="微软雅黑" size="19px" weight="400" font-style="" opacity="1" y="13.625" transform="rotate(0)"></text></g></g><g id="SvgjsG1258" transform="translate(205,295)"><path id="SvgjsPath1259" d="M 0 4Q 0 0 4 0L 56 0Q 60 0 60 4L 60 56Q 60 60 56 60L 4 60Q 0 60 0 56Z" stroke="rgba(50,50,50,1)" stroke-width="2" fill-opacity="1" fill="#ffffff"></path><g id="SvgjsG1260"><text id="SvgjsText1261" font-family="微软雅黑" text-anchor="middle" font-size="19px" width="40px" fill="#323232" font-weight="400" align="middle" lineHeight="125%" anchor="middle" family="微软雅黑" size="19px" weight="400" font-style="" opacity="1" y="13.625" transform="rotate(0)"></text></g></g><g id="SvgjsG1262" transform="translate(295,295)"><path id="SvgjsPath1263" d="M 0 4Q 0 0 4 0L 56 0Q 60 0 60 4L 60 56Q 60 60 56 60L 4 60Q 0 60 0 56Z" stroke="rgba(50,50,50,1)" stroke-width="2" fill-opacity="1" fill="#e1bee7"></path><g id="SvgjsG1264"><text id="SvgjsText1265" font-family="微软雅黑" text-anchor="middle" font-size="19px" width="40px" fill="#323232" font-weight="400" align="middle" lineHeight="125%" anchor="middle" family="微软雅黑" size="19px" weight="400" font-style="" opacity="1" y="13.625" transform="rotate(0)"><tspan id="SvgjsTspan1266" dy="23" x="30"><tspan id="SvgjsTspan1267" style="text-decoration:;">END</tspan></tspan></text></g></g><g id="SvgjsG1268"><path id="SvgjsPath1269" d="M86 55L111.4 55" stroke-dasharray="3,3" stroke="#323232" stroke-width="2" fill="none" marker-end="url(#SvgjsMarker1270)"></path></g><g id="SvgjsG1272"><path id="SvgjsPath1273" d="M176 55L201.4 55" stroke-dasharray="3,3" stroke="#323232" stroke-width="2" fill="none" marker-end="url(#SvgjsMarker1274)"></path></g><g id="SvgjsG1276"><path id="SvgjsPath1277" d="M266 55L291.4 55" stroke-dasharray="3,3" stroke="#323232" stroke-width="2" fill="none" marker-end="url(#SvgjsMarker1278)"></path></g></svg>