<svg id="SvgjsSvg1006" width="510" height="248" xmlns="http://www.w3.org/2000/svg" version="1.1" xmlns:xlink="http://www.w3.org/1999/xlink" xmlns:svgjs="http://svgjs.com/svgjs"><defs id="SvgjsDefs1007"><marker id="SvgjsMarker1082" markerWidth="14" markerHeight="10" refX="10" refY="5" viewBox="0 0 14 10" orient="auto" markerUnits="userSpaceOnUse" stroke-dasharray="0,0"><path id="SvgjsPath1083" d="M0,0 L14,5 L0,10 L0,0" fill="#323232" stroke="#323232" stroke-width="1"></path></marker><marker id="SvgjsMarker1086" markerWidth="14" markerHeight="10" refX="10" refY="5" viewBox="0 0 14 10" orient="auto" markerUnits="userSpaceOnUse" stroke-dasharray="0,0"><path id="SvgjsPath1087" d="M0,0 L14,5 L0,10 L0,0" fill="#323232" stroke="#323232" stroke-width="1"></path></marker><marker id="SvgjsMarker1090" markerWidth="14" markerHeight="10" refX="10" refY="5" viewBox="0 0 14 10" orient="auto" markerUnits="userSpaceOnUse" stroke-dasharray="0,0"><path id="SvgjsPath1091" d="M0,0 L14,5 L0,10 L0,0" fill="#323232" stroke="#323232" stroke-width="1"></path></marker></defs><g id="SvgjsG1008" transform="translate(25,163)"><path id="SvgjsPath1009" d="M 0 4Q 0 0 4 0L 56 0Q 60 0 60 4L 60 56Q 60 60 56 60L 4 60Q 0 60 0 56Z" stroke="rgba(50,50,50,1)" stroke-width="2" fill-opacity="1" fill="#c8e6c9"></path><g id="SvgjsG1010"><text id="SvgjsText1011" font-family="微软雅黑" text-anchor="middle" font-size="25px" width="40px" fill="#323232" font-weight="400" align="middle" lineHeight="125%" anchor="middle" family="微软雅黑" size="25px" weight="400" font-style="" opacity="1" y="7.875" transform="rotate(0)"><tspan id="SvgjsTspan1012" dy="31" x="30"><tspan id="SvgjsTspan1013" style="text-decoration:;">a5</tspan></tspan></text></g></g><g id="SvgjsG1014" transform="translate(105,163)"><path id="SvgjsPath1015" d="M 0 4Q 0 0 4 0L 56 0Q 60 0 60 4L 60 56Q 60 60 56 60L 4 60Q 0 60 0 56Z" stroke="rgba(50,50,50,1)" stroke-width="2" fill-opacity="1" fill="#c8e6c9"></path><g id="SvgjsG1016"><text id="SvgjsText1017" font-family="微软雅黑" text-anchor="middle" font-size="25px" width="40px" fill="#323232" font-weight="400" align="middle" lineHeight="125%" anchor="middle" family="微软雅黑" size="25px" weight="400" font-style="" opacity="1" y="7.875" transform="rotate(0)"><tspan id="SvgjsTspan1018" dy="31" x="30"><tspan id="SvgjsTspan1019" style="text-decoration:;">a4</tspan></tspan></text></g></g><g id="SvgjsG1020" transform="translate(185,163)"><path id="SvgjsPath1021" d="M 0 4Q 0 0 4 0L 56 0Q 60 0 60 4L 60 56Q 60 60 56 60L 4 60Q 0 60 0 56Z" stroke="rgba(50,50,50,1)" stroke-width="2" fill-opacity="1" fill="#4caf50"></path><g id="SvgjsG1022"><text id="SvgjsText1023" font-family="微软雅黑" text-anchor="middle" font-size="25px" width="40px" fill="#323232" font-weight="400" align="middle" lineHeight="125%" anchor="middle" family="微软雅黑" size="25px" weight="400" font-style="" opacity="1" y="7.875" transform="rotate(0)"><tspan id="SvgjsTspan1024" dy="31" x="30"><tspan id="SvgjsTspan1025" style="text-decoration:;">a3</tspan></tspan></text></g></g><g id="SvgjsG1026" transform="translate(265,163)"><path id="SvgjsPath1027" d="M 0 4Q 0 0 4 0L 56 0Q 60 0 60 4L 60 56Q 60 60 56 60L 4 60Q 0 60 0 56Z" stroke="rgba(50,50,50,1)" stroke-width="2" fill-opacity="1" fill="#c8e6c9"></path><g id="SvgjsG1028"><text id="SvgjsText1029" font-family="微软雅黑" text-anchor="middle" font-size="25px" width="40px" fill="#323232" font-weight="400" align="middle" lineHeight="125%" anchor="middle" family="微软雅黑" size="25px" weight="400" font-style="" opacity="1" y="7.875" transform="rotate(0)"><tspan id="SvgjsTspan1030" dy="31" x="30"><tspan id="SvgjsTspan1031" style="text-decoration:;">a2</tspan></tspan></text></g></g><g id="SvgjsG1032" transform="translate(345,163)"><path id="SvgjsPath1033" d="M 0 4Q 0 0 4 0L 56 0Q 60 0 60 4L 60 56Q 60 60 56 60L 4 60Q 0 60 0 56Z" stroke="rgba(50,50,50,1)" stroke-width="2" fill-opacity="1" fill="#4caf50"></path><g id="SvgjsG1034"><text id="SvgjsText1035" font-family="微软雅黑" text-anchor="middle" font-size="25px" width="40px" fill="#323232" font-weight="400" align="middle" lineHeight="125%" anchor="middle" family="微软雅黑" size="25px" weight="400" font-style="" opacity="1" y="7.875" transform="rotate(0)"><tspan id="SvgjsTspan1036" dy="31" x="30"><tspan id="SvgjsTspan1037" style="text-decoration:;">a1</tspan></tspan></text></g></g><g id="SvgjsG1038" transform="translate(425,163)"><path id="SvgjsPath1039" d="M 0 4Q 0 0 4 0L 56 0Q 60 0 60 4L 60 56Q 60 60 56 60L 4 60Q 0 60 0 56Z" stroke="rgba(50,50,50,1)" stroke-width="2" fill-opacity="1" fill="#4caf50"></path><g id="SvgjsG1040"><text id="SvgjsText1041" font-family="微软雅黑" text-anchor="middle" font-size="25px" width="40px" fill="#323232" font-weight="400" align="middle" lineHeight="125%" anchor="middle" family="微软雅黑" size="25px" weight="400" font-style="" opacity="1" y="7.875" transform="rotate(0)"><tspan id="SvgjsTspan1042" dy="31" x="30"><tspan id="SvgjsTspan1043" style="text-decoration:;">a0</tspan></tspan></text></g></g><g id="SvgjsG1044" transform="translate(25,25)"><path id="SvgjsPath1045" d="M 0 4Q 0 0 4 0L 56 0Q 60 0 60 4L 60 56Q 60 60 56 60L 4 60Q 0 60 0 56Z" stroke="rgba(50,50,50,1)" stroke-width="2" fill-opacity="1" fill="#fff9c4"></path><g id="SvgjsG1046"><text id="SvgjsText1047" font-family="微软雅黑" text-anchor="middle" font-size="25px" width="40px" fill="#323232" font-weight="400" align="middle" lineHeight="125%" anchor="middle" family="微软雅黑" size="25px" weight="400" font-style="" opacity="1" y="7.875" transform="rotate(0)"><tspan id="SvgjsTspan1048" dy="31" x="30"><tspan id="SvgjsTspan1049" style="text-decoration:;">0</tspan></tspan></text></g></g><g id="SvgjsG1050" transform="translate(105,25)"><path id="SvgjsPath1051" d="M 0 4Q 0 0 4 0L 56 0Q 60 0 60 4L 60 56Q 60 60 56 60L 4 60Q 0 60 0 56Z" stroke="rgba(50,50,50,1)" stroke-width="2" fill-opacity="1" fill="#fff9c4"></path><g id="SvgjsG1052"><text id="SvgjsText1053" font-family="微软雅黑" text-anchor="middle" font-size="25px" width="40px" fill="#323232" font-weight="400" align="middle" lineHeight="125%" anchor="middle" family="微软雅黑" size="25px" weight="400" font-style="" opacity="1" y="7.875" transform="rotate(0)"><tspan id="SvgjsTspan1054" dy="31" x="30"><tspan id="SvgjsTspan1055" style="text-decoration:;">0</tspan></tspan></text></g></g><g id="SvgjsG1056" transform="translate(185,25)"><path id="SvgjsPath1057" d="M 0 4Q 0 0 4 0L 56 0Q 60 0 60 4L 60 56Q 60 60 56 60L 4 60Q 0 60 0 56Z" stroke="rgba(50,50,50,1)" stroke-width="2" fill-opacity="1" fill="#ffb74d"></path><g id="SvgjsG1058"><text id="SvgjsText1059" font-family="微软雅黑" text-anchor="middle" font-size="25px" width="40px" fill="#323232" font-weight="400" align="middle" lineHeight="125%" anchor="middle" family="微软雅黑" size="25px" weight="400" font-style="" opacity="1" y="7.875" transform="rotate(0)"><tspan id="SvgjsTspan1060" dy="31" x="30"><tspan id="SvgjsTspan1061" style="text-decoration:;">1</tspan></tspan></text></g></g><g id="SvgjsG1062" transform="translate(265,25)"><path id="SvgjsPath1063" d="M 0 4Q 0 0 4 0L 56 0Q 60 0 60 4L 60 56Q 60 60 56 60L 4 60Q 0 60 0 56Z" stroke="rgba(50,50,50,1)" stroke-width="2" fill-opacity="1" fill="#fff9c4"></path><g id="SvgjsG1064"><text id="SvgjsText1065" font-family="微软雅黑" text-anchor="middle" font-size="25px" width="40px" fill="#323232" font-weight="400" align="middle" lineHeight="125%" anchor="middle" family="微软雅黑" size="25px" weight="400" font-style="" opacity="1" y="7.875" transform="rotate(0)"><tspan id="SvgjsTspan1066" dy="31" x="30"><tspan id="SvgjsTspan1067" style="text-decoration:;">0</tspan></tspan></text></g></g><g id="SvgjsG1068" transform="translate(345,25)"><path id="SvgjsPath1069" d="M 0 4Q 0 0 4 0L 56 0Q 60 0 60 4L 60 56Q 60 60 56 60L 4 60Q 0 60 0 56Z" stroke="rgba(50,50,50,1)" stroke-width="2" fill-opacity="1" fill="#ffb74d"></path><g id="SvgjsG1070"><text id="SvgjsText1071" font-family="微软雅黑" text-anchor="middle" font-size="25px" width="40px" fill="#323232" font-weight="400" align="middle" lineHeight="125%" anchor="middle" family="微软雅黑" size="25px" weight="400" font-style="" opacity="1" y="7.875" transform="rotate(0)"><tspan id="SvgjsTspan1072" dy="31" x="30"><tspan id="SvgjsTspan1073" style="text-decoration:;">1</tspan></tspan></text></g></g><g id="SvgjsG1074" transform="translate(425,25)"><path id="SvgjsPath1075" d="M 0 4Q 0 0 4 0L 56 0Q 60 0 60 4L 60 56Q 60 60 56 60L 4 60Q 0 60 0 56Z" stroke="rgba(50,50,50,1)" stroke-width="2" fill-opacity="1" fill="#ffb74d"></path><g id="SvgjsG1076"><text id="SvgjsText1077" font-family="微软雅黑" text-anchor="middle" font-size="25px" width="40px" fill="#323232" font-weight="400" align="middle" lineHeight="125%" anchor="middle" family="微软雅黑" size="25px" weight="400" font-style="" opacity="1" y="7.875" transform="rotate(0)"><tspan id="SvgjsTspan1078" dy="31" x="30"><tspan id="SvgjsTspan1079" style="text-decoration:;">1</tspan></tspan></text></g></g><g id="SvgjsG1080"><path id="SvgjsPath1081" d="M215 86L215 124L215 124L215 159.4" stroke-dasharray="8,5" stroke="#323232" stroke-width="2" fill="none" marker-end="url(#SvgjsMarker1082)"></path></g><g id="SvgjsG1084"><path id="SvgjsPath1085" d="M375 86L375 124L375 124L375 159.4" stroke-dasharray="8,5" stroke="#323232" stroke-width="2" fill="none" marker-end="url(#SvgjsMarker1086)"></path></g><g id="SvgjsG1088"><path id="SvgjsPath1089" d="M455 86L455 124L455 124L455 159.4" stroke-dasharray="8,5" stroke="#323232" stroke-width="2" fill="none" marker-end="url(#SvgjsMarker1090)"></path></g></svg>