<svg id="SvgjsSvg3098" width="810" height="516" xmlns="http://www.w3.org/2000/svg" version="1.1" xmlns:xlink="http://www.w3.org/1999/xlink" xmlns:svgjs="http://svgjs.com/svgjs"><defs id="SvgjsDefs3099"><marker id="SvgjsMarker3198" markerWidth="14" markerHeight="10" refX="4" refY="5" viewBox="0 0 14 10" orient="auto" markerUnits="userSpaceOnUse" stroke-dasharray="0,0"><path id="SvgjsPath3199" d="M14,0 L0,5 L14,10 L14,0" fill="#323232" stroke="#323232" stroke-width="1"></path></marker><marker id="SvgjsMarker3202" markerWidth="14" markerHeight="10" refX="10" refY="5" viewBox="0 0 14 10" orient="auto" markerUnits="userSpaceOnUse" stroke-dasharray="0,0"><path id="SvgjsPath3203" d="M0,0 L14,5 L0,10 L0,0" fill="#323232" stroke="#323232" stroke-width="1"></path></marker><marker id="SvgjsMarker3206" markerWidth="14" markerHeight="10" refX="10" refY="5" viewBox="0 0 14 10" orient="auto" markerUnits="userSpaceOnUse" stroke-dasharray="0,0"><path id="SvgjsPath3207" d="M0,0 L14,5 L0,10 L0,0" fill="#323232" stroke="#323232" stroke-width="1"></path></marker><marker id="SvgjsMarker3210" markerWidth="14" markerHeight="10" refX="10" refY="5" viewBox="0 0 14 10" orient="auto" markerUnits="userSpaceOnUse" stroke-dasharray="0,0"><path id="SvgjsPath3211" d="M0,0 L14,5 L0,10 L0,0" fill="#323232" stroke="#323232" stroke-width="1"></path></marker><marker id="SvgjsMarker3214" markerWidth="14" markerHeight="10" refX="10" refY="5" viewBox="0 0 14 10" orient="auto" markerUnits="userSpaceOnUse" stroke-dasharray="0,0"><path id="SvgjsPath3215" d="M0,0 L14,5 L0,10 L0,0" fill="#323232" stroke="#323232" stroke-width="1"></path></marker><marker id="SvgjsMarker3218" markerWidth="14" markerHeight="10" refX="10" refY="5" viewBox="0 0 14 10" orient="auto" markerUnits="userSpaceOnUse" stroke-dasharray="0,0"><path id="SvgjsPath3219" d="M0,0 L14,5 L0,10 L0,0" fill="#323232" stroke="#323232" stroke-width="1"></path></marker><marker id="SvgjsMarker3222" markerWidth="14" markerHeight="10" refX="10" refY="5" viewBox="0 0 14 10" orient="auto" markerUnits="userSpaceOnUse" stroke-dasharray="0,0"><path id="SvgjsPath3223" d="M0,0 L14,5 L0,10 L0,0" fill="#323232" stroke="#323232" stroke-width="1"></path></marker><marker id="SvgjsMarker3226" markerWidth="14" markerHeight="10" refX="10" refY="5" viewBox="0 0 14 10" orient="auto" markerUnits="userSpaceOnUse" stroke-dasharray="0,0"><path id="SvgjsPath3227" d="M0,0 L14,5 L0,10 L0,0" fill="#323232" stroke="#323232" stroke-width="1"></path></marker><marker id="SvgjsMarker3242" markerWidth="14" markerHeight="10" refX="10" refY="5" viewBox="0 0 14 10" orient="auto" markerUnits="userSpaceOnUse" stroke-dasharray="0,0"><path id="SvgjsPath3243" d="M0,0 L14,5 L0,10 L0,0" fill="#323232" stroke="#323232" stroke-width="1"></path></marker></defs><g id="SvgjsG3100" transform="translate(25,431)"><path id="SvgjsPath3101" d="M 0 4Q 0 0 4 0L 56 0Q 60 0 60 4L 60 56Q 60 60 56 60L 4 60Q 0 60 0 56Z" stroke="rgba(50,50,50,1)" stroke-width="2" fill-opacity="1" fill="#ffb74d"></path><g id="SvgjsG3102"><text id="SvgjsText3103" font-family="微软雅黑" text-anchor="middle" font-size="20px" width="40px" fill="#323232" font-weight="400" align="middle" lineHeight="125%" anchor="middle" family="微软雅黑" size="20px" weight="400" font-style="" opacity="1" y="12" transform="rotate(0)"><tspan id="SvgjsTspan3104" dy="25" x="30"><tspan id="SvgjsTspan3105" style="text-decoration:;">A1</tspan></tspan></text></g></g><g id="SvgjsG3106" transform="translate(125,431)"><path id="SvgjsPath3107" d="M 0 4Q 0 0 4 0L 56 0Q 60 0 60 4L 60 56Q 60 60 56 60L 4 60Q 0 60 0 56Z" stroke="rgba(50,50,50,1)" stroke-width="2" fill-opacity="1" fill="#fff9c4"></path><g id="SvgjsG3108"><text id="SvgjsText3109" font-family="微软雅黑" text-anchor="middle" font-size="20px" width="40px" fill="#323232" font-weight="400" align="middle" lineHeight="125%" anchor="middle" family="微软雅黑" size="20px" weight="400" font-style="" opacity="1" y="12" transform="rotate(0)"><tspan id="SvgjsTspan3110" dy="25" x="30"><tspan id="SvgjsTspan3111" style="text-decoration:;">A2</tspan></tspan></text></g></g><g id="SvgjsG3112" transform="translate(225,431)"><path id="SvgjsPath3113" d="M 0 4Q 0 0 4 0L 56 0Q 60 0 60 4L 60 56Q 60 60 56 60L 4 60Q 0 60 0 56Z" stroke="rgba(50,50,50,1)" stroke-width="2" fill-opacity="1" fill="#fff9c4"></path><g id="SvgjsG3114"><text id="SvgjsText3115" font-family="微软雅黑" text-anchor="middle" font-size="20px" width="40px" fill="#323232" font-weight="400" align="middle" lineHeight="125%" anchor="middle" family="微软雅黑" size="20px" weight="400" font-style="" opacity="1" y="12" transform="rotate(0)"><tspan id="SvgjsTspan3116" dy="25" x="30"><tspan id="SvgjsTspan3117" style="text-decoration:;">A3</tspan></tspan></text></g></g><g id="SvgjsG3118" transform="translate(325,431)"><path id="SvgjsPath3119" d="M 0 4Q 0 0 4 0L 56 0Q 60 0 60 4L 60 56Q 60 60 56 60L 4 60Q 0 60 0 56Z" stroke="rgba(50,50,50,1)" stroke-width="2" fill-opacity="1" fill="#fff9c4"></path><g id="SvgjsG3120"><text id="SvgjsText3121" font-family="微软雅黑" text-anchor="middle" font-size="20px" width="40px" fill="#323232" font-weight="400" align="middle" lineHeight="125%" anchor="middle" family="微软雅黑" size="20px" weight="400" font-style="" opacity="1" y="12" transform="rotate(0)"><tspan id="SvgjsTspan3122" dy="25" x="30"><tspan id="SvgjsTspan3123" style="text-decoration:;">A4</tspan></tspan></text></g></g><g id="SvgjsG3124" transform="translate(425,431)"><path id="SvgjsPath3125" d="M 0 4Q 0 0 4 0L 56 0Q 60 0 60 4L 60 56Q 60 60 56 60L 4 60Q 0 60 0 56Z" stroke="rgba(50,50,50,1)" stroke-width="2" fill-opacity="1" fill="#fff9c4"></path><g id="SvgjsG3126"><text id="SvgjsText3127" font-family="微软雅黑" text-anchor="middle" font-size="20px" width="40px" fill="#323232" font-weight="400" align="middle" lineHeight="125%" anchor="middle" family="微软雅黑" size="20px" weight="400" font-style="" opacity="1" y="12" transform="rotate(0)"><tspan id="SvgjsTspan3128" dy="25" x="30"><tspan id="SvgjsTspan3129" style="text-decoration:;">A5</tspan></tspan></text></g></g><g id="SvgjsG3130" transform="translate(525,431)"><path id="SvgjsPath3131" d="M 0 4Q 0 0 4 0L 56 0Q 60 0 60 4L 60 56Q 60 60 56 60L 4 60Q 0 60 0 56Z" stroke="rgba(50,50,50,1)" stroke-width="2" fill-opacity="1" fill="#fff9c4"></path><g id="SvgjsG3132"><text id="SvgjsText3133" font-family="微软雅黑" text-anchor="middle" font-size="20px" width="40px" fill="#323232" font-weight="400" align="middle" lineHeight="125%" anchor="middle" family="微软雅黑" size="20px" weight="400" font-style="" opacity="1" y="12" transform="rotate(0)"><tspan id="SvgjsTspan3134" dy="25" x="30"><tspan id="SvgjsTspan3135" style="text-decoration:;">A6</tspan></tspan></text></g></g><g id="SvgjsG3136" transform="translate(625,431)"><path id="SvgjsPath3137" d="M 0 4Q 0 0 4 0L 56 0Q 60 0 60 4L 60 56Q 60 60 56 60L 4 60Q 0 60 0 56Z" stroke="rgba(50,50,50,1)" stroke-width="2" fill-opacity="1" fill="#fff9c4"></path><g id="SvgjsG3138"><text id="SvgjsText3139" font-family="微软雅黑" text-anchor="middle" font-size="20px" width="40px" fill="#323232" font-weight="400" align="middle" lineHeight="125%" anchor="middle" family="微软雅黑" size="20px" weight="400" font-style="" opacity="1" y="12" transform="rotate(0)"><tspan id="SvgjsTspan3140" dy="25" x="30"><tspan id="SvgjsTspan3141" style="text-decoration:;">A7</tspan></tspan></text></g></g><g id="SvgjsG3142" transform="translate(725,431)"><path id="SvgjsPath3143" d="M 0 4Q 0 0 4 0L 56 0Q 60 0 60 4L 60 56Q 60 60 56 60L 4 60Q 0 60 0 56Z" stroke="rgba(50,50,50,1)" stroke-width="2" fill-opacity="1" fill="#fff9c4"></path><g id="SvgjsG3144"><text id="SvgjsText3145" font-family="微软雅黑" text-anchor="middle" font-size="20px" width="40px" fill="#323232" font-weight="400" align="middle" lineHeight="125%" anchor="middle" family="微软雅黑" size="20px" weight="400" font-style="" opacity="1" y="12" transform="rotate(0)"><tspan id="SvgjsTspan3146" dy="25" x="30"><tspan id="SvgjsTspan3147" style="text-decoration:;">A8</tspan></tspan></text></g></g><g id="SvgjsG3148" transform="translate(25,330)"><path id="SvgjsPath3149" d="M 0 30C 0 -10 60 -10 60 30C 60 70 0 70 0 30Z" stroke="rgba(50,50,50,1)" stroke-width="2" fill-opacity="1" fill="#4caf50"></path><g id="SvgjsG3150"><text id="SvgjsText3151" font-family="微软雅黑" text-anchor="middle" font-size="20px" width="40px" fill="#323232" font-weight="700" align="middle" lineHeight="125%" anchor="middle" family="微软雅黑" size="20px" weight="700" font-style="" opacity="1" y="12" transform="rotate(0)"><tspan id="SvgjsTspan3152" dy="25" x="30"><tspan id="SvgjsTspan3153" style="text-decoration:;">C1</tspan></tspan></text></g></g><g id="SvgjsG3154" transform="translate(225,330)"><path id="SvgjsPath3155" d="M 0 30C 0 -10 60 -10 60 30C 60 70 0 70 0 30Z" stroke="rgba(50,50,50,1)" stroke-width="2" fill-opacity="1" fill="#c8e6c9"></path><g id="SvgjsG3156"><text id="SvgjsText3157" font-family="微软雅黑" text-anchor="middle" font-size="20px" width="40px" fill="#323232" font-weight="700" align="middle" lineHeight="125%" anchor="middle" family="微软雅黑" size="20px" weight="700" font-style="" opacity="1" y="12" transform="rotate(0)"><tspan id="SvgjsTspan3158" dy="25" x="30"><tspan id="SvgjsTspan3159" style="text-decoration:;">C3</tspan></tspan></text></g></g><g id="SvgjsG3160" transform="translate(425,330)"><path id="SvgjsPath3161" d="M 0 30C 0 -10 60 -10 60 30C 60 70 0 70 0 30Z" stroke="rgba(50,50,50,1)" stroke-width="2" fill-opacity="1" fill="#c8e6c9"></path><g id="SvgjsG3162"><text id="SvgjsText3163" font-family="微软雅黑" text-anchor="middle" font-size="20px" width="40px" fill="#323232" font-weight="700" align="middle" lineHeight="125%" anchor="middle" family="微软雅黑" size="20px" weight="700" font-style="" opacity="1" y="12" transform="rotate(0)"><tspan id="SvgjsTspan3164" dy="25" x="30"><tspan id="SvgjsTspan3165" style="text-decoration:;">C5</tspan></tspan></text></g></g><g id="SvgjsG3166" transform="translate(625,330)"><path id="SvgjsPath3167" d="M 0 30C 0 -10 60 -10 60 30C 60 70 0 70 0 30Z" stroke="rgba(50,50,50,1)" stroke-width="2" fill-opacity="1" fill="#c8e6c9"></path><g id="SvgjsG3168"><text id="SvgjsText3169" font-family="微软雅黑" text-anchor="middle" font-size="20px" width="40px" fill="#323232" font-weight="700" align="middle" lineHeight="125%" anchor="middle" family="微软雅黑" size="20px" weight="700" font-style="" opacity="1" y="12" transform="rotate(0)"><tspan id="SvgjsTspan3170" dy="25" x="30"><tspan id="SvgjsTspan3171" style="text-decoration:;">C7</tspan></tspan></text></g></g><g id="SvgjsG3172" transform="translate(125,224)"><path id="SvgjsPath3173" d="M 0 30C 0 -10 60 -10 60 30C 60 70 0 70 0 30Z" stroke="rgba(50,50,50,1)" stroke-width="2" fill-opacity="1" fill="#4caf50"></path><g id="SvgjsG3174"><text id="SvgjsText3175" font-family="微软雅黑" text-anchor="middle" font-size="20px" width="40px" fill="#323232" font-weight="700" align="middle" lineHeight="125%" anchor="middle" family="微软雅黑" size="20px" weight="700" font-style="" opacity="1" y="12" transform="rotate(0)"><tspan id="SvgjsTspan3176" dy="25" x="30"><tspan id="SvgjsTspan3177" style="text-decoration:;">C2</tspan></tspan></text></g></g><g id="SvgjsG3178" transform="translate(525,224)"><path id="SvgjsPath3179" d="M 0 30C 0 -10 60 -10 60 30C 60 70 0 70 0 30Z" stroke="rgba(50,50,50,1)" stroke-width="2" fill-opacity="1" fill="#c8e6c9"></path><g id="SvgjsG3180"><text id="SvgjsText3181" font-family="微软雅黑" text-anchor="middle" font-size="20px" width="40px" fill="#323232" font-weight="700" align="middle" lineHeight="125%" anchor="middle" family="微软雅黑" size="20px" weight="700" font-style="" opacity="1" y="12" transform="rotate(0)"><tspan id="SvgjsTspan3182" dy="25" x="30"><tspan id="SvgjsTspan3183" style="text-decoration:;">C6</tspan></tspan></text></g></g><g id="SvgjsG3184" transform="translate(325,123)"><path id="SvgjsPath3185" d="M 0 30C 0 -10 60 -10 60 30C 60 70 0 70 0 30Z" stroke="rgba(50,50,50,1)" stroke-width="2" fill-opacity="1" fill="#4caf50"></path><g id="SvgjsG3186"><text id="SvgjsText3187" font-family="微软雅黑" text-anchor="middle" font-size="20px" width="40px" fill="#323232" font-weight="700" align="middle" lineHeight="125%" anchor="middle" family="微软雅黑" size="20px" weight="700" font-style="" opacity="1" y="12" transform="rotate(0)"><tspan id="SvgjsTspan3188" dy="25" x="30"><tspan id="SvgjsTspan3189" style="text-decoration:;">C4</tspan></tspan></text></g></g><g id="SvgjsG3190" transform="translate(725,25)"><path id="SvgjsPath3191" d="M 0 30C 0 -10 60 -10 60 30C 60 70 0 70 0 30Z" stroke="rgba(50,50,50,1)" stroke-width="2" fill-opacity="1" fill="#4caf50"></path><g id="SvgjsG3192"><text id="SvgjsText3193" font-family="微软雅黑" text-anchor="middle" font-size="20px" width="40px" fill="#323232" font-weight="700" align="middle" lineHeight="125%" anchor="middle" family="微软雅黑" size="20px" weight="700" font-style="" opacity="1" y="12" transform="rotate(0)"><tspan id="SvgjsTspan3194" dy="25" x="30"><tspan id="SvgjsTspan3195" style="text-decoration:;">C8</tspan></tspan></text></g></g><g id="SvgjsG3196"><path id="SvgjsPath3197" d="M55 393.6L55 430" stroke-dasharray="8,5" stroke="#323232" stroke-width="2" fill="none" marker-start="url(#SvgjsMarker3198)"></path></g><g id="SvgjsG3200"><path id="SvgjsPath3201" d="M155 430L155 287.6" stroke="#323232" stroke-width="2" fill="none" marker-end="url(#SvgjsMarker3202)"></path></g><g id="SvgjsG3204"><path id="SvgjsPath3205" d="M255 430L255 393.6" stroke="#323232" stroke-width="2" fill="none" marker-end="url(#SvgjsMarker3206)"></path></g><g id="SvgjsG3208"><path id="SvgjsPath3209" d="M355 430L355 186.60000000000002" stroke="#323232" stroke-width="2" fill="none" marker-end="url(#SvgjsMarker3210)"></path></g><g id="SvgjsG3212"><path id="SvgjsPath3213" d="M455 430L455 393.6" stroke="#323232" stroke-width="2" fill="none" marker-end="url(#SvgjsMarker3214)"></path></g><g id="SvgjsG3216"><path id="SvgjsPath3217" d="M555 430L555 287.6" stroke="#323232" stroke-width="2" fill="none" marker-end="url(#SvgjsMarker3218)"></path></g><g id="SvgjsG3220"><path id="SvgjsPath3221" d="M655 430L655 393.6" stroke="#323232" stroke-width="2" fill="none" marker-end="url(#SvgjsMarker3222)"></path></g><g id="SvgjsG3224"><path id="SvgjsPath3225" d="M755 430L755 88.6" stroke="#323232" stroke-width="2" fill="none" marker-end="url(#SvgjsMarker3226)"></path></g><g id="SvgjsG3228"><path id="SvgjsPath3229" d="M55.90849045267856 329.58209439176784L154.09150954732144 284.41790560823216" stroke-dasharray="8,5" stroke="#323232" stroke-width="2" fill="none"></path></g><g id="SvgjsG3230"><path id="SvgjsPath3231" d="M155.9796274156859 223.7991763797844L354.02037258431403 183.2008236202156" stroke-dasharray="8,5" stroke="#323232" stroke-width="2" fill="none"></path></g><g id="SvgjsG3232"><path id="SvgjsPath3233" d="M255.562463858464 329.17317812805794L354.43753614153604 183.82682187194206" stroke="#323232" stroke-width="2" fill="none"></path></g><g id="SvgjsG3234"><path id="SvgjsPath3235" d="M455.9084904526786 329.58209439176784L554.0915095473214 284.41790560823216" stroke="#323232" stroke-width="2" fill="none"></path></g><g id="SvgjsG3236"><path id="SvgjsPath3237" d="M655.3778969974267 329.0741523563048L754.6221030025733 85.92584764369519" stroke="#323232" stroke-width="2" fill="none"></path></g><g id="SvgjsG3238"><path id="SvgjsPath3239" d="M555.821156176575 223.42929645728037L754.178843823425 85.57070354271963" stroke="#323232" stroke-width="2" fill="none"></path></g><g id="SvgjsG3240"><path id="SvgjsPath3241" d="M355.9955178160676 122.90542580747359L751.4161358621567 85.3404670930951" stroke-dasharray="8,5" stroke="#323232" stroke-width="2" fill="none" marker-end="url(#SvgjsMarker3242)"></path></g></svg>