<svg id="SvgjsSvg1348" width="804" height="625" xmlns="http://www.w3.org/2000/svg" version="1.1" xmlns:xlink="http://www.w3.org/1999/xlink" xmlns:svgjs="http://svgjs.com/svgjs"><defs id="SvgjsDefs1349"></defs><g id="SvgjsG1350" transform="translate(255,25)"><path id="SvgjsPath1351" d="M 0 27.5C 0 -9.166666666666666 55 -9.166666666666666 55 27.5C 55 64.16666666666667 0 64.16666666666667 0 27.5Z" stroke="rgba(50,50,50,1)" stroke-width="2" fill-opacity="1" fill="#81c784"></path><g id="SvgjsG1352"><text id="SvgjsText1353" font-family="微软雅黑" text-anchor="middle" font-size="20px" width="35px" fill="#323232" font-weight="700" align="middle" lineHeight="125%" anchor="middle" family="微软雅黑" size="20px" weight="700" font-style="" opacity="1" y="9.5" transform="rotate(0)"><tspan id="SvgjsTspan1354" dy="25" x="27.5"><tspan id="SvgjsTspan1355" style="text-decoration:;">239</tspan></tspan></text></g></g><g id="SvgjsG1356" transform="translate(400,157)"><path id="SvgjsPath1357" d="M 0 27.5C 0 -9.166666666666666 55 -9.166666666666666 55 27.5C 55 64.16666666666667 0 64.16666666666667 0 27.5Z" stroke="rgba(50,50,50,1)" stroke-width="2" fill-opacity="1" fill="#81c784"></path><g id="SvgjsG1358"><text id="SvgjsText1359" font-family="微软雅黑" text-anchor="middle" font-size="20px" width="35px" fill="#323232" font-weight="700" align="middle" lineHeight="125%" anchor="middle" family="微软雅黑" size="20px" weight="700" font-style="" opacity="1" y="9.5" transform="rotate(0)"><tspan id="SvgjsTspan1360" dy="25" x="27.5"><tspan id="SvgjsTspan1361" style="text-decoration:;">138</tspan></tspan></text></g></g><g id="SvgjsG1362" transform="translate(25,287)"><path id="SvgjsPath1363" d="M 0 27.5C 0 -9.166666666666666 55 -9.166666666666666 55 27.5C 55 64.16666666666667 0 64.16666666666667 0 27.5Z" stroke="rgba(50,50,50,1)" stroke-width="2" fill-opacity="1" fill="#e57373"></path><g id="SvgjsG1364"><text id="SvgjsText1365" font-family="微软雅黑" text-anchor="middle" font-size="16px" width="35px" fill="#323232" font-weight="700" align="middle" lineHeight="125%" anchor="middle" family="微软雅黑" size="16px" weight="700" font-style="" opacity="1" y="13.5" transform="rotate(0)"><tspan id="SvgjsTspan1366" dy="20" x="27.5"><tspan id="SvgjsTspan1367" style="text-decoration:;">E:46</tspan></tspan></text></g></g><g id="SvgjsG1368" transform="translate(501,287)"><path id="SvgjsPath1369" d="M 0 27.5C 0 -9.166666666666666 55 -9.166666666666666 55 27.5C 55 64.16666666666667 0 64.16666666666667 0 27.5Z" stroke="rgba(50,50,50,1)" stroke-width="2" fill-opacity="1" fill="#81c784"></path><g id="SvgjsG1370"><text id="SvgjsText1371" font-family="微软雅黑" text-anchor="middle" font-size="20px" width="35px" fill="#323232" font-weight="700" align="middle" lineHeight="125%" anchor="middle" family="微软雅黑" size="20px" weight="700" font-style="" opacity="1" y="9.5" transform="rotate(0)"><tspan id="SvgjsTspan1372" dy="25" x="27.5"><tspan id="SvgjsTspan1373" style="text-decoration:;">71</tspan></tspan></text></g></g><g id="SvgjsG1374"><path id="SvgjsPath1375" d="M144.38000779953342 212.99277483440466C 148.63805333760695 259.29816608046366 56.63805333760695 239.70183391953634 52.789414383446456 286.0427960955709" stroke="#323232" stroke-width="2" fill="none"></path></g><g id="SvgjsG1376"><path id="SvgjsPath1377" d="M282.41186551616516 80.99610858482353C 288.00923576570204 142.97085295021745 150.00923576570204 94.02914704978255 144.76419637478256 156.0355310914541" stroke="#323232" stroke-width="2" fill="none"></path></g><g id="SvgjsG1378"><path id="SvgjsPath1379" d="M282.7600742636426 80.96558861705736C 288.22357807885203 145.42079680021703 433.22357807885203 91.57920319978297 427.4166779507033 156.003477327854" stroke="#323232" stroke-width="2" fill="none"></path></g><g id="SvgjsG1380"><path id="SvgjsPath1381" d="M427.78674738749123 212.9580062295032C 431.8857268572385 262.12908736386186 532.8857268572385 236.87091263613814 528.3843134562352 286.00671422863724" stroke="#323232" stroke-width="2" fill="none"></path></g><g id="SvgjsG1382" transform="translate(117,157)"><path id="SvgjsPath1383" d="M 0 27.5C 0 -9.166666666666666 55 -9.166666666666666 55 27.5C 55 64.16666666666667 0 64.16666666666667 0 27.5Z" stroke="rgba(50,50,50,1)" stroke-width="2" fill-opacity="1" fill="#81c784"></path><g id="SvgjsG1384"><text id="SvgjsText1385" font-family="微软雅黑" text-anchor="middle" font-size="20px" width="35px" fill="#323232" font-weight="700" align="middle" lineHeight="125%" anchor="middle" family="微软雅黑" size="20px" weight="700" font-style="" opacity="1" y="9.5" transform="rotate(0)"><tspan id="SvgjsTspan1386" dy="25" x="27.5"><tspan id="SvgjsTspan1387" style="text-decoration:;">101</tspan></tspan></text></g></g><g id="SvgjsG1388" transform="translate(217,287)"><path id="SvgjsPath1389" d="M 0 27.5C 0 -9.166666666666666 55 -9.166666666666666 55 27.5C 55 64.16666666666667 0 64.16666666666667 0 27.5Z" stroke="rgba(50,50,50,1)" stroke-width="2" fill-opacity="1" fill="#e57373"></path><g id="SvgjsG1390"><text id="SvgjsText1391" font-family="微软雅黑" text-anchor="middle" font-size="17px" width="35px" fill="#323232" font-weight="700" align="middle" lineHeight="125%" anchor="middle" family="微软雅黑" size="17px" weight="700" font-style="" opacity="1" y="12.375" transform="rotate(0)"><tspan id="SvgjsTspan1392" dy="21" x="27.5"><tspan id="SvgjsTspan1393" style="text-decoration:;">F:55</tspan></tspan></text></g></g><g id="SvgjsG1394"><path id="SvgjsPath1395" d="M144.78711335470024 212.95789661318577C 148.8577871373829 261.8097349045873 248.8577871373829 237.1902650954127 244.38377206906694 286.0067774327619" stroke="#323232" stroke-width="2" fill="none"></path></g><g id="SvgjsG1396" transform="translate(300,287)"><path id="SvgjsPath1397" d="M 0 27.5C 0 -9.166666666666666 55 -9.166666666666666 55 27.5C 55 64.16666666666667 0 64.16666666666667 0 27.5Z" stroke="rgba(50,50,50,1)" stroke-width="2" fill-opacity="1" fill="#e57373"></path><g id="SvgjsG1398"><text id="SvgjsText1399" font-family="微软雅黑" text-anchor="middle" font-size="17px" width="35px" fill="#323232" font-weight="700" align="middle" lineHeight="125%" anchor="middle" family="微软雅黑" size="17px" weight="700" font-style="" opacity="1" y="12.375" transform="rotate(0)"><tspan id="SvgjsTspan1400" dy="21" x="27.5"><tspan id="SvgjsTspan1401" style="text-decoration:;">D:67</tspan></tspan></text></g></g><g id="SvgjsG1402"><path id="SvgjsPath1403" d="M427.38377206906694 212.9932225672381C 431.85778713738296 261.8097349045873 331.85778713738296 237.1902650954127 327.7871133547002 286.04210338681423" stroke="#323232" stroke-width="2" fill="none"></path></g><g id="SvgjsG1404" transform="translate(394,407)"><path id="SvgjsPath1405" d="M 0 27.5C 0 -9.166666666666666 55 -9.166666666666666 55 27.5C 55 64.16666666666667 0 64.16666666666667 0 27.5Z" stroke="rgba(50,50,50,1)" stroke-width="2" fill-opacity="1" fill="#e57373"></path><g id="SvgjsG1406"><text id="SvgjsText1407" font-family="微软雅黑" text-anchor="middle" font-size="17px" width="35px" fill="#323232" font-weight="700" align="middle" lineHeight="125%" anchor="middle" family="微软雅黑" size="17px" weight="700" font-style="" opacity="1" y="12.375" transform="rotate(0)"><tspan id="SvgjsTspan1408" dy="21" x="27.5"><tspan id="SvgjsTspan1409" style="text-decoration:;">C:35</tspan></tspan></text></g></g><g id="SvgjsG1410" transform="translate(613,415)"><path id="SvgjsPath1411" d="M 0 27.5C 0 -9.166666666666666 55 -9.166666666666666 55 27.5C 55 64.16666666666667 0 64.16666666666667 0 27.5Z" stroke="rgba(50,50,50,1)" stroke-width="2" fill-opacity="1" fill="#81c784"></path><g id="SvgjsG1412"><text id="SvgjsText1413" font-family="微软雅黑" text-anchor="middle" font-size="20px" width="35px" fill="#323232" font-weight="700" align="middle" lineHeight="125%" anchor="middle" family="微软雅黑" size="20px" weight="700" font-style="" opacity="1" y="9.5" transform="rotate(0)"><tspan id="SvgjsTspan1414" dy="25" x="27.5"><tspan id="SvgjsTspan1415" style="text-decoration:;">36</tspan></tspan></text></g></g><g id="SvgjsG1416" transform="translate(501,545)"><path id="SvgjsPath1417" d="M 0 27.5C 0 -9.166666666666666 55 -9.166666666666666 55 27.5C 55 64.16666666666667 0 64.16666666666667 0 27.5Z" stroke="rgba(50,50,50,1)" stroke-width="2" fill-opacity="1" fill="#e57373"></path><g id="SvgjsG1418"><text id="SvgjsText1419" font-family="微软雅黑" text-anchor="middle" font-size="17px" width="35px" fill="#323232" font-weight="700" align="middle" lineHeight="125%" anchor="middle" family="微软雅黑" size="17px" weight="700" font-style="" opacity="1" y="12.375" transform="rotate(0)"><tspan id="SvgjsTspan1420" dy="21" x="27.5"><tspan id="SvgjsTspan1421" style="text-decoration:;">A:12</tspan></tspan></text></g></g><g id="SvgjsG1422" transform="translate(724,545)"><path id="SvgjsPath1423" d="M 0 27.5C 0 -9.166666666666666 55 -9.166666666666666 55 27.5C 55 64.16666666666667 0 64.16666666666667 0 27.5Z" stroke="rgba(50,50,50,1)" stroke-width="2" fill-opacity="1" fill="#e57373"></path><g id="SvgjsG1424"><text id="SvgjsText1425" font-family="微软雅黑" text-anchor="middle" font-size="17px" width="35px" fill="#323232" font-weight="700" align="middle" lineHeight="125%" anchor="middle" family="微软雅黑" size="17px" weight="700" font-style="" opacity="1" y="12.375" transform="rotate(0)"><tspan id="SvgjsTspan1426" dy="21" x="27.5"><tspan id="SvgjsTspan1427" style="text-decoration:;">B:24</tspan></tspan></text></g></g><g id="SvgjsG1428"><path id="SvgjsPath1429" d="M528.3674801944778 342.9911803575255C 532.8646147989177 391.8877754330364 425.86461479891784 357.1122245669636 421.80505376027793 406.0476648681581" stroke="#323232" stroke-width="2" fill="none"></path></g><g id="SvgjsG1430"><path id="SvgjsPath1431" d="M528.7856271964359 342.95834080819725C 533.1607383999775 395.27248368123054 645.1607383999775 361.72751631876946 640.3873465348826 414.0063656624306" stroke="#323232" stroke-width="2" fill="none"></path></g><g id="SvgjsG1432"><path id="SvgjsPath1433" d="M640.3910094947852 470.9940427907153C 645.1991738467198 523.7118028477755 533.1991738467198 491.2881971522245 528.7818598361064 544.0405444081199" stroke="#323232" stroke-width="2" fill="none"></path></g><g id="SvgjsG1434"><path id="SvgjsPath1435" d="M640.7823591602896 470.9593087639548C 645.1702467981289 523.3811651694169 756.1702467981289 491.61883483058307 751.3903552205444 544.0060291642417" stroke="#323232" stroke-width="2" fill="none"></path></g></svg>