<svg id="SvgjsSvg2562" width="1191" height="651" xmlns="http://www.w3.org/2000/svg" version="1.1" xmlns:xlink="http://www.w3.org/1999/xlink" xmlns:svgjs="http://svgjs.com/svgjs"><defs id="SvgjsDefs2563"></defs><g id="SvgjsG2564" transform="translate(621,25)"><path id="SvgjsPath2565" d="M 0 30C 0 -10 60 -10 60 30C 60 70 0 70 0 30Z" stroke="rgba(50,50,50,1)" stroke-width="2" fill-opacity="1" fill="#c8e6c9"></path><g id="SvgjsG2566"><text id="SvgjsText2567" font-family="微软雅黑" text-anchor="middle" font-size="16px" width="40px" fill="#323232" font-weight="700" align="middle" lineHeight="125%" anchor="middle" family="微软雅黑" size="16px" weight="700" font-style="" opacity="1" y="16" transform="rotate(0)"><tspan id="SvgjsTspan2568" dy="20" x="30"><tspan id="SvgjsTspan2569" style="text-decoration:;">[1,10]</tspan></tspan></text></g></g><g id="SvgjsG2570" transform="translate(381,209)"><path id="SvgjsPath2571" d="M 0 30C 0 -10 60 -10 60 30C 60 70 0 70 0 30Z" stroke="rgba(50,50,50,1)" stroke-width="2" fill-opacity="1" fill="#c8e6c9"></path><g id="SvgjsG2572"><text id="SvgjsText2573" font-family="微软雅黑" text-anchor="middle" font-size="16px" width="40px" fill="#323232" font-weight="700" align="middle" lineHeight="125%" anchor="middle" family="微软雅黑" size="16px" weight="700" font-style="" opacity="1" y="16" transform="rotate(0)"><tspan id="SvgjsTspan2574" dy="20" x="30"><tspan id="SvgjsTspan2575" style="text-decoration:;">[1,5]</tspan></tspan></text></g></g><g id="SvgjsG2576" transform="translate(860,209)"><path id="SvgjsPath2577" d="M 0 30C 0 -10 60 -10 60 30C 60 70 0 70 0 30Z" stroke="rgba(50,50,50,1)" stroke-width="2" fill-opacity="1" fill="#c8e6c9"></path><g id="SvgjsG2578"><text id="SvgjsText2579" font-family="微软雅黑" text-anchor="middle" font-size="16px" width="40px" fill="#323232" font-weight="700" align="middle" lineHeight="125%" anchor="middle" family="微软雅黑" size="16px" weight="700" font-style="" opacity="1" y="16" transform="rotate(0)"><tspan id="SvgjsTspan2580" dy="20" x="30"><tspan id="SvgjsTspan2581" style="text-decoration:;">[6,10]</tspan></tspan></text></g></g><g id="SvgjsG2582"><path id="SvgjsPath2583" d="M650.9864147491468 85.99990771622149C 660.417725484133 192.64509485668873 420.41772548413303 101.35490514331127 411.19164463164674 208.0185356169677" stroke="#323232" stroke-width="2" fill="none"></path></g><g id="SvgjsG2584"><path id="SvgjsPath2585" d="M651.1918778651194 85.98141881216799C 660.3867665566966 192.2912326968522 899.3867665566966 101.7087673031478 889.9861580952737 208.0000958037524" stroke="#323232" stroke-width="2" fill="none"></path></g><g id="SvgjsG2586" transform="translate(272,323)"><path id="SvgjsPath2587" d="M 0 30C 0 -10 60 -10 60 30C 60 70 0 70 0 30Z" stroke="rgba(50,50,50,1)" stroke-width="2" fill-opacity="1" fill="#c8e6c9"></path><g id="SvgjsG2588"><text id="SvgjsText2589" font-family="微软雅黑" text-anchor="middle" font-size="16px" width="40px" fill="#323232" font-weight="700" align="middle" lineHeight="125%" anchor="middle" family="微软雅黑" size="16px" weight="700" font-style="" opacity="1" y="16" transform="rotate(0)"><tspan id="SvgjsTspan2590" dy="20" x="30"><tspan id="SvgjsTspan2591" style="text-decoration:;">[1,3]</tspan></tspan></text></g></g><g id="SvgjsG2592" transform="translate(501,329)"><path id="SvgjsPath2593" d="M 0 30C 0 -10 60 -10 60 30C 60 70 0 70 0 30Z" stroke="rgba(50,50,50,1)" stroke-width="2" fill-opacity="1" fill="#c8e6c9"></path><g id="SvgjsG2594"><text id="SvgjsText2595" font-family="微软雅黑" text-anchor="middle" font-size="16px" width="40px" fill="#323232" font-weight="700" align="middle" lineHeight="125%" anchor="middle" family="微软雅黑" size="16px" weight="700" font-style="" opacity="1" y="16" transform="rotate(0)"><tspan id="SvgjsTspan2596" dy="20" x="30"><tspan id="SvgjsTspan2597" style="text-decoration:;">[4,5]</tspan></tspan></text></g></g><g id="SvgjsG2598"><path id="SvgjsPath2599" d="M410.8464452240061 269.98814013721204C 415.2407516190256 317.47201280848293 306.2407516190257 274.52798719151707 302.32722869065077 322.05505482486285" stroke="#323232" stroke-width="2" fill="none"></path></g><g id="SvgjsG2600"><path id="SvgjsPath2601" d="M411.3037433842509 269.952753880351C 415.677267969918 322.46141753019253 535.6772679699179 275.53858246980747 530.8714780677011 328.00829333322895" stroke="#323232" stroke-width="2" fill="none"></path></g><g id="SvgjsG2602" transform="translate(199,446)"><path id="SvgjsPath2603" d="M 0 30C 0 -10 60 -10 60 30C 60 70 0 70 0 30Z" stroke="rgba(50,50,50,1)" stroke-width="2" fill-opacity="1" fill="#c8e6c9"></path><g id="SvgjsG2604"><text id="SvgjsText2605" font-family="微软雅黑" text-anchor="middle" font-size="16px" width="40px" fill="#323232" font-weight="700" align="middle" lineHeight="125%" anchor="middle" family="微软雅黑" size="16px" weight="700" font-style="" opacity="1" y="16" transform="rotate(0)"><tspan id="SvgjsTspan2606" dy="20" x="30"><tspan id="SvgjsTspan2607" style="text-decoration:;font-size: inherit;">[1,2]</tspan></tspan></text></g></g><g id="SvgjsG2608" transform="translate(332,446)"><path id="SvgjsPath2609" d="M 0 30C 0 -10 60 -10 60 30C 60 70 0 70 0 30Z" stroke="rgba(50,50,50,1)" stroke-width="2" fill-opacity="1" fill="#ffe0b2"></path><g id="SvgjsG2610"><text id="SvgjsText2611" font-family="微软雅黑" text-anchor="middle" font-size="16px" width="40px" fill="#323232" font-weight="700" align="middle" lineHeight="125%" anchor="middle" family="微软雅黑" size="16px" weight="700" font-style="" opacity="1" y="16" transform="rotate(0)"><tspan id="SvgjsTspan2612" dy="20" x="30"><tspan id="SvgjsTspan2613" style="text-decoration:;">[3,3]</tspan></tspan></text></g></g><g id="SvgjsG2614"><path id="SvgjsPath2615" d="M301.83625319774814 383.9865023997702C 305.361636654875 421.4236827881009 232.36163665487499 407.5763172118991 229.32811522791792 445.0553622931471" stroke="#323232" stroke-width="2" fill="none"></path></g><g id="SvgjsG2616"><path id="SvgjsPath2617" d="M302.32444618216874 383.9459041573416C 305.0330198476185 417.6675754935927 365.0330198476185 411.3324245064073 361.8363103100268 445.01348812201957" stroke="#323232" stroke-width="2" fill="none"></path></g><g id="SvgjsG2618" transform="translate(139,566)"><path id="SvgjsPath2619" d="M 0 30C 0 -10 60 -10 60 30C 60 70 0 70 0 30Z" stroke="rgba(50,50,50,1)" stroke-width="2" fill-opacity="1" fill="#ffe0b2"></path><g id="SvgjsG2620"><text id="SvgjsText2621" font-family="微软雅黑" text-anchor="middle" font-size="16px" width="40px" fill="#323232" font-weight="700" align="middle" lineHeight="125%" anchor="middle" family="微软雅黑" size="16px" weight="700" font-style="" opacity="1" y="16" transform="rotate(0)"><tspan id="SvgjsTspan2622" dy="20" x="30"><tspan id="SvgjsTspan2623" style="text-decoration:;">[1,1]</tspan></tspan></text></g></g><g id="SvgjsG2624"><path id="SvgjsPath2625" d="M228.8223571074974 506.9840950171316C 231.9581640023785 539.8119692673324 171.95816400237854 532.1880307326676 169.33765131870555 565.058728738898" stroke="#323232" stroke-width="2" fill="none"></path></g><g id="SvgjsG2626" transform="translate(266,566)"><path id="SvgjsPath2627" d="M 0 30C 0 -10 60 -10 60 30C 60 70 0 70 0 30Z" stroke="rgba(50,50,50,1)" stroke-width="2" fill-opacity="1" fill="#ffe0b2"></path><g id="SvgjsG2628"><text id="SvgjsText2629" font-family="微软雅黑" text-anchor="middle" font-size="16px" width="40px" fill="#323232" font-weight="700" align="middle" lineHeight="125%" anchor="middle" family="微软雅黑" size="16px" weight="700" font-style="" opacity="1" y="16" transform="rotate(0)"><tspan id="SvgjsTspan2630" dy="20" x="30"><tspan id="SvgjsTspan2631" style="text-decoration:;">[2,2]</tspan></tspan></text></g></g><g id="SvgjsG2632"><path id="SvgjsPath2633" d="M229.33979301868845 506.9405002416005C 232.13547554140354 541.8386494322716 299.1354755414036 530.1613505677284 295.82234543951637 565.0159070891733" stroke="#323232" stroke-width="2" fill="none"></path></g><g id="SvgjsG2634" transform="translate(441,446)"><path id="SvgjsPath2635" d="M 0 30C 0 -10 60 -10 60 30C 60 70 0 70 0 30Z" stroke="rgba(50,50,50,1)" stroke-width="2" fill-opacity="1" fill="#ffe0b2"></path><g id="SvgjsG2636"><text id="SvgjsText2637" font-family="微软雅黑" text-anchor="middle" font-size="16px" width="40px" fill="#323232" font-weight="700" align="middle" lineHeight="125%" anchor="middle" family="微软雅黑" size="16px" weight="700" font-style="" opacity="1" y="16" transform="rotate(0)"><tspan id="SvgjsTspan2638" dy="20" x="30"><tspan id="SvgjsTspan2639" style="text-decoration:;">[4,4]</tspan></tspan></text></g></g><g id="SvgjsG2640"><path id="SvgjsPath2641" d="M530.7951212961198 389.9787873705235C 533.8851578760184 421.97750542461404 471 412.89652586207905 471.28554732193726 445.0416353893562" stroke="#323232" stroke-width="2" fill="none"></path></g><g id="SvgjsG2642" transform="translate(561,446)"><path id="SvgjsPath2643" d="M 0 30C 0 -10 60 -10 60 30C 60 70 0 70 0 30Z" stroke="rgba(50,50,50,1)" stroke-width="2" fill-opacity="1" fill="#ffe0b2"></path><g id="SvgjsG2644"><text id="SvgjsText2645" font-family="微软雅黑" text-anchor="middle" font-size="16px" width="40px" fill="#323232" font-weight="700" align="middle" lineHeight="125%" anchor="middle" family="微软雅黑" size="16px" weight="700" font-style="" opacity="1" y="16" transform="rotate(0)"><tspan id="SvgjsTspan2646" dy="20" x="30"><tspan id="SvgjsTspan2647" style="text-decoration:;">[5,5]</tspan></tspan></text></g></g><g id="SvgjsG2648"><path id="SvgjsPath2649" d="M531.3516880806816 389.9361172436754C 533.8851578760184 421.97750542461404 593.8851578760184 413.02249457538596 590.8074838066237 445.0187062033785" stroke="#323232" stroke-width="2" fill="none"></path></g><g id="SvgjsG2650" transform="translate(993,329)"><path id="SvgjsPath2651" d="M 0 30C 0 -10 60 -10 60 30C 60 70 0 70 0 30Z" stroke="rgba(50,50,50,1)" stroke-width="2" fill-opacity="1" fill="#c8e6c9"></path><g id="SvgjsG2652"><text id="SvgjsText2653" font-family="微软雅黑" text-anchor="middle" font-size="16px" width="40px" fill="#323232" font-weight="700" align="middle" lineHeight="125%" anchor="middle" family="微软雅黑" size="16px" weight="700" font-style="" opacity="1" y="16" transform="rotate(0)"><tspan id="SvgjsTspan2654" dy="20" x="30"><tspan id="SvgjsTspan2655" style="text-decoration:;">[9,10]</tspan></tspan></text></g></g><g id="SvgjsG2656" transform="translate(920,450)"><path id="SvgjsPath2657" d="M 0 30C 0 -10 60 -10 60 30C 60 70 0 70 0 30Z" stroke="rgba(50,50,50,1)" stroke-width="2" fill-opacity="1" fill="#ffe0b2"></path><g id="SvgjsG2658"><text id="SvgjsText2659" font-family="微软雅黑" text-anchor="middle" font-size="16px" width="40px" fill="#323232" font-weight="700" align="middle" lineHeight="125%" anchor="middle" family="微软雅黑" size="16px" weight="700" font-style="" opacity="1" y="16" transform="rotate(0)"><tspan id="SvgjsTspan2660" dy="20" x="30"><tspan id="SvgjsTspan2661" style="text-decoration:;">[9,9]</tspan></tspan></text></g></g><g id="SvgjsG2662"><path id="SvgjsPath2663" d="M1022.8175406679559 389.9832134011241C 1026.3165021964655 426.907793567825 950 411.94740481911913 950.2657060979946 449.03594591983205" stroke="#323232" stroke-width="2" fill="none"></path></g><g id="SvgjsG2664" transform="translate(1053,450)"><path id="SvgjsPath2665" d="M 0 30C 0 -10 60 -10 60 30C 60 70 0 70 0 30Z" stroke="rgba(50,50,50,1)" stroke-width="2" fill-opacity="1" fill="#ffe0b2"></path><g id="SvgjsG2666"><text id="SvgjsText2667" font-family="微软雅黑" text-anchor="middle" font-size="16px" width="40px" fill="#323232" font-weight="700" align="middle" lineHeight="125%" anchor="middle" family="微软雅黑" size="16px" weight="700" font-style="" opacity="1" y="6" transform="rotate(0)"><tspan id="SvgjsTspan2668" dy="20" x="30"><tspan id="SvgjsTspan2669" style="text-decoration:;">[10,1</tspan></tspan><tspan id="SvgjsTspan2670" dy="20" x="30"><tspan id="SvgjsTspan2671" style="text-decoration:;">0]</tspan></tspan></text></g></g><g id="SvgjsG2672"><path id="SvgjsPath2673" d="M1023.3331588877438 389.94287069925696C 1025.9829172324773 423.09489998202355 1085.9829172324773 415.90510001797645 1082.8271081849693 449.0150591792928" stroke="#323232" stroke-width="2" fill="none"></path></g><g id="SvgjsG2674"><path id="SvgjsPath2675" d="M890.2914994409821 269.9565709988846C 895.0866707864623 327.1409131361914 1028.0866707864623 270.8590868638086 1022.8856128031709 328.0065637568512" stroke="#323232" stroke-width="2" fill="none"></path></g><g id="SvgjsG2676" transform="translate(730,329)"><path id="SvgjsPath2677" d="M 0 30C 0 -10 60 -10 60 30C 60 70 0 70 0 30Z" stroke="rgba(50,50,50,1)" stroke-width="2" fill-opacity="1" fill="#c8e6c9"></path><g id="SvgjsG2678"><text id="SvgjsText2679" font-family="微软雅黑" text-anchor="middle" font-size="16px" width="40px" fill="#323232" font-weight="700" align="middle" lineHeight="125%" anchor="middle" family="微软雅黑" size="16px" weight="700" font-style="" opacity="1" y="16" transform="rotate(0)"><tspan id="SvgjsTspan2680" dy="20" x="30"><tspan id="SvgjsTspan2681" style="text-decoration:;">[6,8]</tspan></tspan></text></g></g><g id="SvgjsG2682" transform="translate(670,446)"><path id="SvgjsPath2683" d="M 0 30C 0 -10 60 -10 60 30C 60 70 0 70 0 30Z" stroke="rgba(50,50,50,1)" stroke-width="2" fill-opacity="1" fill="#c8e6c9"></path><g id="SvgjsG2684"><text id="SvgjsText2685" font-family="微软雅黑" text-anchor="middle" font-size="16px" width="40px" fill="#323232" font-weight="700" align="middle" lineHeight="125%" anchor="middle" family="微软雅黑" size="16px" weight="700" font-style="" opacity="1" y="16" transform="rotate(0)"><tspan id="SvgjsTspan2686" dy="20" x="30"><tspan id="SvgjsTspan2687" style="text-decoration:;">[6,7]</tspan></tspan></text></g></g><g id="SvgjsG2688"><path id="SvgjsPath2689" d="M759.7951212961198 389.9787873705235C 762.8851578760184 421.97750542461404 700 412.89652586207905 700.2855473219373 445.0416353893562" stroke="#323232" stroke-width="2" fill="none"></path></g><g id="SvgjsG2690" transform="translate(800,450)"><path id="SvgjsPath2691" d="M 0 30C 0 -10 60 -10 60 30C 60 70 0 70 0 30Z" stroke="rgba(50,50,50,1)" stroke-width="2" fill-opacity="1" fill="#ffe0b2"></path><g id="SvgjsG2692"><text id="SvgjsText2693" font-family="微软雅黑" text-anchor="middle" font-size="16px" width="40px" fill="#323232" font-weight="700" align="middle" lineHeight="125%" anchor="middle" family="微软雅黑" size="16px" weight="700" font-style="" opacity="1" y="16" transform="rotate(0)"><tspan id="SvgjsTspan2694" dy="20" x="30"><tspan id="SvgjsTspan2695" style="text-decoration:;">[8,8]</tspan></tspan></text></g></g><g id="SvgjsG2696"><path id="SvgjsPath2697" d="M760.3358294738647 389.9419228017644C 763.2369412880898 425.9984082238339 833.2369412880898 413.0015917761661 829.8273911138198 449.0150095571978" stroke="#323232" stroke-width="2" fill="none"></path></g><g id="SvgjsG2698"><path id="SvgjsPath2699" d="M889.8824236608912 269.9930638471326C 894.9915213171917 326.0533497258489 764.9915213171917 271.9466502741511 760.2942934541039 328.04428489450487" stroke="#323232" stroke-width="2" fill="none"></path></g><g id="SvgjsG2700" transform="translate(614,566)"><path id="SvgjsPath2701" d="M 0 30C 0 -10 60 -10 60 30C 60 70 0 70 0 30Z" stroke="rgba(50,50,50,1)" stroke-width="2" fill-opacity="1" fill="#ffe0b2"></path><g id="SvgjsG2702"><text id="SvgjsText2703" font-family="微软雅黑" text-anchor="middle" font-size="16px" width="40px" fill="#323232" font-weight="700" align="middle" lineHeight="125%" anchor="middle" family="微软雅黑" size="16px" weight="700" font-style="" opacity="1" y="16" transform="rotate(0)"><tspan id="SvgjsTspan2704" dy="20" x="30"><tspan id="SvgjsTspan2705" style="text-decoration:;">[6,6]</tspan></tspan></text></g></g><g id="SvgjsG2706" transform="translate(730,566)"><path id="SvgjsPath2707" d="M 0 30C 0 -10 60 -10 60 30C 60 70 0 70 0 30Z" stroke="rgba(50,50,50,1)" stroke-width="2" fill-opacity="1" fill="#ffe0b2"></path><g id="SvgjsG2708"><text id="SvgjsText2709" font-family="微软雅黑" text-anchor="middle" font-size="16px" width="40px" fill="#323232" font-weight="700" align="middle" lineHeight="125%" anchor="middle" family="微软雅黑" size="16px" weight="700" font-style="" opacity="1" y="16" transform="rotate(0)"><tspan id="SvgjsTspan2710" dy="20" x="30"><tspan id="SvgjsTspan2711" style="text-decoration:;">[7,7]</tspan></tspan></text></g></g><g id="SvgjsG2712"><path id="SvgjsPath2713" d="M699.8240421744641 506.9843977060277C 702.8612581248083 538.7043300182594 646.8612581248083 533.2956699817406 644.3347872256586 565.0577062488078" stroke="#323232" stroke-width="2" fill="none"></path></g><g id="SvgjsG2714"><path id="SvgjsPath2715" d="M700.3376513187055 506.941271261102C 702.9581640023786 539.8119692673324 762.9581640023786 532.1880307326676 759.8223571074974 565.0159049828684" stroke="#323232" stroke-width="2" fill="none"></path></g><g id="SvgjsG2716" transform="translate(674,37)"><path id="SvgjsPath2717" d="M 0 0L 120 0L 120 40L 0 40Z" stroke="none" fill="none"></path><g id="SvgjsG2718"><text id="SvgjsText2719" font-family="微软雅黑" text-anchor="middle" font-size="17px" width="120px" fill="#323232" font-weight="400" align="middle" lineHeight="125%" anchor="middle" family="微软雅黑" size="17px" weight="400" font-style="" opacity="1" y="4.875" transform="rotate(0)"><tspan id="SvgjsTspan2720" dy="21" x="60"><tspan id="SvgjsTspan2721" style="text-decoration:;">minv[1] = 1</tspan></tspan></text></g></g><g id="SvgjsG2722" transform="translate(441,219)"><path id="SvgjsPath2723" d="M 0 0L 120 0L 120 40L 0 40Z" stroke="none" fill="none"></path><g id="SvgjsG2724"><text id="SvgjsText2725" font-family="微软雅黑" text-anchor="middle" font-size="17px" width="120px" fill="#323232" font-weight="400" align="middle" lineHeight="125%" anchor="middle" family="微软雅黑" size="17px" weight="400" font-style="" opacity="1" y="4.875" transform="rotate(0)"><tspan id="SvgjsTspan2726" dy="21" x="60"><tspan id="SvgjsTspan2727" style="text-decoration:;">minv[2] = 1</tspan></tspan></text></g></g><g id="SvgjsG2728" transform="translate(321,337.5)"><path id="SvgjsPath2729" d="M 0 0L 120 0L 120 40L 0 40Z" stroke="none" fill="none"></path><g id="SvgjsG2730"><text id="SvgjsText2731" font-family="微软雅黑" text-anchor="middle" font-size="17px" width="120px" fill="#323232" font-weight="400" align="middle" lineHeight="125%" anchor="middle" family="微软雅黑" size="17px" weight="400" font-style="" opacity="1" y="4.875" transform="rotate(0)"><tspan id="SvgjsTspan2732" dy="21" x="60"><tspan id="SvgjsTspan2733" style="text-decoration:;">minv[4] = 1</tspan></tspan></text></g></g><g id="SvgjsG2734" transform="translate(550,339)"><path id="SvgjsPath2735" d="M 0 0L 120 0L 120 40L 0 40Z" stroke="none" fill="none"></path><g id="SvgjsG2736"><text id="SvgjsText2737" font-family="微软雅黑" text-anchor="middle" font-size="17px" width="120px" fill="#323232" font-weight="400" align="middle" lineHeight="125%" anchor="middle" family="微软雅黑" size="17px" weight="400" font-style="" opacity="1" y="4.875" transform="rotate(0)"><tspan id="SvgjsTspan2738" dy="21" x="60"><tspan id="SvgjsTspan2739" style="text-decoration:;">minv[5] = 7</tspan></tspan></text></g></g><g id="SvgjsG2740" transform="translate(87,450)"><path id="SvgjsPath2741" d="M 0 0L 120 0L 120 40L 0 40Z" stroke="none" fill="none"></path><g id="SvgjsG2742"><text id="SvgjsText2743" font-family="微软雅黑" text-anchor="middle" font-size="17px" width="120px" fill="#323232" font-weight="400" align="middle" lineHeight="125%" anchor="middle" family="微软雅黑" size="17px" weight="400" font-style="" opacity="1" y="4.875" transform="rotate(0)"><tspan id="SvgjsTspan2744" dy="21" x="60"><tspan id="SvgjsTspan2745" style="text-decoration:;">minv[8] = 1</tspan></tspan></text></g></g><g id="SvgjsG2746" transform="translate(25,572)"><path id="SvgjsPath2747" d="M 0 0L 120 0L 120 40L 0 40Z" stroke="none" fill="none"></path><g id="SvgjsG2748"><text id="SvgjsText2749" font-family="微软雅黑" text-anchor="middle" font-size="17px" width="120px" fill="#323232" font-weight="400" align="middle" lineHeight="125%" anchor="middle" family="微软雅黑" size="17px" weight="400" font-style="" opacity="1" y="4.875" transform="rotate(0)"><tspan id="SvgjsTspan2750" dy="21" x="60"><tspan id="SvgjsTspan2751" style="text-decoration:;">minv[16] = 1</tspan></tspan></text></g></g><g id="SvgjsG2752" transform="translate(328,582)"><path id="SvgjsPath2753" d="M 0 0L 120 0L 120 40L 0 40Z" stroke="none" fill="none"></path><g id="SvgjsG2754"><text id="SvgjsText2755" font-family="微软雅黑" text-anchor="middle" font-size="17px" width="120px" fill="#323232" font-weight="400" align="middle" lineHeight="125%" anchor="middle" family="微软雅黑" size="17px" weight="400" font-style="" opacity="1" y="4.875" transform="rotate(0)"><tspan id="SvgjsTspan2756" dy="21" x="60"><tspan id="SvgjsTspan2757" style="text-decoration:;">minv[17] = 3</tspan></tspan></text></g></g><g id="SvgjsG2758" transform="translate(306,510)"><path id="SvgjsPath2759" d="M 0 0L 120 0L 120 40L 0 40Z" stroke="none" fill="none"></path><g id="SvgjsG2760"><text id="SvgjsText2761" font-family="微软雅黑" text-anchor="middle" font-size="17px" width="120px" fill="#323232" font-weight="400" align="middle" lineHeight="125%" anchor="middle" family="微软雅黑" size="17px" weight="400" font-style="" opacity="1" y="4.875" transform="rotate(0)"><tspan id="SvgjsTspan2762" dy="21" x="60"><tspan id="SvgjsTspan2763" style="text-decoration:;">minv[9] = 5</tspan></tspan></text></g></g><g id="SvgjsG2764" transform="translate(406,510)"><path id="SvgjsPath2765" d="M 0 0L 120 0L 120 40L 0 40Z" stroke="none" fill="none"></path><g id="SvgjsG2766"><text id="SvgjsText2767" font-family="微软雅黑" text-anchor="middle" font-size="17px" width="120px" fill="#323232" font-weight="400" align="middle" lineHeight="125%" anchor="middle" family="微软雅黑" size="17px" weight="400" font-style="" opacity="1" y="4.875" transform="rotate(0)"><tspan id="SvgjsTspan2768" dy="21" x="60"><tspan id="SvgjsTspan2769" style="text-decoration:;">minv[10] = 7</tspan></tspan></text></g></g><g id="SvgjsG2770" transform="translate(527,510)"><path id="SvgjsPath2771" d="M 0 0L 120 0L 120 40L 0 40Z" stroke="none" fill="none"></path><g id="SvgjsG2772"><text id="SvgjsText2773" font-family="微软雅黑" text-anchor="middle" font-size="17px" width="120px" fill="#323232" font-weight="400" align="middle" lineHeight="125%" anchor="middle" family="微软雅黑" size="17px" weight="400" font-style="" opacity="1" y="4.875" transform="rotate(0)"><tspan id="SvgjsTspan2774" dy="21" x="60"><tspan id="SvgjsTspan2775" style="text-decoration:;">minv[11] = 9</tspan></tspan></text></g></g><g id="SvgjsG2776" transform="translate(912,219)"><path id="SvgjsPath2777" d="M 0 0L 120 0L 120 40L 0 40Z" stroke="none" fill="none"></path><g id="SvgjsG2778"><text id="SvgjsText2779" font-family="微软雅黑" text-anchor="middle" font-size="17px" width="120px" fill="#323232" font-weight="400" align="middle" lineHeight="125%" anchor="middle" family="微软雅黑" size="17px" weight="400" font-style="" opacity="1" y="4.875" transform="rotate(0)"><tspan id="SvgjsTspan2780" dy="21" x="60"><tspan id="SvgjsTspan2781" style="text-decoration:;">minv[3] = 2</tspan></tspan></text></g></g><g id="SvgjsG2782" transform="translate(783,339)"><path id="SvgjsPath2783" d="M 0 0L 120 0L 120 40L 0 40Z" stroke="none" fill="none"></path><g id="SvgjsG2784"><text id="SvgjsText2785" font-family="微软雅黑" text-anchor="middle" font-size="17px" width="120px" fill="#323232" font-weight="400" align="middle" lineHeight="125%" anchor="middle" family="微软雅黑" size="17px" weight="400" font-style="" opacity="1" y="4.875" transform="rotate(0)"><tspan id="SvgjsTspan2786" dy="21" x="60"><tspan id="SvgjsTspan2787" style="text-decoration:;">minv[6] = 2</tspan></tspan></text></g></g><g id="SvgjsG2788" transform="translate(1046,339)"><path id="SvgjsPath2789" d="M 0 0L 120 0L 120 40L 0 40Z" stroke="none" fill="none"></path><g id="SvgjsG2790"><text id="SvgjsText2791" font-family="微软雅黑" text-anchor="middle" font-size="17px" width="120px" fill="#323232" font-weight="400" align="middle" lineHeight="125%" anchor="middle" family="微软雅黑" size="17px" weight="400" font-style="" opacity="1" y="4.875" transform="rotate(0)"><tspan id="SvgjsTspan2792" dy="21" x="60"><tspan id="SvgjsTspan2793" style="text-decoration:;">minv[7] = 6</tspan></tspan></text></g></g><g id="SvgjsG2794" transform="translate(599,406)"><path id="SvgjsPath2795" d="M 0 0L 120 0L 120 40L 0 40Z" stroke="none" fill="none"></path><g id="SvgjsG2796"><text id="SvgjsText2797" font-family="微软雅黑" text-anchor="middle" font-size="17px" width="120px" fill="#323232" font-weight="400" align="middle" lineHeight="125%" anchor="middle" family="微软雅黑" size="17px" weight="400" font-style="" opacity="1" y="4.875" transform="rotate(0)"><tspan id="SvgjsTspan2798" dy="21" x="60"><tspan id="SvgjsTspan2799" style="text-decoration:;">minv[12] = 2</tspan></tspan></text></g></g><g id="SvgjsG2800" transform="translate(771,510)"><path id="SvgjsPath2801" d="M 0 0L 120 0L 120 40L 0 40Z" stroke="none" fill="none"></path><g id="SvgjsG2802"><text id="SvgjsText2803" font-family="微软雅黑" text-anchor="middle" font-size="17px" width="120px" fill="#323232" font-weight="400" align="middle" lineHeight="125%" anchor="middle" family="微软雅黑" size="17px" weight="400" font-style="" opacity="1" y="4.875" transform="rotate(0)"><tspan id="SvgjsTspan2804" dy="21" x="60"><tspan id="SvgjsTspan2805" style="text-decoration:;">minv[13] = 4</tspan></tspan></text></g></g><g id="SvgjsG2806" transform="translate(890,510)"><path id="SvgjsPath2807" d="M 0 0L 120 0L 120 40L 0 40Z" stroke="none" fill="none"></path><g id="SvgjsG2808"><text id="SvgjsText2809" font-family="微软雅黑" text-anchor="middle" font-size="17px" width="120px" fill="#323232" font-weight="400" align="middle" lineHeight="125%" anchor="middle" family="微软雅黑" size="17px" weight="400" font-style="" opacity="1" y="4.875" transform="rotate(0)"><tspan id="SvgjsTspan2810" dy="21" x="60"><tspan id="SvgjsTspan2811" style="text-decoration:;">minv[14] = 8</tspan></tspan></text></g></g><g id="SvgjsG2812" transform="translate(1021,510)"><path id="SvgjsPath2813" d="M 0 0L 120 0L 120 40L 0 40Z" stroke="none" fill="none"></path><g id="SvgjsG2814"><text id="SvgjsText2815" font-family="微软雅黑" text-anchor="middle" font-size="17px" width="120px" fill="#323232" font-weight="400" align="middle" lineHeight="125%" anchor="middle" family="微软雅黑" size="17px" weight="400" font-style="" opacity="1" y="4.875" transform="rotate(0)"><tspan id="SvgjsTspan2816" dy="21" x="60"><tspan id="SvgjsTspan2817" style="text-decoration:;">minv[15] = 6</tspan></tspan></text></g></g><g id="SvgjsG2818" transform="translate(496,582)"><path id="SvgjsPath2819" d="M 0 0L 120 0L 120 40L 0 40Z" stroke="none" fill="none"></path><g id="SvgjsG2820"><text id="SvgjsText2821" font-family="微软雅黑" text-anchor="middle" font-size="17px" width="120px" fill="#323232" font-weight="400" align="middle" lineHeight="125%" anchor="middle" family="微软雅黑" size="17px" weight="400" font-style="" opacity="1" y="4.875" transform="rotate(0)"><tspan id="SvgjsTspan2822" dy="21" x="60"><tspan id="SvgjsTspan2823" style="text-decoration:;">minv[24] = 10</tspan></tspan></text></g></g><g id="SvgjsG2824" transform="translate(792,582)"><path id="SvgjsPath2825" d="M 0 0L 120 0L 120 40L 0 40Z" stroke="none" fill="none"></path><g id="SvgjsG2826"><text id="SvgjsText2827" font-family="微软雅黑" text-anchor="middle" font-size="17px" width="120px" fill="#323232" font-weight="400" align="middle" lineHeight="125%" anchor="middle" family="微软雅黑" size="17px" weight="400" font-style="" opacity="1" y="4.875" transform="rotate(0)"><tspan id="SvgjsTspan2828" dy="21" x="60"><tspan id="SvgjsTspan2829" style="text-decoration:;">minv[25] = 2</tspan></tspan></text></g></g></svg>