<svg id="SvgjsSvg1103" width="710" height="447" xmlns="http://www.w3.org/2000/svg" version="1.1" xmlns:xlink="http://www.w3.org/1999/xlink" xmlns:svgjs="http://svgjs.com/svgjs"><defs id="SvgjsDefs1104"></defs><g id="SvgjsG1105" transform="translate(25,246)"><path id="SvgjsPath1106" d="M 0 4Q 0 0 4 0L 56 0Q 60 0 60 4L 60 56Q 60 60 56 60L 4 60Q 0 60 0 56Z" stroke="rgba(50,50,50,1)" stroke-width="2" fill-opacity="1" fill="#ffe0b2"></path><g id="SvgjsG1107"><text id="SvgjsText1108" font-family="微软雅黑" text-anchor="middle" font-size="34px" width="40px" fill="#323232" font-weight="700" align="middle" lineHeight="125%" anchor="middle" family="微软雅黑" size="34px" weight="700" font-style="" opacity="1" y="0.25" transform="rotate(0)"><tspan id="SvgjsTspan1109" dy="42" x="30"><tspan id="SvgjsTspan1110" style="text-decoration:;">r</tspan></tspan></text></g></g><g id="SvgjsG1111" transform="translate(100,246)"><path id="SvgjsPath1112" d="M 0 4Q 0 0 4 0L 56 0Q 60 0 60 4L 60 56Q 60 60 56 60L 4 60Q 0 60 0 56Z" stroke="rgba(50,50,50,1)" stroke-width="2" fill-opacity="1" fill="#c8e6c9"></path><g id="SvgjsG1113"><text id="SvgjsText1114" font-family="微软雅黑" text-anchor="middle" font-size="34px" width="40px" fill="#323232" font-weight="700" align="middle" lineHeight="125%" anchor="middle" family="微软雅黑" size="34px" weight="700" font-style="" opacity="1" y="0.25" transform="rotate(0)"><tspan id="SvgjsTspan1115" dy="42" x="30"><tspan id="SvgjsTspan1116" style="text-decoration:;">w</tspan></tspan></text></g></g><g id="SvgjsG1117" transform="translate(175,246)"><path id="SvgjsPath1118" d="M 0 4Q 0 0 4 0L 56 0Q 60 0 60 4L 60 56Q 60 60 56 60L 4 60Q 0 60 0 56Z" stroke="rgba(50,50,50,1)" stroke-width="2" fill-opacity="1" fill="#b2ebf2"></path><g id="SvgjsG1119"><text id="SvgjsText1120" font-family="微软雅黑" text-anchor="middle" font-size="34px" width="40px" fill="#323232" font-weight="700" align="middle" lineHeight="125%" anchor="middle" family="微软雅黑" size="34px" weight="700" font-style="" opacity="1" y="0.25" transform="rotate(0)"><tspan id="SvgjsTspan1121" dy="42" x="30"><tspan id="SvgjsTspan1122" style="text-decoration:;">x</tspan></tspan></text></g></g><g id="SvgjsG1123" transform="translate(250,246)"><path id="SvgjsPath1124" d="M 0 4Q 0 0 4 0L 56 0Q 60 0 60 4L 60 56Q 60 60 56 60L 4 60Q 0 60 0 56Z" stroke="rgba(50,50,50,1)" stroke-width="2" fill-opacity="1" fill="#ffe0b2"></path><g id="SvgjsG1125"><text id="SvgjsText1126" font-family="微软雅黑" text-anchor="middle" font-size="34px" width="40px" fill="#323232" font-weight="700" align="middle" lineHeight="125%" anchor="middle" family="微软雅黑" size="34px" weight="700" font-style="" opacity="1" y="0.25" transform="rotate(0)"><tspan id="SvgjsTspan1127" dy="42" x="30"><tspan id="SvgjsTspan1128" style="text-decoration:;">r</tspan></tspan></text></g></g><g id="SvgjsG1129" transform="translate(325,246)"><path id="SvgjsPath1130" d="M 0 4Q 0 0 4 0L 56 0Q 60 0 60 4L 60 56Q 60 60 56 60L 4 60Q 0 60 0 56Z" stroke="rgba(50,50,50,1)" stroke-width="2" fill-opacity="1" fill="#c8e6c9"></path><g id="SvgjsG1131"><text id="SvgjsText1132" font-family="微软雅黑" text-anchor="middle" font-size="34px" width="40px" fill="#323232" font-weight="700" align="middle" lineHeight="125%" anchor="middle" family="微软雅黑" size="34px" weight="700" font-style="" opacity="1" y="0.25" transform="rotate(0)"><tspan id="SvgjsTspan1133" dy="42" x="30"><tspan id="SvgjsTspan1134" style="text-decoration:;">-</tspan></tspan></text></g></g><g id="SvgjsG1135" transform="translate(400,246)"><path id="SvgjsPath1136" d="M 0 4Q 0 0 4 0L 56 0Q 60 0 60 4L 60 56Q 60 60 56 60L 4 60Q 0 60 0 56Z" stroke="rgba(50,50,50,1)" stroke-width="2" fill-opacity="1" fill="#b2ebf2"></path><g id="SvgjsG1137"><text id="SvgjsText1138" font-family="微软雅黑" text-anchor="middle" font-size="34px" width="40px" fill="#323232" font-weight="700" align="middle" lineHeight="125%" anchor="middle" family="微软雅黑" size="34px" weight="700" font-style="" opacity="1" y="0.25" transform="rotate(0)"><tspan id="SvgjsTspan1139" dy="42" x="30"><tspan id="SvgjsTspan1140" style="text-decoration:;">x</tspan></tspan></text></g></g><g id="SvgjsG1141" transform="translate(475,246)"><path id="SvgjsPath1142" d="M 0 4Q 0 0 4 0L 56 0Q 60 0 60 4L 60 56Q 60 60 56 60L 4 60Q 0 60 0 56Z" stroke="rgba(50,50,50,1)" stroke-width="2" fill-opacity="1" fill="#ffe0b2"></path><g id="SvgjsG1143"><text id="SvgjsText1144" font-family="微软雅黑" text-anchor="middle" font-size="34px" width="40px" fill="#323232" font-weight="700" align="middle" lineHeight="125%" anchor="middle" family="微软雅黑" size="34px" weight="700" font-style="" opacity="1" y="0.25" transform="rotate(0)"><tspan id="SvgjsTspan1145" dy="42" x="30"><tspan id="SvgjsTspan1146" style="text-decoration:;">r</tspan></tspan></text></g></g><g id="SvgjsG1147" transform="translate(550,246)"><path id="SvgjsPath1148" d="M 0 4Q 0 0 4 0L 56 0Q 60 0 60 4L 60 56Q 60 60 56 60L 4 60Q 0 60 0 56Z" stroke="rgba(50,50,50,1)" stroke-width="2" fill-opacity="1" fill="#c8e6c9"></path><g id="SvgjsG1149"><text id="SvgjsText1150" font-family="微软雅黑" text-anchor="middle" font-size="34px" width="40px" fill="#323232" font-weight="700" align="middle" lineHeight="125%" anchor="middle" family="微软雅黑" size="34px" weight="700" font-style="" opacity="1" y="0.25" transform="rotate(0)"><tspan id="SvgjsTspan1151" dy="42" x="30"><tspan id="SvgjsTspan1152" style="text-decoration:;">-</tspan></tspan></text></g></g><g id="SvgjsG1153" transform="translate(625,246)"><path id="SvgjsPath1154" d="M 0 4Q 0 0 4 0L 56 0Q 60 0 60 4L 60 56Q 60 60 56 60L 4 60Q 0 60 0 56Z" stroke="rgba(50,50,50,1)" stroke-width="2" fill-opacity="1" fill="#b2ebf2"></path><g id="SvgjsG1155"><text id="SvgjsText1156" font-family="微软雅黑" text-anchor="middle" font-size="34px" width="40px" fill="#323232" font-weight="700" align="middle" lineHeight="125%" anchor="middle" family="微软雅黑" size="34px" weight="700" font-style="" opacity="1" y="0.25" transform="rotate(0)"><tspan id="SvgjsTspan1157" dy="42" x="30"><tspan id="SvgjsTspan1158" style="text-decoration:;">-</tspan></tspan></text></g></g><g id="SvgjsG1159" transform="matrix(-1.8369701987210297e-16,-1,1,-1.8369701987210297e-16,36.99999999999996,421)"><path id="SvgjsPath1160" d="M 102.99999999999991 0Q 93.99999999999991 0 93.99999999999991 9L 93.99999999999991 85.5Q 93.99999999999991 94.5 80.99999999999991 94.5Q 93.99999999999991 94.5 93.99999999999991 103.5L 93.99999999999991 180Q 93.99999999999991 189 102.99999999999991 189" stroke="rgba(50,50,50,1)" stroke-width="2" fill="none"></path><path id="SvgjsPath1161" d="M 0 0L 102.99999999999991 0L 102.99999999999991 189L 0 189Z" stroke="none" fill="none"></path><g id="SvgjsG1162"><text id="SvgjsText1163" font-family="微软雅黑" text-anchor="end" font-size="13px" width="76px" fill="#323232" font-weight="400" align="middle" lineHeight="125%" anchor="end" family="微软雅黑" size="13px" weight="400" font-style="" opacity="1" y="83.875" transform="rotate(0)"></text></g></g><g id="SvgjsG1164" transform="matrix(-1.8369701987210297e-16,-1,1,-1.8369701987210297e-16,262.99999999999994,422)"><path id="SvgjsPath1165" d="M 102.99999999999991 0Q 93.99999999999991 0 93.99999999999991 9L 93.99999999999991 85.5Q 93.99999999999991 94.5 80.99999999999991 94.5Q 93.99999999999991 94.5 93.99999999999991 103.5L 93.99999999999991 180Q 93.99999999999991 189 102.99999999999991 189" stroke="rgba(50,50,50,1)" stroke-width="2" fill="none"></path><path id="SvgjsPath1166" d="M 0 0L 102.99999999999991 0L 102.99999999999991 189L 0 189Z" stroke="none" fill="none"></path><g id="SvgjsG1167"><text id="SvgjsText1168" font-family="微软雅黑" text-anchor="end" font-size="13px" width="76px" fill="#323232" font-weight="400" align="middle" lineHeight="125%" anchor="end" family="微软雅黑" size="13px" weight="400" font-style="" opacity="1" y="83.875" transform="rotate(0)"></text></g></g><g id="SvgjsG1169" transform="matrix(-1.8369701987210297e-16,-1,1,-1.8369701987210297e-16,483,422)"><path id="SvgjsPath1170" d="M 102.99999999999991 0Q 93.99999999999991 0 93.99999999999991 9L 93.99999999999991 85.5Q 93.99999999999991 94.5 80.99999999999991 94.5Q 93.99999999999991 94.5 93.99999999999991 103.5L 93.99999999999991 180Q 93.99999999999991 189 102.99999999999991 189" stroke="rgba(50,50,50,1)" stroke-width="2" fill="none"></path><path id="SvgjsPath1171" d="M 0 0L 102.99999999999991 0L 102.99999999999991 189L 0 189Z" stroke="none" fill="none"></path><g id="SvgjsG1172"><text id="SvgjsText1173" font-family="微软雅黑" text-anchor="end" font-size="13px" width="76px" fill="#323232" font-weight="400" align="middle" lineHeight="125%" anchor="end" family="微软雅黑" size="13px" weight="400" font-style="" opacity="1" y="83.875" transform="rotate(0)"></text></g></g><g id="SvgjsG1174" transform="translate(79,340)"><path id="SvgjsPath1175" d="M 0 0L 102 0L 102 61L 0 61Z" stroke="none" fill="none"></path><g id="SvgjsG1176"><text id="SvgjsText1177" font-family="微软雅黑" text-anchor="middle" font-size="20px" width="102px" fill="#323232" font-weight="400" align="middle" lineHeight="125%" anchor="middle" family="微软雅黑" size="20px" weight="400" font-style="" opacity="1" y="0" transform="rotate(0)"><tspan id="SvgjsTspan1178" dy="25" x="51"><tspan id="SvgjsTspan1179" style="text-decoration:;font-weight: bold;">u</tspan><tspan id="SvgjsTspan1180" style="text-decoration:;"> </tspan></tspan><tspan id="SvgjsTspan1181" dy="25" x="51"><tspan id="SvgjsTspan1182" style="text-decoration:;">(Owner)</tspan></tspan></text></g></g><g id="SvgjsG1183" transform="translate(304,339)"><path id="SvgjsPath1184" d="M 0 0L 102 0L 102 61L 0 61Z" stroke="none" fill="none"></path><g id="SvgjsG1185"><text id="SvgjsText1186" font-family="微软雅黑" text-anchor="middle" font-size="20px" width="102px" fill="#323232" font-weight="400" align="middle" lineHeight="125%" anchor="middle" family="微软雅黑" size="20px" weight="400" font-style="" opacity="1" y="0" transform="rotate(0)"><tspan id="SvgjsTspan1187" dy="25" x="51"><tspan id="SvgjsTspan1188" style="text-decoration:;font-weight: bold;">g</tspan></tspan><tspan id="SvgjsTspan1189" dy="25" x="51"><tspan id="SvgjsTspan1190" style="text-decoration:;"> (Group)</tspan></tspan></text></g></g><g id="SvgjsG1191" transform="translate(529,340)"><path id="SvgjsPath1192" d="M 0 0L 102 0L 102 61L 0 61Z" stroke="none" fill="none"></path><g id="SvgjsG1193"><text id="SvgjsText1194" font-family="微软雅黑" text-anchor="middle" font-size="20px" width="102px" fill="#323232" font-weight="400" align="middle" lineHeight="125%" anchor="middle" family="微软雅黑" size="20px" weight="400" font-style="" opacity="1" y="0" transform="rotate(0)"><tspan id="SvgjsTspan1195" dy="25" x="51"><tspan id="SvgjsTspan1196" style="text-decoration:;font-weight: bold;">o</tspan></tspan><tspan id="SvgjsTspan1197" dy="25" x="51"><tspan id="SvgjsTspan1198" style="text-decoration:;"> (Other)</tspan></tspan></text></g></g><g id="SvgjsG1199" transform="translate(25,149)"><path id="SvgjsPath1200" d="M 0 4Q 0 0 4 0L 56 0Q 60 0 60 4L 60 36Q 60 40 56 40L 4 40Q 0 40 0 36Z" stroke="rgba(50,50,50,1)" stroke-width="2" fill-opacity="1" fill="#ffe0b2"></path><g id="SvgjsG1201"><text id="SvgjsText1202" font-family="微软雅黑" text-anchor="middle" font-size="22px" width="40px" fill="#323232" font-weight="400" align="middle" lineHeight="125%" anchor="middle" family="微软雅黑" size="22px" weight="400" font-style="" opacity="1" y="0.25" transform="rotate(0)"><tspan id="SvgjsTspan1203" dy="27" x="30"><tspan id="SvgjsTspan1204" style="text-decoration:;">4</tspan></tspan></text></g></g><g id="SvgjsG1205" transform="translate(100,149)"><path id="SvgjsPath1206" d="M 0 4Q 0 0 4 0L 56 0Q 60 0 60 4L 60 36Q 60 40 56 40L 4 40Q 0 40 0 36Z" stroke="rgba(50,50,50,1)" stroke-width="2" fill-opacity="1" fill="#c8e6c9"></path><g id="SvgjsG1207"><text id="SvgjsText1208" font-family="微软雅黑" text-anchor="middle" font-size="22px" width="40px" fill="#323232" font-weight="400" align="middle" lineHeight="125%" anchor="middle" family="微软雅黑" size="22px" weight="400" font-style="" opacity="1" y="0.25" transform="rotate(0)"><tspan id="SvgjsTspan1209" dy="27" x="30"><tspan id="SvgjsTspan1210" style="text-decoration:;">2</tspan></tspan></text></g></g><g id="SvgjsG1211" transform="translate(175,149)"><path id="SvgjsPath1212" d="M 0 4Q 0 0 4 0L 56 0Q 60 0 60 4L 60 36Q 60 40 56 40L 4 40Q 0 40 0 36Z" stroke="rgba(50,50,50,1)" stroke-width="2" fill-opacity="1" fill="#b2ebf2"></path><g id="SvgjsG1213"><text id="SvgjsText1214" font-family="微软雅黑" text-anchor="middle" font-size="22px" width="40px" fill="#323232" font-weight="400" align="middle" lineHeight="125%" anchor="middle" family="微软雅黑" size="22px" weight="400" font-style="" opacity="1" y="0.25" transform="rotate(0)"><tspan id="SvgjsTspan1215" dy="27" x="30"><tspan id="SvgjsTspan1216" style="text-decoration:;">1</tspan></tspan></text></g></g><g id="SvgjsG1217" transform="translate(250,149)"><path id="SvgjsPath1218" d="M 0 4Q 0 0 4 0L 56 0Q 60 0 60 4L 60 36Q 60 40 56 40L 4 40Q 0 40 0 36Z" stroke="rgba(50,50,50,1)" stroke-width="2" fill-opacity="1" fill="#ffe0b2"></path><g id="SvgjsG1219"><text id="SvgjsText1220" font-family="微软雅黑" text-anchor="middle" font-size="22px" width="40px" fill="#323232" font-weight="400" align="middle" lineHeight="125%" anchor="middle" family="微软雅黑" size="22px" weight="400" font-style="" opacity="1" y="0.25" transform="rotate(0)"><tspan id="SvgjsTspan1221" dy="27" x="30"><tspan id="SvgjsTspan1222" style="text-decoration:;">4</tspan></tspan></text></g></g><g id="SvgjsG1223" transform="translate(325,149)"><path id="SvgjsPath1224" d="M 0 4Q 0 0 4 0L 56 0Q 60 0 60 4L 60 36Q 60 40 56 40L 4 40Q 0 40 0 36Z" stroke="rgba(50,50,50,1)" stroke-width="2" fill-opacity="1" fill="#e0e0e0"></path><g id="SvgjsG1225"><text id="SvgjsText1226" font-family="微软雅黑" text-anchor="middle" font-size="22px" width="40px" fill="#323232" font-weight="400" align="middle" lineHeight="125%" anchor="middle" family="微软雅黑" size="22px" weight="400" font-style="" opacity="1" y="0.25" transform="rotate(0)"><tspan id="SvgjsTspan1227" dy="27" x="30"><tspan id="SvgjsTspan1228" style="text-decoration:;">0</tspan></tspan></text></g></g><g id="SvgjsG1229" transform="translate(400,149)"><path id="SvgjsPath1230" d="M 0 4Q 0 0 4 0L 56 0Q 60 0 60 4L 60 36Q 60 40 56 40L 4 40Q 0 40 0 36Z" stroke="rgba(50,50,50,1)" stroke-width="2" fill-opacity="1" fill="#b2ebf2"></path><g id="SvgjsG1231"><text id="SvgjsText1232" font-family="微软雅黑" text-anchor="middle" font-size="22px" width="40px" fill="#323232" font-weight="400" align="middle" lineHeight="125%" anchor="middle" family="微软雅黑" size="22px" weight="400" font-style="" opacity="1" y="0.25" transform="rotate(0)"><tspan id="SvgjsTspan1233" dy="27" x="30"><tspan id="SvgjsTspan1234" style="text-decoration:;">1</tspan></tspan></text></g></g><g id="SvgjsG1235" transform="translate(475,149)"><path id="SvgjsPath1236" d="M 0 4Q 0 0 4 0L 56 0Q 60 0 60 4L 60 36Q 60 40 56 40L 4 40Q 0 40 0 36Z" stroke="rgba(50,50,50,1)" stroke-width="2" fill-opacity="1" fill="#ffe0b2"></path><g id="SvgjsG1237"><text id="SvgjsText1238" font-family="微软雅黑" text-anchor="middle" font-size="22px" width="40px" fill="#323232" font-weight="400" align="middle" lineHeight="125%" anchor="middle" family="微软雅黑" size="22px" weight="400" font-style="" opacity="1" y="0.25" transform="rotate(0)"><tspan id="SvgjsTspan1239" dy="27" x="30"><tspan id="SvgjsTspan1240" style="text-decoration:;">4</tspan></tspan></text></g></g><g id="SvgjsG1241" transform="translate(550,149)"><path id="SvgjsPath1242" d="M 0 4Q 0 0 4 0L 56 0Q 60 0 60 4L 60 36Q 60 40 56 40L 4 40Q 0 40 0 36Z" stroke="rgba(50,50,50,1)" stroke-width="2" fill-opacity="1" fill="#e0e0e0"></path><g id="SvgjsG1243"><text id="SvgjsText1244" font-family="微软雅黑" text-anchor="middle" font-size="22px" width="40px" fill="#323232" font-weight="400" align="middle" lineHeight="125%" anchor="middle" family="微软雅黑" size="22px" weight="400" font-style="" opacity="1" y="0.25" transform="rotate(0)"><tspan id="SvgjsTspan1245" dy="27" x="30"><tspan id="SvgjsTspan1246" style="text-decoration:;">0</tspan></tspan></text></g></g><g id="SvgjsG1247" transform="translate(625,149)"><path id="SvgjsPath1248" d="M 0 4Q 0 0 4 0L 56 0Q 60 0 60 4L 60 36Q 60 40 56 40L 4 40Q 0 40 0 36Z" stroke="rgba(50,50,50,1)" stroke-width="2" fill-opacity="1" fill="#e0e0e0"></path><g id="SvgjsG1249"><text id="SvgjsText1250" font-family="微软雅黑" text-anchor="middle" font-size="22px" width="40px" fill="#323232" font-weight="400" align="middle" lineHeight="125%" anchor="middle" family="微软雅黑" size="22px" weight="400" font-style="" opacity="1" y="0.25" transform="rotate(0)"><tspan id="SvgjsTspan1251" dy="27" x="30"><tspan id="SvgjsTspan1252" style="text-decoration:;">0</tspan></tspan></text></g></g><g id="SvgjsG1253" transform="matrix(6.123233995736766e-17,1,-1,6.123233995736766e-17,218,26)"><path id="SvgjsPath1254" d="M 99.99999999999999 0Q 90.99999999999999 0 90.99999999999999 9L 90.99999999999999 79Q 90.99999999999999 88 77.99999999999999 88Q 90.99999999999999 88 90.99999999999999 97L 90.99999999999999 167Q 90.99999999999999 176 99.99999999999999 176" stroke="rgba(50,50,50,1)" stroke-width="2" fill="none"></path><path id="SvgjsPath1255" d="M 0 0L 99.99999999999999 0L 99.99999999999999 176L 0 176Z" stroke="none" fill="none"></path><g id="SvgjsG1256"><text id="SvgjsText1257" font-family="微软雅黑" text-anchor="end" font-size="13px" width="73px" fill="#323232" font-weight="400" align="middle" lineHeight="125%" anchor="end" family="微软雅黑" size="13px" weight="400" font-style="" opacity="1" y="77.375" transform="rotate(0)"></text></g></g><g id="SvgjsG1258" transform="matrix(6.123233995736766e-17,1,-1,6.123233995736766e-17,441,25)"><path id="SvgjsPath1259" d="M 99.99999999999999 0Q 90.99999999999999 0 90.99999999999999 9L 90.99999999999999 79Q 90.99999999999999 88 77.99999999999999 88Q 90.99999999999999 88 90.99999999999999 97L 90.99999999999999 167Q 90.99999999999999 176 99.99999999999999 176" stroke="rgba(50,50,50,1)" stroke-width="2" fill="none"></path><path id="SvgjsPath1260" d="M 0 0L 99.99999999999999 0L 99.99999999999999 176L 0 176Z" stroke="none" fill="none"></path><g id="SvgjsG1261"><text id="SvgjsText1262" font-family="微软雅黑" text-anchor="end" font-size="13px" width="73px" fill="#323232" font-weight="400" align="middle" lineHeight="125%" anchor="end" family="微软雅黑" size="13px" weight="400" font-style="" opacity="1" y="77.375" transform="rotate(0)"></text></g></g><g id="SvgjsG1263" transform="matrix(6.123233995736766e-17,1,-1,6.123233995736766e-17,668,26)"><path id="SvgjsPath1264" d="M 99.99999999999999 0Q 90.99999999999999 0 90.99999999999999 9L 90.99999999999999 79Q 90.99999999999999 88 77.99999999999999 88Q 90.99999999999999 88 90.99999999999999 97L 90.99999999999999 167Q 90.99999999999999 176 99.99999999999999 176" stroke="rgba(50,50,50,1)" stroke-width="2" fill="none"></path><path id="SvgjsPath1265" d="M 0 0L 99.99999999999999 0L 99.99999999999999 176L 0 176Z" stroke="none" fill="none"></path><g id="SvgjsG1266"><text id="SvgjsText1267" font-family="微软雅黑" text-anchor="end" font-size="13px" width="73px" fill="#323232" font-weight="400" align="middle" lineHeight="125%" anchor="end" family="微软雅黑" size="13px" weight="400" font-style="" opacity="1" y="77.375" transform="rotate(0)"></text></g></g><g id="SvgjsG1268" transform="translate(91,44)"><path id="SvgjsPath1269" d="M 0 0L 78 0L 78 55L 0 55Z" stroke="none" fill="none"></path><g id="SvgjsG1270"><text id="SvgjsText1271" font-family="微软雅黑" text-anchor="middle" font-size="30px" width="78px" fill="#323232" font-weight="700" align="middle" lineHeight="125%" anchor="middle" family="微软雅黑" size="30px" weight="700" font-style="" opacity="1" y="1.75" transform="rotate(0)"><tspan id="SvgjsTspan1272" dy="37" x="39"><tspan id="SvgjsTspan1273" style="text-decoration:;">7</tspan></tspan></text></g></g><g id="SvgjsG1274" transform="translate(316,44)"><path id="SvgjsPath1275" d="M 0 0L 78 0L 78 55L 0 55Z" stroke="none" fill="none"></path><g id="SvgjsG1276"><text id="SvgjsText1277" font-family="微软雅黑" text-anchor="middle" font-size="30px" width="78px" fill="#323232" font-weight="700" align="middle" lineHeight="125%" anchor="middle" family="微软雅黑" size="30px" weight="700" font-style="" opacity="1" y="1.75" transform="rotate(0)"><tspan id="SvgjsTspan1278" dy="37" x="39"><tspan id="SvgjsTspan1279" style="text-decoration:;">5</tspan></tspan></text></g></g><g id="SvgjsG1280" transform="translate(541,44)"><path id="SvgjsPath1281" d="M 0 0L 78 0L 78 55L 0 55Z" stroke="none" fill="none"></path><g id="SvgjsG1282"><text id="SvgjsText1283" font-family="微软雅黑" text-anchor="middle" font-size="30px" width="78px" fill="#323232" font-weight="700" align="middle" lineHeight="125%" anchor="middle" family="微软雅黑" size="30px" weight="700" font-style="" opacity="1" y="1.75" transform="rotate(0)"><tspan id="SvgjsTspan1284" dy="37" x="39"><tspan id="SvgjsTspan1285" style="text-decoration:;">4</tspan></tspan></text></g></g></svg>