<svg id="SvgjsSvg2078" width="830" height="500" xmlns="http://www.w3.org/2000/svg" version="1.1" xmlns:xlink="http://www.w3.org/1999/xlink" xmlns:svgjs="http://svgjs.com/svgjs"><defs id="SvgjsDefs2079"><marker id="SvgjsMarker2136" markerWidth="14" markerHeight="10" refX="10" refY="5" viewBox="0 0 14 10" orient="auto" markerUnits="userSpaceOnUse" stroke-dasharray="0,0"><path id="SvgjsPath2137" d="M0,0 L14,5 L0,10 L0,0" fill="#323232" stroke="#323232" stroke-width="1"></path></marker><marker id="SvgjsMarker2140" markerWidth="14" markerHeight="10" refX="10" refY="5" viewBox="0 0 14 10" orient="auto" markerUnits="userSpaceOnUse" stroke-dasharray="0,0"><path id="SvgjsPath2141" d="M0,0 L14,5 L0,10 L0,0" fill="#323232" stroke="#323232" stroke-width="1"></path></marker><marker id="SvgjsMarker2144" markerWidth="14" markerHeight="10" refX="10" refY="5" viewBox="0 0 14 10" orient="auto" markerUnits="userSpaceOnUse" stroke-dasharray="0,0"><path id="SvgjsPath2145" d="M0,0 L14,5 L0,10 L0,0" fill="#323232" stroke="#323232" stroke-width="1"></path></marker><marker id="SvgjsMarker2148" markerWidth="14" markerHeight="10" refX="10" refY="5" viewBox="0 0 14 10" orient="auto" markerUnits="userSpaceOnUse" stroke-dasharray="0,0"><path id="SvgjsPath2149" d="M0,0 L14,5 L0,10 L0,0" fill="#323232" stroke="#323232" stroke-width="1"></path></marker><marker id="SvgjsMarker2314" markerWidth="14" markerHeight="10" refX="10" refY="5" viewBox="0 0 14 10" orient="auto" markerUnits="userSpaceOnUse" stroke-dasharray="0,0"><path id="SvgjsPath2315" d="M0,0 L14,5 L0,10 L0,0" fill="#323232" stroke="#323232" stroke-width="1"></path></marker><marker id="SvgjsMarker2318" markerWidth="14" markerHeight="10" refX="10" refY="5" viewBox="0 0 14 10" orient="auto" markerUnits="userSpaceOnUse" stroke-dasharray="0,0"><path id="SvgjsPath2319" d="M0,0 L14,5 L0,10 L0,0" fill="#323232" stroke="#323232" stroke-width="1"></path></marker><marker id="SvgjsMarker2322" markerWidth="14" markerHeight="10" refX="10" refY="5" viewBox="0 0 14 10" orient="auto" markerUnits="userSpaceOnUse" stroke-dasharray="0,0"><path id="SvgjsPath2323" d="M0,0 L14,5 L0,10 L0,0" fill="#323232" stroke="#323232" stroke-width="1"></path></marker></defs><g id="SvgjsG2080" transform="translate(25,55)"><path id="SvgjsPath2081" d="M 0 4Q 0 0 4 0L 56 0Q 60 0 60 4L 60 56Q 60 60 56 60L 4 60Q 0 60 0 56Z" stroke="rgba(50,50,50,1)" stroke-width="2" fill-opacity="1" fill="#4caf50"></path><g id="SvgjsG2082"><text id="SvgjsText2083" font-family="微软雅黑" text-anchor="middle" font-size="25px" width="40px" fill="#323232" font-weight="400" align="middle" lineHeight="125%" anchor="middle" family="微软雅黑" size="25px" weight="400" font-style="" opacity="1" y="7.875" transform="rotate(0)"><tspan id="SvgjsTspan2084" dy="31" x="30"><tspan id="SvgjsTspan2085" style="text-decoration:;">2</tspan></tspan></text></g></g><g id="SvgjsG2086" transform="translate(115,55)"><path id="SvgjsPath2087" d="M 0 4Q 0 0 4 0L 56 0Q 60 0 60 4L 60 56Q 60 60 56 60L 4 60Q 0 60 0 56Z" stroke="rgba(50,50,50,1)" stroke-width="2" fill-opacity="1" fill="#c8e6c9"></path><g id="SvgjsG2088"><text id="SvgjsText2089" font-family="微软雅黑" text-anchor="middle" font-size="25px" width="40px" fill="#323232" font-weight="400" align="middle" lineHeight="125%" anchor="middle" family="微软雅黑" size="25px" weight="400" font-style="" opacity="1" y="7.875" transform="rotate(0)"><tspan id="SvgjsTspan2090" dy="31" x="30"><tspan id="SvgjsTspan2091" style="text-decoration:;">3</tspan></tspan></text></g></g><g id="SvgjsG2092" transform="translate(205,55)"><path id="SvgjsPath2093" d="M 0 4Q 0 0 4 0L 56 0Q 60 0 60 4L 60 56Q 60 60 56 60L 4 60Q 0 60 0 56Z" stroke="rgba(50,50,50,1)" stroke-width="2" fill-opacity="1" fill="#ffb74d"></path><g id="SvgjsG2094"><text id="SvgjsText2095" font-family="微软雅黑" text-anchor="middle" font-size="25px" width="40px" fill="#323232" font-weight="400" align="middle" lineHeight="125%" anchor="middle" family="微软雅黑" size="25px" weight="400" font-style="" opacity="1" y="7.875" transform="rotate(0)"><tspan id="SvgjsTspan2096" dy="31" x="30"><tspan id="SvgjsTspan2097" style="text-decoration:;">4</tspan></tspan></text></g></g><g id="SvgjsG2098" transform="translate(295,55)"><path id="SvgjsPath2099" d="M 0 4Q 0 0 4 0L 56 0Q 60 0 60 4L 60 56Q 60 60 56 60L 4 60Q 0 60 0 56Z" stroke="rgba(50,50,50,1)" stroke-width="2" fill-opacity="1" fill="#c8e6c9"></path><g id="SvgjsG2100"><text id="SvgjsText2101" font-family="微软雅黑" text-anchor="middle" font-size="25px" width="40px" fill="#323232" font-weight="400" align="middle" lineHeight="125%" anchor="middle" family="微软雅黑" size="25px" weight="400" font-style="" opacity="1" y="7.875" transform="rotate(0)"><tspan id="SvgjsTspan2102" dy="31" x="30"><tspan id="SvgjsTspan2103" style="text-decoration:;">5</tspan></tspan></text></g></g><g id="SvgjsG2104" transform="translate(385,55)"><path id="SvgjsPath2105" d="M 0 4Q 0 0 4 0L 56 0Q 60 0 60 4L 60 56Q 60 60 56 60L 4 60Q 0 60 0 56Z" stroke="rgba(50,50,50,1)" stroke-width="2" fill-opacity="1" fill="#ffb74d"></path><g id="SvgjsG2106"><text id="SvgjsText2107" font-family="微软雅黑" text-anchor="middle" font-size="25px" width="40px" fill="#323232" font-weight="400" align="middle" lineHeight="125%" anchor="middle" family="微软雅黑" size="25px" weight="400" font-style="" opacity="1" y="7.875" transform="rotate(0)"><tspan id="SvgjsTspan2108" dy="31" x="30"><tspan id="SvgjsTspan2109" style="text-decoration:;">6</tspan></tspan></text></g></g><g id="SvgjsG2110" transform="translate(475,55)"><path id="SvgjsPath2111" d="M 0 4Q 0 0 4 0L 56 0Q 60 0 60 4L 60 56Q 60 60 56 60L 4 60Q 0 60 0 56Z" stroke="rgba(50,50,50,1)" stroke-width="2" fill-opacity="1" fill="#c8e6c9"></path><g id="SvgjsG2112"><text id="SvgjsText2113" font-family="微软雅黑" text-anchor="middle" font-size="25px" width="40px" fill="#323232" font-weight="400" align="middle" lineHeight="125%" anchor="middle" family="微软雅黑" size="25px" weight="400" font-style="" opacity="1" y="7.875" transform="rotate(0)"><tspan id="SvgjsTspan2114" dy="31" x="30"><tspan id="SvgjsTspan2115" style="text-decoration:;">7</tspan></tspan></text></g></g><g id="SvgjsG2116" transform="translate(565,55)"><path id="SvgjsPath2117" d="M 0 4Q 0 0 4 0L 56 0Q 60 0 60 4L 60 56Q 60 60 56 60L 4 60Q 0 60 0 56Z" stroke="rgba(50,50,50,1)" stroke-width="2" fill-opacity="1" fill="#ffb74d"></path><g id="SvgjsG2118"><text id="SvgjsText2119" font-family="微软雅黑" text-anchor="middle" font-size="25px" width="40px" fill="#323232" font-weight="400" align="middle" lineHeight="125%" anchor="middle" family="微软雅黑" size="25px" weight="400" font-style="" opacity="1" y="7.875" transform="rotate(0)"><tspan id="SvgjsTspan2120" dy="31" x="30"><tspan id="SvgjsTspan2121" style="text-decoration:;">8</tspan></tspan></text></g></g><g id="SvgjsG2122" transform="translate(655,55)"><path id="SvgjsPath2123" d="M 0 4Q 0 0 4 0L 56 0Q 60 0 60 4L 60 56Q 60 60 56 60L 4 60Q 0 60 0 56Z" stroke="rgba(50,50,50,1)" stroke-width="2" fill-opacity="1" fill="#c8e6c9"></path><g id="SvgjsG2124"><text id="SvgjsText2125" font-family="微软雅黑" text-anchor="middle" font-size="25px" width="40px" fill="#323232" font-weight="400" align="middle" lineHeight="125%" anchor="middle" family="微软雅黑" size="25px" weight="400" font-style="" opacity="1" y="7.875" transform="rotate(0)"><tspan id="SvgjsTspan2126" dy="31" x="30"><tspan id="SvgjsTspan2127" style="text-decoration:;">9</tspan></tspan></text></g></g><g id="SvgjsG2128" transform="translate(745,55)"><path id="SvgjsPath2129" d="M 0 4Q 0 0 4 0L 56 0Q 60 0 60 4L 60 56Q 60 60 56 60L 4 60Q 0 60 0 56Z" stroke="rgba(50,50,50,1)" stroke-width="2" fill-opacity="1" fill="#ffb74d"></path><g id="SvgjsG2130"><text id="SvgjsText2131" font-family="微软雅黑" text-anchor="middle" font-size="25px" width="40px" fill="#323232" font-weight="400" align="middle" lineHeight="125%" anchor="middle" family="微软雅黑" size="25px" weight="400" font-style="" opacity="1" y="7.875" transform="rotate(0)"><tspan id="SvgjsTspan2132" dy="31" x="30"><tspan id="SvgjsTspan2133" style="text-decoration:;">10</tspan></tspan></text></g></g><g id="SvgjsG2134"><path id="SvgjsPath2135" d="M55 54L55 25L235 25L235 51.400000000000006" stroke="#323232" stroke-width="2" fill="none" marker-end="url(#SvgjsMarker2136)"></path></g><g id="SvgjsG2138"><path id="SvgjsPath2139" d="M55 54L55 25L415 25L415 51.400000000000006" stroke="#323232" stroke-width="2" fill="none" marker-end="url(#SvgjsMarker2140)"></path></g><g id="SvgjsG2142"><path id="SvgjsPath2143" d="M55 54L55 25L595 25L595 51.400000000000006" stroke="#323232" stroke-width="2" fill="none" marker-end="url(#SvgjsMarker2144)"></path></g><g id="SvgjsG2146"><path id="SvgjsPath2147" d="M55 54L55 25L775 25L775 51.400000000000006" stroke="#323232" stroke-width="2" fill="none" marker-end="url(#SvgjsMarker2148)"></path></g><g id="SvgjsG2150" transform="translate(25,175)"><path id="SvgjsPath2151" d="M 0 4Q 0 0 4 0L 56 0Q 60 0 60 4L 60 56Q 60 60 56 60L 4 60Q 0 60 0 56Z" stroke="rgba(50,50,50,1)" stroke-width="2" fill-opacity="1" fill="#4caf50"></path><g id="SvgjsG2152"><text id="SvgjsText2153" font-family="微软雅黑" text-anchor="middle" font-size="25px" width="40px" fill="#323232" font-weight="400" align="middle" lineHeight="125%" anchor="middle" family="微软雅黑" size="25px" weight="400" font-style="" opacity="1" y="7.875" transform="rotate(0)"><tspan id="SvgjsTspan2154" dy="31" x="30"><tspan id="SvgjsTspan2155" style="text-decoration:;">2</tspan></tspan></text></g></g><g id="SvgjsG2156" transform="translate(115,175)"><path id="SvgjsPath2157" d="M 0 4Q 0 0 4 0L 56 0Q 60 0 60 4L 60 56Q 60 60 56 60L 4 60Q 0 60 0 56Z" stroke="rgba(50,50,50,1)" stroke-width="2" fill-opacity="1" fill="#4caf50"></path><g id="SvgjsG2158"><text id="SvgjsText2159" font-family="微软雅黑" text-anchor="middle" font-size="25px" width="40px" fill="#323232" font-weight="400" align="middle" lineHeight="125%" anchor="middle" family="微软雅黑" size="25px" weight="400" font-style="" opacity="1" y="7.875" transform="rotate(0)"><tspan id="SvgjsTspan2160" dy="31" x="30"><tspan id="SvgjsTspan2161" style="text-decoration:;">3</tspan></tspan></text></g></g><g id="SvgjsG2162" transform="translate(205,175)"><path id="SvgjsPath2163" d="M 0 4Q 0 0 4 0L 56 0Q 60 0 60 4L 60 56Q 60 60 56 60L 4 60Q 0 60 0 56Z" stroke="rgba(50,50,50,1)" stroke-width="2" fill-opacity="1" fill="#ffb74d"></path><g id="SvgjsG2164"><text id="SvgjsText2165" font-family="微软雅黑" text-anchor="middle" font-size="25px" width="40px" fill="#323232" font-weight="400" align="middle" lineHeight="125%" anchor="middle" family="微软雅黑" size="25px" weight="400" font-style="" opacity="1" y="7.875" transform="rotate(0)"><tspan id="SvgjsTspan2166" dy="31" x="30"><tspan id="SvgjsTspan2167" style="text-decoration:;">4</tspan></tspan></text></g></g><g id="SvgjsG2168" transform="translate(295,175)"><path id="SvgjsPath2169" d="M 0 4Q 0 0 4 0L 56 0Q 60 0 60 4L 60 56Q 60 60 56 60L 4 60Q 0 60 0 56Z" stroke="rgba(50,50,50,1)" stroke-width="2" fill-opacity="1" fill="#c8e6c9"></path><g id="SvgjsG2170"><text id="SvgjsText2171" font-family="微软雅黑" text-anchor="middle" font-size="25px" width="40px" fill="#323232" font-weight="400" align="middle" lineHeight="125%" anchor="middle" family="微软雅黑" size="25px" weight="400" font-style="" opacity="1" y="7.875" transform="rotate(0)"><tspan id="SvgjsTspan2172" dy="31" x="30"><tspan id="SvgjsTspan2173" style="text-decoration:;">5</tspan></tspan></text></g></g><g id="SvgjsG2174" transform="translate(385,175)"><path id="SvgjsPath2175" d="M 0 4Q 0 0 4 0L 56 0Q 60 0 60 4L 60 56Q 60 60 56 60L 4 60Q 0 60 0 56Z" stroke="rgba(50,50,50,1)" stroke-width="2" fill-opacity="1" fill="#ffb74d"></path><g id="SvgjsG2176"><text id="SvgjsText2177" font-family="微软雅黑" text-anchor="middle" font-size="25px" width="40px" fill="#323232" font-weight="400" align="middle" lineHeight="125%" anchor="middle" family="微软雅黑" size="25px" weight="400" font-style="" opacity="1" y="7.875" transform="rotate(0)"><tspan id="SvgjsTspan2178" dy="31" x="30"><tspan id="SvgjsTspan2179" style="text-decoration:;">6</tspan></tspan></text></g></g><g id="SvgjsG2180" transform="translate(475,175)"><path id="SvgjsPath2181" d="M 0 4Q 0 0 4 0L 56 0Q 60 0 60 4L 60 56Q 60 60 56 60L 4 60Q 0 60 0 56Z" stroke="rgba(50,50,50,1)" stroke-width="2" fill-opacity="1" fill="#c8e6c9"></path><g id="SvgjsG2182"><text id="SvgjsText2183" font-family="微软雅黑" text-anchor="middle" font-size="25px" width="40px" fill="#323232" font-weight="400" align="middle" lineHeight="125%" anchor="middle" family="微软雅黑" size="25px" weight="400" font-style="" opacity="1" y="7.875" transform="rotate(0)"><tspan id="SvgjsTspan2184" dy="31" x="30"><tspan id="SvgjsTspan2185" style="text-decoration:;">7</tspan></tspan></text></g></g><g id="SvgjsG2186" transform="translate(565,175)"><path id="SvgjsPath2187" d="M 0 4Q 0 0 4 0L 56 0Q 60 0 60 4L 60 56Q 60 60 56 60L 4 60Q 0 60 0 56Z" stroke="rgba(50,50,50,1)" stroke-width="2" fill-opacity="1" fill="#ffb74d"></path><g id="SvgjsG2188"><text id="SvgjsText2189" font-family="微软雅黑" text-anchor="middle" font-size="25px" width="40px" fill="#323232" font-weight="400" align="middle" lineHeight="125%" anchor="middle" family="微软雅黑" size="25px" weight="400" font-style="" opacity="1" y="7.875" transform="rotate(0)"><tspan id="SvgjsTspan2190" dy="31" x="30"><tspan id="SvgjsTspan2191" style="text-decoration:;">8</tspan></tspan></text></g></g><g id="SvgjsG2192" transform="translate(655,175)"><path id="SvgjsPath2193" d="M 0 4Q 0 0 4 0L 56 0Q 60 0 60 4L 60 56Q 60 60 56 60L 4 60Q 0 60 0 56Z" stroke="rgba(50,50,50,1)" stroke-width="2" fill-opacity="1" fill="#ffb74d"></path><g id="SvgjsG2194"><text id="SvgjsText2195" font-family="微软雅黑" text-anchor="middle" font-size="25px" width="40px" fill="#323232" font-weight="400" align="middle" lineHeight="125%" anchor="middle" family="微软雅黑" size="25px" weight="400" font-style="" opacity="1" y="7.875" transform="rotate(0)"><tspan id="SvgjsTspan2196" dy="31" x="30"><tspan id="SvgjsTspan2197" style="text-decoration:;">9</tspan></tspan></text></g></g><g id="SvgjsG2198" transform="translate(745,175)"><path id="SvgjsPath2199" d="M 0 4Q 0 0 4 0L 56 0Q 60 0 60 4L 60 56Q 60 60 56 60L 4 60Q 0 60 0 56Z" stroke="rgba(50,50,50,1)" stroke-width="2" fill-opacity="1" fill="#ffb74d"></path><g id="SvgjsG2200"><text id="SvgjsText2201" font-family="微软雅黑" text-anchor="middle" font-size="25px" width="40px" fill="#323232" font-weight="400" align="middle" lineHeight="125%" anchor="middle" family="微软雅黑" size="25px" weight="400" font-style="" opacity="1" y="7.875" transform="rotate(0)"><tspan id="SvgjsTspan2202" dy="31" x="30"><tspan id="SvgjsTspan2203" style="text-decoration:;">10</tspan></tspan></text></g></g><g id="SvgjsG2204" transform="translate(25,295)"><path id="SvgjsPath2205" d="M 0 4Q 0 0 4 0L 56 0Q 60 0 60 4L 60 56Q 60 60 56 60L 4 60Q 0 60 0 56Z" stroke="rgba(50,50,50,1)" stroke-width="2" fill-opacity="1" fill="#4caf50"></path><g id="SvgjsG2206"><text id="SvgjsText2207" font-family="微软雅黑" text-anchor="middle" font-size="25px" width="40px" fill="#323232" font-weight="400" align="middle" lineHeight="125%" anchor="middle" family="微软雅黑" size="25px" weight="400" font-style="" opacity="1" y="7.875" transform="rotate(0)"><tspan id="SvgjsTspan2208" dy="31" x="30"><tspan id="SvgjsTspan2209" style="text-decoration:;">2</tspan></tspan></text></g></g><g id="SvgjsG2210" transform="translate(115,295)"><path id="SvgjsPath2211" d="M 0 4Q 0 0 4 0L 56 0Q 60 0 60 4L 60 56Q 60 60 56 60L 4 60Q 0 60 0 56Z" stroke="rgba(50,50,50,1)" stroke-width="2" fill-opacity="1" fill="#4caf50"></path><g id="SvgjsG2212"><text id="SvgjsText2213" font-family="微软雅黑" text-anchor="middle" font-size="25px" width="40px" fill="#323232" font-weight="400" align="middle" lineHeight="125%" anchor="middle" family="微软雅黑" size="25px" weight="400" font-style="" opacity="1" y="7.875" transform="rotate(0)"><tspan id="SvgjsTspan2214" dy="31" x="30"><tspan id="SvgjsTspan2215" style="text-decoration:;">3</tspan></tspan></text></g></g><g id="SvgjsG2216" transform="translate(205,295)"><path id="SvgjsPath2217" d="M 0 4Q 0 0 4 0L 56 0Q 60 0 60 4L 60 56Q 60 60 56 60L 4 60Q 0 60 0 56Z" stroke="rgba(50,50,50,1)" stroke-width="2" fill-opacity="1" fill="#ffb74d"></path><g id="SvgjsG2218"><text id="SvgjsText2219" font-family="微软雅黑" text-anchor="middle" font-size="25px" width="40px" fill="#323232" font-weight="400" align="middle" lineHeight="125%" anchor="middle" family="微软雅黑" size="25px" weight="400" font-style="" opacity="1" y="7.875" transform="rotate(0)"><tspan id="SvgjsTspan2220" dy="31" x="30"><tspan id="SvgjsTspan2221" style="text-decoration:;">4</tspan></tspan></text></g></g><g id="SvgjsG2222" transform="translate(295,295)"><path id="SvgjsPath2223" d="M 0 4Q 0 0 4 0L 56 0Q 60 0 60 4L 60 56Q 60 60 56 60L 4 60Q 0 60 0 56Z" stroke="rgba(50,50,50,1)" stroke-width="2" fill-opacity="1" fill="#4caf50"></path><g id="SvgjsG2224"><text id="SvgjsText2225" font-family="微软雅黑" text-anchor="middle" font-size="25px" width="40px" fill="#323232" font-weight="400" align="middle" lineHeight="125%" anchor="middle" family="微软雅黑" size="25px" weight="400" font-style="" opacity="1" y="7.875" transform="rotate(0)"><tspan id="SvgjsTspan2226" dy="31" x="30"><tspan id="SvgjsTspan2227" style="text-decoration:;">5</tspan></tspan></text></g></g><g id="SvgjsG2228" transform="translate(385,295)"><path id="SvgjsPath2229" d="M 0 4Q 0 0 4 0L 56 0Q 60 0 60 4L 60 56Q 60 60 56 60L 4 60Q 0 60 0 56Z" stroke="rgba(50,50,50,1)" stroke-width="2" fill-opacity="1" fill="#ffb74d"></path><g id="SvgjsG2230"><text id="SvgjsText2231" font-family="微软雅黑" text-anchor="middle" font-size="25px" width="40px" fill="#323232" font-weight="400" align="middle" lineHeight="125%" anchor="middle" family="微软雅黑" size="25px" weight="400" font-style="" opacity="1" y="7.875" transform="rotate(0)"><tspan id="SvgjsTspan2232" dy="31" x="30"><tspan id="SvgjsTspan2233" style="text-decoration:;">6</tspan></tspan></text></g></g><g id="SvgjsG2234" transform="translate(475,295)"><path id="SvgjsPath2235" d="M 0 4Q 0 0 4 0L 56 0Q 60 0 60 4L 60 56Q 60 60 56 60L 4 60Q 0 60 0 56Z" stroke="rgba(50,50,50,1)" stroke-width="2" fill-opacity="1" fill="#c8e6c9"></path><g id="SvgjsG2236"><text id="SvgjsText2237" font-family="微软雅黑" text-anchor="middle" font-size="25px" width="40px" fill="#323232" font-weight="400" align="middle" lineHeight="125%" anchor="middle" family="微软雅黑" size="25px" weight="400" font-style="" opacity="1" y="7.875" transform="rotate(0)"><tspan id="SvgjsTspan2238" dy="31" x="30"><tspan id="SvgjsTspan2239" style="text-decoration:;">7</tspan></tspan></text></g></g><g id="SvgjsG2240" transform="translate(565,295)"><path id="SvgjsPath2241" d="M 0 4Q 0 0 4 0L 56 0Q 60 0 60 4L 60 56Q 60 60 56 60L 4 60Q 0 60 0 56Z" stroke="rgba(50,50,50,1)" stroke-width="2" fill-opacity="1" fill="#ffb74d"></path><g id="SvgjsG2242"><text id="SvgjsText2243" font-family="微软雅黑" text-anchor="middle" font-size="25px" width="40px" fill="#323232" font-weight="400" align="middle" lineHeight="125%" anchor="middle" family="微软雅黑" size="25px" weight="400" font-style="" opacity="1" y="7.875" transform="rotate(0)"><tspan id="SvgjsTspan2244" dy="31" x="30"><tspan id="SvgjsTspan2245" style="text-decoration:;">8</tspan></tspan></text></g></g><g id="SvgjsG2246" transform="translate(655,295)"><path id="SvgjsPath2247" d="M 0 4Q 0 0 4 0L 56 0Q 60 0 60 4L 60 56Q 60 60 56 60L 4 60Q 0 60 0 56Z" stroke="rgba(50,50,50,1)" stroke-width="2" fill-opacity="1" fill="#ffb74d"></path><g id="SvgjsG2248"><text id="SvgjsText2249" font-family="微软雅黑" text-anchor="middle" font-size="25px" width="40px" fill="#323232" font-weight="400" align="middle" lineHeight="125%" anchor="middle" family="微软雅黑" size="25px" weight="400" font-style="" opacity="1" y="7.875" transform="rotate(0)"><tspan id="SvgjsTspan2250" dy="31" x="30"><tspan id="SvgjsTspan2251" style="text-decoration:;">9</tspan></tspan></text></g></g><g id="SvgjsG2252" transform="translate(745,295)"><path id="SvgjsPath2253" d="M 0 4Q 0 0 4 0L 56 0Q 60 0 60 4L 60 56Q 60 60 56 60L 4 60Q 0 60 0 56Z" stroke="rgba(50,50,50,1)" stroke-width="2" fill-opacity="1" fill="#ffb74d"></path><g id="SvgjsG2254"><text id="SvgjsText2255" font-family="微软雅黑" text-anchor="middle" font-size="25px" width="40px" fill="#323232" font-weight="400" align="middle" lineHeight="125%" anchor="middle" family="微软雅黑" size="25px" weight="400" font-style="" opacity="1" y="7.875" transform="rotate(0)"><tspan id="SvgjsTspan2256" dy="31" x="30"><tspan id="SvgjsTspan2257" style="text-decoration:;">10</tspan></tspan></text></g></g><g id="SvgjsG2258" transform="translate(25,415)"><path id="SvgjsPath2259" d="M 0 4Q 0 0 4 0L 56 0Q 60 0 60 4L 60 56Q 60 60 56 60L 4 60Q 0 60 0 56Z" stroke="rgba(50,50,50,1)" stroke-width="2" fill-opacity="1" fill="#4caf50"></path><g id="SvgjsG2260"><text id="SvgjsText2261" font-family="微软雅黑" text-anchor="middle" font-size="25px" width="40px" fill="#323232" font-weight="400" align="middle" lineHeight="125%" anchor="middle" family="微软雅黑" size="25px" weight="400" font-style="" opacity="1" y="7.875" transform="rotate(0)"><tspan id="SvgjsTspan2262" dy="31" x="30"><tspan id="SvgjsTspan2263" style="text-decoration:;">2</tspan></tspan></text></g></g><g id="SvgjsG2264" transform="translate(115,415)"><path id="SvgjsPath2265" d="M 0 4Q 0 0 4 0L 56 0Q 60 0 60 4L 60 56Q 60 60 56 60L 4 60Q 0 60 0 56Z" stroke="rgba(50,50,50,1)" stroke-width="2" fill-opacity="1" fill="#4caf50"></path><g id="SvgjsG2266"><text id="SvgjsText2267" font-family="微软雅黑" text-anchor="middle" font-size="25px" width="40px" fill="#323232" font-weight="400" align="middle" lineHeight="125%" anchor="middle" family="微软雅黑" size="25px" weight="400" font-style="" opacity="1" y="7.875" transform="rotate(0)"><tspan id="SvgjsTspan2268" dy="31" x="30"><tspan id="SvgjsTspan2269" style="text-decoration:;">3</tspan></tspan></text></g></g><g id="SvgjsG2270" transform="translate(205,415)"><path id="SvgjsPath2271" d="M 0 4Q 0 0 4 0L 56 0Q 60 0 60 4L 60 56Q 60 60 56 60L 4 60Q 0 60 0 56Z" stroke="rgba(50,50,50,1)" stroke-width="2" fill-opacity="1" fill="#ffb74d"></path><g id="SvgjsG2272"><text id="SvgjsText2273" font-family="微软雅黑" text-anchor="middle" font-size="25px" width="40px" fill="#323232" font-weight="400" align="middle" lineHeight="125%" anchor="middle" family="微软雅黑" size="25px" weight="400" font-style="" opacity="1" y="7.875" transform="rotate(0)"><tspan id="SvgjsTspan2274" dy="31" x="30"><tspan id="SvgjsTspan2275" style="text-decoration:;">4</tspan></tspan></text></g></g><g id="SvgjsG2276" transform="translate(295,415)"><path id="SvgjsPath2277" d="M 0 4Q 0 0 4 0L 56 0Q 60 0 60 4L 60 56Q 60 60 56 60L 4 60Q 0 60 0 56Z" stroke="rgba(50,50,50,1)" stroke-width="2" fill-opacity="1" fill="#4caf50"></path><g id="SvgjsG2278"><text id="SvgjsText2279" font-family="微软雅黑" text-anchor="middle" font-size="25px" width="40px" fill="#323232" font-weight="400" align="middle" lineHeight="125%" anchor="middle" family="微软雅黑" size="25px" weight="400" font-style="" opacity="1" y="7.875" transform="rotate(0)"><tspan id="SvgjsTspan2280" dy="31" x="30"><tspan id="SvgjsTspan2281" style="text-decoration:;">5</tspan></tspan></text></g></g><g id="SvgjsG2282" transform="translate(385,415)"><path id="SvgjsPath2283" d="M 0 4Q 0 0 4 0L 56 0Q 60 0 60 4L 60 56Q 60 60 56 60L 4 60Q 0 60 0 56Z" stroke="rgba(50,50,50,1)" stroke-width="2" fill-opacity="1" fill="#ffb74d"></path><g id="SvgjsG2284"><text id="SvgjsText2285" font-family="微软雅黑" text-anchor="middle" font-size="25px" width="40px" fill="#323232" font-weight="400" align="middle" lineHeight="125%" anchor="middle" family="微软雅黑" size="25px" weight="400" font-style="" opacity="1" y="7.875" transform="rotate(0)"><tspan id="SvgjsTspan2286" dy="31" x="30"><tspan id="SvgjsTspan2287" style="text-decoration:;">6</tspan></tspan></text></g></g><g id="SvgjsG2288" transform="translate(475,415)"><path id="SvgjsPath2289" d="M 0 4Q 0 0 4 0L 56 0Q 60 0 60 4L 60 56Q 60 60 56 60L 4 60Q 0 60 0 56Z" stroke="rgba(50,50,50,1)" stroke-width="2" fill-opacity="1" fill="#4caf50"></path><g id="SvgjsG2290"><text id="SvgjsText2291" font-family="微软雅黑" text-anchor="middle" font-size="25px" width="40px" fill="#323232" font-weight="400" align="middle" lineHeight="125%" anchor="middle" family="微软雅黑" size="25px" weight="400" font-style="" opacity="1" y="7.875" transform="rotate(0)"><tspan id="SvgjsTspan2292" dy="31" x="30"><tspan id="SvgjsTspan2293" style="text-decoration:;">7</tspan></tspan></text></g></g><g id="SvgjsG2294" transform="translate(565,415)"><path id="SvgjsPath2295" d="M 0 4Q 0 0 4 0L 56 0Q 60 0 60 4L 60 56Q 60 60 56 60L 4 60Q 0 60 0 56Z" stroke="rgba(50,50,50,1)" stroke-width="2" fill-opacity="1" fill="#ffb74d"></path><g id="SvgjsG2296"><text id="SvgjsText2297" font-family="微软雅黑" text-anchor="middle" font-size="25px" width="40px" fill="#323232" font-weight="400" align="middle" lineHeight="125%" anchor="middle" family="微软雅黑" size="25px" weight="400" font-style="" opacity="1" y="7.875" transform="rotate(0)"><tspan id="SvgjsTspan2298" dy="31" x="30"><tspan id="SvgjsTspan2299" style="text-decoration:;">8</tspan></tspan></text></g></g><g id="SvgjsG2300" transform="translate(655,415)"><path id="SvgjsPath2301" d="M 0 4Q 0 0 4 0L 56 0Q 60 0 60 4L 60 56Q 60 60 56 60L 4 60Q 0 60 0 56Z" stroke="rgba(50,50,50,1)" stroke-width="2" fill-opacity="1" fill="#ffb74d"></path><g id="SvgjsG2302"><text id="SvgjsText2303" font-family="微软雅黑" text-anchor="middle" font-size="25px" width="40px" fill="#323232" font-weight="400" align="middle" lineHeight="125%" anchor="middle" family="微软雅黑" size="25px" weight="400" font-style="" opacity="1" y="7.875" transform="rotate(0)"><tspan id="SvgjsTspan2304" dy="31" x="30"><tspan id="SvgjsTspan2305" style="text-decoration:;">9</tspan></tspan></text></g></g><g id="SvgjsG2306" transform="translate(745,415)"><path id="SvgjsPath2307" d="M 0 4Q 0 0 4 0L 56 0Q 60 0 60 4L 60 56Q 60 60 56 60L 4 60Q 0 60 0 56Z" stroke="rgba(50,50,50,1)" stroke-width="2" fill-opacity="1" fill="#ffb74d"></path><g id="SvgjsG2308"><text id="SvgjsText2309" font-family="微软雅黑" text-anchor="middle" font-size="25px" width="40px" fill="#323232" font-weight="400" align="middle" lineHeight="125%" anchor="middle" family="微软雅黑" size="25px" weight="400" font-style="" opacity="1" y="7.875" transform="rotate(0)"><tspan id="SvgjsTspan2310" dy="31" x="30"><tspan id="SvgjsTspan2311" style="text-decoration:;">10</tspan></tspan></text></g></g><g id="SvgjsG2312"><path id="SvgjsPath2313" d="M145 174L145 145L415 145L415 171.39999999999998" stroke="#323232" stroke-width="2" fill="none" marker-end="url(#SvgjsMarker2314)"></path></g><g id="SvgjsG2316"><path id="SvgjsPath2317" d="M145 174L145 145L685 145L685 171.39999999999998" stroke="#323232" stroke-width="2" fill="none" marker-end="url(#SvgjsMarker2318)"></path></g><g id="SvgjsG2320"><path id="SvgjsPath2321" d="M325 294L325 265L775 265L775 291.4" stroke="#323232" stroke-width="2" fill="none" marker-end="url(#SvgjsMarker2322)"></path></g></svg>