<svg id="SvgjsSvg1436" width="712" height="477" xmlns="http://www.w3.org/2000/svg" version="1.1" xmlns:xlink="http://www.w3.org/1999/xlink" xmlns:svgjs="http://svgjs.com/svgjs"><defs id="SvgjsDefs1437"></defs><g id="SvgjsG1438" transform="translate(334,25)"><path id="SvgjsPath1439" d="M 0 30C 0 -10 60 -10 60 30C 60 70 0 70 0 30Z" stroke="rgba(50,50,50,1)" stroke-width="2" fill-opacity="1" fill="#81c784"></path><g id="SvgjsG1440"><text id="SvgjsText1441" font-family="微软雅黑" text-anchor="middle" font-size="13px" width="40px" fill="#323232" font-weight="400" align="middle" lineHeight="125%" anchor="middle" family="微软雅黑" size="13px" weight="400" font-style="" opacity="1" y="19.375" transform="rotate(0)"></text></g></g><g id="SvgjsG1442" transform="translate(170,157)"><path id="SvgjsPath1443" d="M 0 30C 0 -10 60 -10 60 30C 60 70 0 70 0 30Z" stroke="rgba(50,50,50,1)" stroke-width="2" fill-opacity="1" fill="#81c784"></path><g id="SvgjsG1444"><text id="SvgjsText1445" font-family="微软雅黑" text-anchor="middle" font-size="13px" width="40px" fill="#323232" font-weight="400" align="middle" lineHeight="125%" anchor="middle" family="微软雅黑" size="13px" weight="400" font-style="" opacity="1" y="19.375" transform="rotate(0)"></text></g></g><g id="SvgjsG1446" transform="translate(487,157)"><path id="SvgjsPath1447" d="M 0 30C 0 -10 60 -10 60 30C 60 70 0 70 0 30Z" stroke="rgba(50,50,50,1)" stroke-width="2" fill-opacity="1" fill="#81c784"></path><g id="SvgjsG1448"><text id="SvgjsText1449" font-family="微软雅黑" text-anchor="middle" font-size="13px" width="40px" fill="#323232" font-weight="400" align="middle" lineHeight="125%" anchor="middle" family="微软雅黑" size="13px" weight="400" font-style="" opacity="1" y="19.375" transform="rotate(0)"></text></g></g><g id="SvgjsG1450" transform="translate(25,279)"><path id="SvgjsPath1451" d="M 0 30C 0 -10 60 -10 60 30C 60 70 0 70 0 30Z" stroke="rgba(50,50,50,1)" stroke-width="2" fill-opacity="1" fill="#81c784"></path><g id="SvgjsG1452"><text id="SvgjsText1453" font-family="微软雅黑" text-anchor="middle" font-size="13px" width="40px" fill="#323232" font-weight="400" align="middle" lineHeight="125%" anchor="middle" family="微软雅黑" size="13px" weight="400" font-style="" opacity="1" y="19.375" transform="rotate(0)"></text></g></g><g id="SvgjsG1454" transform="translate(307,279)"><path id="SvgjsPath1455" d="M 0 30C 0 -10 60 -10 60 30C 60 70 0 70 0 30Z" stroke="rgba(50,50,50,1)" stroke-width="2" fill-opacity="1" fill="#81c784"></path><g id="SvgjsG1456"><text id="SvgjsText1457" font-family="微软雅黑" text-anchor="middle" font-size="13px" width="40px" fill="#323232" font-weight="400" align="middle" lineHeight="125%" anchor="middle" family="微软雅黑" size="13px" weight="400" font-style="" opacity="1" y="19.375" transform="rotate(0)"></text></g></g><g id="SvgjsG1458" transform="translate(627,279)"><path id="SvgjsPath1459" d="M 0 30C 0 -10 60 -10 60 30C 60 70 0 70 0 30Z" stroke="rgba(50,50,50,1)" stroke-width="2" fill-opacity="1" fill="#81c784"></path><g id="SvgjsG1460"><text id="SvgjsText1461" font-family="微软雅黑" text-anchor="middle" font-size="13px" width="40px" fill="#323232" font-weight="400" align="middle" lineHeight="125%" anchor="middle" family="微软雅黑" size="13px" weight="400" font-style="" opacity="1" y="19.375" transform="rotate(0)"></text></g></g><g id="SvgjsG1462" transform="translate(190,392)"><path id="SvgjsPath1463" d="M 0 30C 0 -10 60 -10 60 30C 60 70 0 70 0 30Z" stroke="rgba(50,50,50,1)" stroke-width="2" fill-opacity="1" fill="#81c784"></path><g id="SvgjsG1464"><text id="SvgjsText1465" font-family="微软雅黑" text-anchor="middle" font-size="13px" width="40px" fill="#323232" font-weight="400" align="middle" lineHeight="125%" anchor="middle" family="微软雅黑" size="13px" weight="400" font-style="" opacity="1" y="19.375" transform="rotate(0)"></text></g></g><g id="SvgjsG1466"><path id="SvgjsPath1467" d="M363.92520148021674 85.99719866698578C 370.244147873767 156.3709367833331 206.24414787376702 85.62906321666689 200.25354349491232 156.03267601281286" stroke="#323232" stroke-width="2" fill="none"></path></g><g id="SvgjsG1468"><path id="SvgjsPath1469" d="M199.90004735251978 217.99499219507578C 205.49775219768514 279.8395951671623 60.49775219768517 216.16040483283768 55.278197120181645 278.0394759959675" stroke="#323232" stroke-width="2" fill="none"></path></g><g id="SvgjsG1470"><path id="SvgjsPath1471" d="M200.28507046788536 217.9585065614484C 205.2424595840879 276.92158724123726 342.2424595840879 219.07841275876277 336.8923109871175 278.00581537101783" stroke="#323232" stroke-width="2" fill="none"></path></g><g id="SvgjsG1472"><path id="SvgjsPath1473" d="M364.2607231629564 85.96541360685356C 369.8950278582679 152.38047674623743 522.8950278582679 89.61952325376255 516.9171971786726 156.00343404995945" stroke="#323232" stroke-width="2" fill="none"></path></g><g id="SvgjsG1474"><path id="SvgjsPath1475" d="M517.2824688878438 217.9592764603597C 522.3379174844263 278.01267603481637 662.3379174844263 217.98732396518363 656.8952524712809 278.00550115373255" stroke="#323232" stroke-width="2" fill="none"></path></g><g id="SvgjsG1476"><path id="SvgjsPath1477" d="M336.8554427004015 339.9894964310864C 341.47787173380027 390.1823081223936 224.47787173380027 340.8176918776064 220.3199466166236 391.052564428306" stroke="#323232" stroke-width="2" fill="none"></path></g></svg>