<svg id="SvgjsSvg1260" width="649" height="543" xmlns="http://www.w3.org/2000/svg" version="1.1" xmlns:xlink="http://www.w3.org/1999/xlink" xmlns:svgjs="http://svgjs.com/svgjs"><defs id="SvgjsDefs1261"><marker id="SvgjsMarker1306" markerWidth="14" markerHeight="10" refX="10" refY="5" viewBox="0 0 14 10" orient="auto" markerUnits="userSpaceOnUse" stroke-dasharray="0,0"><path id="SvgjsPath1307" d="M0,0 L14,5 L0,10 L0,0" fill="#323232" stroke="#323232" stroke-width="1"></path></marker><marker id="SvgjsMarker1310" markerWidth="14" markerHeight="10" refX="10" refY="5" viewBox="0 0 14 10" orient="auto" markerUnits="userSpaceOnUse" stroke-dasharray="0,0"><path id="SvgjsPath1311" d="M0,0 L14,5 L0,10 L0,0" fill="#323232" stroke="#323232" stroke-width="1"></path></marker><marker id="SvgjsMarker1314" markerWidth="14" markerHeight="10" refX="10" refY="5" viewBox="0 0 14 10" orient="auto" markerUnits="userSpaceOnUse" stroke-dasharray="0,0"><path id="SvgjsPath1315" d="M0,0 L14,5 L0,10 L0,0" fill="#323232" stroke="#323232" stroke-width="1"></path></marker><marker id="SvgjsMarker1318" markerWidth="14" markerHeight="10" refX="10" refY="5" viewBox="0 0 14 10" orient="auto" markerUnits="userSpaceOnUse" stroke-dasharray="0,0"><path id="SvgjsPath1319" d="M0,0 L14,5 L0,10 L0,0" fill="#323232" stroke="#323232" stroke-width="1"></path></marker><marker id="SvgjsMarker1322" markerWidth="14" markerHeight="10" refX="10" refY="5" viewBox="0 0 14 10" orient="auto" markerUnits="userSpaceOnUse" stroke-dasharray="0,0"><path id="SvgjsPath1323" d="M0,0 L14,5 L0,10 L0,0" fill="#323232" stroke="#323232" stroke-width="1"></path></marker><marker id="SvgjsMarker1326" markerWidth="14" markerHeight="10" refX="10" refY="5" viewBox="0 0 14 10" orient="auto" markerUnits="userSpaceOnUse" stroke-dasharray="0,0"><path id="SvgjsPath1327" d="M0,0 L14,5 L0,10 L0,0" fill="#323232" stroke="#323232" stroke-width="1"></path></marker></defs><g id="SvgjsG1262" transform="translate(386,25)"><path id="SvgjsPath1263" d="M 0 30C 0 -10 60 -10 60 30C 60 70 0 70 0 30Z" stroke="rgba(50,50,50,1)" stroke-width="2" fill-opacity="1" fill="#4caf50"></path><g id="SvgjsG1264"><text id="SvgjsText1265" font-family="微软雅黑" text-anchor="middle" font-size="20px" width="40px" fill="#323232" font-weight="700" align="middle" lineHeight="125%" anchor="middle" family="微软雅黑" size="20px" weight="700" font-style="" opacity="1" y="12" transform="rotate(0)"><tspan id="SvgjsTspan1266" dy="25" x="30"><tspan id="SvgjsTspan1267" style="text-decoration:;">/</tspan></tspan></text></g></g><g id="SvgjsG1268" transform="translate(201,189)"><path id="SvgjsPath1269" d="M 0 30C 0 -10 60 -10 60 30C 60 70 0 70 0 30Z" stroke="rgba(50,50,50,1)" stroke-width="2" fill-opacity="1" fill="#c8e6c9"></path><g id="SvgjsG1270"><text id="SvgjsText1271" font-family="微软雅黑" text-anchor="middle" font-size="20px" width="40px" fill="#323232" font-weight="700" align="middle" lineHeight="125%" anchor="middle" family="微软雅黑" size="20px" weight="700" font-style="" opacity="1" y="12" transform="rotate(0)"><tspan id="SvgjsTspan1272" dy="25" x="30"><tspan id="SvgjsTspan1273" style="text-decoration:;">H</tspan></tspan></text></g></g><g id="SvgjsG1274" transform="translate(564,189)"><path id="SvgjsPath1275" d="M 0 30C 0 -10 60 -10 60 30C 60 70 0 70 0 30Z" stroke="rgba(50,50,50,1)" stroke-width="2" fill-opacity="1" fill="#c8e6c9"></path><g id="SvgjsG1276"><text id="SvgjsText1277" font-family="微软雅黑" text-anchor="middle" font-size="20px" width="40px" fill="#323232" font-weight="700" align="middle" lineHeight="125%" anchor="middle" family="微软雅黑" size="20px" weight="700" font-style="" opacity="1" y="12" transform="rotate(0)"><tspan id="SvgjsTspan1278" dy="25" x="30"><tspan id="SvgjsTspan1279" style="text-decoration:;">S</tspan></tspan></text></g></g><g id="SvgjsG1280" transform="translate(81,327)"><path id="SvgjsPath1281" d="M 0 30C 0 -10 60 -10 60 30C 60 70 0 70 0 30Z" stroke="rgba(50,50,50,1)" stroke-width="2" fill-opacity="1" fill="#c8e6c9"></path><g id="SvgjsG1282"><text id="SvgjsText1283" font-family="微软雅黑" text-anchor="middle" font-size="20px" width="40px" fill="#323232" font-weight="700" align="middle" lineHeight="125%" anchor="middle" family="微软雅黑" size="20px" weight="700" font-style="" opacity="1" y="12" transform="rotate(0)"><tspan id="SvgjsTspan1284" dy="25" x="30"><tspan id="SvgjsTspan1285" style="text-decoration:;">E</tspan></tspan></text></g></g><g id="SvgjsG1286" transform="translate(326,327)"><path id="SvgjsPath1287" d="M 0 30C 0 -10 60 -10 60 30C 60 70 0 70 0 30Z" stroke="rgba(50,50,50,1)" stroke-width="2" fill-opacity="1" fill="#ffe0b2"></path><g id="SvgjsG1288"><text id="SvgjsText1289" font-family="微软雅黑" text-anchor="middle" font-size="20px" width="40px" fill="#323232" font-weight="700" align="middle" lineHeight="125%" anchor="middle" family="微软雅黑" size="20px" weight="700" font-style="" opacity="1" y="12" transform="rotate(0)"><tspan id="SvgjsTspan1290" dy="25" x="30"><tspan id="SvgjsTspan1291" style="text-decoration:;">I</tspan></tspan></text></g></g><g id="SvgjsG1292" transform="translate(446,327)"><path id="SvgjsPath1293" d="M 0 30C 0 -10 60 -10 60 30C 60 70 0 70 0 30Z" stroke="rgba(50,50,50,1)" stroke-width="2" fill-opacity="1" fill="#c8e6c9"></path><g id="SvgjsG1294"><text id="SvgjsText1295" font-family="微软雅黑" text-anchor="middle" font-size="20px" width="40px" fill="#323232" font-weight="700" align="middle" lineHeight="125%" anchor="middle" family="微软雅黑" size="20px" weight="700" font-style="" opacity="1" y="12" transform="rotate(0)"><tspan id="SvgjsTspan1296" dy="25" x="30"><tspan id="SvgjsTspan1297" style="text-decoration:;">E</tspan></tspan></text></g></g><g id="SvgjsG1298" transform="translate(25,458)"><path id="SvgjsPath1299" d="M 0 30C 0 -10 60 -10 60 30C 60 70 0 70 0 30Z" stroke="rgba(50,50,50,1)" stroke-width="2" fill-opacity="1" fill="#ffe0b2"></path><g id="SvgjsG1300"><text id="SvgjsText1301" font-family="微软雅黑" text-anchor="middle" font-size="20px" width="40px" fill="#323232" font-weight="700" align="middle" lineHeight="125%" anchor="middle" family="微软雅黑" size="20px" weight="700" font-style="" opacity="1" y="12" transform="rotate(0)"><tspan id="SvgjsTspan1302" dy="25" x="30"><tspan id="SvgjsTspan1303" style="text-decoration:;">R</tspan></tspan></text></g></g><g id="SvgjsG1304"><path id="SvgjsPath1305" d="M415.9544958783738 85.99896415096592C 423.3987782590216 169.5684224771506 231.00000000000006 104.10853988768952 231.48642158859013 185.4330133111892" stroke="#323232" stroke-width="2" fill="none" marker-end="url(#SvgjsMarker1306)"></path></g><g id="SvgjsG1308"><path id="SvgjsPath1309" d="M416.21998248330624 85.97550382215468C 423.18704666455506 167.14831927825128 601.1870466645552 106.85168072174872 593.8453102941629 185.403324994539" stroke="#323232" stroke-width="2" fill="none" marker-end="url(#SvgjsMarker1310)"></path></g><g id="SvgjsG1312"><path id="SvgjsPath1313" d="M230.90126002240874 249.99511326833948C 235.98957302620522 306.0310806579725 115.98957302620522 269.9689193420275 111.98132091481301 323.53633008758766" stroke="#323232" stroke-width="2" fill="none" marker-end="url(#SvgjsMarker1314)"></path></g><g id="SvgjsG1316"><path id="SvgjsPath1317" d="M110.87297321504948 387.99189928717846C 114.15248478022244 423.0330659216013 58.15248478022244 421.9669340783987 56.03891135682758 454.55316620756753" stroke="#323232" stroke-width="2" fill="none" marker-end="url(#SvgjsMarker1318)"></path></g><g id="SvgjsG1320"><path id="SvgjsPath1321" d="M231.26338969931697 249.96468951808015C 236.13660191066413 307.71162849735447 356 268.0641026198803 355.36212217541845 323.4569629015621" stroke="#323232" stroke-width="2" fill="none" marker-end="url(#SvgjsMarker1322)"></path></g><g id="SvgjsG1324"><path id="SvgjsPath1325" d="M593.8922987601188 249.99418330449072C 598.9312592933793 305.36455164180285 476 270.4201449277218 476.7044000975977 323.4695863553254" stroke-dasharray="8,5" stroke="#323232" stroke-width="2" fill="none" marker-end="url(#SvgjsMarker1326)"></path></g></svg>