<svg id="SvgjsSvg1036" width="431.0124816894531" height="302" xmlns="http://www.w3.org/2000/svg" version="1.1" xmlns:xlink="http://www.w3.org/1999/xlink" xmlns:svgjs="http://svgjs.com/svgjs"><defs id="SvgjsDefs1037"><marker id="SvgjsMarker1064" markerWidth="14" markerHeight="10" refX="10" refY="5" viewBox="0 0 14 10" orient="auto" markerUnits="userSpaceOnUse" stroke-dasharray="0,0"><path id="SvgjsPath1065" d="M0,0 L14,5 L0,10 L0,0" fill="#323232" stroke="#323232" stroke-width="1"></path></marker></defs><g id="SvgjsG1038" transform="translate(25.012481689453125,133)"><path id="SvgjsPath1039" d="M 0 35C 0 -11.666666666666666 70 -11.666666666666666 70 35C 70 81.66666666666667 0 81.66666666666667 0 35Z" stroke="rgba(33,41,48,1)" stroke-width="2" fill-opacity="1" fill="#81c784"></path><g id="SvgjsG1040"><text id="SvgjsText1041" font-family="微软雅黑" text-anchor="middle" font-size="20px" width="50px" fill="#323232" font-weight="400" align="middle" lineHeight="125%" anchor="middle" family="微软雅黑" size="20px" weight="400" font-style="" opacity="1" y="17" transform="rotate(0)"><tspan id="SvgjsTspan1042" dy="25" x="35"><tspan id="SvgjsTspan1043" style="text-decoration:;">A</tspan></tspan></text></g></g><g id="SvgjsG1044" transform="translate(161.01248168945312,133)"><path id="SvgjsPath1045" d="M 0 35C 0 -11.666666666666666 70 -11.666666666666666 70 35C 70 81.66666666666667 0 81.66666666666667 0 35Z" stroke="rgba(33,41,48,1)" stroke-width="2" fill-opacity="1" fill="#81c784"></path><g id="SvgjsG1046"><text id="SvgjsText1047" font-family="微软雅黑" text-anchor="middle" font-size="20px" width="50px" fill="#323232" font-weight="400" align="middle" lineHeight="125%" anchor="middle" family="微软雅黑" size="20px" weight="400" font-style="" opacity="1" y="17" transform="rotate(0)"><tspan id="SvgjsTspan1048" dy="25" x="35"><tspan id="SvgjsTspan1049" style="text-decoration:;">B</tspan></tspan></text></g></g><g id="SvgjsG1050" transform="translate(336.0124816894531,25)"><path id="SvgjsPath1051" d="M 0 35C 0 -11.666666666666666 70 -11.666666666666666 70 35C 70 81.66666666666667 0 81.66666666666667 0 35Z" stroke="rgba(33,41,48,1)" stroke-width="2" fill-opacity="1" fill="#81c784"></path><g id="SvgjsG1052"><text id="SvgjsText1053" font-family="微软雅黑" text-anchor="middle" font-size="20px" width="50px" fill="#323232" font-weight="400" align="middle" lineHeight="125%" anchor="middle" family="微软雅黑" size="20px" weight="400" font-style="" opacity="1" y="17" transform="rotate(0)"><tspan id="SvgjsTspan1054" dy="25" x="35"><tspan id="SvgjsTspan1055" style="text-decoration:;">A</tspan></tspan></text></g></g><g id="SvgjsG1056" transform="translate(336.0124816894531,207)"><path id="SvgjsPath1057" d="M 0 35C 0 -11.666666666666666 70 -11.666666666666666 70 35C 70 81.66666666666667 0 81.66666666666667 0 35Z" stroke="rgba(33,41,48,1)" stroke-width="2" fill-opacity="1" fill="#81c784"></path><g id="SvgjsG1058"><text id="SvgjsText1059" font-family="微软雅黑" text-anchor="middle" font-size="20px" width="50px" fill="#323232" font-weight="400" align="middle" lineHeight="125%" anchor="middle" family="微软雅黑" size="20px" weight="400" font-style="" opacity="1" y="17" transform="rotate(0)"><tspan id="SvgjsTspan1060" dy="25" x="35"><tspan id="SvgjsTspan1061" style="text-decoration:;">B</tspan></tspan></text></g></g><g id="SvgjsG1062"><path id="SvgjsPath1063" d="M371.0124816894531 206L371.0124816894531 151L371.0124816894531 151L371.0124816894531 98.60000000000002" stroke="#323232" stroke-width="2" fill="none" marker-end="url(#SvgjsMarker1064)"></path></g></svg>