<svg id="SvgjsSvg1066" width="571.0124816894531" height="270" xmlns="http://www.w3.org/2000/svg" version="1.1" xmlns:xlink="http://www.w3.org/1999/xlink" xmlns:svgjs="http://svgjs.com/svgjs"><defs id="SvgjsDefs1067"><marker id="SvgjsMarker1100" markerWidth="14" markerHeight="10" refX="10" refY="5" viewBox="0 0 14 10" orient="auto" markerUnits="userSpaceOnUse" stroke-dasharray="0,0"><path id="SvgjsPath1101" d="M0,0 L14,5 L0,10 L0,0" fill="#323232" stroke="#323232" stroke-width="1"></path></marker><marker id="SvgjsMarker1104" markerWidth="14" markerHeight="10" refX="10" refY="5" viewBox="0 0 14 10" orient="auto" markerUnits="userSpaceOnUse" stroke-dasharray="0,0"><path id="SvgjsPath1105" d="M0,0 L14,5 L0,10 L0,0" fill="#323232" stroke="#323232" stroke-width="1"></path></marker><marker id="SvgjsMarker1114" markerWidth="14" markerHeight="10" refX="10" refY="5" viewBox="0 0 14 10" orient="auto" markerUnits="userSpaceOnUse" stroke-dasharray="0,0"><path id="SvgjsPath1115" d="M0,0 L14,5 L0,10 L0,0" fill="#323232" stroke="#323232" stroke-width="1"></path></marker></defs><g id="SvgjsG1068" transform="translate(25.012481689453125,175)"><path id="SvgjsPath1069" d="M 0 35C 0 -11.666666666666666 70 -11.666666666666666 70 35C 70 81.66666666666667 0 81.66666666666667 0 35Z" stroke="rgba(33,41,48,1)" stroke-width="2" fill-opacity="1" fill="#81c784"></path><g id="SvgjsG1070"><text id="SvgjsText1071" font-family="微软雅黑" text-anchor="middle" font-size="20px" width="50px" fill="#323232" font-weight="400" align="middle" lineHeight="125%" anchor="middle" family="微软雅黑" size="20px" weight="400" font-style="" opacity="1" y="17" transform="rotate(0)"><tspan id="SvgjsTspan1072" dy="25" x="35"><tspan id="SvgjsTspan1073" style="text-decoration:;">A</tspan></tspan></text></g></g><g id="SvgjsG1074" transform="translate(165.01248168945312,175)"><path id="SvgjsPath1075" d="M 0 35C 0 -11.666666666666666 70 -11.666666666666666 70 35C 70 81.66666666666667 0 81.66666666666667 0 35Z" stroke="rgba(33,41,48,1)" stroke-width="2" fill-opacity="1" fill="#81c784"></path><g id="SvgjsG1076"><text id="SvgjsText1077" font-family="微软雅黑" text-anchor="middle" font-size="20px" width="50px" fill="#323232" font-weight="400" align="middle" lineHeight="125%" anchor="middle" family="微软雅黑" size="20px" weight="400" font-style="" opacity="1" y="17" transform="rotate(0)"><tspan id="SvgjsTspan1078" dy="25" x="35"><tspan id="SvgjsTspan1079" style="text-decoration:;">B</tspan></tspan></text></g></g><g id="SvgjsG1080" transform="translate(336.0124816894531,171)"><path id="SvgjsPath1081" d="M 0 35C 0 -11.666666666666666 70 -11.666666666666666 70 35C 70 81.66666666666667 0 81.66666666666667 0 35Z" stroke="rgba(33,41,48,1)" stroke-width="2" fill-opacity="1" fill="#81c784"></path><g id="SvgjsG1082"><text id="SvgjsText1083" font-family="微软雅黑" text-anchor="middle" font-size="20px" width="50px" fill="#323232" font-weight="400" align="middle" lineHeight="125%" anchor="middle" family="微软雅黑" size="20px" weight="400" font-style="" opacity="1" y="17" transform="rotate(0)"><tspan id="SvgjsTspan1084" dy="25" x="35"><tspan id="SvgjsTspan1085" style="text-decoration:;">A</tspan></tspan></text></g></g><g id="SvgjsG1086" transform="translate(476.0124816894531,171)"><path id="SvgjsPath1087" d="M 0 35C 0 -11.666666666666666 70 -11.666666666666666 70 35C 70 81.66666666666667 0 81.66666666666667 0 35Z" stroke="rgba(33,41,48,1)" stroke-width="2" fill-opacity="1" fill="#81c784"></path><g id="SvgjsG1088"><text id="SvgjsText1089" font-family="微软雅黑" text-anchor="middle" font-size="20px" width="50px" fill="#323232" font-weight="400" align="middle" lineHeight="125%" anchor="middle" family="微软雅黑" size="20px" weight="400" font-style="" opacity="1" y="17" transform="rotate(0)"><tspan id="SvgjsTspan1090" dy="25" x="35"><tspan id="SvgjsTspan1091" style="text-decoration:;">B</tspan></tspan></text></g></g><g id="SvgjsG1092" transform="translate(95.01248168945312,25)"><path id="SvgjsPath1093" d="M 0 35C 0 -11.666666666666666 70 -11.666666666666666 70 35C 70 81.66666666666667 0 81.66666666666667 0 35Z" stroke="rgba(33,41,48,1)" stroke-width="2" fill-opacity="1" fill="#81c784"></path><g id="SvgjsG1094"><text id="SvgjsText1095" font-family="微软雅黑" text-anchor="middle" font-size="20px" width="50px" fill="#323232" font-weight="400" align="middle" lineHeight="125%" anchor="middle" family="微软雅黑" size="20px" weight="400" font-style="" opacity="1" y="17" transform="rotate(0)"><tspan id="SvgjsTspan1096" dy="25" x="35"><tspan id="SvgjsTspan1097" style="text-decoration:;">C</tspan></tspan></text></g></g><g id="SvgjsG1098"><path id="SvgjsPath1099" d="M60.28474344673077 174.03777677458703C 63.71839470475231 132.64122040564627 133.7183947047523 137.35877959435373 129.62821625039197 98.57943292608525" stroke="#323232" stroke-width="2" fill="none" marker-end="url(#SvgjsMarker1100)"></path></g><g id="SvgjsG1102"><path id="SvgjsPath1103" d="M199.90574128971394 174.00571307608743C 203.7183947047523 132.64122040564627 133.7183947047523 137.35877959435373 130.9926240156526 98.46400361148662" stroke="#323232" stroke-width="2" fill="none" marker-end="url(#SvgjsMarker1104)"></path></g><g id="SvgjsG1106" transform="translate(336.0124816894531,25)"><path id="SvgjsPath1107" d="M 0 35C 0 -11.666666666666666 70 -11.666666666666666 70 35C 70 81.66666666666667 0 81.66666666666667 0 35Z" stroke="rgba(33,41,48,1)" stroke-width="2" fill-opacity="1" fill="#81c784"></path><g id="SvgjsG1108"><text id="SvgjsText1109" font-family="微软雅黑" text-anchor="middle" font-size="20px" width="50px" fill="#323232" font-weight="400" align="middle" lineHeight="125%" anchor="middle" family="微软雅黑" size="20px" weight="400" font-style="" opacity="1" y="17" transform="rotate(0)"><tspan id="SvgjsTspan1110" dy="25" x="35"><tspan id="SvgjsTspan1111" style="text-decoration:;">C</tspan></tspan></text></g></g><g id="SvgjsG1112"><path id="SvgjsPath1113" d="M371.0124816894531 170L371.0124816894531 133L371.0124816894531 133L371.0124816894531 98.6" stroke="#323232" stroke-width="2" fill="none" marker-end="url(#SvgjsMarker1114)"></path></g></svg>