<svg xmlns="http://www.w3.org/2000/svg" xmlns:xlink="http://www.w3.org/1999/xlink" width="1210.978760" height="831.605469" viewBox="0 0 1210.98 831.605"><path d="M15 0L145.325 0C153.605 0 160.325 6.72 160.325 15L160.325 145.544C160.325 153.824 153.605 160.544 145.325 160.544L15 160.544C6.72 160.544 0 153.824 0 145.544L0 15C0 6.72 6.72 0 15 0Z" fill="#F8C4ED" fill-opacity="1.000000" transform="matrix(1 0 0 1 12.807 12.8071)"/><path d="M15 0L145.325 0C153.605 0 160.325 6.72 160.325 15L160.325 145.544C160.325 153.824 153.605 160.544 145.325 160.544L15 160.544C6.72 160.544 0 153.824 0 145.544L0 15C0 6.72 6.72 0 15 0Z" fill="none" stroke="#000000" stroke-opacity="1.000000" stroke-width="2" stroke-dasharray="0 0" transform="matrix(1 0 0 1 12.807 12.8071)"/><clipPath id="clip_5_102_0"><path d="M20.2168 56.2168L163.723 56.2168L163.723 199.941L20.2168 199.941L20.2168 56.2168Z"/></clipPath><g clip-path="url(#clip_5_102_0)"><path d="M78.37 98.0309C84.3232 98.0309 89.8896 93.6715 89.8896 85.9371C89.8896 78.2144 85.1435 74.7574 79.2841 74.7574C77.1747 74.7574 75.581 75.2848 74.0458 76.1402L74.913 65.9684L88.2138 65.9684L88.2138 62.2301L71.0692 62.2301L69.9677 78.6949L72.3232 80.1246C74.3388 78.7887 75.8271 78.0621 78.1825 78.0621C82.6005 78.0621 85.4716 81.0387 85.4716 86.0777C85.4716 91.2223 82.12 94.3863 77.9833 94.3863C73.9052 94.3863 71.3622 92.5113 69.3466 90.4957L67.1903 93.3785C69.5341 95.734 72.8974 98.0309 78.37 98.0309Z" fill="#19191A" fill-opacity="1.000000" transform="matrix(1 0 0 1 12.807 12.8071)"/></g><path d="M15 0L145.325 0C153.605 0 160.325 6.72 160.325 15L160.325 145.544C160.325 153.824 153.605 160.544 145.325 160.544L15 160.544C6.72 160.544 0 153.824 0 145.544L0 15C0 6.72 6.72 0 15 0Z" fill="#C4D9FD" fill-opacity="1.000000" transform="matrix(1 0 0 1 12.807 262.43)"/><path d="M15 0L145.325 0C153.605 0 160.325 6.72 160.325 15L160.325 145.544C160.325 153.824 153.605 160.544 145.325 160.544L15 160.544C6.72 160.544 0 153.824 0 145.544L0 15C0 6.72 6.72 0 15 0Z" fill="none" stroke="#000000" stroke-opacity="1.000000" stroke-width="2" stroke-dasharray="0 0" transform="matrix(1 0 0 1 12.807 262.43)"/><clipPath id="clip_5_118_0"><path d="M20.2168 305.84L163.723 305.84L163.723 449.564L20.2168 449.564L20.2168 305.84Z"/></clipPath><g clip-path="url(#clip_5_118_0)"><path d="M70.0614 97.4098L89.3622 97.4098L89.3622 93.7652L82.3075 93.7652L82.3075 62.2301L78.9442 62.2301C77.0224 63.3316 74.7724 64.1402 71.6552 64.7262L71.6552 67.5035L77.8896 67.5035L77.8896 93.7652L70.0614 93.7652L70.0614 97.4098Z" fill="#19191A" fill-opacity="1.000000" transform="matrix(1 0 0 1 12.807 262.43)"/></g><path d="M15 0L145.325 0C153.605 0 160.325 6.72 160.325 15L160.325 145.544C160.325 153.824 153.605 160.544 145.325 160.544L15 160.544C6.72 160.544 0 153.824 0 145.544L0 15C0 6.72 6.72 0 15 0Z" fill="#F8C4ED" fill-opacity="1.000000" transform="matrix(1 0 0 1 217.815 12.8071)"/><path d="M15 0L145.325 0C153.605 0 160.325 6.72 160.325 15L160.325 145.544C160.325 153.824 153.605 160.544 145.325 160.544L15 160.544C6.72 160.544 0 153.824 0 145.544L0 15C0 6.72 6.72 0 15 0Z" fill="none" stroke="#000000" stroke-opacity="1.000000" stroke-width="2" stroke-dasharray="0 0" transform="matrix(1 0 0 1 217.815 12.8071)"/><clipPath id="clip_6_2_0"><path d="M225.225 56.2168L368.731 56.2168L368.731 199.941L225.225 199.941L225.225 56.2168Z"/></clipPath><g clip-path="url(#clip_6_2_0)"><path d="M80.2919 94.6207C75.8739 94.6207 73.2372 90.6363 72.7099 83.3473C75.0067 80.0777 77.7021 78.8355 79.9052 78.8355C84.1825 78.8355 86.245 81.859 86.245 86.6051C86.245 91.4098 83.6552 94.6207 80.2919 94.6207ZM89.7489 65.148C87.8271 63.0855 85.1903 61.5504 81.5341 61.5504C74.7255 61.5504 68.5263 66.8355 68.5263 80.6051C68.5263 92.2301 73.5185 98.0309 80.2919 98.0309C85.7646 98.0309 90.37 93.4254 90.37 86.6051C90.37 79.2691 86.5732 75.566 80.6317 75.566C77.8427 75.566 74.7724 77.2066 72.6161 79.8434C72.8036 68.898 76.8817 65.2066 81.6864 65.2066C83.8427 65.2066 85.9521 66.2144 87.3466 67.8902L89.7489 65.148Z" fill="#19191A" fill-opacity="1.000000" transform="matrix(1 0 0 1 217.815 12.8071)"/></g><path d="M15 0L145.325 0C153.605 0 160.325 6.72 160.325 15L160.325 145.544C160.325 153.824 153.605 160.544 145.325 160.544L15 160.544C6.72 160.544 0 153.824 0 145.544L0 15C0 6.72 6.72 0 15 0Z" fill="#F8C4ED" fill-opacity="1.000000" transform="matrix(1 0 0 1 422.823 12.8071)"/><path d="M15 0L145.325 0C153.605 0 160.325 6.72 160.325 15L160.325 145.544C160.325 153.824 153.605 160.544 145.325 160.544L15 160.544C6.72 160.544 0 153.824 0 145.544L0 15C0 6.72 6.72 0 15 0Z" fill="none" stroke="#000000" stroke-opacity="1.000000" stroke-width="2" stroke-dasharray="0 0" transform="matrix(1 0 0 1 422.823 12.8071)"/><clipPath id="clip_6_3_0"><path d="M430.233 56.2168L573.738 56.2168L573.738 199.941L430.233 199.941L430.233 56.2168Z"/></clipPath><g clip-path="url(#clip_6_3_0)"><path d="M75.3466 97.4098L79.9052 97.4098C80.4325 83.6285 81.9677 75.4723 90.2294 64.8668L90.2294 62.2301L68.1982 62.2301L68.1982 65.9684L85.2372 65.9684C78.37 75.566 75.9208 84.0621 75.3466 97.4098Z" fill="#19191A" fill-opacity="1.000000" transform="matrix(1 0 0 1 422.823 12.8071)"/></g><path d="M15 0L145.325 0C153.605 0 160.325 6.72 160.325 15L160.325 145.544C160.325 153.824 153.605 160.544 145.325 160.544L15 160.544C6.72 160.544 0 153.824 0 145.544L0 15C0 6.72 6.72 0 15 0Z" fill="#F8C4ED" fill-opacity="1.000000" transform="matrix(1 0 0 1 627.831 12.8071)"/><path d="M15 0L145.325 0C153.605 0 160.325 6.72 160.325 15L160.325 145.544C160.325 153.824 153.605 160.544 145.325 160.544L15 160.544C6.72 160.544 0 153.824 0 145.544L0 15C0 6.72 6.72 0 15 0Z" fill="none" stroke="#000000" stroke-opacity="1.000000" stroke-width="2" stroke-dasharray="0 0" transform="matrix(1 0 0 1 627.831 12.8071)"/><clipPath id="clip_6_4_0"><path d="M635.24 56.2168L778.746 56.2168L778.746 199.941L635.24 199.941L635.24 56.2168Z"/></clipPath><g clip-path="url(#clip_6_4_0)"><path d="M79.2372 98.0309C85.8583 98.0309 90.2763 94.0465 90.2763 88.9137C90.2763 84.109 87.3935 81.4723 84.3232 79.7027L84.3232 79.4566C86.4325 77.8277 89.0224 74.6519 89.0224 70.9605C89.0224 65.5348 85.3778 61.7027 79.3778 61.7027C73.8583 61.7027 69.7333 65.2535 69.7333 70.6207C69.7333 74.3238 71.8896 76.9605 74.4794 78.7418L74.4794 78.9762C71.2685 80.7105 67.9989 83.9684 67.9989 88.6793C67.9989 94.0934 72.7567 98.0309 79.2372 98.0309ZM81.6396 78.3082C77.5028 76.6793 73.7177 74.8512 73.7177 70.6207C73.7177 67.2223 76.0614 64.9137 79.2841 64.9137C83.0692 64.9137 85.2841 67.7496 85.2841 71.2066C85.2841 73.7965 84.0302 76.1988 81.6396 78.3082ZM79.331 94.773C75.1122 94.773 71.9833 92.0309 71.9833 88.2926C71.9833 84.9293 73.9521 82.1402 76.788 80.3238C81.7802 82.3394 86.1044 84.109 86.1044 88.8199C86.1044 92.3238 83.3622 94.773 79.331 94.773Z" fill="#19191A" fill-opacity="1.000000" transform="matrix(1 0 0 1 627.831 12.8071)"/></g><path d="M15 0L145.325 0C153.605 0 160.325 6.72 160.325 15L160.325 145.544C160.325 153.824 153.605 160.544 145.325 160.544L15 160.544C6.72 160.544 0 153.824 0 145.544L0 15C0 6.72 6.72 0 15 0Z" fill="#F8C4ED" fill-opacity="1.000000" transform="matrix(1 0 0 1 832.838 12.8071)"/><path d="M15 0L145.325 0C153.605 0 160.325 6.72 160.325 15L160.325 145.544C160.325 153.824 153.605 160.544 145.325 160.544L15 160.544C6.72 160.544 0 153.824 0 145.544L0 15C0 6.72 6.72 0 15 0Z" fill="none" stroke="#000000" stroke-opacity="1.000000" stroke-width="2" stroke-dasharray="0 0" transform="matrix(1 0 0 1 832.838 12.8071)"/><clipPath id="clip_6_5_0"><path d="M840.248 56.2168L983.754 56.2168L983.754 199.941L840.248 199.941L840.248 56.2168Z"/></clipPath><g clip-path="url(#clip_6_5_0)"><path d="M78.37 80.8043C74.1982 80.8043 72.0771 77.734 72.0771 72.9762C72.0771 68.1832 74.6786 65.0074 78.0302 65.0074C82.5419 65.0074 85.2372 68.8512 85.7177 76.0934C83.3622 79.4566 80.7255 80.8043 78.37 80.8043ZM68.6317 94.4332C70.6005 96.4957 73.2841 98.0309 77.0692 98.0309C83.7021 98.0309 89.8427 92.5582 89.8427 78.3082C89.8427 67.1168 84.8036 61.5504 78.0302 61.5504C72.5575 61.5504 67.9521 66.1676 67.9521 72.9762C67.9521 80.2769 71.7958 84.0621 77.6552 84.0621C80.6317 84.0621 83.6552 82.3394 85.7646 79.7027C85.4247 90.6363 81.4872 94.3863 76.9286 94.3863C74.6786 94.3863 72.5107 93.3785 71.0224 91.7027L68.6317 94.4332Z" fill="#19191A" fill-opacity="1.000000" transform="matrix(1 0 0 1 832.838 12.8071)"/></g><path d="M15 0L145.325 0C153.605 0 160.325 6.72 160.325 15L160.325 145.544C160.325 153.824 153.605 160.544 145.325 160.544L15 160.544C6.72 160.544 0 153.824 0 145.544L0 15C0 6.72 6.72 0 15 0Z" fill="#C4D9FD" fill-opacity="1.000000" transform="matrix(1 0 0 1 217.815 262.43)"/><path d="M15 0L145.325 0C153.605 0 160.325 6.72 160.325 15L160.325 145.544C160.325 153.824 153.605 160.544 145.325 160.544L15 160.544C6.72 160.544 0 153.824 0 145.544L0 15C0 6.72 6.72 0 15 0Z" fill="none" stroke="#000000" stroke-opacity="1.000000" stroke-width="2" stroke-dasharray="0 0" transform="matrix(1 0 0 1 217.815 262.43)"/><clipPath id="clip_6_7_0"><path d="M225.225 305.84L368.731 305.84L368.731 449.564L225.225 449.564L225.225 305.84Z"/></clipPath><g clip-path="url(#clip_6_7_0)"><path d="M67.9521 97.4098L90.0771 97.4098L90.0771 93.6129L80.3388 93.6129C78.5575 93.6129 76.4013 93.8121 74.5732 93.9527C82.8349 86.1246 88.3544 78.9762 88.3544 71.9684C88.3544 65.6871 84.4169 61.5504 78.1357 61.5504C73.6708 61.5504 70.6474 63.6129 67.7646 66.7418L70.3075 69.2379C72.2294 66.9293 74.7255 65.148 77.6083 65.148C81.9677 65.148 84.0771 68.0777 84.0771 72.109C84.0771 78.1676 78.9911 85.1754 67.9521 94.8199L67.9521 97.4098Z" fill="#19191A" fill-opacity="1.000000" transform="matrix(1 0 0 1 217.815 262.43)"/></g><path d="M15 0L145.325 0C153.605 0 160.325 6.72 160.325 15L160.325 145.544C160.325 153.824 153.605 160.544 145.325 160.544L15 160.544C6.72 160.544 0 153.824 0 145.544L0 15C0 6.72 6.72 0 15 0Z" fill="#C4D9FD" fill-opacity="1.000000" transform="matrix(1 0 0 1 422.823 261.096)"/><path d="M15 0L145.325 0C153.605 0 160.325 6.72 160.325 15L160.325 145.544C160.325 153.824 153.605 160.544 145.325 160.544L15 160.544C6.72 160.544 0 153.824 0 145.544L0 15C0 6.72 6.72 0 15 0Z" fill="none" stroke="#000000" stroke-opacity="1.000000" stroke-width="2" stroke-dasharray="0 0" transform="matrix(1 0 0 1 422.823 261.096)"/><clipPath id="clip_6_8_0"><path d="M430.233 304.506L573.738 304.506L573.738 448.231L430.233 448.231L430.233 304.506Z"/></clipPath><g clip-path="url(#clip_6_8_0)"><path d="M78.5107 98.0309C84.7567 98.0309 89.7958 94.2926 89.7958 87.9996C89.7958 83.2066 86.4794 80.0309 82.3075 79.0699L82.3075 78.8824C86.0458 77.4879 88.6005 74.6519 88.6005 70.3863C88.6005 64.7262 84.2763 61.5504 78.37 61.5504C74.2919 61.5504 71.1747 63.3316 68.5263 65.7809L70.8817 68.5582C72.8505 66.5894 75.3466 65.148 78.1825 65.0543C81.8271 65.148 84.1357 67.316 84.1357 70.7262C84.1357 74.5113 81.6396 77.441 74.3857 77.441L74.3857 80.8043C82.495 80.8043 85.331 83.6285 85.331 87.859C85.331 91.8902 82.3544 94.3863 78.1825 94.3863C74.1982 94.3863 71.5028 92.5113 69.4403 90.3551L67.2372 93.2379C69.5341 95.734 72.9911 98.0309 78.5107 98.0309Z" fill="#19191A" fill-opacity="1.000000" transform="matrix(1 0 0 1 422.823 261.096)"/></g><path d="M15 0L145.325 0C153.605 0 160.325 6.72 160.325 15L160.325 145.544C160.325 153.824 153.605 160.544 145.325 160.544L15 160.544C6.72 160.544 0 153.824 0 145.544L0 15C0 6.72 6.72 0 15 0Z" fill="#C4D9FD" fill-opacity="1.000000" transform="matrix(1 0 0 1 627.831 262.43)"/><path d="M15 0L145.325 0C153.605 0 160.325 6.72 160.325 15L160.325 145.544C160.325 153.824 153.605 160.544 145.325 160.544L15 160.544C6.72 160.544 0 153.824 0 145.544L0 15C0 6.72 6.72 0 15 0Z" fill="none" stroke="#000000" stroke-opacity="1.000000" stroke-width="2" stroke-dasharray="0 0" transform="matrix(1 0 0 1 627.831 262.43)"/><clipPath id="clip_6_9_0"><path d="M635.24 305.84L778.746 305.84L778.746 449.564L635.24 449.564L635.24 305.84Z"/></clipPath><g clip-path="url(#clip_6_9_0)"><path d="M71.3622 84.2144L79.3778 72.2144C80.3857 70.4801 81.3466 68.7574 82.2138 67.023L82.4013 67.023C82.3075 68.8512 82.12 71.6871 82.12 73.4098L82.12 84.2144L71.3622 84.2144ZM90.9442 84.2144L86.2919 84.2144L86.2919 62.2301L81.4403 62.2301L66.8036 84.8355L66.8036 87.7184L82.12 87.7184L82.12 97.4098L86.2919 97.4098L86.2919 87.7184L90.9442 87.7184L90.9442 84.2144Z" fill="#19191A" fill-opacity="1.000000" transform="matrix(1 0 0 1 627.831 262.43)"/></g><path d="M15 0L145.325 0C153.605 0 160.325 6.72 160.325 15L160.325 145.544C160.325 153.824 153.605 160.544 145.325 160.544L15 160.544C6.72 160.544 0 153.824 0 145.544L0 15C0 6.72 6.72 0 15 0Z" fill="#C4D9FD" fill-opacity="1.000000" transform="matrix(1 0 0 1 832.838 262.43)"/><path d="M15 0L145.325 0C153.605 0 160.325 6.72 160.325 15L160.325 145.544C160.325 153.824 153.605 160.544 145.325 160.544L15 160.544C6.72 160.544 0 153.824 0 145.544L0 15C0 6.72 6.72 0 15 0Z" fill="none" stroke="#000000" stroke-opacity="1.000000" stroke-width="2" stroke-dasharray="0 0" transform="matrix(1 0 0 1 832.838 262.43)"/><clipPath id="clip_6_10_0"><path d="M840.248 305.84L983.754 305.84L983.754 449.564L840.248 449.564L840.248 305.84Z"/></clipPath><g clip-path="url(#clip_6_10_0)"><path d="M79.1903 98.0309C85.8583 98.0309 90.1357 91.9371 90.1357 79.7027C90.1357 67.5035 85.8583 61.5504 79.1903 61.5504C72.4638 61.5504 68.1982 67.4566 68.1982 79.7027C68.1982 91.9371 72.4638 98.0309 79.1903 98.0309ZM79.1903 94.5269C75.1591 94.5269 72.4638 90.0621 72.4638 79.7027C72.4638 69.4254 75.1591 65.1012 79.1903 65.1012C83.1747 65.1012 85.8583 69.4254 85.8583 79.7027C85.8583 90.0621 83.1747 94.5269 79.1903 94.5269Z" fill="#19191A" fill-opacity="1.000000" transform="matrix(1 0 0 1 832.838 262.43)"/></g><path d="M15 0L145.325 0C153.605 0 160.325 6.72 160.325 15L160.325 145.544C160.325 153.824 153.605 160.544 145.325 160.544L15 160.544C6.72 160.544 0 153.824 0 145.544L0 15C0 6.72 6.72 0 15 0Z" fill="#D6D5FD" fill-opacity="1.000000" transform="matrix(1 0 0 1 12.807 512.052)"/><path d="M15 0L145.325 0C153.605 0 160.325 6.72 160.325 15L160.325 145.544C160.325 153.824 153.605 160.544 145.325 160.544L15 160.544C6.72 160.544 0 153.824 0 145.544L0 15C0 6.72 6.72 0 15 0Z" fill="none" stroke="#000000" stroke-opacity="1.000000" stroke-width="2" stroke-dasharray="0 0" transform="matrix(1 0 0 1 12.807 512.052)"/><clipPath id="clip_6_11_0"><path d="M20.2168 555.462L163.723 555.462L163.723 699.187L20.2168 699.187L20.2168 555.462Z"/></clipPath><g clip-path="url(#clip_6_11_0)"><path d="M80.2919 94.6207C75.8739 94.6207 73.2372 90.6363 72.7099 83.3473C75.0067 80.0777 77.7021 78.8355 79.9052 78.8355C84.1825 78.8355 86.245 81.859 86.245 86.6051C86.245 91.4098 83.6552 94.6207 80.2919 94.6207ZM89.7489 65.148C87.8271 63.0855 85.1903 61.5504 81.5341 61.5504C74.7255 61.5504 68.5263 66.8355 68.5263 80.6051C68.5263 92.2301 73.5185 98.0309 80.2919 98.0309C85.7646 98.0309 90.37 93.4254 90.37 86.6051C90.37 79.2691 86.5732 75.566 80.6317 75.566C77.8427 75.566 74.7724 77.2066 72.6161 79.8434C72.8036 68.898 76.8817 65.2066 81.6864 65.2066C83.8427 65.2066 85.9521 66.2144 87.3466 67.8902L89.7489 65.148Z" fill="#19191A" fill-opacity="1.000000" transform="matrix(1 0 0 1 12.807 512.052)"/></g><path d="M15 0L145.325 0C153.605 0 160.325 6.72 160.325 15L160.325 145.544C160.325 153.824 153.605 160.544 145.325 160.544L15 160.544C6.72 160.544 0 153.824 0 145.544L0 15C0 6.72 6.72 0 15 0Z" fill="#D6D5FD" fill-opacity="1.000000" transform="matrix(1 0 0 1 217.815 512.052)"/><path d="M15 0L145.325 0C153.605 0 160.325 6.72 160.325 15L160.325 145.544C160.325 153.824 153.605 160.544 145.325 160.544L15 160.544C6.72 160.544 0 153.824 0 145.544L0 15C0 6.72 6.72 0 15 0Z" fill="none" stroke="#000000" stroke-opacity="1.000000" stroke-width="2" stroke-dasharray="0 0" transform="matrix(1 0 0 1 217.815 512.052)"/><clipPath id="clip_6_12_0"><path d="M225.225 555.462L368.731 555.462L368.731 699.187L225.225 699.187L225.225 555.462Z"/></clipPath><g clip-path="url(#clip_6_12_0)"><path d="M79.2372 98.0309C85.8583 98.0309 90.2763 94.0465 90.2763 88.9137C90.2763 84.109 87.3935 81.4723 84.3232 79.7027L84.3232 79.4566C86.4325 77.8277 89.0224 74.6519 89.0224 70.9605C89.0224 65.5348 85.3778 61.7027 79.3778 61.7027C73.8583 61.7027 69.7333 65.2535 69.7333 70.6207C69.7333 74.3238 71.8896 76.9605 74.4794 78.7418L74.4794 78.9762C71.2685 80.7105 67.9989 83.9684 67.9989 88.6793C67.9989 94.0934 72.7567 98.0309 79.2372 98.0309ZM81.6396 78.3082C77.5028 76.6793 73.7177 74.8512 73.7177 70.6207C73.7177 67.2223 76.0614 64.9137 79.2841 64.9137C83.0692 64.9137 85.2841 67.7496 85.2841 71.2066C85.2841 73.7965 84.0302 76.1988 81.6396 78.3082ZM79.331 94.773C75.1122 94.773 71.9833 92.0309 71.9833 88.2926C71.9833 84.9293 73.9521 82.1402 76.788 80.3238C81.7802 82.3394 86.1044 84.109 86.1044 88.8199C86.1044 92.3238 83.3622 94.773 79.331 94.773Z" fill="#19191A" fill-opacity="1.000000" transform="matrix(1 0 0 1 217.815 512.052)"/></g><path d="M15 0L145.325 0C153.605 0 160.325 6.72 160.325 15L160.325 145.544C160.325 153.824 153.605 160.544 145.325 160.544L15 160.544C6.72 160.544 0 153.824 0 145.544L0 15C0 6.72 6.72 0 15 0Z" fill="#A29BF9" fill-opacity="1.000000" transform="matrix(1 0 0 1 422.823 512.052)"/><path d="M15 0L145.325 0C153.605 0 160.325 6.72 160.325 15L160.325 145.544C160.325 153.824 153.605 160.544 145.325 160.544L15 160.544C6.72 160.544 0 153.824 0 145.544L0 15C0 6.72 6.72 0 15 0Z" fill="none" stroke="#000000" stroke-opacity="1.000000" stroke-width="2" stroke-dasharray="0 0" transform="matrix(1 0 0 1 422.823 512.052)"/><clipPath id="clip_6_13_0"><path d="M430.233 555.462L573.738 555.462L573.738 699.187L430.233 699.187L430.233 555.462Z"/></clipPath><g clip-path="url(#clip_6_13_0)"><path d="M79.1903 98.0309C85.8583 98.0309 90.1357 91.9371 90.1357 79.7027C90.1357 67.5035 85.8583 61.5504 79.1903 61.5504C72.4638 61.5504 68.1982 67.4566 68.1982 79.7027C68.1982 91.9371 72.4638 98.0309 79.1903 98.0309ZM79.1903 94.5269C75.1591 94.5269 72.4638 90.0621 72.4638 79.7027C72.4638 69.4254 75.1591 65.1012 79.1903 65.1012C83.1747 65.1012 85.8583 69.4254 85.8583 79.7027C85.8583 90.0621 83.1747 94.5269 79.1903 94.5269Z" fill="#19191A" fill-opacity="1.000000" transform="matrix(1 0 0 1 422.823 512.052)"/></g><path d="M15 0L145.325 0C153.605 0 160.325 6.72 160.325 15L160.325 145.544C160.325 153.824 153.605 160.544 145.325 160.544L15 160.544C6.72 160.544 0 153.824 0 145.544L0 15C0 6.72 6.72 0 15 0Z" fill="#A29BF9" fill-opacity="1.000000" transform="matrix(1 0 0 1 627.831 512.052)"/><path d="M15 0L145.325 0C153.605 0 160.325 6.72 160.325 15L160.325 145.544C160.325 153.824 153.605 160.544 145.325 160.544L15 160.544C6.72 160.544 0 153.824 0 145.544L0 15C0 6.72 6.72 0 15 0Z" fill="none" stroke="#000000" stroke-opacity="1.000000" stroke-width="2" stroke-dasharray="0 0" transform="matrix(1 0 0 1 627.831 512.052)"/><clipPath id="clip_6_14_0"><path d="M635.24 555.462L778.746 555.462L778.746 699.187L635.24 699.187L635.24 555.462Z"/></clipPath><g clip-path="url(#clip_6_14_0)"><path d="M78.5107 98.0309C84.7567 98.0309 89.7958 94.2926 89.7958 87.9996C89.7958 83.2066 86.4794 80.0309 82.3075 79.0699L82.3075 78.8824C86.0458 77.4879 88.6005 74.6519 88.6005 70.3863C88.6005 64.7262 84.2763 61.5504 78.37 61.5504C74.2919 61.5504 71.1747 63.3316 68.5263 65.7809L70.8817 68.5582C72.8505 66.5894 75.3466 65.148 78.1825 65.0543C81.8271 65.148 84.1357 67.316 84.1357 70.7262C84.1357 74.5113 81.6396 77.441 74.3857 77.441L74.3857 80.8043C82.495 80.8043 85.331 83.6285 85.331 87.859C85.331 91.8902 82.3544 94.3863 78.1825 94.3863C74.1982 94.3863 71.5028 92.5113 69.4403 90.3551L67.2372 93.2379C69.5341 95.734 72.9911 98.0309 78.5107 98.0309Z" fill="#19191A" fill-opacity="1.000000" transform="matrix(1 0 0 1 627.831 512.052)"/></g><path d="M15 0L145.325 0C153.605 0 160.325 6.72 160.325 15L160.325 145.544C160.325 153.824 153.605 160.544 145.325 160.544L15 160.544C6.72 160.544 0 153.824 0 145.544L0 15C0 6.72 6.72 0 15 0Z" fill="#A29BF9" fill-opacity="1.000000" transform="matrix(1 0 0 1 832.838 512.052)"/><path d="M15 0L145.325 0C153.605 0 160.325 6.72 160.325 15L160.325 145.544C160.325 153.824 153.605 160.544 145.325 160.544L15 160.544C6.72 160.544 0 153.824 0 145.544L0 15C0 6.72 6.72 0 15 0Z" fill="none" stroke="#000000" stroke-opacity="1.000000" stroke-width="2" stroke-dasharray="0 0" transform="matrix(1 0 0 1 832.838 512.052)"/><clipPath id="clip_6_15_0"><path d="M840.248 555.462L983.754 555.462L983.754 699.187L840.248 699.187L840.248 555.462Z"/></clipPath><g clip-path="url(#clip_6_15_0)"><path d="M79.1903 98.0309C85.8583 98.0309 90.1357 91.9371 90.1357 79.7027C90.1357 67.5035 85.8583 61.5504 79.1903 61.5504C72.4638 61.5504 68.1982 67.4566 68.1982 79.7027C68.1982 91.9371 72.4638 98.0309 79.1903 98.0309ZM79.1903 94.5269C75.1591 94.5269 72.4638 90.0621 72.4638 79.7027C72.4638 69.4254 75.1591 65.1012 79.1903 65.1012C83.1747 65.1012 85.8583 69.4254 85.8583 79.7027C85.8583 90.0621 83.1747 94.5269 79.1903 94.5269Z" fill="#19191A" fill-opacity="1.000000" transform="matrix(1 0 0 1 832.838 512.052)"/></g><path d="M15 0L145.325 0C153.605 0 160.325 6.72 160.325 15L160.325 145.544C160.325 153.824 153.605 160.544 145.325 160.544L15 160.544C6.72 160.544 0 153.824 0 145.544L0 15C0 6.72 6.72 0 15 0Z" fill="#A29BF9" fill-opacity="1.000000" transform="matrix(1 0 0 1 1037.85 512.052)"/><path d="M15 0L145.325 0C153.605 0 160.325 6.72 160.325 15L160.325 145.544C160.325 153.824 153.605 160.544 145.325 160.544L15 160.544C6.72 160.544 0 153.824 0 145.544L0 15C0 6.72 6.72 0 15 0Z" fill="none" stroke="#000000" stroke-opacity="1.000000" stroke-width="2" stroke-dasharray="0 0" transform="matrix(1 0 0 1 1037.85 512.052)"/><clipPath id="clip_6_16_0"><path d="M1045.26 555.462L1188.76 555.462L1188.76 699.187L1045.26 699.187L1045.26 555.462Z"/></clipPath><g clip-path="url(#clip_6_16_0)"><path d="M70.0614 97.4098L89.3622 97.4098L89.3622 93.7652L82.3075 93.7652L82.3075 62.2301L78.9442 62.2301C77.0224 63.3316 74.7724 64.1402 71.6552 64.7262L71.6552 67.5035L77.8896 67.5035L77.8896 93.7652L70.0614 93.7652L70.0614 97.4098Z" fill="#19191A" fill-opacity="1.000000" transform="matrix(1 0 0 1 1037.85 512.052)"/></g><path d="M44.6824 0L34.2904 -6L34.2904 6L44.6824 0Z" transform="matrix(1 0 0 1 583.148 592.324)" fill="#19191A" fill-opacity="1.000000" stroke="none"/><path d="M0 0C17.6948 0 23.5647 0 38.6824 0" fill="none" stroke="#19191A" stroke-opacity="1.000000" stroke-width="2" stroke-linejoin="round" stroke-dasharray="0 0" transform="matrix(1 0 0 1 583.148 592.324)"/><path d="M44.6824 -3.05176e-05L34.2904 -6.00003L34.2904 5.99997L44.6824 -3.05176e-05Z" transform="matrix(1 0 0 1 788.156 592.324)" fill="#19191A" fill-opacity="1.000000" stroke="none"/><path d="M0 0C17.6949 0 23.5647 -2.4229e-05 38.6824 -2.95094e-05" fill="none" stroke="#19191A" stroke-opacity="1.000000" stroke-width="2" stroke-linejoin="round" stroke-dasharray="0 0" transform="matrix(1 0 0 1 788.156 592.324)"/><path d="M44.6824 6.10352e-05L34.2904 -5.99994L34.2904 6.00006L44.6824 6.10352e-05Z" transform="matrix(1 0 0 1 993.164 592.324)" fill="#19191A" fill-opacity="1.000000" stroke="none"/><path d="M0 0C17.6949 0 23.5647 4.8458e-05 38.6824 5.90189e-05" fill="none" stroke="#19191A" stroke-opacity="1.000000" stroke-width="2" stroke-linejoin="round" stroke-dasharray="0 0" transform="matrix(1 0 0 1 993.164 592.324)"/><path d="M0 89.0786L6 78.6866L-6 78.6866L0 89.0786Z" transform="matrix(1 0 0 1 92.9698 173.351)" fill="#19191A" fill-opacity="1.000000" stroke="none"/><path d="M0 0C0 37.5115 0 48.3667 0 83.0786" fill="none" stroke="#19191A" stroke-opacity="1.000000" stroke-width="2" stroke-linejoin="round" stroke-dasharray="0 0" transform="matrix(1 0 0 1 92.9698 173.351)"/><path d="M0 89.0786L6 78.6866L-6 78.6866L0 89.0786Z" transform="matrix(1 0 0 1 92.9698 422.974)" fill="#19191A" fill-opacity="1.000000" stroke="none"/><path d="M0 0C0 37.5115 0 48.3667 0 83.0787" fill="none" stroke="#19191A" stroke-opacity="1.000000" stroke-width="2" stroke-linejoin="round" stroke-dasharray="0 0" transform="matrix(1 0 0 1 92.9698 422.974)"/><path d="M0 89.0786L6 78.6866L-6 78.6866L0 89.0786Z" transform="matrix(1 0 0 1 297.978 173.351)" fill="#19191A" fill-opacity="1.000000" stroke="none"/><path d="M0 0C0 37.5115 0 48.3667 0 83.0786" fill="none" stroke="#19191A" stroke-opacity="1.000000" stroke-width="2" stroke-linejoin="round" stroke-dasharray="0 0" transform="matrix(1 0 0 1 297.978 173.351)"/><path d="M0 89.0786L6 78.6866L-6 78.6866L0 89.0786Z" transform="matrix(1 0 0 1 297.978 422.974)" fill="#19191A" fill-opacity="1.000000" stroke="none"/><path d="M0 0C0 37.5115 0 48.3667 0 83.0786" fill="none" stroke="#19191A" stroke-opacity="1.000000" stroke-width="2" stroke-linejoin="round" stroke-dasharray="0 0" transform="matrix(1 0 0 1 297.978 422.974)"/><path d="M-1.52588e-05 87.7453L5.99998 77.3533L-6.00002 77.3533L-1.52588e-05 87.7453Z" transform="matrix(1 0 0 1 502.985 173.351)" fill="#19191A" fill-opacity="1.000000" stroke="none"/><path d="M0 0C0 36.9177 -1.36743e-05 47.624 -1.51332e-05 81.7453" fill="none" stroke="#19191A" stroke-opacity="1.000000" stroke-width="2" stroke-linejoin="round" stroke-dasharray="0 0" transform="matrix(1 0 0 1 502.985 173.351)"/><path d="M1.52588e-05 90.412L6.00002 80.02L-5.99998 80.02L1.52588e-05 90.412Z" transform="matrix(1 0 0 1 502.985 421.641)" fill="#19191A" fill-opacity="1.000000" stroke="none"/><path d="M0 0C0 38.1053 1.37216e-05 49.1094 1.51406e-05 84.4119" fill="none" stroke="#19191A" stroke-opacity="1.000000" stroke-width="2" stroke-linejoin="round" stroke-dasharray="0 0" transform="matrix(1 0 0 1 502.985 421.641)"/><path d="M0 89.0786L6 78.6866L-6 78.6866L0 89.0786Z" transform="matrix(1 0 0 1 707.993 173.351)" fill="#19191A" fill-opacity="1.000000" stroke="none"/><path d="M0 0C0 37.5115 0 48.3667 0 83.0786" fill="none" stroke="#19191A" stroke-opacity="1.000000" stroke-width="2" stroke-linejoin="round" stroke-dasharray="0 0" transform="matrix(1 0 0 1 707.993 173.351)"/><path d="M0 89.0786L6 78.6866L-6 78.6866L0 89.0786Z" transform="matrix(1 0 0 1 707.993 422.974)" fill="#19191A" fill-opacity="1.000000" stroke="none"/><path d="M0 0C0 37.5115 0 48.3667 0 83.0787" fill="none" stroke="#19191A" stroke-opacity="1.000000" stroke-width="2" stroke-linejoin="round" stroke-dasharray="0 0" transform="matrix(1 0 0 1 707.993 422.974)"/><path d="M0 89.0786L6 78.6866L-6 78.6866L0 89.0786Z" transform="matrix(1 0 0 1 913.001 173.351)" fill="#19191A" fill-opacity="1.000000" stroke="none"/><path d="M0 0C0 37.5115 0 48.3667 0 83.0786" fill="none" stroke="#19191A" stroke-opacity="1.000000" stroke-width="2" stroke-linejoin="round" stroke-dasharray="0 0" transform="matrix(1 0 0 1 913.001 173.351)"/><path d="M0 89.0786L6 78.6866L-6 78.6866L0 89.0786Z" transform="matrix(1 0 0 1 913.001 422.974)" fill="#19191A" fill-opacity="1.000000" stroke="none"/><path d="M0 0C0 37.5115 0 48.3667 0 83.0786" fill="none" stroke="#19191A" stroke-opacity="1.000000" stroke-width="2" stroke-linejoin="round" stroke-dasharray="0 0" transform="matrix(1 0 0 1 913.001 422.974)"/><path d="M12.5273 37.3945C8.35547 37.3945 6.23438 34.3242 6.23438 29.5664C6.23438 24.7734 8.83594 21.5977 12.1875 21.5977C16.6992 21.5977 19.3945 25.4414 19.875 32.6836C17.5195 36.0469 14.8828 37.3945 12.5273 37.3945ZM2.78906 51.0234C4.75781 53.0859 7.44141 54.6211 11.2266 54.6211C17.8594 54.6211 24 49.1484 24 34.8984C24 23.707 18.9609 18.1406 12.1875 18.1406C6.71484 18.1406 2.10938 22.7578 2.10938 29.5664C2.10938 36.8672 5.95312 40.6523 11.8125 40.6523C14.7891 40.6523 17.8125 38.9297 19.9219 36.293C19.582 47.2266 15.6445 50.9766 11.0859 50.9766C8.83594 50.9766 6.66797 49.9688 5.17969 48.293L2.78906 51.0234ZM40.0346 54.6211C46.6557 54.6211 51.0737 50.6367 51.0737 45.5039C51.0737 40.6992 48.1908 38.0625 45.1205 36.293L45.1205 36.0469C47.2299 34.418 49.8197 31.2422 49.8197 27.5508C49.8197 22.125 46.1752 18.293 40.1752 18.293C34.6557 18.293 30.5307 21.8438 30.5307 27.2109C30.5307 30.9141 32.6869 33.5508 35.2768 35.332L35.2768 35.5664C32.0658 37.3008 28.7963 40.5586 28.7963 45.2695C28.7963 50.6836 33.5541 54.6211 40.0346 54.6211ZM42.4369 34.8984C38.3002 33.2695 34.5151 31.4414 34.5151 27.2109C34.5151 23.8125 36.8588 21.5039 40.0815 21.5039C43.8666 21.5039 46.0815 24.3398 46.0815 27.7969C46.0815 30.3867 44.8276 32.7891 42.4369 34.8984ZM40.1283 51.3633C35.9096 51.3633 32.7807 48.6211 32.7807 44.8828C32.7807 41.5195 34.7494 38.7305 37.5854 36.9141C42.5776 38.9297 46.9018 40.6992 46.9018 45.4102C46.9018 48.9141 44.1596 51.3633 40.1283 51.3633ZM62.784 54L67.3426 54C67.87 40.2188 69.4051 32.0625 77.6668 21.457L77.6668 18.8203L55.6356 18.8203L55.6356 22.5586L72.6747 22.5586C65.8075 32.1562 63.3582 40.6523 62.784 54ZM94.3694 51.2109C89.9514 51.2109 87.3147 47.2266 86.7874 39.9375C89.0842 36.668 91.7796 35.4258 93.9827 35.4258C98.26 35.4258 100.323 38.4492 100.323 43.1953C100.323 48 97.7327 51.2109 94.3694 51.2109ZM103.826 21.7383C101.905 19.6758 99.2678 18.1406 95.6116 18.1406C88.803 18.1406 82.6038 23.4258 82.6038 37.1953C82.6038 48.8203 87.596 54.6211 94.3694 54.6211C99.8421 54.6211 104.448 50.0156 104.448 43.1953C104.448 35.8594 100.651 32.1562 94.7092 32.1562C91.9202 32.1562 88.8499 33.7969 86.6936 36.4336C86.8811 25.4883 90.9592 21.7969 95.7639 21.7969C97.9202 21.7969 100.03 22.8047 101.424 24.4805L103.826 21.7383ZM119.088 54.6211C125.041 54.6211 130.607 50.2617 130.607 42.5273C130.607 34.8047 125.861 31.3477 120.002 31.3477C117.892 31.3477 116.299 31.875 114.763 32.7305L115.631 22.5586L128.931 22.5586L128.931 18.8203L111.787 18.8203L110.685 35.2852L113.041 36.7148C115.056 35.3789 116.545 34.6523 118.9 34.6523C123.318 34.6523 126.189 37.6289 126.189 42.668C126.189 47.8125 122.838 50.9766 118.701 50.9766C114.623 50.9766 112.08 49.1016 110.064 47.0859L107.908 49.9688C110.252 52.3242 113.615 54.6211 119.088 54.6211ZM155.519 48.4336L159.023 48.4336L159.023 37.9219L168.773 37.9219L168.773 34.6523L159.023 34.6523L159.023 24.1875L155.519 24.1875L155.519 34.6523L145.78 34.6523L145.78 37.9219L155.519 37.9219L155.519 48.4336ZM186.864 40.8047L194.88 28.8047C195.887 27.0703 196.848 25.3477 197.716 23.6133L197.903 23.6133C197.809 25.4414 197.622 28.2773 197.622 30L197.622 40.8047L186.864 40.8047ZM206.446 40.8047L201.794 40.8047L201.794 18.8203L196.942 18.8203L182.305 41.4258L182.305 44.3086L197.622 44.3086L197.622 54L201.794 54L201.794 44.3086L206.446 44.3086L206.446 40.8047ZM220.652 54.6211C226.899 54.6211 231.938 50.8828 231.938 44.5898C231.938 39.7969 228.621 36.6211 224.449 35.6602L224.449 35.4727C228.188 34.0781 230.742 31.2422 230.742 26.9766C230.742 21.3164 226.418 18.1406 220.512 18.1406C216.434 18.1406 213.317 19.9219 210.668 22.3711L213.024 25.1484C214.992 23.1797 217.488 21.7383 220.324 21.6445C223.969 21.7383 226.277 23.9062 226.277 27.3164C226.277 31.1016 223.781 34.0312 216.527 34.0312L216.527 37.3945C224.637 37.3945 227.473 40.2188 227.473 44.4492C227.473 48.4805 224.496 50.9766 220.324 50.9766C216.34 50.9766 213.645 49.1016 211.582 46.9453L209.379 49.8281C211.676 52.3242 215.133 54.6211 220.652 54.6211ZM236.734 54L258.859 54L258.859 50.2031L249.121 50.2031C247.339 50.2031 245.183 50.4023 243.355 50.543C251.617 42.7148 257.136 35.5664 257.136 28.5586C257.136 22.2773 253.199 18.1406 246.918 18.1406C242.453 18.1406 239.429 20.2031 236.546 23.332L239.089 25.8281C241.011 23.5195 243.507 21.7383 246.39 21.7383C250.75 21.7383 252.859 24.668 252.859 28.6992C252.859 34.7578 247.773 41.7656 236.734 51.4102L236.734 54ZM265.483 54L284.784 54L284.784 50.3555L277.729 50.3555L277.729 18.8203L274.366 18.8203C272.444 19.9219 270.194 20.7305 267.077 21.3164L267.077 24.0938L273.311 24.0938L273.311 50.3555L265.483 50.3555L265.483 54ZM300.485 32.2031L323.477 32.2031L323.477 28.9453L300.485 28.9453L300.485 32.2031ZM300.485 43.6758L323.477 43.6758L323.477 40.418L300.485 40.418L300.485 43.6758ZM340.268 54L359.568 54L359.568 50.3555L352.514 50.3555L352.514 18.8203L349.15 18.8203C347.228 19.9219 344.978 20.7305 341.861 21.3164L341.861 24.0938L348.096 24.0938L348.096 50.3555L340.268 50.3555L340.268 54ZM376.036 54.6211C382.704 54.6211 386.982 48.5273 386.982 36.293C386.982 24.0938 382.704 18.1406 376.036 18.1406C369.31 18.1406 365.044 24.0469 365.044 36.293C365.044 48.5273 369.31 54.6211 376.036 54.6211ZM376.036 51.1172C372.005 51.1172 369.31 46.6523 369.31 36.293C369.31 26.0156 372.005 21.6914 376.036 21.6914C380.021 21.6914 382.704 26.0156 382.704 36.293C382.704 46.6523 380.021 51.1172 376.036 51.1172ZM401.997 54.6211C408.243 54.6211 413.282 50.8828 413.282 44.5898C413.282 39.7969 409.966 36.6211 405.794 35.6602L405.794 35.4727C409.532 34.0781 412.087 31.2422 412.087 26.9766C412.087 21.3164 407.763 18.1406 401.856 18.1406C397.778 18.1406 394.661 19.9219 392.013 22.3711L394.368 25.1484C396.337 23.1797 398.833 21.7383 401.669 21.6445C405.313 21.7383 407.622 23.9062 407.622 27.3164C407.622 31.1016 405.126 34.0312 397.872 34.0312L397.872 37.3945C405.981 37.3945 408.817 40.2188 408.817 44.4492C408.817 48.4805 405.841 50.9766 401.669 50.9766C397.684 50.9766 394.989 49.1016 392.927 46.9453L390.723 49.8281C393.02 52.3242 396.477 54.6211 401.997 54.6211ZM429.317 54.6211C435.985 54.6211 440.262 48.5273 440.262 36.293C440.262 24.0938 435.985 18.1406 429.317 18.1406C422.59 18.1406 418.324 24.0469 418.324 36.293C418.324 48.5273 422.59 54.6211 429.317 54.6211ZM429.317 51.1172C425.285 51.1172 422.59 46.6523 422.59 36.293C422.59 26.0156 425.285 21.6914 429.317 21.6914C433.301 21.6914 435.985 26.0156 435.985 36.293C435.985 46.6523 433.301 51.1172 429.317 51.1172ZM456.004 54.6211C462.625 54.6211 467.043 50.6367 467.043 45.5039C467.043 40.6992 464.16 38.0625 461.09 36.293L461.09 36.0469C463.199 34.418 465.789 31.2422 465.789 27.5508C465.789 22.125 462.144 18.293 456.144 18.293C450.625 18.293 446.5 21.8438 446.5 27.2109C446.5 30.9141 448.656 33.5508 451.246 35.332L451.246 35.5664C448.035 37.3008 444.765 40.5586 444.765 45.2695C444.765 50.6836 449.523 54.6211 456.004 54.6211ZM458.406 34.8984C454.269 33.2695 450.484 31.4414 450.484 27.2109C450.484 23.8125 452.828 21.5039 456.05 21.5039C459.836 21.5039 462.05 24.3398 462.05 27.7969C462.05 30.3867 460.797 32.7891 458.406 34.8984ZM456.097 51.3633C451.879 51.3633 448.75 48.6211 448.75 44.8828C448.75 41.5195 450.718 38.7305 453.554 36.9141C458.547 38.9297 462.871 40.6992 462.871 45.4102C462.871 48.9141 460.129 51.3633 456.097 51.3633ZM483.698 51.2109C479.28 51.2109 476.644 47.2266 476.116 39.9375C478.413 36.668 481.109 35.4258 483.312 35.4258C487.589 35.4258 489.651 38.4492 489.651 43.1953C489.651 48 487.062 51.2109 483.698 51.2109ZM493.155 21.7383C491.234 19.6758 488.597 18.1406 484.941 18.1406C478.132 18.1406 471.933 23.4258 471.933 37.1953C471.933 48.8203 476.925 54.6211 483.698 54.6211C489.171 54.6211 493.776 50.0156 493.776 43.1953C493.776 35.8594 489.98 32.1562 484.038 32.1562C481.249 32.1562 478.179 33.7969 476.023 36.4336C476.21 25.4883 480.288 21.7969 485.093 21.7969C487.249 21.7969 489.359 22.8047 490.753 24.4805L493.155 21.7383Z" fill="#19191A" fill-opacity="1.000000" transform="matrix(1 0 0 1 289.867 752.535)"/></svg>