<svg xmlns="http://www.w3.org/2000/svg" xmlns:xlink="http://www.w3.org/1999/xlink" width="768.610779" height="489.883911" viewBox="0 0 768.611 489.884"><path d="M84 42C84 65.196 65.196 84 42 84C18.804 84 0 65.196 0 42C0 18.804 18.804 0 42 0C65.196 0 84 18.804 84 42" fill="#A3D16E" fill-opacity="1.000000" transform="matrix(1 0 0 1 189.331 12.3828)"/><path d="M84 42C84 65.196 65.196 84 42 84C18.804 84 0 65.196 0 42C0 18.804 18.804 0 42 0C65.196 0 84 18.804 84 42" fill="none" stroke="#000000" stroke-opacity="1.000000" stroke-width="2" stroke-dasharray="0 0" transform="matrix(1 0 0 1 189.331 12.3828)"/><clipPath id="clip_1_2_0"><path d="M201.331 26.3828L261.331 26.3828L261.331 86.3828L201.331 86.3828L201.331 26.3828Z"/></clipPath><g clip-path="url(#clip_1_2_0)"><path d="M32.3012 55L35.7905 55L39.6049 47.8721C40.2905 46.5801 40.976 45.209 41.7319 43.627L41.8725 43.627C42.7338 45.209 43.4546 46.5801 44.1401 47.8721L48.0337 55L51.6987 55L43.9995 41.5352L51.1977 28.6152L47.7085 28.6152L44.1753 35.3477C43.5337 36.5693 43.0239 37.6855 42.3032 39.1973L42.1626 39.1973C41.3012 37.6855 40.7563 36.5693 40.0708 35.3477L36.476 28.6152L32.8022 28.6152L40.0005 41.3594L32.3012 55Z" fill="#19191A" fill-opacity="1.000000" transform="matrix(1 0 0 1 189.331 12.3828)"/></g><path d="M84 42C84 65.196 65.196 84 42 84C18.804 84 0 65.196 0 42C0 18.804 18.804 0 42 0C65.196 0 84 18.804 84 42" fill="#A3D16E" fill-opacity="1.000000" transform="matrix(1 0 0 1 96.3314 203.288)"/><path d="M84 42C84 65.196 65.196 84 42 84C18.804 84 0 65.196 0 42C0 18.804 18.804 0 42 0C65.196 0 84 18.804 84 42" fill="none" stroke="#000000" stroke-opacity="1.000000" stroke-width="2" stroke-dasharray="0 0" transform="matrix(1 0 0 1 96.3314 203.288)"/><clipPath id="clip_1_3_0"><path d="M108.331 217.288L168.331 217.288L168.331 277.288L108.331 277.288L108.331 217.288Z"/></clipPath><g clip-path="url(#clip_1_3_0)"><path d="M44.0863 55.4658C47.5053 55.4658 50.098 54.1035 52.1898 51.6865L50.3529 49.6035C48.6566 51.4316 46.7494 52.5479 44.2357 52.5479C39.1908 52.5479 36.0267 48.373 36.0267 41.7197C36.0267 35.1279 39.3402 31.0234 44.3412 31.0234C46.6088 31.0234 48.3754 32.0693 49.7377 33.5459L51.5394 31.3838C50.0277 29.6963 47.5053 28.1055 44.306 28.1055C37.6088 28.1055 32.6078 33.291 32.6078 41.8252C32.6078 50.3945 37.5385 55.4658 44.0863 55.4658Z" fill="#19191A" fill-opacity="1.000000" transform="matrix(1 0 0 1 96.3314 203.288)"/></g><path d="M84 42C84 65.196 65.196 84 42 84C18.804 84 0 65.196 0 42C0 18.804 18.804 0 42 0C65.196 0 84 18.804 84 42" fill="#A3D16E" fill-opacity="1.000000" transform="matrix(1 0 0 1 268.954 203.288)"/><path d="M84 42C84 65.196 65.196 84 42 84C18.804 84 0 65.196 0 42C0 18.804 18.804 0 42 0C65.196 0 84 18.804 84 42" fill="none" stroke="#000000" stroke-opacity="1.000000" stroke-width="2" stroke-dasharray="0 0" transform="matrix(1 0 0 1 268.954 203.288)"/><clipPath id="clip_1_6_0"><path d="M280.954 217.288L340.954 217.288L340.954 277.288L280.954 277.288L280.954 217.288Z"/></clipPath><g clip-path="url(#clip_1_6_0)"><path d="M33.2375 55L40.0051 55C47.9592 55 52.3098 50.0693 52.3098 41.7197C52.3098 33.3262 47.9592 28.6152 39.8557 28.6152L33.2375 28.6152L33.2375 55ZM36.5861 52.2666L36.5861 31.3135L39.5656 31.3135C45.7971 31.3135 48.8557 35.0225 48.8557 41.7197C48.8557 48.373 45.7971 52.2666 39.5656 52.2666L36.5861 52.2666Z" fill="#19191A" fill-opacity="1.000000" transform="matrix(1 0 0 1 268.954 203.288)"/></g><path d="M93 -106.906L87 -96.5136L99 -96.5136L93 -106.906Z" transform="matrix(1 0 0 1 138.331 203.288)" fill="#19191A" fill-opacity="1.000000" stroke="none"/><path d="M0 0C0 -45.178 85.0869 -58.5256 92.4876 -100.935" fill="none" stroke="#19191A" stroke-opacity="1.000000" stroke-width="2" stroke-linejoin="round" stroke-dasharray="0 0" transform="matrix(1 0 0 1 138.331 203.288)"/><path d="M-79.6228 -106.906L-85.6228 -96.5136L-73.6228 -96.5136L-79.6228 -106.906Z" transform="matrix(1 0 0 1 310.954 203.288)" fill="#19191A" fill-opacity="1.000000" stroke="none"/><path d="M0 0C0 -42.3877 -72.4614 -60.756 -79.1322 -100.933" fill="none" stroke="#19191A" stroke-opacity="1.000000" stroke-width="2" stroke-linejoin="round" stroke-dasharray="0 0" transform="matrix(1 0 0 1 310.954 203.288)"/><path d="M84 42C84 65.196 65.196 84 42 84C18.804 84 0 65.196 0 42C0 18.804 18.804 0 42 0C65.196 0 84 18.804 84 42" fill="#A3D16E" fill-opacity="1.000000" transform="matrix(1 0 0 1 12.3314 393.553)"/><path d="M84 42C84 65.196 65.196 84 42 84C18.804 84 0 65.196 0 42C0 18.804 18.804 0 42 0C65.196 0 84 18.804 84 42" fill="none" stroke="#000000" stroke-opacity="1.000000" stroke-width="2" stroke-dasharray="0 0" transform="matrix(1 0 0 1 12.3314 393.553)"/><clipPath id="clip_1_9_0"><path d="M24.3314 407.553L84.3314 407.553L84.3314 467.553L24.3314 467.553L24.3314 407.553Z"/></clipPath><g clip-path="url(#clip_1_9_0)"><path d="M37.947 44.2686L39.2478 40.2432C40.1795 37.2549 41.0496 34.4072 41.8758 31.3135L42.0164 31.3135C42.8777 34.3721 43.7127 37.2549 44.6795 40.2432L45.9451 44.2686L37.947 44.2686ZM49.2937 55L52.8181 55L43.8533 28.6152L40.1443 28.6152L31.1795 55L34.5633 55L37.1209 46.9316L46.7713 46.9316L49.2937 55Z" fill="#19191A" fill-opacity="1.000000" transform="matrix(1 0 0 1 12.3314 393.553)"/></g><path d="M84 -106.264L78 -95.8721L90 -95.8721L84 -106.264Z" transform="matrix(1 0 0 1 54.3314 393.552)" fill="#19191A" fill-opacity="1.000000" stroke="none"/><path d="M0 0C0 -43.1028 76.5496 -59.6038 83.4968 -100.292" fill="none" stroke="#19191A" stroke-opacity="1.000000" stroke-width="2" stroke-linejoin="round" stroke-dasharray="0 0" transform="matrix(1 0 0 1 54.3314 393.552)"/><path d="M84 42C84 65.196 65.196 84 42 84C18.804 84 0 65.196 0 42C0 18.804 18.804 0 42 0C65.196 0 84 18.804 84 42" fill="#A3D16E" fill-opacity="1.000000" transform="matrix(1 0 0 1 175.572 393.552)"/><path d="M84 42C84 65.196 65.196 84 42 84C18.804 84 0 65.196 0 42C0 18.804 18.804 0 42 0C65.196 0 84 18.804 84 42" fill="none" stroke="#000000" stroke-opacity="1.000000" stroke-width="2" stroke-dasharray="0 0" transform="matrix(1 0 0 1 175.572 393.552)"/><clipPath id="clip_1_14_0"><path d="M187.572 407.552L247.572 407.552L247.572 467.552L187.572 467.552L187.572 407.552Z"/></clipPath><g clip-path="url(#clip_1_14_0)"><path d="M33.7775 55L42.1974 55C48.1037 55 52.2082 52.4424 52.2082 47.2568C52.2082 43.6621 49.9758 41.5703 46.8029 40.9639L46.8029 40.7793C49.2902 39.9883 50.6965 37.6855 50.6965 35.0576C50.6965 30.4082 46.9875 28.6152 41.6261 28.6152L33.7775 28.6152L33.7775 55ZM37.1261 39.8477L37.1261 31.2432L41.1867 31.2432C45.2912 31.2432 47.4181 32.3945 47.4181 35.4883C47.4181 38.1514 45.5812 39.8477 41.0461 39.8477L37.1261 39.8477ZM37.1261 52.3369L37.1261 42.3965L41.7316 42.3965C46.3371 42.3965 48.9299 43.873 48.9299 47.1514C48.9299 50.7197 46.2668 52.3369 41.7316 52.3369L37.1261 52.3369Z" fill="#19191A" fill-opacity="1.000000" transform="matrix(1 0 0 1 175.572 393.552)"/></g><path d="M-79.2401 -106.264L-85.2401 -95.872L-73.2401 -95.872L-79.2401 -106.264Z" transform="matrix(1 0 0 1 217.572 393.552)" fill="#19191A" fill-opacity="1.000000" stroke="none"/><path d="M0 0C0 -42.1397 -72.0732 -60.3657 -78.7464 -100.291" fill="none" stroke="#19191A" stroke-opacity="1.000000" stroke-width="2" stroke-linejoin="round" stroke-dasharray="0 0" transform="matrix(1 0 0 1 217.572 393.552)"/><path d="M84 42C84 65.196 65.196 84 42 84C18.804 84 0 65.196 0 42C0 18.804 18.804 0 42 0C65.196 0 84 18.804 84 42" fill="#A3D16E" fill-opacity="1.000000" transform="matrix(1 0 0 1 573.317 12.3828)"/><path d="M84 42C84 65.196 65.196 84 42 84C18.804 84 0 65.196 0 42C0 18.804 18.804 0 42 0C65.196 0 84 18.804 84 42" fill="none" stroke="#000000" stroke-opacity="1.000000" stroke-width="2" stroke-dasharray="0 0" transform="matrix(1 0 0 1 573.317 12.3828)"/><clipPath id="clip_1_16_0"><path d="M585.317 26.3828L645.317 26.3828L645.317 86.3828L585.317 86.3828L585.317 26.3828Z"/></clipPath><g clip-path="url(#clip_1_16_0)"><path d="M40.3258 55L43.6744 55L43.6744 44.7432L51.5934 28.6152L48.1393 28.6152L44.7203 36.0684C43.9293 38.0107 43.024 39.8477 42.0924 41.8252L41.943 41.8252C41.0113 39.8477 40.2203 38.0107 39.3502 36.0684L35.9664 28.6152L32.4068 28.6152L40.3258 44.7432L40.3258 55Z" fill="#19191A" fill-opacity="1.000000" transform="matrix(1 0 0 1 573.317 12.3828)"/></g><path d="M84 42C84 65.196 65.196 84 42 84C18.804 84 0 65.196 0 42C0 18.804 18.804 0 42 0C65.196 0 84 18.804 84 42" fill="#A3D16E" fill-opacity="1.000000" transform="matrix(1 0 0 1 477.221 203.288)"/><path d="M84 42C84 65.196 65.196 84 42 84C18.804 84 0 65.196 0 42C0 18.804 18.804 0 42 0C65.196 0 84 18.804 84 42" fill="none" stroke="#000000" stroke-opacity="1.000000" stroke-width="2" stroke-dasharray="0 0" transform="matrix(1 0 0 1 477.221 203.288)"/><clipPath id="clip_1_17_0"><path d="M489.221 217.288L549.221 217.288L549.221 277.288L489.221 277.288L489.221 217.288Z"/></clipPath><g clip-path="url(#clip_1_17_0)"><path d="M35.0195 55L50.6377 55L50.6377 52.1523L38.3681 52.1523L38.3681 42.5459L48.3701 42.5459L48.3701 39.6982L38.3681 39.6982L38.3681 31.4189L50.2422 31.4189L50.2422 28.6152L35.0195 28.6152L35.0195 55Z" fill="#19191A" fill-opacity="1.000000" transform="matrix(1 0 0 1 477.221 203.288)"/></g><path d="M84 42C84 65.196 65.196 84 42 84C18.804 84 0 65.196 0 42C0 18.804 18.804 0 42 0C65.196 0 84 18.804 84 42" fill="#A3D16E" fill-opacity="1.000000" transform="matrix(1 0 0 1 672.279 203.288)"/><path d="M84 42C84 65.196 65.196 84 42 84C18.804 84 0 65.196 0 42C0 18.804 18.804 0 42 0C65.196 0 84 18.804 84 42" fill="none" stroke="#000000" stroke-opacity="1.000000" stroke-width="2" stroke-dasharray="0 0" transform="matrix(1 0 0 1 672.279 203.288)"/><clipPath id="clip_1_18_0"><path d="M684.279 217.288L744.279 217.288L744.279 277.288L684.279 277.288L684.279 217.288Z"/></clipPath><g clip-path="url(#clip_1_18_0)"><path d="M35.6675 55L39.0161 55L39.0161 43.1523L49.0884 43.1523L49.0884 40.3486L39.0161 40.3486L39.0161 31.4189L50.8902 31.4189L50.8902 28.6152L35.6675 28.6152L35.6675 55Z" fill="#19191A" fill-opacity="1.000000" transform="matrix(1 0 0 1 672.279 203.288)"/></g><path d="M96.0963 -106.906L90.0963 -96.5136L102.096 -96.5136L96.0963 -106.906Z" transform="matrix(1 0 0 1 519.221 203.288)" fill="#19191A" fill-opacity="1.000000" stroke="none"/><path d="M0 0C0 -45.8599 88.0268 -57.9717 95.5808 -100.935" fill="none" stroke="#19191A" stroke-opacity="1.000000" stroke-width="2" stroke-linejoin="round" stroke-dasharray="0 0" transform="matrix(1 0 0 1 519.221 203.288)"/><path d="M-98.9625 -106.906L-104.963 -96.5136L-92.9625 -96.5136L-98.9625 -106.906Z" transform="matrix(1 0 0 1 714.279 203.288)" fill="#19191A" fill-opacity="1.000000" stroke="none"/><path d="M0 0C0 -46.5021 -90.7536 -57.447 -98.4445 -100.936" fill="none" stroke="#19191A" stroke-opacity="1.000000" stroke-width="2" stroke-linejoin="round" stroke-dasharray="0 0" transform="matrix(1 0 0 1 714.279 203.288)"/><path d="M299.986 0L279.202 -12L279.202 -12Q279.595 -11.3196 279.942 -10.6149Q280.29 -9.91028 280.591 -9.1844Q280.891 -8.45853 281.144 -7.71455Q281.396 -6.97057 281.6 -6.21166Q281.803 -5.45275 281.956 -4.68217Q282.11 -3.91159 282.212 -3.13263Q282.315 -2.35367 282.366 -1.56968Q282.418 -0.78568 282.418 -1.02215e-06Q282.418 0.785678 282.366 1.56967Q282.315 2.35367 282.212 3.13263Q282.11 3.91158 281.956 4.68217Q281.803 5.45275 281.6 6.21166Q281.396 6.97056 281.144 7.71455Q280.891 8.45853 280.591 9.1844Q280.29 9.91027 279.942 10.6149Q279.595 11.3196 279.202 12L299.986 0Z" transform="matrix(1 0 0 1 273.331 54.3828)" fill="#ED1252" fill-opacity="1.000000" stroke="none"/><path d="M0 0C95.9952 0 191.99 0 287.986 0" fill="none" stroke="#ED1252" stroke-opacity="1.000000" stroke-width="4" stroke-dasharray="0 0" transform="matrix(1 0 0 1 273.331 54.3828)"/></svg>