<svg xmlns="http://www.w3.org/2000/svg" xmlns:xlink="http://www.w3.org/1999/xlink" width="1913.555176" height="653.547424" viewBox="0 0 1913.56 653.547"><path d="M145.084 72.5419C145.084 112.606 112.606 145.084 72.5419 145.084C32.4781 145.084 0 112.606 0 72.5419C0 32.4781 32.4781 0 72.5419 0C112.606 0 145.084 32.4781 145.084 72.5419" fill="#F2F1FF" fill-opacity="1.000000" transform="matrix(1 0 0 1 373.521 13.1404)"/><path d="M145.084 72.5419C145.084 112.606 112.606 145.084 72.5419 145.084C32.4781 145.084 0 112.606 0 72.5419C0 32.4781 32.4781 0 72.5419 0C112.606 0 145.084 32.4781 145.084 72.5419" fill="none" stroke="#19191A" stroke-opacity="1.000000" stroke-width="2" stroke-dasharray="0 0" transform="matrix(1 0 0 1 373.521 13.1404)"/><clipPath id="clip_8_12_0"><path d="M394.247 48.8667L497.878 48.8667L497.878 152.498L394.247 152.498L394.247 48.8667Z"/></clipPath><g clip-path="url(#clip_8_12_0)"><path d="M51.4214 76.531L59.437 64.531C60.4448 62.7966 61.4058 61.0739 62.273 59.3396L62.4605 59.3396C62.3667 61.1677 62.1792 64.0036 62.1792 65.7263L62.1792 76.531L51.4214 76.531ZM71.0034 76.531L66.3511 76.531L66.3511 54.5466L61.4995 54.5466L46.8628 77.1521L46.8628 80.0349L62.1792 80.0349L62.1792 89.7263L66.3511 89.7263L66.3511 80.0349L71.0034 80.0349L71.0034 76.531ZM85.0693 90.3474C91.0224 90.3474 96.5888 85.988 96.5888 78.2536C96.5888 70.531 91.8427 67.0739 85.9833 67.0739C83.874 67.0739 82.2802 67.6013 80.7451 68.4567L81.6122 58.2849L94.913 58.2849L94.913 54.5466L77.7685 54.5466L76.6669 71.0114L79.0224 72.4411C81.038 71.1052 82.5263 70.3786 84.8818 70.3786C89.2997 70.3786 92.1708 73.3552 92.1708 78.3942C92.1708 83.5388 88.8193 86.7028 84.6826 86.7028C80.6044 86.7028 78.0615 84.8278 76.0458 82.8122L73.8896 85.695C76.2333 88.0505 79.5966 90.3474 85.0693 90.3474Z" fill="#19191A" fill-opacity="1.000000" transform="matrix(1 0 0 1 373.521 13.1404)"/></g><path d="M145.084 72.5419C145.084 112.606 112.606 145.084 72.5419 145.084C32.4781 145.084 0 112.606 0 72.5419C0 32.4781 32.4781 0 72.5419 0C112.606 0 145.084 32.4781 145.084 72.5419" fill="#A29BF9" fill-opacity="1.000000" transform="matrix(1 0 0 1 150.777 263.531)"/><path d="M145.084 72.5419C145.084 112.606 112.606 145.084 72.5419 145.084C32.4781 145.084 0 112.606 0 72.5419C0 32.4781 32.4781 0 72.5419 0C112.606 0 145.084 32.4781 145.084 72.5419" fill="none" stroke="#19191A" stroke-opacity="1.000000" stroke-width="2" stroke-dasharray="12 12" transform="matrix(1 0 0 1 150.777 263.531)"/><clipPath id="clip_8_13_0"><path d="M171.504 299.258L275.135 299.258L275.135 402.889L171.504 402.889L171.504 299.258Z"/></clipPath><g clip-path="url(#clip_8_13_0)"><path d="M50.1206 89.7263L69.4214 89.7263L69.4214 86.0817L62.3667 86.0817L62.3667 54.5466L59.0034 54.5466C57.0816 55.6481 54.8316 56.4567 51.7144 57.0427L51.7144 59.82L57.9487 59.82L57.9487 86.0817L50.1206 86.0817L50.1206 89.7263ZM76.7607 89.7263L96.0615 89.7263L96.0615 86.0817L89.0068 86.0817L89.0068 54.5466L85.6435 54.5466C83.7216 55.6481 81.4716 56.4567 78.3544 57.0427L78.3544 59.82L84.5888 59.82L84.5888 86.0817L76.7607 86.0817L76.7607 89.7263Z" fill="#19191A" fill-opacity="1.000000" transform="matrix(1 0 0 1 150.777 263.531)"/></g><path d="M145.084 72.5419C145.084 112.606 112.606 145.084 72.5419 145.084C32.4781 145.084 0 112.606 0 72.5419C0 32.4781 32.4781 0 72.5419 0C112.606 0 145.084 32.4781 145.084 72.5419" fill="#F2F1FF" fill-opacity="1.000000" transform="matrix(1 0 0 1 592.009 263.531)"/><path d="M145.084 72.5419C145.084 112.606 112.606 145.084 72.5419 145.084C32.4781 145.084 0 112.606 0 72.5419C0 32.4781 32.4781 0 72.5419 0C112.606 0 145.084 32.4781 145.084 72.5419" fill="none" stroke="#19191A" stroke-opacity="1.000000" stroke-width="2" stroke-dasharray="0 0" transform="matrix(1 0 0 1 592.009 263.531)"/><clipPath id="clip_8_14_0"><path d="M612.735 299.258L716.367 299.258L716.367 402.889L612.735 402.889L612.735 299.258Z"/></clipPath><g clip-path="url(#clip_8_14_0)"><path d="M60.3511 86.9372C55.9331 86.9372 53.2964 82.9528 52.7691 75.6638C55.0659 72.3942 57.7612 71.1521 59.9644 71.1521C64.2417 71.1521 66.3042 74.1755 66.3042 78.9216C66.3042 83.7263 63.7144 86.9372 60.3511 86.9372ZM69.8081 57.4646C67.8862 55.4021 65.2495 53.8669 61.5933 53.8669C54.7847 53.8669 48.5855 59.1521 48.5855 72.9216C48.5855 84.5466 53.5777 90.3474 60.3511 90.3474C65.8237 90.3474 70.4292 85.7419 70.4292 78.9216C70.4292 71.5856 66.6323 67.8825 60.6909 67.8825C57.9019 67.8825 54.8316 69.5231 52.6753 72.1599C52.8628 61.2146 56.9409 57.5231 61.7456 57.5231C63.9019 57.5231 66.0112 58.531 67.4058 60.2067L69.8081 57.4646ZM85.9365 90.3474C92.5576 90.3474 96.9755 86.363 96.9755 81.2302C96.9755 76.4255 94.0927 73.7888 91.0224 72.0192L91.0224 71.7731C93.1318 70.1442 95.7216 66.9685 95.7216 63.2771C95.7216 57.8513 92.0771 54.0192 86.0771 54.0192C80.5576 54.0192 76.4326 57.57 76.4326 62.9372C76.4326 66.6403 78.5888 69.2771 81.1786 71.0583L81.1786 71.2927C77.9677 73.0271 74.6982 76.2849 74.6982 80.9958C74.6982 86.4099 79.456 90.3474 85.9365 90.3474ZM88.3388 70.6247C84.2021 68.9958 80.4169 67.1677 80.4169 62.9372C80.4169 59.5388 82.7607 57.2302 85.9833 57.2302C89.7685 57.2302 91.9833 60.0661 91.9833 63.5231C91.9833 66.113 90.7294 68.5153 88.3388 70.6247ZM86.0302 87.0896C81.8115 87.0896 78.6826 84.3474 78.6826 80.6091C78.6826 77.2458 80.6513 74.4567 83.4872 72.6403C88.4794 74.656 92.8036 76.4255 92.8036 81.1364C92.8036 84.6403 90.0615 87.0896 86.0302 87.0896Z" fill="#19191A" fill-opacity="1.000000" transform="matrix(1 0 0 1 592.009 263.531)"/></g><path d="M145.084 72.5419C145.084 112.606 112.606 145.084 72.5419 145.084C32.4781 145.084 0 112.606 0 72.5419C0 32.4781 32.4781 0 72.5419 0C112.606 0 145.084 32.4781 145.084 72.5419" fill="#F2F1FF" fill-opacity="1.000000" transform="matrix(1 0 0 1 13.1404 486.936)"/><path d="M145.084 72.5419C145.084 112.606 112.606 145.084 72.5419 145.084C32.4781 145.084 0 112.606 0 72.5419C0 32.4781 32.4781 0 72.5419 0C112.606 0 145.084 32.4781 145.084 72.5419" fill="none" stroke="#19191A" stroke-opacity="1.000000" stroke-width="2" stroke-dasharray="0 0" transform="matrix(1 0 0 1 13.1404 486.936)"/><clipPath id="clip_8_15_0"><path d="M33.8666 522.662L137.498 522.662L137.498 626.294L33.8666 626.294L33.8666 522.662Z"/></clipPath><g clip-path="url(#clip_8_15_0)"><path d="M71.7493 73.1208C67.5774 73.1208 65.4563 70.0505 65.4563 65.2927C65.4563 60.4997 68.0578 57.3239 71.4094 57.3239C75.9211 57.3239 78.6164 61.1677 79.0969 68.4099C76.7414 71.7731 74.1047 73.1208 71.7493 73.1208ZM62.011 86.7497C63.9797 88.8122 66.6633 90.3474 70.4485 90.3474C77.0813 90.3474 83.2219 84.8747 83.2219 70.6247C83.2219 59.4333 78.1828 53.8669 71.4094 53.8669C65.9368 53.8669 61.3313 58.4841 61.3313 65.2927C61.3313 72.5935 65.175 76.3786 71.0344 76.3786C74.011 76.3786 77.0344 74.656 79.1438 72.0192C78.8039 82.9528 74.8664 86.7028 70.3078 86.7028C68.0578 86.7028 65.8899 85.695 64.4016 84.0192L62.011 86.7497Z" fill="#19191A" fill-opacity="1.000000" transform="matrix(1 0 0 1 13.1404 486.936)"/></g><path d="M145.084 72.5419C145.084 112.606 112.606 145.084 72.5419 145.084C32.4781 145.084 0 112.606 0 72.5419C0 32.4781 32.4781 0 72.5419 0C112.606 0 145.084 32.4781 145.084 72.5419" fill="#F2F1FF" fill-opacity="1.000000" transform="matrix(1 0 0 1 279.046 486.936)"/><path d="M145.084 72.5419C145.084 112.606 112.606 145.084 72.5419 145.084C32.4781 145.084 0 112.606 0 72.5419C0 32.4781 32.4781 0 72.5419 0C112.606 0 145.084 32.4781 145.084 72.5419" fill="none" stroke="#19191A" stroke-opacity="1.000000" stroke-width="2" stroke-dasharray="0 0" transform="matrix(1 0 0 1 279.046 486.936)"/><clipPath id="clip_8_16_0"><path d="M299.773 522.662L403.404 522.662L403.404 626.294L299.773 626.294L299.773 522.662Z"/></clipPath><g clip-path="url(#clip_8_16_0)"><path d="M48.0112 89.7263L70.1362 89.7263L70.1362 85.9294L60.398 85.9294C58.6167 85.9294 56.4605 86.1286 54.6323 86.2692C62.8941 78.4411 68.4136 71.2927 68.4136 64.2849C68.4136 58.0036 64.4761 53.8669 58.1948 53.8669C53.73 53.8669 50.7066 55.9294 47.8237 59.0583L50.3667 61.5544C52.2886 59.2458 54.7847 57.4646 57.6675 57.4646C62.0269 57.4646 64.1362 60.3942 64.1362 64.4255C64.1362 70.4841 59.0503 77.4919 48.0112 87.1364L48.0112 89.7263ZM85.2099 90.3474C91.456 90.3474 96.4951 86.6091 96.4951 80.3161C96.4951 75.5231 93.1786 72.3474 89.0068 71.3864L89.0068 71.1989C92.7451 69.8044 95.2997 66.9685 95.2997 62.7028C95.2997 57.0427 90.9755 53.8669 85.0693 53.8669C80.9911 53.8669 77.874 55.6481 75.2255 58.0974L77.581 60.8747C79.5497 58.906 82.0458 57.4646 84.8818 57.3708C88.5263 57.4646 90.8349 59.6325 90.8349 63.0427C90.8349 66.8278 88.3388 69.7575 81.0849 69.7575L81.0849 73.1208C89.1943 73.1208 92.0302 75.945 92.0302 80.1755C92.0302 84.2067 89.0536 86.7028 84.8818 86.7028C80.8974 86.7028 78.2021 84.8278 76.1396 82.6716L73.9365 85.5544C76.2333 88.0505 79.6904 90.3474 85.2099 90.3474Z" fill="#19191A" fill-opacity="1.000000" transform="matrix(1 0 0 1 279.046 486.936)"/></g><path d="M145.084 72.5419C145.084 112.606 112.606 145.084 72.5419 145.084C32.4781 145.084 0 112.606 0 72.5419C0 32.4781 32.4781 0 72.5419 0C112.606 0 145.084 32.4781 145.084 72.5419" fill="#F2F1FF" fill-opacity="1.000000" transform="matrix(1 0 0 1 737.093 486.936)"/><path d="M145.084 72.5419C145.084 112.606 112.606 145.084 72.5419 145.084C32.4781 145.084 0 112.606 0 72.5419C0 32.4781 32.4781 0 72.5419 0C112.606 0 145.084 32.4781 145.084 72.5419" fill="none" stroke="#19191A" stroke-opacity="1.000000" stroke-width="2" stroke-dasharray="0 0" transform="matrix(1 0 0 1 737.093 486.936)"/><clipPath id="clip_8_17_0"><path d="M757.819 522.662L861.451 522.662L861.451 626.294L757.819 626.294L757.819 522.662Z"/></clipPath><g clip-path="url(#clip_8_17_0)"><path d="M55.4058 89.7263L59.9644 89.7263C60.4917 75.945 62.0269 67.7888 70.2886 57.1833L70.2886 54.5466L48.2573 54.5466L48.2573 58.2849L65.2964 58.2849C58.4292 67.8825 55.98 76.3786 55.4058 89.7263ZM86.9911 86.9372C82.5732 86.9372 79.9365 82.9528 79.4091 75.6638C81.706 72.3942 84.4013 71.1521 86.6044 71.1521C90.8818 71.1521 92.9443 74.1755 92.9443 78.9216C92.9443 83.7263 90.3544 86.9372 86.9911 86.9372ZM96.4482 57.4646C94.5263 55.4021 91.8896 53.8669 88.2333 53.8669C81.4247 53.8669 75.2255 59.1521 75.2255 72.9216C75.2255 84.5466 80.2177 90.3474 86.9911 90.3474C92.4638 90.3474 97.0693 85.7419 97.0693 78.9216C97.0693 71.5856 93.2724 67.8825 87.331 67.8825C84.5419 67.8825 81.4716 69.5231 79.3154 72.1599C79.5029 61.2146 83.581 57.5231 88.3857 57.5231C90.5419 57.5231 92.6513 58.531 94.0458 60.2067L96.4482 57.4646Z" fill="#19191A" fill-opacity="1.000000" transform="matrix(1 0 0 1 737.093 486.936)"/></g><path d="M-222.743 105.307L-216.743 94.915L-228.743 94.915L-222.743 105.307Z" transform="matrix(1 0 0 1 446.063 158.224)" fill="#19191A" fill-opacity="1.000000" stroke="none"/><path d="M0 0C0 85.2872 -212.252 21.1581 -222.37 99.3228" fill="none" stroke="#19191A" stroke-opacity="1.000000" stroke-width="2" stroke-linejoin="round" stroke-dasharray="0 0" transform="matrix(1 0 0 1 446.063 158.224)"/><path d="M-137.637 78.3208L-131.637 67.9288L-143.637 67.9288L-137.637 78.3208Z" transform="matrix(1 0 0 1 223.319 408.615)" fill="#19191A" fill-opacity="1.000000" stroke="none"/><path d="M0 0C0 54.0443 -127.479 24.5938 -137.068 72.3577" fill="none" stroke="#19191A" stroke-opacity="1.000000" stroke-width="2" stroke-linejoin="round" stroke-dasharray="0 0" transform="matrix(1 0 0 1 223.319 408.615)"/><path d="M218.488 105.307L224.488 94.9151L212.488 94.9151L218.488 105.307Z" transform="matrix(1 0 0 1 446.063 158.224)" fill="#19191A" fill-opacity="1.000000" stroke="none"/><path d="M0 0C0 83.9251 208.035 22.4405 218.11 99.3232" fill="none" stroke="#19191A" stroke-opacity="1.000000" stroke-width="2" stroke-linejoin="round" stroke-dasharray="0 0" transform="matrix(1 0 0 1 446.063 158.224)"/><path d="M145.084 78.3208L151.084 67.9288L139.084 67.9288L145.084 78.3208Z" transform="matrix(1 0 0 1 664.551 408.615)" fill="#19191A" fill-opacity="1.000000" stroke="none"/><path d="M0 0C0 56.354 134.792 22.5176 144.53 72.3558" fill="none" stroke="#19191A" stroke-opacity="1.000000" stroke-width="2" stroke-linejoin="round" stroke-dasharray="0 0" transform="matrix(1 0 0 1 664.551 408.615)"/><path d="M128.269 78.3208L134.269 67.9288L122.269 67.9288L128.269 78.3208Z" transform="matrix(1 0 0 1 223.319 408.615)" fill="#19191A" fill-opacity="1.000000" stroke="none"/><path d="M0 0C0 51.1828 118.306 27.1384 127.681 72.3602" fill="none" stroke="#19191A" stroke-opacity="1.000000" stroke-width="2" stroke-linejoin="round" stroke-dasharray="12 12" transform="matrix(1 0 0 1 223.319 408.615)"/><path d="M-128.269 -223.405L-117.877 -217.405L-117.877 -229.405L-128.269 -223.405Z" transform="matrix(1 0 0 1 424.13 559.478)" fill="#19191A" fill-opacity="1.000000" stroke="none"/><path d="M0 0C71.5581 0 75.27 -55.8512 43.2028 -111.702C12.0083 -166.033 -53.0441 -220.364 -122.435 -223.282" fill="none" stroke="#19191A" stroke-opacity="1.000000" stroke-width="2" stroke-linejoin="round" stroke-dasharray="0 0" transform="matrix(1 0 0 1 424.13 559.478)"/><path d="M145.084 72.5419C145.084 112.606 112.606 145.084 72.5419 145.084C32.4781 145.084 0 112.606 0 72.5419C0 32.4781 32.4781 0 72.5419 0C112.606 0 145.084 32.4781 145.084 72.5419" fill="#F2F1FF" fill-opacity="1.000000" transform="matrix(1 0 0 1 1391.76 21.5272)"/><path d="M145.084 72.5419C145.084 112.606 112.606 145.084 72.5419 145.084C32.4781 145.084 0 112.606 0 72.5419C0 32.4781 32.4781 0 72.5419 0C112.606 0 145.084 32.4781 145.084 72.5419" fill="none" stroke="#19191A" stroke-opacity="1.000000" stroke-width="2" stroke-dasharray="0 0" transform="matrix(1 0 0 1 1391.76 21.5272)"/><clipPath id="clip_8_53_0"><path d="M1412.49 57.2535L1516.12 57.2535L1516.12 160.885L1412.49 160.885L1412.49 57.2535Z"/></clipPath><g clip-path="url(#clip_8_53_0)"><path d="M51.4214 76.531L59.437 64.531C60.4448 62.7966 61.4058 61.0739 62.273 59.3396L62.4605 59.3396C62.3667 61.1677 62.1792 64.0036 62.1792 65.7263L62.1792 76.531L51.4214 76.531ZM71.0034 76.531L66.3511 76.531L66.3511 54.5466L61.4995 54.5466L46.8628 77.1521L46.8628 80.0349L62.1792 80.0349L62.1792 89.7263L66.3511 89.7263L66.3511 80.0349L71.0034 80.0349L71.0034 76.531ZM85.0693 90.3474C91.0224 90.3474 96.5888 85.988 96.5888 78.2536C96.5888 70.531 91.8427 67.0739 85.9833 67.0739C83.874 67.0739 82.2802 67.6013 80.7451 68.4567L81.6122 58.2849L94.913 58.2849L94.913 54.5466L77.7685 54.5466L76.6669 71.0114L79.0224 72.4411C81.038 71.1052 82.5263 70.3786 84.8818 70.3786C89.2997 70.3786 92.1708 73.3552 92.1708 78.3942C92.1708 83.5388 88.8193 86.7028 84.6826 86.7028C80.6044 86.7028 78.0615 84.8278 76.0458 82.8122L73.8896 85.695C76.2333 88.0505 79.5966 90.3474 85.0693 90.3474Z" fill="#19191A" fill-opacity="1.000000" transform="matrix(1 0 0 1 1391.76 21.5272)"/></g><path d="M145.084 72.5419C145.084 112.606 112.606 145.084 72.5419 145.084C32.4781 145.084 0 112.606 0 72.5419C0 32.4781 32.4781 0 72.5419 0C112.606 0 145.084 32.4781 145.084 72.5419" fill="#F2F1FF" fill-opacity="1.000000" transform="matrix(1 0 0 1 1620.25 263.531)"/><path d="M145.084 72.5419C145.084 112.606 112.606 145.084 72.5419 145.084C32.4781 145.084 0 112.606 0 72.5419C0 32.4781 32.4781 0 72.5419 0C112.606 0 145.084 32.4781 145.084 72.5419" fill="none" stroke="#19191A" stroke-opacity="1.000000" stroke-width="2" stroke-dasharray="0 0" transform="matrix(1 0 0 1 1620.25 263.531)"/><clipPath id="clip_8_55_0"><path d="M1640.97 299.258L1744.6 299.258L1744.6 402.889L1640.97 402.889L1640.97 299.258Z"/></clipPath><g clip-path="url(#clip_8_55_0)"><path d="M60.3511 86.9372C55.9331 86.9372 53.2964 82.9528 52.7691 75.6638C55.0659 72.3942 57.7612 71.1521 59.9644 71.1521C64.2417 71.1521 66.3042 74.1755 66.3042 78.9216C66.3042 83.7263 63.7144 86.9372 60.3511 86.9372ZM69.8081 57.4646C67.8862 55.4021 65.2495 53.8669 61.5933 53.8669C54.7847 53.8669 48.5855 59.1521 48.5855 72.9216C48.5855 84.5466 53.5777 90.3474 60.3511 90.3474C65.8237 90.3474 70.4292 85.7419 70.4292 78.9216C70.4292 71.5856 66.6323 67.8825 60.6909 67.8825C57.9019 67.8825 54.8316 69.5231 52.6753 72.1599C52.8628 61.2146 56.9409 57.5231 61.7456 57.5231C63.9019 57.5231 66.0112 58.531 67.4058 60.2067L69.8081 57.4646ZM85.9365 90.3474C92.5576 90.3474 96.9755 86.363 96.9755 81.2302C96.9755 76.4255 94.0927 73.7888 91.0224 72.0192L91.0224 71.7731C93.1318 70.1442 95.7216 66.9685 95.7216 63.2771C95.7216 57.8513 92.0771 54.0192 86.0771 54.0192C80.5576 54.0192 76.4326 57.57 76.4326 62.9372C76.4326 66.6403 78.5888 69.2771 81.1786 71.0583L81.1786 71.2927C77.9677 73.0271 74.6982 76.2849 74.6982 80.9958C74.6982 86.4099 79.456 90.3474 85.9365 90.3474ZM88.3388 70.6247C84.2021 68.9958 80.4169 67.1677 80.4169 62.9372C80.4169 59.5388 82.7607 57.2302 85.9833 57.2302C89.7685 57.2302 91.9833 60.0661 91.9833 63.5231C91.9833 66.113 90.7294 68.5153 88.3388 70.6247ZM86.0302 87.0896C81.8115 87.0896 78.6826 84.3474 78.6826 80.6091C78.6826 77.2458 80.6513 74.4567 83.4872 72.6403C88.4794 74.656 92.8036 76.4255 92.8036 81.1364C92.8036 84.6403 90.0615 87.0896 86.0302 87.0896Z" fill="#19191A" fill-opacity="1.000000" transform="matrix(1 0 0 1 1620.25 263.531)"/></g><path d="M145.084 72.5419C145.084 112.606 112.606 145.084 72.5419 145.084C32.4781 145.084 0 112.606 0 72.5419C0 32.4781 32.4781 0 72.5419 0C112.606 0 145.084 32.4781 145.084 72.5419" fill="#F2F1FF" fill-opacity="1.000000" transform="matrix(1 0 0 1 1031.38 495.323)"/><path d="M145.084 72.5419C145.084 112.606 112.606 145.084 72.5419 145.084C32.4781 145.084 0 112.606 0 72.5419C0 32.4781 32.4781 0 72.5419 0C112.606 0 145.084 32.4781 145.084 72.5419" fill="none" stroke="#19191A" stroke-opacity="1.000000" stroke-width="2" stroke-dasharray="0 0" transform="matrix(1 0 0 1 1031.38 495.323)"/><clipPath id="clip_8_56_0"><path d="M1052.1 531.049L1155.74 531.049L1155.74 634.681L1052.1 634.681L1052.1 531.049Z"/></clipPath><g clip-path="url(#clip_8_56_0)"><path d="M71.7493 73.1208C67.5774 73.1208 65.4563 70.0505 65.4563 65.2927C65.4563 60.4997 68.0578 57.3239 71.4094 57.3239C75.9211 57.3239 78.6164 61.1677 79.0969 68.4099C76.7414 71.7731 74.1047 73.1208 71.7493 73.1208ZM62.011 86.7497C63.9797 88.8122 66.6633 90.3474 70.4485 90.3474C77.0813 90.3474 83.2219 84.8747 83.2219 70.6247C83.2219 59.4333 78.1828 53.8669 71.4094 53.8669C65.9368 53.8669 61.3313 58.4841 61.3313 65.2927C61.3313 72.5935 65.175 76.3786 71.0344 76.3786C74.011 76.3786 77.0344 74.656 79.1438 72.0192C78.8039 82.9528 74.8664 86.7028 70.3078 86.7028C68.0578 86.7028 65.8899 85.695 64.4016 84.0192L62.011 86.7497Z" fill="#19191A" fill-opacity="1.000000" transform="matrix(1 0 0 1 1031.38 495.323)"/></g><path d="M145.084 72.5419C145.084 112.606 112.606 145.084 72.5419 145.084C32.4781 145.084 0 112.606 0 72.5419C0 32.4781 32.4781 0 72.5419 0C112.606 0 145.084 32.4781 145.084 72.5419" fill="#F2F1FF" fill-opacity="1.000000" transform="matrix(1 0 0 1 1176.46 263.531)"/><path d="M145.084 72.5419C145.084 112.606 112.606 145.084 72.5419 145.084C32.4781 145.084 0 112.606 0 72.5419C0 32.4781 32.4781 0 72.5419 0C112.606 0 145.084 32.4781 145.084 72.5419" fill="none" stroke="#19191A" stroke-opacity="1.000000" stroke-width="2" stroke-dasharray="0 0" transform="matrix(1 0 0 1 1176.46 263.531)"/><clipPath id="clip_8_57_0"><path d="M1197.19 299.258L1300.82 299.258L1300.82 402.889L1197.19 402.889L1197.19 299.258Z"/></clipPath><g clip-path="url(#clip_8_57_0)"><path d="M48.0112 89.7263L70.1362 89.7263L70.1362 85.9294L60.398 85.9294C58.6167 85.9294 56.4605 86.1286 54.6323 86.2692C62.8941 78.4411 68.4136 71.2927 68.4136 64.2849C68.4136 58.0036 64.4761 53.8669 58.1948 53.8669C53.73 53.8669 50.7066 55.9294 47.8237 59.0583L50.3667 61.5544C52.2886 59.2458 54.7847 57.4646 57.6675 57.4646C62.0269 57.4646 64.1362 60.3942 64.1362 64.4255C64.1362 70.4841 59.0503 77.4919 48.0112 87.1364L48.0112 89.7263ZM85.2099 90.3474C91.456 90.3474 96.4951 86.6091 96.4951 80.3161C96.4951 75.5231 93.1786 72.3474 89.0068 71.3864L89.0068 71.1989C92.7451 69.8044 95.2997 66.9685 95.2997 62.7028C95.2997 57.0427 90.9755 53.8669 85.0693 53.8669C80.9911 53.8669 77.874 55.6481 75.2255 58.0974L77.581 60.8747C79.5497 58.906 82.0458 57.4646 84.8818 57.3708C88.5263 57.4646 90.8349 59.6325 90.8349 63.0427C90.8349 66.8278 88.3388 69.7575 81.0849 69.7575L81.0849 73.1208C89.1943 73.1208 92.0302 75.945 92.0302 80.1755C92.0302 84.2067 89.0536 86.7028 84.8818 86.7028C80.8974 86.7028 78.2021 84.8278 76.1396 82.6716L73.9365 85.5544C76.2333 88.0505 79.6904 90.3474 85.2099 90.3474Z" fill="#19191A" fill-opacity="1.000000" transform="matrix(1 0 0 1 1176.46 263.531)"/></g><path d="M145.084 72.5419C145.084 112.606 112.606 145.084 72.5419 145.084C32.4781 145.084 0 112.606 0 72.5419C0 32.4781 32.4781 0 72.5419 0C112.606 0 145.084 32.4781 145.084 72.5419" fill="#F2F1FF" fill-opacity="1.000000" transform="matrix(1 0 0 1 1755.33 495.323)"/><path d="M145.084 72.5419C145.084 112.606 112.606 145.084 72.5419 145.084C32.4781 145.084 0 112.606 0 72.5419C0 32.4781 32.4781 0 72.5419 0C112.606 0 145.084 32.4781 145.084 72.5419" fill="none" stroke="#19191A" stroke-opacity="1.000000" stroke-width="2" stroke-dasharray="0 0" transform="matrix(1 0 0 1 1755.33 495.323)"/><clipPath id="clip_8_58_0"><path d="M1776.06 531.049L1879.69 531.049L1879.69 634.681L1776.06 634.681L1776.06 531.049Z"/></clipPath><g clip-path="url(#clip_8_58_0)"><path d="M55.4058 89.7263L59.9644 89.7263C60.4917 75.945 62.0269 67.7888 70.2886 57.1833L70.2886 54.5466L48.2573 54.5466L48.2573 58.2849L65.2964 58.2849C58.4292 67.8825 55.98 76.3786 55.4058 89.7263ZM86.9911 86.9372C82.5732 86.9372 79.9365 82.9528 79.4091 75.6638C81.706 72.3942 84.4013 71.1521 86.6044 71.1521C90.8818 71.1521 92.9443 74.1755 92.9443 78.9216C92.9443 83.7263 90.3544 86.9372 86.9911 86.9372ZM96.4482 57.4646C94.5263 55.4021 91.8896 53.8669 88.2333 53.8669C81.4247 53.8669 75.2255 59.1521 75.2255 72.9216C75.2255 84.5466 80.2177 90.3474 86.9911 90.3474C92.4638 90.3474 97.0693 85.7419 97.0693 78.9216C97.0693 71.5856 93.2724 67.8825 87.331 67.8825C84.5419 67.8825 81.4716 69.5231 79.3154 72.1599C79.5029 61.2146 83.581 57.5231 88.3857 57.5231C90.5419 57.5231 92.6513 58.531 94.0458 60.2067L96.4482 57.4646Z" fill="#19191A" fill-opacity="1.000000" transform="matrix(1 0 0 1 1755.33 495.323)"/></g><path d="M228.488 96.9202L234.488 86.5282L222.488 86.5282L228.488 96.9202Z" transform="matrix(1 0 0 1 1464.3 166.611)" fill="#19191A" fill-opacity="1.000000" stroke="none"/><path d="M0 0C0 135.816 221.68 -35.6674 228.335 90.9229" fill="none" stroke="#19191A" stroke-opacity="1.000000" stroke-width="2" stroke-linejoin="round" stroke-dasharray="0 0" transform="matrix(1 0 0 1 1464.3 166.611)"/><path d="M135.084 86.7079L141.084 76.3159L129.084 76.3159L135.084 86.7079Z" transform="matrix(1 0 0 1 1692.79 408.615)" fill="#19191A" fill-opacity="1.000000" stroke="none"/><path d="M0 0C0 87.08 128.807 1.74061 134.863 80.7135" fill="none" stroke="#19191A" stroke-opacity="1.000000" stroke-width="2" stroke-linejoin="round" stroke-dasharray="0 0" transform="matrix(1 0 0 1 1692.79 408.615)"/><path d="M-215.297 96.9202L-209.297 86.5282L-221.297 86.5282L-215.297 96.9202Z" transform="matrix(1 0 0 1 1464.3 166.611)" fill="#19191A" fill-opacity="1.000000" stroke="none"/><path d="M0 0C0 129.098 -208.548 -29.0973 -215.137 90.9231" fill="none" stroke="#19191A" stroke-opacity="1.000000" stroke-width="2" stroke-linejoin="round" stroke-dasharray="0 0" transform="matrix(1 0 0 1 1464.3 166.611)"/><path d="M-145.084 86.7079L-139.084 76.3159L-151.084 76.3159L-145.084 86.7079Z" transform="matrix(1 0 0 1 1249 408.615)" fill="#19191A" fill-opacity="1.000000" stroke="none"/><path d="M0 0C0 91.8059 -138.686 -2.78042 -144.871 80.7131" fill="none" stroke="#19191A" stroke-opacity="1.000000" stroke-width="2" stroke-linejoin="round" stroke-dasharray="0 0" transform="matrix(1 0 0 1 1249 408.615)"/></svg>