<svg xmlns="http://www.w3.org/2000/svg" xmlns:xlink="http://www.w3.org/1999/xlink" width="475.266479" height="85.601372" viewBox="0 0 475.266 85.6014"><path d="M12.5273 37.3945C8.35547 37.3945 6.23438 34.3242 6.23438 29.5664C6.23438 24.7734 8.83594 21.5977 12.1875 21.5977C16.6992 21.5977 19.3945 25.4414 19.875 32.6836C17.5195 36.0469 14.8828 37.3945 12.5273 37.3945ZM2.78906 51.0234C4.75781 53.0859 7.44141 54.6211 11.2266 54.6211C17.8594 54.6211 24 49.1484 24 34.8984C24 23.707 18.9609 18.1406 12.1875 18.1406C6.71484 18.1406 2.10938 22.7578 2.10938 29.5664C2.10938 36.8672 5.95312 40.6523 11.8125 40.6523C14.7891 40.6523 17.8125 38.9297 19.9219 36.293C19.582 47.2266 15.6445 50.9766 11.0859 50.9766C8.83594 50.9766 6.66797 49.9688 5.17969 48.293L2.78906 51.0234ZM40.0346 54.6211C46.6557 54.6211 51.0737 50.6367 51.0737 45.5039C51.0737 40.6992 48.1908 38.0625 45.1205 36.293L45.1205 36.0469C47.2299 34.418 49.8197 31.2422 49.8197 27.5508C49.8197 22.125 46.1752 18.293 40.1752 18.293C34.6557 18.293 30.5307 21.8438 30.5307 27.2109C30.5307 30.9141 32.6869 33.5508 35.2768 35.332L35.2768 35.5664C32.0658 37.3008 28.7963 40.5586 28.7963 45.2695C28.7963 50.6836 33.5541 54.6211 40.0346 54.6211ZM42.4369 34.8984C38.3002 33.2695 34.5151 31.4414 34.5151 27.2109C34.5151 23.8125 36.8588 21.5039 40.0815 21.5039C43.8666 21.5039 46.0815 24.3398 46.0815 27.7969C46.0815 30.3867 44.8276 32.7891 42.4369 34.8984ZM40.1283 51.3633C35.9096 51.3633 32.7807 48.6211 32.7807 44.8828C32.7807 41.5195 34.7494 38.7305 37.5854 36.9141C42.5776 38.9297 46.9018 40.6992 46.9018 45.4102C46.9018 48.9141 44.1596 51.3633 40.1283 51.3633ZM62.784 54L67.3426 54C67.87 40.2188 69.4051 32.0625 77.6668 21.457L77.6668 18.8203L55.6356 18.8203L55.6356 22.5586L72.6747 22.5586C65.8075 32.1562 63.3582 40.6523 62.784 54ZM94.3694 51.2109C89.9514 51.2109 87.3147 47.2266 86.7874 39.9375C89.0842 36.668 91.7796 35.4258 93.9827 35.4258C98.26 35.4258 100.323 38.4492 100.323 43.1953C100.323 48 97.7327 51.2109 94.3694 51.2109ZM103.826 21.7383C101.905 19.6758 99.2678 18.1406 95.6116 18.1406C88.803 18.1406 82.6038 23.4258 82.6038 37.1953C82.6038 48.8203 87.596 54.6211 94.3694 54.6211C99.8421 54.6211 104.448 50.0156 104.448 43.1953C104.448 35.8594 100.651 32.1562 94.7092 32.1562C91.9202 32.1562 88.8499 33.7969 86.6936 36.4336C86.8811 25.4883 90.9592 21.7969 95.7639 21.7969C97.9202 21.7969 100.03 22.8047 101.424 24.4805L103.826 21.7383ZM119.088 54.6211C125.041 54.6211 130.607 50.2617 130.607 42.5273C130.607 34.8047 125.861 31.3477 120.002 31.3477C117.892 31.3477 116.299 31.875 114.763 32.7305L115.631 22.5586L128.931 22.5586L128.931 18.8203L111.787 18.8203L110.685 35.2852L113.041 36.7148C115.056 35.3789 116.545 34.6523 118.9 34.6523C123.318 34.6523 126.189 37.6289 126.189 42.668C126.189 47.8125 122.838 50.9766 118.701 50.9766C114.623 50.9766 112.08 49.1016 110.064 47.0859L107.908 49.9688C110.252 52.3242 113.615 54.6211 119.088 54.6211ZM146.155 42.2344L158.448 42.2344L158.448 38.8828L146.155 38.8828L146.155 42.2344ZM176.88 40.8047L184.896 28.8047C185.903 27.0703 186.864 25.3477 187.731 23.6133L187.919 23.6133C187.825 25.4414 187.638 28.2773 187.638 30L187.638 40.8047L176.88 40.8047ZM196.462 40.8047L191.81 40.8047L191.81 18.8203L186.958 18.8203L172.321 41.4258L172.321 44.3086L187.638 44.3086L187.638 54L191.81 54L191.81 44.3086L196.462 44.3086L196.462 40.8047ZM210.668 54.6211C216.915 54.6211 221.954 50.8828 221.954 44.5898C221.954 39.7969 218.637 36.6211 214.465 35.6602L214.465 35.4727C218.204 34.0781 220.758 31.2422 220.758 26.9766C220.758 21.3164 216.434 18.1406 210.528 18.1406C206.45 18.1406 203.332 19.9219 200.684 22.3711L203.04 25.1484C205.008 23.1797 207.504 21.7383 210.34 21.6445C213.985 21.7383 216.293 23.9062 216.293 27.3164C216.293 31.1016 213.797 34.0312 206.543 34.0312L206.543 37.3945C214.653 37.3945 217.489 40.2188 217.489 44.4492C217.489 48.4805 214.512 50.9766 210.34 50.9766C206.356 50.9766 203.661 49.1016 201.598 46.9453L199.395 49.8281C201.692 52.3242 205.149 54.6211 210.668 54.6211ZM226.75 54L248.875 54L248.875 50.2031L239.137 50.2031C237.355 50.2031 235.199 50.4023 233.371 50.543C241.633 42.7148 247.152 35.5664 247.152 28.5586C247.152 22.2773 243.215 18.1406 236.933 18.1406C232.469 18.1406 229.445 20.2031 226.562 23.332L229.105 25.8281C231.027 23.5195 233.523 21.7383 236.406 21.7383C240.766 21.7383 242.875 24.668 242.875 28.6992C242.875 34.7578 237.789 41.7656 226.75 51.4102L226.75 54ZM255.499 54L274.8 54L274.8 50.3555L267.745 50.3555L267.745 18.8203L264.382 18.8203C262.46 19.9219 260.21 20.7305 257.093 21.3164L257.093 24.0938L263.327 24.0938L263.327 50.3555L255.499 50.3555L255.499 54ZM290.501 32.2031L313.493 32.2031L313.493 28.9453L290.501 28.9453L290.501 32.2031ZM290.501 43.6758L313.493 43.6758L313.493 40.418L290.501 40.418L290.501 43.6758ZM338.592 37.3945C334.42 37.3945 332.299 34.3242 332.299 29.5664C332.299 24.7734 334.901 21.5977 338.252 21.5977C342.764 21.5977 345.459 25.4414 345.94 32.6836C343.584 36.0469 340.948 37.3945 338.592 37.3945ZM328.854 51.0234C330.823 53.0859 333.506 54.6211 337.291 54.6211C343.924 54.6211 350.065 49.1484 350.065 34.8984C350.065 23.707 345.026 18.1406 338.252 18.1406C332.78 18.1406 328.174 22.7578 328.174 29.5664C328.174 36.8672 332.018 40.6523 337.877 40.6523C340.854 40.6523 343.877 38.9297 345.987 36.293C345.647 47.2266 341.709 50.9766 337.151 50.9766C334.901 50.9766 332.733 49.9688 331.244 48.293L328.854 51.0234ZM358.224 40.8047L366.24 28.8047C367.248 27.0703 368.209 25.3477 369.076 23.6133L369.263 23.6133C369.17 25.4414 368.982 28.2773 368.982 30L368.982 40.8047L358.224 40.8047ZM377.806 40.8047L373.154 40.8047L373.154 18.8203L368.302 18.8203L353.666 41.4258L353.666 44.3086L368.982 44.3086L368.982 54L373.154 54L373.154 44.3086L377.806 44.3086L377.806 40.8047ZM384.864 40.8047L392.88 28.8047C393.888 27.0703 394.849 25.3477 395.716 23.6133L395.904 23.6133C395.81 25.4414 395.622 28.2773 395.622 30L395.622 40.8047L384.864 40.8047ZM404.446 40.8047L399.794 40.8047L399.794 18.8203L394.943 18.8203L380.306 41.4258L380.306 44.3086L395.622 44.3086L395.622 54L399.794 54L399.794 44.3086L404.446 44.3086L404.446 40.8047ZM411.505 40.8047L419.52 28.8047C420.528 27.0703 421.489 25.3477 422.356 23.6133L422.544 23.6133C422.45 25.4414 422.262 28.2773 422.262 30L422.262 40.8047L411.505 40.8047ZM431.087 40.8047L426.434 40.8047L426.434 18.8203L421.583 18.8203L406.946 41.4258L406.946 44.3086L422.262 44.3086L422.262 54L426.434 54L426.434 44.3086L431.087 44.3086L431.087 40.8047ZM438.145 40.8047L446.16 28.8047C447.168 27.0703 448.129 25.3477 448.996 23.6133L449.184 23.6133C449.09 25.4414 448.902 28.2773 448.902 30L448.902 40.8047L438.145 40.8047ZM457.727 40.8047L453.074 40.8047L453.074 18.8203L448.223 18.8203L433.586 41.4258L433.586 44.3086L448.902 44.3086L448.902 54L453.074 54L453.074 44.3086L457.727 44.3086L457.727 40.8047Z" fill="#19191A" fill-opacity="1.000000" transform="matrix(1 0 0 1 6.80069 6.80069)"/></svg>