<svg xmlns="http://www.w3.org/2000/svg" xmlns:xlink="http://www.w3.org/1999/xlink" width="736.689209" height="915.984131" viewBox="0 0 736.689 915.984"><path d="M5 0L294.057 0C296.817 0 299.057 2.24 299.057 5L299.057 95C299.057 97.76 296.817 100 294.057 100L5 100C2.24 100 0 97.76 0 95L0 5C0 2.24 2.24 0 5 0Z" fill="#D5FFEC" fill-opacity="1.000000" transform="matrix(1 0 0 1 236.989 12.4736)"/><path d="M5 0L294.057 0C296.817 0 299.057 2.24 299.057 5L299.057 95C299.057 97.76 296.817 100 294.057 100L5 100C2.24 100 0 97.76 0 95L0 5C0 2.24 2.24 0 5 0Z" fill="none" stroke="#19191A" stroke-opacity="1.000000" stroke-width="2" stroke-dasharray="0 0" transform="matrix(1 0 0 1 236.989 12.4736)"/><clipPath id="clip_9_4_0"><path d="M240.189 25.6736L530.846 25.6736L530.846 117.274L240.189 117.274L240.189 25.6736Z"/></clipPath><g clip-path="url(#clip_9_4_0)"><path d="M118.958 21.6727L106.911 21.6727L106.911 23.2781L118.958 23.2781L118.958 21.6727ZM113.995 28.534L113.995 35.5418C113.995 37.3172 114.399 37.8504 116.128 37.8504L118.383 37.8504C119.848 37.8504 120.305 37.0535 120.475 33.9598C119.995 33.8426 119.297 33.5496 118.934 33.2859C118.864 35.8582 118.77 36.2391 118.214 36.2391L116.321 36.2391C115.77 36.2391 115.671 36.1453 115.671 35.5184L115.671 28.534L120.399 28.534L120.399 26.9051L105.352 26.9051L105.352 28.534L109.407 28.534C109.167 32.7586 108.499 35.3777 104.801 36.8426C105.182 37.1531 105.686 37.8211 105.88 38.2781C110.034 36.5027 110.895 33.4324 111.159 28.534L113.995 28.534ZM104.848 24.4559C103.887 23.6648 101.971 22.3465 100.577 21.4324L99.4459 22.5867C100.84 23.5652 102.739 24.9363 103.671 25.7742L104.848 24.4559ZM103.934 28.4637L98.9713 28.4637L98.9713 30.1219L102.206 30.1219L102.206 37.7273C101.198 38.1844 100.026 39.2156 98.8717 40.4871L100.026 42.0223C101.227 40.4402 102.422 39.0223 103.219 39.0223C103.77 39.0223 104.585 39.8133 105.546 40.4168C107.227 41.448 109.167 41.7117 112.12 41.7117C114.663 41.7117 118.747 41.5945 120.376 41.4949C120.422 40.9676 120.686 40.1297 120.926 39.6492C118.454 39.9129 114.88 40.1063 112.167 40.1063C109.506 40.1063 107.514 39.9129 105.926 38.9285C104.995 38.3777 104.462 37.8973 103.934 37.6336L103.934 28.4637ZM141.592 26.4715L133.987 26.4715L133.987 22.4871L141.592 22.4871L141.592 26.4715ZM143.321 20.952L132.305 20.952L132.305 28.0301L143.321 28.0301L143.321 20.952ZM131.198 33.2625C130.794 32.5945 128.971 29.9988 128.297 29.1844L128.297 28.6336L131.251 28.6336L131.251 26.952L128.297 26.952L128.297 22.6805C129.282 22.4168 130.219 22.1063 130.987 21.743L129.856 20.3016C128.368 21.0457 125.754 21.743 123.522 22.1766C123.71 22.5867 123.95 23.1844 124.049 23.5945C124.864 23.448 125.754 23.2781 126.616 23.0906L126.616 26.952L123.258 26.952L123.258 28.6336L126.352 28.6336C125.538 31.3465 124.073 34.4402 122.731 36.1688C123.042 36.6258 123.499 37.3934 123.663 37.8738C124.747 36.4793 125.778 34.2469 126.616 31.9441L126.616 42.0457L128.297 42.0457L128.297 31.3465C128.971 32.5418 129.739 33.9832 130.049 34.7508L131.198 33.2625ZM138.833 39.743L138.833 36.4324L143.631 36.4324L143.631 34.8211L138.833 34.8211L138.833 31.7039L144.159 31.7039L144.159 30.0691L131.848 30.0691L131.848 31.7039L137.081 31.7039L137.081 34.8211L132.422 34.8211L132.422 36.4324L137.081 36.4324L137.081 39.743L130.794 39.743L130.794 41.4012L144.686 41.4012L144.686 39.743L138.833 39.743ZM157.747 20.0906C155.391 23.9754 151.12 27.3855 146.702 29.3309C147.182 29.7352 147.686 30.3855 147.979 30.866C149.151 30.2859 150.305 29.618 151.407 28.8973L151.407 38.3309C151.407 40.8211 152.368 41.4246 155.608 41.4246L162.569 41.4246C165.569 41.4246 166.213 40.4402 166.577 36.7898C166.026 36.6727 165.235 36.3621 164.778 36.0457C164.584 39.0984 164.297 39.6727 162.522 39.6727L155.631 39.6727C153.616 39.6727 153.235 39.4324 153.235 38.3016L153.235 30.2859L162.258 30.2859C162.112 33.1922 161.942 34.3934 161.655 34.7273C161.461 34.9207 161.25 34.9676 160.793 34.9676C160.36 34.9676 159.112 34.9441 157.817 34.8211C158.057 35.2781 158.227 35.9285 158.25 36.409C159.569 36.4793 160.864 36.5027 161.538 36.4559C162.235 36.409 162.739 36.2391 163.166 35.782C163.67 35.1844 163.887 33.5496 164.081 29.4246C164.081 29.1375 164.104 28.6102 164.104 28.6102L151.817 28.6102C154.096 27.0223 156.206 25.1063 157.911 22.9676C160.77 26.3309 164.01 28.5574 167.825 30.5262C168.065 29.9988 168.569 29.4012 169.026 29.0145C165.112 27.1922 161.678 25.0066 158.872 21.6492C159.065 21.3855 159.258 21.0984 159.422 20.8348L157.747 20.0906ZM192.592 24.2156L192.592 22.534L184.213 22.534C183.903 21.7898 183.399 20.8348 182.825 20.1141L181.096 20.5945C181.506 21.1453 181.911 21.8895 182.198 22.534L172.817 22.534L172.817 29.4012C172.817 32.8816 172.647 37.7039 170.702 41.1375C171.112 41.3016 171.879 41.8348 172.219 42.1688C174.258 38.5418 174.569 33.1453 174.569 29.4012L174.569 24.2156L192.592 24.2156ZM192.616 36.7195L185.801 36.7195L185.801 33.9598L191.08 33.9598L191.08 32.3543L185.801 32.3543L185.801 29.8348L184.049 29.8348L184.049 32.3543L179.514 32.3543C180.258 31.2703 181.002 29.9988 181.67 28.6805L191.631 28.6805L191.631 27.0691L182.461 27.0691C182.754 26.4949 183.018 25.9207 183.258 25.3465L181.407 24.6961C181.143 25.5105 180.856 26.3016 180.498 27.0691L176.127 27.0691L176.127 28.6805L179.754 28.6805C179.151 29.8582 178.623 30.7898 178.36 31.1766C177.879 31.9441 177.475 32.4715 177.065 32.5652C177.282 33.0457 177.545 33.9363 177.639 34.3172C177.879 34.1063 178.694 33.9598 179.895 33.9598L184.049 33.9598L184.049 36.7195L175.43 36.7195L175.43 38.3543L184.049 38.3543L184.049 42.0223L185.801 42.0223L185.801 38.3543L192.616 38.3543L192.616 36.7195Z" fill="#19191A" fill-opacity="1.000000" transform="matrix(1 0 0 1 236.989 12.4736)"/><path d="M46.5554 60.409L49.5027 60.409C52.2624 60.409 53.7741 61.2234 53.7741 63.5496C53.7741 65.8348 52.2624 66.9363 49.5027 66.9363L46.5554 66.9363L46.5554 60.409ZM56.5105 76.2L51.9987 68.4949C54.4011 67.9207 55.9831 66.2859 55.9831 63.5496C55.9831 59.8816 53.4167 58.6102 49.8425 58.6102L44.323 58.6102L44.323 76.2L46.5554 76.2L46.5554 68.7352L49.7194 68.7352L53.9909 76.2L56.5105 76.2ZM64.3614 76.5105C66.1368 76.5105 67.5313 75.9129 68.6798 75.1687L67.8888 73.7273C66.9278 74.3777 65.8966 74.7586 64.6251 74.7586C62.1524 74.7586 60.4474 72.9832 60.3067 70.2L69.0899 70.2C69.1368 69.8895 69.1837 69.4324 69.1837 68.952C69.1837 65.2312 67.3145 62.8348 63.9981 62.8348C60.9747 62.8348 58.1212 65.4715 58.1212 69.6961C58.1212 73.991 60.9044 76.5105 64.3614 76.5105ZM60.2833 68.6414C60.547 66.0691 62.1759 64.5867 64.0274 64.5867C66.0665 64.5867 67.2618 65.9988 67.2618 68.6414L60.2833 68.6414ZM72.4015 76.2L74.5871 76.2L74.5871 66.743C75.7824 65.4012 76.8898 64.7508 77.8742 64.7508C79.5265 64.7508 80.2941 65.782 80.2941 68.2312L80.2941 76.2L82.4796 76.2L82.4796 66.743C83.7042 65.4012 84.7589 64.7508 85.7667 64.7508C87.4249 64.7508 88.1925 65.782 88.1925 68.2312L88.1925 76.2L90.3781 76.2L90.3781 67.9441C90.3781 64.6102 89.1066 62.8348 86.4171 62.8348C84.8351 62.8348 83.464 63.866 82.1222 65.3309C81.5949 63.7898 80.5109 62.8348 78.5187 62.8348C76.9601 62.8348 75.5949 63.8133 74.464 65.0613L74.3937 65.0613L74.2003 63.1688L72.4015 63.1688L72.4015 76.2ZM99.688 76.5105C102.881 76.5105 105.735 74.0145 105.735 69.6961C105.735 65.3543 102.881 62.8348 99.688 62.8348C96.4946 62.8348 93.6411 65.3543 93.6411 69.6961C93.6411 74.0145 96.4946 76.5105 99.688 76.5105ZM99.688 74.6883C97.4321 74.6883 95.9204 72.6961 95.9204 69.6961C95.9204 66.6961 97.4321 64.657 99.688 64.657C101.944 64.657 103.479 66.6961 103.479 69.6961C103.479 72.6961 101.944 74.6883 99.688 74.6883ZM112.815 76.5105C113.606 76.5105 114.473 76.2703 115.217 76.0301L114.784 74.4012C114.35 74.5652 113.752 74.7352 113.295 74.7352C111.784 74.7352 111.28 73.8211 111.28 72.2156L111.28 64.9441L114.807 64.9441L114.807 63.1688L111.28 63.1688L111.28 59.5184L109.458 59.5184L109.194 63.1688L107.155 63.2859L107.155 64.9441L109.094 64.9441L109.094 72.1687C109.094 74.782 110.032 76.5105 112.815 76.5105ZM122.657 76.5105C124.433 76.5105 125.827 75.9129 126.976 75.1687L126.185 73.7273C125.224 74.3777 124.192 74.7586 122.921 74.7586C120.448 74.7586 118.743 72.9832 118.603 70.2L127.386 70.2C127.433 69.8895 127.48 69.4324 127.48 68.952C127.48 65.2312 125.61 62.8348 122.294 62.8348C119.271 62.8348 116.417 65.4715 116.417 69.6961C116.417 73.991 119.2 76.5105 122.657 76.5105ZM118.579 68.6414C118.843 66.0691 120.472 64.5867 122.323 64.5867C124.362 64.5867 125.558 65.9988 125.558 68.6414L118.579 68.6414ZM138.499 60.409L141.446 60.409C144.206 60.409 145.718 61.2234 145.718 63.5496C145.718 65.8348 144.206 66.9363 141.446 66.9363L138.499 66.9363L138.499 60.409ZM148.454 76.2L143.942 68.4949C146.345 67.9207 147.927 66.2859 147.927 63.5496C147.927 59.8816 145.36 58.6102 141.786 58.6102L136.267 58.6102L136.267 76.2L138.499 76.2L138.499 68.7352L141.663 68.7352L145.935 76.2L148.454 76.2ZM156.305 76.5105C158.081 76.5105 159.475 75.9129 160.624 75.1687L159.833 73.7273C158.872 74.3777 157.84 74.7586 156.569 74.7586C154.096 74.7586 152.391 72.9832 152.25 70.2L161.034 70.2C161.081 69.8895 161.127 69.4324 161.127 68.952C161.127 65.2312 159.258 62.8348 155.942 62.8348C152.918 62.8348 150.065 65.4715 150.065 69.6961C150.065 73.991 152.848 76.5105 156.305 76.5105ZM152.227 68.6414C152.491 66.0691 154.12 64.5867 155.971 64.5867C158.01 64.5867 159.206 65.9988 159.206 68.6414L152.227 68.6414ZM164.345 81.6961L166.531 81.6961L166.531 77.2781L166.478 74.9988C167.656 75.9598 168.904 76.5105 170.082 76.5105C173.082 76.5105 175.742 73.9441 175.742 69.4793C175.742 65.4715 173.919 62.8348 170.562 62.8348C169.05 62.8348 167.585 63.6961 166.408 64.657L166.337 64.657L166.144 63.1688L164.345 63.1688L164.345 81.6961ZM169.718 74.6883C168.857 74.6883 167.703 74.3309 166.531 73.3172L166.531 66.4793C167.802 65.3016 168.927 64.6805 170.035 64.6805C172.502 64.6805 173.462 66.6258 173.462 69.5027C173.462 72.743 171.88 74.6883 169.718 74.6883ZM184.288 76.5105C187.481 76.5105 190.335 74.0145 190.335 69.6961C190.335 65.3543 187.481 62.8348 184.288 62.8348C181.094 62.8348 178.241 65.3543 178.241 69.6961C178.241 74.0145 181.094 76.5105 184.288 76.5105ZM184.288 74.6883C182.032 74.6883 180.52 72.6961 180.52 69.6961C180.52 66.6961 182.032 64.657 184.288 64.657C186.544 64.657 188.079 66.6961 188.079 69.6961C188.079 72.6961 186.544 74.6883 184.288 74.6883ZM197.173 76.5105C200.25 76.5105 201.925 74.7586 201.925 72.6492C201.925 70.1766 199.839 69.409 197.947 68.6883C196.482 68.1375 195.064 67.6805 195.064 66.4324C195.064 65.4246 195.808 64.5574 197.443 64.5574C198.615 64.5574 199.529 65.0379 200.443 65.7117L201.498 64.2937C200.466 63.5027 199.048 62.8348 197.443 62.8348C194.607 62.8348 192.955 64.4637 192.955 66.5262C192.955 68.7352 195.017 69.6258 196.839 70.2937C198.281 70.8504 199.816 71.448 199.816 72.7664C199.816 73.8973 198.978 74.8055 197.25 74.8055C195.691 74.8055 194.513 74.1844 193.382 73.2703L192.304 74.7117C193.552 75.743 195.328 76.5105 197.173 76.5105ZM205.001 76.2L207.187 76.2L207.187 63.1688L205.001 63.1688L205.001 76.2ZM206.103 60.4793C206.97 60.4793 207.614 59.8816 207.614 59.0613C207.614 58.1766 206.97 57.6492 206.103 57.6492C205.241 57.6492 204.591 58.1766 204.591 59.0613C204.591 59.8816 205.241 60.4793 206.103 60.4793ZM215.703 76.5105C216.494 76.5105 217.361 76.2703 218.105 76.0301L217.671 74.4012C217.238 74.5652 216.64 74.7352 216.183 74.7352C214.671 74.7352 214.168 73.8211 214.168 72.2156L214.168 64.9441L217.695 64.9441L217.695 63.1688L214.168 63.1688L214.168 59.5184L212.345 59.5184L212.082 63.1688L210.043 63.2859L210.043 64.9441L211.982 64.9441L211.982 72.1687C211.982 74.782 212.919 76.5105 215.703 76.5105ZM225.352 76.5105C228.545 76.5105 231.398 74.0145 231.398 69.6961C231.398 65.3543 228.545 62.8348 225.352 62.8348C222.158 62.8348 219.305 65.3543 219.305 69.6961C219.305 74.0145 222.158 76.5105 225.352 76.5105ZM225.352 74.6883C223.096 74.6883 221.584 72.6961 221.584 69.6961C221.584 66.6961 223.096 64.657 225.352 64.657C227.607 64.657 229.143 66.6961 229.143 69.6961C229.143 72.6961 227.607 74.6883 225.352 74.6883ZM234.833 76.2L237.019 76.2L237.019 67.8211C237.88 65.5945 239.222 64.8211 240.306 64.8211C240.833 64.8211 241.144 64.8738 241.577 65.0379L241.981 63.1219C241.577 62.9051 241.167 62.8348 240.593 62.8348C239.128 62.8348 237.81 63.8895 236.896 65.5418L236.825 65.5418L236.632 63.1688L234.833 63.1688L234.833 76.2ZM245.058 81.8133C247.648 81.8133 248.989 79.8504 249.904 77.2781L254.825 63.1688L252.687 63.1688L250.361 70.4168C249.997 71.5652 249.616 72.8895 249.253 74.0613L249.136 74.0613C248.726 72.8895 248.275 71.5418 247.888 70.4168L245.222 63.1688L242.943 63.1688L248.175 76.2234L247.888 77.2078C247.361 78.8133 246.423 80.0145 244.935 80.0145C244.601 80.0145 244.214 79.8973 243.95 79.7977L243.523 81.5496C243.927 81.7195 244.431 81.8133 245.058 81.8133Z" fill="#19191A" fill-opacity="1.000000" transform="matrix(1 0 0 1 236.989 12.4736)"/></g><path d="M5 0L294.057 0C296.817 0 299.057 2.24 299.057 5L299.057 95C299.057 97.76 296.817 100 294.057 100L5 100C2.24 100 0 97.76 0 95L0 5C0 2.24 2.24 0 5 0Z" fill="#E4F6FF" fill-opacity="1.000000" transform="matrix(1 0 0 1 236.989 276.153)"/><path d="M5 0L294.057 0C296.817 0 299.057 2.24 299.057 5L299.057 95C299.057 97.76 296.817 100 294.057 100L5 100C2.24 100 0 97.76 0 95L0 5C0 2.24 2.24 0 5 0Z" fill="none" stroke="#19191A" stroke-opacity="1.000000" stroke-width="2" stroke-dasharray="0 0" transform="matrix(1 0 0 1 236.989 276.153)"/><clipPath id="clip_9_5_0"><path d="M240.189 289.353L530.846 289.353L530.846 380.953L240.189 380.953L240.189 289.353Z"/></clipPath><g clip-path="url(#clip_9_5_0)"><path d="M120.258 26.9285L120.258 25.1531L110.755 25.1531L110.755 20.1375L108.903 20.1375L108.903 25.1531L99.4752 25.1531L99.4752 26.9285L106.723 26.9285C104.971 30.9832 102.018 34.8738 98.8483 36.8133C99.2584 37.1531 99.8326 37.7977 100.12 38.2313C103.577 35.8816 106.671 31.6102 108.522 26.9285L108.903 26.9285L108.903 35.782L103.337 35.782L103.337 37.5574L108.903 37.5574L108.903 42.0223L110.755 42.0223L110.755 37.5574L116.321 37.5574L116.321 35.782L110.755 35.782L110.755 26.9285L111.089 26.9285C112.887 31.6102 115.987 35.9285 119.538 38.1609C119.825 37.6805 120.446 37.0301 120.903 36.6492C117.592 34.7742 114.569 30.9832 112.84 26.9285L120.258 26.9285ZM127.67 27.5496L130.483 27.5496L130.483 25.8504L127.67 25.8504L127.67 20.4012L125.995 20.4012L125.995 25.8504L122.919 25.8504L122.919 27.5496L125.995 27.5496L125.995 35.1609C124.747 35.6883 123.592 36.1453 122.702 36.4559L123.399 38.2313C125.514 37.2938 128.227 36.1219 130.77 34.9207L130.407 33.3387C129.475 33.6961 128.561 34.1063 127.67 34.4871L127.67 27.5496ZM135.71 39.8895C134.151 39.8895 133.84 39.5789 133.84 38.3016L133.84 29.9988L137.057 28.6336L137.057 36.7195L138.762 36.7195L138.762 27.9129L142.096 26.4949C142.096 30.3094 142.049 32.9754 141.926 33.5496C141.809 34.0828 141.569 34.1766 141.206 34.1766C140.942 34.1766 140.174 34.1766 139.6 34.1531C139.817 34.534 139.958 35.2078 140.034 35.6883C140.702 35.6883 141.616 35.6883 142.29 35.5184C142.958 35.3543 143.438 34.9207 143.561 33.9363C143.754 33.0223 143.801 29.448 143.801 24.9598L143.895 24.6258L142.647 24.1453L142.313 24.409L141.926 24.743L138.762 26.0906L138.762 20.1141L137.057 20.1141L137.057 26.782L133.84 28.1531L133.84 22.3465L132.135 22.3465L132.135 28.8738L129.545 29.9754L130.243 31.5105L132.135 30.7195L132.135 38.2781C132.135 40.8504 132.95 41.4949 135.663 41.4949L141.545 41.4949C144.065 41.4949 144.616 40.4402 144.903 37.1766C144.399 37.0828 143.731 36.7898 143.297 36.4793C143.127 39.2391 142.887 39.8895 141.499 39.8895L135.71 39.8895ZM157.747 20.0906C155.391 23.9754 151.12 27.3855 146.702 29.3309C147.182 29.7352 147.686 30.3855 147.979 30.866C149.151 30.2859 150.305 29.618 151.407 28.8973L151.407 38.3309C151.407 40.8211 152.368 41.4246 155.608 41.4246L162.569 41.4246C165.569 41.4246 166.213 40.4402 166.577 36.7898C166.026 36.6727 165.235 36.3621 164.778 36.0457C164.584 39.0984 164.297 39.6727 162.522 39.6727L155.631 39.6727C153.616 39.6727 153.235 39.4324 153.235 38.3016L153.235 30.2859L162.258 30.2859C162.112 33.1922 161.942 34.3934 161.655 34.7273C161.461 34.9207 161.25 34.9676 160.793 34.9676C160.36 34.9676 159.112 34.9441 157.817 34.8211C158.057 35.2781 158.227 35.9285 158.25 36.409C159.569 36.4793 160.864 36.5027 161.538 36.4559C162.235 36.409 162.739 36.2391 163.166 35.782C163.67 35.1844 163.887 33.5496 164.081 29.4246C164.081 29.1375 164.104 28.6102 164.104 28.6102L151.817 28.6102C154.096 27.0223 156.206 25.1063 157.911 22.9676C160.77 26.3309 164.01 28.5574 167.825 30.5262C168.065 29.9988 168.569 29.4012 169.026 29.0145C165.112 27.1922 161.678 25.0066 158.872 21.6492C159.065 21.3855 159.258 21.0984 159.422 20.8348L157.747 20.0906ZM192.592 24.2156L192.592 22.534L184.213 22.534C183.903 21.7898 183.399 20.8348 182.825 20.1141L181.096 20.5945C181.506 21.1453 181.911 21.8895 182.198 22.534L172.817 22.534L172.817 29.4012C172.817 32.8816 172.647 37.7039 170.702 41.1375C171.112 41.3016 171.879 41.8348 172.219 42.1688C174.258 38.5418 174.569 33.1453 174.569 29.4012L174.569 24.2156L192.592 24.2156ZM192.616 36.7195L185.801 36.7195L185.801 33.9598L191.08 33.9598L191.08 32.3543L185.801 32.3543L185.801 29.8348L184.049 29.8348L184.049 32.3543L179.514 32.3543C180.258 31.2703 181.002 29.9988 181.67 28.6805L191.631 28.6805L191.631 27.0691L182.461 27.0691C182.754 26.4949 183.018 25.9207 183.258 25.3465L181.407 24.6961C181.143 25.5105 180.856 26.3016 180.498 27.0691L176.127 27.0691L176.127 28.6805L179.754 28.6805C179.151 29.8582 178.623 30.7898 178.36 31.1766C177.879 31.9441 177.475 32.4715 177.065 32.5652C177.282 33.0457 177.545 33.9363 177.639 34.3172C177.879 34.1063 178.694 33.9598 179.895 33.9598L184.049 33.9598L184.049 36.7195L175.43 36.7195L175.43 38.3543L184.049 38.3543L184.049 42.0223L185.801 42.0223L185.801 38.3543L192.616 38.3543L192.616 36.7195Z" fill="#19191A" fill-opacity="1.000000" transform="matrix(1 0 0 1 236.989 276.153)"/><path d="M57.8229 76.2L67.7311 76.2L67.7311 74.3016L60.0553 74.3016L60.0553 58.6102L57.8229 58.6102L57.8229 76.2ZM75.388 76.5105C78.5814 76.5105 81.4349 74.0145 81.4349 69.6961C81.4349 65.3543 78.5814 62.8348 75.388 62.8348C72.1947 62.8348 69.3412 65.3543 69.3412 69.6961C69.3412 74.0145 72.1947 76.5105 75.388 76.5105ZM75.388 74.6883C73.1322 74.6883 71.6205 72.6961 71.6205 69.6961C71.6205 66.6961 73.1322 64.657 75.388 64.657C77.6439 64.657 79.179 66.6961 79.179 69.6961C79.179 72.6961 77.6439 74.6883 75.388 74.6883ZM90.0023 76.5105C91.5668 76.5105 93.055 75.9129 94.2035 74.8582L93.266 73.3934C92.4515 74.1375 91.3968 74.6883 90.1957 74.6883C87.7992 74.6883 86.1644 72.6961 86.1644 69.6961C86.1644 66.6961 87.8929 64.657 90.2425 64.657C91.3031 64.657 92.0941 65.1375 92.8617 65.8348L93.9867 64.3699C93.055 63.5496 91.8773 62.8348 90.1722 62.8348C86.8382 62.8348 83.8851 65.3543 83.8851 69.6961C83.8851 74.0145 86.5511 76.5105 90.0023 76.5105ZM99.8214 76.5105C101.427 76.5105 102.892 75.6727 104.14 74.6414L104.21 74.6414L104.403 76.2L106.202 76.2L106.202 68.1844C106.202 64.9676 104.861 62.8348 101.691 62.8348C99.6046 62.8348 97.7589 63.7664 96.5578 64.534L97.4191 66.0457C98.4503 65.3543 99.8214 64.657 101.333 64.657C103.466 64.657 104.023 66.2625 104.023 67.9441C98.4738 68.5652 96.007 69.9832 96.007 72.8133C96.007 75.1687 97.6359 76.5105 99.8214 76.5105ZM100.443 74.7586C99.1476 74.7586 98.1398 74.1609 98.1398 72.6727C98.1398 70.991 99.6281 69.9129 104.023 69.3855L104.023 73.0301C102.751 74.1609 101.714 74.7586 100.443 74.7586ZM112.66 76.5105C113.234 76.5105 113.621 76.4402 113.932 76.3172L113.621 74.6414C113.381 74.6883 113.287 74.6883 113.164 74.6883C112.83 74.6883 112.543 74.4246 112.543 73.7508L112.543 57.0984L110.357 57.0984L110.357 73.6102C110.357 75.4559 111.031 76.5105 112.66 76.5105ZM124.999 60.409L127.946 60.409C130.706 60.409 132.218 61.2234 132.218 63.5496C132.218 65.8348 130.706 66.9363 127.946 66.9363L124.999 66.9363L124.999 60.409ZM134.954 76.2L130.443 68.4949C132.845 67.9207 134.427 66.2859 134.427 63.5496C134.427 59.8816 131.86 58.6102 128.286 58.6102L122.767 58.6102L122.767 76.2L124.999 76.2L124.999 68.7352L128.163 68.7352L132.435 76.2L134.954 76.2ZM142.805 76.5105C144.581 76.5105 145.975 75.9129 147.124 75.1687L146.333 73.7273C145.372 74.3777 144.34 74.7586 143.069 74.7586C140.596 74.7586 138.891 72.9832 138.751 70.2L147.534 70.2C147.581 69.8895 147.627 69.4324 147.627 68.952C147.627 65.2312 145.758 62.8348 142.442 62.8348C139.418 62.8348 136.565 65.4715 136.565 69.6961C136.565 73.991 139.348 76.5105 142.805 76.5105ZM138.727 68.6414C138.991 66.0691 140.62 64.5867 142.471 64.5867C144.51 64.5867 145.706 65.9988 145.706 68.6414L138.727 68.6414ZM150.845 81.6961L153.031 81.6961L153.031 77.2781L152.978 74.9988C154.156 75.9598 155.404 76.5105 156.582 76.5105C159.582 76.5105 162.242 73.9441 162.242 69.4793C162.242 65.4715 160.42 62.8348 157.062 62.8348C155.55 62.8348 154.086 63.6961 152.908 64.657L152.837 64.657L152.644 63.1688L150.845 63.1688L150.845 81.6961ZM156.218 74.6883C155.357 74.6883 154.203 74.3309 153.031 73.3172L153.031 66.4793C154.302 65.3016 155.427 64.6805 156.535 64.6805C159.002 64.6805 159.962 66.6258 159.962 69.5027C159.962 72.743 158.38 74.6883 156.218 74.6883ZM170.788 76.5105C173.981 76.5105 176.835 74.0145 176.835 69.6961C176.835 65.3543 173.981 62.8348 170.788 62.8348C167.594 62.8348 164.741 65.3543 164.741 69.6961C164.741 74.0145 167.594 76.5105 170.788 76.5105ZM170.788 74.6883C168.532 74.6883 167.02 72.6961 167.02 69.6961C167.02 66.6961 168.532 64.657 170.788 64.657C173.044 64.657 174.579 66.6961 174.579 69.6961C174.579 72.6961 173.044 74.6883 170.788 74.6883ZM183.674 76.5105C186.75 76.5105 188.425 74.7586 188.425 72.6492C188.425 70.1766 186.34 69.409 184.447 68.6883C182.982 68.1375 181.564 67.6805 181.564 66.4324C181.564 65.4246 182.308 64.5574 183.943 64.5574C185.115 64.5574 186.029 65.0379 186.943 65.7117L187.998 64.2937C186.966 63.5027 185.549 62.8348 183.943 62.8348C181.107 62.8348 179.455 64.4637 179.455 66.5262C179.455 68.7352 181.517 69.6258 183.34 70.2937C184.781 70.8504 186.316 71.448 186.316 72.7664C186.316 73.8973 185.478 74.8055 183.75 74.8055C182.191 74.8055 181.013 74.1844 179.882 73.2703L178.804 74.7117C180.052 75.743 181.828 76.5105 183.674 76.5105ZM191.501 76.2L193.687 76.2L193.687 63.1688L191.501 63.1688L191.501 76.2ZM192.603 60.4793C193.47 60.4793 194.114 59.8816 194.114 59.0613C194.114 58.1766 193.47 57.6492 192.603 57.6492C191.741 57.6492 191.091 58.1766 191.091 59.0613C191.091 59.8816 191.741 60.4793 192.603 60.4793ZM202.203 76.5105C202.994 76.5105 203.861 76.2703 204.605 76.0301L204.171 74.4012C203.738 74.5652 203.14 74.7352 202.683 74.7352C201.171 74.7352 200.668 73.8211 200.668 72.2156L200.668 64.9441L204.195 64.9441L204.195 63.1688L200.668 63.1688L200.668 59.5184L198.845 59.5184L198.582 63.1688L196.543 63.2859L196.543 64.9441L198.482 64.9441L198.482 72.1687C198.482 74.782 199.42 76.5105 202.203 76.5105ZM211.852 76.5105C215.045 76.5105 217.898 74.0145 217.898 69.6961C217.898 65.3543 215.045 62.8348 211.852 62.8348C208.658 62.8348 205.805 65.3543 205.805 69.6961C205.805 74.0145 208.658 76.5105 211.852 76.5105ZM211.852 74.6883C209.596 74.6883 208.084 72.6961 208.084 69.6961C208.084 66.6961 209.596 64.657 211.852 64.657C214.107 64.657 215.643 66.6961 215.643 69.6961C215.643 72.6961 214.107 74.6883 211.852 74.6883ZM221.333 76.2L223.519 76.2L223.519 67.8211C224.38 65.5945 225.722 64.8211 226.806 64.8211C227.333 64.8211 227.644 64.8738 228.077 65.0379L228.482 63.1219C228.077 62.9051 227.667 62.8348 227.093 62.8348C225.628 62.8348 224.31 63.8895 223.396 65.5418L223.325 65.5418L223.132 63.1688L221.333 63.1688L221.333 76.2ZM231.558 81.8133C234.148 81.8133 235.489 79.8504 236.404 77.2781L241.325 63.1688L239.187 63.1688L236.861 70.4168C236.497 71.5652 236.116 72.8895 235.753 74.0613L235.636 74.0613C235.226 72.8895 234.775 71.5418 234.388 70.4168L231.722 63.1688L229.443 63.1688L234.675 76.2234L234.388 77.2078C233.861 78.8133 232.923 80.0145 231.435 80.0145C231.101 80.0145 230.714 79.8973 230.45 79.7977L230.023 81.5496C230.427 81.7195 230.931 81.8133 231.558 81.8133Z" fill="#19191A" fill-opacity="1.000000" transform="matrix(1 0 0 1 236.989 276.153)"/></g><path d="M5 0L294.057 0C296.817 0 299.057 2.24 299.057 5L299.057 95C299.057 97.76 296.817 100 294.057 100L5 100C2.24 100 0 97.76 0 95L0 5C0 2.24 2.24 0 5 0Z" fill="#D6D5FD" fill-opacity="1.000000" transform="matrix(1 0 0 1 236.989 539.832)"/><path d="M5 0L294.057 0C296.817 0 299.057 2.24 299.057 5L299.057 95C299.057 97.76 296.817 100 294.057 100L5 100C2.24 100 0 97.76 0 95L0 5C0 2.24 2.24 0 5 0Z" fill="none" stroke="#19191A" stroke-opacity="1.000000" stroke-width="2" stroke-dasharray="0 0" transform="matrix(1 0 0 1 236.989 539.832)"/><clipPath id="clip_9_6_0"><path d="M240.189 553.032L530.846 553.032L530.846 644.632L240.189 644.632L240.189 553.032Z"/></clipPath><g clip-path="url(#clip_9_6_0)"><path d="M116.848 32.6648L118.53 32.6648L118.53 30.3387L122.151 29.9285L122.128 28.5574C120.926 28.6805 119.731 28.8211 118.53 28.9441L118.53 27.1219L122.274 27.1219L122.274 25.6805L118.53 25.6805L118.53 24.1219L116.848 24.1219L116.848 25.6805L113.754 25.6805C114.422 24.9363 115.073 24.0691 115.723 23.1375L122.227 23.1375L122.227 21.743L116.608 21.743C116.848 21.3387 117.088 20.9754 117.305 20.5652L115.506 20.0613C115.266 20.6414 114.979 21.1922 114.686 21.743L111.182 21.743L111.182 23.1375L113.848 23.1375C113.368 23.9285 112.911 24.5262 112.694 24.7898C112.266 25.3465 111.856 25.7508 111.475 25.827C111.686 26.2781 111.95 27.0984 112.049 27.4559C112.266 27.2625 112.987 27.1219 113.971 27.1219L116.848 27.1219L116.848 29.1141C114.686 29.3016 112.723 29.4949 111.206 29.618L111.376 31.1063L116.848 30.5262L116.848 32.6648ZM127.911 34.534L127.911 36.4793L115.794 36.4793L115.794 34.534L127.911 34.534ZM115.794 39.7664L115.794 37.7742L127.911 37.7742L127.911 39.7664L115.794 39.7664ZM114.088 42.0223L115.794 42.0223L115.794 41.1844L127.911 41.1844L127.911 41.9754L129.663 41.9754L129.663 33.1219L114.088 33.1219L114.088 42.0223ZM132.592 25.4871L124.987 25.4871L124.987 25.3172L124.987 22.9441C127.407 22.7508 130.096 22.3699 131.895 21.8133L130.934 20.4715C129.159 21.0691 126.018 21.5027 123.376 21.7195L123.376 25.2938C123.376 27.2625 123.182 29.8348 121.671 31.7508C122.034 31.9207 122.731 32.4012 123.018 32.6414C124.266 31.0828 124.77 28.8973 124.911 26.952L128.128 26.952L128.128 32.618L129.786 32.618L129.786 26.952L132.592 26.952L132.592 25.4871ZM156.282 24.9598L156.282 23.2313L144.018 23.2313C144.376 22.3465 144.663 21.4559 144.95 20.5418L143.127 20.1141C142.84 21.1453 142.483 22.2 142.073 23.2313L135.446 23.2313L135.446 24.9598L141.352 24.9598C139.793 28.2703 137.608 31.3172 134.678 33.3621C134.971 33.7664 135.399 34.534 135.592 34.9676C136.647 34.2469 137.584 33.3855 138.446 32.4715L138.446 41.9988L140.198 41.9988L140.198 30.3855C141.422 28.7039 142.454 26.8816 143.297 24.9598L156.282 24.9598ZM156.739 33.7898L150.329 33.7898L150.329 32.4012C152.081 31.3172 153.926 29.8582 155.227 28.4402L154.073 27.5262L153.709 27.6492L143.942 27.6492L143.942 29.2781L152.081 29.2781C151.026 30.2156 149.731 31.2 148.553 31.8211L148.553 33.7898L141.926 33.7898L141.926 35.4715L148.553 35.4715L148.553 39.8895C148.553 40.2234 148.454 40.3172 148.026 40.3465C147.616 40.3934 146.174 40.3934 144.592 40.3172C144.833 40.8504 145.073 41.5184 145.167 42.0223C147.206 42.0223 148.53 42.0223 149.321 41.7586C150.112 41.4715 150.329 40.9676 150.329 39.9129L150.329 35.4715L156.739 35.4715L156.739 33.7898ZM161.995 39.6258L161.995 23.1375L179.995 23.1375L179.995 21.4324L160.243 21.4324L160.243 41.3309L180.592 41.3309L180.592 39.6258L161.995 39.6258ZM177.739 36.6727C176.461 35.1375 174.522 33.2156 172.383 31.2469C174.112 29.3016 175.67 27.1922 176.995 24.9598L175.336 24.2859C174.182 26.3016 172.747 28.2938 171.112 30.0984C169.19 28.3699 167.151 26.618 165.329 25.1531L164.081 26.2078C165.95 27.743 167.995 29.5418 169.934 31.3465C167.918 33.409 165.639 35.2313 163.313 36.6258C163.747 36.9129 164.414 37.6102 164.731 37.9441C166.957 36.5027 169.166 34.6336 171.182 32.5418C173.274 34.5105 175.12 36.4559 176.321 37.9441L177.739 36.6727Z" fill="#19191A" fill-opacity="1.000000" transform="matrix(1 0 0 1 236.989 539.832)"/><path d="M97.0354 76.5105C100.709 76.5105 103.012 74.3016 103.012 71.5184C103.012 68.9051 101.43 67.7039 99.3909 66.8133L96.8713 65.7352C95.5002 65.1609 93.9651 64.5105 93.9651 62.8055C93.9651 61.2234 95.26 60.2156 97.2522 60.2156C98.887 60.2156 100.182 60.866 101.26 61.8738L102.438 60.4559C101.19 59.1609 99.3381 58.2703 97.2522 58.2703C94.0588 58.2703 91.7092 60.2391 91.7092 62.952C91.7092 65.5184 93.6545 66.7664 95.2834 67.4637L97.8264 68.5652C99.4846 69.3094 100.756 69.8895 100.756 71.6883C100.756 73.4168 99.3616 74.5652 97.0588 74.5652C95.2366 74.5652 93.4612 73.7039 92.1897 72.3855L90.8713 73.8973C92.4065 75.5027 94.5393 76.5105 97.0354 76.5105ZM109.731 76.5105C110.522 76.5105 111.389 76.2703 112.133 76.0301L111.7 74.4012C111.266 74.5652 110.668 74.7352 110.211 74.7352C108.7 74.7352 108.196 73.8211 108.196 72.2156L108.196 64.9441L111.723 64.9441L111.723 63.1688L108.196 63.1688L108.196 59.5184L106.374 59.5184L106.11 63.1688L104.071 63.2859L104.071 64.9441L106.01 64.9441L106.01 72.1687C106.01 74.782 106.948 76.5105 109.731 76.5105ZM117.101 76.5105C118.707 76.5105 120.172 75.6727 121.42 74.6414L121.49 74.6414L121.683 76.2L123.482 76.2L123.482 68.1844C123.482 64.9676 122.14 62.8348 118.971 62.8348C116.885 62.8348 115.039 63.7664 113.838 64.534L114.699 66.0457C115.73 65.3543 117.101 64.657 118.613 64.657C120.746 64.657 121.303 66.2625 121.303 67.9441C115.754 68.5652 113.287 69.9832 113.287 72.8133C113.287 75.1687 114.916 76.5105 117.101 76.5105ZM117.722 74.7586C116.428 74.7586 115.42 74.1609 115.42 72.6727C115.42 70.991 116.908 69.9129 121.303 69.3855L121.303 73.0301C120.031 74.1609 118.994 74.7586 117.722 74.7586ZM132.026 82.2C136.063 82.2 138.606 80.1141 138.606 77.6883C138.606 75.5496 137.094 74.5945 134.071 74.5945L131.522 74.5945C129.77 74.5945 129.243 74.0145 129.243 73.1766C129.243 72.4559 129.606 72.0223 130.087 71.618C130.661 71.9051 131.382 72.0691 132.026 72.0691C134.669 72.0691 136.778 70.3172 136.778 67.534C136.778 66.409 136.35 65.448 135.723 64.8504L138.389 64.8504L138.389 63.1688L133.854 63.1688C133.397 62.9988 132.747 62.8348 132.026 62.8348C129.389 62.8348 127.133 64.6336 127.133 67.4871C127.133 69.0457 127.971 70.2937 128.839 70.991L128.839 71.0906C128.165 71.5652 127.374 72.4324 127.374 73.5105C127.374 74.5418 127.878 75.2391 128.575 75.6492L128.575 75.743C127.35 76.534 126.63 77.5945 126.63 78.6961C126.63 80.952 128.839 82.2 132.026 82.2ZM132.026 70.5867C130.514 70.5867 129.243 69.3855 129.243 67.4871C129.243 65.5652 130.491 64.4402 132.026 64.4402C133.567 64.4402 134.786 65.5945 134.786 67.4871C134.786 69.3855 133.514 70.5867 132.026 70.5867ZM132.342 80.7117C129.964 80.7117 128.546 79.7977 128.546 78.409C128.546 77.6414 128.956 76.8738 129.893 76.2C130.467 76.3465 131.094 76.4168 131.575 76.4168L133.831 76.4168C135.559 76.4168 136.491 76.8211 136.491 78.0223C136.491 79.3934 134.839 80.7117 132.342 80.7117ZM146.045 76.5105C147.821 76.5105 149.215 75.9129 150.364 75.1687L149.573 73.7273C148.612 74.3777 147.58 74.7586 146.309 74.7586C143.836 74.7586 142.131 72.9832 141.99 70.2L150.774 70.2C150.821 69.8895 150.867 69.4324 150.867 68.952C150.867 65.2312 148.998 62.8348 145.682 62.8348C142.658 62.8348 139.805 65.4715 139.805 69.6961C139.805 73.991 142.588 76.5105 146.045 76.5105ZM141.967 68.6414C142.231 66.0691 143.86 64.5867 145.711 64.5867C147.75 64.5867 148.946 65.9988 148.946 68.6414L141.967 68.6414ZM161.834 69.0457L162.702 66.3621C163.323 64.3699 163.903 62.4715 164.453 60.409L164.547 60.409C165.121 62.448 165.678 64.3699 166.323 66.3621L167.166 69.0457L161.834 69.0457ZM169.399 76.2L171.748 76.2L165.772 58.6102L163.299 58.6102L157.323 76.2L159.578 76.2L161.284 70.8211L167.717 70.8211L169.399 76.2ZM174.029 76.2L176.215 76.2L176.215 67.8211C177.076 65.5945 178.418 64.8211 179.502 64.8211C180.029 64.8211 180.34 64.8738 180.773 65.0379L181.178 63.1219C180.773 62.9051 180.363 62.8348 179.789 62.8348C178.324 62.8348 177.006 63.8895 176.092 65.5418L176.021 65.5418L175.828 63.1688L174.029 63.1688L174.029 76.2ZM188.333 76.5105C190.108 76.5105 191.503 75.9129 192.651 75.1687L191.86 73.7273C190.899 74.3777 189.868 74.7586 188.597 74.7586C186.124 74.7586 184.419 72.9832 184.278 70.2L193.062 70.2C193.108 69.8895 193.155 69.4324 193.155 68.952C193.155 65.2312 191.286 62.8348 187.97 62.8348C184.946 62.8348 182.093 65.4715 182.093 69.6961C182.093 73.991 184.876 76.5105 188.333 76.5105ZM184.255 68.6414C184.519 66.0691 186.148 64.5867 187.999 64.5867C190.038 64.5867 191.233 65.9988 191.233 68.6414L184.255 68.6414ZM198.989 76.5105C200.595 76.5105 202.059 75.6727 203.308 74.6414L203.378 74.6414L203.571 76.2L205.37 76.2L205.37 68.1844C205.37 64.9676 204.028 62.8348 200.858 62.8348C198.772 62.8348 196.927 63.7664 195.725 64.534L196.587 66.0457C197.618 65.3543 198.989 64.657 200.501 64.657C202.634 64.657 203.19 66.2625 203.19 67.9441C197.641 68.5652 195.175 69.9832 195.175 72.8133C195.175 75.1687 196.804 76.5105 198.989 76.5105ZM199.61 74.7586C198.315 74.7586 197.308 74.1609 197.308 72.6727C197.308 70.991 198.796 69.9129 203.19 69.3855L203.19 73.0301C201.919 74.1609 200.882 74.7586 199.61 74.7586Z" fill="#19191A" fill-opacity="1.000000" transform="matrix(1 0 0 1 236.989 539.832)"/></g><path d="M5 0L294.057 0C296.817 0 299.057 2.24 299.057 5L299.057 95C299.057 97.76 296.817 100 294.057 100L5 100C2.24 100 0 97.76 0 95L0 5C0 2.24 2.24 0 5 0Z" fill="#FBF0F8" fill-opacity="1.000000" transform="matrix(1 0 0 1 236.989 803.51)"/><path d="M5 0L294.057 0C296.817 0 299.057 2.24 299.057 5L299.057 95C299.057 97.76 296.817 100 294.057 100L5 100C2.24 100 0 97.76 0 95L0 5C0 2.24 2.24 0 5 0Z" fill="none" stroke="#19191A" stroke-opacity="1.000000" stroke-width="2" stroke-dasharray="0 0" transform="matrix(1 0 0 1 236.989 803.51)"/><clipPath id="clip_9_7_0"><path d="M240.189 816.711L530.846 816.711L530.846 908.311L240.189 908.311L240.189 816.711Z"/></clipPath><g clip-path="url(#clip_9_7_0)"><path d="M125.442 38.4246L125.442 24.6492L134.056 24.6492L134.056 22.827L115.095 22.827L115.095 24.6492L123.497 24.6492L123.497 38.4246L113.847 38.4246L113.847 40.2L135.257 40.2L135.257 38.4246L125.442 38.4246ZM143.419 20.2078C142.071 23.8582 139.862 27.4324 137.489 29.7352C137.823 30.1219 138.351 31.1063 138.521 31.5105C139.335 30.6727 140.149 29.7117 140.894 28.657L140.894 41.9988L142.675 41.9988L142.675 25.8973C143.606 24.2391 144.474 22.4871 145.118 20.7586L143.419 20.2078ZM159.521 25.827L159.521 24.1219L149.536 24.1219C150.017 23.0613 150.474 21.9832 150.855 20.8816L149.149 20.4246C147.978 23.9285 146.032 27.3855 143.87 29.618C144.28 29.9051 144.978 30.5027 145.265 30.8133C146.466 29.4715 147.638 27.743 148.675 25.827L150.327 25.827L150.327 42.0223L152.126 42.0223L152.126 36.2156L159.304 36.2156L159.304 34.534L152.126 34.534L152.126 30.9129L158.97 30.9129L158.97 29.2547L152.126 29.2547L152.126 25.827L159.521 25.827ZM164.683 39.6258L164.683 23.1375L182.683 23.1375L182.683 21.4324L162.931 21.4324L162.931 41.3309L183.28 41.3309L183.28 39.6258L164.683 39.6258ZM180.427 36.6727C179.149 35.1375 177.21 33.2156 175.071 31.2469C176.8 29.3016 178.358 27.1922 179.683 24.9598L178.024 24.2859C176.87 26.3016 175.435 28.2938 173.8 30.0984C171.878 28.3699 169.839 26.618 168.017 25.1531L166.769 26.2078C168.638 27.743 170.683 29.5418 172.622 31.3465C170.606 33.409 168.327 35.2313 166.001 36.6258C166.435 36.9129 167.102 37.6102 167.419 37.9441C169.645 36.5027 171.854 34.6336 173.87 32.5418C175.962 34.5105 177.808 36.4559 179.009 37.9441L180.427 36.6727Z" fill="#19191A" fill-opacity="1.000000" transform="matrix(1 0 0 1 236.989 803.51)"/><path d="M87.4463 76.2L90.0889 76.2L92.7022 65.5945C92.9951 64.2 93.3057 62.9285 93.5928 61.5867L93.6865 61.5867C93.9736 62.9285 94.2432 64.2 94.5537 65.5945L97.2139 76.2L99.8799 76.2L103.53 58.6102L101.392 58.6102L99.5459 68.1844C99.2061 70.0535 98.8721 71.952 98.5381 73.8738L98.415 73.8738C98.0107 71.952 97.6006 70.0535 97.167 68.1844L94.6943 58.6102L92.6787 58.6102L90.2588 68.1844C89.8252 70.0828 89.3916 71.9754 88.9873 73.8738L88.8877 73.8738C88.5537 71.9754 88.1904 70.0828 87.8565 68.1844L86.0107 58.6102L83.7022 58.6102L87.4463 76.2ZM111.448 76.5105C114.641 76.5105 117.495 74.0145 117.495 69.6961C117.495 65.3543 114.641 62.8348 111.448 62.8348C108.255 62.8348 105.401 65.3543 105.401 69.6961C105.401 74.0145 108.255 76.5105 111.448 76.5105ZM111.448 74.6883C109.192 74.6883 107.68 72.6961 107.68 69.6961C107.68 66.6961 109.192 64.657 111.448 64.657C113.704 64.657 115.239 66.6961 115.239 69.6961C115.239 72.6961 113.704 74.6883 111.448 74.6883ZM120.929 76.2L123.115 76.2L123.115 67.8211C123.976 65.5945 125.318 64.8211 126.402 64.8211C126.929 64.8211 127.24 64.8738 127.674 65.0379L128.078 63.1219C127.674 62.9051 127.263 62.8348 126.689 62.8348C125.224 62.8348 123.906 63.8895 122.992 65.5418L122.922 65.5418L122.728 63.1688L120.929 63.1688L120.929 76.2ZM130.241 76.2L132.398 76.2L132.398 72.7664L134.847 69.9129L138.667 76.2L141.04 76.2L136.095 68.4012L140.466 63.1688L138.04 63.1688L132.45 70.0535L132.398 70.0535L132.398 57.0984L130.241 57.0984L130.241 76.2ZM153.951 76.5105C157.625 76.5105 159.928 74.3016 159.928 71.5184C159.928 68.9051 158.346 67.7039 156.307 66.8133L153.787 65.7352C152.416 65.1609 150.881 64.5105 150.881 62.8055C150.881 61.2234 152.176 60.2156 154.168 60.2156C155.803 60.2156 157.098 60.866 158.176 61.8738L159.354 60.4559C158.106 59.1609 156.254 58.2703 154.168 58.2703C150.975 58.2703 148.625 60.2391 148.625 62.952C148.625 65.5184 150.57 66.7664 152.199 67.4637L154.742 68.5652C156.4 69.3094 157.672 69.8895 157.672 71.6883C157.672 73.4168 156.277 74.5652 153.975 74.5652C152.152 74.5652 150.377 73.7039 149.106 72.3855L147.787 73.8973C149.322 75.5027 151.455 76.5105 153.951 76.5105ZM163.193 81.6961L165.379 81.6961L165.379 77.2781L165.326 74.9988C166.504 75.9598 167.752 76.5105 168.93 76.5105C171.93 76.5105 174.59 73.9441 174.59 69.4793C174.59 65.4715 172.767 62.8348 169.41 62.8348C167.898 62.8348 166.433 63.6961 165.256 64.657L165.185 64.657L164.992 63.1688L163.193 63.1688L163.193 81.6961ZM168.566 74.6883C167.705 74.6883 166.551 74.3309 165.379 73.3172L165.379 66.4793C166.65 65.3016 167.775 64.6805 168.883 64.6805C171.35 64.6805 172.31 66.6258 172.31 69.5027C172.31 72.743 170.728 74.6883 168.566 74.6883ZM180.689 76.5105C182.295 76.5105 183.76 75.6727 185.008 74.6414L185.078 74.6414L185.271 76.2L187.07 76.2L187.07 68.1844C187.07 64.9676 185.728 62.8348 182.558 62.8348C180.472 62.8348 178.627 63.7664 177.426 64.534L178.287 66.0457C179.318 65.3543 180.689 64.657 182.201 64.657C184.334 64.657 184.89 66.2625 184.89 67.9441C179.342 68.5652 176.875 69.9832 176.875 72.8133C176.875 75.1687 178.504 76.5105 180.689 76.5105ZM181.31 74.7586C180.015 74.7586 179.008 74.1609 179.008 72.6727C179.008 70.991 180.496 69.9129 184.89 69.3855L184.89 73.0301C183.619 74.1609 182.582 74.7586 181.31 74.7586ZM196.358 76.5105C197.922 76.5105 199.411 75.9129 200.559 74.8582L199.622 73.3934C198.807 74.1375 197.753 74.6883 196.551 74.6883C194.155 74.6883 192.52 72.6961 192.52 69.6961C192.52 66.6961 194.249 64.657 196.598 64.657C197.659 64.657 198.45 65.1375 199.217 65.8348L200.342 64.3699C199.411 63.5496 198.233 62.8348 196.528 62.8348C193.194 62.8348 190.241 65.3543 190.241 69.6961C190.241 74.0145 192.907 76.5105 196.358 76.5105ZM208.121 76.5105C209.896 76.5105 211.291 75.9129 212.439 75.1687L211.648 73.7273C210.687 74.3777 209.656 74.7586 208.385 74.7586C205.912 74.7586 204.207 72.9832 204.066 70.2L212.85 70.2C212.896 69.8895 212.943 69.4324 212.943 68.952C212.943 65.2312 211.074 62.8348 207.758 62.8348C204.734 62.8348 201.881 65.4715 201.881 69.6961C201.881 73.991 204.664 76.5105 208.121 76.5105ZM204.043 68.6414C204.307 66.0691 205.935 64.5867 207.787 64.5867C209.826 64.5867 211.021 65.9988 211.021 68.6414L204.043 68.6414Z" fill="#19191A" fill-opacity="1.000000" transform="matrix(1 0 0 1 236.989 803.51)"/></g><path d="M0 -163.679L-6 -153.287L6 -153.287L0 -163.679Z" transform="matrix(1 0 0 1 386.517 803.51)" fill="#19191A" fill-opacity="1.000000" stroke="none"/><path d="M0 0L0 -157.679" fill="none" stroke="#19191A" stroke-opacity="1.000000" stroke-width="2" stroke-linejoin="round" stroke-dasharray="0 0" transform="matrix(1 0 0 1 386.517 803.51)"/><path d="M-16.439 -60.4031Q-14.5176 -60.4031 -12.3595 -62.1863L-12.2555 -62.2722L-11.7189 -62.2722L-11.4848 -60.3848L-11.8569 -60.3386L-11.8569 -60.7136L-10.0581 -60.7136L-10.0581 -60.3386L-10.4331 -60.3386L-10.4331 -68.3542Q-10.4331 -73.3288 -14.5698 -73.3288Q-16.934 -73.3288 -19.5007 -71.6886L-19.7026 -72.0046L-19.3768 -72.1903L-18.5155 -70.6786L-18.8413 -70.4929L-19.0501 -70.8044Q-16.8841 -72.2566 -14.9272 -72.2566Q-11.8628 -72.2566 -11.8628 -68.5945L-11.8628 -68.2591L-12.1961 -68.2218Q-19.8784 -67.3619 -19.8784 -63.7253Q-19.8784 -62.1641 -18.911 -61.2686Q-17.9761 -60.4031 -16.439 -60.4031ZM-16.439 -59.6531Q-18.2699 -59.6531 -19.4205 -60.7182Q-20.6284 -61.8364 -20.6284 -63.7253Q-20.6284 -68.0326 -12.2795 -68.9671L-12.2378 -68.5945L-12.6128 -68.5945Q-12.6128 -71.5066 -14.9272 -71.5066Q-16.656 -71.5066 -18.6325 -70.1814L-18.9675 -69.9568L-20.2049 -72.1287L-19.9046 -72.3206Q-17.1531 -74.0788 -14.5698 -74.0788Q-9.6831 -74.0788 -9.6831 -68.3542L-9.6831 -59.9636L-12.1883 -59.9636L-12.4224 -61.851L-12.0503 -61.8972L-12.0503 -61.5222L-12.1206 -61.5222L-12.1206 -61.8972L-11.8817 -61.6081Q-14.2478 -59.6531 -16.439 -59.6531ZM-15.8179 -61.405Q-18.4956 -61.405 -18.4956 -63.866Q-18.4956 -66.7798 -12.2825 -67.5254L-11.8628 -67.5758L-11.8628 -63.3402L-11.9886 -63.2283Q-14.0386 -61.405 -15.8179 -61.405ZM-15.8179 -62.155Q-14.3239 -62.155 -12.487 -63.7887L-12.2378 -63.5085L-12.6128 -63.5085L-12.6128 -67.1531L-12.2378 -67.1531L-12.1931 -66.7807Q-17.7456 -66.1144 -17.7456 -63.866Q-17.7456 -62.155 -15.8179 -62.155ZM-15.8179 -61.78C-14.5464 -61.78 -13.5093 -62.3777 -12.2378 -63.5085L-12.2378 -67.1531C-16.6323 -66.6257 -18.1206 -65.5476 -18.1206 -63.866C-18.1206 -62.3777 -17.1128 -61.78 -15.8179 -61.78ZM-16.439 -60.0281C-18.6245 -60.0281 -20.2534 -61.3699 -20.2534 -63.7253C-20.2534 -66.5554 -17.7866 -67.9734 -12.2378 -68.5945C-12.2378 -70.2761 -12.7944 -71.8816 -14.9272 -71.8816C-16.439 -71.8816 -17.8101 -71.1843 -18.8413 -70.4929L-19.7026 -72.0046C-18.5015 -72.7722 -16.6558 -73.7038 -14.5698 -73.7038C-11.3999 -73.7038 -10.0581 -71.571 -10.0581 -68.3542L-10.0581 -60.3386L-11.8569 -60.3386L-12.0503 -61.8972L-12.1206 -61.8972C-13.3686 -60.866 -14.8335 -60.0281 -16.439 -60.0281ZM-1.46159 -60.4031Q0.452055 -60.4031 2.23139 -62.142L2.34068 -62.2488L2.87322 -62.2488L3.12867 -60.3897L2.75716 -60.3386L2.75716 -60.7136L4.53841 -60.7136L4.53841 -60.3386L4.16341 -60.3386L4.16341 -79.4402L4.53841 -79.4402L4.53841 -79.0652L2.35287 -79.0652L2.35287 -79.4402L2.72787 -79.4402L2.72787 -74.4246L2.35287 -74.4246L2.72736 -74.444L2.88918 -71.329L2.22941 -71.8811Q0.499153 -73.3288 -1.19791 -73.3288Q-3.35002 -73.3288 -4.85316 -71.6105Q-6.46549 -69.7674 -6.46549 -66.8425Q-6.46549 -63.7558 -5.08308 -62.0426Q-3.76007 -60.4031 -1.46159 -60.4031ZM-1.46159 -59.6531Q-4.11859 -59.6531 -5.66675 -61.5716Q-7.21549 -63.4909 -7.21549 -66.8425Q-7.21549 -70.0491 -5.41766 -72.1043Q-3.6904 -74.0788 -1.19791 -74.0788Q0.771551 -74.0788 2.7107 -72.4563L2.47005 -72.1687L2.09556 -72.1492L1.97787 -74.4148L1.97787 -79.8152L4.91341 -79.8152L4.91341 -59.9636L2.43017 -59.9636L2.17472 -61.8227L2.54623 -61.8738L2.54623 -61.4988L2.49349 -61.4988L2.49349 -61.8738L2.75559 -61.6056Q0.757679 -59.6531 -1.46159 -59.6531ZM-0.981117 -61.4753Q-4.95963 -61.4753 -4.95963 -66.866Q-4.95963 -69.1951 -3.78837 -70.7078Q-2.60741 -72.2331 -0.817055 -72.2331Q0.959553 -72.2331 2.602 -70.7732L2.72787 -70.6613L2.72787 -63.5056L2.63194 -63.3987Q0.905624 -61.4753 -0.981117 -61.4753ZM-0.981117 -62.2253Q0.570993 -62.2253 2.07379 -63.8996L2.35287 -63.6492L1.97787 -63.6492L1.97787 -70.4929L2.35287 -70.4929L2.10373 -70.2126Q0.674402 -71.4831 -0.817055 -71.4831Q-2.23957 -71.4831 -3.19535 -70.2487Q-4.20963 -68.9387 -4.20963 -66.866Q-4.20963 -62.2253 -0.981117 -62.2253ZM-0.981117 -61.8503C0.214195 -61.8503 1.27474 -62.448 2.35287 -63.6492L2.35287 -70.4929C1.24545 -71.4773 0.26693 -71.8581 -0.817055 -71.8581C-2.92643 -71.8581 -4.58463 -69.8425 -4.58463 -66.866C-4.58463 -63.7253 -3.28971 -61.8503 -0.981117 -61.8503ZM-1.46159 -60.0281C-4.72526 -60.0281 -6.84049 -62.5007 -6.84049 -66.8425C-6.84049 -71.0671 -4.17448 -73.7038 -1.19791 -73.7038C0.337242 -73.7038 1.32162 -73.1296 2.47005 -72.1687L2.35287 -74.4246L2.35287 -79.4402L4.53841 -79.4402L4.53841 -60.3386L2.75716 -60.3386L2.54623 -61.8738L2.49349 -61.8738C1.46224 -60.866 0.0970078 -60.0281 -1.46159 -60.0281ZM13.4184 -60.4031Q15.332 -60.4031 17.1114 -62.142L17.2206 -62.2488L17.7532 -62.2488L18.0086 -60.3897L17.6371 -60.3386L17.6371 -60.7136L19.4184 -60.7136L19.4184 -60.3386L19.0434 -60.3386L19.0434 -79.4402L19.4184 -79.4402L19.4184 -79.0652L17.2328 -79.0652L17.2328 -79.4402L17.6078 -79.4402L17.6078 -74.4246L17.2328 -74.4246L17.6073 -74.444L17.7691 -71.329L17.1094 -71.8811Q15.3791 -73.3288 13.682 -73.3288Q11.5299 -73.3288 10.0268 -71.6105Q8.41447 -69.7674 8.41447 -66.8425Q8.41447 -63.7558 9.79688 -62.0426Q11.1199 -60.4031 13.4184 -60.4031ZM13.4184 -59.6531Q10.7614 -59.6531 9.21321 -61.5716Q7.66447 -63.4909 7.66447 -66.8425Q7.66447 -70.0491 9.4623 -72.1043Q11.1896 -74.0788 13.682 -74.0788Q15.6515 -74.0788 17.5907 -72.4563L17.35 -72.1687L16.9755 -72.1492L16.8578 -74.4148L16.8578 -79.8152L19.7934 -79.8152L19.7934 -59.9636L17.3101 -59.9636L17.0547 -61.8227L17.4262 -61.8738L17.4262 -61.4988L17.3735 -61.4988L17.3735 -61.8738L17.6356 -61.6056Q15.6376 -59.6531 13.4184 -59.6531ZM13.8988 -61.4753Q9.92033 -61.4753 9.92033 -66.866Q9.92033 -69.1951 11.0916 -70.7078Q12.2726 -72.2331 14.0629 -72.2331Q15.8395 -72.2331 17.482 -70.7732L17.6078 -70.6613L17.6078 -63.5056L17.5119 -63.3987Q15.7856 -61.4753 13.8988 -61.4753ZM13.8988 -62.2253Q15.451 -62.2253 16.9538 -63.8996L17.2328 -63.6492L16.8578 -63.6492L16.8578 -70.4929L17.2328 -70.4929L16.9837 -70.2126Q15.5544 -71.4831 14.0629 -71.4831Q12.6404 -71.4831 11.6846 -70.2487Q10.6703 -68.9387 10.6703 -66.866Q10.6703 -62.2253 13.8988 -62.2253ZM13.8988 -61.8503C15.0942 -61.8503 16.1547 -62.448 17.2328 -63.6492L17.2328 -70.4929C16.1254 -71.4773 15.1469 -71.8581 14.0629 -71.8581C11.9535 -71.8581 10.2953 -69.8425 10.2953 -66.866C10.2953 -63.7253 11.5902 -61.8503 13.8988 -61.8503ZM13.4184 -60.0281C10.1547 -60.0281 8.03947 -62.5007 8.03947 -66.8425C8.03947 -71.0671 10.7055 -73.7038 13.682 -73.7038C15.2172 -73.7038 16.2016 -73.1296 17.35 -72.1687L17.2328 -74.4246L17.2328 -79.4402L19.4184 -79.4402L19.4184 -60.3386L17.6371 -60.3386L17.4262 -61.8738L17.3735 -61.8738C16.3422 -60.866 14.977 -60.0281 13.4184 -60.0281Z" fill="#19191A" fill-opacity="1.000000" transform="matrix(1 0 0 1 386.517 803.51)"/><path d="M0 -163.679L-6 -153.287L6 -153.287L0 -163.679Z" transform="matrix(1 0 0 1 386.517 539.832)" fill="#19191A" fill-opacity="1.000000" stroke="none"/><path d="M0 0L0 -157.679" fill="none" stroke="#19191A" stroke-opacity="1.000000" stroke-width="2" stroke-linejoin="round" stroke-dasharray="0 0" transform="matrix(1 0 0 1 386.517 539.832)"/><path d="M-35.7981 -73.1394Q-33.5422 -73.1394 -31.8506 -74.6929L-31.5969 -74.4167L-31.9128 -74.2146L-32.8503 -75.6794L-32.5344 -75.8816L-32.2815 -75.6047Q-33.8062 -74.2117 -35.6047 -74.2117Q-37.5854 -74.2117 -38.8102 -75.7215Q-40.011 -77.2016 -40.011 -79.5788Q-40.011 -81.946 -38.7679 -83.4612Q-37.5114 -84.9929 -35.5578 -84.9929Q-34.0903 -84.9929 -32.6866 -83.7177L-32.9387 -83.4402L-33.2361 -83.6686L-32.1111 -85.1334L-31.8137 -84.905L-32.0615 -84.6236Q-33.6988 -86.0652 -35.6282 -86.0652Q-38.0895 -86.0652 -39.7548 -84.3745Q-41.5403 -82.5619 -41.5403 -79.5788Q-41.5403 -76.5715 -39.8781 -74.8096Q-38.3025 -73.1394 -35.7981 -73.1394ZM-35.7981 -72.3894Q-38.626 -72.3894 -40.4236 -74.2949Q-42.2903 -76.2736 -42.2903 -79.5788Q-42.2903 -82.8692 -40.2891 -84.9008Q-38.4035 -86.8152 -35.6282 -86.8152Q-33.4156 -86.8152 -31.5659 -85.1865L-31.3027 -84.9547L-32.8894 -82.8887L-33.1908 -83.1626Q-34.3801 -84.2429 -35.5578 -84.2429Q-37.1566 -84.2429 -38.1881 -82.9855Q-39.261 -81.6777 -39.261 -79.5788Q-39.261 -77.4676 -38.2278 -76.194Q-37.2281 -74.9617 -35.6047 -74.9617Q-34.0972 -74.9617 -32.7873 -76.1584L-32.4586 -76.4588L-31.1113 -74.3536L-31.3433 -74.1405Q-33.25 -72.3894 -35.7981 -72.3894ZM-35.7981 -72.7644C-39.2492 -72.7644 -41.9153 -75.2605 -41.9153 -79.5788C-41.9153 -83.9206 -38.9621 -86.4402 -35.6282 -86.4402C-33.9231 -86.4402 -32.7453 -85.7253 -31.8137 -84.905L-32.9387 -83.4402C-33.7063 -84.1374 -34.4973 -84.6179 -35.5578 -84.6179C-37.9074 -84.6179 -39.636 -82.5788 -39.636 -79.5788C-39.636 -76.5788 -38.0012 -74.5867 -35.6047 -74.5867C-34.4035 -74.5867 -33.3489 -75.1374 -32.5344 -75.8816L-31.5969 -74.4167C-32.7453 -73.362 -34.2336 -72.7644 -35.7981 -72.7644ZM-24.2284 -73.1394Q-21.8769 -73.1394 -20.2786 -74.8114Q-18.5566 -76.6127 -18.5566 -79.5788Q-18.5566 -82.5636 -20.2795 -84.3796Q-21.8788 -86.0652 -24.2284 -86.0652Q-26.5781 -86.0652 -28.1773 -84.3796Q-29.9003 -82.5636 -29.9003 -79.5788Q-29.9003 -76.6127 -28.1783 -74.8114Q-26.58 -73.1394 -24.2284 -73.1394ZM-24.2284 -72.3894Q-26.9006 -72.3894 -28.7204 -74.2931Q-30.6503 -76.3119 -30.6503 -79.5788Q-30.6503 -82.8628 -28.7214 -84.8958Q-26.9003 -86.8152 -24.2284 -86.8152Q-21.5565 -86.8152 -19.7354 -84.8958Q-17.8066 -82.8628 -17.8066 -79.5788Q-17.8066 -76.3119 -19.7364 -74.2931Q-21.5563 -72.3894 -24.2284 -72.3894ZM-24.2284 -74.2117Q-26.1084 -74.2117 -27.2573 -75.7316Q-28.371 -77.205 -28.371 -79.5788Q-28.371 -81.9564 -27.2588 -83.4476Q-26.1062 -84.9929 -24.2284 -84.9929Q-22.3492 -84.9929 -21.1873 -83.4489Q-20.0624 -81.9539 -20.0624 -79.5788Q-20.0624 -77.2074 -21.1888 -75.7304Q-22.3469 -74.2117 -24.2284 -74.2117ZM-24.2284 -74.9617Q-22.7182 -74.9617 -21.7852 -76.1851Q-20.8124 -77.4607 -20.8124 -79.5788Q-20.8124 -81.7032 -21.7866 -82.9979Q-22.7235 -84.2429 -24.2284 -84.2429Q-25.7299 -84.2429 -26.6576 -82.9992Q-27.621 -81.7075 -27.621 -79.5788Q-27.621 -77.4566 -26.659 -76.1839Q-25.7352 -74.9617 -24.2284 -74.9617ZM-24.2284 -74.5867C-21.9726 -74.5867 -20.4374 -76.5788 -20.4374 -79.5788C-20.4374 -82.5788 -21.9726 -84.6179 -24.2284 -84.6179C-26.4843 -84.6179 -27.996 -82.5788 -27.996 -79.5788C-27.996 -76.5788 -26.4843 -74.5867 -24.2284 -74.5867ZM-24.2284 -72.7644C-27.4218 -72.7644 -30.2753 -75.2605 -30.2753 -79.5788C-30.2753 -83.9206 -27.4218 -86.4402 -24.2284 -86.4402C-21.0351 -86.4402 -18.1816 -83.9206 -18.1816 -79.5788C-18.1816 -75.2605 -21.0351 -72.7644 -24.2284 -72.7644ZM-14.747 -73.4499L-12.5614 -73.4499L-12.5614 -73.0749L-12.9364 -73.0749L-12.9364 -82.6748L-12.8414 -82.7814Q-10.9549 -84.8992 -9.27431 -84.8992Q-6.47939 -84.8992 -6.47939 -81.0437L-6.47939 -73.0749L-6.85439 -73.0749L-6.85439 -73.4499L-4.66885 -73.4499L-4.66885 -73.0749L-5.04385 -73.0749L-5.04385 -82.6774L-4.94583 -82.7848Q-3.01609 -84.8992 -1.38174 -84.8992Q1.41904 -84.8992 1.41904 -81.0437L1.41904 -73.0749L1.04404 -73.0749L1.04404 -73.4499L3.22959 -73.4499L3.22959 -73.0749L2.85459 -73.0749L2.85459 -81.3308Q2.85459 -86.0652 -0.731346 -86.0652Q-2.5748 -86.0652 -4.74974 -83.6908L-5.17651 -83.2249L-5.38107 -83.8227Q-6.14846 -86.0652 -8.62978 -86.0652Q-10.5007 -86.0652 -12.4066 -83.9618L-12.5182 -83.8386L-13.0934 -83.8386L-13.3212 -86.0681L-12.9481 -86.1062L-12.9481 -85.7312L-14.747 -85.7312L-14.747 -86.1062L-14.372 -86.1062L-14.372 -73.0749L-14.747 -73.0749L-14.747 -73.4499ZM-15.122 -72.6999L-15.122 -86.4812L-12.6095 -86.4812L-12.3817 -84.2517L-12.7548 -84.2136L-12.7548 -84.5886L-12.6845 -84.5886L-12.6845 -84.2136L-12.9624 -84.4654Q-10.8332 -86.8152 -8.62978 -86.8152Q-5.61242 -86.8152 -4.67147 -84.0655L-5.02627 -83.9441L-5.30279 -84.1974Q-2.90489 -86.8152 -0.731346 -86.8152Q3.60459 -86.8152 3.60459 -81.3308L3.60459 -72.6999L0.669044 -72.6999L0.669044 -81.0437Q0.669044 -84.1492 -1.38174 -84.1492Q-2.6852 -84.1492 -4.39186 -82.2792L-4.66885 -82.532L-4.29385 -82.532L-4.29385 -72.6999L-7.22939 -72.6999L-7.22939 -81.0437Q-7.22939 -84.1492 -9.27431 -84.1492Q-10.6186 -84.1492 -12.2814 -82.2825L-12.5614 -82.532L-12.1864 -82.532L-12.1864 -72.6999L-14.747 -72.6999L-15.122 -72.6999ZM-14.747 -73.0749L-14.747 -86.1062L-12.9481 -86.1062L-12.7548 -84.2136L-12.6845 -84.2136C-11.5536 -85.4617 -10.1884 -86.4402 -8.62978 -86.4402C-6.6376 -86.4402 -5.55361 -85.4851 -5.02627 -83.9441C-3.68447 -85.4089 -2.31338 -86.4402 -0.731346 -86.4402C1.95811 -86.4402 3.22959 -84.6648 3.22959 -81.3308L3.22959 -73.0749L1.04404 -73.0749L1.04404 -81.0437C1.04404 -83.4929 0.276466 -84.5242 -1.38174 -84.5242C-2.38955 -84.5242 -3.44424 -83.8738 -4.66885 -82.532L-4.66885 -73.0749L-6.85439 -73.0749L-6.85439 -81.0437C-6.85439 -83.4929 -7.62197 -84.5242 -9.27431 -84.5242C-10.2587 -84.5242 -11.3661 -83.8738 -12.5614 -82.532L-12.5614 -73.0749L-14.747 -73.0749ZM7.47697 -73.4499L9.66251 -73.4499L9.66251 -73.0749L9.28751 -73.0749L9.28751 -82.6748L9.38251 -82.7814Q11.2691 -84.8992 12.9496 -84.8992Q15.7445 -84.8992 15.7445 -81.0437L15.7445 -73.0749L15.3695 -73.0749L15.3695 -73.4499L17.5551 -73.4499L17.5551 -73.0749L17.1801 -73.0749L17.1801 -82.6774L17.2781 -82.7848Q19.2078 -84.8992 20.8422 -84.8992Q23.643 -84.8992 23.643 -81.0437L23.643 -73.0749L23.268 -73.0749L23.268 -73.4499L25.4535 -73.4499L25.4535 -73.0749L25.0785 -73.0749L25.0785 -81.3308Q25.0785 -86.0652 21.4926 -86.0652Q19.6491 -86.0652 17.4742 -83.6908L17.0474 -83.2249L16.8429 -83.8227Q16.0755 -86.0652 13.5942 -86.0652Q11.7232 -86.0652 9.81736 -83.9618L9.70572 -83.8386L9.13052 -83.8386L8.90274 -86.0681L9.27579 -86.1062L9.27579 -85.7312L7.47697 -85.7312L7.47697 -86.1062L7.85197 -86.1062L7.85197 -73.0749L7.47697 -73.0749L7.47697 -73.4499ZM7.10197 -72.6999L7.10197 -86.4812L9.61443 -86.4812L9.84221 -84.2517L9.46915 -84.2136L9.46915 -84.5886L9.53947 -84.5886L9.53947 -84.2136L9.26158 -84.4654Q11.3907 -86.8152 13.5942 -86.8152Q16.6115 -86.8152 17.5525 -84.0655L17.1977 -83.9441L16.9211 -84.1974Q19.319 -86.8152 21.4926 -86.8152Q25.8285 -86.8152 25.8285 -81.3308L25.8285 -72.6999L22.893 -72.6999L22.893 -81.0437Q22.893 -84.1492 20.8422 -84.1492Q19.5387 -84.1492 17.8321 -82.2792L17.5551 -82.532L17.9301 -82.532L17.9301 -72.6999L14.9945 -72.6999L14.9945 -81.0437Q14.9945 -84.1492 12.9496 -84.1492Q11.6054 -84.1492 9.94252 -82.2825L9.66251 -82.532L10.0375 -82.532L10.0375 -72.6999L7.47697 -72.6999L7.10197 -72.6999ZM7.47697 -73.0749L7.47697 -86.1062L9.27579 -86.1062L9.46915 -84.2136L9.53947 -84.2136C10.6703 -85.4617 12.0356 -86.4402 13.5942 -86.4402C15.5863 -86.4402 16.6703 -85.4851 17.1977 -83.9441C18.5395 -85.4089 19.9106 -86.4402 21.4926 -86.4402C24.182 -86.4402 25.4535 -84.6648 25.4535 -81.3308L25.4535 -73.0749L23.268 -73.0749L23.268 -81.0437C23.268 -83.4929 22.5004 -84.5242 20.8422 -84.5242C19.8344 -84.5242 18.7797 -83.8738 17.5551 -82.532L17.5551 -73.0749L15.3695 -73.0749L15.3695 -81.0437C15.3695 -83.4929 14.602 -84.5242 12.9496 -84.5242C11.9652 -84.5242 10.8578 -83.8738 9.66251 -82.532L9.66251 -73.0749L7.47697 -73.0749ZM29.7009 -73.4499L31.8865 -73.4499L31.8865 -73.0749L31.5115 -73.0749L31.5115 -86.1062L31.8865 -86.1062L31.8865 -85.7312L29.7009 -85.7312L29.7009 -86.1062L30.0759 -86.1062L30.0759 -73.0749L29.7009 -73.0749L29.7009 -73.4499ZM29.3259 -72.6999L29.3259 -86.4812L32.2615 -86.4812L32.2615 -72.6999L29.7009 -72.6999L29.3259 -72.6999ZM30.8025 -89.1706Q31.9392 -89.1706 31.9392 -90.2136Q31.9392 -91.2507 30.8025 -91.2507Q29.6657 -91.2507 29.6657 -90.2136Q29.6657 -89.1706 30.8025 -89.1706ZM30.8025 -88.4206Q30.0065 -88.4206 29.4679 -88.9227Q28.9157 -89.4375 28.9157 -90.2136Q28.9157 -92.0007 30.8025 -92.0007Q32.6892 -92.0007 32.6892 -90.2136Q32.6892 -89.4368 32.1396 -88.9231Q31.6021 -88.4206 30.8025 -88.4206ZM30.8025 -88.7956C29.9411 -88.7956 29.2907 -89.3933 29.2907 -90.2136C29.2907 -91.0984 29.9411 -91.6257 30.8025 -91.6257C31.6697 -91.6257 32.3142 -91.0984 32.3142 -90.2136C32.3142 -89.3933 31.6697 -88.7956 30.8025 -88.7956ZM29.7009 -73.0749L29.7009 -86.1062L31.8865 -86.1062L31.8865 -73.0749L29.7009 -73.0749ZM40.4024 -73.1394Q41.2575 -73.1394 42.6896 -73.6017L42.8048 -73.2449L42.4424 -73.1484L42.0088 -74.7773L42.3712 -74.8738L42.5039 -74.523Q41.5571 -74.1648 40.8829 -74.1648Q38.4923 -74.1648 38.4923 -77.0593L38.4923 -84.7058L42.3946 -84.7058L42.3946 -84.3308L42.0196 -84.3308L42.0196 -86.1062L42.3946 -86.1062L42.3946 -85.7312L38.4923 -85.7312L38.4923 -89.7566L38.8673 -89.7566L38.8673 -89.3816L37.045 -89.3816L37.045 -89.7566L37.419 -89.7296L37.1316 -85.7507L34.7638 -85.6146L34.7423 -85.989L35.1173 -85.989L35.1173 -84.3308L34.7423 -84.3308L34.7423 -84.7058L37.0567 -84.7058L37.0567 -77.1062Q37.0567 -73.1394 40.4024 -73.1394ZM40.4024 -72.3894Q36.3067 -72.3894 36.3067 -77.1062L36.3067 -84.3308L36.6817 -84.3308L36.6817 -83.9558L34.3673 -83.9558L34.3673 -86.3431L36.7598 -86.4806L36.7813 -86.1062L36.4073 -86.1332L36.6961 -90.1316L39.2423 -90.1316L39.2423 -86.1062L38.8673 -86.1062L38.8673 -86.4812L42.7696 -86.4812L42.7696 -83.9558L38.8673 -83.9558L38.8673 -84.3308L39.2423 -84.3308L39.2423 -77.0593Q39.2423 -74.9148 40.8829 -74.9148Q41.4199 -74.9148 42.2385 -75.2245L42.6268 -75.3714L43.2587 -72.9973L42.92 -72.888Q41.3755 -72.3894 40.4024 -72.3894ZM40.4024 -72.7644C37.6192 -72.7644 36.6817 -74.4929 36.6817 -77.1062L36.6817 -84.3308L34.7423 -84.3308L34.7423 -85.989L36.7813 -86.1062L37.045 -89.7566L38.8673 -89.7566L38.8673 -86.1062L42.3946 -86.1062L42.3946 -84.3308L38.8673 -84.3308L38.8673 -77.0593C38.8673 -75.4538 39.3712 -74.5398 40.8829 -74.5398C41.3399 -74.5398 41.9376 -74.7097 42.3712 -74.8738L42.8048 -73.2449C42.0606 -73.0046 41.1935 -72.7644 40.4024 -72.7644Z" fill="#19191A" fill-opacity="1.000000" transform="matrix(1 0 0 1 386.517 539.832)"/><path d="M0 -163.679L-6 -153.287L6 -153.287L0 -163.679Z" transform="matrix(1 0 0 1 386.517 276.152)" fill="#19191A" fill-opacity="1.000000" stroke="none"/><path d="M0 0L0 -157.679" fill="none" stroke="#19191A" stroke-opacity="1.000000" stroke-width="2" stroke-linejoin="round" stroke-dasharray="0 0" transform="matrix(1 0 0 1 386.517 276.152)"/><path d="M-25.4149 -58.9917L-23.2294 -58.9917L-23.2294 -58.6167L-23.6044 -58.6167L-23.6044 -63.0347L-23.2294 -63.0347L-23.6043 -63.026L-23.6759 -66.1192L-23.0451 -65.6045Q-21.2958 -64.1772 -19.6786 -64.1772Q-17.491 -64.1772 -16.0069 -65.8892Q-14.3935 -67.7503 -14.3935 -70.8335Q-14.3934 -73.7691 -15.6486 -75.4328Q-16.9086 -77.103 -19.1981 -77.103Q-20.9855 -77.103 -23.1154 -75.3652L-23.2189 -75.2807L-23.7522 -75.2807L-23.988 -77.0957L-23.6161 -77.144L-23.6161 -76.769L-25.4149 -76.769L-25.4149 -77.144L-25.0399 -77.144L-25.0399 -58.6167L-25.4149 -58.6167L-25.4149 -58.9917ZM-25.7899 -58.2417L-25.7899 -77.519L-23.2867 -77.519L-23.0509 -75.7041L-23.4228 -75.6557L-23.4228 -76.0307L-23.3524 -76.0307L-23.3524 -75.6557L-23.5895 -75.9463Q-21.2526 -77.853 -19.1981 -77.853Q-16.535 -77.853 -15.0499 -75.8845Q-13.6435 -74.0202 -13.6435 -70.8335Q-13.6435 -67.4705 -15.4402 -65.3979Q-17.1486 -63.4272 -19.6786 -63.4272Q-21.5629 -63.4272 -23.5192 -65.0234L-23.2821 -65.3139L-22.9072 -65.3226L-22.8544 -63.039L-22.8544 -58.2417L-25.4149 -58.2417L-25.7899 -58.2417ZM-20.0419 -65.2495Q-21.784 -65.2495 -23.4747 -66.712L-23.6044 -66.8241L-23.6044 -73.9973L-23.4842 -74.1086Q-21.4344 -76.0073 -19.7255 -76.0073Q-15.9228 -76.0073 -15.9228 -70.81Q-15.9228 -68.2985 -17.0586 -66.7778Q-18.2001 -65.2495 -20.0419 -65.2495ZM-20.0419 -65.9995Q-18.576 -65.9995 -17.6595 -67.2266Q-16.6728 -68.5476 -16.6728 -70.81Q-16.6728 -75.2573 -19.7255 -75.2573Q-21.1404 -75.2573 -22.9746 -73.5584L-23.2294 -73.8335L-22.8544 -73.8335L-22.8544 -66.9956L-23.2294 -66.9956L-22.9841 -67.2792Q-21.5046 -65.9995 -20.0419 -65.9995ZM-20.0419 -65.6245C-17.8798 -65.6245 -16.2978 -67.5698 -16.2978 -70.81C-16.2978 -73.687 -17.2587 -75.6323 -19.7255 -75.6323C-20.8329 -75.6323 -21.9579 -75.0112 -23.2294 -73.8335L-23.2294 -66.9956C-22.0575 -65.9819 -20.9032 -65.6245 -20.0419 -65.6245ZM-25.4149 -58.6167L-25.4149 -77.144L-23.6161 -77.144L-23.4228 -75.6557L-23.3524 -75.6557C-22.1747 -76.6167 -20.7099 -77.478 -19.1981 -77.478C-15.8407 -77.478 -14.0185 -74.8413 -14.0185 -70.8335C-14.0185 -66.3686 -16.6786 -63.8022 -19.6786 -63.8022C-20.8563 -63.8022 -22.1044 -64.353 -23.2821 -65.3139L-23.2294 -63.0347L-23.2294 -58.6167L-25.4149 -58.6167ZM-6.74397 -64.1772Q-4.62644 -64.1772 -2.70942 -66.3969L-2.59723 -66.5268L-2.0034 -66.5268L-1.81158 -64.1429L-2.18537 -64.1128L-2.18537 -64.4878L-0.357246 -64.4878L-0.357246 -64.1128L-0.732246 -64.1128L-0.732246 -77.144L-0.357246 -77.144L-0.357246 -76.769L-2.54279 -76.769L-2.54279 -77.144L-2.16779 -77.144L-2.16779 -67.7722L-2.25007 -67.6694Q-4.13151 -65.3198 -6.07014 -65.3198Q-8.89436 -65.3198 -8.89436 -69.1518L-8.89436 -77.144L-8.51936 -77.144L-8.51936 -76.769L-10.7049 -76.769L-10.7049 -77.144L-10.3299 -77.144L-10.3299 -68.8882Q-10.3299 -64.1772 -6.74397 -64.1772ZM-6.74397 -63.4272Q-11.0799 -63.4272 -11.0799 -68.8882L-11.0799 -77.519L-8.14436 -77.519L-8.14436 -69.1518Q-8.14436 -66.0698 -6.07014 -66.0698Q-4.49177 -66.0698 -2.83551 -68.1382L-2.54279 -67.9038L-2.91779 -67.9038L-2.91779 -77.519L0.0177536 -77.519L0.0177536 -63.7378L-2.53141 -63.7378L-2.72322 -66.1218L-2.34943 -66.1518L-2.34943 -65.7768L-2.42561 -65.7768L-2.42561 -66.1518L-2.1418 -65.9067Q-4.28318 -63.4272 -6.74397 -63.4272ZM-6.74397 -63.8022C-9.48029 -63.8022 -10.7049 -65.5776 -10.7049 -68.8882L-10.7049 -77.144L-8.51936 -77.144L-8.51936 -69.1518C-8.51936 -66.7261 -7.79865 -65.6948 -6.07014 -65.6948C-4.72834 -65.6948 -3.79084 -66.3452 -2.54279 -67.9038L-2.54279 -77.144L-0.357246 -77.144L-0.357246 -64.1128L-2.18537 -64.1128L-2.34943 -66.1518L-2.42561 -66.1518C-3.65022 -64.7339 -4.94514 -63.8022 -6.74397 -63.8022ZM7.43728 -64.1772Q9.52112 -64.1772 10.7202 -65.2243Q11.8142 -66.1798 11.8142 -67.6636Q11.8142 -69.1074 10.701 -69.9881Q10.0013 -70.5417 8.13745 -71.2511Q8.0938 -71.2677 8.07726 -71.274Q7.99911 -71.3034 7.84027 -71.3627Q6.44958 -71.8816 5.92381 -72.2365Q4.9529 -72.8917 4.9529 -73.8804Q4.9529 -76.1304 7.70681 -76.1304Q9.26426 -76.1304 10.9293 -74.9029L10.7068 -74.6011L10.4059 -74.8249L11.4606 -76.2428L11.7615 -76.019L11.5333 -75.7215Q9.73215 -77.103 7.70681 -77.103Q5.77664 -77.103 4.64475 -76.1223Q3.59353 -75.2115 3.59353 -73.7866Q3.59353 -71.705 7.23236 -70.3711Q10.4549 -69.1267 10.4549 -67.5464Q10.4549 -65.1323 7.51345 -65.1323Q5.41293 -65.1323 3.41053 -66.7508L3.64626 -67.0425L3.94656 -66.8179L2.86843 -65.3764L2.56814 -65.6011L2.807 -65.8901Q4.88001 -64.1772 7.43728 -64.1772ZM7.43728 -63.4272Q4.61024 -63.4272 2.32927 -65.312L2.05385 -65.5396L3.57918 -67.5789L3.88199 -67.3341Q5.67813 -65.8823 7.51345 -65.8823Q9.70486 -65.8823 9.70486 -67.5464Q9.70486 -68.6124 6.97423 -69.6669Q2.84353 -71.1811 2.84353 -73.7866Q2.84353 -75.5541 4.15364 -76.6892Q5.49693 -77.853 7.70681 -77.853Q9.98667 -77.853 11.9897 -76.3166L12.2829 -76.0917L10.7849 -74.0776L10.4843 -74.2992Q9.0177 -75.3804 7.70681 -75.3804Q5.7029 -75.3804 5.7029 -73.8804Q5.7029 -72.9608 8.10247 -72.0654Q8.26243 -72.0057 8.34417 -71.9749Q8.36422 -71.9673 8.40427 -71.9521Q10.376 -71.2015 11.1663 -70.5763Q12.5642 -69.4704 12.5642 -67.6636Q12.5642 -65.839 11.2135 -64.6594Q9.80251 -63.4272 7.43728 -63.4272ZM7.43728 -63.8022C5.59158 -63.8022 3.81618 -64.5698 2.56814 -65.6011L3.64626 -67.0425C4.77712 -66.1284 5.95486 -65.5073 7.51345 -65.5073C9.24197 -65.5073 10.0799 -66.4155 10.0799 -67.5464C10.0799 -68.8647 8.5447 -69.4624 7.10329 -70.019C5.28103 -70.687 3.21853 -71.5776 3.21853 -73.7866C3.21853 -75.8491 4.87087 -77.478 7.70681 -77.478C9.31228 -77.478 10.7302 -76.81 11.7615 -76.019L10.7068 -74.6011C9.79275 -75.2749 8.87868 -75.7554 7.70681 -75.7554C6.07204 -75.7554 5.3279 -74.8882 5.3279 -73.8804C5.3279 -72.6323 6.74587 -72.1753 8.21072 -71.6245C10.1033 -70.9038 12.1892 -70.1362 12.1892 -67.6636C12.1892 -65.5542 10.5135 -63.8022 7.43728 -63.8022ZM15.2649 -64.4878L17.4505 -64.4878L17.4505 -64.1128L17.0755 -64.1128L17.0755 -73.7251L17.1853 -73.835Q19.2873 -75.937 21.0247 -75.937Q23.8724 -75.937 23.8724 -72.0815L23.8724 -64.1128L23.4974 -64.1128L23.4974 -64.4878L25.6771 -64.4878L25.6771 -64.1128L25.3021 -64.1128L25.3021 -72.3686Q25.3021 -77.103 21.6985 -77.103Q19.7093 -77.103 17.6395 -75.0332L16.9727 -74.3664L17.0756 -77.9926L17.4505 -77.9819L17.0755 -77.9819L17.0755 -83.2143L17.4505 -83.2143L17.4505 -82.8393L15.2649 -82.8393L15.2649 -83.2143L15.6399 -83.2143L15.6399 -64.1128L15.2649 -64.1128L15.2649 -64.4878ZM14.8899 -63.7378L14.8899 -83.5893L17.8255 -83.5893L17.8255 -77.9766L17.7492 -75.2877L17.3743 -75.2983L17.1092 -75.5635Q19.3987 -77.853 21.6985 -77.853Q26.0521 -77.853 26.0521 -72.3686L26.0521 -63.7378L23.1224 -63.7378L23.1224 -72.0815Q23.1224 -75.187 21.0247 -75.187Q19.598 -75.187 17.7157 -73.3046L17.4505 -73.5698L17.8255 -73.5698L17.8255 -63.7378L15.2649 -63.7378L14.8899 -63.7378ZM15.2649 -64.1128L15.2649 -83.2143L17.4505 -83.2143L17.4505 -77.9819L17.3743 -75.2983C18.5755 -76.4995 19.9173 -77.478 21.6985 -77.478C24.4349 -77.478 25.6771 -75.7026 25.6771 -72.3686L25.6771 -64.1128L23.4974 -64.1128L23.4974 -72.0815C23.4974 -74.5307 22.7532 -75.562 21.0247 -75.562C19.6771 -75.562 18.7689 -74.8882 17.4505 -73.5698L17.4505 -64.1128L15.2649 -64.1128Z" fill="#19191A" fill-opacity="1.000000" transform="matrix(1 0 0 1 386.517 276.152)"/><path d="M-6.10352e-05 263.679L-10.3921 257.679L-10.3921 269.679L-6.10352e-05 263.679Z" transform="matrix(1 0 0 1 236.989 62.4736)" fill="#19191A" fill-opacity="1.000000" stroke="none"/><path d="M0 0C-85.8522 0 -87.8456 251.576 -5.98032 263.259" fill="none" stroke="#19191A" stroke-opacity="1.000000" stroke-width="2" stroke-linejoin="round" stroke-dasharray="0 0" transform="matrix(1 0 0 1 236.989 62.4736)"/><path d="M-121.977 148.65Q-119.721 148.65 -118.03 147.097L-117.776 147.373L-118.092 147.575L-119.029 146.11L-118.713 145.908L-118.46 146.185Q-119.985 147.578 -121.784 147.578Q-123.764 147.578 -124.989 146.068Q-126.19 144.588 -126.19 142.211Q-126.19 139.844 -124.947 138.328Q-123.69 136.797 -121.737 136.797Q-120.269 136.797 -118.866 138.072L-119.118 138.35L-119.415 138.121L-118.29 136.656L-117.993 136.885L-118.241 137.166Q-119.878 135.725 -121.807 135.725Q-124.269 135.725 -125.934 137.415Q-127.719 139.228 -127.719 142.211Q-127.719 145.218 -126.057 146.98Q-124.482 148.65 -121.977 148.65ZM-121.977 149.4Q-124.805 149.4 -126.603 147.495Q-128.469 145.516 -128.469 142.211Q-128.469 138.92 -126.468 136.889Q-124.583 134.975 -121.807 134.975Q-119.595 134.975 -117.745 136.603L-117.482 136.835L-119.068 138.901L-119.37 138.627Q-120.559 137.547 -121.737 137.547Q-123.336 137.547 -124.367 138.804Q-125.44 140.112 -125.44 142.211Q-125.44 144.322 -124.407 145.596Q-123.407 146.828 -121.784 146.828Q-120.276 146.828 -118.966 145.631L-118.638 145.331L-117.29 147.436L-117.522 147.649Q-119.429 149.4 -121.977 149.4ZM-121.977 149.025C-125.428 149.025 -128.094 146.529 -128.094 142.211C-128.094 137.869 -125.141 135.35 -121.807 135.35C-120.102 135.35 -118.924 136.064 -117.993 136.885L-119.118 138.35C-119.885 137.652 -120.676 137.172 -121.737 137.172C-124.086 137.172 -125.815 139.211 -125.815 142.211C-125.815 145.211 -124.18 147.203 -121.784 147.203C-120.583 147.203 -119.528 146.652 -118.713 145.908L-117.776 147.373C-118.924 148.428 -120.413 149.025 -121.977 149.025ZM-112.591 148.65Q-111.879 148.65 -111.458 148.483L-111.32 148.832L-111.688 148.9L-111.999 147.224L-111.63 147.156L-111.558 147.524Q-111.834 147.578 -112.087 147.578Q-113.083 147.578 -113.083 146.266L-113.083 129.613L-112.708 129.613L-112.708 129.988L-114.894 129.988L-114.894 129.613L-114.519 129.613L-114.519 146.125Q-114.519 148.65 -112.591 148.65ZM-112.591 149.4Q-115.269 149.4 -115.269 146.125L-115.269 129.238L-112.333 129.238L-112.333 146.266Q-112.333 146.828 -112.087 146.828Q-111.907 146.828 -111.702 146.788L-111.331 146.716L-110.895 149.067L-111.182 149.181Q-111.736 149.4 -112.591 149.4ZM-112.591 149.025C-114.22 149.025 -114.894 147.971 -114.894 146.125L-114.894 129.613L-112.708 129.613L-112.708 146.266C-112.708 146.939 -112.421 147.203 -112.087 147.203C-111.964 147.203 -111.871 147.203 -111.63 147.156L-111.32 148.832C-111.63 148.955 -112.017 149.025 -112.591 149.025ZM-102.991 148.65Q-100.64 148.65 -99.0416 146.978Q-97.3196 145.177 -97.3196 142.211Q-97.3196 139.226 -99.0426 137.41Q-100.642 135.725 -102.991 135.725Q-105.341 135.725 -106.94 137.41Q-108.663 139.226 -108.663 142.211Q-108.663 145.177 -106.941 146.978Q-105.343 148.65 -102.991 148.65ZM-102.991 149.4Q-105.664 149.4 -107.484 147.497Q-109.413 145.478 -109.413 142.211Q-109.413 138.927 -107.484 136.894Q-105.663 134.975 -102.991 134.975Q-100.32 134.975 -98.4985 136.894Q-96.5696 138.927 -96.5696 142.211Q-96.5696 145.478 -98.4995 147.497Q-100.319 149.4 -102.991 149.4ZM-102.991 147.578Q-104.871 147.578 -106.02 146.058Q-107.134 144.585 -107.134 142.211Q-107.134 139.833 -106.022 138.342Q-104.869 136.797 -102.991 136.797Q-101.112 136.797 -99.9504 138.341Q-98.8255 139.836 -98.8255 142.211Q-98.8255 144.582 -99.9518 146.059Q-101.11 147.578 -102.991 147.578ZM-102.991 146.828Q-101.481 146.828 -100.548 145.605Q-99.5755 144.329 -99.5755 142.211Q-99.5755 140.086 -100.55 138.792Q-101.487 137.547 -102.991 137.547Q-104.493 137.547 -105.421 138.791Q-106.384 140.082 -106.384 142.211Q-106.384 144.333 -105.422 145.606Q-104.498 146.828 -102.991 146.828ZM-102.991 147.203C-100.736 147.203 -99.2005 145.211 -99.2005 142.211C-99.2005 139.211 -100.736 137.172 -102.991 137.172C-105.247 137.172 -106.759 139.211 -106.759 142.211C-106.759 145.211 -105.247 147.203 -102.991 147.203ZM-102.991 149.025C-106.185 149.025 -109.038 146.529 -109.038 142.211C-109.038 137.869 -106.185 135.35 -102.991 135.35C-99.7981 135.35 -96.9446 137.869 -96.9446 142.211C-96.9446 146.529 -99.7981 149.025 -102.991 149.025ZM-93.51 148.34L-91.3245 148.34L-91.3245 148.715L-91.6995 148.715L-91.6995 139.102L-91.5896 138.993Q-89.4876 136.891 -87.7503 136.891Q-84.9026 136.891 -84.9026 140.746L-84.9026 148.715L-85.2776 148.715L-85.2776 148.34L-83.0979 148.34L-83.0979 148.715L-83.4729 148.715L-83.4729 140.459Q-83.4729 135.725 -87.0764 135.725Q-89.049 135.725 -91.1849 137.82L-91.2943 137.928L-91.856 137.928L-92.0842 135.722L-91.7112 135.684L-91.7112 136.059L-93.51 136.059L-93.51 135.684L-93.135 135.684L-93.135 148.715L-93.51 148.715L-93.51 148.34ZM-93.885 149.09L-93.885 135.309L-91.373 135.309L-91.1448 137.514L-91.5178 137.553L-91.5178 137.178L-91.4475 137.178L-91.4475 137.553L-91.7102 137.285Q-89.3555 134.975 -87.0764 134.975Q-82.7229 134.975 -82.7229 140.459L-82.7229 149.09L-85.6526 149.09L-85.6526 140.746Q-85.6526 137.641 -87.7503 137.641Q-89.177 137.641 -91.0593 139.523L-91.3245 139.258L-90.9495 139.258L-90.9495 149.09L-93.51 149.09L-93.885 149.09ZM-93.51 148.715L-93.51 135.684L-91.7112 135.684L-91.5178 137.553L-91.4475 137.553C-90.1995 136.328 -88.8577 135.35 -87.0764 135.35C-84.3401 135.35 -83.0979 137.125 -83.0979 140.459L-83.0979 148.715L-85.2776 148.715L-85.2776 140.746C-85.2776 138.297 -86.0217 137.266 -87.7503 137.266C-89.0979 137.266 -90.0061 137.939 -91.3245 139.258L-91.3245 148.715L-93.51 148.715ZM-73.5902 148.65Q-71.4535 148.65 -69.4758 147.369L-69.2719 147.684L-69.6006 147.864L-70.3916 146.423L-70.0629 146.242L-69.8527 146.553Q-71.4715 147.648 -73.3265 147.648Q-75.3461 147.648 -76.632 146.296Q-77.9072 144.955 -78.0194 142.734L-78.0393 142.34L-68.8617 142.34L-68.8617 142.715L-69.2325 142.659Q-69.1429 142.066 -69.1429 141.467Q-69.1429 138.776 -70.4058 137.252Q-71.6716 135.725 -73.9535 135.725Q-76.1639 135.725 -77.7497 137.45Q-79.4554 139.305 -79.4554 142.211Q-79.4554 145.191 -77.7371 146.968Q-76.1108 148.65 -73.5902 148.65ZM-73.5902 149.4Q-76.4289 149.4 -78.2763 147.489Q-80.2054 145.494 -80.2054 142.211Q-80.2054 139.013 -78.3018 136.942Q-76.4932 134.975 -73.9535 134.975Q-71.3191 134.975 -69.8283 136.774Q-68.3929 138.506 -68.3929 141.467Q-68.3929 142.122 -68.4909 142.771L-68.539 143.09L-77.6449 143.09L-77.6449 142.715L-77.2704 142.696Q-77.1721 144.64 -76.0885 145.779Q-75.0243 146.898 -73.3265 146.898Q-71.7015 146.898 -70.2731 145.932L-69.9322 145.701L-68.7754 147.809L-69.0679 147.998Q-71.2318 149.4 -73.5902 149.4ZM-78.0414 141.118Q-77.836 139.114 -76.6608 137.903Q-75.5191 136.726 -73.9242 136.726Q-70.3148 136.726 -70.3148 141.156L-70.3148 141.531L-78.0837 141.531L-78.0414 141.118ZM-77.2953 141.194L-77.6683 141.156L-77.6683 140.781L-70.6898 140.781L-70.6898 141.156L-71.0648 141.156Q-71.0648 137.476 -73.9242 137.476Q-75.2018 137.476 -76.1226 138.425Q-77.1164 139.45 -77.2953 141.194ZM-77.6683 141.156L-70.6898 141.156C-70.6898 138.514 -71.8851 137.101 -73.9242 137.101C-75.7758 137.101 -77.4047 138.584 -77.6683 141.156ZM-73.5902 149.025C-77.0472 149.025 -79.8304 146.506 -79.8304 142.211C-79.8304 137.986 -76.9769 135.35 -73.9535 135.35C-70.6371 135.35 -68.7679 137.746 -68.7679 141.467C-68.7679 141.947 -68.8148 142.404 -68.8617 142.715L-77.6449 142.715C-77.5043 145.498 -75.7992 147.273 -73.3265 147.273C-72.0551 147.273 -71.0238 146.892 -70.0629 146.242L-69.2719 147.684C-70.4203 148.428 -71.8148 149.025 -73.5902 149.025ZM-67.4954 153.385L-65.613 153.385L-58.2045 129.309L-60.5709 129.309L-68.0037 153.385M-49.9547 130.076Q-50.9058 129.672 -51.9937 129.672Q-55.4097 129.672 -55.4097 133.598L-55.4097 136.035L-57.5354 136.175L-57.5601 135.801L-57.1851 135.801L-57.1851 137.459L-57.5601 137.459L-57.5601 137.084L-55.4097 137.084L-55.4097 148.715L-55.7847 148.715L-55.7847 148.34L-53.5992 148.34L-53.5992 148.715L-53.9742 148.715L-53.9742 137.084L-50.8394 137.084L-50.8394 137.459L-51.2144 137.459L-51.2144 135.684L-50.8394 135.684L-50.8394 136.059L-53.9742 136.059L-53.9742 133.621Q-53.9742 130.674 -51.7535 130.674Q-50.9611 130.674 -50.1344 131.047L-50.2886 131.389L-50.6488 131.284L-50.1683 129.626L-49.8082 129.73L-49.9547 130.076ZM-49.3554 129.515L-50.0488 131.908L-50.4429 131.73Q-51.1225 131.424 -51.7535 131.424Q-53.2242 131.424 -53.2242 133.621L-53.2242 135.684L-53.5992 135.684L-53.5992 135.309L-50.4644 135.309L-50.4644 137.834L-53.5992 137.834L-53.5992 137.459L-53.2242 137.459L-53.2242 149.09L-56.1597 149.09L-56.1597 137.459L-55.7847 137.459L-55.7847 137.834L-57.9351 137.834L-57.9351 135.45L-55.8094 135.309L-55.7847 135.684L-56.1597 135.684L-56.1597 133.598Q-56.1597 128.922 -51.9937 128.922Q-50.7532 128.922 -49.6616 129.385L-49.3554 129.515ZM-49.8082 129.73L-50.2886 131.389C-50.7691 131.172 -51.2964 131.049 -51.7535 131.049C-53.0015 131.049 -53.5992 131.939 -53.5992 133.621L-53.5992 135.684L-50.8394 135.684L-50.8394 137.459L-53.5992 137.459L-53.5992 148.715L-55.7847 148.715L-55.7847 137.459L-57.5601 137.459L-57.5601 135.801L-55.7847 135.684L-55.7847 133.598C-55.7847 130.955 -54.5835 129.297 -51.9937 129.297C-51.1968 129.297 -50.4292 129.467 -49.8082 129.73ZM-43.3503 148.65Q-41.2136 148.65 -39.2359 147.369L-39.032 147.684L-39.3607 147.864L-40.1517 146.423L-39.823 146.242L-39.6128 146.553Q-41.2316 147.648 -43.0866 147.648Q-45.1062 147.648 -46.3921 146.296Q-47.6673 144.955 -47.7795 142.734L-47.7994 142.34L-38.6218 142.34L-38.6218 142.715L-38.9926 142.659Q-38.903 142.066 -38.903 141.467Q-38.903 138.776 -40.1659 137.252Q-41.4317 135.725 -43.7136 135.725Q-45.924 135.725 -47.5098 137.45Q-49.2155 139.305 -49.2155 142.211Q-49.2155 145.191 -47.4972 146.968Q-45.8709 148.65 -43.3503 148.65ZM-43.3503 149.4Q-46.189 149.4 -48.0364 147.489Q-49.9655 145.494 -49.9655 142.211Q-49.9655 139.013 -48.0619 136.942Q-46.2533 134.975 -43.7136 134.975Q-41.0792 134.975 -39.5884 136.774Q-38.153 138.506 -38.153 141.467Q-38.153 142.122 -38.251 142.771L-38.2991 143.09L-47.405 143.09L-47.405 142.715L-47.0305 142.696Q-46.9323 144.64 -45.8486 145.779Q-44.7844 146.898 -43.0866 146.898Q-41.4616 146.898 -40.0332 145.932L-39.6923 145.701L-38.5355 147.809L-38.828 147.998Q-40.9919 149.4 -43.3503 149.4ZM-47.8015 141.118Q-47.5961 139.114 -46.4209 137.903Q-45.2792 136.726 -43.6843 136.726Q-40.0749 136.726 -40.0749 141.156L-40.0749 141.531L-47.8438 141.531L-47.8015 141.118ZM-47.0554 141.194L-47.4284 141.156L-47.4284 140.781L-40.4499 140.781L-40.4499 141.156L-40.8249 141.156Q-40.8249 137.476 -43.6843 137.476Q-44.9619 137.476 -45.8827 138.425Q-46.8765 139.45 -47.0554 141.194ZM-47.4284 141.156L-40.4499 141.156C-40.4499 138.514 -41.6452 137.101 -43.6843 137.101C-45.5359 137.101 -47.1648 138.584 -47.4284 141.156ZM-43.3503 149.025C-46.8073 149.025 -49.5905 146.506 -49.5905 142.211C-49.5905 137.986 -46.737 135.35 -43.7136 135.35C-40.3972 135.35 -38.528 137.746 -38.528 141.467C-38.528 141.947 -38.5749 142.404 -38.6218 142.715L-47.405 142.715C-47.2644 145.498 -45.5593 147.273 -43.0866 147.273C-41.8152 147.273 -40.7839 146.892 -39.823 146.242L-39.032 147.684C-40.1804 148.428 -41.5749 149.025 -43.3503 149.025ZM-31.4727 148.65Q-30.6176 148.65 -29.1855 148.188L-29.0703 148.545L-29.4327 148.641L-29.8663 147.012L-29.5039 146.916L-29.3712 147.267Q-30.318 147.625 -30.9922 147.625Q-33.3828 147.625 -33.3828 144.73L-33.3828 137.084L-29.4805 137.084L-29.4805 137.459L-29.8555 137.459L-29.8555 135.684L-29.4805 135.684L-29.4805 136.059L-33.3828 136.059L-33.3828 132.033L-33.0078 132.033L-33.0078 132.408L-34.8301 132.408L-34.8301 132.033L-34.4561 132.06L-34.7435 136.039L-37.1113 136.175L-37.1328 135.801L-36.7578 135.801L-36.7578 137.459L-37.1328 137.459L-37.1328 137.084L-34.8184 137.084L-34.8184 144.684Q-34.8184 148.65 -31.4727 148.65ZM-31.4727 149.4Q-35.5684 149.4 -35.5684 144.684L-35.5684 137.459L-35.1934 137.459L-35.1934 137.834L-37.5078 137.834L-37.5078 135.447L-35.1153 135.309L-35.0938 135.684L-35.4678 135.656L-35.179 131.658L-32.6328 131.658L-32.6328 135.684L-33.0078 135.684L-33.0078 135.309L-29.1055 135.309L-29.1055 137.834L-33.0078 137.834L-33.0078 137.459L-32.6328 137.459L-32.6328 144.73Q-32.6328 146.875 -30.9922 146.875Q-30.4552 146.875 -29.6366 146.565L-29.2483 146.418L-28.6164 148.792L-28.9551 148.902Q-30.4996 149.4 -31.4727 149.4ZM-31.4727 149.025C-34.2559 149.025 -35.1934 147.297 -35.1934 144.684L-35.1934 137.459L-37.1328 137.459L-37.1328 135.801L-35.0938 135.684L-34.8301 132.033L-33.0078 132.033L-33.0078 135.684L-29.4805 135.684L-29.4805 137.459L-33.0078 137.459L-33.0078 144.73C-33.0078 146.336 -32.5039 147.25 -30.9922 147.25C-30.5352 147.25 -29.9375 147.08 -29.5039 146.916L-29.0703 148.545C-29.8145 148.785 -30.6816 149.025 -31.4727 149.025ZM-21.7534 148.65Q-19.4976 148.65 -17.8059 147.097L-17.5523 147.373L-17.8681 147.575L-18.8056 146.11L-18.4898 145.908L-18.2368 146.185Q-19.7615 147.578 -21.5601 147.578Q-23.5408 147.578 -24.7656 146.068Q-25.9663 144.588 -25.9663 142.211Q-25.9663 139.844 -24.7233 138.328Q-23.4667 136.797 -21.5132 136.797Q-20.0457 136.797 -18.6419 138.072L-18.8941 138.35L-19.1915 138.121L-18.0665 136.656L-17.7691 136.885L-18.0169 137.166Q-19.6541 135.725 -21.5835 135.725Q-24.0448 135.725 -25.7102 137.415Q-27.4956 139.228 -27.4956 142.211Q-27.4956 145.218 -25.8334 146.98Q-24.2579 148.65 -21.7534 148.65ZM-21.7534 149.4Q-24.5814 149.4 -26.379 147.495Q-28.2456 145.516 -28.2456 142.211Q-28.2456 138.92 -26.2445 136.889Q-24.3588 134.975 -21.5835 134.975Q-19.371 134.975 -17.5212 136.603L-17.2581 136.835L-18.8447 138.901L-19.1462 138.627Q-20.3354 137.547 -21.5132 137.547Q-23.1119 137.547 -24.1434 138.804Q-25.2163 140.112 -25.2163 142.211Q-25.2163 144.322 -24.1832 145.596Q-23.1834 146.828 -21.5601 146.828Q-20.0526 146.828 -18.7427 145.631L-18.414 145.331L-17.0666 147.436L-17.2986 147.649Q-19.2054 149.4 -21.7534 149.4ZM-21.7534 149.025C-25.2046 149.025 -27.8706 146.529 -27.8706 142.211C-27.8706 137.869 -24.9175 135.35 -21.5835 135.35C-19.8784 135.35 -18.7007 136.064 -17.7691 136.885L-18.8941 138.35C-19.6616 137.652 -20.4527 137.172 -21.5132 137.172C-23.8628 137.172 -25.5913 139.211 -25.5913 142.211C-25.5913 145.211 -23.9566 147.203 -21.5601 147.203C-20.3589 147.203 -19.3042 146.652 -18.4898 145.908L-17.5523 147.373C-18.7007 148.428 -20.189 149.025 -21.7534 149.025ZM-14.6703 148.34L-12.4847 148.34L-12.4847 148.715L-12.8597 148.715L-12.8597 139.102L-12.7499 138.993Q-10.6479 136.891 -8.91052 136.891Q-6.06287 136.891 -6.06287 140.746L-6.06287 148.715L-6.43787 148.715L-6.43787 148.34L-4.25818 148.34L-4.25818 148.715L-4.63318 148.715L-4.63318 140.459Q-4.63318 135.725 -8.23669 135.725Q-10.2259 135.725 -12.2957 137.794L-12.9625 138.461L-12.8596 134.835L-12.4847 134.846L-12.8597 134.846L-12.8597 129.613L-12.4847 129.613L-12.4847 129.988L-14.6703 129.988L-14.6703 129.613L-14.2953 129.613L-14.2953 148.715L-14.6703 148.715L-14.6703 148.34ZM-15.0453 149.09L-15.0453 129.238L-12.1097 129.238L-12.1097 134.851L-12.1861 137.54L-12.5609 137.529L-12.8261 137.264Q-10.5366 134.975 -8.23669 134.975Q-3.88318 134.975 -3.88318 140.459L-3.88318 149.09L-6.81287 149.09L-6.81287 140.746Q-6.81287 137.641 -8.91052 137.641Q-10.3372 137.641 -12.2196 139.523L-12.4847 139.258L-12.1097 139.258L-12.1097 149.09L-14.6703 149.09L-15.0453 149.09ZM-14.6703 148.715L-14.6703 129.613L-12.4847 129.613L-12.4847 134.846L-12.5609 137.529C-11.3597 136.328 -10.0179 135.35 -8.23669 135.35C-5.50037 135.35 -4.25818 137.125 -4.25818 140.459L-4.25818 148.715L-6.43787 148.715L-6.43787 140.746C-6.43787 138.297 -7.18201 137.266 -8.91052 137.266C-10.2582 137.266 -11.1664 137.939 -12.4847 139.258L-12.4847 148.715L-14.6703 148.715Z" fill="#19191A" fill-opacity="1.000000" transform="matrix(1 0 0 1 236.989 62.4736)"/><path d="M3.05176e-05 527.358L10.392 533.358L10.392 521.358L3.05176e-05 527.358Z" transform="matrix(1 0 0 1 536.046 326.153)" fill="#19191A" fill-opacity="1.000000" stroke="none"/><path d="M0 0C173.764 0 175.763 515.298 5.99503 527.15" fill="none" stroke="#19191A" stroke-opacity="1.000000" stroke-width="2" stroke-linejoin="round" stroke-dasharray="0 0" transform="matrix(1 0 0 1 536.046 326.153)"/><path d="M86.7616 241.716Q89.0174 241.716 90.7091 240.163L90.9627 240.439L90.6469 240.641L89.7094 239.176L90.0252 238.974L90.2782 239.251Q88.7535 240.644 86.9549 240.644Q84.9742 240.644 83.7494 239.134Q82.5487 237.654 82.5487 235.277Q82.5487 232.91 83.7917 231.395Q85.0482 229.863 87.0018 229.863Q88.4693 229.863 89.8731 231.138L89.6209 231.416L89.3235 231.187L90.4485 229.722L90.7459 229.951L90.4981 230.232Q88.8609 228.791 86.9315 228.791Q84.4701 228.791 82.8048 230.481Q81.0194 232.294 81.0194 235.277Q81.0194 238.284 82.6815 240.046Q84.2571 241.716 86.7616 241.716ZM86.7616 242.466Q83.9336 242.466 82.136 240.561Q80.2694 238.582 80.2694 235.277Q80.2694 231.986 82.2705 229.955Q84.1562 228.041 86.9315 228.041Q89.144 228.041 90.9937 229.669L91.2569 229.901L89.6703 231.967L89.3688 231.693Q88.1795 230.613 87.0018 230.613Q85.403 230.613 84.3715 231.87Q83.2987 233.178 83.2987 235.277Q83.2987 237.388 84.3318 238.662Q85.3316 239.894 86.9549 239.894Q88.4624 239.894 89.7723 238.697L90.101 238.397L91.4484 240.502L91.2164 240.715Q89.3096 242.466 86.7616 242.466ZM86.7616 242.091C83.3104 242.091 80.6444 239.595 80.6444 235.277C80.6444 230.935 83.5975 228.416 86.9315 228.416C88.6366 228.416 89.8143 229.13 90.7459 229.951L89.6209 231.416C88.8533 230.718 88.0623 230.238 87.0018 230.238C84.6522 230.238 82.9237 232.277 82.9237 235.277C82.9237 238.277 84.5584 240.269 86.9549 240.269C88.1561 240.269 89.2108 239.718 90.0252 238.974L90.9627 240.439C89.8143 241.494 88.326 242.091 86.7616 242.091ZM93.8447 241.406L96.0302 241.406L96.0302 241.781L95.6552 241.781L95.6552 232.168L95.7651 232.059Q97.8671 229.957 99.6045 229.957Q102.452 229.957 102.452 233.812L102.452 241.781L102.077 241.781L102.077 241.406L104.257 241.406L104.257 241.781L103.882 241.781L103.882 233.525Q103.882 228.791 100.278 228.791Q98.2891 228.791 96.2192 230.86L95.5525 231.527L95.6554 227.901L96.0302 227.912L95.6552 227.912L95.6552 222.679L96.0302 222.679L96.0302 223.054L93.8447 223.054L93.8447 222.679L94.2197 222.679L94.2197 241.781L93.8447 241.781L93.8447 241.406ZM93.4697 242.156L93.4697 222.304L96.4052 222.304L96.4052 227.917L96.3289 230.606L95.9541 230.595L95.6889 230.33Q97.9784 228.041 100.278 228.041Q104.632 228.041 104.632 233.525L104.632 242.156L101.702 242.156L101.702 233.812Q101.702 230.707 99.6045 230.707Q98.1778 230.707 96.2954 232.589L96.0302 232.324L96.4052 232.324L96.4052 242.156L93.8447 242.156L93.4697 242.156ZM93.8447 241.781L93.8447 222.679L96.0302 222.679L96.0302 227.912L95.9541 230.595C97.1552 229.394 98.497 228.416 100.278 228.416C103.015 228.416 104.257 230.191 104.257 233.525L104.257 241.781L102.077 241.781L102.077 233.812C102.077 231.363 101.333 230.332 99.6045 230.332C98.2568 230.332 97.3486 231.005 96.0302 232.324L96.0302 241.781L93.8447 241.781ZM113.669 241.716Q115.805 241.716 117.783 240.435L117.987 240.75L117.658 240.93L116.867 239.489L117.196 239.308L117.406 239.619Q115.787 240.714 113.932 240.714Q111.913 240.714 110.627 239.362Q109.352 238.021 109.239 235.8L109.219 235.406L118.397 235.406L118.397 235.781L118.026 235.725Q118.116 235.132 118.116 234.533Q118.116 231.842 116.853 230.318Q115.587 228.791 113.305 228.791Q111.095 228.791 109.509 230.516Q107.803 232.371 107.803 235.277Q107.803 238.257 109.522 240.034Q111.148 241.716 113.669 241.716ZM113.669 242.466Q110.83 242.466 108.982 240.555Q107.053 238.56 107.053 235.277Q107.053 232.079 108.957 230.008Q110.766 228.041 113.305 228.041Q115.94 228.041 117.43 229.84Q118.866 231.572 118.866 234.533Q118.866 235.188 118.768 235.837L118.72 236.156L109.614 236.156L109.614 235.781L109.988 235.762Q110.087 237.706 111.17 238.845Q112.234 239.964 113.932 239.964Q115.557 239.964 116.986 238.998L117.327 238.767L118.483 240.875L118.191 241.064Q116.027 242.466 113.669 242.466ZM109.217 234.184Q109.423 232.18 110.598 230.969Q111.74 229.792 113.335 229.792Q116.944 229.792 116.944 234.222L116.944 234.597L109.175 234.597L109.217 234.184ZM109.963 234.26L109.59 234.222L109.59 233.847L116.569 233.847L116.569 234.222L116.194 234.222Q116.194 230.542 113.335 230.542Q112.057 230.542 111.136 231.491Q110.142 232.516 109.963 234.26ZM109.59 234.222L116.569 234.222C116.569 231.58 115.374 230.167 113.335 230.167C111.483 230.167 109.854 231.65 109.59 234.222ZM113.669 242.091C110.211 242.091 107.428 239.572 107.428 235.277C107.428 231.052 110.282 228.416 113.305 228.416C116.622 228.416 118.491 230.812 118.491 234.533C118.491 235.013 118.444 235.47 118.397 235.781L109.614 235.781C109.754 238.564 111.46 240.339 113.932 240.339C115.204 240.339 116.235 239.959 117.196 239.308L117.987 240.75C116.838 241.494 115.444 242.091 113.669 242.091ZM126.841 241.716Q129.097 241.716 130.789 240.163L131.043 240.439L130.727 240.641L129.789 239.176L130.105 238.974L130.358 239.251Q128.833 240.644 127.035 240.644Q125.054 240.644 123.829 239.134Q122.629 237.654 122.629 235.277Q122.629 232.91 123.872 231.395Q125.128 229.863 127.082 229.863Q128.549 229.863 129.953 231.138L129.701 231.416L129.403 231.187L130.528 229.722L130.826 229.951L130.578 230.232Q128.941 228.791 127.011 228.791Q124.55 228.791 122.885 230.481Q121.099 232.294 121.099 235.277Q121.099 238.284 122.761 240.046Q124.337 241.716 126.841 241.716ZM126.841 242.466Q124.013 242.466 122.216 240.561Q120.349 238.582 120.349 235.277Q120.349 231.986 122.35 229.955Q124.236 228.041 127.011 228.041Q129.224 228.041 131.074 229.669L131.337 229.901L129.75 231.967L129.449 231.693Q128.259 230.613 127.082 230.613Q125.483 230.613 124.451 231.87Q123.379 233.178 123.379 235.277Q123.379 237.388 124.412 238.662Q125.411 239.894 127.035 239.894Q128.542 239.894 129.852 238.697L130.181 238.397L131.528 240.502L131.296 240.715Q129.389 242.466 126.841 242.466ZM126.841 242.091C123.39 242.091 120.724 239.595 120.724 235.277C120.724 230.935 123.677 228.416 127.011 228.416C128.716 228.416 129.894 229.13 130.826 229.951L129.701 231.416C128.933 230.718 128.142 230.238 127.082 230.238C124.732 230.238 123.004 232.277 123.004 235.277C123.004 238.277 124.638 240.269 127.035 240.269C128.236 240.269 129.291 239.718 130.105 238.974L131.043 240.439C129.894 241.494 128.406 242.091 126.841 242.091ZM133.925 241.406L136.081 241.406L136.081 241.781L135.706 241.781L135.706 238.208L138.582 234.857L142.671 241.586L142.35 241.781L142.35 241.406L144.723 241.406L144.723 241.781L144.407 241.982L139.315 233.952L143.861 228.509L144.149 228.75L144.149 229.125L141.723 229.125L141.723 228.75L142.015 228.986L136.312 236.009L135.706 236.009L135.706 222.679L136.081 222.679L136.081 223.054L133.925 223.054L133.925 222.679L134.3 222.679L134.3 241.781L133.925 241.781L133.925 241.406ZM133.55 242.156L133.55 222.304L136.456 222.304L136.456 235.634L136.081 235.634L136.081 235.259L136.134 235.259L136.134 235.634L135.842 235.398L141.545 228.375L144.951 228.375L140.066 234.222L139.778 233.982L140.095 233.781L145.405 242.156L142.139 242.156L138.21 235.688L138.53 235.494L138.815 235.738L136.365 238.591L136.081 238.347L136.456 238.347L136.456 242.156L133.925 242.156L133.55 242.156ZM133.925 241.781L133.925 222.679L136.081 222.679L136.081 235.634L136.134 235.634L141.723 228.75L144.149 228.75L139.778 233.982L144.723 241.781L142.35 241.781L138.53 235.494L136.081 238.347L136.081 241.781L133.925 241.781ZM151.755 241.716Q154.107 241.716 155.705 240.044Q157.427 238.243 157.427 235.277Q157.427 232.292 155.704 230.476Q154.105 228.791 151.755 228.791Q149.405 228.791 147.806 230.476Q146.083 232.292 146.083 235.277Q146.083 238.243 147.805 240.044Q149.403 241.716 151.755 241.716ZM151.755 242.466Q149.083 242.466 147.263 240.563Q145.333 238.544 145.333 235.277Q145.333 231.993 147.262 229.96Q149.083 228.041 151.755 228.041Q154.427 228.041 156.248 229.96Q158.177 231.993 158.177 235.277Q158.177 238.544 156.247 240.563Q154.427 242.466 151.755 242.466ZM151.755 240.644Q149.875 240.644 148.726 239.124Q147.612 237.651 147.612 235.277Q147.612 232.899 148.725 231.408Q149.877 229.863 151.755 229.863Q153.634 229.863 154.796 231.407Q155.921 232.902 155.921 235.277Q155.921 237.648 154.795 239.125Q153.637 240.644 151.755 240.644ZM151.755 239.894Q153.265 239.894 154.198 238.671Q155.171 237.395 155.171 235.277Q155.171 233.152 154.197 231.858Q153.26 230.613 151.755 230.613Q150.254 230.613 149.326 231.857Q148.362 233.148 148.362 235.277Q148.362 237.399 149.324 238.672Q150.248 239.894 151.755 239.894ZM151.755 240.269C154.011 240.269 155.546 238.277 155.546 235.277C155.546 232.277 154.011 230.238 151.755 230.238C149.499 230.238 147.987 232.277 147.987 235.277C147.987 238.277 149.499 240.269 151.755 240.269ZM151.755 242.091C148.562 242.091 145.708 239.595 145.708 235.277C145.708 230.935 148.562 228.416 151.755 228.416C154.948 228.416 157.802 230.935 157.802 235.277C157.802 239.595 154.948 242.091 151.755 242.091ZM165.028 241.716Q167.145 241.716 169.062 239.497L169.174 239.367L169.768 239.367L169.96 241.751L169.586 241.781L169.586 241.406L171.414 241.406L171.414 241.781L171.039 241.781L171.039 228.75L171.414 228.75L171.414 229.125L169.229 229.125L169.229 228.75L169.604 228.75L169.604 238.121L169.521 238.224Q167.64 240.574 165.701 240.574Q162.877 240.574 162.877 236.742L162.877 228.75L163.252 228.75L163.252 229.125L161.067 229.125L161.067 228.75L161.442 228.75L161.442 237.005Q161.442 241.716 165.028 241.716ZM165.028 242.466Q160.692 242.466 160.692 237.005L160.692 228.375L163.627 228.375L163.627 236.742Q163.627 239.824 165.701 239.824Q167.28 239.824 168.936 237.755L169.229 237.99L168.854 237.99L168.854 228.375L171.789 228.375L171.789 242.156L169.24 242.156L169.048 239.772L169.422 239.742L169.422 240.117L169.346 240.117L169.346 239.742L169.63 239.987Q167.488 242.466 165.028 242.466ZM165.028 242.091C162.291 242.091 161.067 240.316 161.067 237.005L161.067 228.75L163.252 228.75L163.252 236.742C163.252 239.167 163.973 240.199 165.701 240.199C167.043 240.199 167.981 239.548 169.229 237.99L169.229 228.75L171.414 228.75L171.414 241.781L169.586 241.781L169.422 239.742L169.346 239.742C168.121 241.16 166.826 242.091 165.028 242.091ZM179.906 241.716Q180.761 241.716 182.193 241.254L182.308 241.611L181.946 241.707L181.512 240.078L181.875 239.982L182.007 240.333Q181.061 240.691 180.386 240.691Q177.996 240.691 177.996 237.796L177.996 230.15L181.898 230.15L181.898 230.525L181.523 230.525L181.523 228.75L181.898 228.75L181.898 229.125L177.996 229.125L177.996 225.099L178.371 225.099L178.371 225.474L176.549 225.474L176.549 225.099L176.923 225.126L176.635 229.105L174.267 229.241L174.246 228.867L174.621 228.867L174.621 230.525L174.246 230.525L174.246 230.15L176.56 230.15L176.56 237.75Q176.56 241.716 179.906 241.716ZM179.906 242.466Q175.81 242.466 175.81 237.75L175.81 230.525L176.185 230.525L176.185 230.9L173.871 230.9L173.871 228.513L176.263 228.375L176.285 228.75L175.911 228.723L176.2 224.724L178.746 224.724L178.746 228.75L178.371 228.75L178.371 228.375L182.273 228.375L182.273 230.9L178.371 230.9L178.371 230.525L178.746 230.525L178.746 237.796Q178.746 239.941 180.386 239.941Q180.924 239.941 181.742 239.631L182.13 239.484L182.762 241.858L182.424 241.968Q180.879 242.466 179.906 242.466ZM179.906 242.091C177.123 242.091 176.185 240.363 176.185 237.75L176.185 230.525L174.246 230.525L174.246 228.867L176.285 228.75L176.549 225.099L178.371 225.099L178.371 228.75L181.898 228.75L181.898 230.525L178.371 230.525L178.371 237.796C178.371 239.402 178.875 240.316 180.386 240.316C180.844 240.316 181.441 240.146 181.875 239.982L182.308 241.611C181.564 241.851 180.697 242.091 179.906 242.091Z" fill="#19191A" fill-opacity="1.000000" transform="matrix(1 0 0 1 536.046 326.153)"/><path d="M-3.05176e-05 791.037L-10.392 785.037L-10.392 797.037L-3.05176e-05 791.037Z" transform="matrix(1 0 0 1 236.989 62.4736)" fill="#19191A" fill-opacity="1.000000" stroke="none"/><path d="M0 0C-261.664 0 -263.664 778.995 -5.99785 790.899" fill="none" stroke="#19191A" stroke-opacity="1.000000" stroke-width="2" stroke-linejoin="round" stroke-dasharray="0 0" transform="matrix(1 0 0 1 236.989 62.4736)"/><path d="M-216.78 434.006L-214.595 434.006L-214.595 434.381L-214.97 434.381L-214.97 429.963L-214.595 429.963L-214.97 429.972L-215.041 426.878L-214.41 427.393Q-212.661 428.82 -211.044 428.82Q-208.856 428.82 -207.372 427.108Q-205.759 425.247 -205.759 422.164Q-205.759 419.228 -207.014 417.565Q-208.274 415.895 -210.563 415.895Q-212.351 415.895 -214.481 417.632L-214.584 417.717L-215.117 417.717L-215.353 415.902L-214.981 415.854L-214.981 416.229L-216.78 416.229L-216.78 415.854L-216.405 415.854L-216.405 434.381L-216.78 434.381L-216.78 434.006ZM-217.155 434.756L-217.155 415.479L-214.652 415.479L-214.416 417.293L-214.788 417.342L-214.788 416.967L-214.718 416.967L-214.718 417.342L-214.955 417.051Q-212.618 415.145 -210.563 415.145Q-207.9 415.145 -206.415 417.113Q-205.009 418.977 -205.009 422.164Q-205.009 425.527 -206.805 427.6Q-208.514 429.57 -211.044 429.57Q-212.928 429.57 -214.885 427.974L-214.647 427.684L-214.273 427.675L-214.22 429.959L-214.22 434.756L-216.78 434.756L-217.155 434.756ZM-211.407 427.748Q-213.149 427.748 -214.84 426.286L-214.97 426.173L-214.97 419L-214.85 418.889Q-212.8 416.99 -211.091 416.99Q-207.288 416.99 -207.288 422.188Q-207.288 424.699 -208.424 426.22Q-209.565 427.748 -211.407 427.748ZM-211.407 426.998Q-209.941 426.998 -209.025 425.771Q-208.038 424.45 -208.038 422.188Q-208.038 417.74 -211.091 417.74Q-212.506 417.74 -214.34 419.439L-214.595 419.164L-214.22 419.164L-214.22 426.002L-214.595 426.002L-214.349 425.718Q-212.87 426.998 -211.407 426.998ZM-211.407 427.373C-209.245 427.373 -207.663 425.428 -207.663 422.188C-207.663 419.311 -208.624 417.365 -211.091 417.365C-212.198 417.365 -213.323 417.986 -214.595 419.164L-214.595 426.002C-213.423 427.016 -212.269 427.373 -211.407 427.373ZM-216.78 434.381L-216.78 415.854L-214.981 415.854L-214.788 417.342L-214.718 417.342C-213.54 416.381 -212.075 415.52 -210.563 415.52C-207.206 415.52 -205.384 418.156 -205.384 422.164C-205.384 426.629 -208.044 429.195 -211.044 429.195C-212.222 429.195 -213.47 428.645 -214.647 427.684L-214.595 429.963L-214.595 434.381L-216.78 434.381ZM-198.109 428.82Q-195.992 428.82 -194.075 426.601L-193.963 426.471L-193.369 426.471L-193.177 428.855L-193.551 428.885L-193.551 428.51L-191.723 428.51L-191.723 428.885L-192.098 428.885L-192.098 415.854L-191.723 415.854L-191.723 416.229L-193.908 416.229L-193.908 415.854L-193.533 415.854L-193.533 425.225L-193.615 425.328Q-195.497 427.678 -197.435 427.678Q-200.26 427.678 -200.26 423.846L-200.26 415.854L-199.885 415.854L-199.885 416.229L-202.07 416.229L-202.07 415.854L-201.695 415.854L-201.695 424.109Q-201.695 428.82 -198.109 428.82ZM-198.109 429.57Q-202.445 429.57 -202.445 424.109L-202.445 415.479L-199.51 415.479L-199.51 423.846Q-199.51 426.928 -197.435 426.928Q-195.857 426.928 -194.201 424.859L-193.908 425.094L-194.283 425.094L-194.283 415.479L-191.348 415.479L-191.348 429.26L-193.897 429.26L-194.089 426.876L-193.715 426.846L-193.715 427.221L-193.791 427.221L-193.791 426.846L-193.507 427.091Q-195.648 429.57 -198.109 429.57ZM-198.109 429.195C-200.846 429.195 -202.07 427.42 -202.07 424.109L-202.07 415.854L-199.885 415.854L-199.885 423.846C-199.885 426.271 -199.164 427.303 -197.435 427.303C-196.094 427.303 -195.156 426.652 -193.908 425.094L-193.908 415.854L-191.723 415.854L-191.723 428.885L-193.551 428.885L-193.715 426.846L-193.791 426.846C-195.016 428.264 -196.31 429.195 -198.109 429.195ZM-185.03 428.82Q-184.318 428.82 -183.896 428.653L-183.758 429.002L-184.127 429.07L-184.437 427.395L-184.069 427.326L-183.997 427.694Q-184.273 427.748 -184.526 427.748Q-185.522 427.748 -185.522 426.436L-185.522 409.783L-185.147 409.783L-185.147 410.158L-187.332 410.158L-187.332 409.783L-186.957 409.783L-186.957 426.295Q-186.957 428.82 -185.03 428.82ZM-185.03 429.57Q-187.707 429.57 -187.707 426.295L-187.707 409.408L-184.772 409.408L-184.772 426.436Q-184.772 426.998 -184.526 426.998Q-184.345 426.998 -184.14 426.958L-183.769 426.886L-183.333 429.237L-183.62 429.351Q-184.175 429.57 -185.03 429.57ZM-185.03 429.195C-186.658 429.195 -187.332 428.141 -187.332 426.295L-187.332 409.783L-185.147 409.783L-185.147 426.436C-185.147 427.109 -184.86 427.373 -184.526 427.373C-184.403 427.373 -184.309 427.373 -184.069 427.326L-183.758 429.002C-184.069 429.125 -184.455 429.195 -185.03 429.195ZM-178.19 428.82Q-177.478 428.82 -177.056 428.653L-176.918 429.002L-177.287 429.07L-177.597 427.395L-177.229 427.326L-177.157 427.694Q-177.433 427.748 -177.686 427.748Q-178.682 427.748 -178.682 426.436L-178.682 409.783L-178.307 409.783L-178.307 410.158L-180.492 410.158L-180.492 409.783L-180.117 409.783L-180.117 426.295Q-180.117 428.82 -178.19 428.82ZM-178.19 429.57Q-180.867 429.57 -180.867 426.295L-180.867 409.408L-177.932 409.408L-177.932 426.436Q-177.932 426.998 -177.686 426.998Q-177.505 426.998 -177.3 426.958L-176.929 426.886L-176.493 429.237L-176.78 429.351Q-177.335 429.57 -178.19 429.57ZM-178.19 429.195C-179.819 429.195 -180.492 428.141 -180.492 426.295L-180.492 409.783L-178.307 409.783L-178.307 426.436C-178.307 427.109 -178.02 427.373 -177.686 427.373C-177.563 427.373 -177.469 427.373 -177.229 427.326L-176.918 429.002C-177.229 429.125 -177.615 429.195 -178.19 429.195Z" fill="#19191A" fill-opacity="1.000000" transform="matrix(1 0 0 1 236.989 62.4736)"/></svg>