<svg xmlns="http://www.w3.org/2000/svg" xmlns:xlink="http://www.w3.org/1999/xlink" width="798.705078" height="1327.814697" viewBox="0 0 798.705 1327.81"><path d="M84 42C84 65.196 65.196 84 42 84C18.804 84 0 65.196 0 42C0 18.804 18.804 0 42 0C65.196 0 84 18.804 84 42" fill="#A3D16E" fill-opacity="1.000000" transform="matrix(1 0 0 1 61.2742 63.4152)"/><path d="M84 42C84 65.196 65.196 84 42 84C18.804 84 0 65.196 0 42C0 18.804 18.804 0 42 0C65.196 0 84 18.804 84 42" fill="none" stroke="#000000" stroke-opacity="1.000000" stroke-width="2" stroke-dasharray="0 0" transform="matrix(1 0 0 1 61.2742 63.4152)"/><clipPath id="clip_1_2_0"><path d="M73.2742 77.4152L133.274 77.4152L133.274 137.415L73.2742 137.415L73.2742 77.4152Z"/></clipPath><g clip-path="url(#clip_1_2_0)"><path d="M33.7775 55L42.1974 55C48.1037 55 52.2082 52.4424 52.2082 47.2568C52.2082 43.6621 49.9758 41.5703 46.8029 40.9639L46.8029 40.7793C49.2902 39.9883 50.6965 37.6855 50.6965 35.0576C50.6965 30.4082 46.9875 28.6152 41.6261 28.6152L33.7775 28.6152L33.7775 55ZM37.1261 39.8477L37.1261 31.2432L41.1867 31.2432C45.2912 31.2432 47.4181 32.3945 47.4181 35.4883C47.4181 38.1514 45.5812 39.8477 41.0461 39.8477L37.1261 39.8477ZM37.1261 52.3369L37.1261 42.3965L41.7316 42.3965C46.3371 42.3965 48.9299 43.873 48.9299 47.1514C48.9299 50.7197 46.2668 52.3369 41.7316 52.3369L37.1261 52.3369Z" fill="#19191A" fill-opacity="1.000000" transform="matrix(1 0 0 1 61.2742 63.4152)"/></g><path d="M84 42C84 65.196 65.196 84 42 84C18.804 84 0 65.196 0 42C0 18.804 18.804 0 42 0C65.196 0 84 18.804 84 42" fill="#A3D16E" fill-opacity="1.000000" transform="matrix(1 0 0 1 35.2503 332.285)"/><path d="M84 42C84 65.196 65.196 84 42 84C18.804 84 0 65.196 0 42C0 18.804 18.804 0 42 0C65.196 0 84 18.804 84 42" fill="none" stroke="#000000" stroke-opacity="1.000000" stroke-width="2" stroke-dasharray="0 0" transform="matrix(1 0 0 1 35.2503 332.285)"/><clipPath id="clip_2_2_0"><path d="M47.2503 346.285L107.25 346.285L107.25 406.285L47.2503 406.285L47.2503 346.285Z"/></clipPath><g clip-path="url(#clip_2_2_0)"><path d="M37.947 44.2686L39.2478 40.2432C40.1795 37.2549 41.0496 34.4072 41.8758 31.3135L42.0164 31.3135C42.8777 34.3721 43.7127 37.2549 44.6795 40.2432L45.9451 44.2686L37.947 44.2686ZM49.2937 55L52.8181 55L43.8533 28.6152L40.1443 28.6152L31.1795 55L34.5633 55L37.1209 46.9316L46.7713 46.9316L49.2937 55Z" fill="#19191A" fill-opacity="1.000000" transform="matrix(1 0 0 1 35.2503 332.285)"/></g><path d="M84 42C84 65.196 65.196 84 42 84C18.804 84 0 65.196 0 42C0 18.804 18.804 0 42 0C65.196 0 84 18.804 84 42" fill="#A3D16E" fill-opacity="1.000000" transform="matrix(1 0 0 1 346.571 238.889)"/><path d="M84 42C84 65.196 65.196 84 42 84C18.804 84 0 65.196 0 42C0 18.804 18.804 0 42 0C65.196 0 84 18.804 84 42" fill="none" stroke="#000000" stroke-opacity="1.000000" stroke-width="2" stroke-dasharray="0 0" transform="matrix(1 0 0 1 346.571 238.889)"/><clipPath id="clip_2_3_0"><path d="M358.571 252.889L418.571 252.889L418.571 312.889L358.571 312.889L358.571 252.889Z"/></clipPath><g clip-path="url(#clip_2_3_0)"><path d="M33.2375 55L40.0051 55C47.9592 55 52.3098 50.0693 52.3098 41.7197C52.3098 33.3262 47.9592 28.6152 39.8557 28.6152L33.2375 28.6152L33.2375 55ZM36.5861 52.2666L36.5861 31.3135L39.5656 31.3135C45.7971 31.3135 48.8557 35.0225 48.8557 41.7197C48.8557 48.373 45.7971 52.2666 39.5656 52.2666L36.5861 52.2666Z" fill="#19191A" fill-opacity="1.000000" transform="matrix(1 0 0 1 346.571 238.889)"/></g><path d="M84 42C84 65.196 65.196 84 42 84C18.804 84 0 65.196 0 42C0 18.804 18.804 0 42 0C65.196 0 84 18.804 84 42" fill="#A3D16E" fill-opacity="1.000000" transform="matrix(1 0 0 1 538.999 12.4737)"/><path d="M84 42C84 65.196 65.196 84 42 84C18.804 84 0 65.196 0 42C0 18.804 18.804 0 42 0C65.196 0 84 18.804 84 42" fill="none" stroke="#000000" stroke-opacity="1.000000" stroke-width="2" stroke-dasharray="0 0" transform="matrix(1 0 0 1 538.999 12.4737)"/><clipPath id="clip_2_4_0"><path d="M550.999 26.4737L610.999 26.4737L610.999 86.4737L550.999 86.4737L550.999 26.4737Z"/></clipPath><g clip-path="url(#clip_2_4_0)"><path d="M35.0195 55L50.6377 55L50.6377 52.1523L38.3681 52.1523L38.3681 42.5459L48.3701 42.5459L48.3701 39.6982L38.3681 39.6982L38.3681 31.4189L50.2422 31.4189L50.2422 28.6152L35.0195 28.6152L35.0195 55Z" fill="#19191A" fill-opacity="1.000000" transform="matrix(1 0 0 1 538.999 12.4737)"/></g><path d="M84 42C84 65.196 65.196 84 42 84C18.804 84 0 65.196 0 42C0 18.804 18.804 0 42 0C65.196 0 84 18.804 84 42" fill="#A3D16E" fill-opacity="1.000000" transform="matrix(1 0 0 1 251.288 510.587)"/><path d="M84 42C84 65.196 65.196 84 42 84C18.804 84 0 65.196 0 42C0 18.804 18.804 0 42 0C65.196 0 84 18.804 84 42" fill="none" stroke="#000000" stroke-opacity="1.000000" stroke-width="2" stroke-dasharray="0 0" transform="matrix(1 0 0 1 251.288 510.587)"/><clipPath id="clip_2_5_0"><path d="M263.288 524.587L323.288 524.587L323.288 584.587L263.288 584.587L263.288 524.587Z"/></clipPath><g clip-path="url(#clip_2_5_0)"><path d="M44.0863 55.4658C47.5053 55.4658 50.098 54.1035 52.1898 51.6865L50.3529 49.6035C48.6566 51.4316 46.7494 52.5479 44.2357 52.5479C39.1908 52.5479 36.0267 48.373 36.0267 41.7197C36.0267 35.1279 39.3402 31.0234 44.3412 31.0234C46.6088 31.0234 48.3754 32.0693 49.7377 33.5459L51.5394 31.3838C50.0277 29.6963 47.5053 28.1055 44.306 28.1055C37.6088 28.1055 32.6078 33.291 32.6078 41.8252C32.6078 50.3945 37.5385 55.4658 44.0863 55.4658Z" fill="#19191A" fill-opacity="1.000000" transform="matrix(1 0 0 1 251.288 510.587)"/></g><path d="M84 42C84 65.196 65.196 84 42 84C18.804 84 0 65.196 0 42C0 18.804 18.804 0 42 0C65.196 0 84 18.804 84 42" fill="#A3D16E" fill-opacity="1.000000" transform="matrix(1 0 0 1 631.477 542.662)"/><path d="M84 42C84 65.196 65.196 84 42 84C18.804 84 0 65.196 0 42C0 18.804 18.804 0 42 0C65.196 0 84 18.804 84 42" fill="none" stroke="#000000" stroke-opacity="1.000000" stroke-width="2" stroke-dasharray="0 0" transform="matrix(1 0 0 1 631.477 542.662)"/><clipPath id="clip_2_6_0"><path d="M643.477 556.662L703.477 556.662L703.477 616.662L643.477 616.662L643.477 556.662Z"/></clipPath><g clip-path="url(#clip_2_6_0)"><path d="M43.5638 55.4658C47.1322 55.4658 50.0501 54.1738 51.7376 52.4072L51.7376 41.3242L43.098 41.3242L43.098 44.0928L48.679 44.0928L48.679 51.001C47.6331 51.9766 45.7962 52.5479 43.889 52.5479C38.2376 52.5479 35.1087 48.373 35.1087 41.7197C35.1087 35.1279 38.5628 31.0234 43.8539 31.0234C46.5521 31.0234 48.2484 32.1396 49.5755 33.5459L51.3773 31.3838C49.8656 29.7666 47.4574 28.1055 43.7835 28.1055C36.7962 28.1055 31.6898 33.291 31.6898 41.8252C31.6898 50.3945 36.6205 55.4658 43.5638 55.4658Z" fill="#19191A" fill-opacity="1.000000" transform="matrix(1 0 0 1 631.477 542.662)"/></g><path d="M84 42C84 65.196 65.196 84 42 84C18.804 84 0 65.196 0 42C0 18.804 18.804 0 42 0C65.196 0 84 18.804 84 42" fill="#A3D16E" fill-opacity="1.000000" transform="matrix(1 0 0 1 702.231 290.285)"/><path d="M84 42C84 65.196 65.196 84 42 84C18.804 84 0 65.196 0 42C0 18.804 18.804 0 42 0C65.196 0 84 18.804 84 42" fill="none" stroke="#000000" stroke-opacity="1.000000" stroke-width="2" stroke-dasharray="0 0" transform="matrix(1 0 0 1 702.231 290.285)"/><clipPath id="clip_2_7_0"><path d="M714.231 304.285L774.231 304.285L774.231 364.285L714.231 364.285L714.231 304.285Z"/></clipPath><g clip-path="url(#clip_2_7_0)"><path d="M35.6675 55L39.0161 55L39.0161 43.1523L49.0884 43.1523L49.0884 40.3486L39.0161 40.3486L39.0161 31.4189L50.8902 31.4189L50.8902 28.6152L35.6675 28.6152L35.6675 55Z" fill="#19191A" fill-opacity="1.000000" transform="matrix(1 0 0 1 702.231 290.285)"/></g><path d="M0 0L-15.9761 -226.87" fill="none" stroke="#19191A" stroke-opacity="1.000000" stroke-width="2" stroke-linejoin="round" stroke-dasharray="0 0" transform="matrix(1 0 0 1 119.25 374.285)"/><path d="M-21.7286 -117.266L-20.7118 -102.826L-21.2729 -102.786L-21.3124 -103.348L-18.5857 -103.54L-18.5462 -102.978L-19.1073 -102.939L-19.5185 -108.778L4.63554 -110.479L4.67506 -109.918L4.11395 -109.878L3.93676 -112.395L4.49787 -112.434L4.0307 -112.121Q2.57032 -114.298 1.70225 -117.613L2.2464 -117.756L2.28592 -117.195L0.208055 -117.048L0.168543 -117.61L0.729652 -117.649L1.09762 -112.424L-19.6722 -110.961L-20.1242 -117.379L-19.5631 -117.418L-19.5235 -116.857L-22.2502 -116.665L-22.2897 -117.226L-21.7286 -117.266ZM-22.8903 -117.748L-19.0415 -118.019L-18.5895 -111.601L-19.1506 -111.562L-19.1902 -112.123L0.457481 -113.506L0.496994 -112.945L-0.0641174 -112.906L-0.432081 -118.131L2.67236 -118.35L2.79056 -117.898Q3.61049 -114.767 4.96503 -112.747L5.04846 -112.623L5.27568 -109.396L-18.8784 -107.695L-18.9179 -108.256L-18.3568 -108.296L-17.9456 -102.457L-21.7945 -102.186L-22.8508 -117.187L-22.8903 -117.748ZM-22.2897 -117.226L-19.5631 -117.418L-19.1506 -111.562L0.496994 -112.945L0.168543 -117.61L2.2464 -117.756C2.849 -115.455 3.57248 -113.814 4.49787 -112.434L4.67506 -109.918L-18.9179 -108.256L-18.5462 -102.978L-21.2729 -102.786L-22.2897 -117.226Z" fill="#19191A" fill-opacity="1.000000" transform="matrix(1 0 0 1 119.25 374.285)"/><path d="M0 0L477.725 -50.9415" fill="none" stroke="#19191A" stroke-opacity="1.000000" stroke-width="2" stroke-linejoin="round" stroke-dasharray="0 0" transform="matrix(1 0 0 1 103.274 147.415)"/><path d="M280.448 -17.3643L297.042 -17.3643L297.042 -16.8018L296.479 -16.8018L296.479 -19.6494L297.042 -19.6494L297.042 -19.0869L289.738 -19.0869Q288.639 -19.0869 286.136 -18.8873Q285.678 -18.8507 285.457 -18.8337L283.876 -18.712L285.027 -19.8028Q295.187 -29.4299 295.187 -35.8828Q295.187 -39.2041 293.281 -41.164Q291.365 -43.1338 288.086 -43.1338Q284.141 -43.1338 280.721 -39.4216L280.307 -39.8027L280.701 -40.2042L282.609 -38.3321L282.214 -37.9307L281.782 -38.2905Q284.504 -41.5605 287.69 -41.5605Q290.318 -41.5605 291.767 -39.89Q293.104 -38.3482 293.104 -35.7773Q293.104 -29.0546 280.818 -18.3205L280.448 -18.7441L281.01 -18.7441L281.01 -16.8018L280.448 -16.8018L280.448 -17.3643ZM279.885 -16.2393L279.885 -18.9996L280.078 -19.1677Q291.979 -29.5656 291.979 -35.7773Q291.979 -40.4355 287.69 -40.4355Q285.032 -40.4355 282.647 -37.5708L282.256 -37.1015L279.524 -39.7831L279.894 -40.1839Q283.648 -44.2588 288.086 -44.2588Q291.84 -44.2588 294.087 -41.9483Q296.312 -39.661 296.312 -35.8828Q296.312 -28.9461 285.801 -18.9862L285.414 -19.3945L285.371 -19.9554Q285.59 -19.9723 286.047 -20.0087Q288.594 -20.2119 289.738 -20.2119L297.604 -20.2119L297.604 -16.2393L280.448 -16.2393L279.885 -16.2393ZM280.448 -16.8018L280.448 -18.7441C288.727 -25.9775 292.542 -31.2334 292.542 -35.7773C292.542 -38.8008 290.96 -40.998 287.69 -40.998C285.528 -40.998 283.656 -39.6621 282.214 -37.9307L280.307 -39.8027C282.469 -42.1494 284.737 -43.6963 288.086 -43.6963C292.797 -43.6963 295.75 -40.5937 295.75 -35.8828C295.75 -30.6269 291.61 -25.2656 285.414 -19.3945C286.785 -19.5 288.402 -19.6494 289.738 -19.6494L297.042 -19.6494L297.042 -16.8018L280.448 -16.8018Z" fill="#19191A" fill-opacity="1.000000" transform="matrix(1 0 0 1 103.274 147.415)"/><path d="M0 0L-155.761 187.797" fill="none" stroke="#19191A" stroke-opacity="1.000000" stroke-width="2" stroke-linejoin="round" stroke-dasharray="0 0" transform="matrix(1 0 0 1 586.222 96.1522)"/><path d="M-93.5298 118.705L-96.6193 108.332L-96.0802 108.172L-96.6082 108.366Q-97.4882 105.97 -98.234 104.275L-98.3741 103.957L-97.6844 103.126L-97.2486 103.527Q-97.0154 103.741 -96.4785 104.24Q-94.472 106.103 -93.7181 106.728L-87.0478 112.26L-93.2295 119.713L-93.5298 118.705ZM-92.4516 118.384L-92.9907 118.544L-93.4237 118.185L-88.2729 111.975L-87.8399 112.334L-88.199 112.767L-94.4363 107.594Q-95.2144 106.949 -97.244 105.064Q-97.7791 104.567 -98.0103 104.355L-97.6295 103.941L-97.1965 104.3L-97.2863 104.408L-97.7192 104.049L-97.2044 103.822Q-96.4443 105.549 -95.5522 107.978L-95.5461 107.994L-92.4516 118.384ZM-83.1819 107.599L-85.7685 110.718L-98.8926 99.8327L-98.5335 99.3998L-98.1005 99.7589L-100.423 102.56L-100.856 102.2L-100.32 102.032L-94.2781 121.305L-94.8148 121.473L-94.4557 121.04L-92.7916 122.421L-93.1507 122.854L-93.5836 122.495L-85.891 113.22L-79.8634 118.219L-80.2225 118.652L-80.6555 118.293L-78.658 115.885L-78.225 116.244L-78.5841 116.677L-84.6117 111.677L-82.0251 108.559L-81.5921 108.918L-81.9512 109.351L-83.974 107.673L-83.6149 107.24L-83.1819 107.599ZM-83.6887 106.448L-80.8001 108.844L-83.3867 111.963L-83.8197 111.604L-83.4606 111.171L-77.433 116.17L-80.1487 119.444L-86.1763 114.445L-85.8172 114.012L-85.3842 114.371L-93.0768 123.646L-95.3019 121.8L-101.485 102.077L-98.6074 98.6077L-85.4833 109.493L-85.8424 109.926L-86.2754 109.567L-84.0478 106.881L-83.6887 106.448ZM-83.6149 107.24L-81.5921 108.918L-83.8197 111.604L-78.225 116.244L-80.2225 118.652L-85.8172 114.012L-93.1507 122.854L-94.8148 121.473L-100.856 102.2L-98.5335 99.3998L-85.8424 109.926L-83.6149 107.24ZM-92.9907 118.544L-87.8399 112.334L-94.0772 107.161C-95.0717 106.336 -96.619 104.87 -97.6295 103.941L-97.7192 104.049C-97.1332 105.38 -96.5989 106.759 -96.0802 108.172L-92.9907 118.544Z" fill="#19191A" fill-opacity="1.000000" transform="matrix(1 0 0 1 586.222 96.1522)"/><path d="M0 0L-95.2831 187.698" fill="none" stroke="#19191A" stroke-opacity="1.000000" stroke-width="2" stroke-linejoin="round" stroke-dasharray="0 0" transform="matrix(1 0 0 1 388.571 322.889)"/><path d="M-61.7396 129.996L-67.0435 120.561L-66.5532 120.286L-67.0253 120.592Q-68.4127 118.449 -69.5143 116.962L-69.7212 116.682L-69.2321 115.719L-68.7186 116.014Q-68.4438 116.171 -67.81 116.539Q-65.4416 117.913 -64.5682 118.356L-56.8409 122.279L-61.224 130.913L-61.7396 129.996ZM-60.7589 129.445L-61.2493 129.72L-61.7508 129.466L-58.0986 122.271L-57.5971 122.526L-57.8517 123.027L-65.0775 119.359Q-65.9789 118.902 -68.3745 117.512Q-69.0061 117.146 -69.2786 116.989L-68.9986 116.501L-68.497 116.756L-68.5607 116.881L-69.0622 116.627L-68.6102 116.292Q-67.4876 117.808 -66.081 119.98L-66.0715 119.995L-60.7589 129.445ZM-54.0997 116.879L-55.9338 120.492L-71.1377 112.774L-70.8831 112.272L-70.3815 112.527L-72.0286 115.772L-72.5302 115.517L-72.0438 115.234L-61.8952 132.697L-62.3815 132.98L-62.1269 132.478L-60.1989 133.457L-60.4536 133.958L-60.9551 133.704L-55.5007 122.959L-48.5179 126.504L-48.7725 127.006L-49.2741 126.751L-47.8578 123.961L-47.3562 124.216L-47.6108 124.717L-54.5937 121.172L-52.7596 117.559L-52.258 117.814L-52.5126 118.316L-54.8559 117.126L-54.6013 116.625L-54.0997 116.879ZM-54.8483 115.868L-51.5018 117.567L-53.3359 121.18L-53.8375 120.925L-53.5828 120.424L-46.6 123.969L-48.5256 127.762L-55.5084 124.217L-55.2538 123.715L-54.7522 123.97L-60.2066 134.715L-62.7843 133.406L-73.1702 115.535L-71.1301 111.516L-55.9261 119.234L-56.1808 119.736L-56.6823 119.481L-55.1029 116.37L-54.8483 115.868ZM-54.6013 116.625L-52.258 117.814L-53.8375 120.925L-47.3562 124.216L-48.7725 127.006L-55.2538 123.715L-60.4536 133.958L-62.3815 132.98L-72.5302 115.517L-70.8831 112.272L-56.1808 119.736L-54.6013 116.625ZM-61.2493 129.72L-57.5971 122.526L-64.8229 118.858C-65.9749 118.273 -67.8078 117.185 -68.9986 116.501L-69.0622 116.627C-68.1967 117.796 -67.3709 119.023 -66.5532 120.286L-61.2493 129.72Z" fill="#19191A" fill-opacity="1.000000" transform="matrix(1 0 0 1 388.571 322.889)"/><path d="M0 0L269.321 -51.3965" fill="none" stroke="#19191A" stroke-opacity="1.000000" stroke-width="2" stroke-linejoin="round" stroke-dasharray="0 0" transform="matrix(1 0 0 1 119.25 374.285)"/><path d="M160.217 -17.6841L163.636 -17.6841L163.636 -17.1216L163.074 -17.1431Q163.397 -25.5877 164.792 -30.3758Q166.474 -36.1476 170.935 -41.8745L171.379 -41.5288L170.817 -41.5288L170.817 -43.5064L171.379 -43.5064L171.379 -42.9439L154.856 -42.9439L154.856 -43.5064L155.418 -43.5064L155.418 -40.7027L154.856 -40.7027L154.856 -41.2652L168.729 -41.2652L168.092 -40.3753Q164.341 -35.1319 162.693 -29.8008Q161.104 -24.6569 160.779 -17.0974L160.217 -17.1216L160.217 -17.6841ZM160.217 -16.5591L159.63 -16.5591L159.655 -17.1458Q159.986 -24.8504 161.619 -30.1329Q163.32 -35.6383 167.177 -41.03L167.635 -40.7027L167.635 -40.1402L154.293 -40.1402L154.293 -44.0689L171.942 -44.0689L171.942 -41.3356L171.823 -41.1831Q167.494 -35.6261 165.872 -30.061Q164.516 -25.4061 164.198 -17.1001L164.177 -16.5591L160.217 -16.5591ZM160.217 -17.1216C160.648 -27.1323 162.485 -33.5044 167.635 -40.7027L154.856 -40.7027L154.856 -43.5064L171.379 -43.5064L171.379 -41.5288C165.183 -33.5747 164.031 -27.4575 163.636 -17.1216L160.217 -17.1216Z" fill="#19191A" fill-opacity="1.000000" transform="matrix(1 0 0 1 119.25 374.285)"/><path d="M0 0L313.692 11.0306" fill="none" stroke="#19191A" stroke-opacity="1.000000" stroke-width="2" stroke-linejoin="round" stroke-dasharray="0 0" transform="matrix(1 0 0 1 388.571 322.889)"/><path d="M163.933 19.442L178.408 19.442L178.408 20.0045L177.846 20.0045L177.846 17.2711L178.408 17.2711L178.408 17.8336L172.555 17.8336L172.555 -6.38025L173.117 -6.38025L173.117 -5.81775L170.595 -5.81775L170.595 -6.38025L170.874 -5.89223Q168.6 -4.58842 165.232 -3.95536L165.128 -4.50818L165.69 -4.50818L165.69 -2.42517L165.128 -2.42517L165.128 -2.98767L170.366 -2.98767L170.366 17.8336L163.933 17.8336L163.933 17.2711L164.495 17.2711L164.495 20.0045L163.933 20.0045L163.933 19.442ZM163.37 20.567L163.37 16.7086L169.804 16.7086L169.804 17.2711L169.241 17.2711L169.241 -2.42517L169.804 -2.42517L169.804 -1.86267L164.565 -1.86267L164.565 -4.9748L165.024 -5.061Q168.205 -5.65895 170.315 -6.86827L170.445 -6.94275L173.68 -6.94275L173.68 17.2711L173.117 17.2711L173.117 16.7086L178.971 16.7086L178.971 20.567L163.933 20.567L163.37 20.567ZM163.933 20.0045L163.933 17.2711L169.804 17.2711L169.804 -2.42517L165.128 -2.42517L165.128 -4.50818C167.466 -4.94764 169.153 -5.55408 170.595 -6.38025L173.117 -6.38025L173.117 17.2711L178.408 17.2711L178.408 20.0045L163.933 20.0045Z" fill="#19191A" fill-opacity="1.000000" transform="matrix(1 0 0 1 388.571 322.889)"/><path d="M0 0L-28.7549 210.377" fill="none" stroke="#19191A" stroke-opacity="1.000000" stroke-width="2" stroke-linejoin="round" stroke-dasharray="0 0" transform="matrix(1 0 0 1 702.231 332.285)"/><path d="M-1.63036 114.594Q-1.16698 111.204 -2.71063 108.768Q-4.30411 106.254 -7.45715 105.823Q-12.3675 105.151 -14.2511 110.122L-14.4097 110.541L-15.3795 110.408L-15.4652 110.027Q-16.4848 105.494 -20.6668 104.922Q-23.4857 104.537 -25.3641 106.269Q-27.2037 107.966 -27.6383 111.146Q-28.1437 114.843 -25.5909 118.491L-26.0518 118.814L-26.3542 118.339L-24.0511 116.871L-23.7488 117.346L-24.1967 117.686Q-26.4957 114.659 -26.1705 111.507L-26.1688 111.49L-26.1661 111.474Q-25.8008 109.232 -24.3384 108.06Q-22.8512 106.868 -20.7154 107.16Q-15.1684 107.918 -16.2348 115.72L-16.7921 115.644L-16.716 115.087L-14.2167 115.428L-14.2929 115.986L-14.8502 115.909Q-13.6624 107.219 -7.86277 108.011Q-5.39534 108.349 -4.12778 110.233Q-2.90599 112.05 -3.25727 114.62Q-3.78609 118.489 -7.36791 121.086L-7.69809 120.631L-7.29916 120.234L-5.38073 122.164L-5.77966 122.56L-6.10099 122.099Q-2.29399 119.449 -1.63036 114.594ZM-0.51572 114.746Q-1.2462 120.091 -5.45834 123.022L-5.8458 123.292L-8.56039 120.561L-8.02827 120.175Q-4.83563 117.86 -4.3719 114.468Q-4.07867 112.322 -5.06127 110.861Q-6.04737 109.395 -8.01512 109.126Q-12.7001 108.486 -13.7356 116.062L-13.8118 116.619L-17.4256 116.125L-17.3494 115.568Q-16.4353 108.88 -20.8678 108.274Q-24.4255 107.788 -25.0558 111.655L-25.611 111.565L-25.0514 111.622Q-25.331 114.332 -23.3008 117.005L-22.9315 117.492L-26.2038 119.578L-26.5127 119.136Q-29.3179 115.127 -28.7529 110.993Q-28.2636 107.413 -26.1268 105.442Q-23.8586 103.35 -20.5145 103.807Q-15.5586 104.485 -14.3676 109.78L-14.9164 109.904L-14.8403 109.346L-14.7009 109.365L-14.7771 109.923L-15.3031 109.723Q-14.345 107.195 -12.3022 105.819Q-10.0882 104.328 -7.30479 104.708Q-3.63375 105.21 -1.76039 108.166Q0.00333405 110.949 -0.51572 114.746ZM-1.07304 114.67C-1.63364 118.772 -3.69155 121.107 -5.77966 122.56L-7.69809 120.631C-5.88632 119.317 -4.21926 117.504 -3.81458 114.544C-3.39086 111.444 -4.94336 108.978 -7.93895 108.569C-11.0826 108.139 -13.4693 109.96 -14.2929 115.986L-16.7921 115.644C-16.0554 110.254 -17.9789 108.101 -20.7916 107.717C-23.3256 107.371 -25.1711 108.866 -25.611 111.565C-25.8293 113.681 -25.0117 115.683 -23.7488 117.346L-26.0518 118.814C-27.6028 116.597 -28.6098 114.1 -28.1956 111.069C-27.5957 106.68 -24.7967 103.79 -20.5906 104.365C-17.4209 104.798 -15.573 106.984 -14.9164 109.904L-14.7771 109.923C-13.6393 106.92 -10.9426 104.778 -7.38097 105.265C-2.70472 105.904 -0.438641 110.029 -1.07304 114.67Z" fill="#19191A" fill-opacity="1.000000" transform="matrix(1 0 0 1 702.231 332.285)"/><path d="M0 0L-379.434 -32.0904" fill="none" stroke="#19191A" stroke-opacity="1.000000" stroke-width="2" stroke-linejoin="round" stroke-dasharray="0 0" transform="matrix(1 0 0 1 674.609 542.677)"/><path d="M-205.963 -3.27057L-189.369 -3.27057L-189.369 -2.70807L-189.931 -2.70807L-189.931 -5.55573L-189.369 -5.55573L-189.369 -4.99323L-196.673 -4.99323Q-197.772 -4.99323 -200.274 -4.79358Q-200.733 -4.757 -200.954 -4.74L-202.535 -4.61837L-201.384 -5.70916Q-191.223 -15.3363 -191.223 -21.7891Q-191.223 -25.1105 -193.13 -27.0703Q-195.046 -29.0401 -198.325 -29.0401Q-202.269 -29.0401 -205.69 -25.3279L-206.103 -25.709L-205.709 -26.1105L-203.802 -24.2384L-204.196 -23.837L-204.628 -24.1969Q-201.906 -27.4669 -198.721 -27.4669Q-196.093 -27.4669 -194.644 -25.7963Q-193.306 -24.2545 -193.306 -21.6837Q-193.306 -14.9609 -205.593 -4.22685L-205.963 -4.65045L-205.4 -4.65045L-205.4 -2.70807L-205.963 -2.70807L-205.963 -3.27057ZM-206.525 -2.14557L-206.525 -4.90595L-206.333 -5.07405Q-194.431 -15.4719 -194.431 -21.6837Q-194.431 -26.3419 -198.721 -26.3419Q-201.379 -26.3419 -203.764 -23.4771L-204.154 -23.0079L-206.886 -25.6894L-206.517 -26.0902Q-202.763 -30.1651 -198.325 -30.1651Q-194.57 -30.1651 -192.323 -27.8547Q-190.098 -25.5673 -190.098 -21.7891Q-190.098 -14.8524 -200.61 -4.89252L-200.997 -5.30084L-201.04 -5.86169Q-200.821 -5.87857 -200.364 -5.91501Q-197.816 -6.11823 -196.673 -6.11823L-188.806 -6.11823L-188.806 -2.14557L-205.963 -2.14557L-206.525 -2.14557ZM-205.963 -2.70807L-205.963 -4.65045C-197.683 -11.8839 -193.869 -17.1397 -193.869 -21.6837C-193.869 -24.7071 -195.451 -26.9044 -198.721 -26.9044C-200.883 -26.9044 -202.755 -25.5684 -204.196 -23.837L-206.103 -25.709C-203.941 -28.0557 -201.674 -29.6026 -198.325 -29.6026C-193.614 -29.6026 -190.661 -26.5001 -190.661 -21.7891C-190.661 -16.5333 -194.801 -11.1719 -200.997 -5.30084C-199.626 -5.40631 -198.009 -5.55573 -196.673 -5.55573L-189.369 -5.55573L-189.369 -2.70807L-205.963 -2.70807Z" fill="#19191A" fill-opacity="1.000000" transform="matrix(1 0 0 1 674.609 542.677)"/><path d="M0 0L174.038 136.302" fill="none" stroke="#19191A" stroke-opacity="1.000000" stroke-width="2" stroke-linejoin="round" stroke-dasharray="0 0" transform="matrix(1 0 0 1 119.25 374.285)"/><path d="M99.2729 80.3221Q93.9907 80.3221 93.9907 73.8885Q93.9907 71.0415 95.3968 69.2097Q96.8247 67.3494 99.018 67.3494Q104.758 67.3494 105.345 76.1891L105.358 76.3868L105.244 76.5491Q102.602 80.3221 99.2729 80.3221ZM99.2729 79.1971Q102.016 79.1971 104.323 75.9037L104.784 76.2264L104.222 76.2636Q103.706 68.4744 99.018 68.4744Q97.3794 68.4744 96.2892 69.8947Q95.1157 71.4235 95.1157 73.8885Q95.1157 79.1971 99.2729 79.1971ZM92.3761 89.5929Q94.7855 92.117 98.2973 92.117Q102.128 92.117 104.503 88.9536Q107.315 85.2079 107.315 77.8875Q107.315 71.9888 104.904 68.7946Q102.705 65.8817 99.018 65.8817Q96.1162 65.8817 94.1145 68.0687Q92.0219 70.355 92.0219 73.8885Q92.0219 81.6404 98.7368 81.6404Q101.933 81.6404 104.38 78.582L105.433 77.2647L105.381 78.9509Q105.022 90.5086 98.1919 90.5086Q95.2969 90.5086 93.3416 88.3069L93.7622 87.9334L94.1854 88.304L92.3924 90.3518L91.9692 89.9813L92.3761 89.5929ZM91.2072 89.9977L93.7592 87.0829L94.1827 87.5599Q95.8024 89.3836 98.1919 89.3836Q103.931 89.3836 104.257 78.9159L104.819 78.9334L105.258 79.2848Q102.474 82.7654 98.7368 82.7654Q95.1182 82.7654 93.0343 80.4779Q90.8969 78.1315 90.8969 73.8885Q90.8969 69.9178 93.2846 67.3091Q95.6208 64.7567 99.018 64.7567Q103.265 64.7567 105.802 68.1169Q108.44 71.6118 108.44 77.8875Q108.44 85.5832 105.403 89.629Q102.69 93.242 98.2973 93.242Q94.3041 93.242 91.5623 90.3697L91.2072 89.9977ZM91.9692 89.9813L93.7622 87.9334C94.8784 89.1903 96.5044 89.9461 98.1919 89.9461C101.611 89.9461 104.564 87.1336 104.819 78.9334C103.237 80.911 100.969 82.2029 98.7368 82.2029C94.3422 82.2029 91.4594 79.3641 91.4594 73.8885C91.4594 68.7821 94.9135 65.3192 99.018 65.3192C104.098 65.3192 107.877 69.494 107.877 77.8875C107.877 88.575 103.272 92.6795 98.2973 92.6795C95.4585 92.6795 93.4458 91.5281 91.9692 89.9813ZM99.2729 79.7596C101.04 79.7596 103.017 78.7488 104.784 76.2264C104.423 70.7947 102.402 67.9119 99.018 67.9119C96.5044 67.9119 94.5532 70.2938 94.5532 73.8885C94.5532 77.4569 96.144 79.7596 99.2729 79.7596Z" fill="#19191A" fill-opacity="1.000000" transform="matrix(1 0 0 1 119.25 374.285)"/><path d="M0 0L115.243 233.888" fill="none" stroke="#19191A" stroke-opacity="1.000000" stroke-width="2" stroke-linejoin="round" stroke-dasharray="0 0" transform="matrix(1 0 0 1 586.992 97.8698)"/><path d="M42.9066 117.483L44.4177 120.549L43.9131 120.798L43.684 120.284Q51.4017 116.842 56.3134 115.977Q62.2342 114.935 69.3433 116.405L69.2293 116.956L68.9807 116.452L70.7546 115.578L71.0032 116.082L70.4986 116.331L63.1955 101.509L63.7001 101.26L63.9487 101.765L61.4337 103.004L61.1851 102.5L61.6897 102.251L67.8215 114.696L66.7419 114.518Q60.3803 113.47 54.8701 114.349Q49.5535 115.197 42.6287 118.246L42.402 117.731L42.9066 117.483ZM41.8974 117.98L41.6379 117.453L42.1753 117.216Q49.233 114.108 54.6929 113.238Q60.3832 112.33 66.9248 113.408L66.8334 113.963L66.3288 114.211L60.4319 102.244L63.956 100.507L71.7564 116.338L69.3046 117.546L69.1154 117.507Q62.2172 116.08 56.5085 117.085Q51.7334 117.926 44.1423 121.312L43.6478 121.532L41.8974 117.98ZM42.402 117.731C51.5722 113.693 58.1 112.524 66.8334 113.963L61.1851 102.5L63.7001 101.26L71.0032 116.082L69.2293 116.956C59.3556 114.914 53.3595 116.585 43.9131 120.798L42.402 117.731Z" fill="#19191A" fill-opacity="1.000000" transform="matrix(1 0 0 1 586.992 97.8698)"/><path d="M0 0L284.906 217.434" fill="none" stroke="#19191A" stroke-opacity="1.000000" stroke-width="2" stroke-linejoin="round" stroke-dasharray="0 0" transform="matrix(1 0 0 1 388.571 322.889)"/><path d="M114.322 99.0725Q108.724 99.0725 108.075 90.0956L108.06 89.8956L108.175 89.7316Q110.72 86.1087 114.032 86.1087Q119.349 86.1087 119.349 92.4983Q119.349 95.3546 117.948 97.1961Q116.52 99.0725 114.322 99.0725ZM114.322 97.9475Q115.963 97.9475 117.053 96.5149Q118.224 94.9752 118.224 92.4983Q118.224 87.2337 114.032 87.2337Q111.305 87.2337 109.096 90.3783L108.636 90.055L109.197 90.0144Q109.771 97.9475 114.322 97.9475ZM121.003 76.789Q118.656 74.2698 115.254 74.2698Q111.316 74.2698 108.902 77.3286Q106.06 80.9302 106.06 87.9983Q106.06 94.1459 108.461 97.4734Q110.648 100.505 114.322 100.505Q117.225 100.505 119.226 98.3213Q121.318 96.0368 121.318 92.4983Q121.318 84.7815 114.577 84.7815Q111.455 84.7815 109.001 87.7831L107.975 89.0373L108.003 87.4174Q108.2 75.887 115.368 75.887Q118.202 75.887 120.045 78.1024L119.613 78.4622L119.19 78.0915L120.992 76.0349L121.415 76.4055L121.003 76.789ZM122.173 76.3939L119.602 79.3284L119.181 78.822Q117.674 77.012 115.368 77.012Q109.306 77.012 109.128 87.4367L108.565 87.427L108.13 87.0709Q110.922 83.6565 114.577 83.6565Q118.241 83.6565 120.314 85.915Q122.443 88.2339 122.443 92.4983Q122.443 96.4742 120.055 99.0811Q117.721 101.63 114.322 101.63Q110.073 101.63 107.549 98.1316Q104.935 94.5094 104.935 87.9983Q104.935 80.5398 108.019 76.6317Q110.771 73.1448 115.254 73.1448Q119.145 73.1448 121.826 76.0221L122.173 76.3939ZM121.415 76.4055L119.613 78.4622C118.567 77.2054 116.985 76.4495 115.368 76.4495C111.764 76.4495 108.706 79.218 108.565 87.427C110.182 85.4495 112.485 84.219 114.577 84.219C119.033 84.219 121.881 86.9964 121.881 92.4983C121.881 97.6136 118.427 101.068 114.322 101.068C109.242 101.068 105.498 96.7171 105.498 87.9983C105.498 77.6712 110.147 73.7073 115.254 73.7073C117.996 73.7073 119.973 74.8587 121.415 76.4055ZM114.322 98.51C116.845 98.51 118.787 96.1018 118.787 92.4983C118.787 88.9388 117.24 86.6712 114.032 86.6712C112.38 86.6712 110.358 87.6028 108.636 90.055C109.031 95.5218 111.009 98.51 114.322 98.51Z" fill="#19191A" fill-opacity="1.000000" transform="matrix(1 0 0 1 388.571 322.889)"/><path d="M0 0L-243.297 -133.473" fill="none" stroke="#19191A" stroke-opacity="1.000000" stroke-width="2" stroke-linejoin="round" stroke-dasharray="0 0" transform="matrix(1 0 0 1 346.571 280.889)"/><path d="M-88.2726 -34.1972Q-84.9559 -34.1972 -82.6686 -36.3997Q-80.1954 -38.7813 -80.1954 -42.705Q-80.1954 -46.6078 -82.3502 -48.6623Q-84.3063 -50.5273 -87.587 -50.5273Q-89.5085 -50.5273 -91.2419 -49.5613L-92.1661 -49.0463L-91.3819 -58.2441L-80.8898 -58.2441L-80.8898 -57.6816L-81.4523 -57.6816L-81.4523 -60.4853L-80.8898 -60.4853L-80.8898 -59.9228L-93.7482 -59.9228L-93.7482 -60.4853L-93.1869 -60.4477L-94.0131 -48.0991L-94.5743 -48.1366L-94.2825 -48.6175L-92.5159 -47.5452L-92.8077 -47.0644L-93.1185 -47.5332Q-90.6433 -49.1738 -88.4132 -49.1738Q-85.6596 -49.1738 -84.0242 -47.4044Q-82.3839 -45.6298 -82.3839 -42.5995Q-82.3839 -39.5539 -84.1822 -37.6506Q-85.9254 -35.8056 -88.5626 -35.8056Q-92.3552 -35.8056 -95.4379 -38.8883L-95.0401 -39.2861L-94.5897 -38.9491L-96.2069 -36.787L-96.6573 -37.1239L-96.2586 -37.5207Q-92.9516 -34.1972 -88.2726 -34.1972ZM-88.2726 -33.0722Q-93.4193 -33.0722 -97.0561 -36.7272L-97.3989 -37.0717L-95.1016 -40.143L-94.6424 -39.6838Q-91.8892 -36.9306 -88.5626 -36.9306Q-86.4102 -36.9306 -84.9999 -38.4232Q-83.5089 -40.0013 -83.5089 -42.5995Q-83.5089 -48.0488 -88.4132 -48.0488Q-90.3044 -48.0488 -92.497 -46.5955L-92.7945 -46.3983L-95.1584 -47.8331L-94.2743 -61.0478L-80.3273 -61.0478L-80.3273 -57.1191L-90.8653 -57.1191L-90.8653 -57.6816L-90.3049 -57.6338L-90.9553 -50.0049L-91.5157 -50.0527L-91.7895 -50.544Q-89.8008 -51.6523 -87.587 -51.6523Q-83.8559 -51.6523 -81.5739 -49.4765Q-79.0704 -47.0896 -79.0704 -42.705Q-79.0704 -38.3028 -81.8883 -35.5894Q-84.5023 -33.0722 -88.2726 -33.0722ZM-88.2726 -33.6347C-92.3771 -33.6347 -94.8995 -35.3573 -96.6573 -37.1239L-95.0401 -39.2861C-93.5284 -37.7743 -91.6212 -36.3681 -88.5626 -36.3681C-85.4601 -36.3681 -82.9464 -38.7411 -82.9464 -42.5995C-82.9464 -46.3788 -85.0997 -48.6113 -88.4132 -48.6113C-90.1798 -48.6113 -91.296 -48.0663 -92.8077 -47.0644L-94.5743 -48.1366L-93.7482 -60.4853L-80.8898 -60.4853L-80.8898 -57.6816L-90.8653 -57.6816L-91.5157 -50.0527C-90.3644 -50.6943 -89.1691 -51.0898 -87.587 -51.0898C-83.1925 -51.0898 -79.6329 -48.497 -79.6329 -42.705C-79.6329 -36.9042 -83.8077 -33.6347 -88.2726 -33.6347Z" fill="#19191A" fill-opacity="1.000000" transform="matrix(1 0 0 1 346.571 280.889)"/><path d="M84 42C84 65.196 65.196 84 42 84C18.804 84 0 65.196 0 42C0 18.804 18.804 0 42 0C65.196 0 84 18.804 84 42" fill="#A3D16E" fill-opacity="1.000000" transform="matrix(1 0 0 1 38.4976 752.094)"/><path d="M84 42C84 65.196 65.196 84 42 84C18.804 84 0 65.196 0 42C0 18.804 18.804 0 42 0C65.196 0 84 18.804 84 42" fill="none" stroke="#000000" stroke-opacity="1.000000" stroke-width="2" stroke-dasharray="0 0" transform="matrix(1 0 0 1 38.4976 752.094)"/><clipPath id="clip_2_21_0"><path d="M50.4976 766.094L110.498 766.094L110.498 826.094L50.4976 826.094L50.4976 766.094Z"/></clipPath><g clip-path="url(#clip_2_21_0)"><path d="M33.7775 55L42.1974 55C48.1037 55 52.2082 52.4424 52.2082 47.2568C52.2082 43.6621 49.9758 41.5703 46.8029 40.9639L46.8029 40.7793C49.2902 39.9883 50.6965 37.6855 50.6965 35.0576C50.6965 30.4082 46.9875 28.6152 41.6261 28.6152L33.7775 28.6152L33.7775 55ZM37.1261 39.8477L37.1261 31.2432L41.1867 31.2432C45.2912 31.2432 47.4181 32.3945 47.4181 35.4883C47.4181 38.1514 45.5812 39.8477 41.0461 39.8477L37.1261 39.8477ZM37.1261 52.3369L37.1261 42.3965L41.7316 42.3965C46.3371 42.3965 48.9299 43.873 48.9299 47.1514C48.9299 50.7197 46.2668 52.3369 41.7316 52.3369L37.1261 52.3369Z" fill="#19191A" fill-opacity="1.000000" transform="matrix(1 0 0 1 38.4976 752.094)"/></g><path d="M84 42C84 65.196 65.196 84 42 84C18.804 84 0 65.196 0 42C0 18.804 18.804 0 42 0C65.196 0 84 18.804 84 42" fill="#A3D16E" fill-opacity="1.000000" transform="matrix(1 0 0 1 12.4737 1020.96)"/><path d="M84 42C84 65.196 65.196 84 42 84C18.804 84 0 65.196 0 42C0 18.804 18.804 0 42 0C65.196 0 84 18.804 84 42" fill="none" stroke="#000000" stroke-opacity="1.000000" stroke-width="2" stroke-dasharray="0 0" transform="matrix(1 0 0 1 12.4737 1020.96)"/><clipPath id="clip_2_22_0"><path d="M24.4737 1034.96L84.4737 1034.96L84.4737 1094.96L24.4737 1094.96L24.4737 1034.96Z"/></clipPath><g clip-path="url(#clip_2_22_0)"><path d="M37.947 44.2686L39.2478 40.2432C40.1795 37.2549 41.0496 34.4072 41.8758 31.3135L42.0164 31.3135C42.8777 34.3721 43.7127 37.2549 44.6795 40.2432L45.9451 44.2686L37.947 44.2686ZM49.2937 55L52.8181 55L43.8533 28.6152L40.1443 28.6152L31.1795 55L34.5633 55L37.1209 46.9316L46.7713 46.9316L49.2937 55Z" fill="#19191A" fill-opacity="1.000000" transform="matrix(1 0 0 1 12.4737 1020.96)"/></g><path d="M84 42C84 65.196 65.196 84 42 84C18.804 84 0 65.196 0 42C0 18.804 18.804 0 42 0C65.196 0 84 18.804 84 42" fill="#A3D16E" fill-opacity="1.000000" transform="matrix(1 0 0 1 323.794 927.568)"/><path d="M84 42C84 65.196 65.196 84 42 84C18.804 84 0 65.196 0 42C0 18.804 18.804 0 42 0C65.196 0 84 18.804 84 42" fill="none" stroke="#000000" stroke-opacity="1.000000" stroke-width="2" stroke-dasharray="0 0" transform="matrix(1 0 0 1 323.794 927.568)"/><clipPath id="clip_2_23_0"><path d="M335.794 941.568L395.794 941.568L395.794 1001.57L335.794 1001.57L335.794 941.568Z"/></clipPath><g clip-path="url(#clip_2_23_0)"><path d="M33.2375 55L40.0051 55C47.9592 55 52.3098 50.0693 52.3098 41.7197C52.3098 33.3262 47.9592 28.6152 39.8557 28.6152L33.2375 28.6152L33.2375 55ZM36.5861 52.2666L36.5861 31.3135L39.5656 31.3135C45.7971 31.3135 48.8557 35.0225 48.8557 41.7197C48.8557 48.373 45.7971 52.2666 39.5656 52.2666L36.5861 52.2666Z" fill="#19191A" fill-opacity="1.000000" transform="matrix(1 0 0 1 323.794 927.568)"/></g><path d="M84 42C84 65.196 65.196 84 42 84C18.804 84 0 65.196 0 42C0 18.804 18.804 0 42 0C65.196 0 84 18.804 84 42" fill="#A3D16E" fill-opacity="1.000000" transform="matrix(1 0 0 1 516.222 701.153)"/><path d="M84 42C84 65.196 65.196 84 42 84C18.804 84 0 65.196 0 42C0 18.804 18.804 0 42 0C65.196 0 84 18.804 84 42" fill="none" stroke="#000000" stroke-opacity="1.000000" stroke-width="2" stroke-dasharray="0 0" transform="matrix(1 0 0 1 516.222 701.153)"/><clipPath id="clip_2_24_0"><path d="M528.222 715.153L588.222 715.153L588.222 775.153L528.222 775.153L528.222 715.153Z"/></clipPath><g clip-path="url(#clip_2_24_0)"><path d="M35.0195 55L50.6377 55L50.6377 52.1523L38.3681 52.1523L38.3681 42.5459L48.3701 42.5459L48.3701 39.6982L38.3681 39.6982L38.3681 31.4189L50.2422 31.4189L50.2422 28.6152L35.0195 28.6152L35.0195 55Z" fill="#19191A" fill-opacity="1.000000" transform="matrix(1 0 0 1 516.222 701.153)"/></g><path d="M84 42C84 65.196 65.196 84 42 84C18.804 84 0 65.196 0 42C0 18.804 18.804 0 42 0C65.196 0 84 18.804 84 42" fill="#A3D16E" fill-opacity="1.000000" transform="matrix(1 0 0 1 228.511 1199.27)"/><path d="M84 42C84 65.196 65.196 84 42 84C18.804 84 0 65.196 0 42C0 18.804 18.804 0 42 0C65.196 0 84 18.804 84 42" fill="none" stroke="#000000" stroke-opacity="1.000000" stroke-width="2" stroke-dasharray="0 0" transform="matrix(1 0 0 1 228.511 1199.27)"/><clipPath id="clip_2_25_0"><path d="M240.511 1213.27L300.511 1213.27L300.511 1273.27L240.511 1273.27L240.511 1213.27Z"/></clipPath><g clip-path="url(#clip_2_25_0)"><path d="M44.0863 55.4658C47.5053 55.4658 50.098 54.1035 52.1898 51.6865L50.3529 49.6035C48.6566 51.4316 46.7494 52.5479 44.2357 52.5479C39.1908 52.5479 36.0267 48.373 36.0267 41.7197C36.0267 35.1279 39.3402 31.0234 44.3412 31.0234C46.6088 31.0234 48.3754 32.0693 49.7377 33.5459L51.5394 31.3838C50.0277 29.6963 47.5053 28.1055 44.306 28.1055C37.6088 28.1055 32.6078 33.291 32.6078 41.8252C32.6078 50.3945 37.5385 55.4658 44.0863 55.4658Z" fill="#19191A" fill-opacity="1.000000" transform="matrix(1 0 0 1 228.511 1199.27)"/></g><path d="M84 42C84 65.196 65.196 84 42 84C18.804 84 0 65.196 0 42C0 18.804 18.804 0 42 0C65.196 0 84 18.804 84 42" fill="#A3D16E" fill-opacity="1.000000" transform="matrix(1 0 0 1 608.7 1231.34)"/><path d="M84 42C84 65.196 65.196 84 42 84C18.804 84 0 65.196 0 42C0 18.804 18.804 0 42 0C65.196 0 84 18.804 84 42" fill="none" stroke="#000000" stroke-opacity="1.000000" stroke-width="2" stroke-dasharray="0 0" transform="matrix(1 0 0 1 608.7 1231.34)"/><clipPath id="clip_2_26_0"><path d="M620.7 1245.34L680.7 1245.34L680.7 1305.34L620.7 1305.34L620.7 1245.34Z"/></clipPath><g clip-path="url(#clip_2_26_0)"><path d="M43.5638 55.4658C47.1322 55.4658 50.0501 54.1738 51.7376 52.4072L51.7376 41.3242L43.098 41.3242L43.098 44.0928L48.679 44.0928L48.679 51.001C47.6331 51.9766 45.7962 52.5479 43.889 52.5479C38.2376 52.5479 35.1087 48.373 35.1087 41.7197C35.1087 35.1279 38.5628 31.0234 43.8539 31.0234C46.5521 31.0234 48.2484 32.1396 49.5755 33.5459L51.3773 31.3838C49.8656 29.7666 47.4574 28.1055 43.7835 28.1055C36.7962 28.1055 31.6898 33.291 31.6898 41.8252C31.6898 50.3945 36.6205 55.4658 43.5638 55.4658Z" fill="#19191A" fill-opacity="1.000000" transform="matrix(1 0 0 1 608.7 1231.34)"/></g><path d="M84 42C84 65.196 65.196 84 42 84C18.804 84 0 65.196 0 42C0 18.804 18.804 0 42 0C65.196 0 84 18.804 84 42" fill="#A3D16E" fill-opacity="1.000000" transform="matrix(1 0 0 1 679.455 978.964)"/><path d="M84 42C84 65.196 65.196 84 42 84C18.804 84 0 65.196 0 42C0 18.804 18.804 0 42 0C65.196 0 84 18.804 84 42" fill="none" stroke="#000000" stroke-opacity="1.000000" stroke-width="2" stroke-dasharray="0 0" transform="matrix(1 0 0 1 679.455 978.964)"/><clipPath id="clip_2_27_0"><path d="M691.455 992.964L751.455 992.964L751.455 1052.96L691.455 1052.96L691.455 992.964Z"/></clipPath><g clip-path="url(#clip_2_27_0)"><path d="M35.6675 55L39.0161 55L39.0161 43.1523L49.0884 43.1523L49.0884 40.3486L39.0161 40.3486L39.0161 31.4189L50.8902 31.4189L50.8902 28.6152L35.6675 28.6152L35.6675 55Z" fill="#19191A" fill-opacity="1.000000" transform="matrix(1 0 0 1 679.455 978.964)"/></g><path d="M0 0L-15.9761 -226.87" fill="none" stroke="#ED1252" stroke-opacity="1.000000" stroke-width="4" stroke-linejoin="round" stroke-dasharray="0 0" transform="matrix(1 0 0 1 96.4737 1062.96)"/><path d="M-21.7286 -117.266L-20.7118 -102.826L-21.2729 -102.786L-21.3124 -103.348L-18.5857 -103.54L-18.5462 -102.978L-19.1073 -102.939L-19.5185 -108.778L4.63554 -110.479L4.67506 -109.918L4.11395 -109.878L3.93676 -112.395L4.49787 -112.434L4.0307 -112.121Q2.57032 -114.298 1.70225 -117.613L2.2464 -117.756L2.28592 -117.195L0.208055 -117.048L0.168543 -117.61L0.729652 -117.649L1.09762 -112.424L-19.6722 -110.961L-20.1242 -117.379L-19.5631 -117.418L-19.5235 -116.857L-22.2502 -116.665L-22.2897 -117.226L-21.7286 -117.266ZM-22.8903 -117.748L-19.0415 -118.019L-18.5895 -111.601L-19.1506 -111.562L-19.1902 -112.123L0.457481 -113.506L0.496994 -112.945L-0.0641174 -112.906L-0.432081 -118.131L2.67236 -118.35L2.79056 -117.898Q3.61049 -114.767 4.96503 -112.747L5.04846 -112.623L5.27568 -109.396L-18.8784 -107.695L-18.9179 -108.256L-18.3568 -108.296L-17.9456 -102.457L-21.7945 -102.186L-22.8508 -117.187L-22.8903 -117.748ZM-22.2897 -117.226L-19.5631 -117.418L-19.1506 -111.562L0.496994 -112.945L0.168543 -117.61L2.2464 -117.756C2.849 -115.455 3.57248 -113.814 4.49787 -112.434L4.67506 -109.918L-18.9179 -108.256L-18.5462 -102.978L-21.2729 -102.786L-22.2897 -117.226Z" fill="#FF4568" fill-opacity="1.000000" transform="matrix(1 0 0 1 96.4737 1062.96)"/><path d="M0 0L477.725 -50.9415" fill="none" stroke="#ED1252" stroke-opacity="1.000000" stroke-width="4" stroke-linejoin="round" stroke-dasharray="0 0" transform="matrix(1 0 0 1 80.4976 836.094)"/><path d="M280.448 -17.3642L297.042 -17.3642L297.042 -16.8017L296.479 -16.8017L296.479 -19.6494L297.042 -19.6494L297.042 -19.0869L289.738 -19.0869Q288.639 -19.0869 286.136 -18.8873Q285.678 -18.8507 285.457 -18.8337L283.876 -18.712L285.027 -19.8028Q295.187 -29.4299 295.187 -35.8828Q295.187 -39.2041 293.281 -41.1639Q291.365 -43.1338 288.086 -43.1338Q284.141 -43.1338 280.721 -39.4216L280.307 -39.8027L280.701 -40.2042L282.609 -38.3321L282.214 -37.9307L281.782 -38.2905Q284.504 -41.5605 287.69 -41.5605Q290.318 -41.5605 291.767 -39.89Q293.104 -38.3482 293.104 -35.7773Q293.104 -29.0546 280.818 -18.3205L280.448 -18.7441L281.01 -18.7441L281.01 -16.8017L280.448 -16.8017L280.448 -17.3642ZM279.885 -16.2392L279.885 -18.9996L280.078 -19.1677Q291.979 -29.5656 291.979 -35.7773Q291.979 -40.4355 287.69 -40.4355Q285.032 -40.4355 282.647 -37.5708L282.256 -37.1015L279.524 -39.7831L279.894 -40.1839Q283.648 -44.2588 288.086 -44.2588Q291.84 -44.2588 294.087 -41.9483Q296.312 -39.661 296.312 -35.8828Q296.312 -28.9461 285.801 -18.9862L285.414 -19.3945L285.371 -19.9554Q285.59 -19.9722 286.047 -20.0087Q288.594 -20.2119 289.738 -20.2119L297.604 -20.2119L297.604 -16.2392L280.448 -16.2392L279.885 -16.2392ZM280.448 -16.8017L280.448 -18.7441C288.727 -25.9775 292.542 -31.2334 292.542 -35.7773C292.542 -38.8008 290.96 -40.998 287.69 -40.998C285.528 -40.998 283.656 -39.6621 282.214 -37.9307L280.307 -39.8027C282.469 -42.1494 284.737 -43.6963 288.086 -43.6963C292.797 -43.6963 295.75 -40.5937 295.75 -35.8828C295.75 -30.6269 291.61 -25.2656 285.414 -19.3945C286.785 -19.5 288.402 -19.6494 289.738 -19.6494L297.042 -19.6494L297.042 -16.8017L280.448 -16.8017Z" fill="#FF4568" fill-opacity="1.000000" transform="matrix(1 0 0 1 80.4976 836.094)"/><path d="M0 0L-155.761 187.797" fill="none" stroke="#ED1252" stroke-opacity="1.000000" stroke-width="4" stroke-linejoin="round" stroke-dasharray="0 0" transform="matrix(1 0 0 1 563.445 784.831)"/><path d="M-93.5298 118.705L-96.6193 108.332L-96.0802 108.172L-96.6082 108.366Q-97.4882 105.97 -98.234 104.275L-98.3741 103.957L-97.6844 103.126L-97.2486 103.527Q-97.0154 103.741 -96.4785 104.24Q-94.472 106.103 -93.7181 106.728L-87.0478 112.26L-93.2295 119.713L-93.5298 118.705ZM-92.4516 118.384L-92.9907 118.544L-93.4237 118.185L-88.2728 111.975L-87.8399 112.334L-88.199 112.767L-94.4363 107.594Q-95.2144 106.948 -97.2439 105.064Q-97.779 104.567 -98.0102 104.355L-97.6294 103.941L-97.1965 104.3L-97.2862 104.408L-97.7192 104.049L-97.2044 103.822Q-96.4443 105.549 -95.5521 107.978L-95.5461 107.994L-92.4516 118.384ZM-83.1819 107.599L-85.7685 110.718L-98.8926 99.8327L-98.5335 99.3997L-98.1005 99.7588L-100.423 102.56L-100.856 102.2L-100.32 102.032L-94.2781 121.305L-94.8148 121.473L-94.4557 121.04L-92.7915 122.421L-93.1506 122.854L-93.5836 122.495L-85.891 113.22L-79.8634 118.219L-80.2225 118.652L-80.6555 118.293L-78.658 115.885L-78.225 116.244L-78.5841 116.677L-84.6117 111.677L-82.0251 108.559L-81.5921 108.918L-81.9512 109.351L-83.9739 107.673L-83.6148 107.24L-83.1819 107.599ZM-83.6887 106.448L-80.8 108.844L-83.3867 111.963L-83.8196 111.604L-83.4605 111.171L-77.4329 116.17L-80.1486 119.444L-86.1762 114.445L-85.8171 114.012L-85.3842 114.371L-93.0768 123.646L-95.3018 121.8L-101.485 102.077L-98.6073 98.6077L-85.4833 109.493L-85.8424 109.926L-86.2753 109.567L-84.0478 106.881L-83.6887 106.448ZM-83.6148 107.24L-81.5921 108.918L-83.8196 111.604L-78.225 116.244L-80.2225 118.652L-85.8171 114.012L-93.1506 122.854L-94.8148 121.473L-100.856 102.2L-98.5335 99.3997L-85.8424 109.926L-83.6148 107.24ZM-92.9907 118.544L-87.8399 112.334L-94.0772 107.161C-95.0716 106.336 -96.619 104.87 -97.6294 103.941L-97.7192 104.049C-97.1332 105.38 -96.5988 106.759 -96.0802 108.172L-92.9907 118.544Z" fill="#FF4568" fill-opacity="1.000000" transform="matrix(1 0 0 1 563.445 784.831)"/><path d="M0 0L-95.2831 187.698" fill="none" stroke="#19191A" stroke-opacity="1.000000" stroke-width="2" stroke-linejoin="round" stroke-dasharray="0 0" transform="matrix(1 0 0 1 365.794 1011.57)"/><path d="M-61.7396 129.996L-67.0435 120.561L-66.5532 120.286L-67.0253 120.592Q-68.4127 118.449 -69.5143 116.962L-69.7212 116.682L-69.2321 115.719L-68.7186 116.014Q-68.4438 116.171 -67.81 116.539Q-65.4416 117.913 -64.5682 118.356L-56.8409 122.279L-61.224 130.913L-61.7396 129.996ZM-60.7589 129.445L-61.2493 129.72L-61.7508 129.466L-58.0986 122.271L-57.5971 122.526L-57.8517 123.027L-65.0775 119.359Q-65.9789 118.902 -68.3745 117.512Q-69.0061 117.146 -69.2786 116.989L-68.9986 116.501L-68.497 116.756L-68.5607 116.881L-69.0622 116.627L-68.6102 116.292Q-67.4876 117.808 -66.081 119.98L-66.0715 119.995L-60.7589 129.445ZM-54.0997 116.879L-55.9338 120.492L-71.1377 112.774L-70.8831 112.272L-70.3815 112.527L-72.0286 115.772L-72.5302 115.517L-72.0438 115.234L-61.8952 132.697L-62.3815 132.98L-62.1269 132.478L-60.1989 133.457L-60.4536 133.958L-60.9551 133.704L-55.5007 122.959L-48.5179 126.504L-48.7725 127.006L-49.2741 126.751L-47.8578 123.961L-47.3562 124.216L-47.6108 124.717L-54.5937 121.172L-52.7596 117.559L-52.258 117.814L-52.5126 118.316L-54.8559 117.126L-54.6013 116.625L-54.0997 116.879ZM-54.8483 115.868L-51.5018 117.567L-53.3359 121.18L-53.8375 120.925L-53.5828 120.424L-46.6 123.969L-48.5256 127.762L-55.5084 124.217L-55.2538 123.715L-54.7522 123.97L-60.2066 134.715L-62.7843 133.406L-73.1702 115.535L-71.1301 111.516L-55.9261 119.234L-56.1808 119.736L-56.6823 119.481L-55.1029 116.37L-54.8483 115.868ZM-54.6013 116.625L-52.258 117.814L-53.8375 120.925L-47.3562 124.216L-48.7725 127.006L-55.2538 123.715L-60.4536 133.958L-62.3815 132.98L-72.5302 115.517L-70.8831 112.272L-56.1808 119.736L-54.6013 116.625ZM-61.2493 129.72L-57.5971 122.526L-64.8229 118.858C-65.9749 118.273 -67.8078 117.185 -68.9986 116.501L-69.0622 116.627C-68.1967 117.796 -67.3709 119.023 -66.5532 120.286L-61.2493 129.72Z" fill="#19191A" fill-opacity="1.000000" transform="matrix(1 0 0 1 365.794 1011.57)"/><path d="M0 0L269.321 -51.3965" fill="none" stroke="#19191A" stroke-opacity="1.000000" stroke-width="2" stroke-linejoin="round" stroke-dasharray="0 0" transform="matrix(1 0 0 1 96.4736 1062.96)"/><path d="M160.217 -17.6841L163.636 -17.6841L163.636 -17.1216L163.074 -17.1431Q163.397 -25.5877 164.792 -30.3758Q166.474 -36.1476 170.935 -41.8745L171.379 -41.5288L170.817 -41.5288L170.817 -43.5064L171.379 -43.5064L171.379 -42.9439L154.856 -42.9439L154.856 -43.5064L155.418 -43.5064L155.418 -40.7027L154.856 -40.7027L154.856 -41.2652L168.729 -41.2652L168.092 -40.3753Q164.341 -35.1319 162.693 -29.8008Q161.104 -24.6569 160.779 -17.0974L160.217 -17.1216L160.217 -17.6841ZM160.217 -16.5591L159.63 -16.5591L159.655 -17.1458Q159.986 -24.8504 161.619 -30.1329Q163.32 -35.6383 167.177 -41.03L167.635 -40.7027L167.635 -40.1402L154.293 -40.1402L154.293 -44.0689L171.942 -44.0689L171.942 -41.3356L171.823 -41.1831Q167.494 -35.6261 165.872 -30.061Q164.516 -25.4061 164.198 -17.1001L164.177 -16.5591L160.217 -16.5591ZM160.217 -17.1216C160.648 -27.1323 162.485 -33.5044 167.635 -40.7027L154.856 -40.7027L154.856 -43.5064L171.379 -43.5064L171.379 -41.5288C165.183 -33.5747 164.031 -27.4575 163.636 -17.1216L160.217 -17.1216Z" fill="#19191A" fill-opacity="1.000000" transform="matrix(1 0 0 1 96.4736 1062.96)"/><path d="M0 0L313.692 11.0306" fill="none" stroke="#ED1252" stroke-opacity="1.000000" stroke-width="4" stroke-linejoin="round" stroke-dasharray="0 0" transform="matrix(1 0 0 1 365.794 1011.57)"/><path d="M163.933 19.442L178.408 19.442L178.408 20.0045L177.846 20.0045L177.846 17.2711L178.408 17.2711L178.408 17.8336L172.555 17.8336L172.555 -6.38025L173.117 -6.38025L173.117 -5.81775L170.595 -5.81775L170.595 -6.38025L170.874 -5.89223Q168.6 -4.58842 165.232 -3.95537L165.128 -4.50818L165.69 -4.50818L165.69 -2.42518L165.128 -2.42518L165.128 -2.98768L170.366 -2.98768L170.366 17.8336L163.933 17.8336L163.933 17.2711L164.495 17.2711L164.495 20.0045L163.933 20.0045L163.933 19.442ZM163.37 20.567L163.37 16.7086L169.804 16.7086L169.804 17.2711L169.241 17.2711L169.241 -2.42518L169.804 -2.42518L169.804 -1.86268L164.565 -1.86268L164.565 -4.9748L165.024 -5.061Q168.205 -5.65895 170.315 -6.86827L170.445 -6.94275L173.68 -6.94275L173.68 17.2711L173.117 17.2711L173.117 16.7086L178.971 16.7086L178.971 20.567L163.933 20.567L163.37 20.567ZM163.933 20.0045L163.933 17.2711L169.804 17.2711L169.804 -2.42518L165.128 -2.42518L165.128 -4.50818C167.466 -4.94764 169.153 -5.55408 170.595 -6.38025L173.117 -6.38025L173.117 17.2711L178.408 17.2711L178.408 20.0045L163.933 20.0045Z" fill="#FF4568" fill-opacity="1.000000" transform="matrix(1 0 0 1 365.794 1011.57)"/><path d="M0 0L-28.7549 210.377" fill="none" stroke="#ED1252" stroke-opacity="1.000000" stroke-width="4" stroke-linejoin="round" stroke-dasharray="0 0" transform="matrix(1 0 0 1 679.454 1020.96)"/><path d="M-1.63036 114.594Q-1.16697 111.204 -2.71063 108.768Q-4.30411 106.254 -7.45714 105.823Q-12.3675 105.151 -14.2511 110.122L-14.4097 110.541L-15.3795 110.408L-15.4652 110.027Q-16.4848 105.493 -20.6668 104.922Q-23.4857 104.537 -25.3641 106.269Q-27.2037 107.966 -27.6383 111.145Q-28.1437 114.843 -25.5909 118.491L-26.0518 118.814L-26.3542 118.339L-24.0511 116.871L-23.7487 117.346L-24.1967 117.686Q-26.4956 114.659 -26.1705 111.507L-26.1688 111.49L-26.1661 111.474Q-25.8007 109.232 -24.3384 108.06Q-22.8512 106.868 -20.7154 107.16Q-15.1684 107.918 -16.2348 115.72L-16.7921 115.644L-16.716 115.087L-14.2167 115.428L-14.2929 115.986L-14.8502 115.909Q-13.6624 107.219 -7.86277 108.011Q-5.39533 108.349 -4.12777 110.233Q-2.90599 112.05 -3.25726 114.62Q-3.78609 118.489 -7.3679 121.086L-7.69809 120.63L-7.29915 120.234L-5.38073 122.164L-5.77966 122.56L-6.10098 122.099Q-2.29399 119.449 -1.63036 114.594ZM-0.515717 114.746Q-1.2462 120.091 -5.45834 123.022L-5.84579 123.292L-8.56039 120.561L-8.02827 120.175Q-4.83563 117.86 -4.3719 114.468Q-4.07866 112.322 -5.06127 110.861Q-6.04736 109.395 -8.01512 109.126Q-12.7001 108.486 -13.7356 116.062L-13.8118 116.619L-17.4256 116.125L-17.3494 115.568Q-16.4353 108.88 -20.8678 108.274Q-24.4255 107.788 -25.0558 111.655L-25.6109 111.565L-25.0514 111.622Q-25.331 114.332 -23.3008 117.005L-22.9315 117.492L-26.2038 119.578L-26.5127 119.136Q-29.3179 115.127 -28.7529 110.993Q-28.2636 107.413 -26.1268 105.442Q-23.8586 103.35 -20.5145 103.807Q-15.5586 104.485 -14.3676 109.78L-14.9164 109.904L-14.8403 109.346L-14.7009 109.365L-14.7771 109.923L-15.3031 109.723Q-14.345 107.195 -12.3022 105.819Q-10.0882 104.328 -7.30479 104.708Q-3.63374 105.21 -1.76039 108.166Q0.00333786 110.949 -0.515717 114.746ZM-1.07304 114.67C-1.63364 118.772 -3.69155 121.107 -5.77966 122.56L-7.69809 120.63C-5.88631 119.317 -4.21926 117.504 -3.81458 114.544C-3.39085 111.444 -4.94336 108.978 -7.93894 108.569C-11.0826 108.139 -13.4693 109.96 -14.2929 115.986L-16.7921 115.644C-16.0554 110.254 -17.9789 108.101 -20.7916 107.717C-23.3256 107.371 -25.1711 108.866 -25.6109 111.565C-25.8293 113.681 -25.0117 115.683 -23.7487 117.346L-26.0518 118.814C-27.6028 116.597 -28.6098 114.1 -28.1956 111.069C-27.5957 106.68 -24.7966 103.79 -20.5906 104.365C-17.4209 104.798 -15.573 106.984 -14.9164 109.904L-14.7771 109.923C-13.6393 106.92 -10.9426 104.778 -7.38097 105.265C-2.70472 105.904 -0.438637 110.029 -1.07304 114.67Z" fill="#FF4568" fill-opacity="1.000000" transform="matrix(1 0 0 1 679.454 1020.96)"/><path d="M0 0L-379.434 -32.0904" fill="none" stroke="#ED1252" stroke-opacity="1.000000" stroke-width="4" stroke-linejoin="round" stroke-dasharray="0 0" transform="matrix(1 0 0 1 651.833 1231.36)"/><path d="M-205.963 -3.27057L-189.369 -3.27057L-189.369 -2.70807L-189.931 -2.70807L-189.931 -5.55572L-189.369 -5.55572L-189.369 -4.99322L-196.673 -4.99322Q-197.772 -4.99322 -200.274 -4.79357Q-200.733 -4.757 -200.954 -4.73999L-202.535 -4.61836L-201.384 -5.70916Q-191.223 -15.3362 -191.223 -21.7891Q-191.223 -25.1105 -193.13 -27.0703Q-195.046 -29.0401 -198.325 -29.0401Q-202.269 -29.0401 -205.69 -25.3279L-206.103 -25.709L-205.709 -26.1105L-203.802 -24.2384L-204.196 -23.837L-204.628 -24.1969Q-201.906 -27.4669 -198.721 -27.4669Q-196.093 -27.4669 -194.644 -25.7963Q-193.306 -24.2545 -193.306 -21.6837Q-193.306 -14.9609 -205.593 -4.22684L-205.963 -4.65045L-205.4 -4.65045L-205.4 -2.70807L-205.963 -2.70807L-205.963 -3.27057ZM-206.525 -2.14557L-206.525 -4.90595L-206.333 -5.07405Q-194.431 -15.4719 -194.431 -21.6837Q-194.431 -26.3419 -198.721 -26.3419Q-201.379 -26.3419 -203.764 -23.4771L-204.154 -23.0079L-206.886 -25.6894L-206.517 -26.0902Q-202.763 -30.1651 -198.325 -30.1651Q-194.57 -30.1651 -192.323 -27.8547Q-190.098 -25.5673 -190.098 -21.7891Q-190.098 -14.8524 -200.61 -4.89252L-200.997 -5.30084L-201.04 -5.86168Q-200.821 -5.87857 -200.364 -5.91501Q-197.816 -6.11822 -196.673 -6.11822L-188.806 -6.11822L-188.806 -2.14557L-205.963 -2.14557L-206.525 -2.14557ZM-205.963 -2.70807L-205.963 -4.65045C-197.683 -11.8838 -193.869 -17.1397 -193.869 -21.6837C-193.869 -24.7071 -195.451 -26.9044 -198.721 -26.9044C-200.883 -26.9044 -202.755 -25.5684 -204.196 -23.837L-206.103 -25.709C-203.941 -28.0557 -201.674 -29.6026 -198.325 -29.6026C-193.614 -29.6026 -190.661 -26.5001 -190.661 -21.7891C-190.661 -16.5333 -194.801 -11.1719 -200.997 -5.30084C-199.626 -5.40631 -198.009 -5.55572 -196.673 -5.55572L-189.369 -5.55572L-189.369 -2.70807L-205.963 -2.70807Z" fill="#FF4568" fill-opacity="1.000000" transform="matrix(1 0 0 1 651.833 1231.36)"/><path d="M0 0L174.038 136.302" fill="none" stroke="#19191A" stroke-opacity="1.000000" stroke-width="2" stroke-linejoin="round" stroke-dasharray="0 0" transform="matrix(1 0 0 1 96.4737 1062.96)"/><path d="M99.2729 80.3221Q93.9907 80.3221 93.9907 73.8885Q93.9907 71.0415 95.3968 69.2097Q96.8247 67.3494 99.018 67.3494Q104.758 67.3494 105.345 76.1891L105.358 76.3868L105.244 76.5491Q102.602 80.3221 99.2729 80.3221ZM99.2729 79.1971Q102.016 79.1971 104.323 75.9037L104.784 76.2264L104.222 76.2636Q103.706 68.4744 99.018 68.4744Q97.3794 68.4744 96.2892 69.8947Q95.1157 71.4235 95.1157 73.8885Q95.1157 79.1971 99.2729 79.1971ZM92.3761 89.5929Q94.7855 92.117 98.2973 92.117Q102.128 92.117 104.503 88.9536Q107.315 85.2079 107.315 77.8875Q107.315 71.9888 104.904 68.7946Q102.705 65.8817 99.018 65.8817Q96.1162 65.8817 94.1145 68.0687Q92.0219 70.355 92.0219 73.8885Q92.0219 81.6404 98.7368 81.6404Q101.933 81.6404 104.38 78.582L105.433 77.2647L105.381 78.9509Q105.022 90.5086 98.1919 90.5086Q95.2969 90.5086 93.3416 88.3069L93.7622 87.9334L94.1854 88.304L92.3924 90.3518L91.9692 89.9813L92.3761 89.5929ZM91.2072 89.9977L93.7592 87.0829L94.1827 87.5599Q95.8024 89.3836 98.1919 89.3836Q103.931 89.3836 104.257 78.9159L104.819 78.9334L105.258 79.2848Q102.474 82.7654 98.7368 82.7654Q95.1182 82.7654 93.0343 80.4779Q90.8969 78.1315 90.8969 73.8885Q90.8969 69.9178 93.2846 67.3091Q95.6208 64.7567 99.018 64.7567Q103.265 64.7567 105.802 68.1169Q108.44 71.6118 108.44 77.8875Q108.44 85.5832 105.403 89.629Q102.69 93.242 98.2973 93.242Q94.3041 93.242 91.5623 90.3697L91.2072 89.9977ZM91.9692 89.9813L93.7622 87.9334C94.8784 89.1903 96.5044 89.9461 98.1919 89.9461C101.611 89.9461 104.564 87.1336 104.819 78.9334C103.237 80.911 100.969 82.2029 98.7368 82.2029C94.3422 82.2029 91.4594 79.3641 91.4594 73.8885C91.4594 68.7821 94.9135 65.3192 99.018 65.3192C104.098 65.3192 107.877 69.494 107.877 77.8875C107.877 88.575 103.272 92.6795 98.2973 92.6795C95.4585 92.6795 93.4458 91.5281 91.9692 89.9813ZM99.2729 79.7596C101.04 79.7596 103.017 78.7488 104.784 76.2264C104.423 70.7947 102.402 67.9119 99.018 67.9119C96.5044 67.9119 94.5532 70.2938 94.5532 73.8885C94.5532 77.4569 96.144 79.7596 99.2729 79.7596Z" fill="#19191A" fill-opacity="1.000000" transform="matrix(1 0 0 1 96.4737 1062.96)"/><path d="M0 0L115.243 233.888" fill="none" stroke="#19191A" stroke-opacity="1.000000" stroke-width="2" stroke-linejoin="round" stroke-dasharray="0 0" transform="matrix(1 0 0 1 564.216 786.549)"/><path d="M53.3632 127.548L56.7822 127.548L56.7822 128.111L56.2201 128.089Q56.5432 119.645 57.9384 114.857Q59.6203 109.085 64.0816 103.358L64.5253 103.704L63.9628 103.704L63.9628 101.726L64.5253 101.726L64.5253 102.289L48.0019 102.289L48.0019 101.726L48.5644 101.726L48.5644 104.53L48.0019 104.53L48.0019 103.967L61.8753 103.967L61.2386 104.857Q57.487 110.1 55.8397 115.432Q54.2504 120.575 53.9252 128.135L53.3632 128.111L53.3632 127.548ZM53.3632 128.673L52.776 128.673L52.8012 128.087Q53.1327 120.382 54.7649 115.1Q56.4659 109.594 60.3237 104.202L60.7812 104.53L60.7812 105.092L47.4394 105.092L47.4394 101.164L65.0878 101.164L65.0878 103.897L64.9691 104.049Q60.6401 109.606 59.0185 115.171Q57.6621 119.826 57.3442 128.132L57.3235 128.673L53.3632 128.673ZM53.3632 128.111C53.7939 118.1 55.6308 111.728 60.7812 104.53L48.0019 104.53L48.0019 101.726L64.5253 101.726L64.5253 103.704C58.329 111.658 57.1777 117.775 56.7822 128.111L53.3632 128.111Z" fill="#19191A" fill-opacity="1.000000" transform="matrix(1 0 0 1 564.216 786.549)"/><path d="M0 0L284.906 217.434" fill="none" stroke="#19191A" stroke-opacity="1.000000" stroke-width="2" stroke-linejoin="round" stroke-dasharray="0 0" transform="matrix(1 0 0 1 365.794 1011.57)"/><path d="M114.322 99.0725Q108.724 99.0725 108.075 90.0956L108.06 89.8956L108.175 89.7316Q110.72 86.1087 114.032 86.1087Q119.349 86.1087 119.349 92.4983Q119.349 95.3546 117.948 97.1961Q116.52 99.0725 114.322 99.0725ZM114.322 97.9475Q115.963 97.9475 117.053 96.5149Q118.224 94.9752 118.224 92.4983Q118.224 87.2337 114.032 87.2337Q111.305 87.2337 109.096 90.3783L108.636 90.055L109.197 90.0144Q109.771 97.9475 114.322 97.9475ZM121.003 76.789Q118.656 74.2698 115.254 74.2698Q111.316 74.2698 108.902 77.3286Q106.06 80.9302 106.06 87.9983Q106.06 94.1459 108.461 97.4734Q110.648 100.505 114.322 100.505Q117.225 100.505 119.226 98.3213Q121.318 96.0368 121.318 92.4983Q121.318 84.7815 114.577 84.7815Q111.455 84.7815 109.001 87.7831L107.975 89.0373L108.003 87.4174Q108.2 75.887 115.368 75.887Q118.202 75.887 120.045 78.1024L119.613 78.4622L119.19 78.0915L120.992 76.0349L121.415 76.4055L121.003 76.789ZM122.173 76.3939L119.602 79.3284L119.181 78.822Q117.674 77.012 115.368 77.012Q109.306 77.012 109.128 87.4367L108.565 87.427L108.13 87.0709Q110.922 83.6565 114.577 83.6565Q118.241 83.6565 120.314 85.915Q122.443 88.2339 122.443 92.4983Q122.443 96.4742 120.055 99.0811Q117.721 101.63 114.322 101.63Q110.073 101.63 107.549 98.1316Q104.935 94.5094 104.935 87.9983Q104.935 80.5398 108.019 76.6317Q110.771 73.1448 115.254 73.1448Q119.145 73.1448 121.826 76.0221L122.173 76.3939ZM121.415 76.4055L119.613 78.4622C118.567 77.2054 116.985 76.4495 115.368 76.4495C111.764 76.4495 108.706 79.218 108.565 87.427C110.182 85.4495 112.485 84.219 114.577 84.219C119.033 84.219 121.881 86.9964 121.881 92.4983C121.881 97.6136 118.427 101.068 114.322 101.068C109.242 101.068 105.498 96.7171 105.498 87.9983C105.498 77.6712 110.147 73.7073 115.254 73.7073C117.996 73.7073 119.973 74.8587 121.415 76.4055ZM114.322 98.51C116.845 98.51 118.787 96.1018 118.787 92.4983C118.787 88.9388 117.24 86.6712 114.032 86.6712C112.38 86.6712 110.358 87.6028 108.636 90.055C109.031 95.5218 111.009 98.51 114.322 98.51Z" fill="#19191A" fill-opacity="1.000000" transform="matrix(1 0 0 1 365.794 1011.57)"/><path d="M0 0L-243.297 -133.473" fill="none" stroke="#19191A" stroke-opacity="1.000000" stroke-width="2" stroke-linejoin="round" stroke-dasharray="0 0" transform="matrix(1 0 0 1 323.794 969.568)"/><path d="M-88.2726 -34.1972Q-84.9559 -34.1972 -82.6686 -36.3997Q-80.1954 -38.7813 -80.1954 -42.705Q-80.1954 -46.6078 -82.3502 -48.6623Q-84.3063 -50.5273 -87.587 -50.5273Q-89.5085 -50.5273 -91.2419 -49.5613L-92.1661 -49.0463L-91.3819 -58.2441L-80.8898 -58.2441L-80.8898 -57.6816L-81.4523 -57.6816L-81.4523 -60.4853L-80.8898 -60.4853L-80.8898 -59.9228L-93.7482 -59.9228L-93.7482 -60.4853L-93.1869 -60.4477L-94.0131 -48.0991L-94.5743 -48.1366L-94.2825 -48.6175L-92.5159 -47.5452L-92.8077 -47.0644L-93.1185 -47.5332Q-90.6433 -49.1738 -88.4132 -49.1738Q-85.6596 -49.1738 -84.0242 -47.4044Q-82.3839 -45.6298 -82.3839 -42.5995Q-82.3839 -39.5539 -84.1822 -37.6506Q-85.9254 -35.8056 -88.5626 -35.8056Q-92.3552 -35.8056 -95.4379 -38.8883L-95.0402 -39.2861L-94.5897 -38.9491L-96.2069 -36.787L-96.6573 -37.1239L-96.2586 -37.5207Q-92.9516 -34.1972 -88.2726 -34.1972ZM-88.2726 -33.0722Q-93.4193 -33.0722 -97.0561 -36.7272L-97.3989 -37.0717L-95.1016 -40.143L-94.6424 -39.6838Q-91.8892 -36.9306 -88.5626 -36.9306Q-86.4102 -36.9306 -84.9999 -38.4232Q-83.5089 -40.0013 -83.5089 -42.5995Q-83.5089 -48.0488 -88.4132 -48.0488Q-90.3044 -48.0488 -92.497 -46.5955L-92.7945 -46.3983L-95.1584 -47.8331L-94.2743 -61.0478L-80.3273 -61.0478L-80.3273 -57.1191L-90.8653 -57.1191L-90.8653 -57.6816L-90.3049 -57.6338L-90.9553 -50.0049L-91.5157 -50.0527L-91.7896 -50.544Q-89.8008 -51.6523 -87.587 -51.6523Q-83.8559 -51.6523 -81.5739 -49.4765Q-79.0704 -47.0896 -79.0704 -42.705Q-79.0704 -38.3028 -81.8883 -35.5894Q-84.5023 -33.0722 -88.2726 -33.0722ZM-88.2726 -33.6347C-92.3771 -33.6347 -94.8995 -35.3573 -96.6573 -37.1239L-95.0402 -39.2861C-93.5284 -37.7743 -91.6212 -36.3681 -88.5626 -36.3681C-85.4601 -36.3681 -82.9464 -38.7411 -82.9464 -42.5995C-82.9464 -46.3788 -85.0997 -48.6113 -88.4132 -48.6113C-90.1798 -48.6113 -91.296 -48.0663 -92.8077 -47.0644L-94.5743 -48.1366L-93.7482 -60.4853L-80.8898 -60.4853L-80.8898 -57.6816L-90.8653 -57.6816L-91.5157 -50.0527C-90.3644 -50.6943 -89.1691 -51.0898 -87.587 -51.0898C-83.1925 -51.0898 -79.6329 -48.497 -79.6329 -42.705C-79.6329 -36.9042 -83.8077 -33.6347 -88.2726 -33.6347Z" fill="#19191A" fill-opacity="1.000000" transform="matrix(1 0 0 1 323.794 969.568)"/></svg>