<svg xmlns="http://www.w3.org/2000/svg" xmlns:xlink="http://www.w3.org/1999/xlink" width="505.765686" height="492.765564" viewBox="0 0 505.766 492.766"><path d="M84 42C84 65.196 65.196 84 42 84C18.804 84 0 65.196 0 42C0 18.804 18.804 0 42 0C65.196 0 84 18.804 84 42" fill="#A3D16E" fill-opacity="1.000000" transform="matrix(1 0 0 1 106.383 12.3828)"/><path d="M84 42C84 65.196 65.196 84 42 84C18.804 84 0 65.196 0 42C0 18.804 18.804 0 42 0C65.196 0 84 18.804 84 42" fill="none" stroke="#000000" stroke-opacity="1.000000" stroke-width="2" stroke-dasharray="0 0" transform="matrix(1 0 0 1 106.383 12.3828)"/><clipPath id="clip_1_2_0"><path d="M118.383 26.3828L178.383 26.3828L178.383 86.3828L118.383 86.3828L118.383 26.3828Z"/></clipPath><g clip-path="url(#clip_1_2_0)"><path d="M32.3012 55L35.7905 55L39.6049 47.8721C40.2905 46.5801 40.976 45.209 41.7319 43.627L41.8725 43.627C42.7338 45.209 43.4546 46.5801 44.1401 47.8721L48.0337 55L51.6987 55L43.9995 41.5352L51.1977 28.6152L47.7085 28.6152L44.1753 35.3477C43.5337 36.5693 43.0239 37.6855 42.3032 39.1973L42.1626 39.1973C41.3012 37.6855 40.7563 36.5693 40.0708 35.3477L36.476 28.6152L32.8022 28.6152L40.0005 41.3594L32.3012 55Z" fill="#19191A" fill-opacity="1.000000" transform="matrix(1 0 0 1 106.383 12.3828)"/></g><path d="M84 42C84 65.196 65.196 84 42 84C18.804 84 0 65.196 0 42C0 18.804 18.804 0 42 0C65.196 0 84 18.804 84 42" fill="#A3D16E" fill-opacity="1.000000" transform="matrix(1 0 0 1 13.3828 218.383)"/><path d="M84 42C84 65.196 65.196 84 42 84C18.804 84 0 65.196 0 42C0 18.804 18.804 0 42 0C65.196 0 84 18.804 84 42" fill="none" stroke="#000000" stroke-opacity="1.000000" stroke-width="2" stroke-dasharray="0 0" transform="matrix(1 0 0 1 13.3828 218.383)"/><clipPath id="clip_1_3_0"><path d="M25.3828 232.383L85.3828 232.383L85.3828 292.383L25.3828 292.383L25.3828 232.383Z"/></clipPath><g clip-path="url(#clip_1_3_0)"><path d="M44.0863 55.4658C47.5053 55.4658 50.098 54.1035 52.1898 51.6865L50.3529 49.6035C48.6566 51.4316 46.7494 52.5479 44.2357 52.5479C39.1908 52.5479 36.0267 48.373 36.0267 41.7197C36.0267 35.1279 39.3402 31.0234 44.3412 31.0234C46.6088 31.0234 48.3754 32.0693 49.7377 33.5459L51.5394 31.3838C50.0277 29.6963 47.5053 28.1055 44.306 28.1055C37.6088 28.1055 32.6078 33.291 32.6078 41.8252C32.6078 50.3945 37.5385 55.4658 44.0863 55.4658Z" fill="#19191A" fill-opacity="1.000000" transform="matrix(1 0 0 1 13.3828 218.383)"/></g><path d="M84 42C84 65.196 65.196 84 42 84C18.804 84 0 65.196 0 42C0 18.804 18.804 0 42 0C65.196 0 84 18.804 84 42" fill="#A3D16E" fill-opacity="1.000000" transform="matrix(1 0 0 1 196.383 218.383)"/><path d="M84 42C84 65.196 65.196 84 42 84C18.804 84 0 65.196 0 42C0 18.804 18.804 0 42 0C65.196 0 84 18.804 84 42" fill="none" stroke="#000000" stroke-opacity="1.000000" stroke-width="2" stroke-dasharray="0 0" transform="matrix(1 0 0 1 196.383 218.383)"/><clipPath id="clip_1_6_0"><path d="M208.383 232.383L268.383 232.383L268.383 292.383L208.383 292.383L208.383 232.383Z"/></clipPath><g clip-path="url(#clip_1_6_0)"><path d="M33.7775 55L42.1974 55C48.1037 55 52.2082 52.4424 52.2082 47.2568C52.2082 43.6621 49.9758 41.5703 46.8029 40.9639L46.8029 40.7793C49.2902 39.9883 50.6965 37.6855 50.6965 35.0576C50.6965 30.4082 46.9875 28.6152 41.6261 28.6152L33.7775 28.6152L33.7775 55ZM37.1261 39.8477L37.1261 31.2432L41.1867 31.2432C45.2912 31.2432 47.4181 32.3945 47.4181 35.4883C47.4181 38.1514 45.5812 39.8477 41.0461 39.8477L37.1261 39.8477ZM37.1261 52.3369L37.1261 42.3965L41.7316 42.3965C46.3371 42.3965 48.9299 43.873 48.9299 47.1514C48.9299 50.7197 46.2668 52.3369 41.7316 52.3369L37.1261 52.3369Z" fill="#19191A" fill-opacity="1.000000" transform="matrix(1 0 0 1 196.383 218.383)"/></g><path d="M93 -122L87 -111.608L99 -111.608L93 -122Z" transform="matrix(1 0 0 1 55.3828 218.383)" fill="#19191A" fill-opacity="1.000000" stroke="none"/><path d="M0 0C0 -49.0931 85.7216 -69.2394 92.5671 -116.021" fill="none" stroke="#19191A" stroke-opacity="1.000000" stroke-width="2" stroke-linejoin="round" stroke-dasharray="0 0" transform="matrix(1 0 0 1 55.3828 218.383)"/><path d="M-90.0001 -122L-96.0001 -111.608L-84.0001 -111.608L-90.0001 -122Z" transform="matrix(1 0 0 1 238.383 218.383)" fill="#19191A" fill-opacity="1.000000" stroke="none"/><path d="M0 0C0 -48.4948 -82.8801 -69.7269 -89.5719 -116.021" fill="none" stroke="#19191A" stroke-opacity="1.000000" stroke-width="2" stroke-linejoin="round" stroke-dasharray="0 0" transform="matrix(1 0 0 1 238.383 218.383)"/><path d="M84 42C84 65.196 65.196 84 42 84C18.804 84 0 65.196 0 42C0 18.804 18.804 0 42 0C65.196 0 84 18.804 84 42" fill="#A3D16E" fill-opacity="1.000000" transform="matrix(1 0 0 1 12.3828 396.383)"/><path d="M84 42C84 65.196 65.196 84 42 84C18.804 84 0 65.196 0 42C0 18.804 18.804 0 42 0C65.196 0 84 18.804 84 42" fill="none" stroke="#000000" stroke-opacity="1.000000" stroke-width="2" stroke-dasharray="0 0" transform="matrix(1 0 0 1 12.3828 396.383)"/><clipPath id="clip_1_9_0"><path d="M24.3828 410.383L84.3828 410.383L84.3828 470.383L24.3828 470.383L24.3828 410.383Z"/></clipPath><g clip-path="url(#clip_1_9_0)"><path d="M37.947 44.2686L39.2478 40.2432C40.1795 37.2549 41.0496 34.4072 41.8758 31.3135L42.0164 31.3135C42.8777 34.3721 43.7127 37.2549 44.6795 40.2432L45.9451 44.2686L37.947 44.2686ZM49.2937 55L52.8181 55L43.8533 28.6152L40.1443 28.6152L31.1795 55L34.5633 55L37.1209 46.9316L46.7713 46.9316L49.2937 55Z" fill="#19191A" fill-opacity="1.000000" transform="matrix(1 0 0 1 12.3828 396.383)"/></g><path d="M1 -93.9999L-5 -83.6079L7 -83.6079L1 -93.9999Z" transform="matrix(1 0 0 1 54.3828 396.383)" fill="#19191A" fill-opacity="1.000000" stroke="none"/><path d="M0 0C0 -29.335 0.876421 -58.6655 0.988298 -88" fill="none" stroke="#19191A" stroke-opacity="1.000000" stroke-width="2" stroke-linejoin="round" stroke-dasharray="0 0" transform="matrix(1 0 0 1 54.3828 396.383)"/><path d="M84 42C84 65.196 65.196 84 42 84C18.804 84 0 65.196 0 42C0 18.804 18.804 0 42 0C65.196 0 84 18.804 84 42" fill="#A3D16E" fill-opacity="1.000000" transform="matrix(1 0 0 1 409.383 12.3828)"/><path d="M84 42C84 65.196 65.196 84 42 84C18.804 84 0 65.196 0 42C0 18.804 18.804 0 42 0C65.196 0 84 18.804 84 42" fill="none" stroke="#000000" stroke-opacity="1.000000" stroke-width="2" stroke-dasharray="0 0" transform="matrix(1 0 0 1 409.383 12.3828)"/><clipPath id="clip_1_11_0"><path d="M421.383 26.3828L481.383 26.3828L481.383 86.3828L421.383 86.3828L421.383 26.3828Z"/></clipPath><g clip-path="url(#clip_1_11_0)"><path d="M40.3258 55L43.6744 55L43.6744 44.7432L51.5934 28.6152L48.1393 28.6152L44.7203 36.0684C43.9293 38.0107 43.024 39.8477 42.0924 41.8252L41.943 41.8252C41.0113 39.8477 40.2203 38.0107 39.3502 36.0684L35.9664 28.6152L32.4068 28.6152L40.3258 44.7432L40.3258 55Z" fill="#19191A" fill-opacity="1.000000" transform="matrix(1 0 0 1 409.383 12.3828)"/></g><path d="M84 42C84 65.196 65.196 84 42 84C18.804 84 0 65.196 0 42C0 18.804 18.804 0 42 0C65.196 0 84 18.804 84 42" fill="#A3D16E" fill-opacity="1.000000" transform="matrix(1 0 0 1 409.383 218.383)"/><path d="M84 42C84 65.196 65.196 84 42 84C18.804 84 0 65.196 0 42C0 18.804 18.804 0 42 0C65.196 0 84 18.804 84 42" fill="none" stroke="#000000" stroke-opacity="1.000000" stroke-width="2" stroke-dasharray="0 0" transform="matrix(1 0 0 1 409.383 218.383)"/><clipPath id="clip_1_12_0"><path d="M421.383 232.383L481.383 232.383L481.383 292.383L421.383 292.383L421.383 232.383Z"/></clipPath><g clip-path="url(#clip_1_12_0)"><path d="M33.2375 55L40.0051 55C47.9592 55 52.3098 50.0693 52.3098 41.7197C52.3098 33.3262 47.9592 28.6152 39.8557 28.6152L33.2375 28.6152L33.2375 55ZM36.5861 52.2666L36.5861 31.3135L39.5656 31.3135C45.7971 31.3135 48.8557 35.0225 48.8557 41.7197C48.8557 48.373 45.7971 52.2666 39.5656 52.2666L36.5861 52.2666Z" fill="#19191A" fill-opacity="1.000000" transform="matrix(1 0 0 1 409.383 218.383)"/></g><path d="M0 -122L-6 -111.608L6 -111.608L0 -122Z" transform="matrix(1 0 0 1 451.383 218.383)" fill="#19191A" fill-opacity="1.000000" stroke="none"/><path d="M0 0C0 -38.6667 0 -77.3333 0 -116" fill="none" stroke="#19191A" stroke-opacity="1.000000" stroke-width="2" stroke-linejoin="round" stroke-dasharray="0 0" transform="matrix(1 0 0 1 451.383 218.383)"/></svg>