<svg xmlns="http://www.w3.org/2000/svg" xmlns:xlink="http://www.w3.org/1999/xlink" width="1064.836914" height="489.883911" viewBox="0 0 1064.84 489.884"><path d="M84 42C84 65.196 65.196 84 42 84C18.804 84 0 65.196 0 42C0 18.804 18.804 0 42 0C65.196 0 84 18.804 84 42" fill="#A3D16E" fill-opacity="1.000000" transform="matrix(1 0 0 1 189.331 12.3828)"/><path d="M84 42C84 65.196 65.196 84 42 84C18.804 84 0 65.196 0 42C0 18.804 18.804 0 42 0C65.196 0 84 18.804 84 42" fill="none" stroke="#000000" stroke-opacity="1.000000" stroke-width="2" stroke-dasharray="0 0" transform="matrix(1 0 0 1 189.331 12.3828)"/><clipPath id="clip_1_2_0"><path d="M201.331 26.3828L261.331 26.3828L261.331 86.3828L201.331 86.3828L201.331 26.3828Z"/></clipPath><g clip-path="url(#clip_1_2_0)"><path d="M32.3012 55L35.7905 55L39.6049 47.8721C40.2905 46.5801 40.976 45.209 41.7319 43.627L41.8725 43.627C42.7338 45.209 43.4546 46.5801 44.1401 47.8721L48.0337 55L51.6987 55L43.9995 41.5352L51.1977 28.6152L47.7085 28.6152L44.1753 35.3477C43.5337 36.5693 43.0239 37.6855 42.3032 39.1973L42.1626 39.1973C41.3012 37.6855 40.7563 36.5693 40.0708 35.3477L36.476 28.6152L32.8022 28.6152L40.0005 41.3594L32.3012 55Z" fill="#19191A" fill-opacity="1.000000" transform="matrix(1 0 0 1 189.331 12.3828)"/></g><path d="M84 42C84 65.196 65.196 84 42 84C18.804 84 0 65.196 0 42C0 18.804 18.804 0 42 0C65.196 0 84 18.804 84 42" fill="#A3D16E" fill-opacity="1.000000" transform="matrix(1 0 0 1 96.3314 203.288)"/><path d="M84 42C84 65.196 65.196 84 42 84C18.804 84 0 65.196 0 42C0 18.804 18.804 0 42 0C65.196 0 84 18.804 84 42" fill="none" stroke="#000000" stroke-opacity="1.000000" stroke-width="2" stroke-dasharray="0 0" transform="matrix(1 0 0 1 96.3314 203.288)"/><clipPath id="clip_1_3_0"><path d="M108.331 217.288L168.331 217.288L168.331 277.288L108.331 277.288L108.331 217.288Z"/></clipPath><g clip-path="url(#clip_1_3_0)"><path d="M44.0863 55.4658C47.5053 55.4658 50.098 54.1035 52.1898 51.6865L50.3529 49.6035C48.6566 51.4316 46.7494 52.5479 44.2357 52.5479C39.1908 52.5479 36.0267 48.373 36.0267 41.7197C36.0267 35.1279 39.3402 31.0234 44.3412 31.0234C46.6088 31.0234 48.3754 32.0693 49.7377 33.5459L51.5394 31.3838C50.0277 29.6963 47.5053 28.1055 44.306 28.1055C37.6088 28.1055 32.6078 33.291 32.6078 41.8252C32.6078 50.3945 37.5385 55.4658 44.0863 55.4658Z" fill="#19191A" fill-opacity="1.000000" transform="matrix(1 0 0 1 96.3314 203.288)"/></g><path d="M84 42C84 65.196 65.196 84 42 84C18.804 84 0 65.196 0 42C0 18.804 18.804 0 42 0C65.196 0 84 18.804 84 42" fill="#A3D16E" fill-opacity="1.000000" transform="matrix(1 0 0 1 268.954 203.288)"/><path d="M84 42C84 65.196 65.196 84 42 84C18.804 84 0 65.196 0 42C0 18.804 18.804 0 42 0C65.196 0 84 18.804 84 42" fill="none" stroke="#000000" stroke-opacity="1.000000" stroke-width="2" stroke-dasharray="0 0" transform="matrix(1 0 0 1 268.954 203.288)"/><clipPath id="clip_1_6_0"><path d="M280.954 217.288L340.954 217.288L340.954 277.288L280.954 277.288L280.954 217.288Z"/></clipPath><g clip-path="url(#clip_1_6_0)"><path d="M33.2375 55L40.0051 55C47.9592 55 52.3098 50.0693 52.3098 41.7197C52.3098 33.3262 47.9592 28.6152 39.8557 28.6152L33.2375 28.6152L33.2375 55ZM36.5861 52.2666L36.5861 31.3135L39.5656 31.3135C45.7971 31.3135 48.8557 35.0225 48.8557 41.7197C48.8557 48.373 45.7971 52.2666 39.5656 52.2666L36.5861 52.2666Z" fill="#19191A" fill-opacity="1.000000" transform="matrix(1 0 0 1 268.954 203.288)"/></g><path d="M93 -106.906L87 -96.5136L99 -96.5136L93 -106.906Z" transform="matrix(1 0 0 1 138.331 203.288)" fill="#19191A" fill-opacity="1.000000" stroke="none"/><path d="M0 0C0 -45.178 85.0869 -58.5256 92.4876 -100.935" fill="none" stroke="#19191A" stroke-opacity="1.000000" stroke-width="2" stroke-linejoin="round" stroke-dasharray="0 0" transform="matrix(1 0 0 1 138.331 203.288)"/><path d="M-79.6228 -106.906L-85.6228 -96.5136L-73.6228 -96.5136L-79.6228 -106.906Z" transform="matrix(1 0 0 1 310.954 203.288)" fill="#19191A" fill-opacity="1.000000" stroke="none"/><path d="M0 0C0 -42.3877 -72.4614 -60.756 -79.1322 -100.933" fill="none" stroke="#19191A" stroke-opacity="1.000000" stroke-width="2" stroke-linejoin="round" stroke-dasharray="0 0" transform="matrix(1 0 0 1 310.954 203.288)"/><path d="M84 42C84 65.196 65.196 84 42 84C18.804 84 0 65.196 0 42C0 18.804 18.804 0 42 0C65.196 0 84 18.804 84 42" fill="#A3D16E" fill-opacity="1.000000" transform="matrix(1 0 0 1 12.3314 393.553)"/><path d="M84 42C84 65.196 65.196 84 42 84C18.804 84 0 65.196 0 42C0 18.804 18.804 0 42 0C65.196 0 84 18.804 84 42" fill="none" stroke="#000000" stroke-opacity="1.000000" stroke-width="2" stroke-dasharray="0 0" transform="matrix(1 0 0 1 12.3314 393.553)"/><clipPath id="clip_1_9_0"><path d="M24.3314 407.553L84.3314 407.553L84.3314 467.553L24.3314 467.553L24.3314 407.553Z"/></clipPath><g clip-path="url(#clip_1_9_0)"><path d="M37.947 44.2686L39.2478 40.2432C40.1795 37.2549 41.0496 34.4072 41.8758 31.3135L42.0164 31.3135C42.8777 34.3721 43.7127 37.2549 44.6795 40.2432L45.9451 44.2686L37.947 44.2686ZM49.2937 55L52.8181 55L43.8533 28.6152L40.1443 28.6152L31.1795 55L34.5633 55L37.1209 46.9316L46.7713 46.9316L49.2937 55Z" fill="#19191A" fill-opacity="1.000000" transform="matrix(1 0 0 1 12.3314 393.553)"/></g><path d="M84 -106.264L78 -95.8721L90 -95.8721L84 -106.264Z" transform="matrix(1 0 0 1 54.3314 393.552)" fill="#19191A" fill-opacity="1.000000" stroke="none"/><path d="M0 0C0 -43.1028 76.5496 -59.6038 83.4968 -100.292" fill="none" stroke="#19191A" stroke-opacity="1.000000" stroke-width="2" stroke-linejoin="round" stroke-dasharray="0 0" transform="matrix(1 0 0 1 54.3314 393.552)"/><path d="M84 42C84 65.196 65.196 84 42 84C18.804 84 0 65.196 0 42C0 18.804 18.804 0 42 0C65.196 0 84 18.804 84 42" fill="#A3D16E" fill-opacity="1.000000" transform="matrix(1 0 0 1 175.572 393.552)"/><path d="M84 42C84 65.196 65.196 84 42 84C18.804 84 0 65.196 0 42C0 18.804 18.804 0 42 0C65.196 0 84 18.804 84 42" fill="none" stroke="#000000" stroke-opacity="1.000000" stroke-width="2" stroke-dasharray="0 0" transform="matrix(1 0 0 1 175.572 393.552)"/><clipPath id="clip_1_14_0"><path d="M187.572 407.552L247.572 407.552L247.572 467.552L187.572 467.552L187.572 407.552Z"/></clipPath><g clip-path="url(#clip_1_14_0)"><path d="M33.7775 55L42.1974 55C48.1037 55 52.2082 52.4424 52.2082 47.2568C52.2082 43.6621 49.9758 41.5703 46.8029 40.9639L46.8029 40.7793C49.2902 39.9883 50.6965 37.6855 50.6965 35.0576C50.6965 30.4082 46.9875 28.6152 41.6261 28.6152L33.7775 28.6152L33.7775 55ZM37.1261 39.8477L37.1261 31.2432L41.1867 31.2432C45.2912 31.2432 47.4181 32.3945 47.4181 35.4883C47.4181 38.1514 45.5812 39.8477 41.0461 39.8477L37.1261 39.8477ZM37.1261 52.3369L37.1261 42.3965L41.7316 42.3965C46.3371 42.3965 48.9299 43.873 48.9299 47.1514C48.9299 50.7197 46.2668 52.3369 41.7316 52.3369L37.1261 52.3369Z" fill="#19191A" fill-opacity="1.000000" transform="matrix(1 0 0 1 175.572 393.552)"/></g><path d="M-79.2401 -106.264L-85.2401 -95.872L-73.2401 -95.872L-79.2401 -106.264Z" transform="matrix(1 0 0 1 217.572 393.552)" fill="#19191A" fill-opacity="1.000000" stroke="none"/><path d="M0 0C0 -42.1397 -72.0732 -60.3657 -78.7464 -100.291" fill="none" stroke="#19191A" stroke-opacity="1.000000" stroke-width="2" stroke-linejoin="round" stroke-dasharray="0 0" transform="matrix(1 0 0 1 217.572 393.552)"/><path d="M84 42C84 65.196 65.196 84 42 84C18.804 84 0 65.196 0 42C0 18.804 18.804 0 42 0C65.196 0 84 18.804 84 42" fill="#A3D16E" fill-opacity="1.000000" transform="matrix(1 0 0 1 790.298 12.3828)"/><path d="M84 42C84 65.196 65.196 84 42 84C18.804 84 0 65.196 0 42C0 18.804 18.804 0 42 0C65.196 0 84 18.804 84 42" fill="none" stroke="#000000" stroke-opacity="1.000000" stroke-width="2" stroke-dasharray="0 0" transform="matrix(1 0 0 1 790.298 12.3828)"/><clipPath id="clip_1_16_0"><path d="M802.298 26.3828L862.298 26.3828L862.298 86.3827L802.298 86.3827L802.298 26.3828Z"/></clipPath><g clip-path="url(#clip_1_16_0)"><path d="M32.3012 55L35.7905 55L39.6049 47.8721C40.2905 46.5801 40.976 45.209 41.7319 43.627L41.8725 43.627C42.7338 45.209 43.4546 46.5801 44.1401 47.8721L48.0337 55L51.6987 55L43.9995 41.5352L51.1977 28.6152L47.7085 28.6152L44.1753 35.3477C43.5337 36.5693 43.0239 37.6855 42.3032 39.1973L42.1626 39.1973C41.3012 37.6855 40.7563 36.5693 40.0708 35.3477L36.476 28.6152L32.8022 28.6152L40.0005 41.3594L32.3012 55Z" fill="#19191A" fill-opacity="1.000000" transform="matrix(1 0 0 1 790.298 12.3828)"/></g><path d="M84 42C84 65.196 65.196 84 42 84C18.804 84 0 65.196 0 42C0 18.804 18.804 0 42 0C65.196 0 84 18.804 84 42" fill="#A3D16E" fill-opacity="1.000000" transform="matrix(1 0 0 1 847.883 198.571)"/><path d="M84 42C84 65.196 65.196 84 42 84C18.804 84 0 65.196 0 42C0 18.804 18.804 0 42 0C65.196 0 84 18.804 84 42" fill="none" stroke="#000000" stroke-opacity="1.000000" stroke-width="2" stroke-dasharray="0 0" transform="matrix(1 0 0 1 847.883 198.571)"/><clipPath id="clip_1_17_0"><path d="M859.883 212.571L919.883 212.571L919.883 272.571L859.883 272.571L859.883 212.571Z"/></clipPath><g clip-path="url(#clip_1_17_0)"><path d="M44.0863 55.4658C47.5053 55.4658 50.098 54.1035 52.1898 51.6865L50.3529 49.6035C48.6566 51.4316 46.7494 52.5479 44.2357 52.5479C39.1908 52.5479 36.0267 48.373 36.0267 41.7197C36.0267 35.1279 39.3402 31.0234 44.3412 31.0234C46.6088 31.0234 48.3754 32.0693 49.7377 33.5459L51.5394 31.3838C50.0277 29.6963 47.5053 28.1055 44.306 28.1055C37.6088 28.1055 32.6078 33.291 32.6078 41.8252C32.6078 50.3945 37.5385 55.4658 44.0863 55.4658Z" fill="#19191A" fill-opacity="1.000000" transform="matrix(1 0 0 1 847.883 198.571)"/></g><path d="M84 42C84 65.196 65.196 84 42 84C18.804 84 0 65.196 0 42C0 18.804 18.804 0 42 0C65.196 0 84 18.804 84 42" fill="#A3D16E" fill-opacity="1.000000" transform="matrix(1 0 0 1 968.506 198.571)"/><path d="M84 42C84 65.196 65.196 84 42 84C18.804 84 0 65.196 0 42C0 18.804 18.804 0 42 0C65.196 0 84 18.804 84 42" fill="none" stroke="#000000" stroke-opacity="1.000000" stroke-width="2" stroke-dasharray="0 0" transform="matrix(1 0 0 1 968.506 198.571)"/><clipPath id="clip_1_18_0"><path d="M980.506 212.571L1040.51 212.571L1040.51 272.571L980.506 272.571L980.506 212.571Z"/></clipPath><g clip-path="url(#clip_1_18_0)"><path d="M33.2375 55L40.0051 55C47.9592 55 52.3098 50.0693 52.3098 41.7197C52.3098 33.3262 47.9592 28.6152 39.8557 28.6152L33.2375 28.6152L33.2375 55ZM36.5861 52.2666L36.5861 31.3135L39.5656 31.3135C45.7971 31.3135 48.8557 35.0225 48.8557 41.7197C48.8557 48.373 45.7971 52.2666 39.5656 52.2666L36.5861 52.2666Z" fill="#19191A" fill-opacity="1.000000" transform="matrix(1 0 0 1 968.506 198.571)"/></g><path d="M-57.585 -102.189L-63.585 -91.7966L-51.585 -91.7966L-57.585 -102.189Z" transform="matrix(1 0 0 1 889.883 198.571)" fill="#19191A" fill-opacity="1.000000" stroke="none"/><path d="M0 0C0 -37.0671 -51.7554 -60.5554 -57.1346 -96.2112" fill="none" stroke="#19191A" stroke-opacity="1.000000" stroke-width="2" stroke-linejoin="round" stroke-dasharray="0 0" transform="matrix(1 0 0 1 889.883 198.571)"/><path d="M-178.208 -102.189L-184.208 -91.7966L-172.208 -91.7966L-178.208 -102.189Z" transform="matrix(1 0 0 1 1010.51 198.571)" fill="#19191A" fill-opacity="1.000000" stroke="none"/><path d="M0 0C0 -66.391 -167.521 -35.7339 -177.722 -96.2153" fill="none" stroke="#19191A" stroke-opacity="1.000000" stroke-width="2" stroke-linejoin="round" stroke-dasharray="0 0" transform="matrix(1 0 0 1 1010.51 198.571)"/><path d="M84 42C84 65.196 65.196 84 42 84C18.804 84 0 65.196 0 42C0 18.804 18.804 0 42 0C65.196 0 84 18.804 84 42" fill="#A3D16E" fill-opacity="1.000000" transform="matrix(1 0 0 1 622.732 198.571)"/><path d="M84 42C84 65.196 65.196 84 42 84C18.804 84 0 65.196 0 42C0 18.804 18.804 0 42 0C65.196 0 84 18.804 84 42" fill="none" stroke="#000000" stroke-opacity="1.000000" stroke-width="2" stroke-dasharray="0 0" transform="matrix(1 0 0 1 622.732 198.571)"/><clipPath id="clip_1_21_0"><path d="M634.732 212.571L694.732 212.571L694.732 272.571L634.732 272.571L634.732 212.571Z"/></clipPath><g clip-path="url(#clip_1_21_0)"><path d="M37.947 44.2686L39.2478 40.2432C40.1795 37.2549 41.0496 34.4072 41.8758 31.3135L42.0164 31.3135C42.8777 34.3721 43.7127 37.2549 44.6795 40.2432L45.9451 44.2686L37.947 44.2686ZM49.2937 55L52.8181 55L43.8533 28.6152L40.1443 28.6152L31.1795 55L34.5633 55L37.1209 46.9316L46.7713 46.9316L49.2937 55Z" fill="#19191A" fill-opacity="1.000000" transform="matrix(1 0 0 1 622.732 198.571)"/></g><path d="M167.566 -102.189L161.566 -91.7965L173.566 -91.7965L167.566 -102.189Z" transform="matrix(1 0 0 1 664.732 198.571)" fill="#19191A" fill-opacity="1.000000" stroke="none"/><path d="M0 0C0 -63.3384 157.061 -38.4963 167.067 -96.2168" fill="none" stroke="#19191A" stroke-opacity="1.000000" stroke-width="2" stroke-linejoin="round" stroke-dasharray="0 0" transform="matrix(1 0 0 1 664.732 198.571)"/><path d="M84 42C84 65.196 65.196 84 42 84C18.804 84 0 65.196 0 42C0 18.804 18.804 0 42 0C65.196 0 84 18.804 84 42" fill="#A3D16E" fill-opacity="1.000000" transform="matrix(1 0 0 1 739.746 198.571)"/><path d="M84 42C84 65.196 65.196 84 42 84C18.804 84 0 65.196 0 42C0 18.804 18.804 0 42 0C65.196 0 84 18.804 84 42" fill="none" stroke="#000000" stroke-opacity="1.000000" stroke-width="2" stroke-dasharray="0 0" transform="matrix(1 0 0 1 739.746 198.571)"/><clipPath id="clip_1_23_0"><path d="M751.746 212.571L811.746 212.571L811.746 272.571L751.746 272.571L751.746 212.571Z"/></clipPath><g clip-path="url(#clip_1_23_0)"><path d="M33.7775 55L42.1974 55C48.1037 55 52.2082 52.4424 52.2082 47.2568C52.2082 43.6621 49.9758 41.5703 46.8029 40.9639L46.8029 40.7793C49.2902 39.9883 50.6965 37.6855 50.6965 35.0576C50.6965 30.4082 46.9875 28.6152 41.6261 28.6152L33.7775 28.6152L33.7775 55ZM37.1261 39.8477L37.1261 31.2432L41.1867 31.2432C45.2912 31.2432 47.4181 32.3945 47.4181 35.4883C47.4181 38.1514 45.5812 39.8477 41.0461 39.8477L37.1261 39.8477ZM37.1261 52.3369L37.1261 42.3965L41.7316 42.3965C46.3371 42.3965 48.9299 43.873 48.9299 47.1514C48.9299 50.7197 46.2668 52.3369 41.7316 52.3369L37.1261 52.3369Z" fill="#19191A" fill-opacity="1.000000" transform="matrix(1 0 0 1 739.746 198.571)"/></g><path d="M50.5523 -102.189L44.5523 -91.7966L56.5523 -91.7966L50.5523 -102.189Z" transform="matrix(1 0 0 1 781.746 198.571)" fill="#19191A" fill-opacity="1.000000" stroke="none"/><path d="M0 0C0 -35.977 45.3059 -61.3603 50.1366 -96.2078" fill="none" stroke="#19191A" stroke-opacity="1.000000" stroke-width="2" stroke-linejoin="round" stroke-dasharray="0 0" transform="matrix(1 0 0 1 781.746 198.571)"/><path d="M178.302 0L167.91 -6L167.91 -6Q168.107 -5.65979 168.28 -5.30746Q168.454 -4.95514 168.604 -4.5922Q168.755 -4.22927 168.881 -3.85727Q169.007 -3.48528 169.109 -3.10583Q169.211 -2.72638 169.287 -2.34108Q169.364 -1.95579 169.415 -1.56631Q169.466 -1.17684 169.492 -0.784838Q169.518 -0.39284 169.518 -5.11073e-07Q169.518 0.392839 169.492 0.784837Q169.466 1.17684 169.415 1.56631Q169.364 1.95579 169.287 2.34108Q169.211 2.72637 169.109 3.10583Q169.007 3.48528 168.881 3.85727Q168.755 4.22926 168.604 4.5922Q168.454 4.95514 168.28 5.30746Q168.107 5.65979 167.91 6L178.302 0Z" transform="matrix(1 0 0 1 396.817 229.856)" fill="#19191A" fill-opacity="1.000000" stroke="none"/><path d="M0 0L172.302 0" fill="none" stroke="#19191A" stroke-opacity="1.000000" stroke-width="2" stroke-dasharray="0 0" transform="matrix(1 0 0 1 396.817 229.856)"/></svg>