<svg xmlns="http://www.w3.org/2000/svg" xmlns:xlink="http://www.w3.org/1999/xlink" width="3074.192383" height="461.769348" viewBox="0 0 3074.19 461.769"><path d="M15 0L314.659 0C322.939 0 329.659 6.72 329.659 15L329.659 94.8774C329.659 103.157 322.939 109.877 314.659 109.877L15 109.877C6.72 109.877 0 103.157 0 94.8774L0 15C0 6.72 6.72 0 15 0Z" fill="#F8C4ED" fill-opacity="1.000000" transform="matrix(1 0 0 1 685.548 338.926)"/><path d="M15 0L314.659 0C322.939 0 329.659 6.72 329.659 15L329.659 94.8774C329.659 103.157 322.939 109.877 314.659 109.877L15 109.877C6.72 109.877 0 103.157 0 94.8774L0 15C0 6.72 6.72 0 15 0Z" fill="none" stroke="#000000" stroke-opacity="1.000000" stroke-width="2" stroke-dasharray="0 0" transform="matrix(1 0 0 1 685.548 338.926)"/><clipPath id="clip_7_9_0"><path d="M691.444 357.822L1007.31 357.822L1007.31 453.907L691.444 453.907L691.444 357.822Z"/></clipPath><g clip-path="url(#clip_7_9_0)"><path d="M30.1047 72.7674Q40.3 72.7674 40.3 55.1893Q40.3 37.7869 30.1047 37.7869Q19.8625 37.7869 19.8625 55.1893Q19.8625 72.7674 30.1047 72.7674ZM30.1047 74.2674Q24.5294 74.2674 21.4501 69.3386Q18.3625 64.3966 18.3625 55.1893Q18.3625 45.9919 21.4528 41.1192Q24.5173 36.2869 30.1047 36.2869Q35.6486 36.2869 38.712 41.138Q41.8 46.028 41.8 55.1893Q41.8 64.3876 38.7143 69.338Q35.6417 74.2674 30.1047 74.2674ZM30.1047 70.7635Q22.6281 70.7635 22.6281 55.1893Q22.6281 39.8377 30.1047 39.8377Q37.5227 39.8377 37.5227 55.1893Q37.5227 70.7635 30.1047 70.7635ZM30.1047 69.2635Q36.0227 69.2635 36.0227 55.1893Q36.0227 41.3377 30.1047 41.3377Q24.1281 41.3377 24.1281 55.1893Q24.1281 69.2635 30.1047 69.2635ZM30.1047 70.0135C34.0891 70.0135 36.7727 65.5487 36.7727 55.1893C36.7727 44.9119 34.0891 40.5877 30.1047 40.5877C26.0734 40.5877 23.3781 44.9119 23.3781 55.1893C23.3781 65.5487 26.0734 70.0135 30.1047 70.0135ZM30.1047 73.5174C23.3781 73.5174 19.1125 67.4237 19.1125 55.1893C19.1125 42.9432 23.3781 37.0369 30.1047 37.0369C36.7727 37.0369 41.05 42.9901 41.05 55.1893C41.05 67.4237 36.7727 73.5174 30.1047 73.5174ZM44.1119 72.1463L48.7291 72.1463L48.7291 72.8963L48.0789 72.5225L51.5829 66.4287Q51.8351 65.9865 52.3366 65.0955Q53.6139 62.8266 54.2775 61.746L54.4971 61.3885L55.5739 61.3885L55.7951 61.7352Q57.3789 64.2186 58.5977 66.4421L57.9401 66.8026L58.5744 66.4024L62.4182 72.4962L61.7838 72.8963L61.7838 72.1463L66.5768 72.1463L66.5768 72.8963L65.9489 73.3065L57.0993 59.7605L65.2695 46.4417L65.9088 46.8338L65.9088 47.5838L61.3502 47.5838L61.3502 46.8338L62.0046 47.2003L58.7819 52.9542L58.1276 52.5877L58.7907 52.9381Q57.4533 55.4689 56.4379 57.2789L56.223 57.6619L55.1576 57.6619L54.9396 57.2947Q54.6128 56.7441 53.9397 55.6389Q52.8532 53.8554 52.3429 52.9587L52.9948 52.5877L52.3542 52.9778L48.8503 47.2239L49.4908 46.8338L49.4908 47.5838L44.7916 47.5838L44.7916 46.8338L45.4248 46.4319L53.6015 59.3138L44.7456 73.2976L44.1119 72.8963L44.1119 72.1463ZM42.7492 73.6463L52.0799 58.913L52.7135 59.3143L52.0803 59.7162L43.4272 46.0838L49.9122 46.0838L53.6411 52.2071L53.6466 52.2168Q54.1459 53.0941 55.2207 54.8586Q55.8984 55.9712 56.2296 56.5292L55.5846 56.9119L55.5846 56.1619L55.7838 56.1619L55.7838 56.9119L55.1297 56.545Q56.1358 54.7516 57.4645 52.2373L57.4687 52.2292L60.9107 46.0838L67.2488 46.0838L58.6262 60.14L57.9869 59.7479L58.6148 59.3377L67.9626 73.6463L61.3702 73.6463L57.2934 67.1832L57.2824 67.1631Q56.0875 64.9832 54.5304 62.5418L55.1627 62.1385L55.1627 62.8885L54.9166 62.8885L54.9166 62.1385L55.5557 62.531Q54.907 63.5873 53.6437 65.8314Q53.14 66.7261 52.8832 67.1764L49.163 73.6463L44.1119 73.6463L42.7492 73.6463ZM44.1119 72.8963L52.7135 59.3143L44.7916 46.8338L49.4908 46.8338L52.9948 52.5877C53.8151 54.0291 54.7291 55.4705 55.5846 56.9119L55.7838 56.9119C56.5924 55.4705 57.3658 54.0291 58.1276 52.5877L61.3502 46.8338L65.9088 46.8338L57.9869 59.7479L66.5768 72.8963L61.7838 72.8963L57.9401 66.8026C57.0729 65.2205 56.1119 63.6268 55.1627 62.1385L54.9166 62.1385C54.0026 63.6268 53.1354 65.2205 52.233 66.8026L48.7291 72.8963L44.1119 72.8963ZM79.8285 72.7674Q84.2508 72.7674 87.3005 69.8307Q90.598 66.6552 90.598 61.4237Q90.598 56.2199 87.725 53.4806Q85.1169 50.994 80.7426 50.994Q78.1806 50.994 75.8694 52.2819L74.6372 52.9686L75.6827 40.7049L89.6722 40.7049L89.6722 41.4549L88.9222 41.4549L88.9222 37.7166L89.6722 37.7166L89.6722 38.4666L72.5277 38.4666L72.5277 37.7166L73.276 37.7667L72.1745 54.2315L71.4262 54.1815L71.8153 53.5403L74.1708 54.97L73.7816 55.6112L73.3673 54.986Q76.6675 52.7987 79.641 52.7987Q83.3125 52.7987 85.493 55.1578Q87.6801 57.5239 87.6801 61.5643Q87.6801 65.6252 85.2823 68.1629Q82.958 70.6229 79.4418 70.6229Q74.385 70.6229 70.2747 66.5126L70.8051 65.9823L71.4056 66.4315L69.2494 69.3143L68.6488 68.8651L69.1805 68.3361Q73.5898 72.7674 79.8285 72.7674ZM79.8285 74.2674Q72.9663 74.2674 68.1172 69.3941L67.6601 68.9347L70.7231 64.8396L71.3354 65.4519Q75.0063 69.1229 79.4418 69.1229Q82.3116 69.1229 84.192 67.1327Q86.1801 65.0286 86.1801 61.5643Q86.1801 54.2987 79.641 54.2987Q77.1194 54.2987 74.196 56.2363L73.7993 56.4992L70.6474 54.5861L71.8262 36.9666L90.4222 36.9666L90.4222 42.2049L76.3715 42.2049L76.3715 41.4549L77.1188 41.5186L76.2516 51.6905L75.5043 51.6268L75.1392 50.9716Q77.7909 49.494 80.7426 49.494Q85.7174 49.494 88.7601 52.395Q92.098 55.5775 92.098 61.4237Q92.098 67.2932 88.3409 70.9112Q84.8556 74.2674 79.8285 74.2674ZM79.8285 73.5174C74.3558 73.5174 70.9926 71.2205 68.6488 68.8651L70.8051 65.9823C72.8207 67.9979 75.3637 69.8729 79.4418 69.8729C83.5785 69.8729 86.9301 66.7088 86.9301 61.5643C86.9301 56.5252 84.059 53.5487 79.641 53.5487C77.2855 53.5487 75.7972 54.2752 73.7816 55.6112L71.4262 54.1815L72.5277 37.7166L89.6722 37.7166L89.6722 41.4549L76.3715 41.4549L75.5043 51.6268C77.0394 50.7713 78.6332 50.244 80.7426 50.244C86.6019 50.244 91.348 53.701 91.348 61.4237C91.348 69.158 85.7816 73.5174 79.8285 73.5174ZM112.035 72.7674Q118.136 72.7674 122.273 67.9875L122.84 68.4783L122.277 68.9744L119.828 66.1971L120.39 65.701L120.94 66.2111Q117.075 70.3768 112.234 70.3768Q106.817 70.3768 103.641 66.1878Q100.539 62.095 100.539 55.1893Q100.539 48.3758 103.742 44.2992Q106.98 40.1776 112.375 40.1776Q116.796 40.1776 120.121 43.7823L119.57 44.2909L118.994 43.8107L121.396 40.9279L121.972 41.408L121.414 41.9085Q117.722 37.7869 112.328 37.7869Q105.829 37.7869 101.743 42.4129Q97.4803 47.2382 97.4803 55.3299Q97.4803 63.4332 101.673 68.2138Q105.666 72.7674 112.035 72.7674ZM112.035 74.2674Q104.986 74.2674 100.545 69.2028Q95.9803 63.9977 95.9803 55.3299Q95.9803 46.6706 100.618 41.4198Q105.152 36.2869 112.328 36.2869Q118.392 36.2869 122.531 40.9076L122.964 41.3903L119.599 45.428L119.019 44.7994Q116.139 41.6776 112.375 41.6776Q107.709 41.6776 104.921 45.2259Q102.039 48.8946 102.039 55.1893Q102.039 61.5908 104.837 65.2816Q107.562 68.8768 112.234 68.8768Q116.421 68.8768 119.841 65.1909L120.405 64.5831L123.836 68.4737L123.407 68.9692Q118.821 74.2674 112.035 74.2674ZM112.035 73.5174C103.304 73.5174 96.7303 66.7557 96.7303 55.3299C96.7303 43.951 103.398 37.0369 112.328 37.0369C116.594 37.0369 119.957 39.158 121.972 41.408L119.57 44.2909C117.754 42.3221 115.398 40.9276 112.375 40.9276C105.707 40.9276 101.289 46.4002 101.289 55.1893C101.289 64.0604 105.508 69.6268 112.234 69.6268C115.586 69.6268 118.129 68.1385 120.39 65.701L122.84 68.4783C120.051 71.701 116.594 73.5174 112.035 73.5174ZM137.093 72.7674Q141.515 72.7674 144.565 69.8307Q147.862 66.6552 147.862 61.4237Q147.862 56.2199 144.989 53.4806Q142.381 50.994 138.007 50.994Q135.445 50.994 133.133 52.2819L131.901 52.9686L132.947 40.7049L146.936 40.7049L146.936 41.4549L146.186 41.4549L146.186 37.7166L146.936 37.7166L146.936 38.4666L129.792 38.4666L129.792 37.7166L130.54 37.7667L129.439 54.2315L128.69 54.1815L129.079 53.5403L131.435 54.97L131.046 55.6112L130.631 54.986Q133.932 52.7987 136.905 52.7987Q140.577 52.7987 142.757 55.1578Q144.944 57.5239 144.944 61.5643Q144.944 65.6252 142.546 68.1629Q140.222 70.6229 136.706 70.6229Q131.649 70.6229 127.539 66.5126L128.069 65.9823L128.67 66.4315L126.514 69.3143L125.913 68.8651L126.445 68.3361Q130.854 72.7674 137.093 72.7674ZM137.093 74.2674Q130.23 74.2674 125.381 69.3941L124.924 68.9347L127.987 64.8396L128.6 65.4519Q132.27 69.1229 136.706 69.1229Q139.576 69.1229 141.456 67.1327Q143.444 65.0286 143.444 61.5643Q143.444 54.2987 136.905 54.2987Q134.384 54.2987 131.46 56.2363L131.063 56.4992L127.912 54.5861L129.09 36.9666L147.686 36.9666L147.686 42.2049L133.636 42.2049L133.636 41.4549L134.383 41.5186L133.516 51.6905L132.768 51.6268L132.403 50.9716Q135.055 49.494 138.007 49.494Q142.982 49.494 146.024 52.395Q149.362 55.5775 149.362 61.4237Q149.362 67.2932 145.605 70.9112Q142.12 74.2674 137.093 74.2674ZM137.093 73.5174C131.62 73.5174 128.257 71.2205 125.913 68.8651L128.069 65.9823C130.085 67.9979 132.628 69.8729 136.706 69.8729C140.843 69.8729 144.194 66.7088 144.194 61.5643C144.194 56.5252 141.323 53.5487 136.905 53.5487C134.55 53.5487 133.061 54.2752 131.046 55.6112L128.69 54.1815L129.792 37.7166L146.936 37.7166L146.936 41.4549L133.636 41.4549L132.768 51.6268C134.304 50.7713 135.897 50.244 138.007 50.244C143.866 50.244 148.612 53.701 148.612 61.4237C148.612 69.158 143.046 73.5174 137.093 73.5174ZM163.733 57.0409Q156.69 57.0409 156.69 48.4627Q156.69 44.6667 158.564 42.2243Q160.468 39.744 163.393 39.744Q171.047 39.744 171.829 51.5303L171.846 51.7938L171.695 52.0102Q168.171 57.0409 163.733 57.0409ZM163.733 55.5409Q167.391 55.5409 170.466 51.1497L171.08 51.5799L170.332 51.6296Q169.643 41.244 163.393 41.244Q161.208 41.244 159.754 43.1377Q158.19 45.176 158.19 48.4627Q158.19 55.5409 163.733 55.5409ZM154.537 69.4019Q157.749 72.7674 162.432 72.7674Q167.54 72.7674 170.706 68.5496Q174.455 63.5553 174.455 53.7948Q174.455 45.9298 171.241 41.6709Q168.309 37.787 163.393 37.7869Q159.524 37.7869 156.855 40.703Q154.065 43.7513 154.065 48.4627Q154.065 58.7987 163.018 58.7987Q167.279 58.7987 170.542 54.7208L171.947 52.9643L171.877 55.2126Q171.398 70.6229 162.291 70.6229Q158.431 70.6229 155.824 67.6873L156.385 67.1893L156.949 67.6833L154.559 70.4138L153.994 69.9198L154.537 69.4019ZM152.978 69.9416L156.381 66.0553L156.946 66.6913Q159.105 69.1229 162.291 69.1229Q169.944 69.1229 170.378 55.166L171.127 55.1893L171.713 55.6578Q168 60.2987 163.018 60.2987Q158.193 60.2987 155.415 57.2486Q152.565 54.1201 152.565 48.4627Q152.565 43.1685 155.748 39.6902Q158.863 36.2869 163.393 36.2869Q169.056 36.2869 172.438 40.7672Q175.955 45.4272 175.955 53.7948Q175.955 64.0556 171.906 69.4501Q168.289 74.2674 162.432 74.2674Q157.108 74.2674 153.452 70.4376L152.978 69.9416ZM153.994 69.9198L156.385 67.1893C157.873 68.8651 160.041 69.8729 162.291 69.8729C166.85 69.8729 170.787 66.1229 171.127 55.1893C169.018 57.826 165.994 59.5487 163.018 59.5487C157.158 59.5487 153.315 55.7635 153.315 48.4627C153.315 41.6541 157.92 37.0369 163.393 37.0369C170.166 37.0369 175.205 42.6034 175.205 53.7948C175.205 68.0448 169.065 73.5174 162.432 73.5174C158.647 73.5174 155.963 71.9823 153.994 69.9198ZM163.733 56.2909C166.088 56.2909 168.725 54.9432 171.08 51.5799C170.6 44.3377 167.905 40.494 163.393 40.494C160.041 40.494 157.44 43.6698 157.44 48.4627C157.44 53.2205 159.561 56.2909 163.733 56.2909ZM182.65 72.1463L187.115 72.1463L187.115 72.8963L186.365 72.8963L186.365 56.3494L200.545 56.3494L200.545 57.0994L199.795 57.0994L199.795 53.3612L200.545 53.3612L200.545 54.1112L186.365 54.1112L186.365 40.7049L202.947 40.7049L202.947 41.4549L202.197 41.4549L202.197 37.7166L202.947 37.7166L202.947 38.4666L182.65 38.4666L182.65 37.7166L183.4 37.7166L183.4 72.8963L182.65 72.8963L182.65 72.1463ZM181.9 73.6463L181.9 36.9666L203.697 36.9666L203.697 42.2049L187.115 42.2049L187.115 41.4549L187.865 41.4549L187.865 53.3612L187.115 53.3612L187.115 52.6112L201.295 52.6112L201.295 57.8494L187.115 57.8494L187.115 57.0994L187.865 57.0994L187.865 73.6463L182.65 73.6463L181.9 73.6463ZM182.65 72.8963L182.65 37.7166L202.947 37.7166L202.947 41.4549L187.115 41.4549L187.115 53.3612L200.545 53.3612L200.545 57.0994L187.115 57.0994L187.115 72.8963L182.65 72.8963ZM216.869 72.7674Q221.291 72.7674 224.341 69.8307Q227.638 66.6552 227.638 61.4237Q227.638 56.2199 224.765 53.4806Q222.157 50.994 217.783 50.994Q215.221 50.994 212.91 52.2819L211.677 52.9686L212.723 40.7049L226.713 40.7049L226.713 41.4549L225.963 41.4549L225.963 37.7166L226.713 37.7166L226.713 38.4666L209.568 38.4666L209.568 37.7166L210.316 37.7667L209.215 54.2315L208.466 54.1815L208.856 53.5403L211.211 54.97L210.822 55.6112L210.408 54.986Q213.708 52.7987 216.681 52.7987Q220.353 52.7987 222.533 55.1578Q224.72 57.5239 224.72 61.5643Q224.72 65.6252 222.323 68.1629Q219.998 70.6229 216.482 70.6229Q211.425 70.6229 207.315 66.5126L207.845 65.9823L208.446 66.4315L206.29 69.3143L205.689 68.8651L206.221 68.3361Q210.63 72.7674 216.869 72.7674ZM216.869 74.2674Q210.007 74.2674 205.157 69.3941L204.7 68.9347L207.763 64.8396L208.376 65.4519Q212.047 69.1229 216.482 69.1229Q219.352 69.1229 221.232 67.1327Q223.22 65.0286 223.22 61.5643Q223.22 54.2987 216.681 54.2987Q214.16 54.2987 211.236 56.2363L210.84 56.4992L207.688 54.5861L208.867 36.9666L227.463 36.9666L227.463 42.2049L213.412 42.2049L213.412 41.4549L214.159 41.5186L213.292 51.6905L212.545 51.6268L212.179 50.9716Q214.831 49.494 217.783 49.494Q222.758 49.494 225.8 52.395Q229.138 55.5775 229.138 61.4237Q229.138 67.2932 225.381 70.9112Q221.896 74.2674 216.869 74.2674ZM216.869 73.5174C211.396 73.5174 208.033 71.2205 205.689 68.8651L207.845 65.9823C209.861 67.9979 212.404 69.8729 216.482 69.8729C220.619 69.8729 223.97 66.7088 223.97 61.5643C223.97 56.5252 221.099 53.5487 216.681 53.5487C214.326 53.5487 212.838 54.2752 210.822 55.6112L208.466 54.1815L209.568 37.7166L226.713 37.7166L226.713 41.4549L213.412 41.4549L212.545 51.6268C214.08 50.7713 215.673 50.244 217.783 50.244C223.642 50.244 228.388 53.701 228.388 61.4237C228.388 69.158 222.822 73.5174 216.869 73.5174ZM243.649 72.7674Q248.212 72.7674 251.151 70.2884Q254.185 67.7293 254.185 63.4862Q254.185 56.8782 247.278 55.2873L246.696 55.1534L246.696 53.8483L247.184 53.6663Q252.989 51.5007 252.989 45.8729Q252.989 42.0795 250.362 39.9108Q247.788 37.7869 243.509 37.7869Q238.533 37.7869 234.174 41.8181L233.665 41.2674L234.237 40.7823L236.593 43.5597L236.021 44.0448L235.49 43.5144Q239.074 39.9308 243.297 39.7913L243.319 39.7905L243.341 39.7911Q246.368 39.869 248.181 41.5891Q250.024 43.3386 250.024 46.2127Q250.024 53.6776 239.524 53.6776L239.524 52.9276L240.274 52.9276L240.274 56.2909L239.524 56.2909L239.524 55.5409Q251.22 55.5409 251.22 63.3455Q251.22 66.666 248.959 68.6808Q246.78 70.6229 243.321 70.6229Q238.115 70.6229 234.037 66.36L234.579 65.8416L235.175 66.297L232.972 69.1799L232.376 68.7244L232.928 68.2166Q237.116 72.7674 243.649 72.7674ZM243.649 74.2674Q236.457 74.2674 231.824 69.2323L231.398 68.7691L234.515 64.6899L235.121 65.3232Q238.756 69.1229 243.321 69.1229Q246.208 69.1229 247.961 67.561Q249.72 65.9936 249.72 63.3455Q249.72 57.0409 239.524 57.0409L238.774 57.0409L238.774 52.1776L239.524 52.1776Q248.524 52.1776 248.524 46.2127Q248.524 41.4249 243.302 41.2906L243.321 40.5409L243.346 41.2904Q239.716 41.4105 236.551 44.5751L235.975 45.1508L232.628 41.2046L233.156 40.7168Q237.946 36.2869 243.509 36.2869Q248.327 36.2869 251.316 38.7539Q254.489 41.3725 254.489 45.8729Q254.489 52.5421 247.708 55.0717L247.446 54.369L248.196 54.369L248.196 54.5565L247.446 54.5565L247.615 53.8256Q251.128 54.6348 253.314 57.0849Q255.685 59.7404 255.685 63.4862Q255.685 68.4264 252.118 71.4349Q248.76 74.2674 243.649 74.2674ZM243.649 73.5174C238.13 73.5174 234.673 71.2205 232.376 68.7244L234.579 65.8416C236.642 67.9979 239.337 69.8729 243.321 69.8729C247.493 69.8729 250.47 67.3768 250.47 63.3455C250.47 59.1151 247.634 56.2909 239.524 56.2909L239.524 52.9276C246.778 52.9276 249.274 49.9979 249.274 46.2127C249.274 42.8026 246.966 40.6346 243.321 40.5409C240.485 40.6346 237.989 42.076 236.021 44.0448L233.665 41.2674C236.314 38.8182 239.431 37.0369 243.509 37.0369C249.415 37.0369 253.739 40.2127 253.739 45.8729C253.739 50.1385 251.185 52.9744 247.446 54.369L247.446 54.5565C251.618 55.5174 254.935 58.6932 254.935 63.4862C254.935 69.7791 249.896 73.5174 243.649 73.5174ZM262.517 59.2844L270.533 47.2844L271.157 47.701L270.508 47.3242Q272.218 44.3816 273.322 42.1742L273.529 41.7596L274.97 41.7596L274.929 42.548Q274.908 42.9699 274.853 43.9454Q274.649 47.5904 274.649 48.8963L274.649 60.451L261.738 60.451L262.517 59.2844ZM263.765 60.1176L263.141 59.701L263.141 58.951L273.899 58.951L273.899 59.701L273.149 59.701L273.149 48.8963Q273.149 47.5484 273.355 43.8615Q273.41 42.8894 273.431 42.4712L274.18 42.5096L274.18 43.2596L273.993 43.2596L273.993 42.5096L274.663 42.845Q273.539 45.0946 271.805 48.0778L271.793 48.0981L263.765 60.1176ZM282.723 60.451L277.321 60.451L277.321 37.7166L278.071 37.7166L278.071 38.4666L273.219 38.4666L273.219 37.7166L273.849 38.1243L259.212 60.7297L258.583 60.3221L259.333 60.3221L259.333 63.2049L258.583 63.2049L258.583 62.4549L274.649 62.4549L274.649 72.8963L273.899 72.8963L273.899 72.1463L278.071 72.1463L278.071 72.8963L277.321 72.8963L277.321 62.4549L282.723 62.4549L282.723 63.2049L281.973 63.2049L281.973 59.701L282.723 59.701L282.723 60.451ZM283.473 58.951L283.473 63.9549L278.071 63.9549L278.071 63.2049L278.821 63.2049L278.821 73.6463L273.149 73.6463L273.149 63.2049L273.899 63.2049L273.899 63.9549L257.833 63.9549L257.833 60.1005L272.811 36.9666L278.821 36.9666L278.821 59.701L278.071 59.701L278.071 58.951L282.723 58.951L283.473 58.951ZM282.723 59.701L282.723 63.2049L278.071 63.2049L278.071 72.8963L273.899 72.8963L273.899 63.2049L258.583 63.2049L258.583 60.3221L273.219 37.7166L278.071 37.7166L278.071 59.701L282.723 59.701ZM263.141 59.701L273.899 59.701L273.899 48.8963C273.899 47.1737 274.086 44.3377 274.18 42.5096L273.993 42.5096C273.125 44.244 272.165 45.9666 271.157 47.701L263.141 59.701ZM289.158 59.2844L297.173 47.2844L297.797 47.701L297.148 47.3242Q298.858 44.3816 299.962 42.1742L300.169 41.7596L301.61 41.7596L301.569 42.548Q301.548 42.9699 301.493 43.9454Q301.289 47.5904 301.289 48.8963L301.289 60.451L288.378 60.451L289.158 59.2844ZM290.405 60.1176L289.781 59.701L289.781 58.951L300.539 58.951L300.539 59.701L299.789 59.701L299.789 48.8963Q299.789 47.5484 299.995 43.8615Q300.05 42.8894 300.071 42.4712L300.82 42.5096L300.82 43.2596L300.633 43.2596L300.633 42.5096L301.304 42.845Q300.179 45.0946 298.445 48.0778L298.433 48.0981L290.405 60.1176ZM309.363 60.451L303.961 60.451L303.961 37.7166L304.711 37.7166L304.711 38.4666L299.859 38.4666L299.859 37.7166L300.489 38.1243L285.852 60.7297L285.223 60.3221L285.973 60.3221L285.973 63.2049L285.223 63.2049L285.223 62.4549L301.289 62.4549L301.289 72.8963L300.539 72.8963L300.539 72.1463L304.711 72.1463L304.711 72.8963L303.961 72.8963L303.961 62.4549L309.363 62.4549L309.363 63.2049L308.613 63.2049L308.613 59.701L309.363 59.701L309.363 60.451ZM310.113 58.951L310.113 63.9549L304.711 63.9549L304.711 63.2049L305.461 63.2049L305.461 73.6463L299.789 73.6463L299.789 63.2049L300.539 63.2049L300.539 63.9549L284.473 63.9549L284.473 60.1005L299.451 36.9666L305.461 36.9666L305.461 59.701L304.711 59.701L304.711 58.951L309.363 58.951L310.113 58.951ZM309.363 59.701L309.363 63.2049L304.711 63.2049L304.711 72.8963L300.539 72.8963L300.539 63.2049L285.223 63.2049L285.223 60.3221L299.859 37.7166L304.711 37.7166L304.711 59.701L309.363 59.701ZM289.781 59.701L300.539 59.701L300.539 48.8963C300.539 47.1737 300.726 44.3377 300.82 42.5096L300.633 42.5096C299.766 44.244 298.805 45.9666 297.797 47.701L289.781 59.701Z" fill="#19191A" fill-opacity="1.000000" transform="matrix(1 0 0 1 685.548 338.926)"/></g><path d="M15 0L314.659 0C322.939 0 329.659 6.72 329.659 15L329.659 94.8774C329.659 103.157 322.939 109.877 314.659 109.877L15 109.877C6.72 109.877 0 103.157 0 94.8774L0 15C0 6.72 6.72 0 15 0Z" fill="#D5FFEC" fill-opacity="1.000000" transform="matrix(1 0 0 1 685.548 135.006)"/><path d="M15 0L314.659 0C322.939 0 329.659 6.72 329.659 15L329.659 94.8774C329.659 103.157 322.939 109.877 314.659 109.877L15 109.877C6.72 109.877 0 103.157 0 94.8774L0 15C0 6.72 6.72 0 15 0Z" fill="none" stroke="#000000" stroke-opacity="1.000000" stroke-width="2" stroke-dasharray="0 0" transform="matrix(1 0 0 1 685.548 135.006)"/><clipPath id="clip_7_11_0"><path d="M691.444 153.903L1007.31 153.903L1007.31 249.987L691.444 249.987L691.444 153.903Z"/></clipPath><g clip-path="url(#clip_7_11_0)"><path d="M138.298 49.7166L140.982 49.7166L141.849 40.8338L141.943 35.8885L137.338 35.8885L137.431 40.8338L138.298 49.7166ZM151.162 72.8963L155.627 72.8963L155.627 56.2909L172.033 56.2909L172.033 72.8963L176.451 72.8963L176.451 37.7166L172.033 37.7166L172.033 52.4471L155.627 52.4471L155.627 37.7166L151.162 37.7166L151.162 72.8963ZM186.587 49.7166L189.27 49.7166L190.137 40.8338L190.231 35.8885L185.626 35.8885L185.719 40.8338L186.587 49.7166Z" fill="#19191A" fill-opacity="1.000000" transform="matrix(1 0 0 1 685.548 135.006)"/></g><path d="M15 0L314.659 0C322.939 0 329.659 6.72 329.659 15L329.659 94.8774C329.659 103.157 322.939 109.877 314.659 109.877L15 109.877C6.72 109.877 0 103.157 0 94.8774L0 15C0 6.72 6.72 0 15 0Z" fill="#F8C4ED" fill-opacity="1.000000" transform="matrix(1 0 0 1 1094.75 338.926)"/><path d="M15 0L314.659 0C322.939 0 329.659 6.72 329.659 15L329.659 94.8774C329.659 103.157 322.939 109.877 314.659 109.877L15 109.877C6.72 109.877 0 103.157 0 94.8774L0 15C0 6.72 6.72 0 15 0Z" fill="none" stroke="#000000" stroke-opacity="1.000000" stroke-width="2" stroke-dasharray="0 0" transform="matrix(1 0 0 1 1094.75 338.926)"/><clipPath id="clip_7_12_0"><path d="M1100.65 357.822L1416.51 357.822L1416.51 453.907L1100.65 453.907L1100.65 357.822Z"/></clipPath><g clip-path="url(#clip_7_12_0)"><path d="M30.1047 73.5174C36.7727 73.5174 41.05 67.4237 41.05 55.1893C41.05 42.9901 36.7727 37.0369 30.1047 37.0369C23.3781 37.0369 19.1125 42.9432 19.1125 55.1893C19.1125 67.4237 23.3781 73.5174 30.1047 73.5174ZM30.1047 70.0135C26.0734 70.0135 23.3781 65.5487 23.3781 55.1893C23.3781 44.9119 26.0734 40.5877 30.1047 40.5877C34.0891 40.5877 36.7727 44.9119 36.7727 55.1893C36.7727 65.5487 34.0891 70.0135 30.1047 70.0135ZM44.1119 72.8963L48.7291 72.8963L52.233 66.8026C53.1354 65.2205 54.0026 63.6268 54.9166 62.1385L55.1627 62.1385C56.1119 63.6268 57.0729 65.2205 57.9401 66.8026L61.7838 72.8963L66.5768 72.8963L57.9869 59.7479L65.9088 46.8338L61.3502 46.8338L58.1276 52.5877C57.3658 54.0291 56.5924 55.4705 55.7838 56.9119L55.5846 56.9119C54.7291 55.4705 53.8151 54.0291 52.9948 52.5877L49.4908 46.8338L44.7916 46.8338L52.7135 59.3143L44.1119 72.8963ZM79.8285 73.5174C85.7816 73.5174 91.348 69.158 91.348 61.4237C91.348 53.701 86.6019 50.244 80.7426 50.244C78.6332 50.244 77.0394 50.7713 75.5043 51.6268L76.3715 41.4549L89.6722 41.4549L89.6722 37.7166L72.5277 37.7166L71.4262 54.1815L73.7816 55.6112C75.7972 54.2752 77.2855 53.5487 79.641 53.5487C84.059 53.5487 86.9301 56.5252 86.9301 61.5643C86.9301 66.7088 83.5785 69.8729 79.4418 69.8729C75.3637 69.8729 72.8207 67.9979 70.8051 65.9823L68.6488 68.8651C70.9926 71.2205 74.3558 73.5174 79.8285 73.5174ZM112.035 73.5174C116.594 73.5174 120.051 71.701 122.84 68.4783L120.39 65.701C118.129 68.1385 115.586 69.6268 112.234 69.6268C105.508 69.6268 101.289 64.0604 101.289 55.1893C101.289 46.4002 105.707 40.9276 112.375 40.9276C115.398 40.9276 117.754 42.3221 119.57 44.2909L121.972 41.408C119.957 39.158 116.594 37.0369 112.328 37.0369C103.398 37.0369 96.7303 43.951 96.7303 55.3299C96.7303 66.7557 103.304 73.5174 112.035 73.5174ZM137.093 73.5174C143.046 73.5174 148.612 69.158 148.612 61.4237C148.612 53.701 143.866 50.244 138.007 50.244C135.897 50.244 134.304 50.7713 132.768 51.6268L133.636 41.4549L146.936 41.4549L146.936 37.7166L129.792 37.7166L128.69 54.1815L131.046 55.6112C133.061 54.2752 134.55 53.5487 136.905 53.5487C141.323 53.5487 144.194 56.5252 144.194 61.5643C144.194 66.7088 140.843 69.8729 136.706 69.8729C132.628 69.8729 130.085 67.9979 128.069 65.9823L125.913 68.8651C128.257 71.2205 131.62 73.5174 137.093 73.5174ZM163.733 56.2909C159.561 56.2909 157.44 53.2205 157.44 48.4627C157.44 43.6698 160.041 40.494 163.393 40.494C167.905 40.494 170.6 44.3377 171.08 51.5799C168.725 54.9432 166.088 56.2909 163.733 56.2909ZM153.994 69.9198C155.963 71.9823 158.647 73.5174 162.432 73.5174C169.065 73.5174 175.205 68.0448 175.205 53.7948C175.205 42.6034 170.166 37.0369 163.393 37.0369C157.92 37.0369 153.315 41.6541 153.315 48.4627C153.315 55.7635 157.158 59.5487 163.018 59.5487C165.994 59.5487 169.018 57.826 171.127 55.1893C170.787 66.1229 166.85 69.8729 162.291 69.8729C160.041 69.8729 157.873 68.8651 156.385 67.1893L153.994 69.9198ZM182.65 72.8963L187.115 72.8963L187.115 57.0994L200.545 57.0994L200.545 53.3612L187.115 53.3612L187.115 41.4549L202.947 41.4549L202.947 37.7166L182.65 37.7166L182.65 72.8963ZM216.869 73.5174C222.822 73.5174 228.388 69.158 228.388 61.4237C228.388 53.701 223.642 50.244 217.783 50.244C215.673 50.244 214.08 50.7713 212.545 51.6268L213.412 41.4549L226.713 41.4549L226.713 37.7166L209.568 37.7166L208.466 54.1815L210.822 55.6112C212.838 54.2752 214.326 53.5487 216.681 53.5487C221.099 53.5487 223.97 56.5252 223.97 61.5643C223.97 66.7088 220.619 69.8729 216.482 69.8729C212.404 69.8729 209.861 67.9979 207.845 65.9823L205.689 68.8651C208.033 71.2205 211.396 73.5174 216.869 73.5174ZM243.649 73.5174C249.896 73.5174 254.935 69.7791 254.935 63.4862C254.935 58.6932 251.618 55.5174 247.446 54.5565L247.446 54.369C251.185 52.9744 253.739 50.1385 253.739 45.8729C253.739 40.2127 249.415 37.0369 243.509 37.0369C239.431 37.0369 236.314 38.8182 233.665 41.2674L236.021 44.0448C237.989 42.076 240.485 40.6346 243.321 40.5409C246.966 40.6346 249.274 42.8026 249.274 46.2127C249.274 49.9979 246.778 52.9276 239.524 52.9276L239.524 56.2909C247.634 56.2909 250.47 59.1151 250.47 63.3455C250.47 67.3768 247.493 69.8729 243.321 69.8729C239.337 69.8729 236.642 67.9979 234.579 65.8416L232.376 68.7244C234.673 71.2205 238.13 73.5174 243.649 73.5174ZM263.141 59.701L271.157 47.701C272.165 45.9666 273.125 44.244 273.993 42.5096L274.18 42.5096C274.086 44.3377 273.899 47.1737 273.899 48.8963L273.899 59.701L263.141 59.701ZM282.723 59.701L278.071 59.701L278.071 37.7166L273.219 37.7166L258.583 60.3221L258.583 63.2049L273.899 63.2049L273.899 72.8963L278.071 72.8963L278.071 63.2049L282.723 63.2049L282.723 59.701ZM296.789 73.5174C302.742 73.5174 308.309 69.158 308.309 61.4237C308.309 53.701 303.562 50.244 297.703 50.244C295.594 50.244 294 50.7713 292.465 51.6268L293.332 41.4549L306.633 41.4549L306.633 37.7166L289.488 37.7166L288.387 54.1815L290.742 55.6112C292.758 54.2752 294.246 53.5487 296.601 53.5487C301.019 53.5487 303.891 56.5252 303.891 61.5643C303.891 66.7088 300.539 69.8729 296.402 69.8729C292.324 69.8729 289.781 67.9979 287.766 65.9823L285.609 68.8651C287.953 71.2205 291.316 73.5174 296.789 73.5174Z" fill="#19191A" fill-opacity="1.000000" transform="matrix(1 0 0 1 1094.75 338.926)"/></g><path d="M15 0L314.659 0C322.939 0 329.659 6.72 329.659 15L329.659 94.8774C329.659 103.157 322.939 109.877 314.659 109.877L15 109.877C6.72 109.877 0 103.157 0 94.8774L0 15C0 6.72 6.72 0 15 0Z" fill="#D5FFEC" fill-opacity="1.000000" transform="matrix(1 0 0 1 1094.75 135.007)"/><path d="M15 0L314.659 0C322.939 0 329.659 6.72 329.659 15L329.659 94.8774C329.659 103.157 322.939 109.877 314.659 109.877L15 109.877C6.72 109.877 0 103.157 0 94.8774L0 15C0 6.72 6.72 0 15 0Z" fill="none" stroke="#000000" stroke-opacity="1.000000" stroke-width="2" stroke-dasharray="0 0" transform="matrix(1 0 0 1 1094.75 135.007)"/><clipPath id="clip_7_14_0"><path d="M1100.65 153.903L1416.51 153.903L1416.51 249.988L1100.65 249.988L1100.65 153.903Z"/></clipPath><g clip-path="url(#clip_7_14_0)"><path d="M141.658 49.7166L144.342 49.7166L145.209 40.8338L145.303 35.8885L140.698 35.8885L140.791 40.8338L141.658 49.7166ZM154.522 72.8963L175.346 72.8963L175.346 69.0994L158.987 69.0994L158.987 56.2909L172.323 56.2909L172.323 52.494L158.987 52.494L158.987 41.4549L174.819 41.4549L174.819 37.7166L154.522 37.7166L154.522 72.8963ZM183.227 49.7166L185.91 49.7166L186.777 40.8338L186.871 35.8885L182.266 35.8885L182.359 40.8338L183.227 49.7166Z" fill="#19191A" fill-opacity="1.000000" transform="matrix(1 0 0 1 1094.75 135.007)"/></g><path d="M15 0L314.659 0C322.939 0 329.659 6.72 329.659 15L329.659 94.8774C329.659 103.157 322.939 109.877 314.659 109.877L15 109.877C6.72 109.877 0 103.157 0 94.8774L0 15C0 6.72 6.72 0 15 0Z" fill="#F8C4ED" fill-opacity="1.000000" transform="matrix(1 0 0 1 1503.96 338.925)"/><path d="M15 0L314.659 0C322.939 0 329.659 6.72 329.659 15L329.659 94.8774C329.659 103.157 322.939 109.877 314.659 109.877L15 109.877C6.72 109.877 0 103.157 0 94.8774L0 15C0 6.72 6.72 0 15 0Z" fill="none" stroke="#000000" stroke-opacity="1.000000" stroke-width="2" stroke-dasharray="0 0" transform="matrix(1 0 0 1 1503.96 338.925)"/><clipPath id="clip_7_15_0"><path d="M1509.85 357.822L1825.72 357.822L1825.72 453.906L1509.85 453.906L1509.85 357.822Z"/></clipPath><g clip-path="url(#clip_7_15_0)"><path d="M30.1047 73.5174C36.7727 73.5174 41.05 67.4237 41.05 55.1893C41.05 42.9901 36.7727 37.0369 30.1047 37.0369C23.3781 37.0369 19.1125 42.9432 19.1125 55.1893C19.1125 67.4237 23.3781 73.5174 30.1047 73.5174ZM30.1047 70.0135C26.0734 70.0135 23.3781 65.5487 23.3781 55.1893C23.3781 44.9119 26.0734 40.5877 30.1047 40.5877C34.0891 40.5877 36.7727 44.9119 36.7727 55.1893C36.7727 65.5487 34.0891 70.0135 30.1047 70.0135ZM44.1119 72.8963L48.7291 72.8963L52.233 66.8026C53.1354 65.2205 54.0026 63.6268 54.9166 62.1385L55.1627 62.1385C56.1119 63.6268 57.0729 65.2205 57.9401 66.8026L61.7838 72.8963L66.5768 72.8963L57.9869 59.7479L65.9088 46.8338L61.3502 46.8338L58.1276 52.5877C57.3658 54.0291 56.5924 55.4705 55.7838 56.9119L55.5846 56.9119C54.7291 55.4705 53.8151 54.0291 52.9948 52.5877L49.4908 46.8338L44.7916 46.8338L52.7135 59.3143L44.1119 72.8963ZM79.8285 73.5174C85.7816 73.5174 91.348 69.158 91.348 61.4237C91.348 53.701 86.6019 50.244 80.7426 50.244C78.6332 50.244 77.0394 50.7713 75.5043 51.6268L76.3715 41.4549L89.6722 41.4549L89.6722 37.7166L72.5277 37.7166L71.4262 54.1815L73.7816 55.6112C75.7972 54.2752 77.2855 53.5487 79.641 53.5487C84.059 53.5487 86.9301 56.5252 86.9301 61.5643C86.9301 66.7088 83.5785 69.8729 79.4418 69.8729C75.3637 69.8729 72.8207 67.9979 70.8051 65.9823L68.6488 68.8651C70.9926 71.2205 74.3558 73.5174 79.8285 73.5174ZM112.035 73.5174C116.594 73.5174 120.051 71.701 122.84 68.4783L120.39 65.701C118.129 68.1385 115.586 69.6268 112.234 69.6268C105.508 69.6268 101.289 64.0604 101.289 55.1893C101.289 46.4002 105.707 40.9276 112.375 40.9276C115.398 40.9276 117.754 42.3221 119.57 44.2909L121.972 41.408C119.957 39.158 116.594 37.0369 112.328 37.0369C103.398 37.0369 96.7303 43.951 96.7303 55.3299C96.7303 66.7557 103.304 73.5174 112.035 73.5174ZM137.093 73.5174C143.046 73.5174 148.612 69.158 148.612 61.4237C148.612 53.701 143.866 50.244 138.007 50.244C135.897 50.244 134.304 50.7713 132.768 51.6268L133.636 41.4549L146.936 41.4549L146.936 37.7166L129.792 37.7166L128.69 54.1815L131.046 55.6112C133.061 54.2752 134.55 53.5487 136.905 53.5487C141.323 53.5487 144.194 56.5252 144.194 61.5643C144.194 66.7088 140.843 69.8729 136.706 69.8729C132.628 69.8729 130.085 67.9979 128.069 65.9823L125.913 68.8651C128.257 71.2205 131.62 73.5174 137.093 73.5174ZM163.733 56.2909C159.561 56.2909 157.44 53.2205 157.44 48.4627C157.44 43.6698 160.041 40.494 163.393 40.494C167.905 40.494 170.6 44.3377 171.08 51.5799C168.725 54.9432 166.088 56.2909 163.733 56.2909ZM153.994 69.9198C155.963 71.9823 158.647 73.5174 162.432 73.5174C169.065 73.5174 175.205 68.0448 175.205 53.7948C175.205 42.6034 170.166 37.0369 163.393 37.0369C157.92 37.0369 153.315 41.6541 153.315 48.4627C153.315 55.7635 157.158 59.5487 163.018 59.5487C165.994 59.5487 169.018 57.826 171.127 55.1893C170.787 66.1229 166.85 69.8729 162.291 69.8729C160.041 69.8729 157.873 68.8651 156.385 67.1893L153.994 69.9198ZM182.65 72.8963L187.115 72.8963L187.115 57.0994L200.545 57.0994L200.545 53.3612L187.115 53.3612L187.115 41.4549L202.947 41.4549L202.947 37.7166L182.65 37.7166L182.65 72.8963ZM216.869 73.5174C222.822 73.5174 228.388 69.158 228.388 61.4237C228.388 53.701 223.642 50.244 217.783 50.244C215.673 50.244 214.08 50.7713 212.545 51.6268L213.412 41.4549L226.713 41.4549L226.713 37.7166L209.568 37.7166L208.466 54.1815L210.822 55.6112C212.838 54.2752 214.326 53.5487 216.681 53.5487C221.099 53.5487 223.97 56.5252 223.97 61.5643C223.97 66.7088 220.619 69.8729 216.482 69.8729C212.404 69.8729 209.861 67.9979 207.845 65.9823L205.689 68.8651C208.033 71.2205 211.396 73.5174 216.869 73.5174ZM243.649 73.5174C249.896 73.5174 254.935 69.7791 254.935 63.4862C254.935 58.6932 251.618 55.5174 247.446 54.5565L247.446 54.369C251.185 52.9744 253.739 50.1385 253.739 45.8729C253.739 40.2127 249.415 37.0369 243.509 37.0369C239.431 37.0369 236.314 38.8182 233.665 41.2674L236.021 44.0448C237.989 42.076 240.485 40.6346 243.321 40.5409C246.966 40.6346 249.274 42.8026 249.274 46.2127C249.274 49.9979 246.778 52.9276 239.524 52.9276L239.524 56.2909C247.634 56.2909 250.47 59.1151 250.47 63.3455C250.47 67.3768 247.493 69.8729 243.321 69.8729C239.337 69.8729 236.642 67.9979 234.579 65.8416L232.376 68.7244C234.673 71.2205 238.13 73.5174 243.649 73.5174ZM263.141 59.701L271.157 47.701C272.165 45.9666 273.125 44.244 273.993 42.5096L274.18 42.5096C274.086 44.3377 273.899 47.1737 273.899 48.8963L273.899 59.701L263.141 59.701ZM282.723 59.701L278.071 59.701L278.071 37.7166L273.219 37.7166L258.583 60.3221L258.583 63.2049L273.899 63.2049L273.899 72.8963L278.071 72.8963L278.071 63.2049L282.723 63.2049L282.723 59.701ZM298.711 70.1073C294.293 70.1073 291.656 66.1229 291.129 58.8338C293.426 55.5643 296.121 54.3221 298.324 54.3221C302.601 54.3221 304.664 57.3455 304.664 62.0916C304.664 66.8963 302.074 70.1073 298.711 70.1073ZM308.168 40.6346C306.246 38.5721 303.609 37.0369 299.953 37.0369C293.144 37.0369 286.945 42.3221 286.945 56.0916C286.945 67.7166 291.937 73.5174 298.711 73.5174C304.184 73.5174 308.789 68.9119 308.789 62.0916C308.789 54.7557 304.992 51.0526 299.051 51.0526C296.262 51.0526 293.191 52.6932 291.035 55.3299C291.223 44.3846 295.301 40.6932 300.105 40.6932C302.262 40.6932 304.371 41.701 305.766 43.3768L308.168 40.6346Z" fill="#19191A" fill-opacity="1.000000" transform="matrix(1 0 0 1 1503.96 338.925)"/></g><path d="M15 0L314.659 0C322.939 0 329.659 6.72 329.659 15L329.659 94.8774C329.659 103.157 322.939 109.877 314.659 109.877L15 109.877C6.72 109.877 0 103.157 0 94.8774L0 15C0 6.72 6.72 0 15 0Z" fill="#D5FFEC" fill-opacity="1.000000" transform="matrix(1 0 0 1 1503.96 135.006)"/><path d="M15 0L314.659 0C322.939 0 329.659 6.72 329.659 15L329.659 94.8774C329.659 103.157 322.939 109.877 314.659 109.877L15 109.877C6.72 109.877 0 103.157 0 94.8774L0 15C0 6.72 6.72 0 15 0Z" fill="none" stroke="#000000" stroke-opacity="1.000000" stroke-width="2" stroke-dasharray="0 0" transform="matrix(1 0 0 1 1503.96 135.006)"/><clipPath id="clip_7_17_0"><path d="M1509.85 153.903L1825.72 153.903L1825.72 249.987L1509.85 249.987L1509.85 153.903Z"/></clipPath><g clip-path="url(#clip_7_17_0)"><path d="M145.138 49.7166L147.822 49.7166L148.689 40.8338L148.783 35.8885L144.178 35.8885L144.271 40.8338L145.138 49.7166ZM158.002 72.8963L177.818 72.8963L177.818 69.0994L162.467 69.0994L162.467 37.7166L158.002 37.7166L158.002 72.8963ZM179.747 49.7166L182.43 49.7166L183.297 40.8338L183.391 35.8885L178.786 35.8885L178.879 40.8338L179.747 49.7166Z" fill="#19191A" fill-opacity="1.000000" transform="matrix(1 0 0 1 1503.96 135.006)"/></g><path d="M15 0L314.659 0C322.939 0 329.659 6.72 329.659 15L329.659 94.8774C329.659 103.157 322.939 109.877 314.659 109.877L15 109.877C6.72 109.877 0 103.157 0 94.8774L0 15C0 6.72 6.72 0 15 0Z" fill="#F8C4ED" fill-opacity="1.000000" transform="matrix(1 0 0 1 1913.16 338.926)"/><path d="M15 0L314.659 0C322.939 0 329.659 6.72 329.659 15L329.659 94.8774C329.659 103.157 322.939 109.877 314.659 109.877L15 109.877C6.72 109.877 0 103.157 0 94.8774L0 15C0 6.72 6.72 0 15 0Z" fill="none" stroke="#000000" stroke-opacity="1.000000" stroke-width="2" stroke-dasharray="0 0" transform="matrix(1 0 0 1 1913.16 338.926)"/><clipPath id="clip_7_18_0"><path d="M1919.06 357.822L2234.92 357.822L2234.92 453.907L1919.06 453.907L1919.06 357.822Z"/></clipPath><g clip-path="url(#clip_7_18_0)"><path d="M30.1047 73.5174C36.7727 73.5174 41.05 67.4237 41.05 55.1893C41.05 42.9901 36.7727 37.0369 30.1047 37.0369C23.3781 37.0369 19.1125 42.9432 19.1125 55.1893C19.1125 67.4237 23.3781 73.5174 30.1047 73.5174ZM30.1047 70.0135C26.0734 70.0135 23.3781 65.5487 23.3781 55.1893C23.3781 44.9119 26.0734 40.5877 30.1047 40.5877C34.0891 40.5877 36.7727 44.9119 36.7727 55.1893C36.7727 65.5487 34.0891 70.0135 30.1047 70.0135ZM44.1119 72.8963L48.7291 72.8963L52.233 66.8026C53.1354 65.2205 54.0026 63.6268 54.9166 62.1385L55.1627 62.1385C56.1119 63.6268 57.0729 65.2205 57.9401 66.8026L61.7838 72.8963L66.5768 72.8963L57.9869 59.7479L65.9088 46.8338L61.3502 46.8338L58.1276 52.5877C57.3658 54.0291 56.5924 55.4705 55.7838 56.9119L55.5846 56.9119C54.7291 55.4705 53.8151 54.0291 52.9948 52.5877L49.4908 46.8338L44.7916 46.8338L52.7135 59.3143L44.1119 72.8963ZM79.8285 73.5174C85.7816 73.5174 91.348 69.158 91.348 61.4237C91.348 53.701 86.6019 50.244 80.7426 50.244C78.6332 50.244 77.0394 50.7713 75.5043 51.6268L76.3715 41.4549L89.6722 41.4549L89.6722 37.7166L72.5277 37.7166L71.4262 54.1815L73.7816 55.6112C75.7972 54.2752 77.2855 53.5487 79.641 53.5487C84.059 53.5487 86.9301 56.5252 86.9301 61.5643C86.9301 66.7088 83.5785 69.8729 79.4418 69.8729C75.3637 69.8729 72.8207 67.9979 70.8051 65.9823L68.6488 68.8651C70.9926 71.2205 74.3558 73.5174 79.8285 73.5174ZM112.035 73.5174C116.594 73.5174 120.051 71.701 122.84 68.4783L120.39 65.701C118.129 68.1385 115.586 69.6268 112.234 69.6268C105.508 69.6268 101.289 64.0604 101.289 55.1893C101.289 46.4002 105.707 40.9276 112.375 40.9276C115.398 40.9276 117.754 42.3221 119.57 44.2909L121.972 41.408C119.957 39.158 116.594 37.0369 112.328 37.0369C103.398 37.0369 96.7303 43.951 96.7303 55.3299C96.7303 66.7557 103.304 73.5174 112.035 73.5174ZM137.093 73.5174C143.046 73.5174 148.612 69.158 148.612 61.4237C148.612 53.701 143.866 50.244 138.007 50.244C135.897 50.244 134.304 50.7713 132.768 51.6268L133.636 41.4549L146.936 41.4549L146.936 37.7166L129.792 37.7166L128.69 54.1815L131.046 55.6112C133.061 54.2752 134.55 53.5487 136.905 53.5487C141.323 53.5487 144.194 56.5252 144.194 61.5643C144.194 66.7088 140.843 69.8729 136.706 69.8729C132.628 69.8729 130.085 67.9979 128.069 65.9823L125.913 68.8651C128.257 71.2205 131.62 73.5174 137.093 73.5174ZM163.733 56.2909C159.561 56.2909 157.44 53.2205 157.44 48.4627C157.44 43.6698 160.041 40.494 163.393 40.494C167.905 40.494 170.6 44.3377 171.08 51.5799C168.725 54.9432 166.088 56.2909 163.733 56.2909ZM153.994 69.9198C155.963 71.9823 158.647 73.5174 162.432 73.5174C169.065 73.5174 175.205 68.0448 175.205 53.7948C175.205 42.6034 170.166 37.0369 163.393 37.0369C157.92 37.0369 153.315 41.6541 153.315 48.4627C153.315 55.7635 157.158 59.5487 163.018 59.5487C165.994 59.5487 169.018 57.826 171.127 55.1893C170.787 66.1229 166.85 69.8729 162.291 69.8729C160.041 69.8729 157.873 68.8651 156.385 67.1893L153.994 69.9198ZM182.65 72.8963L187.115 72.8963L187.115 57.0994L200.545 57.0994L200.545 53.3612L187.115 53.3612L187.115 41.4549L202.947 41.4549L202.947 37.7166L182.65 37.7166L182.65 72.8963ZM216.869 73.5174C222.822 73.5174 228.388 69.158 228.388 61.4237C228.388 53.701 223.642 50.244 217.783 50.244C215.673 50.244 214.08 50.7713 212.545 51.6268L213.412 41.4549L226.713 41.4549L226.713 37.7166L209.568 37.7166L208.466 54.1815L210.822 55.6112C212.838 54.2752 214.326 53.5487 216.681 53.5487C221.099 53.5487 223.97 56.5252 223.97 61.5643C223.97 66.7088 220.619 69.8729 216.482 69.8729C212.404 69.8729 209.861 67.9979 207.845 65.9823L205.689 68.8651C208.033 71.2205 211.396 73.5174 216.869 73.5174ZM243.649 73.5174C249.896 73.5174 254.935 69.7791 254.935 63.4862C254.935 58.6932 251.618 55.5174 247.446 54.5565L247.446 54.369C251.185 52.9744 253.739 50.1385 253.739 45.8729C253.739 40.2127 249.415 37.0369 243.509 37.0369C239.431 37.0369 236.314 38.8182 233.665 41.2674L236.021 44.0448C237.989 42.076 240.485 40.6346 243.321 40.5409C246.966 40.6346 249.274 42.8026 249.274 46.2127C249.274 49.9979 246.778 52.9276 239.524 52.9276L239.524 56.2909C247.634 56.2909 250.47 59.1151 250.47 63.3455C250.47 67.3768 247.493 69.8729 243.321 69.8729C239.337 69.8729 236.642 67.9979 234.579 65.8416L232.376 68.7244C234.673 71.2205 238.13 73.5174 243.649 73.5174ZM263.141 59.701L271.157 47.701C272.165 45.9666 273.125 44.244 273.993 42.5096L274.18 42.5096C274.086 44.3377 273.899 47.1737 273.899 48.8963L273.899 59.701L263.141 59.701ZM282.723 59.701L278.071 59.701L278.071 37.7166L273.219 37.7166L258.583 60.3221L258.583 63.2049L273.899 63.2049L273.899 72.8963L278.071 72.8963L278.071 63.2049L282.723 63.2049L282.723 59.701ZM293.766 72.8963L298.324 72.8963C298.851 59.1151 300.387 50.9588 308.648 40.3534L308.648 37.7166L286.617 37.7166L286.617 41.4549L303.656 41.4549C296.789 51.0526 294.34 59.5487 293.766 72.8963Z" fill="#19191A" fill-opacity="1.000000" transform="matrix(1 0 0 1 1913.16 338.926)"/></g><path d="M15 0L314.659 0C322.939 0 329.659 6.72 329.659 15L329.659 94.8774C329.659 103.157 322.939 109.877 314.659 109.877L15 109.877C6.72 109.877 0 103.157 0 94.8774L0 15C0 6.72 6.72 0 15 0Z" fill="#D5FFEC" fill-opacity="1.000000" transform="matrix(1 0 0 1 1913.16 135.007)"/><path d="M15 0L314.659 0C322.939 0 329.659 6.72 329.659 15L329.659 94.8774C329.659 103.157 322.939 109.877 314.659 109.877L15 109.877C6.72 109.877 0 103.157 0 94.8774L0 15C0 6.72 6.72 0 15 0Z" fill="none" stroke="#000000" stroke-opacity="1.000000" stroke-width="2" stroke-dasharray="0 0" transform="matrix(1 0 0 1 1913.16 135.007)"/><clipPath id="clip_7_20_0"><path d="M1919.06 153.903L2234.92 153.903L2234.92 249.988L1919.06 249.988L1919.06 153.903Z"/></clipPath><g clip-path="url(#clip_7_20_0)"><path d="M145.138 49.7166L147.822 49.7166L148.689 40.8338L148.783 35.8885L144.178 35.8885L144.271 40.8338L145.138 49.7166ZM158.002 72.8963L177.818 72.8963L177.818 69.0994L162.467 69.0994L162.467 37.7166L158.002 37.7166L158.002 72.8963ZM179.747 49.7166L182.43 49.7166L183.297 40.8338L183.391 35.8885L178.786 35.8885L178.879 40.8338L179.747 49.7166Z" fill="#19191A" fill-opacity="1.000000" transform="matrix(1 0 0 1 1913.16 135.007)"/></g><path d="M15 0L314.659 0C322.939 0 329.659 6.72 329.659 15L329.659 94.8774C329.659 103.157 322.939 109.877 314.659 109.877L15 109.877C6.72 109.877 0 103.157 0 94.8774L0 15C0 6.72 6.72 0 15 0Z" fill="#F8C4ED" fill-opacity="1.000000" transform="matrix(1 0 0 1 2322.36 338.926)"/><path d="M15 0L314.659 0C322.939 0 329.659 6.72 329.659 15L329.659 94.8774C329.659 103.157 322.939 109.877 314.659 109.877L15 109.877C6.72 109.877 0 103.157 0 94.8774L0 15C0 6.72 6.72 0 15 0Z" fill="none" stroke="#000000" stroke-opacity="1.000000" stroke-width="2" stroke-dasharray="0 0" transform="matrix(1 0 0 1 2322.36 338.926)"/><clipPath id="clip_7_21_0"><path d="M2328.26 357.822L2644.13 357.822L2644.13 453.907L2328.26 453.907L2328.26 357.822Z"/></clipPath><g clip-path="url(#clip_7_21_0)"><path d="M30.1047 73.5174C36.7727 73.5174 41.05 67.4237 41.05 55.1893C41.05 42.9901 36.7727 37.0369 30.1047 37.0369C23.3781 37.0369 19.1125 42.9432 19.1125 55.1893C19.1125 67.4237 23.3781 73.5174 30.1047 73.5174ZM30.1047 70.0135C26.0734 70.0135 23.3781 65.5487 23.3781 55.1893C23.3781 44.9119 26.0734 40.5877 30.1047 40.5877C34.0891 40.5877 36.7727 44.9119 36.7727 55.1893C36.7727 65.5487 34.0891 70.0135 30.1047 70.0135ZM44.1119 72.8963L48.7291 72.8963L52.233 66.8026C53.1354 65.2205 54.0026 63.6268 54.9166 62.1385L55.1627 62.1385C56.1119 63.6268 57.0729 65.2205 57.9401 66.8026L61.7838 72.8963L66.5768 72.8963L57.9869 59.7479L65.9088 46.8338L61.3502 46.8338L58.1276 52.5877C57.3658 54.0291 56.5924 55.4705 55.7838 56.9119L55.5846 56.9119C54.7291 55.4705 53.8151 54.0291 52.9948 52.5877L49.4908 46.8338L44.7916 46.8338L52.7135 59.3143L44.1119 72.8963ZM79.8285 73.5174C85.7816 73.5174 91.348 69.158 91.348 61.4237C91.348 53.701 86.6019 50.244 80.7426 50.244C78.6332 50.244 77.0394 50.7713 75.5043 51.6268L76.3715 41.4549L89.6722 41.4549L89.6722 37.7166L72.5277 37.7166L71.4262 54.1815L73.7816 55.6112C75.7972 54.2752 77.2855 53.5487 79.641 53.5487C84.059 53.5487 86.9301 56.5252 86.9301 61.5643C86.9301 66.7088 83.5785 69.8729 79.4418 69.8729C75.3637 69.8729 72.8207 67.9979 70.8051 65.9823L68.6488 68.8651C70.9926 71.2205 74.3558 73.5174 79.8285 73.5174ZM112.035 73.5174C116.594 73.5174 120.051 71.701 122.84 68.4783L120.39 65.701C118.129 68.1385 115.586 69.6268 112.234 69.6268C105.508 69.6268 101.289 64.0604 101.289 55.1893C101.289 46.4002 105.707 40.9276 112.375 40.9276C115.398 40.9276 117.754 42.3221 119.57 44.2909L121.972 41.408C119.957 39.158 116.594 37.0369 112.328 37.0369C103.398 37.0369 96.7303 43.951 96.7303 55.3299C96.7303 66.7557 103.304 73.5174 112.035 73.5174ZM137.093 73.5174C143.046 73.5174 148.612 69.158 148.612 61.4237C148.612 53.701 143.866 50.244 138.007 50.244C135.897 50.244 134.304 50.7713 132.768 51.6268L133.636 41.4549L146.936 41.4549L146.936 37.7166L129.792 37.7166L128.69 54.1815L131.046 55.6112C133.061 54.2752 134.55 53.5487 136.905 53.5487C141.323 53.5487 144.194 56.5252 144.194 61.5643C144.194 66.7088 140.843 69.8729 136.706 69.8729C132.628 69.8729 130.085 67.9979 128.069 65.9823L125.913 68.8651C128.257 71.2205 131.62 73.5174 137.093 73.5174ZM163.733 56.2909C159.561 56.2909 157.44 53.2205 157.44 48.4627C157.44 43.6698 160.041 40.494 163.393 40.494C167.905 40.494 170.6 44.3377 171.08 51.5799C168.725 54.9432 166.088 56.2909 163.733 56.2909ZM153.994 69.9198C155.963 71.9823 158.647 73.5174 162.432 73.5174C169.065 73.5174 175.205 68.0448 175.205 53.7948C175.205 42.6034 170.166 37.0369 163.393 37.0369C157.92 37.0369 153.315 41.6541 153.315 48.4627C153.315 55.7635 157.158 59.5487 163.018 59.5487C165.994 59.5487 169.018 57.826 171.127 55.1893C170.787 66.1229 166.85 69.8729 162.291 69.8729C160.041 69.8729 157.873 68.8651 156.385 67.1893L153.994 69.9198ZM182.65 72.8963L187.115 72.8963L187.115 57.0994L200.545 57.0994L200.545 53.3612L187.115 53.3612L187.115 41.4549L202.947 41.4549L202.947 37.7166L182.65 37.7166L182.65 72.8963ZM216.869 73.5174C222.822 73.5174 228.388 69.158 228.388 61.4237C228.388 53.701 223.642 50.244 217.783 50.244C215.673 50.244 214.08 50.7713 212.545 51.6268L213.412 41.4549L226.713 41.4549L226.713 37.7166L209.568 37.7166L208.466 54.1815L210.822 55.6112C212.838 54.2752 214.326 53.5487 216.681 53.5487C221.099 53.5487 223.97 56.5252 223.97 61.5643C223.97 66.7088 220.619 69.8729 216.482 69.8729C212.404 69.8729 209.861 67.9979 207.845 65.9823L205.689 68.8651C208.033 71.2205 211.396 73.5174 216.869 73.5174ZM243.649 73.5174C249.896 73.5174 254.935 69.7791 254.935 63.4862C254.935 58.6932 251.618 55.5174 247.446 54.5565L247.446 54.369C251.185 52.9744 253.739 50.1385 253.739 45.8729C253.739 40.2127 249.415 37.0369 243.509 37.0369C239.431 37.0369 236.314 38.8182 233.665 41.2674L236.021 44.0448C237.989 42.076 240.485 40.6346 243.321 40.5409C246.966 40.6346 249.274 42.8026 249.274 46.2127C249.274 49.9979 246.778 52.9276 239.524 52.9276L239.524 56.2909C247.634 56.2909 250.47 59.1151 250.47 63.3455C250.47 67.3768 247.493 69.8729 243.321 69.8729C239.337 69.8729 236.642 67.9979 234.579 65.8416L232.376 68.7244C234.673 71.2205 238.13 73.5174 243.649 73.5174ZM263.141 59.701L271.157 47.701C272.165 45.9666 273.125 44.244 273.993 42.5096L274.18 42.5096C274.086 44.3377 273.899 47.1737 273.899 48.8963L273.899 59.701L263.141 59.701ZM282.723 59.701L278.071 59.701L278.071 37.7166L273.219 37.7166L258.583 60.3221L258.583 63.2049L273.899 63.2049L273.899 72.8963L278.071 72.8963L278.071 63.2049L282.723 63.2049L282.723 59.701ZM297.656 73.5174C304.277 73.5174 308.695 69.533 308.695 64.4002C308.695 59.5955 305.812 56.9588 302.742 55.1893L302.742 54.9432C304.851 53.3143 307.441 50.1385 307.441 46.4471C307.441 41.0213 303.797 37.1893 297.797 37.1893C292.277 37.1893 288.152 40.7401 288.152 46.1073C288.152 49.8104 290.309 52.4471 292.898 54.2284L292.898 54.4627C289.687 56.1971 286.418 59.4549 286.418 64.1658C286.418 69.5799 291.176 73.5174 297.656 73.5174ZM300.059 53.7948C295.922 52.1659 292.137 50.3377 292.137 46.1073C292.137 42.7088 294.48 40.4002 297.703 40.4002C301.488 40.4002 303.703 43.2362 303.703 46.6932C303.703 49.283 302.449 51.6854 300.059 53.7948ZM297.75 70.2596C293.531 70.2596 290.402 67.5174 290.402 63.7791C290.402 60.4159 292.371 57.6268 295.207 55.8104C300.199 57.826 304.523 59.5955 304.523 64.3065C304.523 67.8104 301.781 70.2596 297.75 70.2596Z" fill="#19191A" fill-opacity="1.000000" transform="matrix(1 0 0 1 2322.36 338.926)"/></g><path d="M15 0L314.659 0C322.939 0 329.659 6.72 329.659 15L329.659 94.8774C329.659 103.157 322.939 109.877 314.659 109.877L15 109.877C6.72 109.877 0 103.157 0 94.8774L0 15C0 6.72 6.72 0 15 0Z" fill="#D5FFEC" fill-opacity="1.000000" transform="matrix(1 0 0 1 2322.36 135.007)"/><path d="M15 0L314.659 0C322.939 0 329.659 6.72 329.659 15L329.659 94.8774C329.659 103.157 322.939 109.877 314.659 109.877L15 109.877C6.72 109.877 0 103.157 0 94.8774L0 15C0 6.72 6.72 0 15 0Z" fill="none" stroke="#000000" stroke-opacity="1.000000" stroke-width="2" stroke-dasharray="0 0" transform="matrix(1 0 0 1 2322.36 135.007)"/><clipPath id="clip_7_23_0"><path d="M2328.26 153.903L2644.13 153.903L2644.13 249.988L2328.26 249.988L2328.26 153.903Z"/></clipPath><g clip-path="url(#clip_7_23_0)"><path d="M137.962 49.7166L140.646 49.7166L141.513 40.8338L141.607 35.8885L137.002 35.8885L137.095 40.8338L137.962 49.7166ZM163.834 73.5174C172.658 73.5174 178.857 66.4627 178.857 55.1893C178.857 43.9041 172.658 37.0369 163.834 37.0369C154.998 37.0369 148.81 43.9041 148.81 55.1893C148.81 66.4627 154.998 73.5174 163.834 73.5174ZM163.834 69.6268C157.494 69.6268 153.369 63.9666 153.369 55.1893C153.369 46.3534 157.494 40.9276 163.834 40.9276C170.115 40.9276 174.299 46.3534 174.299 55.1893C174.299 63.9666 170.115 69.6268 163.834 69.6268ZM186.923 49.7166L189.606 49.7166L190.473 40.8338L190.567 35.8885L185.962 35.8885L186.055 40.8338L186.923 49.7166Z" fill="#19191A" fill-opacity="1.000000" transform="matrix(1 0 0 1 2322.36 135.007)"/></g><path d="M15 0L314.659 0C322.939 0 329.659 6.72 329.659 15L329.659 94.8774C329.659 103.157 322.939 109.877 314.659 109.877L15 109.877C6.72 109.877 0 103.157 0 94.8774L0 15C0 6.72 6.72 0 15 0Z" fill="#F8C4ED" fill-opacity="1.000000" transform="matrix(1 0 0 1 2731.57 338.925)"/><path d="M15 0L314.659 0C322.939 0 329.659 6.72 329.659 15L329.659 94.8774C329.659 103.157 322.939 109.877 314.659 109.877L15 109.877C6.72 109.877 0 103.157 0 94.8774L0 15C0 6.72 6.72 0 15 0Z" fill="none" stroke="#000000" stroke-opacity="1.000000" stroke-width="2" stroke-dasharray="0 0" transform="matrix(1 0 0 1 2731.57 338.925)"/><clipPath id="clip_7_24_0"><path d="M2737.46 357.822L3053.33 357.822L3053.33 453.906L2737.46 453.906L2737.46 357.822Z"/></clipPath><g clip-path="url(#clip_7_24_0)"><path d="M30.1047 73.5174C36.7727 73.5174 41.05 67.4237 41.05 55.1893C41.05 42.9901 36.7727 37.0369 30.1047 37.0369C23.3781 37.0369 19.1125 42.9432 19.1125 55.1893C19.1125 67.4237 23.3781 73.5174 30.1047 73.5174ZM30.1047 70.0135C26.0734 70.0135 23.3781 65.5487 23.3781 55.1893C23.3781 44.9119 26.0734 40.5877 30.1047 40.5877C34.0891 40.5877 36.7727 44.9119 36.7727 55.1893C36.7727 65.5487 34.0891 70.0135 30.1047 70.0135ZM44.1119 72.8963L48.7291 72.8963L52.233 66.8026C53.1354 65.2205 54.0026 63.6268 54.9166 62.1385L55.1627 62.1385C56.1119 63.6268 57.0729 65.2205 57.9401 66.8026L61.7838 72.8963L66.5768 72.8963L57.9869 59.7479L65.9088 46.8338L61.3502 46.8338L58.1276 52.5877C57.3658 54.0291 56.5924 55.4705 55.7838 56.9119L55.5846 56.9119C54.7291 55.4705 53.8151 54.0291 52.9948 52.5877L49.4908 46.8338L44.7916 46.8338L52.7135 59.3143L44.1119 72.8963ZM79.8285 73.5174C85.7816 73.5174 91.348 69.158 91.348 61.4237C91.348 53.701 86.6019 50.244 80.7426 50.244C78.6332 50.244 77.0394 50.7713 75.5043 51.6268L76.3715 41.4549L89.6722 41.4549L89.6722 37.7166L72.5277 37.7166L71.4262 54.1815L73.7816 55.6112C75.7972 54.2752 77.2855 53.5487 79.641 53.5487C84.059 53.5487 86.9301 56.5252 86.9301 61.5643C86.9301 66.7088 83.5785 69.8729 79.4418 69.8729C75.3637 69.8729 72.8207 67.9979 70.8051 65.9823L68.6488 68.8651C70.9926 71.2205 74.3558 73.5174 79.8285 73.5174ZM112.035 73.5174C116.594 73.5174 120.051 71.701 122.84 68.4783L120.39 65.701C118.129 68.1385 115.586 69.6268 112.234 69.6268C105.508 69.6268 101.289 64.0604 101.289 55.1893C101.289 46.4002 105.707 40.9276 112.375 40.9276C115.398 40.9276 117.754 42.3221 119.57 44.2909L121.972 41.408C119.957 39.158 116.594 37.0369 112.328 37.0369C103.398 37.0369 96.7303 43.951 96.7303 55.3299C96.7303 66.7557 103.304 73.5174 112.035 73.5174ZM137.093 73.5174C143.046 73.5174 148.612 69.158 148.612 61.4237C148.612 53.701 143.866 50.244 138.007 50.244C135.897 50.244 134.304 50.7713 132.768 51.6268L133.636 41.4549L146.936 41.4549L146.936 37.7166L129.792 37.7166L128.69 54.1815L131.046 55.6112C133.061 54.2752 134.55 53.5487 136.905 53.5487C141.323 53.5487 144.194 56.5252 144.194 61.5643C144.194 66.7088 140.843 69.8729 136.706 69.8729C132.628 69.8729 130.085 67.9979 128.069 65.9823L125.913 68.8651C128.257 71.2205 131.62 73.5174 137.093 73.5174ZM163.733 56.2909C159.561 56.2909 157.44 53.2205 157.44 48.4627C157.44 43.6698 160.041 40.494 163.393 40.494C167.905 40.494 170.6 44.3377 171.08 51.5799C168.725 54.9432 166.088 56.2909 163.733 56.2909ZM153.994 69.9198C155.963 71.9823 158.647 73.5174 162.432 73.5174C169.065 73.5174 175.205 68.0448 175.205 53.7948C175.205 42.6034 170.166 37.0369 163.393 37.0369C157.92 37.0369 153.315 41.6541 153.315 48.4627C153.315 55.7635 157.158 59.5487 163.018 59.5487C165.994 59.5487 169.018 57.826 171.127 55.1893C170.787 66.1229 166.85 69.8729 162.291 69.8729C160.041 69.8729 157.873 68.8651 156.385 67.1893L153.994 69.9198ZM182.65 72.8963L187.115 72.8963L187.115 57.0994L200.545 57.0994L200.545 53.3612L187.115 53.3612L187.115 41.4549L202.947 41.4549L202.947 37.7166L182.65 37.7166L182.65 72.8963ZM216.869 73.5174C222.822 73.5174 228.388 69.158 228.388 61.4237C228.388 53.701 223.642 50.244 217.783 50.244C215.673 50.244 214.08 50.7713 212.545 51.6268L213.412 41.4549L226.713 41.4549L226.713 37.7166L209.568 37.7166L208.466 54.1815L210.822 55.6112C212.838 54.2752 214.326 53.5487 216.681 53.5487C221.099 53.5487 223.97 56.5252 223.97 61.5643C223.97 66.7088 220.619 69.8729 216.482 69.8729C212.404 69.8729 209.861 67.9979 207.845 65.9823L205.689 68.8651C208.033 71.2205 211.396 73.5174 216.869 73.5174ZM243.649 73.5174C249.896 73.5174 254.935 69.7791 254.935 63.4862C254.935 58.6932 251.618 55.5174 247.446 54.5565L247.446 54.369C251.185 52.9744 253.739 50.1385 253.739 45.8729C253.739 40.2127 249.415 37.0369 243.509 37.0369C239.431 37.0369 236.314 38.8182 233.665 41.2674L236.021 44.0448C237.989 42.076 240.485 40.6346 243.321 40.5409C246.966 40.6346 249.274 42.8026 249.274 46.2127C249.274 49.9979 246.778 52.9276 239.524 52.9276L239.524 56.2909C247.634 56.2909 250.47 59.1151 250.47 63.3455C250.47 67.3768 247.493 69.8729 243.321 69.8729C239.337 69.8729 236.642 67.9979 234.579 65.8416L232.376 68.7244C234.673 71.2205 238.13 73.5174 243.649 73.5174ZM263.141 59.701L271.157 47.701C272.165 45.9666 273.125 44.244 273.993 42.5096L274.18 42.5096C274.086 44.3377 273.899 47.1737 273.899 48.8963L273.899 59.701L263.141 59.701ZM282.723 59.701L278.071 59.701L278.071 37.7166L273.219 37.7166L258.583 60.3221L258.583 63.2049L273.899 63.2049L273.899 72.8963L278.071 72.8963L278.071 63.2049L282.723 63.2049L282.723 59.701ZM296.789 56.2909C292.617 56.2909 290.496 53.2205 290.496 48.4627C290.496 43.6698 293.098 40.494 296.449 40.494C300.961 40.494 303.656 44.3377 304.137 51.5799C301.781 54.9432 299.144 56.2909 296.789 56.2909ZM287.051 69.9198C289.019 71.9823 291.703 73.5174 295.488 73.5174C302.121 73.5174 308.262 68.0448 308.262 53.7948C308.262 42.6034 303.223 37.0369 296.449 37.0369C290.976 37.0369 286.371 41.6541 286.371 48.4627C286.371 55.7635 290.215 59.5487 296.074 59.5487C299.051 59.5487 302.074 57.826 304.184 55.1893C303.844 66.1229 299.906 69.8729 295.348 69.8729C293.098 69.8729 290.93 68.8651 289.441 67.1893L287.051 69.9198Z" fill="#19191A" fill-opacity="1.000000" transform="matrix(1 0 0 1 2731.57 338.925)"/></g><path d="M15 0L314.659 0C322.939 0 329.659 6.72 329.659 15L329.659 94.8774C329.659 103.157 322.939 109.877 314.659 109.877L15 109.877C6.72 109.877 0 103.157 0 94.8774L0 15C0 6.72 6.72 0 15 0Z" fill="#D5FFEC" fill-opacity="1.000000" transform="matrix(1 0 0 1 2731.57 135.006)"/><path d="M15 0L314.659 0C322.939 0 329.659 6.72 329.659 15L329.659 94.8774C329.659 103.157 322.939 109.877 314.659 109.877L15 109.877C6.72 109.877 0 103.157 0 94.8774L0 15C0 6.72 6.72 0 15 0Z" fill="none" stroke="#000000" stroke-opacity="1.000000" stroke-width="2" stroke-dasharray="0 0" transform="matrix(1 0 0 1 2731.57 135.006)"/><clipPath id="clip_7_26_0"><path d="M2737.46 153.903L3053.33 153.903L3053.33 249.987L2737.46 249.987L2737.46 153.903Z"/></clipPath><g clip-path="url(#clip_7_26_0)"><path d="M133.042 49.7166L135.726 49.7166L136.593 40.8338L136.687 35.8885L132.082 35.8885L132.175 40.8338L133.042 49.7166ZM156.172 81.4862L159.336 81.4862L144.992 34.8338L141.816 34.8338L156.172 81.4862ZM173.265 73.5174C179.933 73.5174 184.21 67.4237 184.21 55.1893C184.21 42.9901 179.933 37.0369 173.265 37.0369C166.538 37.0369 162.273 42.9432 162.273 55.1893C162.273 67.4237 166.538 73.5174 173.265 73.5174ZM173.265 70.0135C169.234 70.0135 166.538 65.5487 166.538 55.1893C166.538 44.9119 169.234 40.5877 173.265 40.5877C177.249 40.5877 179.933 44.9119 179.933 55.1893C179.933 65.5487 177.249 70.0135 173.265 70.0135ZM191.843 49.7166L194.526 49.7166L195.393 40.8338L195.487 35.8885L190.882 35.8885L190.975 40.8338L191.843 49.7166Z" fill="#19191A" fill-opacity="1.000000" transform="matrix(1 0 0 1 2731.57 135.006)"/></g><path d="M15 0L453.548 0C461.828 0 468.548 6.72 468.548 15L468.548 94.8774C468.548 103.157 461.828 109.877 453.548 109.877L15 109.877C6.72 109.877 0 103.157 0 94.8774L0 15C0 6.72 6.72 0 15 0Z" fill="#E0E0FF" fill-opacity="1.000000" transform="matrix(1 0 0 1 13.3256 135.006)"/><path d="M15 0L453.548 0C461.828 0 468.548 6.72 468.548 15L468.548 94.8774C468.548 103.157 461.828 109.877 453.548 109.877L15 109.877C6.72 109.877 0 103.157 0 94.8774L0 15C0 6.72 6.72 0 15 0Z" fill="none" stroke="#000000" stroke-opacity="1.000000" stroke-width="2" stroke-dasharray="0 0" transform="matrix(1 0 0 1 13.3256 135.006)"/><clipPath id="clip_7_36_0"><path d="M19.2219 153.903L473.977 153.903L473.977 249.987L19.2219 249.987L19.2219 153.903Z"/></clipPath><g clip-path="url(#clip_7_36_0)"><path d="M23.9686 72.8963L29.0545 72.8963L38.3241 46.8338L33.9998 46.8338L29.0545 61.6698C28.2928 64.2127 27.4256 66.8963 26.6522 69.3455L26.4647 69.3455C25.6444 66.8963 24.8358 64.2127 24.0155 61.6698L19.117 46.8338L14.5584 46.8338L23.9686 72.8963ZM48.3074 73.5174C51.5183 73.5174 54.448 71.8416 56.9441 69.7791L57.0847 69.7791L57.4714 72.8963L61.0691 72.8963L61.0691 56.8651C61.0691 50.4315 58.3855 46.1659 52.0456 46.1659C47.8738 46.1659 44.1824 48.0291 41.78 49.5643L43.5027 52.5877C45.5652 51.2049 48.3074 49.8104 51.3308 49.8104C55.5964 49.8104 56.7097 53.0213 56.7097 56.3846C45.612 57.6268 40.6785 60.4627 40.6785 66.1229C40.6785 70.8338 43.9363 73.5174 48.3074 73.5174ZM49.5495 70.0135C46.9597 70.0135 44.9441 68.8182 44.9441 65.8416C44.9441 62.4784 47.9206 60.3221 56.7097 59.2674L56.7097 66.5565C54.1667 68.8182 52.0925 70.0135 49.5495 70.0135ZM73.9849 73.5174C75.1333 73.5174 75.9068 73.3768 76.5279 73.1307L75.9068 69.7791C75.4263 69.8729 75.2388 69.8729 74.9927 69.8729C74.3247 69.8729 73.7505 69.3455 73.7505 67.9979L73.7505 34.6932L69.3794 34.6932L69.3794 67.7166C69.3794 71.408 70.7271 73.5174 73.9849 73.5174ZM90.6415 73.5174C94.2391 73.5174 96.829 71.6541 99.2782 68.8182L99.4305 68.8182L99.7587 72.8963L103.415 72.8963L103.415 46.8338L99.0438 46.8338L99.0438 65.3143C96.5477 68.4315 94.6727 69.7323 91.9891 69.7323C88.5321 69.7323 87.0907 67.6698 87.0907 62.8182L87.0907 46.8338L82.7196 46.8338L82.7196 63.3455C82.7196 69.9666 85.1688 73.5174 90.6415 73.5174ZM122.707 73.5174C126.258 73.5174 129.047 72.3221 131.344 70.8338L129.762 67.951C127.84 69.2518 125.778 70.0135 123.235 70.0135C118.289 70.0135 114.879 66.4627 114.598 60.8963L132.164 60.8963C132.258 60.2752 132.352 59.3612 132.352 58.4002C132.352 50.9588 128.613 46.1659 121.981 46.1659C115.934 46.1659 110.227 51.4393 110.227 59.8885C110.227 68.4783 115.793 73.5174 122.707 73.5174ZM114.551 57.7791C115.078 52.6346 118.336 49.6698 122.039 49.6698C126.117 49.6698 128.508 52.494 128.508 57.7791L114.551 57.7791ZM141.038 54.1815C142.772 54.1815 144.213 52.7869 144.213 50.8651C144.213 48.8494 142.772 47.4549 141.038 47.4549C139.315 47.4549 137.873 48.8494 137.873 50.8651C137.873 52.7869 139.315 54.1815 141.038 54.1815ZM141.038 73.5174C142.772 73.5174 144.213 72.1815 144.213 70.2127C144.213 68.244 142.772 66.8026 141.038 66.8026C139.315 66.8026 137.873 68.244 137.873 70.2127C137.873 72.1815 139.315 73.5174 141.038 73.5174Z" fill="#19191A" fill-opacity="1.000000" transform="matrix(1 0 0 1 13.3256 135.006)"/><path d="M171.813 72.7674Q182.009 72.7674 182.009 55.1893Q182.009 37.7869 171.813 37.7869Q161.571 37.7869 161.571 55.1893Q161.571 72.7674 171.813 72.7674ZM171.813 74.2674Q166.238 74.2674 163.159 69.3386Q160.071 64.3966 160.071 55.1893Q160.071 45.9919 163.161 41.1192Q166.226 36.2869 171.813 36.2869Q177.357 36.2869 180.421 41.138Q183.509 46.028 183.509 55.1893Q183.509 64.3876 180.423 69.338Q177.35 74.2674 171.813 74.2674ZM171.813 70.7635Q164.337 70.7635 164.337 55.1893Q164.337 39.8377 171.813 39.8377Q179.231 39.8377 179.231 55.1893Q179.231 70.7635 171.813 70.7635ZM171.813 69.2635Q177.731 69.2635 177.731 55.1893Q177.731 41.3377 171.813 41.3377Q165.837 41.3377 165.837 55.1893Q165.837 69.2635 171.813 69.2635ZM171.813 70.0135C175.798 70.0135 178.481 65.5487 178.481 55.1893C178.481 44.9119 175.798 40.5877 171.813 40.5877C167.782 40.5877 165.087 44.9119 165.087 55.1893C165.087 65.5487 167.782 70.0135 171.813 70.0135ZM171.813 73.5174C165.087 73.5174 160.821 67.4237 160.821 55.1893C160.821 42.9432 165.087 37.0369 171.813 37.0369C178.481 37.0369 182.759 42.9901 182.759 55.1893C182.759 67.4237 178.481 73.5174 171.813 73.5174ZM185.821 72.1463L190.438 72.1463L190.438 72.8963L189.788 72.5225L193.291 66.4287Q193.544 65.9865 194.045 65.0955Q195.322 62.8266 195.986 61.746L196.206 61.3885L197.283 61.3885L197.504 61.7352Q199.088 64.2186 200.306 66.4421L199.649 66.8026L200.283 66.4024L204.127 72.4962L203.492 72.8963L203.492 72.1463L208.285 72.1463L208.285 72.8963L207.658 73.3065L198.808 59.7605L206.978 46.4417L207.617 46.8338L207.617 47.5838L203.059 47.5838L203.059 46.8338L203.713 47.2003L200.491 52.9542L199.836 52.5877L200.499 52.9381Q199.162 55.4689 198.147 57.2789L197.932 57.6619L196.866 57.6619L196.648 57.2947Q196.321 56.7441 195.648 55.6389Q194.562 53.8554 194.052 52.9587L194.703 52.5877L194.063 52.9778L190.559 47.2239L191.199 46.8338L191.199 47.5838L186.5 47.5838L186.5 46.8338L187.133 46.4319L195.31 59.3138L186.454 73.2976L185.821 72.8963L185.821 72.1463ZM184.458 73.6463L193.788 58.913L194.422 59.3143L193.789 59.7162L185.136 46.0838L191.621 46.0838L195.35 52.2071L195.355 52.2168Q195.854 53.0941 196.929 54.8586Q197.607 55.9712 197.938 56.5292L197.293 56.9119L197.293 56.1619L197.492 56.1619L197.492 56.9119L196.838 56.545Q197.844 54.7516 199.173 52.2373L199.177 52.2292L202.619 46.0838L208.957 46.0838L200.335 60.14L199.696 59.7479L200.323 59.3377L209.671 73.6463L203.079 73.6463L199.002 67.1832L198.991 67.1631Q197.796 64.9832 196.239 62.5418L196.871 62.1385L196.871 62.8885L196.625 62.8885L196.625 62.1385L197.264 62.531Q196.616 63.5873 195.352 65.8314Q194.849 66.7261 194.592 67.1764L190.872 73.6463L185.821 73.6463L184.458 73.6463ZM185.821 72.8963L194.422 59.3143L186.5 46.8338L191.199 46.8338L194.703 52.5877C195.524 54.0291 196.438 55.4705 197.293 56.9119L197.492 56.9119C198.301 55.4705 199.074 54.0291 199.836 52.5877L203.059 46.8338L207.617 46.8338L199.696 59.7479L208.285 72.8963L203.492 72.8963L199.649 66.8026C198.781 65.2205 197.821 63.6268 196.871 62.1385L196.625 62.1385C195.711 63.6268 194.844 65.2205 193.942 66.8026L190.438 72.8963L185.821 72.8963ZM221.537 72.7674Q225.959 72.7674 229.009 69.8307Q232.307 66.6552 232.307 61.4237Q232.307 56.2199 229.434 53.4806Q226.826 50.994 222.451 50.994Q219.889 50.994 217.578 52.2819L216.346 52.9686L217.391 40.7049L231.381 40.7049L231.381 41.4549L230.631 41.4549L230.631 37.7166L231.381 37.7166L231.381 38.4666L214.236 38.4666L214.236 37.7166L214.985 37.7667L213.883 54.2315L213.135 54.1815L213.524 53.5403L215.879 54.97L215.49 55.6112L215.076 54.986Q218.376 52.7987 221.35 52.7987Q225.021 52.7987 227.202 55.1578Q229.389 57.5239 229.389 61.5643Q229.389 65.6252 226.991 68.1629Q224.667 70.6229 221.15 70.6229Q216.094 70.6229 211.983 66.5126L212.514 65.9823L213.114 66.4315L210.958 69.3143L210.357 68.8651L210.889 68.3361Q215.298 72.7674 221.537 72.7674ZM221.537 74.2674Q214.675 74.2674 209.826 69.3941L209.369 68.9347L212.432 64.8396L213.044 65.4519Q216.715 69.1229 221.15 69.1229Q224.02 69.1229 225.901 67.1327Q227.889 65.0286 227.889 61.5643Q227.889 54.2987 221.35 54.2987Q218.828 54.2987 215.905 56.2363L215.508 56.4992L212.356 54.5861L213.535 36.9666L232.131 36.9666L232.131 42.2049L218.08 42.2049L218.08 41.4549L218.827 41.5186L217.96 51.6905L217.213 51.6268L216.848 50.9716Q219.499 49.494 222.451 49.494Q227.426 49.494 230.469 52.395Q233.807 55.5775 233.807 61.4237Q233.807 67.2932 230.05 70.9112Q226.564 74.2674 221.537 74.2674ZM221.537 73.5174C216.064 73.5174 212.701 71.2205 210.357 68.8651L212.514 65.9823C214.529 67.9979 217.072 69.8729 221.15 69.8729C225.287 69.8729 228.639 66.7088 228.639 61.5643C228.639 56.5252 225.768 53.5487 221.35 53.5487C218.994 53.5487 217.506 54.2752 215.49 55.6112L213.135 54.1815L214.236 37.7166L231.381 37.7166L231.381 41.4549L218.08 41.4549L217.213 51.6268C218.748 50.7713 220.342 50.244 222.451 50.244C228.311 50.244 233.057 53.701 233.057 61.4237C233.057 69.158 227.49 73.5174 221.537 73.5174ZM253.744 72.7674Q259.844 72.7674 263.981 67.9875L264.548 68.4783L263.986 68.9744L261.537 66.1971L262.099 65.701L262.649 66.2111Q258.784 70.3768 253.943 70.3768Q248.525 70.3768 245.35 66.1878Q242.247 62.095 242.247 55.1893Q242.247 48.3758 245.45 44.2992Q248.688 40.1776 254.083 40.1776Q258.504 40.1776 261.83 43.7823L261.279 44.2909L260.703 43.8107L263.105 40.9279L263.681 41.408L263.122 41.9085Q259.43 37.7869 254.037 37.7869Q247.537 37.7869 243.451 42.4129Q239.189 47.2382 239.189 55.3299Q239.189 63.4332 243.381 68.2138Q247.374 72.7674 253.744 72.7674ZM253.744 74.2674Q246.695 74.2674 242.253 69.2028Q237.689 63.9977 237.689 55.3299Q237.689 46.6706 242.327 41.4198Q246.861 36.2869 254.037 36.2869Q260.1 36.2869 264.24 40.9076L264.672 41.3903L261.307 45.428L260.728 44.7994Q257.847 41.6776 254.083 41.6776Q249.417 41.6776 246.63 45.2259Q243.747 48.8946 243.747 55.1893Q243.747 61.5908 246.545 65.2816Q249.271 68.8768 253.943 68.8768Q258.129 68.8768 261.549 65.1909L262.113 64.5831L265.544 68.4737L265.115 68.9692Q260.53 74.2674 253.744 74.2674ZM253.744 73.5174C245.013 73.5174 238.439 66.7557 238.439 55.3299C238.439 43.951 245.107 37.0369 254.037 37.0369C258.302 37.0369 261.665 39.158 263.681 41.408L261.279 44.2909C259.462 42.3221 257.107 40.9276 254.083 40.9276C247.415 40.9276 242.997 46.4002 242.997 55.1893C242.997 64.0604 247.216 69.6268 253.943 69.6268C257.294 69.6268 259.837 68.1385 262.099 65.701L264.548 68.4783C261.759 71.701 258.302 73.5174 253.744 73.5174ZM278.801 72.7674Q283.224 72.7674 286.273 69.8307Q289.571 66.6552 289.571 61.4237Q289.571 56.2199 286.698 53.4806Q284.09 50.994 279.715 50.994Q277.153 50.994 274.842 52.2819L273.61 52.9686L274.655 40.7049L288.645 40.7049L288.645 41.4549L287.895 41.4549L287.895 37.7166L288.645 37.7166L288.645 38.4666L271.5 38.4666L271.5 37.7166L272.249 37.7667L271.147 54.2315L270.399 54.1815L270.788 53.5403L273.144 54.97L272.754 55.6112L272.34 54.986Q275.64 52.7987 278.614 52.7987Q282.285 52.7987 284.466 55.1578Q286.653 57.5239 286.653 61.5643Q286.653 65.6252 284.255 68.1629Q281.931 70.6229 278.415 70.6229Q273.358 70.6229 269.247 66.5126L269.778 65.9823L270.378 66.4315L268.222 69.3143L267.622 68.8651L268.153 68.3361Q272.562 72.7674 278.801 72.7674ZM278.801 74.2674Q271.939 74.2674 267.09 69.3941L266.633 68.9347L269.696 64.8396L270.308 65.4519Q273.979 69.1229 278.415 69.1229Q281.284 69.1229 283.165 67.1327Q285.153 65.0286 285.153 61.5643Q285.153 54.2987 278.614 54.2987Q276.092 54.2987 273.169 56.2363L272.772 56.4992L269.62 54.5861L270.799 36.9666L289.395 36.9666L289.395 42.2049L275.344 42.2049L275.344 41.4549L276.091 41.5186L275.224 51.6905L274.477 51.6268L274.112 50.9716Q276.764 49.494 279.715 49.494Q284.69 49.494 287.733 52.395Q291.071 55.5775 291.071 61.4237Q291.071 67.2932 287.314 70.9112Q283.828 74.2674 278.801 74.2674ZM278.801 73.5174C273.329 73.5174 269.965 71.2205 267.622 68.8651L269.778 65.9823C271.793 67.9979 274.336 69.8729 278.415 69.8729C282.551 69.8729 285.903 66.7088 285.903 61.5643C285.903 56.5252 283.032 53.5487 278.614 53.5487C276.258 53.5487 274.77 54.2752 272.754 55.6112L270.399 54.1815L271.5 37.7166L288.645 37.7166L288.645 41.4549L275.344 41.4549L274.477 51.6268C276.012 50.7713 277.606 50.244 279.715 50.244C285.575 50.244 290.321 53.701 290.321 61.4237C290.321 69.158 284.754 73.5174 278.801 73.5174ZM305.441 57.0409Q298.398 57.0409 298.398 48.4627Q298.398 44.6667 300.273 42.2243Q302.177 39.744 305.101 39.744Q312.755 39.744 313.537 51.5303L313.555 51.7938L313.403 52.0102Q309.88 57.0409 305.441 57.0409ZM305.441 55.5409Q309.099 55.5409 312.175 51.1497L312.789 51.5799L312.041 51.6296Q311.352 41.244 305.101 41.244Q302.917 41.244 301.463 43.1377Q299.898 45.176 299.898 48.4627Q299.898 55.5409 305.441 55.5409ZM296.246 69.4019Q299.458 72.7674 304.141 72.7674Q309.248 72.7674 312.415 68.5496Q316.164 63.5553 316.164 53.7948Q316.164 45.9298 312.949 41.6709Q310.017 37.787 305.101 37.7869Q301.232 37.7869 298.563 40.703Q295.773 43.7513 295.773 48.4627Q295.773 58.7987 304.726 58.7987Q308.988 58.7987 312.25 54.7208L313.655 52.9643L313.585 55.2126Q313.106 70.6229 304 70.6229Q300.14 70.6229 297.533 67.6873L298.094 67.1893L298.658 67.6833L296.267 70.4138L295.703 69.9198L296.246 69.4019ZM294.687 69.9416L298.09 66.0553L298.654 66.6913Q300.814 69.1229 304 69.1229Q311.652 69.1229 312.086 55.166L312.836 55.1893L313.421 55.6578Q309.709 60.2987 304.726 60.2987Q299.902 60.2987 297.123 57.2486Q294.273 54.1201 294.273 48.4627Q294.273 43.1685 297.457 39.6902Q300.572 36.2869 305.101 36.2869Q310.764 36.2869 314.146 40.7672Q317.664 45.4272 317.664 53.7948Q317.664 64.0556 313.614 69.4501Q309.998 74.2674 304.141 74.2674Q298.816 74.2674 295.16 70.4376L294.687 69.9416ZM295.703 69.9198L298.094 67.1893C299.582 68.8651 301.75 69.8729 304 69.8729C308.559 69.8729 312.496 66.1229 312.836 55.1893C310.726 57.826 307.703 59.5487 304.726 59.5487C298.867 59.5487 295.023 55.7635 295.023 48.4627C295.023 41.6541 299.629 37.0369 305.101 37.0369C311.875 37.0369 316.914 42.6034 316.914 53.7948C316.914 68.0448 310.773 73.5174 304.141 73.5174C300.355 73.5174 297.672 71.9823 295.703 69.9198ZM305.441 56.2909C307.797 56.2909 310.434 54.9432 312.789 51.5799C312.309 44.3377 309.613 40.494 305.101 40.494C301.75 40.494 299.148 43.6698 299.148 48.4627C299.148 53.2205 301.269 56.2909 305.441 56.2909ZM324.359 72.1463L328.824 72.1463L328.824 72.8963L328.074 72.8963L328.074 56.3494L342.253 56.3494L342.253 57.0994L341.503 57.0994L341.503 53.3612L342.253 53.3612L342.253 54.1112L328.074 54.1112L328.074 40.7049L344.656 40.7049L344.656 41.4549L343.906 41.4549L343.906 37.7166L344.656 37.7166L344.656 38.4666L324.359 38.4666L324.359 37.7166L325.109 37.7166L325.109 72.8963L324.359 72.8963L324.359 72.1463ZM323.609 73.6463L323.609 36.9666L345.406 36.9666L345.406 42.2049L328.824 42.2049L328.824 41.4549L329.574 41.4549L329.574 53.3612L328.824 53.3612L328.824 52.6112L343.003 52.6112L343.003 57.8494L328.824 57.8494L328.824 57.0994L329.574 57.0994L329.574 73.6463L324.359 73.6463L323.609 73.6463ZM324.359 72.8963L324.359 37.7166L344.656 37.7166L344.656 41.4549L328.824 41.4549L328.824 53.3612L342.253 53.3612L342.253 57.0994L328.824 57.0994L328.824 72.8963L324.359 72.8963ZM358.577 72.7674Q363 72.7674 366.049 69.8307Q369.347 66.6552 369.347 61.4237Q369.347 56.2199 366.474 53.4806Q363.866 50.994 359.491 50.994Q356.93 50.994 354.618 52.2819L353.386 52.9686L354.432 40.7049L368.421 40.7049L368.421 41.4549L367.671 41.4549L367.671 37.7166L368.421 37.7166L368.421 38.4666L351.277 38.4666L351.277 37.7166L352.025 37.7667L350.923 54.2315L350.175 54.1815L350.564 53.5403L352.92 54.97L352.531 55.6112L352.116 54.986Q355.416 52.7987 358.39 52.7987Q362.061 52.7987 364.242 55.1578Q366.429 57.5239 366.429 61.5643Q366.429 65.6252 364.031 68.1629Q361.707 70.6229 358.191 70.6229Q353.134 70.6229 349.024 66.5126L349.554 65.9823L350.155 66.4315L347.998 69.3143L347.398 68.8651L347.929 68.3361Q352.339 72.7674 358.577 72.7674ZM358.577 74.2674Q351.715 74.2674 346.866 69.3941L346.409 68.9347L349.472 64.8396L350.084 65.4519Q353.755 69.1229 358.191 69.1229Q361.061 69.1229 362.941 67.1327Q364.929 65.0286 364.929 61.5643Q364.929 54.2987 358.39 54.2987Q355.868 54.2987 352.945 56.2363L352.548 56.4992L349.396 54.5861L350.575 36.9666L369.171 36.9666L369.171 42.2049L355.12 42.2049L355.12 41.4549L355.868 41.5186L355 51.6905L354.253 51.6268L353.888 50.9716Q356.54 49.494 359.491 49.494Q364.466 49.494 367.509 52.395Q370.847 55.5775 370.847 61.4237Q370.847 67.2932 367.09 70.9112Q363.605 74.2674 358.577 74.2674ZM358.577 73.5174C353.105 73.5174 349.741 71.2205 347.398 68.8651L349.554 65.9823C351.57 67.9979 354.113 69.8729 358.191 69.8729C362.327 69.8729 365.679 66.7088 365.679 61.5643C365.679 56.5252 362.808 53.5487 358.39 53.5487C356.034 53.5487 354.546 54.2752 352.531 55.6112L350.175 54.1815L351.277 37.7166L368.421 37.7166L368.421 41.4549L355.12 41.4549L354.253 51.6268C355.788 50.7713 357.382 50.244 359.491 50.244C365.351 50.244 370.097 53.701 370.097 61.4237C370.097 69.158 364.531 73.5174 358.577 73.5174ZM385.358 72.7674Q389.92 72.7674 392.859 70.2884Q395.893 67.7293 395.893 63.4862Q395.893 56.8782 388.987 55.2873L388.405 55.1534L388.405 53.8483L388.893 53.6663Q394.698 51.5007 394.698 45.8729Q394.698 42.0795 392.07 39.9108Q389.497 37.7869 385.217 37.7869Q380.242 37.7869 375.883 41.8181L375.374 41.2674L375.946 40.7823L378.301 43.5597L377.729 44.0448L377.199 43.5144Q380.782 39.9308 385.005 39.7913L385.027 39.7905L385.049 39.7911Q388.077 39.869 389.889 41.5891Q391.733 43.3386 391.733 46.2127Q391.733 53.6776 381.233 53.6776L381.233 52.9276L381.983 52.9276L381.983 56.2909L381.233 56.2909L381.233 55.5409Q392.928 55.5409 392.928 63.3455Q392.928 66.666 390.668 68.6808Q388.488 70.6229 385.03 70.6229Q379.823 70.6229 375.746 66.36L376.288 65.8416L376.884 66.297L374.681 69.1799L374.085 68.7244L374.637 68.2166Q378.824 72.7674 385.358 72.7674ZM385.358 74.2674Q378.166 74.2674 373.533 69.2323L373.107 68.7691L376.224 64.6899L376.83 65.3232Q380.464 69.1229 385.03 69.1229Q387.917 69.1229 389.67 67.561Q391.428 65.9936 391.428 63.3455Q391.428 57.0409 381.233 57.0409L380.483 57.0409L380.483 52.1776L381.233 52.1776Q390.233 52.1776 390.233 46.2127Q390.233 41.4249 385.011 41.2906L385.03 40.5409L385.055 41.2904Q381.424 41.4105 378.26 44.5751L377.684 45.1508L374.337 41.2046L374.865 40.7168Q379.655 36.2869 385.217 36.2869Q390.036 36.2869 393.025 38.7539Q396.198 41.3725 396.198 45.8729Q396.198 52.5421 389.417 55.0717L389.155 54.369L389.905 54.369L389.905 54.5565L389.155 54.5565L389.323 53.8256Q392.836 54.6348 395.023 57.0849Q397.393 59.7404 397.393 63.4862Q397.393 68.4264 393.827 71.4349Q390.469 74.2674 385.358 74.2674ZM385.358 73.5174C379.839 73.5174 376.382 71.2205 374.085 68.7244L376.288 65.8416C378.35 67.9979 381.046 69.8729 385.03 69.8729C389.202 69.8729 392.178 67.3768 392.178 63.3455C392.178 59.1151 389.342 56.2909 381.233 56.2909L381.233 52.9276C388.487 52.9276 390.983 49.9979 390.983 46.2127C390.983 42.8026 388.674 40.6346 385.03 40.5409C382.194 40.6346 379.698 42.076 377.729 44.0448L375.374 41.2674C378.022 38.8182 381.139 37.0369 385.217 37.0369C391.124 37.0369 395.448 40.2127 395.448 45.8729C395.448 50.1385 392.893 52.9744 389.155 54.369L389.155 54.5565C393.327 55.5174 396.643 58.6932 396.643 63.4862C396.643 69.7791 391.604 73.5174 385.358 73.5174ZM404.226 59.2844L412.242 47.2844L412.865 47.701L412.217 47.3242Q413.927 44.3816 415.03 42.1742L415.238 41.7596L416.678 41.7596L416.638 42.548Q416.616 42.9699 416.562 43.9454Q416.358 47.5904 416.358 48.8963L416.358 60.451L403.447 60.451L404.226 59.2844ZM405.473 60.1176L404.85 59.701L404.85 58.951L415.608 58.951L415.608 59.701L414.858 59.701L414.858 48.8963Q414.858 47.5484 415.064 43.8615Q415.118 42.8894 415.14 42.4712L415.889 42.5096L415.889 43.2596L415.701 43.2596L415.701 42.5096L416.372 42.845Q415.247 45.0946 413.514 48.0778L413.502 48.0981L405.473 60.1176ZM424.432 60.451L419.029 60.451L419.029 37.7166L419.779 37.7166L419.779 38.4666L414.928 38.4666L414.928 37.7166L415.557 38.1243L400.921 60.7297L400.291 60.3221L401.041 60.3221L401.041 63.2049L400.291 63.2049L400.291 62.4549L416.358 62.4549L416.358 72.8963L415.608 72.8963L415.608 72.1463L419.779 72.1463L419.779 72.8963L419.029 72.8963L419.029 62.4549L424.432 62.4549L424.432 63.2049L423.682 63.2049L423.682 59.701L424.432 59.701L424.432 60.451ZM425.182 58.951L425.182 63.9549L419.779 63.9549L419.779 63.2049L420.529 63.2049L420.529 73.6463L414.858 73.6463L414.858 63.2049L415.608 63.2049L415.608 63.9549L399.541 63.9549L399.541 60.1005L414.52 36.9666L420.529 36.9666L420.529 59.701L419.779 59.701L419.779 58.951L424.432 58.951L425.182 58.951ZM424.432 59.701L424.432 63.2049L419.779 63.2049L419.779 72.8963L415.608 72.8963L415.608 63.2049L400.291 63.2049L400.291 60.3221L414.928 37.7166L419.779 37.7166L419.779 59.701L424.432 59.701ZM404.85 59.701L415.608 59.701L415.608 48.8963C415.608 47.1737 415.795 44.3377 415.889 42.5096L415.701 42.5096C414.834 44.244 413.873 45.9666 412.865 47.701L404.85 59.701ZM430.866 59.2844L438.882 47.2844L439.505 47.701L438.857 47.3242Q440.567 44.3816 441.671 42.1742L441.878 41.7596L443.318 41.7596L443.278 42.548Q443.256 42.9699 443.202 43.9454Q442.998 47.5904 442.998 48.8963L442.998 60.451L430.087 60.451L430.866 59.2844ZM432.113 60.1176L431.49 59.701L431.49 58.951L442.248 58.951L442.248 59.701L441.498 59.701L441.498 48.8963Q441.498 47.5484 441.704 43.8615Q441.758 42.8894 441.78 42.4712L442.529 42.5096L442.529 43.2596L442.341 43.2596L442.341 42.5096L443.012 42.845Q441.887 45.0946 440.154 48.0778L440.142 48.0981L432.113 60.1176ZM451.072 60.451L445.669 60.451L445.669 37.7166L446.419 37.7166L446.419 38.4666L441.568 38.4666L441.568 37.7166L442.197 38.1243L427.561 60.7297L426.931 60.3221L427.681 60.3221L427.681 63.2049L426.931 63.2049L426.931 62.4549L442.998 62.4549L442.998 72.8963L442.248 72.8963L442.248 72.1463L446.419 72.1463L446.419 72.8963L445.669 72.8963L445.669 62.4549L451.072 62.4549L451.072 63.2049L450.322 63.2049L450.322 59.701L451.072 59.701L451.072 60.451ZM451.822 58.951L451.822 63.9549L446.419 63.9549L446.419 63.2049L447.169 63.2049L447.169 73.6463L441.498 73.6463L441.498 63.2049L442.248 63.2049L442.248 63.9549L426.181 63.9549L426.181 60.1005L441.16 36.9666L447.169 36.9666L447.169 59.701L446.419 59.701L446.419 58.951L451.072 58.951L451.822 58.951ZM451.072 59.701L451.072 63.2049L446.419 63.2049L446.419 72.8963L442.248 72.8963L442.248 63.2049L426.931 63.2049L426.931 60.3221L441.568 37.7166L446.419 37.7166L446.419 59.701L451.072 59.701ZM431.49 59.701L442.248 59.701L442.248 48.8963C442.248 47.1737 442.435 44.3377 442.529 42.5096L442.341 42.5096C441.474 44.244 440.513 45.9666 439.505 47.701L431.49 59.701Z" fill="#19191A" fill-opacity="1.000000" transform="matrix(1 0 0 1 13.3256 135.006)"/></g><path d="M14.6836 54.6211C17.8125 54.6211 20.7891 53.4258 23.0859 51.3164L21.2109 48.3867C19.582 49.875 17.4727 50.9766 15.0703 50.9766C10.2773 50.9766 7.00781 46.9922 7.00781 40.9922C7.00781 34.9922 10.4648 30.9141 15.1641 30.9141C17.2852 30.9141 18.8672 31.875 20.4023 33.2695L22.6523 30.3398C20.7891 28.6992 18.4336 27.2695 15.0234 27.2695C8.35547 27.2695 2.44922 32.3086 2.44922 40.9922C2.44922 49.6289 7.78125 54.6211 14.6836 54.6211ZM28.85 54L33.2211 54L33.2211 35.0859C35.8578 32.4492 37.6742 31.1016 40.3696 31.1016C43.8266 31.1016 45.3149 33.1641 45.3149 38.0625L45.3149 54L49.6742 54L49.6742 37.4883C49.6742 30.8203 47.1899 27.2695 41.7172 27.2695C38.1547 27.2695 35.4711 29.2266 33.0688 31.6289L33.2211 26.2617L33.2211 15.7969L28.85 15.7969L28.85 54ZM63.9861 54.6211C67.197 54.6211 70.1267 52.9453 72.6228 50.8828L72.7634 50.8828L73.1501 54L76.7478 54L76.7478 37.9688C76.7478 31.5352 74.0642 27.2695 67.7244 27.2695C63.5525 27.2695 59.8611 29.1328 57.4587 30.668L59.1814 33.6914C61.2439 32.3086 63.9861 30.9141 67.0095 30.9141C71.2751 30.9141 72.3884 34.125 72.3884 37.4883C61.2908 38.7305 56.3572 41.5664 56.3572 47.2266C56.3572 51.9375 59.615 54.6211 63.9861 54.6211ZM65.2283 51.1172C62.6384 51.1172 60.6228 49.9219 60.6228 46.9453C60.6228 43.582 63.5994 41.4258 72.3884 40.3711L72.3884 47.6602C69.8455 49.9219 67.7712 51.1172 65.2283 51.1172ZM85.0581 54L89.4292 54L89.4292 37.2422C91.1519 32.7891 93.8355 31.2422 96.0034 31.2422C97.0581 31.2422 97.6792 31.3477 98.5464 31.6758L99.355 27.8438C98.5464 27.4102 97.7261 27.2695 96.5777 27.2695C93.648 27.2695 91.0113 29.3789 89.1831 32.6836L89.0425 32.6836L88.6558 27.9375L85.0581 27.9375L85.0581 54ZM106.659 31.3945L110.444 26.8359L114.241 31.3945L116.35 29.8594L113.28 24.8672L118.506 22.6992L117.698 20.2617L112.225 21.5508L111.745 15.7969L109.155 15.7969L108.674 21.5977L103.202 20.2617L102.335 22.6992L107.573 24.8672L104.549 29.8594L106.659 31.3945ZM136.85 64.9922L141.221 64.9922L141.221 56.1562L141.116 51.5977C143.471 53.5195 145.967 54.6211 148.323 54.6211C154.323 54.6211 159.643 49.4883 159.643 40.5586C159.643 32.543 155.999 27.2695 149.284 27.2695C146.26 27.2695 143.331 28.9922 140.975 30.9141L140.835 30.9141L140.448 27.9375L136.85 27.9375L136.85 64.9922ZM147.596 50.9766C145.874 50.9766 143.565 50.2617 141.221 48.2344L141.221 34.5586C143.764 32.2031 146.014 30.9609 148.229 30.9609C153.163 30.9609 155.085 34.8516 155.085 40.6055C155.085 47.0859 151.921 50.9766 147.596 50.9766Z" fill="#19191A" fill-opacity="1.000000" transform="matrix(1 0 0 1 165.303 7.58868)"/><path d="M203.674 203.919L193.282 197.919L193.282 209.919L203.674 203.919Z" transform="matrix(1 0 0 1 481.873 189.945)" fill="#19191A" fill-opacity="1.000000" stroke="none"/><path d="M0 0C175.866 0 29.2162 199.263 197.675 203.839" fill="none" stroke="#19191A" stroke-opacity="1.000000" stroke-width="2" stroke-linejoin="round" stroke-dasharray="0 0" transform="matrix(1 0 0 1 481.873 189.945)"/></svg>