<svg xmlns="http://www.w3.org/2000/svg" xmlns:xlink="http://www.w3.org/1999/xlink" width="108.765610" height="288.765564" viewBox="0 0 108.766 288.766"><path d="M84 42C84 65.196 65.196 84 42 84C18.804 84 0 65.196 0 42C0 18.804 18.804 0 42 0C65.196 0 84 18.804 84 42" fill="#A3D16E" fill-opacity="1.000000" transform="matrix(1 0 0 1 12.3828 12.3828)"/><path d="M84 42C84 65.196 65.196 84 42 84C18.804 84 0 65.196 0 42C0 18.804 18.804 0 42 0C65.196 0 84 18.804 84 42" fill="none" stroke="#000000" stroke-opacity="1.000000" stroke-width="2" stroke-dasharray="0 0" transform="matrix(1 0 0 1 12.3828 12.3828)"/><clipPath id="clip_1_2_0"><path d="M24.3828 26.3828L84.3828 26.3828L84.3828 86.3828L24.3828 86.3828L24.3828 26.3828Z"/></clipPath><g clip-path="url(#clip_1_2_0)"><path d="M33.7775 55L42.1974 55C48.1037 55 52.2082 52.4424 52.2082 47.2568C52.2082 43.6621 49.9758 41.5703 46.8029 40.9639L46.8029 40.7793C49.2902 39.9883 50.6965 37.6855 50.6965 35.0576C50.6965 30.4082 46.9875 28.6152 41.6261 28.6152L33.7775 28.6152L33.7775 55ZM37.1261 39.8477L37.1261 31.2432L41.1867 31.2432C45.2912 31.2432 47.4181 32.3945 47.4181 35.4883C47.4181 38.1514 45.5812 39.8477 41.0461 39.8477L37.1261 39.8477ZM37.1261 52.3369L37.1261 42.3965L41.7316 42.3965C46.3371 42.3965 48.9299 43.873 48.9299 47.1514C48.9299 50.7197 46.2668 52.3369 41.7316 52.3369L37.1261 52.3369Z" fill="#19191A" fill-opacity="1.000000" transform="matrix(1 0 0 1 12.3828 12.3828)"/></g><path d="M84 42C84 65.196 65.196 84 42 84C18.804 84 0 65.196 0 42C0 18.804 18.804 0 42 0C65.196 0 84 18.804 84 42" fill="#A3D16E" fill-opacity="1.000000" transform="matrix(1 0 0 1 12.3828 192.383)"/><path d="M84 42C84 65.196 65.196 84 42 84C18.804 84 0 65.196 0 42C0 18.804 18.804 0 42 0C65.196 0 84 18.804 84 42" fill="none" stroke="#000000" stroke-opacity="1.000000" stroke-width="2" stroke-dasharray="0 0" transform="matrix(1 0 0 1 12.3828 192.383)"/><clipPath id="clip_1_3_0"><path d="M24.3828 206.383L84.3828 206.383L84.3828 266.383L24.3828 266.383L24.3828 206.383Z"/></clipPath><g clip-path="url(#clip_1_3_0)"><path d="M37.947 44.2686L39.2478 40.2432C40.1795 37.2549 41.0496 34.4072 41.8758 31.3135L42.0164 31.3135C42.8777 34.3721 43.7127 37.2549 44.6795 40.2432L45.9451 44.2686L37.947 44.2686ZM49.2937 55L52.8181 55L43.8533 28.6152L40.1443 28.6152L31.1795 55L34.5633 55L37.1209 46.9316L46.7713 46.9316L49.2937 55Z" fill="#19191A" fill-opacity="1.000000" transform="matrix(1 0 0 1 12.3828 192.383)"/></g><path d="M0 -94L-6 -83.608L6 -83.608L0 -94Z" transform="matrix(1 0 0 1 54.3828 192.383)" fill="#19191A" fill-opacity="1.000000" stroke="none"/><path d="M0 0L0 -88" fill="none" stroke="#19191A" stroke-opacity="1.000000" stroke-width="2" stroke-linejoin="round" stroke-dasharray="0 0" transform="matrix(1 0 0 1 54.3828 192.383)"/></svg>