<svg xmlns="http://www.w3.org/2000/svg" xmlns:xlink="http://www.w3.org/1999/xlink" width="1141.263306" height="456.583130" viewBox="0 0 1141.26 456.583"><path d="M15 0L145.325 0C153.605 0 160.325 6.72 160.325 15L160.325 145.544C160.325 153.824 153.605 160.544 145.325 160.544L15 160.544C6.72 160.544 0 153.824 0 145.544L0 15C0 6.72 6.72 0 15 0Z" fill="#C4D9FD" fill-opacity="1.000000" transform="matrix(1 0 0 1 12.9889 12.9889)"/><path d="M15 0L145.325 0C153.605 0 160.325 6.72 160.325 15L160.325 145.544C160.325 153.824 153.605 160.544 145.325 160.544L15 160.544C6.72 160.544 0 153.824 0 145.544L0 15C0 6.72 6.72 0 15 0Z" fill="none" stroke="#000000" stroke-opacity="1.000000" stroke-width="2" stroke-dasharray="0 0" transform="matrix(1 0 0 1 12.9889 12.9889)"/><clipPath id="clip_5_94_0"><path d="M20.3986 56.3987L163.905 56.3987L163.905 200.123L20.3986 200.123L20.3986 56.3987Z"/></clipPath><g clip-path="url(#clip_5_94_0)"><path d="M79.1903 98.0309C85.8583 98.0309 90.1357 91.9371 90.1357 79.7027C90.1357 67.5035 85.8583 61.5504 79.1903 61.5504C72.4638 61.5504 68.1982 67.4566 68.1982 79.7027C68.1982 91.9371 72.4638 98.0309 79.1903 98.0309ZM79.1903 94.5269C75.1591 94.5269 72.4638 90.0621 72.4638 79.7027C72.4638 69.4254 75.1591 65.1012 79.1903 65.1012C83.1747 65.1012 85.8583 69.4254 85.8583 79.7027C85.8583 90.0621 83.1747 94.5269 79.1903 94.5269Z" fill="#19191A" fill-opacity="1.000000" transform="matrix(1 0 0 1 12.9889 12.9889)"/></g><path d="M15 0L145.325 0C153.605 0 160.325 6.72 160.325 15L160.325 145.544C160.325 153.824 153.605 160.544 145.325 160.544L15 160.544C6.72 160.544 0 153.824 0 145.544L0 15C0 6.72 6.72 0 15 0Z" fill="#C4D9FD" fill-opacity="1.000000" transform="matrix(1 0 0 1 199.981 12.9889)"/><path d="M15 0L145.325 0C153.605 0 160.325 6.72 160.325 15L160.325 145.544C160.325 153.824 153.605 160.544 145.325 160.544L15 160.544C6.72 160.544 0 153.824 0 145.544L0 15C0 6.72 6.72 0 15 0Z" fill="none" stroke="#000000" stroke-opacity="1.000000" stroke-width="2" stroke-dasharray="0 0" transform="matrix(1 0 0 1 199.981 12.9889)"/><clipPath id="clip_5_100_0"><path d="M207.391 56.3987L350.897 56.3987L350.897 200.123L207.391 200.123L207.391 56.3987Z"/></clipPath><g clip-path="url(#clip_5_100_0)"><path d="M79.1903 98.0309C85.8583 98.0309 90.1357 91.9371 90.1357 79.7027C90.1357 67.5035 85.8583 61.5504 79.1903 61.5504C72.4638 61.5504 68.1982 67.4566 68.1982 79.7027C68.1982 91.9371 72.4638 98.0309 79.1903 98.0309ZM79.1903 94.5269C75.1591 94.5269 72.4638 90.0621 72.4638 79.7027C72.4638 69.4254 75.1591 65.1012 79.1903 65.1012C83.1747 65.1012 85.8583 69.4254 85.8583 79.7027C85.8583 90.0621 83.1747 94.5269 79.1903 94.5269Z" fill="#19191A" fill-opacity="1.000000" transform="matrix(1 0 0 1 199.981 12.9889)"/></g><path d="M15 0L145.325 0C153.605 0 160.325 6.72 160.325 15L160.325 145.544C160.325 153.824 153.605 160.544 145.325 160.544L15 160.544C6.72 160.544 0 153.824 0 145.544L0 15C0 6.72 6.72 0 15 0Z" fill="#C4D9FD" fill-opacity="1.000000" transform="matrix(1 0 0 1 391.973 12.9889)"/><path d="M15 0L145.325 0C153.605 0 160.325 6.72 160.325 15L160.325 145.544C160.325 153.824 153.605 160.544 145.325 160.544L15 160.544C6.72 160.544 0 153.824 0 145.544L0 15C0 6.72 6.72 0 15 0Z" fill="none" stroke="#000000" stroke-opacity="1.000000" stroke-width="2" stroke-dasharray="0 0" transform="matrix(1 0 0 1 391.973 12.9889)"/><clipPath id="clip_5_101_0"><path d="M399.383 56.3987L542.889 56.3987L542.889 200.123L399.383 200.123L399.383 56.3987Z"/></clipPath><g clip-path="url(#clip_5_101_0)"><path d="M79.1903 98.0309C85.8583 98.0309 90.1357 91.9371 90.1357 79.7027C90.1357 67.5035 85.8583 61.5504 79.1903 61.5504C72.4638 61.5504 68.1982 67.4566 68.1982 79.7027C68.1982 91.9371 72.4638 98.0309 79.1903 98.0309ZM79.1903 94.5269C75.1591 94.5269 72.4638 90.0621 72.4638 79.7027C72.4638 69.4254 75.1591 65.1012 79.1903 65.1012C83.1747 65.1012 85.8583 69.4254 85.8583 79.7027C85.8583 90.0621 83.1747 94.5269 79.1903 94.5269Z" fill="#19191A" fill-opacity="1.000000" transform="matrix(1 0 0 1 391.973 12.9889)"/></g><path d="M15 0L145.325 0C153.605 0 160.325 6.72 160.325 15L160.325 145.544C160.325 153.824 153.605 160.544 145.325 160.544L15 160.544C6.72 160.544 0 153.824 0 145.544L0 15C0 6.72 6.72 0 15 0Z" fill="#C4D9FD" fill-opacity="1.000000" transform="matrix(1 0 0 1 583.965 12.9889)"/><path d="M15 0L145.325 0C153.605 0 160.325 6.72 160.325 15L160.325 145.544C160.325 153.824 153.605 160.544 145.325 160.544L15 160.544C6.72 160.544 0 153.824 0 145.544L0 15C0 6.72 6.72 0 15 0Z" fill="none" stroke="#000000" stroke-opacity="1.000000" stroke-width="2" stroke-dasharray="0 0" transform="matrix(1 0 0 1 583.965 12.9889)"/><clipPath id="clip_5_102_0"><path d="M591.375 56.3987L734.881 56.3987L734.881 200.123L591.375 200.123L591.375 56.3987Z"/></clipPath><g clip-path="url(#clip_5_102_0)"><path d="M79.1903 98.0309C85.8583 98.0309 90.1357 91.9371 90.1357 79.7027C90.1357 67.5035 85.8583 61.5504 79.1903 61.5504C72.4638 61.5504 68.1982 67.4566 68.1982 79.7027C68.1982 91.9371 72.4638 98.0309 79.1903 98.0309ZM79.1903 94.5269C75.1591 94.5269 72.4638 90.0621 72.4638 79.7027C72.4638 69.4254 75.1591 65.1012 79.1903 65.1012C83.1747 65.1012 85.8583 69.4254 85.8583 79.7027C85.8583 90.0621 83.1747 94.5269 79.1903 94.5269Z" fill="#19191A" fill-opacity="1.000000" transform="matrix(1 0 0 1 583.965 12.9889)"/></g><path d="M15 0L145.325 0C153.605 0 160.325 6.72 160.325 15L160.325 145.544C160.325 153.824 153.605 160.544 145.325 160.544L15 160.544C6.72 160.544 0 153.824 0 145.544L0 15C0 6.72 6.72 0 15 0Z" fill="#F8C4ED" fill-opacity="1.000000" transform="matrix(1 0 0 1 775.957 12.9889)"/><path d="M15 0L145.325 0C153.605 0 160.325 6.72 160.325 15L160.325 145.544C160.325 153.824 153.605 160.544 145.325 160.544L15 160.544C6.72 160.544 0 153.824 0 145.544L0 15C0 6.72 6.72 0 15 0Z" fill="none" stroke="#000000" stroke-opacity="1.000000" stroke-width="2" stroke-dasharray="0 0" transform="matrix(1 0 0 1 775.957 12.9889)"/><clipPath id="clip_5_103_0"><path d="M783.367 56.3987L926.873 56.3987L926.873 200.123L783.367 200.123L783.367 56.3987Z"/></clipPath><g clip-path="url(#clip_5_103_0)"><path d="M70.0614 97.4098L89.3622 97.4098L89.3622 93.7652L82.3075 93.7652L82.3075 62.2301L78.9442 62.2301C77.0224 63.3316 74.7724 64.1402 71.6552 64.7262L71.6552 67.5035L77.8896 67.5035L77.8896 93.7652L70.0614 93.7652L70.0614 97.4098Z" fill="#19191A" fill-opacity="1.000000" transform="matrix(1 0 0 1 775.957 12.9889)"/></g><path d="M15 0L145.325 0C153.605 0 160.325 6.72 160.325 15L160.325 145.544C160.325 153.824 153.605 160.544 145.325 160.544L15 160.544C6.72 160.544 0 153.824 0 145.544L0 15C0 6.72 6.72 0 15 0Z" fill="#F8C4ED" fill-opacity="1.000000" transform="matrix(1 0 0 1 967.949 12.9889)"/><path d="M15 0L145.325 0C153.605 0 160.325 6.72 160.325 15L160.325 145.544C160.325 153.824 153.605 160.544 145.325 160.544L15 160.544C6.72 160.544 0 153.824 0 145.544L0 15C0 6.72 6.72 0 15 0Z" fill="none" stroke="#000000" stroke-opacity="1.000000" stroke-width="2" stroke-dasharray="0 0" transform="matrix(1 0 0 1 967.949 12.9889)"/><clipPath id="clip_5_104_0"><path d="M975.359 56.3987L1118.86 56.3987L1118.86 200.123L975.359 200.123L975.359 56.3987Z"/></clipPath><g clip-path="url(#clip_5_104_0)"><path d="M70.0614 97.4098L89.3622 97.4098L89.3622 93.7652L82.3075 93.7652L82.3075 62.2301L78.9442 62.2301C77.0224 63.3316 74.7724 64.1402 71.6552 64.7262L71.6552 67.5035L77.8896 67.5035L77.8896 93.7652L70.0614 93.7652L70.0614 97.4098Z" fill="#19191A" fill-opacity="1.000000" transform="matrix(1 0 0 1 967.949 12.9889)"/></g><path d="M15 0L145.325 0C153.605 0 160.325 6.72 160.325 15L160.325 145.544C160.325 153.824 153.605 160.544 145.325 160.544L15 160.544C6.72 160.544 0 153.824 0 145.544L0 15C0 6.72 6.72 0 15 0Z" fill="#C4D9FD" fill-opacity="1.000000" transform="matrix(1 0 0 1 12.9889 283.05)"/><path d="M15 0L145.325 0C153.605 0 160.325 6.72 160.325 15L160.325 145.544C160.325 153.824 153.605 160.544 145.325 160.544L15 160.544C6.72 160.544 0 153.824 0 145.544L0 15C0 6.72 6.72 0 15 0Z" fill="none" stroke="#000000" stroke-opacity="1.000000" stroke-width="2" stroke-dasharray="0 0" transform="matrix(1 0 0 1 12.9889 283.05)"/><clipPath id="clip_5_111_0"><path d="M20.3986 326.46L163.905 326.46L163.905 470.185L20.3986 470.185L20.3986 326.46Z"/></clipPath><g clip-path="url(#clip_5_111_0)"><path d="M79.1903 98.0309C85.8583 98.0309 90.1357 91.9371 90.1357 79.7027C90.1357 67.5035 85.8583 61.5504 79.1903 61.5504C72.4638 61.5504 68.1982 67.4566 68.1982 79.7027C68.1982 91.9371 72.4638 98.0309 79.1903 98.0309ZM79.1903 94.5269C75.1591 94.5269 72.4638 90.0621 72.4638 79.7027C72.4638 69.4254 75.1591 65.1012 79.1903 65.1012C83.1747 65.1012 85.8583 69.4254 85.8583 79.7027C85.8583 90.0621 83.1747 94.5269 79.1903 94.5269Z" fill="#19191A" fill-opacity="1.000000" transform="matrix(1 0 0 1 12.9889 283.05)"/></g><path d="M15 0L145.325 0C153.605 0 160.325 6.72 160.325 15L160.325 145.544C160.325 153.824 153.605 160.544 145.325 160.544L15 160.544C6.72 160.544 0 153.824 0 145.544L0 15C0 6.72 6.72 0 15 0Z" fill="#C4D9FD" fill-opacity="1.000000" transform="matrix(1 0 0 1 199.981 283.05)"/><path d="M15 0L145.325 0C153.605 0 160.325 6.72 160.325 15L160.325 145.544C160.325 153.824 153.605 160.544 145.325 160.544L15 160.544C6.72 160.544 0 153.824 0 145.544L0 15C0 6.72 6.72 0 15 0Z" fill="none" stroke="#000000" stroke-opacity="1.000000" stroke-width="2" stroke-dasharray="0 0" transform="matrix(1 0 0 1 199.981 283.05)"/><clipPath id="clip_5_112_0"><path d="M207.391 326.46L350.896 326.46L350.896 470.185L207.391 470.185L207.391 326.46Z"/></clipPath><g clip-path="url(#clip_5_112_0)"><path d="M79.1903 98.0309C85.8583 98.0309 90.1357 91.9371 90.1357 79.7027C90.1357 67.5035 85.8583 61.5504 79.1903 61.5504C72.4638 61.5504 68.1982 67.4566 68.1982 79.7027C68.1982 91.9371 72.4638 98.0309 79.1903 98.0309ZM79.1903 94.5269C75.1591 94.5269 72.4638 90.0621 72.4638 79.7027C72.4638 69.4254 75.1591 65.1012 79.1903 65.1012C83.1747 65.1012 85.8583 69.4254 85.8583 79.7027C85.8583 90.0621 83.1747 94.5269 79.1903 94.5269Z" fill="#19191A" fill-opacity="1.000000" transform="matrix(1 0 0 1 199.981 283.05)"/></g><path d="M15 0L145.325 0C153.605 0 160.325 6.72 160.325 15L160.325 145.544C160.325 153.824 153.605 160.544 145.325 160.544L15 160.544C6.72 160.544 0 153.824 0 145.544L0 15C0 6.72 6.72 0 15 0Z" fill="#C4D9FD" fill-opacity="1.000000" transform="matrix(1 0 0 1 391.973 283.05)"/><path d="M15 0L145.325 0C153.605 0 160.325 6.72 160.325 15L160.325 145.544C160.325 153.824 153.605 160.544 145.325 160.544L15 160.544C6.72 160.544 0 153.824 0 145.544L0 15C0 6.72 6.72 0 15 0Z" fill="none" stroke="#000000" stroke-opacity="1.000000" stroke-width="2" stroke-dasharray="0 0" transform="matrix(1 0 0 1 391.973 283.05)"/><clipPath id="clip_5_113_0"><path d="M399.383 326.46L542.888 326.46L542.888 470.185L399.383 470.185L399.383 326.46Z"/></clipPath><g clip-path="url(#clip_5_113_0)"><path d="M79.1903 98.0309C85.8583 98.0309 90.1357 91.9371 90.1357 79.7027C90.1357 67.5035 85.8583 61.5504 79.1903 61.5504C72.4638 61.5504 68.1982 67.4566 68.1982 79.7027C68.1982 91.9371 72.4638 98.0309 79.1903 98.0309ZM79.1903 94.5269C75.1591 94.5269 72.4638 90.0621 72.4638 79.7027C72.4638 69.4254 75.1591 65.1012 79.1903 65.1012C83.1747 65.1012 85.8583 69.4254 85.8583 79.7027C85.8583 90.0621 83.1747 94.5269 79.1903 94.5269Z" fill="#19191A" fill-opacity="1.000000" transform="matrix(1 0 0 1 391.973 283.05)"/></g><path d="M15 0L145.325 0C153.605 0 160.325 6.72 160.325 15L160.325 145.544C160.325 153.824 153.605 160.544 145.325 160.544L15 160.544C6.72 160.544 0 153.824 0 145.544L0 15C0 6.72 6.72 0 15 0Z" fill="#F8C4ED" fill-opacity="1.000000" transform="matrix(1 0 0 1 583.965 283.05)"/><path d="M15 0L145.325 0C153.605 0 160.325 6.72 160.325 15L160.325 145.544C160.325 153.824 153.605 160.544 145.325 160.544L15 160.544C6.72 160.544 0 153.824 0 145.544L0 15C0 6.72 6.72 0 15 0Z" fill="none" stroke="#000000" stroke-opacity="1.000000" stroke-width="2" stroke-dasharray="0 0" transform="matrix(1 0 0 1 583.965 283.05)"/><clipPath id="clip_5_114_0"><path d="M591.375 326.46L734.88 326.46L734.88 470.185L591.375 470.185L591.375 326.46Z"/></clipPath><g clip-path="url(#clip_5_114_0)"><path d="M70.0614 97.4098L89.3622 97.4098L89.3622 93.7652L82.3075 93.7652L82.3075 62.2301L78.9442 62.2301C77.0224 63.3316 74.7724 64.1402 71.6552 64.7262L71.6552 67.5035L77.8896 67.5035L77.8896 93.7652L70.0614 93.7652L70.0614 97.4098Z" fill="#19191A" fill-opacity="1.000000" transform="matrix(1 0 0 1 583.965 283.05)"/></g><path d="M15 0L145.325 0C153.605 0 160.325 6.72 160.325 15L160.325 145.544C160.325 153.824 153.605 160.544 145.325 160.544L15 160.544C6.72 160.544 0 153.824 0 145.544L0 15C0 6.72 6.72 0 15 0Z" fill="#F8C4ED" fill-opacity="1.000000" transform="matrix(1 0 0 1 775.957 283.05)"/><path d="M15 0L145.325 0C153.605 0 160.325 6.72 160.325 15L160.325 145.544C160.325 153.824 153.605 160.544 145.325 160.544L15 160.544C6.72 160.544 0 153.824 0 145.544L0 15C0 6.72 6.72 0 15 0Z" fill="none" stroke="#000000" stroke-opacity="1.000000" stroke-width="2" stroke-dasharray="0 0" transform="matrix(1 0 0 1 775.957 283.05)"/><clipPath id="clip_5_115_0"><path d="M783.367 326.46L926.872 326.46L926.872 470.185L783.367 470.185L783.367 326.46Z"/></clipPath><g clip-path="url(#clip_5_115_0)"><path d="M70.0614 97.4098L89.3622 97.4098L89.3622 93.7652L82.3075 93.7652L82.3075 62.2301L78.9442 62.2301C77.0224 63.3316 74.7724 64.1402 71.6552 64.7262L71.6552 67.5035L77.8896 67.5035L77.8896 93.7652L70.0614 93.7652L70.0614 97.4098Z" fill="#19191A" fill-opacity="1.000000" transform="matrix(1 0 0 1 775.957 283.05)"/></g><path d="M15 0L145.325 0C153.605 0 160.325 6.72 160.325 15L160.325 145.544C160.325 153.824 153.605 160.544 145.325 160.544L15 160.544C6.72 160.544 0 153.824 0 145.544L0 15C0 6.72 6.72 0 15 0Z" fill="#C4D9FD" fill-opacity="1.000000" transform="matrix(1 0 0 1 967.949 283.05)"/><path d="M15 0L145.325 0C153.605 0 160.325 6.72 160.325 15L160.325 145.544C160.325 153.824 153.605 160.544 145.325 160.544L15 160.544C6.72 160.544 0 153.824 0 145.544L0 15C0 6.72 6.72 0 15 0Z" fill="none" stroke="#000000" stroke-opacity="1.000000" stroke-width="2" stroke-dasharray="0 0" transform="matrix(1 0 0 1 967.949 283.05)"/><clipPath id="clip_5_116_0"><path d="M975.359 326.46L1118.86 326.46L1118.86 470.185L975.359 470.185L975.359 326.46Z"/></clipPath><g clip-path="url(#clip_5_116_0)"><path d="M79.1903 98.0309C85.8583 98.0309 90.1357 91.9371 90.1357 79.7027C90.1357 67.5035 85.8583 61.5504 79.1903 61.5504C72.4638 61.5504 68.1982 67.4566 68.1982 79.7027C68.1982 91.9371 72.4638 98.0309 79.1903 98.0309ZM79.1903 94.5269C75.1591 94.5269 72.4638 90.0621 72.4638 79.7027C72.4638 69.4254 75.1591 65.1012 79.1903 65.1012C83.1747 65.1012 85.8583 69.4254 85.8583 79.7027C85.8583 90.0621 83.1747 94.5269 79.1903 94.5269Z" fill="#19191A" fill-opacity="1.000000" transform="matrix(1 0 0 1 967.949 283.05)"/></g></svg>