<svg xmlns="http://www.w3.org/2000/svg" xmlns:xlink="http://www.w3.org/1999/xlink" width="1020.895569" height="274.695374" viewBox="0 0 1020.9 274.695"><path d="M15 0L415.048 0C423.328 0 430.048 6.72 430.048 15L430.048 69C430.048 77.28 423.328 84 415.048 84L15 84C6.72 84 0 77.28 0 69L0 15C0 6.72 6.72 0 15 0Z" fill="#D6D5FD" fill-opacity="1.000000" transform="matrix(1 0 0 1 12.6858 78.0095)"/><path d="M15 0L415.048 0C423.328 0 430.048 6.72 430.048 15L430.048 69C430.048 77.28 423.328 84 415.048 84L15 84C6.72 84 0 77.28 0 69L0 15C0 6.72 6.72 0 15 0Z" fill="none" stroke="#000000" stroke-opacity="1.000000" stroke-width="2" stroke-dasharray="0 0" transform="matrix(1 0 0 1 12.6858 78.0095)"/><clipPath id="clip_5_57_0"><path d="M17.8058 92.1295L435.613 92.1295L435.613 163.89L17.8058 163.89L17.8058 92.1295Z"/></clipPath><g clip-path="url(#clip_5_57_0)"><path d="M46.1372 55.12L49.9516 55.12L56.9038 35.5731L53.6606 35.5731L49.9516 46.7001C49.3804 48.6073 48.73 50.62 48.1499 52.4569L48.0093 52.4569C47.394 50.62 46.7876 48.6073 46.1724 46.7001L42.4985 35.5731L39.0796 35.5731L46.1372 55.12ZM64.3912 55.5858C66.7994 55.5858 68.9967 54.329 70.8688 52.7821L70.9743 52.7821L71.2643 55.12L73.9625 55.12L73.9625 43.0966C73.9625 38.2714 71.9498 35.0721 67.195 35.0721C64.066 35.0721 61.2975 36.4696 59.4957 37.621L60.7877 39.8886C62.3346 38.8514 64.3912 37.8055 66.6588 37.8055C69.858 37.8055 70.693 40.2137 70.693 42.7362C62.3698 43.6679 58.6696 45.7948 58.6696 50.0399C58.6696 53.5731 61.1129 55.5858 64.3912 55.5858ZM65.3229 52.9579C63.3805 52.9579 61.8688 52.0614 61.8688 49.829C61.8688 47.3065 64.1012 45.6893 70.693 44.8983L70.693 50.3651C68.7858 52.0614 67.2301 52.9579 65.3229 52.9579ZM83.6493 55.5858C84.5107 55.5858 85.0908 55.4804 85.5566 55.2958L85.0908 52.7821C84.7304 52.8524 84.5898 52.8524 84.4052 52.8524C83.9042 52.8524 83.4736 52.4569 83.4736 51.4462L83.4736 26.4677L80.1952 26.4677L80.1952 51.2352C80.1952 54.0038 81.206 55.5858 83.6493 55.5858ZM96.1418 55.5858C98.84 55.5858 100.782 54.1884 102.619 52.0614L102.734 52.0614L102.98 55.12L105.722 55.12L105.722 35.5731L102.444 35.5731L102.444 49.4335C100.571 51.7714 99.1652 52.747 97.1525 52.747C94.5597 52.747 93.4787 51.2001 93.4787 47.5614L93.4787 35.5731L90.2004 35.5731L90.2004 47.9569C90.2004 52.9227 92.0373 55.5858 96.1418 55.5858ZM120.191 55.5858C122.854 55.5858 124.946 54.6893 126.669 53.5731L125.482 51.411C124.041 52.3866 122.494 52.9579 120.587 52.9579C116.878 52.9579 114.32 50.2948 114.109 46.12L127.284 46.12C127.354 45.6542 127.424 44.9686 127.424 44.2479C127.424 38.6669 124.621 35.0721 119.646 35.0721C115.111 35.0721 110.831 39.0272 110.831 45.3641C110.831 51.8065 115.006 55.5858 120.191 55.5858ZM114.074 43.7821C114.469 39.9237 116.913 37.7001 119.69 37.7001C122.749 37.7001 124.542 39.8182 124.542 43.7821L114.074 43.7821ZM133.939 41.0839C135.24 41.0839 136.321 40.038 136.321 38.5966C136.321 37.0848 135.24 36.0389 133.939 36.0389C132.647 36.0389 131.566 37.0848 131.566 38.5966C131.566 40.038 132.647 41.0839 133.939 41.0839ZM133.939 55.5858C135.24 55.5858 136.321 54.5839 136.321 53.1073C136.321 51.6307 135.24 50.5497 133.939 50.5497C132.647 50.5497 131.566 51.6307 131.566 53.1073C131.566 54.5839 132.647 55.5858 133.939 55.5858Z" fill="#19191A" fill-opacity="1.000000" transform="matrix(1 0 0 1 12.6858 78.0095)"/><path d="M148.957 55.0233Q156.603 55.0233 156.603 41.8397Q156.603 28.788 148.957 28.788Q141.275 28.788 141.275 41.8397Q141.275 55.0233 148.957 55.0233ZM148.957 56.1483Q144.775 56.1483 142.466 52.4517Q140.15 48.7452 140.15 41.8397Q140.15 34.9417 142.468 31.2871Q144.766 27.663 148.957 27.663Q153.114 27.663 155.412 31.3012Q157.728 34.9687 157.728 41.8397Q157.728 48.7384 155.414 52.4512Q153.109 56.1483 148.957 56.1483ZM148.957 53.5204Q143.349 53.5204 143.349 41.8397Q143.349 30.3261 148.957 30.3261Q154.52 30.3261 154.52 41.8397Q154.52 53.5204 148.957 53.5204ZM148.957 52.3954Q153.395 52.3954 153.395 41.8397Q153.395 31.4511 148.957 31.4511Q144.474 31.4511 144.474 41.8397Q144.474 52.3954 148.957 52.3954ZM148.957 52.9579C151.945 52.9579 153.958 49.6093 153.958 41.8397C153.958 34.1317 151.945 30.8886 148.957 30.8886C145.933 30.8886 143.912 34.1317 143.912 41.8397C143.912 49.6093 145.933 52.9579 148.957 52.9579ZM148.957 55.5858C143.912 55.5858 140.712 51.0155 140.712 41.8397C140.712 32.6552 143.912 28.2255 148.957 28.2255C153.958 28.2255 157.166 32.6903 157.166 41.8397C157.166 51.0155 153.958 55.5858 148.957 55.5858ZM159.462 54.5575L162.925 54.5575L162.925 55.12L162.437 54.8396L165.065 50.2693Q165.254 49.9376 165.63 49.2694Q166.588 47.5677 167.086 46.7573L167.251 46.4891L168.058 46.4891L168.224 46.7492Q169.412 48.6117 170.326 50.2793L169.833 50.5497L170.309 50.2496L173.192 54.8199L172.716 55.12L172.716 54.5575L176.311 54.5575L176.311 55.12L175.84 55.4276L169.202 45.2681L175.33 35.279L175.81 35.5731L175.81 36.1356L172.391 36.1356L172.391 35.5731L172.881 35.848L170.464 40.1634L169.974 39.8886L170.471 40.1514Q169.468 42.0494 168.706 43.4069L168.545 43.6942L167.746 43.6942L167.583 43.4188Q167.338 43.0058 166.833 42.177Q166.018 40.8393 165.635 40.1668L166.124 39.8886L165.644 40.1811L163.016 35.8657L163.496 35.5731L163.496 36.1356L159.972 36.1356L159.972 35.5731L160.447 35.2717L166.579 44.9331L159.937 55.421L159.462 55.12L159.462 54.5575ZM158.44 55.6825L165.438 44.6325L165.913 44.9335L165.438 45.2349L158.948 35.0106L163.812 35.0106L166.609 39.6031L166.613 39.6103Q166.987 40.2683 167.794 41.5917Q168.302 42.4261 168.55 42.8446L168.066 43.1317L168.066 42.5692L168.216 42.5692L168.216 43.1317L167.725 42.8565Q168.48 41.5114 169.476 39.6257L169.48 39.6197L172.061 35.0106L176.815 35.0106L170.348 45.5528L169.868 45.2587L170.339 44.951L177.35 55.6825L172.406 55.6825L169.348 50.8352L169.34 50.8201Q168.444 49.1852 167.276 47.3541L167.75 47.0516L167.75 47.6141L167.565 47.6141L167.565 47.0516L168.045 47.346Q167.558 48.1382 166.611 49.8213Q166.233 50.4924 166.04 50.8301L163.25 55.6825L159.462 55.6825L158.44 55.6825ZM159.462 55.12L165.913 44.9335L159.972 35.5731L163.496 35.5731L166.124 39.8886C166.739 40.9696 167.425 42.0507 168.066 43.1317L168.216 43.1317C168.822 42.0507 169.402 40.9696 169.974 39.8886L172.391 35.5731L175.81 35.5731L169.868 45.2587L176.311 55.12L172.716 55.12L169.833 50.5497C169.183 49.3632 168.462 48.1679 167.75 47.0516L167.565 47.0516C166.88 48.1679 166.23 49.3632 165.553 50.5497L162.925 55.12L159.462 55.12ZM180.457 54.5575L188.877 54.5575Q198.325 54.5575 198.325 47.3768Q198.325 42.5822 193.377 41.6364L192.92 41.549L192.92 40.4879L193.312 40.3633Q196.814 39.2497 196.814 35.1776Q196.814 29.2977 188.306 29.2977L180.457 29.2977L180.457 28.7352L181.02 28.7352L181.02 55.12L180.457 55.12L180.457 54.5575ZM179.895 55.6825L179.895 28.1727L188.306 28.1727Q197.939 28.1727 197.939 35.1776Q197.939 40.0724 193.653 41.4353L193.483 40.8993L194.045 40.8993L194.045 41.0839L193.483 41.0839L193.588 40.5314Q199.45 41.6518 199.45 47.3768Q199.45 51.4424 196.429 53.6474Q193.64 55.6825 188.877 55.6825L180.457 55.6825L179.895 55.6825ZM183.243 39.9677L183.243 30.8007L187.867 30.8007Q194.66 30.8007 194.66 35.6083Q194.66 40.5302 187.726 40.5302L183.243 40.5302L183.243 39.9677ZM184.368 39.9677L183.806 39.9677L183.806 39.4052L187.726 39.4052Q193.535 39.4052 193.535 35.6083Q193.535 31.9257 187.867 31.9257L183.806 31.9257L183.806 31.3632L184.368 31.3632L184.368 39.9677ZM183.243 52.4569L183.243 41.954L188.411 41.954Q196.172 41.954 196.172 47.2714Q196.172 53.0194 188.411 53.0194L183.243 53.0194L183.243 52.4569ZM184.368 52.4569L183.806 52.4569L183.806 51.8944L188.411 51.8944Q195.047 51.8944 195.047 47.2714Q195.047 43.079 188.411 43.079L183.806 43.079L183.806 42.5165L184.368 42.5165L184.368 52.4569ZM183.806 52.4569L188.411 52.4569C192.947 52.4569 195.61 50.8397 195.61 47.2714C195.61 43.993 193.017 42.5165 188.411 42.5165L183.806 42.5165L183.806 52.4569ZM183.806 39.9677L187.726 39.9677C192.261 39.9677 194.098 38.2714 194.098 35.6083C194.098 32.5145 191.971 31.3632 187.867 31.3632L183.806 31.3632L183.806 39.9677ZM180.457 55.12L180.457 28.7352L188.306 28.7352C193.667 28.7352 197.376 30.5282 197.376 35.1776C197.376 37.8055 195.97 40.1083 193.483 40.8993L193.483 41.0839C196.656 41.6903 198.888 43.7821 198.888 47.3768C198.888 52.5624 194.783 55.12 188.877 55.12L180.457 55.12ZM204.109 54.5575L212.529 54.5575Q221.977 54.5575 221.977 47.3768Q221.977 42.5822 217.029 41.6364L216.572 41.549L216.572 40.4879L216.964 40.3633Q220.466 39.2497 220.466 35.1776Q220.466 29.2977 211.958 29.2977L204.109 29.2977L204.109 28.7352L204.672 28.7352L204.672 55.12L204.109 55.12L204.109 54.5575ZM203.547 55.6825L203.547 28.1727L211.958 28.1727Q221.591 28.1727 221.591 35.1776Q221.591 40.0724 217.305 41.4353L217.135 40.8993L217.697 40.8993L217.697 41.0839L217.135 41.0839L217.24 40.5314Q223.102 41.6518 223.102 47.3768Q223.102 51.4424 220.081 53.6474Q217.292 55.6825 212.529 55.6825L204.109 55.6825L203.547 55.6825ZM206.895 39.9677L206.895 30.8007L211.519 30.8007Q218.312 30.8007 218.312 35.6083Q218.312 40.5302 211.378 40.5302L206.895 40.5302L206.895 39.9677ZM208.02 39.9677L207.458 39.9677L207.458 39.4052L211.378 39.4052Q217.187 39.4052 217.187 35.6083Q217.187 31.9257 211.519 31.9257L207.458 31.9257L207.458 31.3632L208.02 31.3632L208.02 39.9677ZM206.895 52.4569L206.895 41.954L212.063 41.954Q219.824 41.954 219.824 47.2714Q219.824 53.0194 212.063 53.0194L206.895 53.0194L206.895 52.4569ZM208.02 52.4569L207.458 52.4569L207.458 51.8944L212.063 51.8944Q218.699 51.8944 218.699 47.2714Q218.699 43.079 212.063 43.079L207.458 43.079L207.458 42.5165L208.02 42.5165L208.02 52.4569ZM207.458 52.4569L212.063 52.4569C216.599 52.4569 219.262 50.8397 219.262 47.2714C219.262 43.993 216.669 42.5165 212.063 42.5165L207.458 42.5165L207.458 52.4569ZM207.458 39.9677L211.378 39.9677C215.913 39.9677 217.75 38.2714 217.75 35.6083C217.75 32.5145 215.623 31.3632 211.519 31.3632L207.458 31.3632L207.458 39.9677ZM204.109 55.12L204.109 28.7352L211.958 28.7352C217.319 28.7352 221.028 30.5282 221.028 35.1776C221.028 37.8055 219.622 40.1083 217.135 40.8993L217.135 41.0839C220.308 41.6903 222.54 43.7821 222.54 47.3768C222.54 52.5624 218.436 55.12 212.529 55.12L204.109 55.12ZM234.169 55.0233Q241.815 55.0233 241.815 41.8397Q241.815 28.788 234.169 28.788Q226.487 28.788 226.487 41.8397Q226.487 55.0233 234.169 55.0233ZM234.169 56.1483Q229.987 56.1483 227.678 52.4517Q225.362 48.7452 225.362 41.8397Q225.362 34.9417 227.68 31.2871Q229.978 27.663 234.169 27.663Q238.326 27.663 240.624 31.3012Q242.94 34.9687 242.94 41.8397Q242.94 48.7384 240.626 52.4512Q238.321 56.1483 234.169 56.1483ZM234.169 53.5204Q228.561 53.5204 228.561 41.8397Q228.561 30.3261 234.169 30.3261Q239.732 30.3261 239.732 41.8397Q239.732 53.5204 234.169 53.5204ZM234.169 52.3954Q238.607 52.3954 238.607 41.8397Q238.607 31.4511 234.169 31.4511Q229.686 31.4511 229.686 41.8397Q229.686 52.3954 234.169 52.3954ZM234.169 52.9579C237.157 52.9579 239.17 49.6093 239.17 41.8397C239.17 34.1317 237.157 30.8886 234.169 30.8886C231.145 30.8886 229.124 34.1317 229.124 41.8397C229.124 49.6093 231.145 52.9579 234.169 52.9579ZM234.169 55.5858C229.124 55.5858 225.924 51.0155 225.924 41.8397C225.924 32.6552 229.124 28.2255 234.169 28.2255C239.17 28.2255 242.378 32.6903 242.378 41.8397C242.378 51.0155 239.17 55.5858 234.169 55.5858ZM247.81 44.9111L253.821 35.9111L254.289 36.2235L253.803 35.9409Q255.085 33.734 255.913 32.0784L256.069 31.7675L257.149 31.7675L257.119 32.3588Q257.102 32.6752 257.061 33.4068Q256.908 36.1406 256.908 37.12L256.908 45.786L247.225 45.786L247.81 44.9111ZM248.745 45.536L248.277 45.2235L248.277 44.661L256.346 44.661L256.346 45.2235L255.783 45.2235L255.783 37.12Q255.783 36.1091 255.938 33.3439Q255.979 32.6148 255.995 32.3012L256.557 32.33L256.557 32.8925L256.416 32.8925L256.416 32.33L256.919 32.5815Q256.076 34.2687 254.776 36.5061L254.767 36.5213L248.745 45.536ZM262.964 45.786L258.912 45.786L258.912 28.7352L259.475 28.7352L259.475 29.2977L255.836 29.2977L255.836 28.7352L256.308 29.041L245.331 45.9951L244.859 45.6893L245.421 45.6893L245.421 47.8514L244.859 47.8514L244.859 47.2889L256.908 47.2889L256.908 55.12L256.346 55.12L256.346 54.5575L259.475 54.5575L259.475 55.12L258.912 55.12L258.912 47.2889L262.964 47.2889L262.964 47.8514L262.401 47.8514L262.401 45.2235L262.964 45.2235L262.964 45.786ZM263.526 44.661L263.526 48.4139L259.475 48.4139L259.475 47.8514L260.037 47.8514L260.037 55.6825L255.783 55.6825L255.783 47.8514L256.346 47.8514L256.346 48.4139L244.296 48.4139L244.296 45.5231L255.53 28.1727L260.037 28.1727L260.037 45.2235L259.475 45.2235L259.475 44.661L262.964 44.661L263.526 44.661ZM262.964 45.2235L262.964 47.8514L259.475 47.8514L259.475 55.12L256.346 55.12L256.346 47.8514L244.859 47.8514L244.859 45.6893L255.836 28.7352L259.475 28.7352L259.475 45.2235L262.964 45.2235ZM248.277 45.2235L256.346 45.2235L256.346 37.12C256.346 35.828 256.486 33.7011 256.557 32.33L256.416 32.33C255.766 33.6307 255.045 34.9227 254.289 36.2235L248.277 45.2235ZM267.721 54.5575L276.141 54.5575Q285.59 54.5575 285.59 47.3768Q285.59 42.5822 280.641 41.6364L280.184 41.549L280.184 40.4879L280.576 40.3633Q284.078 39.2497 284.078 35.1776Q284.078 29.2977 275.57 29.2977L267.721 29.2977L267.721 28.7352L268.284 28.7352L268.284 55.12L267.721 55.12L267.721 54.5575ZM267.159 55.6825L267.159 28.1727L275.57 28.1727Q285.203 28.1727 285.203 35.1776Q285.203 40.0724 280.917 41.4353L280.747 40.8993L281.309 40.8993L281.309 41.0839L280.747 41.0839L280.852 40.5314Q286.715 41.6518 286.715 47.3768Q286.715 51.4424 283.693 53.6474Q280.904 55.6825 276.141 55.6825L267.721 55.6825L267.159 55.6825ZM270.508 39.9677L270.508 30.8007L275.131 30.8007Q281.924 30.8007 281.924 35.6083Q281.924 40.5302 274.99 40.5302L270.508 40.5302L270.508 39.9677ZM271.633 39.9677L271.07 39.9677L271.07 39.4052L274.99 39.4052Q280.799 39.4052 280.799 35.6083Q280.799 31.9257 275.131 31.9257L271.07 31.9257L271.07 31.3632L271.633 31.3632L271.633 39.9677ZM270.508 52.4569L270.508 41.954L275.675 41.954Q283.436 41.954 283.436 47.2714Q283.436 53.0194 275.675 53.0194L270.508 53.0194L270.508 52.4569ZM271.633 52.4569L271.07 52.4569L271.07 51.8944L275.675 51.8944Q282.311 51.8944 282.311 47.2714Q282.311 43.079 275.675 43.079L271.07 43.079L271.07 42.5165L271.633 42.5165L271.633 52.4569ZM271.07 52.4569L275.675 52.4569C280.211 52.4569 282.874 50.8397 282.874 47.2714C282.874 43.993 280.281 42.5165 275.675 42.5165L271.07 42.5165L271.07 52.4569ZM271.07 39.9677L274.99 39.9677C279.525 39.9677 281.362 38.2714 281.362 35.6083C281.362 32.5145 279.235 31.3632 275.131 31.3632L271.07 31.3632L271.07 39.9677ZM267.721 55.12L267.721 28.7352L275.57 28.7352C280.931 28.7352 284.64 30.5282 284.64 35.1776C284.64 37.8055 283.234 40.1083 280.747 40.8993L280.747 41.0839C283.92 41.6903 286.152 43.7821 286.152 47.3768C286.152 52.5624 282.048 55.12 276.141 55.12L267.721 55.12ZM294.108 44.2156L295.408 40.1902Q297.099 34.7663 298.028 31.2883L298.14 30.871L299.138 30.871L299.254 31.281Q300.768 36.6601 301.911 40.19L303.407 44.9511L293.87 44.9511L294.108 44.2156ZM295.178 44.5615L294.643 44.3886L294.643 43.8261L302.641 43.8261L302.641 44.3886L302.104 44.5573L300.84 40.5363Q299.691 36.9858 298.171 31.5859L298.712 31.4335L298.712 31.996L298.572 31.996L298.572 31.4335L299.115 31.5786Q298.18 35.079 296.479 40.5361L295.178 44.5615ZM305.99 54.5575L309.514 54.5575L309.514 55.12L308.981 55.301L300.017 28.9162L300.549 28.7352L300.549 29.2977L296.84 29.2977L296.84 28.7352L297.373 28.9162L288.408 55.301L287.875 55.12L287.875 54.5575L291.259 54.5575L291.259 55.12L290.723 54.95L293.405 46.4891L303.881 46.4891L306.526 54.9522L305.99 55.12L305.99 54.5575ZM305.576 55.6825L302.93 47.2195L303.467 47.0516L303.467 47.6141L293.817 47.6141L293.817 47.0516L294.353 47.2216L291.671 55.6825L287.09 55.6825L296.437 28.1727L300.952 28.1727L310.299 55.6825L305.99 55.6825L305.576 55.6825ZM305.99 55.12L303.467 47.0516L293.817 47.0516L291.259 55.12L287.875 55.12L296.84 28.7352L300.549 28.7352L309.514 55.12L305.99 55.12ZM294.643 44.3886L302.641 44.3886L301.375 40.3632C300.409 37.3749 299.574 34.4921 298.712 31.4335L298.572 31.4335C297.745 34.5272 296.875 37.3749 295.944 40.3632L294.643 44.3886ZM313.225 54.5575L316.574 54.5575L316.574 55.12L316.012 55.12L316.012 42.7098L326.646 42.7098L326.646 43.2723L326.084 43.2723L326.084 40.4686L326.646 40.4686L326.646 41.0311L316.012 41.0311L316.012 30.9764L328.448 30.9764L328.448 31.5389L327.886 31.5389L327.886 28.7352L328.448 28.7352L328.448 29.2977L313.225 29.2977L313.225 28.7352L313.788 28.7352L313.788 55.12L313.225 55.12L313.225 54.5575ZM312.663 55.6825L312.663 28.1727L329.011 28.1727L329.011 32.1014L316.574 32.1014L316.574 31.5389L317.137 31.5389L317.137 40.4686L316.574 40.4686L316.574 39.9061L327.209 39.9061L327.209 43.8348L316.574 43.8348L316.574 43.2723L317.137 43.2723L317.137 55.6825L313.225 55.6825L312.663 55.6825ZM313.225 55.12L313.225 28.7352L328.448 28.7352L328.448 31.5389L316.574 31.5389L316.574 40.4686L326.646 40.4686L326.646 43.2723L316.574 43.2723L316.574 55.12L313.225 55.12ZM336.622 54.5575L340.041 54.5575L340.041 55.12L339.479 55.0985Q339.802 46.6539 341.197 41.8658Q342.879 36.094 347.34 30.3671L347.784 30.7128L347.221 30.7128L347.221 28.7352L347.784 28.7352L347.784 29.2977L331.26 29.2977L331.26 28.7352L331.823 28.7352L331.823 31.5389L331.26 31.5389L331.26 30.9764L345.134 30.9764L344.497 31.8663Q340.746 37.1097 339.098 42.4408Q337.509 47.5847 337.184 55.1442L336.622 55.12L336.622 54.5575ZM336.622 55.6825L336.035 55.6825L336.06 55.0958Q336.391 47.3912 338.023 42.1087Q339.724 36.6033 343.582 31.2116L344.04 31.5389L344.04 32.1014L330.698 32.1014L330.698 28.1727L348.346 28.1727L348.346 30.906L348.228 31.0585Q343.899 36.6155 342.277 42.1806Q340.921 46.8355 340.603 55.1415L340.582 55.6825L336.622 55.6825ZM336.622 55.12C337.052 45.1093 338.889 38.7372 344.04 31.5389L331.26 31.5389L331.26 28.7352L347.784 28.7352L347.784 30.7128C341.588 38.6669 340.436 44.7841 340.041 55.12L336.622 55.12ZM358.975 55.0233Q362.397 55.0233 364.601 53.164Q366.876 51.2447 366.876 48.0624Q366.876 43.1064 361.696 41.9133L361.26 41.8128L361.26 40.834L361.626 40.6975Q365.98 39.0733 365.98 34.8524Q365.98 32.0073 364.009 30.3809Q362.079 28.788 358.869 28.788Q355.138 28.788 351.868 31.8113L351.487 31.3983L351.916 31.0345L353.682 33.1175L353.253 33.4813L352.855 33.0836Q355.543 30.3959 358.71 30.2912L358.727 30.2907L358.743 30.2911Q361.014 30.3495 362.373 31.6396Q363.756 32.9517 363.756 35.1073Q363.756 40.7059 355.881 40.7059L355.881 40.1434L356.444 40.1434L356.444 42.6659L355.881 42.6659L355.881 42.1034Q364.653 42.1034 364.653 47.9569Q364.653 50.4473 362.957 51.9584Q361.323 53.4149 358.729 53.4149Q354.824 53.4149 351.766 50.2178L352.172 49.829L352.619 50.1705L350.967 52.3326L350.52 51.9911L350.934 51.6102Q354.074 55.0233 358.975 55.0233ZM358.975 56.1483Q353.581 56.1483 350.106 52.372L349.786 52.0246L352.124 48.9652L352.579 49.4402Q355.304 52.2899 358.729 52.2899Q360.894 52.2899 362.208 51.1185Q363.528 49.943 363.528 47.9569Q363.528 43.2284 355.881 43.2284L355.319 43.2284L355.319 39.5809L355.881 39.5809Q362.631 39.5809 362.631 35.1073Q362.631 31.5165 358.714 31.4157L358.729 30.8534L358.747 31.4156Q356.024 31.5056 353.651 33.8791L353.219 34.3109L350.709 31.3512L351.105 30.9853Q354.697 27.663 358.869 27.663Q362.483 27.663 364.725 29.5132Q367.105 31.4772 367.105 34.8524Q367.105 39.8544 362.019 41.7515L361.823 41.2245L362.385 41.2245L362.385 41.3651L361.823 41.3651L361.949 40.817Q364.583 41.4238 366.224 43.2614Q368.001 45.253 368.001 48.0624Q368.001 51.7676 365.326 54.024Q362.808 56.1483 358.975 56.1483ZM358.975 55.5858C354.835 55.5858 352.242 53.8632 350.52 51.9911L352.172 49.829C353.719 51.4462 355.74 52.8524 358.729 52.8524C361.858 52.8524 364.09 50.9804 364.09 47.9569C364.09 44.7841 361.963 42.6659 355.881 42.6659L355.881 40.1434C361.322 40.1434 363.194 37.9462 363.194 35.1073C363.194 32.5497 361.462 30.9237 358.729 30.8534C356.602 30.9237 354.73 32.0048 353.253 33.4813L351.487 31.3983C353.473 29.5614 355.811 28.2255 358.869 28.2255C363.299 28.2255 366.542 30.6073 366.542 34.8524C366.542 38.0516 364.626 40.1786 361.823 41.2245L361.823 41.3651C364.951 42.0858 367.439 44.4677 367.439 48.0624C367.439 52.7821 363.659 55.5858 358.975 55.5858ZM373.126 44.9111L379.138 35.9111L379.605 36.2235L379.119 35.9409Q380.401 33.734 381.229 32.0784L381.385 31.7675L382.465 31.7675L382.435 32.3588Q382.418 32.6752 382.377 33.4068Q382.224 36.1406 382.224 37.12L382.224 45.786L372.541 45.786L373.126 44.9111ZM374.061 45.536L373.594 45.2235L373.594 44.661L381.662 44.661L381.662 45.2235L381.099 45.2235L381.099 37.12Q381.099 36.1091 381.254 33.3439Q381.295 32.6148 381.311 32.3012L381.873 32.33L381.873 32.8925L381.732 32.8925L381.732 32.33L382.235 32.5815Q381.392 34.2687 380.092 36.5061L380.083 36.5213L374.061 45.536ZM388.28 45.786L384.228 45.786L384.228 28.7352L384.791 28.7352L384.791 29.2977L381.152 29.2977L381.152 28.7352L381.624 29.041L370.647 45.9951L370.175 45.6893L370.737 45.6893L370.737 47.8514L370.175 47.8514L370.175 47.2889L382.224 47.2889L382.224 55.12L381.662 55.12L381.662 54.5575L384.791 54.5575L384.791 55.12L384.228 55.12L384.228 47.2889L388.28 47.2889L388.28 47.8514L387.718 47.8514L387.718 45.2235L388.28 45.2235L388.28 45.786ZM388.843 44.661L388.843 48.4139L384.791 48.4139L384.791 47.8514L385.353 47.8514L385.353 55.6825L381.099 55.6825L381.099 47.8514L381.662 47.8514L381.662 48.4139L369.612 48.4139L369.612 45.5231L380.846 28.1727L385.353 28.1727L385.353 45.2235L384.791 45.2235L384.791 44.661L388.28 44.661L388.843 44.661ZM388.28 45.2235L388.28 47.8514L384.791 47.8514L384.791 55.12L381.662 55.12L381.662 47.8514L370.175 47.8514L370.175 45.6893L381.152 28.7352L384.791 28.7352L384.791 45.2235L388.28 45.2235ZM373.594 45.2235L381.662 45.2235L381.662 37.12C381.662 35.828 381.803 33.7011 381.873 32.33L381.732 32.33C381.082 33.6307 380.361 34.9227 379.605 36.2235L373.594 45.2235Z" fill="#19191A" fill-opacity="1.000000" transform="matrix(1 0 0 1 12.6858 78.0095)"/></g><path d="M15 0L415.048 0C423.328 0 430.048 6.72 430.048 15L430.048 69C430.048 77.28 423.328 84 415.048 84L15 84C6.72 84 0 77.28 0 69L0 15C0 6.72 6.72 0 15 0Z" fill="#F8C4ED" fill-opacity="1.000000" transform="matrix(1 0 0 1 15.0667 178.01)"/><path d="M15 0L415.048 0C423.328 0 430.048 6.72 430.048 15L430.048 69C430.048 77.28 423.328 84 415.048 84L15 84C6.72 84 0 77.28 0 69L0 15C0 6.72 6.72 0 15 0Z" fill="none" stroke="#000000" stroke-opacity="1.000000" stroke-width="2" stroke-dasharray="0 0" transform="matrix(1 0 0 1 15.0667 178.01)"/><clipPath id="clip_5_58_0"><path d="M20.1867 192.13L437.994 192.13L437.994 263.89L20.1867 263.89L20.1867 192.13Z"/></clipPath><g clip-path="url(#clip_5_58_0)"><path d="M138.263 55.5858C140.671 55.5858 142.869 54.329 144.741 52.7821L144.846 52.7821L145.136 55.12L147.835 55.12L147.835 43.0966C147.835 38.2714 145.822 35.0721 141.067 35.0721C137.938 35.0721 135.17 36.4696 133.368 37.621L134.66 39.8886C136.207 38.8514 138.263 37.8055 140.531 37.8055C143.73 37.8055 144.565 40.2137 144.565 42.7362C136.242 43.6679 132.542 45.7948 132.542 50.0399C132.542 53.5731 134.985 55.5858 138.263 55.5858ZM139.195 52.9579C137.253 52.9579 135.741 52.0614 135.741 49.829C135.741 47.3065 137.973 45.6893 144.565 44.8983L144.565 50.3651C142.658 52.0614 141.102 52.9579 139.195 52.9579ZM160.729 55.5858C163.067 55.5858 165.115 54.329 166.662 52.8173L166.741 52.8173L167.058 55.12L169.729 55.12L169.729 26.4677L166.451 26.4677L166.451 33.9911L166.627 37.3749C164.904 35.9335 163.428 35.0721 161.125 35.0721C156.66 35.0721 152.661 39.0272 152.661 45.3641C152.661 51.8768 155.834 55.5858 160.729 55.5858ZM161.45 52.8524C157.987 52.8524 156.045 50.0399 156.045 45.329C156.045 40.8641 158.532 37.8407 161.696 37.8407C163.322 37.8407 164.79 38.412 166.451 39.8886L166.451 50.1542C164.834 51.9559 163.243 52.8524 161.45 52.8524ZM183.049 55.5858C185.387 55.5858 187.435 54.329 188.982 52.8173L189.061 52.8173L189.378 55.12L192.049 55.12L192.049 26.4677L188.771 26.4677L188.771 33.9911L188.947 37.3749C187.224 35.9335 185.748 35.0721 183.445 35.0721C178.98 35.0721 174.981 39.0272 174.981 45.3641C174.981 51.8768 178.154 55.5858 183.049 55.5858ZM183.77 52.8524C180.307 52.8524 178.365 50.0399 178.365 45.329C178.365 40.8641 180.852 37.8407 184.016 37.8407C185.642 37.8407 187.11 38.412 188.771 39.8886L188.771 50.1542C187.154 51.9559 185.563 52.8524 183.77 52.8524ZM198.707 55.12L201.986 55.12L201.986 42.5516C203.278 39.2118 205.29 38.0516 206.916 38.0516C207.707 38.0516 208.173 38.1307 208.824 38.3768L209.43 35.5028C208.824 35.1776 208.208 35.0721 207.347 35.0721C205.15 35.0721 203.172 36.6542 201.801 39.1327L201.696 39.1327L201.406 35.5731L198.707 35.5731L198.707 55.12ZM220.163 55.5858C222.826 55.5858 224.918 54.6893 226.641 53.5731L225.454 51.411C224.013 52.3866 222.466 52.9579 220.559 52.9579C216.85 52.9579 214.292 50.2948 214.081 46.12L227.256 46.12C227.326 45.6542 227.396 44.9686 227.396 44.2479C227.396 38.6669 224.593 35.0721 219.618 35.0721C215.083 35.0721 210.803 39.0272 210.803 45.3641C210.803 51.8065 214.978 55.5858 220.163 55.5858ZM214.046 43.7821C214.441 39.9237 216.885 37.7001 219.662 37.7001C222.721 37.7001 224.514 39.8182 224.514 43.7821L214.046 43.7821ZM237.33 55.5858C241.944 55.5858 244.458 52.9579 244.458 49.7938C244.458 46.0848 241.329 44.9335 238.49 43.8524C236.293 43.0262 234.166 42.3407 234.166 40.4686C234.166 38.9569 235.282 37.6561 237.734 37.6561C239.492 37.6561 240.863 38.3768 242.234 39.3876L243.816 37.2606C242.269 36.0741 240.142 35.0721 237.734 35.0721C233.48 35.0721 231.002 37.5155 231.002 40.6093C231.002 43.9227 234.095 45.2587 236.829 46.2606C238.991 47.0956 241.294 47.9921 241.294 49.9696C241.294 51.6659 240.037 53.0282 237.444 53.0282C235.106 53.0282 233.34 52.0966 231.643 50.7255L230.026 52.8876C231.898 54.4345 234.561 55.5858 237.33 55.5858ZM254.178 55.5858C258.792 55.5858 261.306 52.9579 261.306 49.7938C261.306 46.0848 258.177 44.9335 255.338 43.8524C253.141 43.0262 251.014 42.3407 251.014 40.4686C251.014 38.9569 252.13 37.6561 254.582 37.6561C256.34 37.6561 257.711 38.3768 259.082 39.3876L260.664 37.2606C259.117 36.0741 256.99 35.0721 254.582 35.0721C250.328 35.0721 247.85 37.5155 247.85 40.6093C247.85 43.9227 250.943 45.2587 253.677 46.2606C255.839 47.0956 258.142 47.9921 258.142 49.9696C258.142 51.6659 256.885 53.0282 254.292 53.0282C251.954 53.0282 250.188 52.0966 248.491 50.7255L246.874 52.8876C248.746 54.4345 251.409 55.5858 254.178 55.5858ZM267.607 41.0839C268.908 41.0839 269.989 40.038 269.989 38.5966C269.989 37.0848 268.908 36.0389 267.607 36.0389C266.315 36.0389 265.234 37.0848 265.234 38.5966C265.234 40.038 266.315 41.0839 267.607 41.0839ZM267.607 55.5858C268.908 55.5858 269.989 54.5839 269.989 53.1073C269.989 51.6307 268.908 50.5497 267.607 50.5497C266.315 50.5497 265.234 51.6307 265.234 53.1073C265.234 54.5839 266.315 55.5858 267.607 55.5858ZM274.266 46.2958L283.486 46.2958L283.486 43.7821L274.266 43.7821L274.266 46.2958ZM286.758 46.2958L295.978 46.2958L295.978 43.7821L286.758 43.7821L286.758 46.2958Z" fill="#19191A" fill-opacity="1.000000" transform="matrix(1 0 0 1 15.0667 178.01)"/></g><path d="M3.31348 41L6.5918 41L6.5918 21.4531L3.31348 21.4531L3.31348 41ZM4.96582 17.4189C6.2666 17.4189 7.2334 16.5225 7.2334 15.292C7.2334 13.9648 6.2666 13.1738 4.96582 13.1738C3.67383 13.1738 2.69824 13.9648 2.69824 15.292C2.69824 16.5225 3.67383 17.4189 4.96582 17.4189ZM13.2135 41L16.4918 41L16.4918 26.8145C18.4693 24.8369 19.8316 23.8262 21.8531 23.8262C24.4459 23.8262 25.5621 25.373 25.5621 29.0469L25.5621 41L28.8316 41L28.8316 28.6162C28.8316 23.6152 26.9684 20.9521 22.8639 20.9521C20.192 20.9521 18.1793 22.4199 16.3072 24.2568L16.2018 24.2568L15.9117 21.4531L13.2135 21.4531L13.2135 41ZM41.3618 41.4658C42.5484 41.4658 43.8491 41.1055 44.9653 40.7451L44.315 38.3018C43.6646 38.5479 42.7681 38.8027 42.0825 38.8027C39.815 38.8027 39.0591 37.4316 39.0591 35.0234L39.0591 24.1162L44.3501 24.1162L44.3501 21.4531L39.0591 21.4531L39.0591 15.9775L36.3257 15.9775L35.9302 21.4531L32.8716 21.6289L32.8716 24.1162L35.7808 24.1162L35.7808 34.9531C35.7808 38.873 37.187 41.4658 41.3618 41.4658ZM59.0779 24.0459L61.9168 20.627L64.7645 24.0459L66.3465 22.8945L64.0437 19.1504L67.9637 17.5244L67.3572 15.6963L63.2527 16.6631L62.8924 12.3477L60.95 12.3477L60.5896 16.6982L56.4852 15.6963L55.8348 17.5244L59.7635 19.1504L57.4959 22.8945L59.0779 24.0459ZM73.6575 49.2441L76.9358 49.2441L76.9358 42.6172L76.8567 39.1982C78.6233 40.6396 80.4954 41.4658 82.262 41.4658C86.762 41.4658 90.7522 37.6162 90.7522 30.9189C90.7522 24.9072 88.0188 20.9521 82.9827 20.9521C80.7151 20.9521 78.5179 22.2441 76.7513 23.6855L76.6458 23.6855L76.3558 21.4531L73.6575 21.4531L73.6575 49.2441ZM81.7171 38.7324C80.4251 38.7324 78.6936 38.1963 76.9358 36.6758L76.9358 26.4189C78.8431 24.6523 80.5306 23.7207 82.1917 23.7207C85.8919 23.7207 87.3333 26.6387 87.3333 30.9541C87.3333 35.8145 84.9603 38.7324 81.7171 38.7324Z" fill="#19191A" fill-opacity="1.000000" transform="matrix(1 0 0 1 172.739 8.00952)"/><path d="M15 0L413.857 0C422.137 0 428.857 6.72 428.857 15L428.857 69C428.857 77.28 422.137 84 413.857 84L15 84C6.72 84 0 77.28 0 69L0 15C0 6.72 6.72 0 15 0Z" fill="#D6D5FD" fill-opacity="1.000000" transform="matrix(1 0 0 1 579.353 78.0096)"/><path d="M15 0L413.857 0C422.137 0 428.857 6.72 428.857 15L428.857 69C428.857 77.28 422.137 84 413.857 84L15 84C6.72 84 0 77.28 0 69L0 15C0 6.72 6.72 0 15 0Z" fill="none" stroke="#000000" stroke-opacity="1.000000" stroke-width="2" stroke-dasharray="0 0" transform="matrix(1 0 0 1 579.353 78.0096)"/><clipPath id="clip_5_60_0"><path d="M584.473 92.1296L1001.09 92.1296L1001.09 163.89L584.473 163.89L584.473 92.1296Z"/></clipPath><g clip-path="url(#clip_5_60_0)"><path d="M146.774 55.12L150.588 55.12L157.541 35.5731L154.297 35.5731L150.588 46.7001C150.017 48.6073 149.367 50.62 148.787 52.4569L148.646 52.4569C148.031 50.62 147.424 48.6073 146.809 46.7001L143.135 35.5731L139.716 35.5731L146.774 55.12ZM165.028 55.5858C167.436 55.5858 169.633 54.329 171.506 52.7821L171.611 52.7821L171.901 55.12L174.599 55.12L174.599 43.0966C174.599 38.2714 172.587 35.0721 167.832 35.0721C164.703 35.0721 161.934 36.4696 160.133 37.621L161.425 39.8886C162.971 38.8514 165.028 37.8055 167.296 37.8055C170.495 37.8055 171.33 40.2137 171.33 42.7362C163.007 43.6679 159.306 45.7948 159.306 50.0399C159.306 53.5731 161.75 55.5858 165.028 55.5858ZM165.96 52.9579C164.017 52.9579 162.506 52.0614 162.506 49.829C162.506 47.3065 164.738 45.6893 171.33 44.8983L171.33 50.3651C169.423 52.0614 167.867 52.9579 165.96 52.9579ZM184.286 55.5858C185.147 55.5858 185.728 55.4804 186.193 55.2958L185.728 52.7821C185.367 52.8524 185.227 52.8524 185.042 52.8524C184.541 52.8524 184.11 52.4569 184.11 51.4462L184.11 26.4677L180.832 26.4677L180.832 51.2352C180.832 54.0038 181.843 55.5858 184.286 55.5858ZM196.779 55.5858C199.477 55.5858 201.419 54.1884 203.256 52.0614L203.37 52.0614L203.616 55.12L206.359 55.12L206.359 35.5731L203.08 35.5731L203.08 49.4335C201.208 51.7714 199.802 52.747 197.789 52.747C195.197 52.747 194.115 51.2001 194.115 47.5614L194.115 35.5731L190.837 35.5731L190.837 47.9569C190.837 52.9227 192.674 55.5858 196.779 55.5858ZM220.828 55.5858C223.491 55.5858 225.583 54.6893 227.305 53.5731L226.119 51.411C224.677 52.3866 223.131 52.9579 221.223 52.9579C217.514 52.9579 214.957 50.2948 214.746 46.12L227.921 46.12C227.991 45.6542 228.061 44.9686 228.061 44.2479C228.061 38.6669 225.258 35.0721 220.283 35.0721C215.748 35.0721 211.467 39.0272 211.467 45.3641C211.467 51.8065 215.642 55.5858 220.828 55.5858ZM214.711 43.7821C215.106 39.9237 217.55 37.7001 220.327 37.7001C223.385 37.7001 225.178 39.8182 225.178 43.7821L214.711 43.7821ZM234.576 41.0839C235.876 41.0839 236.957 40.038 236.957 38.5966C236.957 37.0848 235.876 36.0389 234.576 36.0389C233.284 36.0389 232.202 37.0848 232.202 38.5966C232.202 40.038 233.284 41.0839 234.576 41.0839ZM234.576 55.5858C235.876 55.5858 236.957 54.5839 236.957 53.1073C236.957 51.6307 235.876 50.5497 234.576 50.5497C233.284 50.5497 232.202 51.6307 232.202 53.1073C232.202 54.5839 233.284 55.5858 234.576 55.5858ZM250.811 55.12L265.286 55.12L265.286 52.3866L259.995 52.3866L259.995 28.7352L257.473 28.7352C256.031 29.5614 254.344 30.1679 252.006 30.6073L252.006 32.6903L256.682 32.6903L256.682 52.3866L250.811 52.3866L250.811 55.12ZM277.637 55.5858C282.638 55.5858 285.846 51.0155 285.846 41.8397C285.846 32.6903 282.638 28.2255 277.637 28.2255C272.592 28.2255 269.393 32.6552 269.393 41.8397C269.393 51.0155 272.592 55.5858 277.637 55.5858ZM277.637 52.9579C274.614 52.9579 272.592 49.6093 272.592 41.8397C272.592 34.1317 274.614 30.8886 277.637 30.8886C280.626 30.8886 282.638 34.1317 282.638 41.8397C282.638 49.6093 280.626 52.9579 277.637 52.9579Z" fill="#19191A" fill-opacity="1.000000" transform="matrix(1 0 0 1 579.353 78.0096)"/></g><path d="M15 0L415.048 0C423.328 0 430.048 6.72 430.048 15L430.048 69C430.048 77.28 423.328 84 415.048 84L15 84C6.72 84 0 77.28 0 69L0 15C0 6.72 6.72 0 15 0Z" fill="#F8C4ED" fill-opacity="1.000000" transform="matrix(1 0 0 1 578.162 178.01)"/><path d="M15 0L415.048 0C423.328 0 430.048 6.72 430.048 15L430.048 69C430.048 77.28 423.328 84 415.048 84L15 84C6.72 84 0 77.28 0 69L0 15C0 6.72 6.72 0 15 0Z" fill="none" stroke="#000000" stroke-opacity="1.000000" stroke-width="2" stroke-dasharray="0 0" transform="matrix(1 0 0 1 578.162 178.01)"/><clipPath id="clip_5_61_0"><path d="M583.282 192.13L1001.09 192.13L1001.09 263.89L583.282 263.89L583.282 192.13Z"/></clipPath><g clip-path="url(#clip_5_61_0)"><path d="M21.4792 55.5858C23.8874 55.5858 26.0846 54.329 27.9567 52.7821L28.0622 52.7821L28.3522 55.12L31.0505 55.12L31.0505 43.0966C31.0505 38.2714 29.0378 35.0721 24.2829 35.0721C21.154 35.0721 18.3854 36.4696 16.5837 37.621L17.8757 39.8886C19.4225 38.8514 21.4792 37.8055 23.7468 37.8055C26.946 37.8055 27.7809 40.2137 27.7809 42.7362C19.4577 43.6679 15.7575 45.7948 15.7575 50.0399C15.7575 53.5731 18.2009 55.5858 21.4792 55.5858ZM22.4108 52.9579C20.4684 52.9579 18.9567 52.0614 18.9567 49.829C18.9567 47.3065 21.1891 45.6893 27.7809 44.8983L27.7809 50.3651C25.8737 52.0614 24.318 52.9579 22.4108 52.9579ZM43.9453 55.5858C46.2832 55.5858 48.331 54.329 49.8779 52.8173L49.957 52.8173L50.2734 55.12L52.9453 55.12L52.9453 26.4677L49.667 26.4677L49.667 33.9911L49.8427 37.3749C48.1201 35.9335 46.6435 35.0721 44.3408 35.0721C39.8759 35.0721 35.8769 39.0272 35.8769 45.3641C35.8769 51.8768 39.0498 55.5858 43.9453 55.5858ZM44.666 52.8524C41.2031 52.8524 39.2607 50.0399 39.2607 45.329C39.2607 40.8641 41.748 37.8407 44.9121 37.8407C46.5381 37.8407 48.0058 38.412 49.667 39.8886L49.667 50.1542C48.0498 51.9559 46.459 52.8524 44.666 52.8524ZM66.2653 55.5858C68.6032 55.5858 70.651 54.329 72.1979 52.8173L72.277 52.8173L72.5934 55.12L75.2653 55.12L75.2653 26.4677L71.987 26.4677L71.987 33.9911L72.1628 37.3749C70.4401 35.9335 68.9635 35.0721 66.6608 35.0721C62.196 35.0721 58.1969 39.0272 58.1969 45.3641C58.1969 51.8768 61.3698 55.5858 66.2653 55.5858ZM66.986 52.8524C63.5231 52.8524 61.5807 50.0399 61.5807 45.329C61.5807 40.8641 64.068 37.8407 67.2321 37.8407C68.8581 37.8407 70.3258 38.412 71.987 39.8886L71.987 50.1542C70.3698 51.9559 68.779 52.8524 66.986 52.8524ZM81.9232 55.12L85.2015 55.12L85.2015 42.5516C86.4935 39.2118 88.5062 38.0516 90.1322 38.0516C90.9232 38.0516 91.389 38.1307 92.0394 38.3768L92.6459 35.5028C92.0394 35.1776 91.4242 35.0721 90.5628 35.0721C88.3656 35.0721 86.388 36.6542 85.0169 39.1327L84.9115 39.1327L84.6214 35.5731L81.9232 35.5731L81.9232 55.12ZM103.379 55.5858C106.042 55.5858 108.134 54.6893 109.857 53.5731L108.67 51.411C107.229 52.3866 105.682 52.9579 103.774 52.9579C100.066 52.9579 97.5079 50.2948 97.297 46.12L110.472 46.12C110.542 45.6542 110.612 44.9686 110.612 44.2479C110.612 38.6669 107.809 35.0721 102.834 35.0721C98.2989 35.0721 94.0186 39.0272 94.0186 45.3641C94.0186 51.8065 98.1934 55.5858 103.379 55.5858ZM97.2618 43.7821C97.6573 39.9237 100.101 37.7001 102.878 37.7001C105.937 37.7001 107.73 39.8182 107.73 43.7821L97.2618 43.7821ZM120.546 55.5858C125.16 55.5858 127.674 52.9579 127.674 49.7938C127.674 46.0848 124.545 44.9335 121.706 43.8524C119.509 43.0262 117.382 42.3407 117.382 40.4686C117.382 38.9569 118.498 37.6561 120.95 37.6561C122.708 37.6561 124.079 38.3768 125.45 39.3876L127.032 37.2606C125.485 36.0741 123.358 35.0721 120.95 35.0721C116.696 35.0721 114.218 37.5155 114.218 40.6093C114.218 43.9227 117.311 45.2587 120.045 46.2606C122.207 47.0956 124.51 47.9921 124.51 49.9696C124.51 51.6659 123.253 53.0282 120.66 53.0282C118.322 53.0282 116.555 52.0966 114.859 50.7255L113.242 52.8876C115.114 54.4345 117.777 55.5858 120.546 55.5858ZM137.394 55.5858C142.008 55.5858 144.522 52.9579 144.522 49.7938C144.522 46.0848 141.393 44.9335 138.554 43.8524C136.357 43.0262 134.23 42.3407 134.23 40.4686C134.23 38.9569 135.346 37.6561 137.798 37.6561C139.556 37.6561 140.927 38.3768 142.298 39.3876L143.88 37.2606C142.333 36.0741 140.206 35.0721 137.798 35.0721C133.544 35.0721 131.066 37.5155 131.066 40.6093C131.066 43.9227 134.159 45.2587 136.893 46.2606C139.055 47.0956 141.358 47.9921 141.358 49.9696C141.358 51.6659 140.101 53.0282 137.508 53.0282C135.17 53.0282 133.403 52.0966 131.707 50.7255L130.09 52.8876C131.962 54.4345 134.625 55.5858 137.394 55.5858ZM150.823 41.0839C152.123 41.0839 153.205 40.038 153.205 38.5966C153.205 37.0848 152.123 36.0389 150.823 36.0389C149.531 36.0389 148.45 37.0848 148.45 38.5966C148.45 40.038 149.531 41.0839 150.823 41.0839ZM150.823 55.5858C152.123 55.5858 153.205 54.5839 153.205 53.1073C153.205 51.6307 152.123 50.5497 150.823 50.5497C149.531 50.5497 148.45 51.6307 148.45 53.1073C148.45 54.5839 149.531 55.5858 150.823 55.5858Z" fill="#19191A" fill-opacity="1.000000" transform="matrix(1 0 0 1 578.162 178.01)"/><path d="M173.904 55.0233Q181.551 55.0233 181.551 41.8397Q181.551 28.788 173.904 28.788Q166.223 28.788 166.223 41.8397Q166.223 55.0233 173.904 55.0233ZM173.904 56.1483Q169.723 56.1483 167.414 52.4517Q165.098 48.7452 165.098 41.8397Q165.098 34.9417 167.416 31.2871Q169.714 27.663 173.904 27.663Q178.062 27.663 180.36 31.3012Q182.676 34.9687 182.676 41.8397Q182.676 48.7384 180.362 52.4512Q178.057 56.1483 173.904 56.1483ZM173.904 53.5204Q168.297 53.5204 168.297 41.8397Q168.297 30.3261 173.904 30.3261Q179.468 30.3261 179.468 41.8397Q179.468 53.5204 173.904 53.5204ZM173.904 52.3954Q178.343 52.3954 178.343 41.8397Q178.343 31.4511 173.904 31.4511Q169.422 31.4511 169.422 41.8397Q169.422 52.3954 173.904 52.3954ZM173.904 52.9579C176.893 52.9579 178.905 49.6093 178.905 41.8397C178.905 34.1317 176.893 30.8886 173.904 30.8886C170.881 30.8886 168.86 34.1317 168.86 41.8397C168.86 49.6093 170.881 52.9579 173.904 52.9579ZM173.904 55.5858C168.86 55.5858 165.66 51.0155 165.66 41.8397C165.66 32.6552 168.86 28.2255 173.904 28.2255C178.905 28.2255 182.113 32.6903 182.113 41.8397C182.113 51.0155 178.905 55.5858 173.904 55.5858ZM184.41 54.5575L187.873 54.5575L187.873 55.12L187.385 54.8396L190.013 50.2693Q190.202 49.9376 190.578 49.2694Q191.536 47.5677 192.034 46.7573L192.199 46.4891L193.006 46.4891L193.172 46.7492Q194.36 48.6117 195.274 50.2793L194.781 50.5497L195.257 50.2496L198.14 54.8199L197.664 55.12L197.664 54.5575L201.259 54.5575L201.259 55.12L200.788 55.4276L194.15 45.2681L200.278 35.279L200.758 35.5731L200.758 36.1356L197.339 36.1356L197.339 35.5731L197.829 35.848L195.412 40.1634L194.922 39.8886L195.419 40.1514Q194.416 42.0494 193.654 43.4069L193.493 43.6942L192.694 43.6942L192.531 43.4188Q192.286 43.0058 191.781 42.177Q190.966 40.8393 190.583 40.1668L191.072 39.8886L190.592 40.1811L187.964 35.8657L188.444 35.5731L188.444 36.1356L184.92 36.1356L184.92 35.5731L185.395 35.2717L191.527 44.9331L184.885 55.421L184.41 55.12L184.41 54.5575ZM183.388 55.6825L190.386 44.6325L190.861 44.9335L190.386 45.2349L183.896 35.0106L188.76 35.0106L191.557 39.6031L191.561 39.6103Q191.935 40.2683 192.741 41.5917Q193.25 42.4261 193.498 42.8446L193.014 43.1317L193.014 42.5692L193.164 42.5692L193.164 43.1317L192.673 42.8565Q193.428 41.5114 194.424 39.6257L194.427 39.6197L197.009 35.0106L201.763 35.0106L195.296 45.5528L194.816 45.2587L195.287 44.951L202.298 55.6825L197.354 55.6825L194.296 50.8352L194.288 50.8201Q193.392 49.1852 192.224 47.3541L192.698 47.0516L192.698 47.6141L192.513 47.6141L192.513 47.0516L192.993 47.346Q192.506 48.1382 191.559 49.8213Q191.181 50.4924 190.988 50.8301L188.198 55.6825L184.41 55.6825L183.388 55.6825ZM184.41 55.12L190.861 44.9335L184.92 35.5731L188.444 35.5731L191.072 39.8886C191.687 40.9696 192.373 42.0507 193.014 43.1317L193.164 43.1317C193.77 42.0507 194.35 40.9696 194.922 39.8886L197.339 35.5731L200.758 35.5731L194.816 45.2587L201.259 55.12L197.664 55.12L194.781 50.5497C194.131 49.3632 193.41 48.1679 192.698 47.0516L192.513 47.0516C191.828 48.1679 191.177 49.3632 190.501 50.5497L187.873 55.12L184.41 55.12ZM205.405 54.5575L213.825 54.5575Q223.273 54.5575 223.273 47.3768Q223.273 42.5822 218.325 41.6364L217.868 41.549L217.868 40.4879L218.26 40.3633Q221.762 39.2497 221.762 35.1776Q221.762 29.2977 213.254 29.2977L205.405 29.2977L205.405 28.7352L205.968 28.7352L205.968 55.12L205.405 55.12L205.405 54.5575ZM204.843 55.6825L204.843 28.1727L213.254 28.1727Q222.887 28.1727 222.887 35.1776Q222.887 40.0724 218.601 41.4353L218.431 40.8993L218.993 40.8993L218.993 41.0839L218.431 41.0839L218.536 40.5314Q224.398 41.6518 224.398 47.3768Q224.398 51.4424 221.377 53.6474Q218.588 55.6825 213.825 55.6825L205.405 55.6825L204.843 55.6825ZM208.191 39.9677L208.191 30.8007L212.814 30.8007Q219.608 30.8007 219.608 35.6083Q219.608 40.5302 212.674 40.5302L208.191 40.5302L208.191 39.9677ZM209.316 39.9677L208.754 39.9677L208.754 39.4052L212.674 39.4052Q218.483 39.4052 218.483 35.6083Q218.483 31.9257 212.814 31.9257L208.754 31.9257L208.754 31.3632L209.316 31.3632L209.316 39.9677ZM208.191 52.4569L208.191 41.954L213.359 41.954Q221.12 41.954 221.12 47.2714Q221.12 53.0194 213.359 53.0194L208.191 53.0194L208.191 52.4569ZM209.316 52.4569L208.754 52.4569L208.754 51.8944L213.359 51.8944Q219.995 51.8944 219.995 47.2714Q219.995 43.079 213.359 43.079L208.754 43.079L208.754 42.5165L209.316 42.5165L209.316 52.4569ZM208.754 52.4569L213.359 52.4569C217.895 52.4569 220.558 50.8397 220.558 47.2714C220.558 43.993 217.965 42.5165 213.359 42.5165L208.754 42.5165L208.754 52.4569ZM208.754 39.9677L212.674 39.9677C217.209 39.9677 219.046 38.2714 219.046 35.6083C219.046 32.5145 216.919 31.3632 212.814 31.3632L208.754 31.3632L208.754 39.9677ZM205.405 55.12L205.405 28.7352L213.254 28.7352C218.615 28.7352 222.324 30.5282 222.324 35.1776C222.324 37.8055 220.918 40.1083 218.431 40.8993L218.431 41.0839C221.604 41.6903 223.836 43.7821 223.836 47.3768C223.836 52.5624 219.731 55.12 213.825 55.12L205.405 55.12ZM229.057 54.5575L237.477 54.5575Q246.925 54.5575 246.925 47.3768Q246.925 42.5822 241.977 41.6364L241.52 41.549L241.52 40.4879L241.912 40.3633Q245.414 39.2497 245.414 35.1776Q245.414 29.2977 236.906 29.2977L229.057 29.2977L229.057 28.7352L229.62 28.7352L229.62 55.12L229.057 55.12L229.057 54.5575ZM228.495 55.6825L228.495 28.1727L236.906 28.1727Q246.539 28.1727 246.539 35.1776Q246.539 40.0724 242.253 41.4353L242.083 40.8993L242.645 40.8993L242.645 41.0839L242.083 41.0839L242.188 40.5314Q248.05 41.6518 248.05 47.3768Q248.05 51.4424 245.029 53.6474Q242.24 55.6825 237.477 55.6825L229.057 55.6825L228.495 55.6825ZM231.843 39.9677L231.843 30.8007L236.466 30.8007Q243.26 30.8007 243.26 35.6083Q243.26 40.5302 236.326 40.5302L231.843 40.5302L231.843 39.9677ZM232.968 39.9677L232.406 39.9677L232.406 39.4052L236.326 39.4052Q242.135 39.4052 242.135 35.6083Q242.135 31.9257 236.466 31.9257L232.406 31.9257L232.406 31.3632L232.968 31.3632L232.968 39.9677ZM231.843 52.4569L231.843 41.954L237.011 41.954Q244.772 41.954 244.772 47.2714Q244.772 53.0194 237.011 53.0194L231.843 53.0194L231.843 52.4569ZM232.968 52.4569L232.406 52.4569L232.406 51.8944L237.011 51.8944Q243.647 51.8944 243.647 47.2714Q243.647 43.079 237.011 43.079L232.406 43.079L232.406 42.5165L232.968 42.5165L232.968 52.4569ZM232.406 52.4569L237.011 52.4569C241.547 52.4569 244.21 50.8397 244.21 47.2714C244.21 43.993 241.617 42.5165 237.011 42.5165L232.406 42.5165L232.406 52.4569ZM232.406 39.9677L236.326 39.9677C240.861 39.9677 242.698 38.2714 242.698 35.6083C242.698 32.5145 240.571 31.3632 236.466 31.3632L232.406 31.3632L232.406 39.9677ZM229.057 55.12L229.057 28.7352L236.906 28.7352C242.267 28.7352 245.976 30.5282 245.976 35.1776C245.976 37.8055 244.57 40.1083 242.083 40.8993L242.083 41.0839C245.256 41.6903 247.488 43.7821 247.488 47.3768C247.488 52.5624 243.383 55.12 237.477 55.12L229.057 55.12ZM259.117 55.0233Q266.763 55.0233 266.763 41.8397Q266.763 28.788 259.117 28.788Q251.435 28.788 251.435 41.8397Q251.435 55.0233 259.117 55.0233ZM259.117 56.1483Q254.935 56.1483 252.626 52.4517Q250.31 48.7452 250.31 41.8397Q250.31 34.9417 252.628 31.2871Q254.926 27.663 259.117 27.663Q263.274 27.663 265.572 31.3012Q267.888 34.9687 267.888 41.8397Q267.888 48.7384 265.574 52.4512Q263.269 56.1483 259.117 56.1483ZM259.117 53.5204Q253.509 53.5204 253.509 41.8397Q253.509 30.3261 259.117 30.3261Q264.68 30.3261 264.68 41.8397Q264.68 53.5204 259.117 53.5204ZM259.117 52.3954Q263.555 52.3954 263.555 41.8397Q263.555 31.4511 259.117 31.4511Q254.634 31.4511 254.634 41.8397Q254.634 52.3954 259.117 52.3954ZM259.117 52.9579C262.105 52.9579 264.117 49.6093 264.117 41.8397C264.117 34.1317 262.105 30.8886 259.117 30.8886C256.093 30.8886 254.072 34.1317 254.072 41.8397C254.072 49.6093 256.093 52.9579 259.117 52.9579ZM259.117 55.5858C254.072 55.5858 250.872 51.0155 250.872 41.8397C250.872 32.6552 254.072 28.2255 259.117 28.2255C264.117 28.2255 267.326 32.6903 267.326 41.8397C267.326 51.0155 264.117 55.5858 259.117 55.5858ZM272.758 44.9111L278.769 35.9111L279.237 36.2235L278.751 35.9409Q280.033 33.734 280.861 32.0784L281.016 31.7675L282.097 31.7675L282.066 32.3588Q282.05 32.6752 282.009 33.4068Q281.856 36.1406 281.856 37.12L281.856 45.786L272.173 45.786L272.758 44.9111ZM273.693 45.536L273.225 45.2235L273.225 44.661L281.294 44.661L281.294 45.2235L280.731 45.2235L280.731 37.12Q280.731 36.1091 280.886 33.3439Q280.927 32.6148 280.943 32.3012L281.505 32.33L281.505 32.8925L281.364 32.8925L281.364 32.33L281.867 32.5815Q281.024 34.2687 279.724 36.5061L279.715 36.5213L273.693 45.536ZM287.912 45.786L283.86 45.786L283.86 28.7352L284.423 28.7352L284.423 29.2977L280.784 29.2977L280.784 28.7352L281.256 29.041L270.279 45.9951L269.807 45.6893L270.369 45.6893L270.369 47.8514L269.807 47.8514L269.807 47.2889L281.856 47.2889L281.856 55.12L281.294 55.12L281.294 54.5575L284.423 54.5575L284.423 55.12L283.86 55.12L283.86 47.2889L287.912 47.2889L287.912 47.8514L287.349 47.8514L287.349 45.2235L287.912 45.2235L287.912 45.786ZM288.474 44.661L288.474 48.4139L284.423 48.4139L284.423 47.8514L284.985 47.8514L284.985 55.6825L280.731 55.6825L280.731 47.8514L281.294 47.8514L281.294 48.4139L269.244 48.4139L269.244 45.5231L280.478 28.1727L284.985 28.1727L284.985 45.2235L284.423 45.2235L284.423 44.661L287.912 44.661L288.474 44.661ZM287.912 45.2235L287.912 47.8514L284.423 47.8514L284.423 55.12L281.294 55.12L281.294 47.8514L269.807 47.8514L269.807 45.6893L280.784 28.7352L284.423 28.7352L284.423 45.2235L287.912 45.2235ZM273.225 45.2235L281.294 45.2235L281.294 37.12C281.294 35.828 281.434 33.7011 281.505 32.33L281.364 32.33C280.714 33.6307 279.993 34.9227 279.237 36.2235L273.225 45.2235ZM292.669 54.5575L301.089 54.5575Q310.537 54.5575 310.537 47.3768Q310.537 42.5822 305.589 41.6364L305.132 41.549L305.132 40.4879L305.524 40.3633Q309.026 39.2497 309.026 35.1776Q309.026 29.2977 300.518 29.2977L292.669 29.2977L292.669 28.7352L293.232 28.7352L293.232 55.12L292.669 55.12L292.669 54.5575ZM292.107 55.6825L292.107 28.1727L300.518 28.1727Q310.151 28.1727 310.151 35.1776Q310.151 40.0724 305.865 41.4353L305.695 40.8993L306.257 40.8993L306.257 41.0839L305.695 41.0839L305.8 40.5314Q311.662 41.6518 311.662 47.3768Q311.662 51.4424 308.641 53.6474Q305.852 55.6825 301.089 55.6825L292.669 55.6825L292.107 55.6825ZM295.455 39.9677L295.455 30.8007L300.078 30.8007Q306.872 30.8007 306.872 35.6083Q306.872 40.5302 299.938 40.5302L295.455 40.5302L295.455 39.9677ZM296.58 39.9677L296.018 39.9677L296.018 39.4052L299.938 39.4052Q305.747 39.4052 305.747 35.6083Q305.747 31.9257 300.078 31.9257L296.018 31.9257L296.018 31.3632L296.58 31.3632L296.58 39.9677ZM295.455 52.4569L295.455 41.954L300.623 41.954Q308.384 41.954 308.384 47.2714Q308.384 53.0194 300.623 53.0194L295.455 53.0194L295.455 52.4569ZM296.58 52.4569L296.018 52.4569L296.018 51.8944L300.623 51.8944Q307.259 51.8944 307.259 47.2714Q307.259 43.079 300.623 43.079L296.018 43.079L296.018 42.5165L296.58 42.5165L296.58 52.4569ZM296.018 52.4569L300.623 52.4569C305.159 52.4569 307.822 50.8397 307.822 47.2714C307.822 43.993 305.229 42.5165 300.623 42.5165L296.018 42.5165L296.018 52.4569ZM296.018 39.9677L299.938 39.9677C304.473 39.9677 306.31 38.2714 306.31 35.6083C306.31 32.5145 304.183 31.3632 300.078 31.3632L296.018 31.3632L296.018 39.9677ZM292.669 55.12L292.669 28.7352L300.518 28.7352C305.879 28.7352 309.588 30.5282 309.588 35.1776C309.588 37.8055 308.182 40.1083 305.695 40.8993L305.695 41.0839C308.868 41.6903 311.1 43.7821 311.1 47.3768C311.1 52.5624 306.995 55.12 301.089 55.12L292.669 55.12ZM319.056 44.2156L320.356 40.1902Q322.047 34.7663 322.976 31.2883L323.088 30.871L324.086 30.871L324.202 31.281Q325.716 36.6601 326.858 40.19L328.355 44.9511L318.818 44.9511L319.056 44.2156ZM320.126 44.5615L319.591 44.3886L319.591 43.8261L327.589 43.8261L327.589 44.3886L327.052 44.5573L325.788 40.5363Q324.639 36.9858 323.119 31.5859L323.66 31.4335L323.66 31.996L323.52 31.996L323.52 31.4335L324.063 31.5786Q323.128 35.079 321.427 40.5361L320.126 44.5615ZM330.938 54.5575L334.462 54.5575L334.462 55.12L333.929 55.301L324.965 28.9162L325.497 28.7352L325.497 29.2977L321.788 29.2977L321.788 28.7352L322.321 28.9162L313.356 55.301L312.823 55.12L312.823 54.5575L316.207 54.5575L316.207 55.12L315.671 54.95L318.353 46.4891L328.829 46.4891L331.474 54.9522L330.938 55.12L330.938 54.5575ZM330.524 55.6825L327.878 47.2195L328.415 47.0516L328.415 47.6141L318.765 47.6141L318.765 47.0516L319.301 47.2216L316.619 55.6825L312.038 55.6825L321.385 28.1727L325.9 28.1727L335.247 55.6825L330.938 55.6825L330.524 55.6825ZM330.938 55.12L328.415 47.0516L318.765 47.0516L316.207 55.12L312.823 55.12L321.788 28.7352L325.497 28.7352L334.462 55.12L330.938 55.12ZM319.591 44.3886L327.589 44.3886L326.323 40.3632C325.357 37.3749 324.522 34.4921 323.66 31.4335L323.52 31.4335C322.693 34.5272 321.823 37.3749 320.892 40.3632L319.591 44.3886ZM338.173 54.5575L341.522 54.5575L341.522 55.12L340.959 55.12L340.959 42.7098L351.594 42.7098L351.594 43.2723L351.032 43.2723L351.032 40.4686L351.594 40.4686L351.594 41.0311L340.959 41.0311L340.959 30.9764L353.396 30.9764L353.396 31.5389L352.833 31.5389L352.833 28.7352L353.396 28.7352L353.396 29.2977L338.173 29.2977L338.173 28.7352L338.736 28.7352L338.736 55.12L338.173 55.12L338.173 54.5575ZM337.611 55.6825L337.611 28.1727L353.958 28.1727L353.958 32.1014L341.522 32.1014L341.522 31.5389L342.084 31.5389L342.084 40.4686L341.522 40.4686L341.522 39.9061L352.157 39.9061L352.157 43.8348L341.522 43.8348L341.522 43.2723L342.084 43.2723L342.084 55.6825L338.173 55.6825L337.611 55.6825ZM338.173 55.12L338.173 28.7352L353.396 28.7352L353.396 31.5389L341.522 31.5389L341.522 40.4686L351.594 40.4686L351.594 43.2723L341.522 43.2723L341.522 55.12L338.173 55.12ZM361.57 54.5575L364.989 54.5575L364.989 55.12L364.427 55.0985Q364.75 46.6539 366.145 41.8658Q367.827 36.094 372.288 30.3671L372.732 30.7128L372.169 30.7128L372.169 28.7352L372.732 28.7352L372.732 29.2977L356.208 29.2977L356.208 28.7352L356.771 28.7352L356.771 31.5389L356.208 31.5389L356.208 30.9764L370.082 30.9764L369.445 31.8663Q365.693 37.1097 364.046 42.4408Q362.457 47.5847 362.132 55.1442L361.57 55.12L361.57 54.5575ZM361.57 55.6825L360.983 55.6825L361.008 55.0958Q361.339 47.3912 362.971 42.1087Q364.672 36.6033 368.53 31.2116L368.988 31.5389L368.988 32.1014L355.646 32.1014L355.646 28.1727L373.294 28.1727L373.294 30.906L373.176 31.0585Q368.847 36.6155 367.225 42.1806Q365.869 46.8355 365.551 55.1415L365.53 55.6825L361.57 55.6825ZM361.57 55.12C362 45.1093 363.837 38.7372 368.988 31.5389L356.208 31.5389L356.208 28.7352L372.732 28.7352L372.732 30.7128C366.536 38.6669 365.384 44.7841 364.989 55.12L361.57 55.12ZM383.923 55.0233Q387.345 55.0233 389.549 53.164Q391.824 51.2447 391.824 48.0624Q391.824 43.1064 386.644 41.9133L386.208 41.8128L386.208 40.834L386.574 40.6975Q390.928 39.0733 390.928 34.8524Q390.928 32.0073 388.957 30.3809Q387.027 28.788 383.817 28.788Q380.086 28.788 376.816 31.8113L376.435 31.3983L376.864 31.0345L378.63 33.1175L378.201 33.4813L377.803 33.0836Q380.491 30.3959 383.658 30.2912L383.675 30.2907L383.691 30.2911Q385.962 30.3495 387.321 31.6396Q388.704 32.9517 388.704 35.1073Q388.704 40.7059 380.829 40.7059L380.829 40.1434L381.392 40.1434L381.392 42.6659L380.829 42.6659L380.829 42.1034Q389.601 42.1034 389.601 47.9569Q389.601 50.4473 387.905 51.9584Q386.271 53.4149 383.677 53.4149Q379.772 53.4149 376.714 50.2178L377.12 49.829L377.567 50.1705L375.915 52.3326L375.468 51.9911L375.882 51.6102Q379.022 55.0233 383.923 55.0233ZM383.923 56.1483Q378.529 56.1483 375.054 52.372L374.734 52.0246L377.072 48.9652L377.527 49.4402Q380.252 52.2899 383.677 52.2899Q385.842 52.2899 387.156 51.1185Q388.476 49.943 388.476 47.9569Q388.476 43.2284 380.829 43.2284L380.267 43.2284L380.267 39.5809L380.829 39.5809Q387.579 39.5809 387.579 35.1073Q387.579 31.5165 383.662 31.4157L383.677 30.8534L383.695 31.4156Q380.972 31.5056 378.599 33.8791L378.167 34.3109L375.657 31.3512L376.053 30.9853Q379.645 27.663 383.817 27.663Q387.431 27.663 389.673 29.5132Q392.053 31.4772 392.053 34.8524Q392.053 39.8544 386.967 41.7515L386.77 41.2245L387.333 41.2245L387.333 41.3651L386.77 41.3651L386.897 40.817Q389.531 41.4238 391.172 43.2614Q392.949 45.253 392.949 48.0624Q392.949 51.7676 390.274 54.024Q387.756 56.1483 383.923 56.1483ZM383.923 55.5858C379.783 55.5858 377.19 53.8632 375.468 51.9911L377.12 49.829C378.667 51.4462 380.688 52.8524 383.677 52.8524C386.806 52.8524 389.038 50.9804 389.038 47.9569C389.038 44.7841 386.911 42.6659 380.829 42.6659L380.829 40.1434C386.27 40.1434 388.142 37.9462 388.142 35.1073C388.142 32.5497 386.41 30.9237 383.677 30.8534C381.55 30.9237 379.678 32.0048 378.201 33.4813L376.435 31.3983C378.421 29.5614 380.759 28.2255 383.817 28.2255C388.247 28.2255 391.49 30.6073 391.49 34.8524C391.49 38.0516 389.574 40.1786 386.77 41.2245L386.77 41.3651C389.899 42.0858 392.387 44.4677 392.387 48.0624C392.387 52.7821 388.607 55.5858 383.923 55.5858ZM398.074 44.9111L404.085 35.9111L404.553 36.2235L404.067 35.9409Q405.349 33.734 406.177 32.0784L406.333 31.7675L407.413 31.7675L407.383 32.3588Q407.366 32.6752 407.325 33.4068Q407.172 36.1406 407.172 37.12L407.172 45.786L397.489 45.786L398.074 44.9111ZM399.009 45.536L398.542 45.2235L398.542 44.661L406.61 44.661L406.61 45.2235L406.047 45.2235L406.047 37.12Q406.047 36.1091 406.202 33.3439Q406.243 32.6148 406.259 32.3012L406.821 32.33L406.821 32.8925L406.68 32.8925L406.68 32.33L407.183 32.5815Q406.34 34.2687 405.04 36.5061L405.031 36.5213L399.009 45.536ZM413.228 45.786L409.176 45.786L409.176 28.7352L409.739 28.7352L409.739 29.2977L406.1 29.2977L406.1 28.7352L406.572 29.041L395.595 45.9951L395.123 45.6893L395.685 45.6893L395.685 47.8514L395.123 47.8514L395.123 47.2889L407.172 47.2889L407.172 55.12L406.61 55.12L406.61 54.5575L409.739 54.5575L409.739 55.12L409.176 55.12L409.176 47.2889L413.228 47.2889L413.228 47.8514L412.666 47.8514L412.666 45.2235L413.228 45.2235L413.228 45.786ZM413.791 44.661L413.791 48.4139L409.739 48.4139L409.739 47.8514L410.301 47.8514L410.301 55.6825L406.047 55.6825L406.047 47.8514L406.61 47.8514L406.61 48.4139L394.56 48.4139L394.56 45.5231L405.794 28.1727L410.301 28.1727L410.301 45.2235L409.739 45.2235L409.739 44.661L413.228 44.661L413.791 44.661ZM413.228 45.2235L413.228 47.8514L409.739 47.8514L409.739 55.12L406.61 55.12L406.61 47.8514L395.123 47.8514L395.123 45.6893L406.1 28.7352L409.739 28.7352L409.739 45.2235L413.228 45.2235ZM398.542 45.2235L406.61 45.2235L406.61 37.12C406.61 35.828 406.75 33.7011 406.821 32.33L406.68 32.33C406.03 33.6307 405.309 34.9227 404.553 36.2235L398.542 45.2235Z" fill="#19191A" fill-opacity="1.000000" transform="matrix(1 0 0 1 578.162 178.01)"/></g><path d="M3.31348 41L6.5918 41L6.5918 21.4531L3.31348 21.4531L3.31348 41ZM4.96582 17.4189C6.2666 17.4189 7.2334 16.5225 7.2334 15.292C7.2334 13.9648 6.2666 13.1738 4.96582 13.1738C3.67383 13.1738 2.69824 13.9648 2.69824 15.292C2.69824 16.5225 3.67383 17.4189 4.96582 17.4189ZM13.2135 41L16.4918 41L16.4918 26.8145C18.4693 24.8369 19.8316 23.8262 21.8531 23.8262C24.4459 23.8262 25.5621 25.373 25.5621 29.0469L25.5621 41L28.8316 41L28.8316 28.6162C28.8316 23.6152 26.9684 20.9521 22.8639 20.9521C20.192 20.9521 18.1793 22.4199 16.3072 24.2568L16.2018 24.2568L15.9117 21.4531L13.2135 21.4531L13.2135 41ZM41.3618 41.4658C42.5484 41.4658 43.8491 41.1055 44.9653 40.7451L44.315 38.3018C43.6646 38.5479 42.7681 38.8027 42.0825 38.8027C39.815 38.8027 39.0591 37.4316 39.0591 35.0234L39.0591 24.1162L44.3501 24.1162L44.3501 21.4531L39.0591 21.4531L39.0591 15.9775L36.3257 15.9775L35.9302 21.4531L32.8716 21.6289L32.8716 24.1162L35.7808 24.1162L35.7808 34.9531C35.7808 38.873 37.187 41.4658 41.3618 41.4658ZM61.3455 41.4658C63.7537 41.4658 65.951 40.209 67.823 38.6621L67.9285 38.6621L68.2186 41L70.9168 41L70.9168 28.9766C70.9168 24.1514 68.9041 20.9521 64.1492 20.9521C61.0203 20.9521 58.2518 22.3496 56.45 23.501L57.742 25.7686C59.2889 24.7314 61.3455 23.6855 63.6131 23.6855C66.8123 23.6855 67.6473 26.0938 67.6473 28.6162C59.324 29.5479 55.6238 31.6748 55.6238 35.9199C55.6238 39.4531 58.0672 41.4658 61.3455 41.4658ZM62.2771 38.8379C60.3348 38.8379 58.823 37.9414 58.823 35.709C58.823 33.1865 61.0555 31.5693 67.6473 30.7783L67.6473 36.2451C65.74 37.9414 64.1844 38.8379 62.2771 38.8379Z" fill="#19191A" fill-opacity="1.000000" transform="matrix(1 0 0 1 735.835 6.81909)"/><path d="M135.429 100L125.037 94L125.037 106L135.429 100Z" transform="matrix(1 0 0 1 442.733 120.01)" fill="#19191A" fill-opacity="1.000000" stroke="none"/><path d="M0 0C58.6836 0 73.7021 93.3699 129.441 99.6666" fill="none" stroke="#19191A" stroke-opacity="1.000000" stroke-width="2" stroke-linejoin="round" stroke-dasharray="0 0" transform="matrix(1 0 0 1 442.733 120.01)"/></svg>