<svg xmlns="http://www.w3.org/2000/svg" xmlns:xlink="http://www.w3.org/1999/xlink" width="571.045044" height="731.568542" viewBox="0 0 571.045 731.569"><path d="M15 0L145.325 0C153.605 0 160.325 6.72 160.325 15L160.325 145.544C160.325 153.824 153.605 160.544 145.325 160.544L15 160.544C6.72 160.544 0 153.824 0 145.544L0 15C0 6.72 6.72 0 15 0Z" fill="#F8C4ED" fill-opacity="1.000000" transform="matrix(1 0 0 1 13.3678 13.3677)"/><path d="M15 0L145.325 0C153.605 0 160.325 6.72 160.325 15L160.325 145.544C160.325 153.824 153.605 160.544 145.325 160.544L15 160.544C6.72 160.544 0 153.824 0 145.544L0 15C0 6.72 6.72 0 15 0Z" fill="none" stroke="#000000" stroke-opacity="1.000000" stroke-width="2" stroke-dasharray="0 0" transform="matrix(1 0 0 1 13.3678 13.3677)"/><clipPath id="clip_5_102_0"><path d="M20.7776 56.7774L164.284 56.7774L164.284 200.502L20.7776 200.502L20.7776 56.7774Z"/></clipPath><g clip-path="url(#clip_5_102_0)"><path d="M70.0614 97.4098L89.3622 97.4098L89.3622 93.7652L82.3075 93.7652L82.3075 62.2301L78.9442 62.2301C77.0224 63.3316 74.7724 64.1402 71.6552 64.7262L71.6552 67.5035L77.8896 67.5035L77.8896 93.7652L70.0614 93.7652L70.0614 97.4098Z" fill="#19191A" fill-opacity="1.000000" transform="matrix(1 0 0 1 13.3678 13.3677)"/></g><path d="M15 0L145.325 0C153.605 0 160.325 6.72 160.325 15L160.325 145.544C160.325 153.824 153.605 160.544 145.325 160.544L15 160.544C6.72 160.544 0 153.824 0 145.544L0 15C0 6.72 6.72 0 15 0Z" fill="#F8C4ED" fill-opacity="1.000000" transform="matrix(1 0 0 1 205.36 13.3677)"/><path d="M15 0L145.325 0C153.605 0 160.325 6.72 160.325 15L160.325 145.544C160.325 153.824 153.605 160.544 145.325 160.544L15 160.544C6.72 160.544 0 153.824 0 145.544L0 15C0 6.72 6.72 0 15 0Z" fill="none" stroke="#000000" stroke-opacity="1.000000" stroke-width="2" stroke-dasharray="0 0" transform="matrix(1 0 0 1 205.36 13.3677)"/><clipPath id="clip_5_103_0"><path d="M212.77 56.7774L356.276 56.7774L356.276 200.502L212.77 200.502L212.77 56.7774Z"/></clipPath><g clip-path="url(#clip_5_103_0)"><path d="M70.0614 97.4098L89.3622 97.4098L89.3622 93.7652L82.3075 93.7652L82.3075 62.2301L78.9442 62.2301C77.0224 63.3316 74.7724 64.1402 71.6552 64.7262L71.6552 67.5035L77.8896 67.5035L77.8896 93.7652L70.0614 93.7652L70.0614 97.4098Z" fill="#19191A" fill-opacity="1.000000" transform="matrix(1 0 0 1 205.36 13.3677)"/></g><path d="M15 0L145.325 0C153.605 0 160.325 6.72 160.325 15L160.325 145.544C160.325 153.824 153.605 160.544 145.325 160.544L15 160.544C6.72 160.544 0 153.824 0 145.544L0 15C0 6.72 6.72 0 15 0Z" fill="#C4D9FD" fill-opacity="1.000000" transform="matrix(1 0 0 1 397.352 13.3677)"/><path d="M15 0L145.325 0C153.605 0 160.325 6.72 160.325 15L160.325 145.544C160.325 153.824 153.605 160.544 145.325 160.544L15 160.544C6.72 160.544 0 153.824 0 145.544L0 15C0 6.72 6.72 0 15 0Z" fill="none" stroke="#000000" stroke-opacity="1.000000" stroke-width="2" stroke-dasharray="0 0" transform="matrix(1 0 0 1 397.352 13.3677)"/><clipPath id="clip_5_104_0"><path d="M404.762 56.7774L548.268 56.7774L548.268 200.502L404.762 200.502L404.762 56.7774Z"/></clipPath><g clip-path="url(#clip_5_104_0)"><path d="M79.1903 98.0309C85.8583 98.0309 90.1357 91.9371 90.1357 79.7027C90.1357 67.5035 85.8583 61.5504 79.1903 61.5504C72.4638 61.5504 68.1982 67.4566 68.1982 79.7027C68.1982 91.9371 72.4638 98.0309 79.1903 98.0309ZM79.1903 94.5269C75.1591 94.5269 72.4638 90.0621 72.4638 79.7027C72.4638 69.4254 75.1591 65.1012 79.1903 65.1012C83.1747 65.1012 85.8583 69.4254 85.8583 79.7027C85.8583 90.0621 83.1747 94.5269 79.1903 94.5269Z" fill="#19191A" fill-opacity="1.000000" transform="matrix(1 0 0 1 397.352 13.3677)"/></g><path d="M15 0L145.325 0C153.605 0 160.325 6.72 160.325 15L160.325 145.544C160.325 153.824 153.605 160.544 145.325 160.544L15 160.544C6.72 160.544 0 153.824 0 145.544L0 15C0 6.72 6.72 0 15 0Z" fill="#F8C4ED" fill-opacity="1.000000" transform="matrix(1 0 0 1 13.3677 285.512)"/><path d="M15 0L145.325 0C153.605 0 160.325 6.72 160.325 15L160.325 145.544C160.325 153.824 153.605 160.544 145.325 160.544L15 160.544C6.72 160.544 0 153.824 0 145.544L0 15C0 6.72 6.72 0 15 0Z" fill="none" stroke="#000000" stroke-opacity="1.000000" stroke-width="2" stroke-dasharray="0 0" transform="matrix(1 0 0 1 13.3677 285.512)"/><clipPath id="clip_5_114_0"><path d="M20.7774 328.922L164.283 328.922L164.283 472.647L20.7774 472.647L20.7774 328.922Z"/></clipPath><g clip-path="url(#clip_5_114_0)"><path d="M70.0614 97.4098L89.3622 97.4098L89.3622 93.7652L82.3075 93.7652L82.3075 62.2301L78.9442 62.2301C77.0224 63.3316 74.7724 64.1402 71.6552 64.7262L71.6552 67.5035L77.8896 67.5035L77.8896 93.7652L70.0614 93.7652L70.0614 97.4098Z" fill="#19191A" fill-opacity="1.000000" transform="matrix(1 0 0 1 13.3677 285.512)"/></g><path d="M15 0L145.325 0C153.605 0 160.325 6.72 160.325 15L160.325 145.544C160.325 153.824 153.605 160.544 145.325 160.544L15 160.544C6.72 160.544 0 153.824 0 145.544L0 15C0 6.72 6.72 0 15 0Z" fill="#C4D9FD" fill-opacity="1.000000" transform="matrix(1 0 0 1 205.36 283.429)"/><path d="M15 0L145.325 0C153.605 0 160.325 6.72 160.325 15L160.325 145.544C160.325 153.824 153.605 160.544 145.325 160.544L15 160.544C6.72 160.544 0 153.824 0 145.544L0 15C0 6.72 6.72 0 15 0Z" fill="none" stroke="#000000" stroke-opacity="1.000000" stroke-width="2" stroke-dasharray="0 0" transform="matrix(1 0 0 1 205.36 283.429)"/><clipPath id="clip_5_115_0"><path d="M212.769 326.839L356.275 326.839L356.275 470.563L212.769 470.563L212.769 326.839Z"/></clipPath><g clip-path="url(#clip_5_115_0)"><path d="M79.1903 98.0309C85.8583 98.0309 90.1357 91.9371 90.1357 79.7027C90.1357 67.5035 85.8583 61.5504 79.1903 61.5504C72.4638 61.5504 68.1982 67.4566 68.1982 79.7027C68.1982 91.9371 72.4638 98.0309 79.1903 98.0309ZM79.1903 94.5269C75.1591 94.5269 72.4638 90.0621 72.4638 79.7027C72.4638 69.4254 75.1591 65.1012 79.1903 65.1012C83.1747 65.1012 85.8583 69.4254 85.8583 79.7027C85.8583 90.0621 83.1747 94.5269 79.1903 94.5269Z" fill="#19191A" fill-opacity="1.000000" transform="matrix(1 0 0 1 205.36 283.429)"/></g><path d="M15 0L145.325 0C153.605 0 160.325 6.72 160.325 15L160.325 145.544C160.325 153.824 153.605 160.544 145.325 160.544L15 160.544C6.72 160.544 0 153.824 0 145.544L0 15C0 6.72 6.72 0 15 0Z" fill="#F8C4ED" fill-opacity="1.000000" transform="matrix(1 0 0 1 397.352 283.429)"/><path d="M15 0L145.325 0C153.605 0 160.325 6.72 160.325 15L160.325 145.544C160.325 153.824 153.605 160.544 145.325 160.544L15 160.544C6.72 160.544 0 153.824 0 145.544L0 15C0 6.72 6.72 0 15 0Z" fill="none" stroke="#000000" stroke-opacity="1.000000" stroke-width="2" stroke-dasharray="0 0" transform="matrix(1 0 0 1 397.352 283.429)"/><clipPath id="clip_5_116_0"><path d="M404.761 326.839L548.267 326.839L548.267 470.563L404.761 470.563L404.761 326.839Z"/></clipPath><g clip-path="url(#clip_5_116_0)"><path d="M70.0614 97.4098L89.3622 97.4098L89.3622 93.7652L82.3075 93.7652L82.3075 62.2301L78.9442 62.2301C77.0224 63.3316 74.7724 64.1402 71.6552 64.7262L71.6552 67.5035L77.8896 67.5035L77.8896 93.7652L70.0614 93.7652L70.0614 97.4098Z" fill="#19191A" fill-opacity="1.000000" transform="matrix(1 0 0 1 397.352 283.429)"/></g><path d="M15 0L145.325 0C153.605 0 160.325 6.72 160.325 15L160.325 145.544C160.325 153.824 153.605 160.544 145.325 160.544L15 160.544C6.72 160.544 0 153.824 0 145.544L0 15C0 6.72 6.72 0 15 0Z" fill="#C4D9FD" fill-opacity="1.000000" transform="matrix(1 0 0 1 13.3678 557.657)"/><path d="M15 0L145.325 0C153.605 0 160.325 6.72 160.325 15L160.325 145.544C160.325 153.824 153.605 160.544 145.325 160.544L15 160.544C6.72 160.544 0 153.824 0 145.544L0 15C0 6.72 6.72 0 15 0Z" fill="none" stroke="#000000" stroke-opacity="1.000000" stroke-width="2" stroke-dasharray="0 0" transform="matrix(1 0 0 1 13.3678 557.657)"/><clipPath id="clip_5_118_0"><path d="M20.7776 601.067L164.284 601.067L164.284 744.791L20.7776 744.791L20.7776 601.067Z"/></clipPath><g clip-path="url(#clip_5_118_0)"><path d="M79.1903 98.0309C85.8583 98.0309 90.1357 91.9371 90.1357 79.7027C90.1357 67.5035 85.8583 61.5504 79.1903 61.5504C72.4638 61.5504 68.1982 67.4566 68.1982 79.7027C68.1982 91.9371 72.4638 98.0309 79.1903 98.0309ZM79.1903 94.5269C75.1591 94.5269 72.4638 90.0621 72.4638 79.7027C72.4638 69.4254 75.1591 65.1012 79.1903 65.1012C83.1747 65.1012 85.8583 69.4254 85.8583 79.7027C85.8583 90.0621 83.1747 94.5269 79.1903 94.5269Z" fill="#19191A" fill-opacity="1.000000" transform="matrix(1 0 0 1 13.3678 557.657)"/></g><path d="M15 0L145.325 0C153.605 0 160.325 6.72 160.325 15L160.325 145.544C160.325 153.824 153.605 160.544 145.325 160.544L15 160.544C6.72 160.544 0 153.824 0 145.544L0 15C0 6.72 6.72 0 15 0Z" fill="#F8C4ED" fill-opacity="1.000000" transform="matrix(1 0 0 1 205.36 555.574)"/><path d="M15 0L145.325 0C153.605 0 160.325 6.72 160.325 15L160.325 145.544C160.325 153.824 153.605 160.544 145.325 160.544L15 160.544C6.72 160.544 0 153.824 0 145.544L0 15C0 6.72 6.72 0 15 0Z" fill="none" stroke="#000000" stroke-opacity="1.000000" stroke-width="2" stroke-dasharray="0 0" transform="matrix(1 0 0 1 205.36 555.574)"/><clipPath id="clip_5_119_0"><path d="M212.77 598.983L356.276 598.983L356.276 742.708L212.77 742.708L212.77 598.983Z"/></clipPath><g clip-path="url(#clip_5_119_0)"><path d="M70.0614 97.4098L89.3622 97.4098L89.3622 93.7652L82.3075 93.7652L82.3075 62.2301L78.9442 62.2301C77.0224 63.3316 74.7724 64.1402 71.6552 64.7262L71.6552 67.5035L77.8896 67.5035L77.8896 93.7652L70.0614 93.7652L70.0614 97.4098Z" fill="#19191A" fill-opacity="1.000000" transform="matrix(1 0 0 1 205.36 555.574)"/></g><path d="M15 0L145.325 0C153.605 0 160.325 6.72 160.325 15L160.325 145.544C160.325 153.824 153.605 160.544 145.325 160.544L15 160.544C6.72 160.544 0 153.824 0 145.544L0 15C0 6.72 6.72 0 15 0Z" fill="#F8C4ED" fill-opacity="1.000000" transform="matrix(1 0 0 1 397.352 555.574)"/><path d="M15 0L145.325 0C153.605 0 160.325 6.72 160.325 15L160.325 145.544C160.325 153.824 153.605 160.544 145.325 160.544L15 160.544C6.72 160.544 0 153.824 0 145.544L0 15C0 6.72 6.72 0 15 0Z" fill="none" stroke="#000000" stroke-opacity="1.000000" stroke-width="2" stroke-dasharray="0 0" transform="matrix(1 0 0 1 397.352 555.574)"/><clipPath id="clip_5_120_0"><path d="M404.762 598.983L548.268 598.983L548.268 742.708L404.762 742.708L404.762 598.983Z"/></clipPath><g clip-path="url(#clip_5_120_0)"><path d="M70.0614 97.4098L89.3622 97.4098L89.3622 93.7652L82.3075 93.7652L82.3075 62.2301L78.9442 62.2301C77.0224 63.3316 74.7724 64.1402 71.6552 64.7262L71.6552 67.5035L77.8896 67.5035L77.8896 93.7652L70.0614 93.7652L70.0614 97.4098Z" fill="#19191A" fill-opacity="1.000000" transform="matrix(1 0 0 1 397.352 555.574)"/></g><path d="M-0.000183105 111.601L5.99982 101.209L-6.00018 101.209L-0.000183105 111.601Z" transform="matrix(1 0 0 1 93.5305 173.912)" fill="#19191A" fill-opacity="1.000000" stroke="none"/><path d="M0 0C0 68.3692 -0.000172425 42.7935 -0.000182634 105.601" fill="none" stroke="#19191A" stroke-opacity="1.000000" stroke-width="2" stroke-linejoin="round" stroke-dasharray="0 0" transform="matrix(1 0 0 1 93.5305 173.912)"/><path d="M0.000183105 111.601L6.00018 101.209L-5.99982 101.209L0.000183105 111.601Z" transform="matrix(1 0 0 1 93.5304 446.056)" fill="#19191A" fill-opacity="1.000000" stroke="none"/><path d="M0 0C0 68.3692 0.000172425 42.7935 0.000182634 105.601" fill="none" stroke="#19191A" stroke-opacity="1.000000" stroke-width="2" stroke-linejoin="round" stroke-dasharray="0 0" transform="matrix(1 0 0 1 93.5304 446.056)"/><path d="M0.000213623 111.601L6.00021 101.209L-5.99979 101.209L0.000213623 111.601Z" transform="matrix(1 0 0 1 285.522 443.973)" fill="#19191A" fill-opacity="1.000000" stroke="none"/><path d="M0 0C0 68.3692 0.000201162 42.7935 0.000213072 105.601" fill="none" stroke="#19191A" stroke-opacity="1.000000" stroke-width="2" stroke-linejoin="round" stroke-dasharray="0 0" transform="matrix(1 0 0 1 285.522 443.973)"/><path d="M0.000305176 111.601L6.00031 101.209L-5.99969 101.209L0.000305176 111.601Z" transform="matrix(1 0 0 1 477.514 443.973)" fill="#19191A" fill-opacity="1.000000" stroke="none"/><path d="M0 0C0 68.3692 0.000287375 42.7935 0.000304389 105.601" fill="none" stroke="#19191A" stroke-opacity="1.000000" stroke-width="2" stroke-linejoin="round" stroke-dasharray="0 0" transform="matrix(1 0 0 1 477.514 443.973)"/><path d="M-0.000213623 109.517L5.99979 99.1252L-6.00021 99.1252L-0.000213623 109.517Z" transform="matrix(1 0 0 1 285.523 173.912)" fill="#19191A" fill-opacity="1.000000" stroke="none"/><path d="M0 0C0 67.0522 -0.000200918 42.0251 -0.000213051 103.517" fill="none" stroke="#19191A" stroke-opacity="1.000000" stroke-width="2" stroke-linejoin="round" stroke-dasharray="0 0" transform="matrix(1 0 0 1 285.523 173.912)"/><path d="M-0.000183105 109.517L5.99982 99.1252L-6.00018 99.1252L-0.000183105 109.517Z" transform="matrix(1 0 0 1 477.515 173.912)" fill="#19191A" fill-opacity="1.000000" stroke="none"/><path d="M0 0C0 67.0522 -0.000172216 42.0251 -0.000182615 103.517" fill="none" stroke="#19191A" stroke-opacity="1.000000" stroke-width="2" stroke-linejoin="round" stroke-dasharray="0 0" transform="matrix(1 0 0 1 477.515 173.912)"/></svg>