<svg xmlns="http://www.w3.org/2000/svg" xmlns:xlink="http://www.w3.org/1999/xlink" width="2539.750977" height="543.647156" viewBox="0 0 2539.75 543.647"><path d="M15 0L314.659 0C322.939 0 329.659 6.72 329.659 15L329.659 94.8774C329.659 103.157 322.939 109.877 314.659 109.877L15 109.877C6.72 109.877 0 103.157 0 94.8774L0 15C0 6.72 6.72 0 15 0Z" fill="#F8C4ED" fill-opacity="1.000000" transform="matrix(1 0 0 1 151.106 420.803)"/><path d="M15 0L314.659 0C322.939 0 329.659 6.72 329.659 15L329.659 94.8774C329.659 103.157 322.939 109.877 314.659 109.877L15 109.877C6.72 109.877 0 103.157 0 94.8774L0 15C0 6.72 6.72 0 15 0Z" fill="none" stroke="#000000" stroke-opacity="1.000000" stroke-width="2" stroke-dasharray="0 0" transform="matrix(1 0 0 1 151.106 420.803)"/><clipPath id="clip_7_9_0"><path d="M157.002 439.7L472.869 439.7L472.869 535.785L157.002 535.785L157.002 439.7Z"/></clipPath><g clip-path="url(#clip_7_9_0)"><path d="M30.1047 73.5174C36.7727 73.5174 41.05 67.4237 41.05 55.1893C41.05 42.9901 36.7727 37.0369 30.1047 37.0369C23.3781 37.0369 19.1125 42.9432 19.1125 55.1893C19.1125 67.4237 23.3781 73.5174 30.1047 73.5174ZM30.1047 70.0135C26.0734 70.0135 23.3781 65.5487 23.3781 55.1893C23.3781 44.9119 26.0734 40.5877 30.1047 40.5877C34.0891 40.5877 36.7727 44.9119 36.7727 55.1893C36.7727 65.5487 34.0891 70.0135 30.1047 70.0135ZM44.1119 72.8963L48.7291 72.8963L52.233 66.8026C53.1354 65.2205 54.0026 63.6268 54.9166 62.1385L55.1627 62.1385C56.1119 63.6268 57.0729 65.2205 57.9401 66.8026L61.7838 72.8963L66.5768 72.8963L57.9869 59.7479L65.9088 46.8338L61.3502 46.8338L58.1276 52.5877C57.3658 54.0291 56.5924 55.4705 55.7838 56.9119L55.5846 56.9119C54.7291 55.4705 53.8151 54.0291 52.9948 52.5877L49.4908 46.8338L44.7916 46.8338L52.7135 59.3143L44.1119 72.8963ZM79.8285 73.5174C85.7816 73.5174 91.348 69.158 91.348 61.4237C91.348 53.701 86.6019 50.244 80.7426 50.244C78.6332 50.244 77.0394 50.7713 75.5043 51.6268L76.3715 41.4549L89.6722 41.4549L89.6722 37.7166L72.5277 37.7166L71.4262 54.1815L73.7816 55.6112C75.7972 54.2752 77.2855 53.5487 79.641 53.5487C84.059 53.5487 86.9301 56.5252 86.9301 61.5643C86.9301 66.7088 83.5785 69.8729 79.4418 69.8729C75.3637 69.8729 72.8207 67.9979 70.8051 65.9823L68.6488 68.8651C70.9926 71.2205 74.3558 73.5174 79.8285 73.5174ZM112.035 73.5174C116.594 73.5174 120.051 71.701 122.84 68.4783L120.39 65.701C118.129 68.1385 115.586 69.6268 112.234 69.6268C105.508 69.6268 101.289 64.0604 101.289 55.1893C101.289 46.4002 105.707 40.9276 112.375 40.9276C115.398 40.9276 117.754 42.3221 119.57 44.2909L121.972 41.408C119.957 39.158 116.594 37.0369 112.328 37.0369C103.398 37.0369 96.7303 43.951 96.7303 55.3299C96.7303 66.7557 103.304 73.5174 112.035 73.5174ZM137.093 73.5174C143.046 73.5174 148.612 69.158 148.612 61.4237C148.612 53.701 143.866 50.244 138.007 50.244C135.897 50.244 134.304 50.7713 132.768 51.6268L133.636 41.4549L146.936 41.4549L146.936 37.7166L129.792 37.7166L128.69 54.1815L131.046 55.6112C133.061 54.2752 134.55 53.5487 136.905 53.5487C141.323 53.5487 144.194 56.5252 144.194 61.5643C144.194 66.7088 140.843 69.8729 136.706 69.8729C132.628 69.8729 130.085 67.9979 128.069 65.9823L125.913 68.8651C128.257 71.2205 131.62 73.5174 137.093 73.5174ZM163.733 56.2909C159.561 56.2909 157.44 53.2205 157.44 48.4627C157.44 43.6698 160.041 40.494 163.393 40.494C167.905 40.494 170.6 44.3377 171.08 51.5799C168.725 54.9432 166.088 56.2909 163.733 56.2909ZM153.994 69.9198C155.963 71.9823 158.647 73.5174 162.432 73.5174C169.065 73.5174 175.205 68.0448 175.205 53.7948C175.205 42.6034 170.166 37.0369 163.393 37.0369C157.92 37.0369 153.315 41.6541 153.315 48.4627C153.315 55.7635 157.158 59.5487 163.018 59.5487C165.994 59.5487 169.018 57.826 171.127 55.1893C170.787 66.1229 166.85 69.8729 162.291 69.8729C160.041 69.8729 157.873 68.8651 156.385 67.1893L153.994 69.9198ZM182.65 72.8963L187.115 72.8963L187.115 57.0994L200.545 57.0994L200.545 53.3612L187.115 53.3612L187.115 41.4549L202.947 41.4549L202.947 37.7166L182.65 37.7166L182.65 72.8963ZM216.869 73.5174C222.822 73.5174 228.388 69.158 228.388 61.4237C228.388 53.701 223.642 50.244 217.783 50.244C215.673 50.244 214.08 50.7713 212.545 51.6268L213.412 41.4549L226.713 41.4549L226.713 37.7166L209.568 37.7166L208.466 54.1815L210.822 55.6112C212.838 54.2752 214.326 53.5487 216.681 53.5487C221.099 53.5487 223.97 56.5252 223.97 61.5643C223.97 66.7088 220.619 69.8729 216.482 69.8729C212.404 69.8729 209.861 67.9979 207.845 65.9823L205.689 68.8651C208.033 71.2205 211.396 73.5174 216.869 73.5174ZM243.649 73.5174C249.896 73.5174 254.935 69.7791 254.935 63.4862C254.935 58.6932 251.618 55.5174 247.446 54.5565L247.446 54.369C251.185 52.9744 253.739 50.1385 253.739 45.8729C253.739 40.2127 249.415 37.0369 243.509 37.0369C239.431 37.0369 236.314 38.8182 233.665 41.2674L236.021 44.0448C237.989 42.076 240.485 40.6346 243.321 40.5409C246.966 40.6346 249.274 42.8026 249.274 46.2127C249.274 49.9979 246.778 52.9276 239.524 52.9276L239.524 56.2909C247.634 56.2909 250.47 59.1151 250.47 63.3455C250.47 67.3768 247.493 69.8729 243.321 69.8729C239.337 69.8729 236.642 67.9979 234.579 65.8416L232.376 68.7244C234.673 71.2205 238.13 73.5174 243.649 73.5174ZM263.141 59.701L271.157 47.701C272.165 45.9666 273.125 44.244 273.993 42.5096L274.18 42.5096C274.086 44.3377 273.899 47.1737 273.899 48.8963L273.899 59.701L263.141 59.701ZM282.723 59.701L278.071 59.701L278.071 37.7166L273.219 37.7166L258.583 60.3221L258.583 63.2049L273.899 63.2049L273.899 72.8963L278.071 72.8963L278.071 63.2049L282.723 63.2049L282.723 59.701ZM289.781 59.701L297.797 47.701C298.805 45.9666 299.766 44.244 300.633 42.5096L300.82 42.5096C300.726 44.3377 300.539 47.1737 300.539 48.8963L300.539 59.701L289.781 59.701ZM309.363 59.701L304.711 59.701L304.711 37.7166L299.859 37.7166L285.223 60.3221L285.223 63.2049L300.539 63.2049L300.539 72.8963L304.711 72.8963L304.711 63.2049L309.363 63.2049L309.363 59.701Z" fill="#19191A" fill-opacity="1.000000" transform="matrix(1 0 0 1 151.106 420.803)"/></g><path d="M15 0L314.659 0C322.939 0 329.659 6.72 329.659 15L329.659 94.8774C329.659 103.157 322.939 109.877 314.659 109.877L15 109.877C6.72 109.877 0 103.157 0 94.8774L0 15C0 6.72 6.72 0 15 0Z" fill="#D5FFEC" fill-opacity="1.000000" transform="matrix(1 0 0 1 151.106 216.884)"/><path d="M15 0L314.659 0C322.939 0 329.659 6.72 329.659 15L329.659 94.8774C329.659 103.157 322.939 109.877 314.659 109.877L15 109.877C6.72 109.877 0 103.157 0 94.8774L0 15C0 6.72 6.72 0 15 0Z" fill="none" stroke="#000000" stroke-opacity="1.000000" stroke-width="2" stroke-dasharray="0 0" transform="matrix(1 0 0 1 151.106 216.884)"/><clipPath id="clip_7_11_0"><path d="M157.003 235.781L472.869 235.781L472.869 331.865L157.003 331.865L157.003 235.781Z"/></clipPath><g clip-path="url(#clip_7_11_0)"><path d="M138.298 49.7166L140.982 49.7166L141.849 40.8338L141.943 35.8885L137.338 35.8885L137.431 40.8338L138.298 49.7166ZM151.162 72.8963L155.627 72.8963L155.627 56.2909L172.033 56.2909L172.033 72.8963L176.451 72.8963L176.451 37.7166L172.033 37.7166L172.033 52.4471L155.627 52.4471L155.627 37.7166L151.162 37.7166L151.162 72.8963ZM186.587 49.7166L189.27 49.7166L190.137 40.8338L190.231 35.8885L185.626 35.8885L185.719 40.8338L186.587 49.7166Z" fill="#19191A" fill-opacity="1.000000" transform="matrix(1 0 0 1 151.106 216.884)"/></g><path d="M15 0L314.659 0C322.939 0 329.659 6.72 329.659 15L329.659 94.8774C329.659 103.157 322.939 109.877 314.659 109.877L15 109.877C6.72 109.877 0 103.157 0 94.8774L0 15C0 6.72 6.72 0 15 0Z" fill="#F8C4ED" fill-opacity="1.000000" transform="matrix(1 0 0 1 560.31 420.803)"/><path d="M15 0L314.659 0C322.939 0 329.659 6.72 329.659 15L329.659 94.8774C329.659 103.157 322.939 109.877 314.659 109.877L15 109.877C6.72 109.877 0 103.157 0 94.8774L0 15C0 6.72 6.72 0 15 0Z" fill="none" stroke="#000000" stroke-opacity="1.000000" stroke-width="2" stroke-dasharray="0 0" transform="matrix(1 0 0 1 560.31 420.803)"/><clipPath id="clip_7_12_0"><path d="M566.206 439.7L882.073 439.7L882.073 535.785L566.206 535.785L566.206 439.7Z"/></clipPath><g clip-path="url(#clip_7_12_0)"><path d="M30.1047 73.5174C36.7727 73.5174 41.05 67.4237 41.05 55.1893C41.05 42.9901 36.7727 37.0369 30.1047 37.0369C23.3781 37.0369 19.1125 42.9432 19.1125 55.1893C19.1125 67.4237 23.3781 73.5174 30.1047 73.5174ZM30.1047 70.0135C26.0734 70.0135 23.3781 65.5487 23.3781 55.1893C23.3781 44.9119 26.0734 40.5877 30.1047 40.5877C34.0891 40.5877 36.7727 44.9119 36.7727 55.1893C36.7727 65.5487 34.0891 70.0135 30.1047 70.0135ZM44.1119 72.8963L48.7291 72.8963L52.233 66.8026C53.1354 65.2205 54.0026 63.6268 54.9166 62.1385L55.1627 62.1385C56.1119 63.6268 57.0729 65.2205 57.9401 66.8026L61.7838 72.8963L66.5768 72.8963L57.9869 59.7479L65.9088 46.8338L61.3502 46.8338L58.1276 52.5877C57.3658 54.0291 56.5924 55.4705 55.7838 56.9119L55.5846 56.9119C54.7291 55.4705 53.8151 54.0291 52.9948 52.5877L49.4908 46.8338L44.7916 46.8338L52.7135 59.3143L44.1119 72.8963ZM79.8285 73.5174C85.7816 73.5174 91.348 69.158 91.348 61.4237C91.348 53.701 86.6019 50.244 80.7426 50.244C78.6332 50.244 77.0394 50.7713 75.5043 51.6268L76.3715 41.4549L89.6722 41.4549L89.6722 37.7166L72.5277 37.7166L71.4262 54.1815L73.7816 55.6112C75.7972 54.2752 77.2855 53.5487 79.641 53.5487C84.059 53.5487 86.9301 56.5252 86.9301 61.5643C86.9301 66.7088 83.5785 69.8729 79.4418 69.8729C75.3637 69.8729 72.8207 67.9979 70.8051 65.9823L68.6488 68.8651C70.9926 71.2205 74.3558 73.5174 79.8285 73.5174ZM112.035 73.5174C116.594 73.5174 120.051 71.701 122.84 68.4783L120.39 65.701C118.129 68.1385 115.586 69.6268 112.234 69.6268C105.508 69.6268 101.289 64.0604 101.289 55.1893C101.289 46.4002 105.707 40.9276 112.375 40.9276C115.398 40.9276 117.754 42.3221 119.57 44.2909L121.972 41.408C119.957 39.158 116.594 37.0369 112.328 37.0369C103.398 37.0369 96.7303 43.951 96.7303 55.3299C96.7303 66.7557 103.304 73.5174 112.035 73.5174ZM137.093 73.5174C143.046 73.5174 148.612 69.158 148.612 61.4237C148.612 53.701 143.866 50.244 138.007 50.244C135.897 50.244 134.304 50.7713 132.768 51.6268L133.636 41.4549L146.936 41.4549L146.936 37.7166L129.792 37.7166L128.69 54.1815L131.046 55.6112C133.061 54.2752 134.55 53.5487 136.905 53.5487C141.323 53.5487 144.194 56.5252 144.194 61.5643C144.194 66.7088 140.843 69.8729 136.706 69.8729C132.628 69.8729 130.085 67.9979 128.069 65.9823L125.913 68.8651C128.257 71.2205 131.62 73.5174 137.093 73.5174ZM163.733 56.2909C159.561 56.2909 157.44 53.2205 157.44 48.4627C157.44 43.6698 160.041 40.494 163.393 40.494C167.905 40.494 170.6 44.3377 171.08 51.5799C168.725 54.9432 166.088 56.2909 163.733 56.2909ZM153.994 69.9198C155.963 71.9823 158.647 73.5174 162.432 73.5174C169.065 73.5174 175.205 68.0448 175.205 53.7948C175.205 42.6034 170.166 37.0369 163.393 37.0369C157.92 37.0369 153.315 41.6541 153.315 48.4627C153.315 55.7635 157.158 59.5487 163.018 59.5487C165.994 59.5487 169.018 57.826 171.127 55.1893C170.787 66.1229 166.85 69.8729 162.291 69.8729C160.041 69.8729 157.873 68.8651 156.385 67.1893L153.994 69.9198ZM182.65 72.8963L187.115 72.8963L187.115 57.0994L200.545 57.0994L200.545 53.3612L187.115 53.3612L187.115 41.4549L202.947 41.4549L202.947 37.7166L182.65 37.7166L182.65 72.8963ZM216.869 73.5174C222.822 73.5174 228.388 69.158 228.388 61.4237C228.388 53.701 223.642 50.244 217.783 50.244C215.673 50.244 214.08 50.7713 212.545 51.6268L213.412 41.4549L226.713 41.4549L226.713 37.7166L209.568 37.7166L208.466 54.1815L210.822 55.6112C212.838 54.2752 214.326 53.5487 216.681 53.5487C221.099 53.5487 223.97 56.5252 223.97 61.5643C223.97 66.7088 220.619 69.8729 216.482 69.8729C212.404 69.8729 209.861 67.9979 207.845 65.9823L205.689 68.8651C208.033 71.2205 211.396 73.5174 216.869 73.5174ZM243.649 73.5174C249.896 73.5174 254.935 69.7791 254.935 63.4862C254.935 58.6932 251.618 55.5174 247.446 54.5565L247.446 54.369C251.185 52.9744 253.739 50.1385 253.739 45.8729C253.739 40.2127 249.415 37.0369 243.509 37.0369C239.431 37.0369 236.314 38.8182 233.665 41.2674L236.021 44.0448C237.989 42.076 240.485 40.6346 243.321 40.5409C246.966 40.6346 249.274 42.8026 249.274 46.2127C249.274 49.9979 246.778 52.9276 239.524 52.9276L239.524 56.2909C247.634 56.2909 250.47 59.1151 250.47 63.3455C250.47 67.3768 247.493 69.8729 243.321 69.8729C239.337 69.8729 236.642 67.9979 234.579 65.8416L232.376 68.7244C234.673 71.2205 238.13 73.5174 243.649 73.5174ZM263.141 59.701L271.157 47.701C272.165 45.9666 273.125 44.244 273.993 42.5096L274.18 42.5096C274.086 44.3377 273.899 47.1737 273.899 48.8963L273.899 59.701L263.141 59.701ZM282.723 59.701L278.071 59.701L278.071 37.7166L273.219 37.7166L258.583 60.3221L258.583 63.2049L273.899 63.2049L273.899 72.8963L278.071 72.8963L278.071 63.2049L282.723 63.2049L282.723 59.701ZM296.789 73.5174C302.742 73.5174 308.309 69.158 308.309 61.4237C308.309 53.701 303.562 50.244 297.703 50.244C295.594 50.244 294 50.7713 292.465 51.6268L293.332 41.4549L306.633 41.4549L306.633 37.7166L289.488 37.7166L288.387 54.1815L290.742 55.6112C292.758 54.2752 294.246 53.5487 296.601 53.5487C301.019 53.5487 303.891 56.5252 303.891 61.5643C303.891 66.7088 300.539 69.8729 296.402 69.8729C292.324 69.8729 289.781 67.9979 287.766 65.9823L285.609 68.8651C287.953 71.2205 291.316 73.5174 296.789 73.5174Z" fill="#19191A" fill-opacity="1.000000" transform="matrix(1 0 0 1 560.31 420.803)"/></g><path d="M15 0L314.659 0C322.939 0 329.659 6.72 329.659 15L329.659 94.8774C329.659 103.157 322.939 109.877 314.659 109.877L15 109.877C6.72 109.877 0 103.157 0 94.8774L0 15C0 6.72 6.72 0 15 0Z" fill="#D5FFEC" fill-opacity="1.000000" transform="matrix(1 0 0 1 560.31 216.885)"/><path d="M15 0L314.659 0C322.939 0 329.659 6.72 329.659 15L329.659 94.8774C329.659 103.157 322.939 109.877 314.659 109.877L15 109.877C6.72 109.877 0 103.157 0 94.8774L0 15C0 6.72 6.72 0 15 0Z" fill="none" stroke="#000000" stroke-opacity="1.000000" stroke-width="2" stroke-dasharray="0 0" transform="matrix(1 0 0 1 560.31 216.885)"/><clipPath id="clip_7_14_0"><path d="M566.207 235.781L882.073 235.781L882.073 331.866L566.207 331.866L566.207 235.781Z"/></clipPath><g clip-path="url(#clip_7_14_0)"><path d="M141.658 49.7166L144.342 49.7166L145.209 40.8338L145.303 35.8885L140.698 35.8885L140.791 40.8338L141.658 49.7166ZM154.522 72.8963L175.346 72.8963L175.346 69.0994L158.987 69.0994L158.987 56.2909L172.323 56.2909L172.323 52.494L158.987 52.494L158.987 41.4549L174.819 41.4549L174.819 37.7166L154.522 37.7166L154.522 72.8963ZM183.227 49.7166L185.91 49.7166L186.777 40.8338L186.871 35.8885L182.266 35.8885L182.359 40.8338L183.227 49.7166Z" fill="#19191A" fill-opacity="1.000000" transform="matrix(1 0 0 1 560.31 216.885)"/></g><path d="M15 0L314.659 0C322.939 0 329.659 6.72 329.659 15L329.659 94.8774C329.659 103.157 322.939 109.877 314.659 109.877L15 109.877C6.72 109.877 0 103.157 0 94.8774L0 15C0 6.72 6.72 0 15 0Z" fill="#F8C4ED" fill-opacity="1.000000" transform="matrix(1 0 0 1 969.514 420.803)"/><path d="M15 0L314.659 0C322.939 0 329.659 6.72 329.659 15L329.659 94.8774C329.659 103.157 322.939 109.877 314.659 109.877L15 109.877C6.72 109.877 0 103.157 0 94.8774L0 15C0 6.72 6.72 0 15 0Z" fill="none" stroke="#000000" stroke-opacity="1.000000" stroke-width="2" stroke-dasharray="0 0" transform="matrix(1 0 0 1 969.514 420.803)"/><clipPath id="clip_7_15_0"><path d="M975.41 439.7L1291.28 439.7L1291.28 535.784L975.41 535.784L975.41 439.7Z"/></clipPath><g clip-path="url(#clip_7_15_0)"><path d="M30.1047 73.5174C36.7727 73.5174 41.05 67.4237 41.05 55.1893C41.05 42.9901 36.7727 37.0369 30.1047 37.0369C23.3781 37.0369 19.1125 42.9432 19.1125 55.1893C19.1125 67.4237 23.3781 73.5174 30.1047 73.5174ZM30.1047 70.0135C26.0734 70.0135 23.3781 65.5487 23.3781 55.1893C23.3781 44.9119 26.0734 40.5877 30.1047 40.5877C34.0891 40.5877 36.7727 44.9119 36.7727 55.1893C36.7727 65.5487 34.0891 70.0135 30.1047 70.0135ZM44.1119 72.8963L48.7291 72.8963L52.233 66.8026C53.1354 65.2205 54.0026 63.6268 54.9166 62.1385L55.1627 62.1385C56.1119 63.6268 57.0729 65.2205 57.9401 66.8026L61.7838 72.8963L66.5768 72.8963L57.9869 59.7479L65.9088 46.8338L61.3502 46.8338L58.1276 52.5877C57.3658 54.0291 56.5924 55.4705 55.7838 56.9119L55.5846 56.9119C54.7291 55.4705 53.8151 54.0291 52.9948 52.5877L49.4908 46.8338L44.7916 46.8338L52.7135 59.3143L44.1119 72.8963ZM79.8285 73.5174C85.7816 73.5174 91.348 69.158 91.348 61.4237C91.348 53.701 86.6019 50.244 80.7426 50.244C78.6332 50.244 77.0394 50.7713 75.5043 51.6268L76.3715 41.4549L89.6722 41.4549L89.6722 37.7166L72.5277 37.7166L71.4262 54.1815L73.7816 55.6112C75.7972 54.2752 77.2855 53.5487 79.641 53.5487C84.059 53.5487 86.9301 56.5252 86.9301 61.5643C86.9301 66.7088 83.5785 69.8729 79.4418 69.8729C75.3637 69.8729 72.8207 67.9979 70.8051 65.9823L68.6488 68.8651C70.9926 71.2205 74.3558 73.5174 79.8285 73.5174ZM112.035 73.5174C116.594 73.5174 120.051 71.701 122.84 68.4783L120.39 65.701C118.129 68.1385 115.586 69.6268 112.234 69.6268C105.508 69.6268 101.289 64.0604 101.289 55.1893C101.289 46.4002 105.707 40.9276 112.375 40.9276C115.398 40.9276 117.754 42.3221 119.57 44.2909L121.972 41.408C119.957 39.158 116.594 37.0369 112.328 37.0369C103.398 37.0369 96.7303 43.951 96.7303 55.3299C96.7303 66.7557 103.304 73.5174 112.035 73.5174ZM137.093 73.5174C143.046 73.5174 148.612 69.158 148.612 61.4237C148.612 53.701 143.866 50.244 138.007 50.244C135.897 50.244 134.304 50.7713 132.768 51.6268L133.636 41.4549L146.936 41.4549L146.936 37.7166L129.792 37.7166L128.69 54.1815L131.046 55.6112C133.061 54.2752 134.55 53.5487 136.905 53.5487C141.323 53.5487 144.194 56.5252 144.194 61.5643C144.194 66.7088 140.843 69.8729 136.706 69.8729C132.628 69.8729 130.085 67.9979 128.069 65.9823L125.913 68.8651C128.257 71.2205 131.62 73.5174 137.093 73.5174ZM163.733 56.2909C159.561 56.2909 157.44 53.2205 157.44 48.4627C157.44 43.6698 160.041 40.494 163.393 40.494C167.905 40.494 170.6 44.3377 171.08 51.5799C168.725 54.9432 166.088 56.2909 163.733 56.2909ZM153.994 69.9198C155.963 71.9823 158.647 73.5174 162.432 73.5174C169.065 73.5174 175.205 68.0448 175.205 53.7948C175.205 42.6034 170.166 37.0369 163.393 37.0369C157.92 37.0369 153.315 41.6541 153.315 48.4627C153.315 55.7635 157.158 59.5487 163.018 59.5487C165.994 59.5487 169.018 57.826 171.127 55.1893C170.787 66.1229 166.85 69.8729 162.291 69.8729C160.041 69.8729 157.873 68.8651 156.385 67.1893L153.994 69.9198ZM182.65 72.8963L187.115 72.8963L187.115 57.0994L200.545 57.0994L200.545 53.3612L187.115 53.3612L187.115 41.4549L202.947 41.4549L202.947 37.7166L182.65 37.7166L182.65 72.8963ZM216.869 73.5174C222.822 73.5174 228.388 69.158 228.388 61.4237C228.388 53.701 223.642 50.244 217.783 50.244C215.673 50.244 214.08 50.7713 212.545 51.6268L213.412 41.4549L226.713 41.4549L226.713 37.7166L209.568 37.7166L208.466 54.1815L210.822 55.6112C212.838 54.2752 214.326 53.5487 216.681 53.5487C221.099 53.5487 223.97 56.5252 223.97 61.5643C223.97 66.7088 220.619 69.8729 216.482 69.8729C212.404 69.8729 209.861 67.9979 207.845 65.9823L205.689 68.8651C208.033 71.2205 211.396 73.5174 216.869 73.5174ZM243.649 73.5174C249.896 73.5174 254.935 69.7791 254.935 63.4862C254.935 58.6932 251.618 55.5174 247.446 54.5565L247.446 54.369C251.185 52.9744 253.739 50.1385 253.739 45.8729C253.739 40.2127 249.415 37.0369 243.509 37.0369C239.431 37.0369 236.314 38.8182 233.665 41.2674L236.021 44.0448C237.989 42.076 240.485 40.6346 243.321 40.5409C246.966 40.6346 249.274 42.8026 249.274 46.2127C249.274 49.9979 246.778 52.9276 239.524 52.9276L239.524 56.2909C247.634 56.2909 250.47 59.1151 250.47 63.3455C250.47 67.3768 247.493 69.8729 243.321 69.8729C239.337 69.8729 236.642 67.9979 234.579 65.8416L232.376 68.7244C234.673 71.2205 238.13 73.5174 243.649 73.5174ZM263.141 59.701L271.157 47.701C272.165 45.9666 273.125 44.244 273.993 42.5096L274.18 42.5096C274.086 44.3377 273.899 47.1737 273.899 48.8963L273.899 59.701L263.141 59.701ZM282.723 59.701L278.071 59.701L278.071 37.7166L273.219 37.7166L258.583 60.3221L258.583 63.2049L273.899 63.2049L273.899 72.8963L278.071 72.8963L278.071 63.2049L282.723 63.2049L282.723 59.701ZM298.711 70.1073C294.293 70.1073 291.656 66.1229 291.129 58.8338C293.426 55.5643 296.121 54.3221 298.324 54.3221C302.601 54.3221 304.664 57.3455 304.664 62.0916C304.664 66.8963 302.074 70.1073 298.711 70.1073ZM308.168 40.6346C306.246 38.5721 303.609 37.0369 299.953 37.0369C293.144 37.0369 286.945 42.3221 286.945 56.0916C286.945 67.7166 291.937 73.5174 298.711 73.5174C304.184 73.5174 308.789 68.9119 308.789 62.0916C308.789 54.7557 304.992 51.0526 299.051 51.0526C296.262 51.0526 293.191 52.6932 291.035 55.3299C291.223 44.3846 295.301 40.6932 300.105 40.6932C302.262 40.6932 304.371 41.701 305.766 43.3768L308.168 40.6346Z" fill="#19191A" fill-opacity="1.000000" transform="matrix(1 0 0 1 969.514 420.803)"/></g><path d="M15 0L314.659 0C322.939 0 329.659 6.72 329.659 15L329.659 94.8774C329.659 103.157 322.939 109.877 314.659 109.877L15 109.877C6.72 109.877 0 103.157 0 94.8774L0 15C0 6.72 6.72 0 15 0Z" fill="#D5FFEC" fill-opacity="1.000000" transform="matrix(1 0 0 1 969.514 216.884)"/><path d="M15 0L314.659 0C322.939 0 329.659 6.72 329.659 15L329.659 94.8774C329.659 103.157 322.939 109.877 314.659 109.877L15 109.877C6.72 109.877 0 103.157 0 94.8774L0 15C0 6.72 6.72 0 15 0Z" fill="none" stroke="#000000" stroke-opacity="1.000000" stroke-width="2" stroke-dasharray="0 0" transform="matrix(1 0 0 1 969.514 216.884)"/><clipPath id="clip_7_17_0"><path d="M975.411 235.781L1291.28 235.781L1291.28 331.865L975.411 331.865L975.411 235.781Z"/></clipPath><g clip-path="url(#clip_7_17_0)"><path d="M145.138 49.7166L147.822 49.7166L148.689 40.8338L148.783 35.8885L144.178 35.8885L144.271 40.8338L145.138 49.7166ZM158.002 72.8963L177.818 72.8963L177.818 69.0994L162.467 69.0994L162.467 37.7166L158.002 37.7166L158.002 72.8963ZM179.747 49.7166L182.43 49.7166L183.297 40.8338L183.391 35.8885L178.786 35.8885L178.879 40.8338L179.747 49.7166Z" fill="#19191A" fill-opacity="1.000000" transform="matrix(1 0 0 1 969.514 216.884)"/></g><path d="M15 0L314.659 0C322.939 0 329.659 6.72 329.659 15L329.659 94.8774C329.659 103.157 322.939 109.877 314.659 109.877L15 109.877C6.72 109.877 0 103.157 0 94.8774L0 15C0 6.72 6.72 0 15 0Z" fill="#F8C4ED" fill-opacity="1.000000" transform="matrix(1 0 0 1 1378.72 420.804)"/><path d="M15 0L314.659 0C322.939 0 329.659 6.72 329.659 15L329.659 94.8774C329.659 103.157 322.939 109.877 314.659 109.877L15 109.877C6.72 109.877 0 103.157 0 94.8774L0 15C0 6.72 6.72 0 15 0Z" fill="none" stroke="#000000" stroke-opacity="1.000000" stroke-width="2" stroke-dasharray="0 0" transform="matrix(1 0 0 1 1378.72 420.804)"/><clipPath id="clip_7_18_0"><path d="M1384.61 439.7L1700.48 439.7L1700.48 535.785L1384.61 535.785L1384.61 439.7Z"/></clipPath><g clip-path="url(#clip_7_18_0)"><path d="M30.1047 73.5174C36.7727 73.5174 41.05 67.4237 41.05 55.1893C41.05 42.9901 36.7727 37.0369 30.1047 37.0369C23.3781 37.0369 19.1125 42.9432 19.1125 55.1893C19.1125 67.4237 23.3781 73.5174 30.1047 73.5174ZM30.1047 70.0135C26.0734 70.0135 23.3781 65.5487 23.3781 55.1893C23.3781 44.9119 26.0734 40.5877 30.1047 40.5877C34.0891 40.5877 36.7727 44.9119 36.7727 55.1893C36.7727 65.5487 34.0891 70.0135 30.1047 70.0135ZM44.1119 72.8963L48.7291 72.8963L52.233 66.8026C53.1354 65.2205 54.0026 63.6268 54.9166 62.1385L55.1627 62.1385C56.1119 63.6268 57.0729 65.2205 57.9401 66.8026L61.7838 72.8963L66.5768 72.8963L57.9869 59.7479L65.9088 46.8338L61.3502 46.8338L58.1276 52.5877C57.3658 54.0291 56.5924 55.4705 55.7838 56.9119L55.5846 56.9119C54.7291 55.4705 53.8151 54.0291 52.9948 52.5877L49.4908 46.8338L44.7916 46.8338L52.7135 59.3143L44.1119 72.8963ZM79.8285 73.5174C85.7816 73.5174 91.348 69.158 91.348 61.4237C91.348 53.701 86.6019 50.244 80.7426 50.244C78.6332 50.244 77.0394 50.7713 75.5043 51.6268L76.3715 41.4549L89.6722 41.4549L89.6722 37.7166L72.5277 37.7166L71.4262 54.1815L73.7816 55.6112C75.7972 54.2752 77.2855 53.5487 79.641 53.5487C84.059 53.5487 86.9301 56.5252 86.9301 61.5643C86.9301 66.7088 83.5785 69.8729 79.4418 69.8729C75.3637 69.8729 72.8207 67.9979 70.8051 65.9823L68.6488 68.8651C70.9926 71.2205 74.3558 73.5174 79.8285 73.5174ZM112.035 73.5174C116.594 73.5174 120.051 71.701 122.84 68.4783L120.39 65.701C118.129 68.1385 115.586 69.6268 112.234 69.6268C105.508 69.6268 101.289 64.0604 101.289 55.1893C101.289 46.4002 105.707 40.9276 112.375 40.9276C115.398 40.9276 117.754 42.3221 119.57 44.2909L121.972 41.408C119.957 39.158 116.594 37.0369 112.328 37.0369C103.398 37.0369 96.7303 43.951 96.7303 55.3299C96.7303 66.7557 103.304 73.5174 112.035 73.5174ZM137.093 73.5174C143.046 73.5174 148.612 69.158 148.612 61.4237C148.612 53.701 143.866 50.244 138.007 50.244C135.897 50.244 134.304 50.7713 132.768 51.6268L133.636 41.4549L146.936 41.4549L146.936 37.7166L129.792 37.7166L128.69 54.1815L131.046 55.6112C133.061 54.2752 134.55 53.5487 136.905 53.5487C141.323 53.5487 144.194 56.5252 144.194 61.5643C144.194 66.7088 140.843 69.8729 136.706 69.8729C132.628 69.8729 130.085 67.9979 128.069 65.9823L125.913 68.8651C128.257 71.2205 131.62 73.5174 137.093 73.5174ZM163.733 56.2909C159.561 56.2909 157.44 53.2205 157.44 48.4627C157.44 43.6698 160.041 40.494 163.393 40.494C167.905 40.494 170.6 44.3377 171.08 51.5799C168.725 54.9432 166.088 56.2909 163.733 56.2909ZM153.994 69.9198C155.963 71.9823 158.647 73.5174 162.432 73.5174C169.065 73.5174 175.205 68.0448 175.205 53.7948C175.205 42.6034 170.166 37.0369 163.393 37.0369C157.92 37.0369 153.315 41.6541 153.315 48.4627C153.315 55.7635 157.158 59.5487 163.018 59.5487C165.994 59.5487 169.018 57.826 171.127 55.1893C170.787 66.1229 166.85 69.8729 162.291 69.8729C160.041 69.8729 157.873 68.8651 156.385 67.1893L153.994 69.9198ZM182.65 72.8963L187.115 72.8963L187.115 57.0994L200.545 57.0994L200.545 53.3612L187.115 53.3612L187.115 41.4549L202.947 41.4549L202.947 37.7166L182.65 37.7166L182.65 72.8963ZM216.869 73.5174C222.822 73.5174 228.388 69.158 228.388 61.4237C228.388 53.701 223.642 50.244 217.783 50.244C215.673 50.244 214.08 50.7713 212.545 51.6268L213.412 41.4549L226.713 41.4549L226.713 37.7166L209.568 37.7166L208.466 54.1815L210.822 55.6112C212.838 54.2752 214.326 53.5487 216.681 53.5487C221.099 53.5487 223.97 56.5252 223.97 61.5643C223.97 66.7088 220.619 69.8729 216.482 69.8729C212.404 69.8729 209.861 67.9979 207.845 65.9823L205.689 68.8651C208.033 71.2205 211.396 73.5174 216.869 73.5174ZM243.649 73.5174C249.896 73.5174 254.935 69.7791 254.935 63.4862C254.935 58.6932 251.618 55.5174 247.446 54.5565L247.446 54.369C251.185 52.9744 253.739 50.1385 253.739 45.8729C253.739 40.2127 249.415 37.0369 243.509 37.0369C239.431 37.0369 236.314 38.8182 233.665 41.2674L236.021 44.0448C237.989 42.076 240.485 40.6346 243.321 40.5409C246.966 40.6346 249.274 42.8026 249.274 46.2127C249.274 49.9979 246.778 52.9276 239.524 52.9276L239.524 56.2909C247.634 56.2909 250.47 59.1151 250.47 63.3455C250.47 67.3768 247.493 69.8729 243.321 69.8729C239.337 69.8729 236.642 67.9979 234.579 65.8416L232.376 68.7244C234.673 71.2205 238.13 73.5174 243.649 73.5174ZM263.141 59.701L271.157 47.701C272.165 45.9666 273.125 44.244 273.993 42.5096L274.18 42.5096C274.086 44.3377 273.899 47.1737 273.899 48.8963L273.899 59.701L263.141 59.701ZM282.723 59.701L278.071 59.701L278.071 37.7166L273.219 37.7166L258.583 60.3221L258.583 63.2049L273.899 63.2049L273.899 72.8963L278.071 72.8963L278.071 63.2049L282.723 63.2049L282.723 59.701ZM293.766 72.8963L298.324 72.8963C298.851 59.1151 300.387 50.9588 308.648 40.3534L308.648 37.7166L286.617 37.7166L286.617 41.4549L303.656 41.4549C296.789 51.0526 294.34 59.5487 293.766 72.8963Z" fill="#19191A" fill-opacity="1.000000" transform="matrix(1 0 0 1 1378.72 420.804)"/></g><path d="M15 0L314.659 0C322.939 0 329.659 6.72 329.659 15L329.659 94.8774C329.659 103.157 322.939 109.877 314.659 109.877L15 109.877C6.72 109.877 0 103.157 0 94.8774L0 15C0 6.72 6.72 0 15 0Z" fill="#D5FFEC" fill-opacity="1.000000" transform="matrix(1 0 0 1 1378.72 216.885)"/><path d="M15 0L314.659 0C322.939 0 329.659 6.72 329.659 15L329.659 94.8774C329.659 103.157 322.939 109.877 314.659 109.877L15 109.877C6.72 109.877 0 103.157 0 94.8774L0 15C0 6.72 6.72 0 15 0Z" fill="none" stroke="#000000" stroke-opacity="1.000000" stroke-width="2" stroke-dasharray="0 0" transform="matrix(1 0 0 1 1378.72 216.885)"/><clipPath id="clip_7_20_0"><path d="M1384.61 235.781L1700.48 235.781L1700.48 331.866L1384.61 331.866L1384.61 235.781Z"/></clipPath><g clip-path="url(#clip_7_20_0)"><path d="M145.138 49.7166L147.822 49.7166L148.689 40.8338L148.783 35.8885L144.178 35.8885L144.271 40.8338L145.138 49.7166ZM158.002 72.8963L177.818 72.8963L177.818 69.0994L162.467 69.0994L162.467 37.7166L158.002 37.7166L158.002 72.8963ZM179.747 49.7166L182.43 49.7166L183.297 40.8338L183.391 35.8885L178.786 35.8885L178.879 40.8338L179.747 49.7166Z" fill="#19191A" fill-opacity="1.000000" transform="matrix(1 0 0 1 1378.72 216.885)"/></g><path d="M15 0L314.659 0C322.939 0 329.659 6.72 329.659 15L329.659 94.8774C329.659 103.157 322.939 109.877 314.659 109.877L15 109.877C6.72 109.877 0 103.157 0 94.8774L0 15C0 6.72 6.72 0 15 0Z" fill="#F8C4ED" fill-opacity="1.000000" transform="matrix(1 0 0 1 1787.92 420.804)"/><path d="M15 0L314.659 0C322.939 0 329.659 6.72 329.659 15L329.659 94.8774C329.659 103.157 322.939 109.877 314.659 109.877L15 109.877C6.72 109.877 0 103.157 0 94.8774L0 15C0 6.72 6.72 0 15 0Z" fill="none" stroke="#000000" stroke-opacity="1.000000" stroke-width="2" stroke-dasharray="0 0" transform="matrix(1 0 0 1 1787.92 420.804)"/><clipPath id="clip_7_21_0"><path d="M1793.82 439.7L2109.68 439.7L2109.68 535.785L1793.82 535.785L1793.82 439.7Z"/></clipPath><g clip-path="url(#clip_7_21_0)"><path d="M30.1047 73.5174C36.7727 73.5174 41.05 67.4237 41.05 55.1893C41.05 42.9901 36.7727 37.0369 30.1047 37.0369C23.3781 37.0369 19.1125 42.9432 19.1125 55.1893C19.1125 67.4237 23.3781 73.5174 30.1047 73.5174ZM30.1047 70.0135C26.0734 70.0135 23.3781 65.5487 23.3781 55.1893C23.3781 44.9119 26.0734 40.5877 30.1047 40.5877C34.0891 40.5877 36.7727 44.9119 36.7727 55.1893C36.7727 65.5487 34.0891 70.0135 30.1047 70.0135ZM44.1119 72.8963L48.7291 72.8963L52.233 66.8026C53.1354 65.2205 54.0026 63.6268 54.9166 62.1385L55.1627 62.1385C56.1119 63.6268 57.0729 65.2205 57.9401 66.8026L61.7838 72.8963L66.5768 72.8963L57.9869 59.7479L65.9088 46.8338L61.3502 46.8338L58.1276 52.5877C57.3658 54.0291 56.5924 55.4705 55.7838 56.9119L55.5846 56.9119C54.7291 55.4705 53.8151 54.0291 52.9948 52.5877L49.4908 46.8338L44.7916 46.8338L52.7135 59.3143L44.1119 72.8963ZM79.8285 73.5174C85.7816 73.5174 91.348 69.158 91.348 61.4237C91.348 53.701 86.6019 50.244 80.7426 50.244C78.6332 50.244 77.0394 50.7713 75.5043 51.6268L76.3715 41.4549L89.6722 41.4549L89.6722 37.7166L72.5277 37.7166L71.4262 54.1815L73.7816 55.6112C75.7972 54.2752 77.2855 53.5487 79.641 53.5487C84.059 53.5487 86.9301 56.5252 86.9301 61.5643C86.9301 66.7088 83.5785 69.8729 79.4418 69.8729C75.3637 69.8729 72.8207 67.9979 70.8051 65.9823L68.6488 68.8651C70.9926 71.2205 74.3558 73.5174 79.8285 73.5174ZM112.035 73.5174C116.594 73.5174 120.051 71.701 122.84 68.4783L120.39 65.701C118.129 68.1385 115.586 69.6268 112.234 69.6268C105.508 69.6268 101.289 64.0604 101.289 55.1893C101.289 46.4002 105.707 40.9276 112.375 40.9276C115.398 40.9276 117.754 42.3221 119.57 44.2909L121.972 41.408C119.957 39.158 116.594 37.0369 112.328 37.0369C103.398 37.0369 96.7303 43.951 96.7303 55.3299C96.7303 66.7557 103.304 73.5174 112.035 73.5174ZM137.093 73.5174C143.046 73.5174 148.612 69.158 148.612 61.4237C148.612 53.701 143.866 50.244 138.007 50.244C135.897 50.244 134.304 50.7713 132.768 51.6268L133.636 41.4549L146.936 41.4549L146.936 37.7166L129.792 37.7166L128.69 54.1815L131.046 55.6112C133.061 54.2752 134.55 53.5487 136.905 53.5487C141.323 53.5487 144.194 56.5252 144.194 61.5643C144.194 66.7088 140.843 69.8729 136.706 69.8729C132.628 69.8729 130.085 67.9979 128.069 65.9823L125.913 68.8651C128.257 71.2205 131.62 73.5174 137.093 73.5174ZM163.733 56.2909C159.561 56.2909 157.44 53.2205 157.44 48.4627C157.44 43.6698 160.041 40.494 163.393 40.494C167.905 40.494 170.6 44.3377 171.08 51.5799C168.725 54.9432 166.088 56.2909 163.733 56.2909ZM153.994 69.9198C155.963 71.9823 158.647 73.5174 162.432 73.5174C169.065 73.5174 175.205 68.0448 175.205 53.7948C175.205 42.6034 170.166 37.0369 163.393 37.0369C157.92 37.0369 153.315 41.6541 153.315 48.4627C153.315 55.7635 157.158 59.5487 163.018 59.5487C165.994 59.5487 169.018 57.826 171.127 55.1893C170.787 66.1229 166.85 69.8729 162.291 69.8729C160.041 69.8729 157.873 68.8651 156.385 67.1893L153.994 69.9198ZM182.65 72.8963L187.115 72.8963L187.115 57.0994L200.545 57.0994L200.545 53.3612L187.115 53.3612L187.115 41.4549L202.947 41.4549L202.947 37.7166L182.65 37.7166L182.65 72.8963ZM216.869 73.5174C222.822 73.5174 228.388 69.158 228.388 61.4237C228.388 53.701 223.642 50.244 217.783 50.244C215.673 50.244 214.08 50.7713 212.545 51.6268L213.412 41.4549L226.713 41.4549L226.713 37.7166L209.568 37.7166L208.466 54.1815L210.822 55.6112C212.838 54.2752 214.326 53.5487 216.681 53.5487C221.099 53.5487 223.97 56.5252 223.97 61.5643C223.97 66.7088 220.619 69.8729 216.482 69.8729C212.404 69.8729 209.861 67.9979 207.845 65.9823L205.689 68.8651C208.033 71.2205 211.396 73.5174 216.869 73.5174ZM243.649 73.5174C249.896 73.5174 254.935 69.7791 254.935 63.4862C254.935 58.6932 251.618 55.5174 247.446 54.5565L247.446 54.369C251.185 52.9744 253.739 50.1385 253.739 45.8729C253.739 40.2127 249.415 37.0369 243.509 37.0369C239.431 37.0369 236.314 38.8182 233.665 41.2674L236.021 44.0448C237.989 42.076 240.485 40.6346 243.321 40.5409C246.966 40.6346 249.274 42.8026 249.274 46.2127C249.274 49.9979 246.778 52.9276 239.524 52.9276L239.524 56.2909C247.634 56.2909 250.47 59.1151 250.47 63.3455C250.47 67.3768 247.493 69.8729 243.321 69.8729C239.337 69.8729 236.642 67.9979 234.579 65.8416L232.376 68.7244C234.673 71.2205 238.13 73.5174 243.649 73.5174ZM263.141 59.701L271.157 47.701C272.165 45.9666 273.125 44.244 273.993 42.5096L274.18 42.5096C274.086 44.3377 273.899 47.1737 273.899 48.8963L273.899 59.701L263.141 59.701ZM282.723 59.701L278.071 59.701L278.071 37.7166L273.219 37.7166L258.583 60.3221L258.583 63.2049L273.899 63.2049L273.899 72.8963L278.071 72.8963L278.071 63.2049L282.723 63.2049L282.723 59.701ZM297.656 73.5174C304.277 73.5174 308.695 69.533 308.695 64.4002C308.695 59.5955 305.812 56.9588 302.742 55.1893L302.742 54.9432C304.851 53.3143 307.441 50.1385 307.441 46.4471C307.441 41.0213 303.797 37.1893 297.797 37.1893C292.277 37.1893 288.152 40.7401 288.152 46.1073C288.152 49.8104 290.309 52.4471 292.898 54.2284L292.898 54.4627C289.687 56.1971 286.418 59.4549 286.418 64.1658C286.418 69.5799 291.176 73.5174 297.656 73.5174ZM300.059 53.7948C295.922 52.1659 292.137 50.3377 292.137 46.1073C292.137 42.7088 294.48 40.4002 297.703 40.4002C301.488 40.4002 303.703 43.2362 303.703 46.6932C303.703 49.283 302.449 51.6854 300.059 53.7948ZM297.75 70.2596C293.531 70.2596 290.402 67.5174 290.402 63.7791C290.402 60.4159 292.371 57.6268 295.207 55.8104C300.199 57.826 304.523 59.5955 304.523 64.3065C304.523 67.8104 301.781 70.2596 297.75 70.2596Z" fill="#19191A" fill-opacity="1.000000" transform="matrix(1 0 0 1 1787.92 420.804)"/></g><path d="M15 0L314.659 0C322.939 0 329.659 6.72 329.659 15L329.659 94.8774C329.659 103.157 322.939 109.877 314.659 109.877L15 109.877C6.72 109.877 0 103.157 0 94.8774L0 15C0 6.72 6.72 0 15 0Z" fill="#D5FFEC" fill-opacity="1.000000" transform="matrix(1 0 0 1 1787.92 216.885)"/><path d="M15 0L314.659 0C322.939 0 329.659 6.72 329.659 15L329.659 94.8774C329.659 103.157 322.939 109.877 314.659 109.877L15 109.877C6.72 109.877 0 103.157 0 94.8774L0 15C0 6.72 6.72 0 15 0Z" fill="none" stroke="#000000" stroke-opacity="1.000000" stroke-width="2" stroke-dasharray="0 0" transform="matrix(1 0 0 1 1787.92 216.885)"/><clipPath id="clip_7_23_0"><path d="M1793.82 235.781L2109.68 235.781L2109.68 331.866L1793.82 331.866L1793.82 235.781Z"/></clipPath><g clip-path="url(#clip_7_23_0)"><path d="M137.962 49.7166L140.646 49.7166L141.513 40.8338L141.607 35.8885L137.002 35.8885L137.095 40.8338L137.962 49.7166ZM163.834 73.5174C172.658 73.5174 178.857 66.4627 178.857 55.1893C178.857 43.9041 172.658 37.0369 163.834 37.0369C154.998 37.0369 148.81 43.9041 148.81 55.1893C148.81 66.4627 154.998 73.5174 163.834 73.5174ZM163.834 69.6268C157.494 69.6268 153.369 63.9666 153.369 55.1893C153.369 46.3534 157.494 40.9276 163.834 40.9276C170.115 40.9276 174.299 46.3534 174.299 55.1893C174.299 63.9666 170.115 69.6268 163.834 69.6268ZM186.923 49.7166L189.606 49.7166L190.473 40.8338L190.567 35.8885L185.962 35.8885L186.055 40.8338L186.923 49.7166Z" fill="#19191A" fill-opacity="1.000000" transform="matrix(1 0 0 1 1787.92 216.885)"/></g><path d="M15 0L314.659 0C322.939 0 329.659 6.72 329.659 15L329.659 94.8774C329.659 103.157 322.939 109.877 314.659 109.877L15 109.877C6.72 109.877 0 103.157 0 94.8774L0 15C0 6.72 6.72 0 15 0Z" fill="#F8C4ED" fill-opacity="1.000000" transform="matrix(1 0 0 1 2197.13 420.803)"/><path d="M15 0L314.659 0C322.939 0 329.659 6.72 329.659 15L329.659 94.8774C329.659 103.157 322.939 109.877 314.659 109.877L15 109.877C6.72 109.877 0 103.157 0 94.8774L0 15C0 6.72 6.72 0 15 0Z" fill="none" stroke="#000000" stroke-opacity="1.000000" stroke-width="2" stroke-dasharray="0 0" transform="matrix(1 0 0 1 2197.13 420.803)"/><clipPath id="clip_7_24_0"><path d="M2203.02 439.699L2518.89 439.699L2518.89 535.784L2203.02 535.784L2203.02 439.699Z"/></clipPath><g clip-path="url(#clip_7_24_0)"><path d="M30.1047 73.5174C36.7727 73.5174 41.05 67.4237 41.05 55.1893C41.05 42.9901 36.7727 37.0369 30.1047 37.0369C23.3781 37.0369 19.1125 42.9432 19.1125 55.1893C19.1125 67.4237 23.3781 73.5174 30.1047 73.5174ZM30.1047 70.0135C26.0734 70.0135 23.3781 65.5487 23.3781 55.1893C23.3781 44.9119 26.0734 40.5877 30.1047 40.5877C34.0891 40.5877 36.7727 44.9119 36.7727 55.1893C36.7727 65.5487 34.0891 70.0135 30.1047 70.0135ZM44.1119 72.8963L48.7291 72.8963L52.233 66.8026C53.1354 65.2205 54.0026 63.6268 54.9166 62.1385L55.1627 62.1385C56.1119 63.6268 57.0729 65.2205 57.9401 66.8026L61.7838 72.8963L66.5768 72.8963L57.9869 59.7479L65.9088 46.8338L61.3502 46.8338L58.1276 52.5877C57.3658 54.0291 56.5924 55.4705 55.7838 56.9119L55.5846 56.9119C54.7291 55.4705 53.8151 54.0291 52.9948 52.5877L49.4908 46.8338L44.7916 46.8338L52.7135 59.3143L44.1119 72.8963ZM79.8285 73.5174C85.7816 73.5174 91.348 69.158 91.348 61.4237C91.348 53.701 86.6019 50.244 80.7426 50.244C78.6332 50.244 77.0394 50.7713 75.5043 51.6268L76.3715 41.4549L89.6722 41.4549L89.6722 37.7166L72.5277 37.7166L71.4262 54.1815L73.7816 55.6112C75.7972 54.2752 77.2855 53.5487 79.641 53.5487C84.059 53.5487 86.9301 56.5252 86.9301 61.5643C86.9301 66.7088 83.5785 69.8729 79.4418 69.8729C75.3637 69.8729 72.8207 67.9979 70.8051 65.9823L68.6488 68.8651C70.9926 71.2205 74.3558 73.5174 79.8285 73.5174ZM112.035 73.5174C116.594 73.5174 120.051 71.701 122.84 68.4783L120.39 65.701C118.129 68.1385 115.586 69.6268 112.234 69.6268C105.508 69.6268 101.289 64.0604 101.289 55.1893C101.289 46.4002 105.707 40.9276 112.375 40.9276C115.398 40.9276 117.754 42.3221 119.57 44.2909L121.972 41.408C119.957 39.158 116.594 37.0369 112.328 37.0369C103.398 37.0369 96.7303 43.951 96.7303 55.3299C96.7303 66.7557 103.304 73.5174 112.035 73.5174ZM137.093 73.5174C143.046 73.5174 148.612 69.158 148.612 61.4237C148.612 53.701 143.866 50.244 138.007 50.244C135.897 50.244 134.304 50.7713 132.768 51.6268L133.636 41.4549L146.936 41.4549L146.936 37.7166L129.792 37.7166L128.69 54.1815L131.046 55.6112C133.061 54.2752 134.55 53.5487 136.905 53.5487C141.323 53.5487 144.194 56.5252 144.194 61.5643C144.194 66.7088 140.843 69.8729 136.706 69.8729C132.628 69.8729 130.085 67.9979 128.069 65.9823L125.913 68.8651C128.257 71.2205 131.62 73.5174 137.093 73.5174ZM163.733 56.2909C159.561 56.2909 157.44 53.2205 157.44 48.4627C157.44 43.6698 160.041 40.494 163.393 40.494C167.905 40.494 170.6 44.3377 171.08 51.5799C168.725 54.9432 166.088 56.2909 163.733 56.2909ZM153.994 69.9198C155.963 71.9823 158.647 73.5174 162.432 73.5174C169.065 73.5174 175.205 68.0448 175.205 53.7948C175.205 42.6034 170.166 37.0369 163.393 37.0369C157.92 37.0369 153.315 41.6541 153.315 48.4627C153.315 55.7635 157.158 59.5487 163.018 59.5487C165.994 59.5487 169.018 57.826 171.127 55.1893C170.787 66.1229 166.85 69.8729 162.291 69.8729C160.041 69.8729 157.873 68.8651 156.385 67.1893L153.994 69.9198ZM182.65 72.8963L187.115 72.8963L187.115 57.0994L200.545 57.0994L200.545 53.3612L187.115 53.3612L187.115 41.4549L202.947 41.4549L202.947 37.7166L182.65 37.7166L182.65 72.8963ZM216.869 73.5174C222.822 73.5174 228.388 69.158 228.388 61.4237C228.388 53.701 223.642 50.244 217.783 50.244C215.673 50.244 214.08 50.7713 212.545 51.6268L213.412 41.4549L226.713 41.4549L226.713 37.7166L209.568 37.7166L208.466 54.1815L210.822 55.6112C212.838 54.2752 214.326 53.5487 216.681 53.5487C221.099 53.5487 223.97 56.5252 223.97 61.5643C223.97 66.7088 220.619 69.8729 216.482 69.8729C212.404 69.8729 209.861 67.9979 207.845 65.9823L205.689 68.8651C208.033 71.2205 211.396 73.5174 216.869 73.5174ZM243.649 73.5174C249.896 73.5174 254.935 69.7791 254.935 63.4862C254.935 58.6932 251.618 55.5174 247.446 54.5565L247.446 54.369C251.185 52.9744 253.739 50.1385 253.739 45.8729C253.739 40.2127 249.415 37.0369 243.509 37.0369C239.431 37.0369 236.314 38.8182 233.665 41.2674L236.021 44.0448C237.989 42.076 240.485 40.6346 243.321 40.5409C246.966 40.6346 249.274 42.8026 249.274 46.2127C249.274 49.9979 246.778 52.9276 239.524 52.9276L239.524 56.2909C247.634 56.2909 250.47 59.1151 250.47 63.3455C250.47 67.3768 247.493 69.8729 243.321 69.8729C239.337 69.8729 236.642 67.9979 234.579 65.8416L232.376 68.7244C234.673 71.2205 238.13 73.5174 243.649 73.5174ZM263.141 59.701L271.157 47.701C272.165 45.9666 273.125 44.244 273.993 42.5096L274.18 42.5096C274.086 44.3377 273.899 47.1737 273.899 48.8963L273.899 59.701L263.141 59.701ZM282.723 59.701L278.071 59.701L278.071 37.7166L273.219 37.7166L258.583 60.3221L258.583 63.2049L273.899 63.2049L273.899 72.8963L278.071 72.8963L278.071 63.2049L282.723 63.2049L282.723 59.701ZM296.789 56.2909C292.617 56.2909 290.496 53.2205 290.496 48.4627C290.496 43.6698 293.098 40.494 296.449 40.494C300.961 40.494 303.656 44.3377 304.137 51.5799C301.781 54.9432 299.144 56.2909 296.789 56.2909ZM287.051 69.9198C289.019 71.9823 291.703 73.5174 295.488 73.5174C302.121 73.5174 308.262 68.0448 308.262 53.7948C308.262 42.6034 303.223 37.0369 296.449 37.0369C290.976 37.0369 286.371 41.6541 286.371 48.4627C286.371 55.7635 290.215 59.5487 296.074 59.5487C299.051 59.5487 302.074 57.826 304.184 55.1893C303.844 66.1229 299.906 69.8729 295.348 69.8729C293.098 69.8729 290.93 68.8651 289.441 67.1893L287.051 69.9198Z" fill="#19191A" fill-opacity="1.000000" transform="matrix(1 0 0 1 2197.13 420.803)"/></g><path d="M15 0L314.659 0C322.939 0 329.659 6.72 329.659 15L329.659 94.8774C329.659 103.157 322.939 109.877 314.659 109.877L15 109.877C6.72 109.877 0 103.157 0 94.8774L0 15C0 6.72 6.72 0 15 0Z" fill="#D5FFEC" fill-opacity="1.000000" transform="matrix(1 0 0 1 2197.13 216.884)"/><path d="M15 0L314.659 0C322.939 0 329.659 6.72 329.659 15L329.659 94.8774C329.659 103.157 322.939 109.877 314.659 109.877L15 109.877C6.72 109.877 0 103.157 0 94.8774L0 15C0 6.72 6.72 0 15 0Z" fill="none" stroke="#000000" stroke-opacity="1.000000" stroke-width="2" stroke-dasharray="0 0" transform="matrix(1 0 0 1 2197.13 216.884)"/><clipPath id="clip_7_26_0"><path d="M2203.02 235.78L2518.89 235.78L2518.89 331.865L2203.02 331.865L2203.02 235.78Z"/></clipPath><g clip-path="url(#clip_7_26_0)"><path d="M133.042 49.7166L135.726 49.7166L136.593 40.8338L136.687 35.8885L132.082 35.8885L132.175 40.8338L133.042 49.7166ZM156.172 81.4862L159.336 81.4862L144.992 34.8338L141.816 34.8338L156.172 81.4862ZM173.265 73.5174C179.933 73.5174 184.21 67.4237 184.21 55.1893C184.21 42.9901 179.933 37.0369 173.265 37.0369C166.538 37.0369 162.273 42.9432 162.273 55.1893C162.273 67.4237 166.538 73.5174 173.265 73.5174ZM173.265 70.0135C169.234 70.0135 166.538 65.5487 166.538 55.1893C166.538 44.9119 169.234 40.5877 173.265 40.5877C177.249 40.5877 179.933 44.9119 179.933 55.1893C179.933 65.5487 177.249 70.0135 173.265 70.0135ZM191.843 49.7166L194.526 49.7166L195.393 40.8338L195.487 35.8885L190.882 35.8885L190.975 40.8338L191.843 49.7166Z" fill="#19191A" fill-opacity="1.000000" transform="matrix(1 0 0 1 2197.13 216.884)"/></g><path d="M15 0L314.659 0C322.939 0 329.659 6.72 329.659 15L329.659 94.8774C329.659 103.157 322.939 109.877 314.659 109.877L15 109.877C6.72 109.877 0 103.157 0 94.8774L0 15C0 6.72 6.72 0 15 0Z" fill="#C4D9FD" fill-opacity="1.000000" transform="matrix(1 0 0 1 151.106 12.9666)"/><path d="M15 0L314.659 0C322.939 0 329.659 6.72 329.659 15L329.659 94.8774C329.659 103.157 322.939 109.877 314.659 109.877L15 109.877C6.72 109.877 0 103.157 0 94.8774L0 15C0 6.72 6.72 0 15 0Z" fill="none" stroke="#000000" stroke-opacity="1.000000" stroke-width="2" stroke-dasharray="0 0" transform="matrix(1 0 0 1 151.106 12.9666)"/><clipPath id="clip_7_27_0"><path d="M157.003 31.8629L472.869 31.8629L472.869 127.948L157.003 127.948L157.003 31.8629Z"/></clipPath><g clip-path="url(#clip_7_27_0)"><path d="M163.857 73.5174C170.525 73.5174 174.802 67.4237 174.802 55.1893C174.802 42.9901 170.525 37.0369 163.857 37.0369C157.13 37.0369 152.865 42.9432 152.865 55.1893C152.865 67.4237 157.13 73.5174 163.857 73.5174ZM163.857 70.0135C159.826 70.0135 157.13 65.5487 157.13 55.1893C157.13 44.9119 159.826 40.5877 163.857 40.5877C167.841 40.5877 170.525 44.9119 170.525 55.1893C170.525 65.5487 167.841 70.0135 163.857 70.0135Z" fill="#19191A" fill-opacity="1.000000" transform="matrix(1 0 0 1 151.106 12.9666)"/></g><path d="M15 0L314.659 0C322.939 0 329.659 6.72 329.659 15L329.659 94.8774C329.659 103.157 322.939 109.877 314.659 109.877L15 109.877C6.72 109.877 0 103.157 0 94.8774L0 15C0 6.72 6.72 0 15 0Z" fill="#C4D9FD" fill-opacity="1.000000" transform="matrix(1 0 0 1 560.31 12.9666)"/><path d="M15 0L314.659 0C322.939 0 329.659 6.72 329.659 15L329.659 94.8774C329.659 103.157 322.939 109.877 314.659 109.877L15 109.877C6.72 109.877 0 103.157 0 94.8774L0 15C0 6.72 6.72 0 15 0Z" fill="none" stroke="#000000" stroke-opacity="1.000000" stroke-width="2" stroke-dasharray="0 0" transform="matrix(1 0 0 1 560.31 12.9666)"/><clipPath id="clip_7_28_0"><path d="M566.207 31.8629L882.073 31.8629L882.073 127.948L566.207 127.948L566.207 31.8629Z"/></clipPath><g clip-path="url(#clip_7_28_0)"><path d="M154.728 72.8963L174.029 72.8963L174.029 69.2518L166.974 69.2518L166.974 37.7166L163.611 37.7166C161.689 38.8182 159.439 39.6268 156.322 40.2127L156.322 42.9901L162.556 42.9901L162.556 69.2518L154.728 69.2518L154.728 72.8963Z" fill="#19191A" fill-opacity="1.000000" transform="matrix(1 0 0 1 560.31 12.9666)"/></g><path d="M15 0L314.659 0C322.939 0 329.659 6.72 329.659 15L329.659 94.8774C329.659 103.157 322.939 109.877 314.659 109.877L15 109.877C6.72 109.877 0 103.157 0 94.8774L0 15C0 6.72 6.72 0 15 0Z" fill="#C4D9FD" fill-opacity="1.000000" transform="matrix(1 0 0 1 969.514 12.9664)"/><path d="M15 0L314.659 0C322.939 0 329.659 6.72 329.659 15L329.659 94.8774C329.659 103.157 322.939 109.877 314.659 109.877L15 109.877C6.72 109.877 0 103.157 0 94.8774L0 15C0 6.72 6.72 0 15 0Z" fill="none" stroke="#000000" stroke-opacity="1.000000" stroke-width="2" stroke-dasharray="0 0" transform="matrix(1 0 0 1 969.514 12.9664)"/><clipPath id="clip_7_29_0"><path d="M975.411 31.8627L1291.28 31.8627L1291.28 127.947L975.411 127.947L975.411 31.8627Z"/></clipPath><g clip-path="url(#clip_7_29_0)"><path d="M152.619 72.8963L174.744 72.8963L174.744 69.0994L165.005 69.0994C163.224 69.0994 161.068 69.2987 159.24 69.4393C167.502 61.6112 173.021 54.4627 173.021 47.4549C173.021 41.1737 169.084 37.0369 162.802 37.0369C158.337 37.0369 155.314 39.0994 152.431 42.2284L154.974 44.7244C156.896 42.4159 159.392 40.6346 162.275 40.6346C166.634 40.6346 168.744 43.5643 168.744 47.5955C168.744 53.6541 163.658 60.6619 152.619 70.3065L152.619 72.8963Z" fill="#19191A" fill-opacity="1.000000" transform="matrix(1 0 0 1 969.514 12.9664)"/></g><path d="M15 0L314.659 0C322.939 0 329.659 6.72 329.659 15L329.659 94.8774C329.659 103.157 322.939 109.877 314.659 109.877L15 109.877C6.72 109.877 0 103.157 0 94.8774L0 15C0 6.72 6.72 0 15 0Z" fill="#C4D9FD" fill-opacity="1.000000" transform="matrix(1 0 0 1 1378.72 12.9666)"/><path d="M15 0L314.659 0C322.939 0 329.659 6.72 329.659 15L329.659 94.8774C329.659 103.157 322.939 109.877 314.659 109.877L15 109.877C6.72 109.877 0 103.157 0 94.8774L0 15C0 6.72 6.72 0 15 0Z" fill="none" stroke="#000000" stroke-opacity="1.000000" stroke-width="2" stroke-dasharray="0 0" transform="matrix(1 0 0 1 1378.72 12.9666)"/><clipPath id="clip_7_30_0"><path d="M1384.61 31.8629L1700.48 31.8629L1700.48 127.948L1384.61 127.948L1384.61 31.8629Z"/></clipPath><g clip-path="url(#clip_7_30_0)"><path d="M163.177 73.5174C169.423 73.5174 174.462 69.7791 174.462 63.4862C174.462 58.6932 171.146 55.5174 166.974 54.5565L166.974 54.369C170.712 52.9744 173.267 50.1385 173.267 45.8729C173.267 40.2127 168.943 37.0369 163.037 37.0369C158.959 37.0369 155.841 38.8182 153.193 41.2674L155.548 44.0448C157.517 42.076 160.013 40.6346 162.849 40.5409C166.494 40.6346 168.802 42.8026 168.802 46.2127C168.802 49.9979 166.306 52.9276 159.052 52.9276L159.052 56.2909C167.162 56.2909 169.998 59.1151 169.998 63.3455C169.998 67.3768 167.021 69.8729 162.849 69.8729C158.865 69.8729 156.169 67.9979 154.107 65.8416L151.904 68.7244C154.201 71.2205 157.658 73.5174 163.177 73.5174Z" fill="#19191A" fill-opacity="1.000000" transform="matrix(1 0 0 1 1378.72 12.9666)"/></g><path d="M15 0L314.659 0C322.939 0 329.659 6.72 329.659 15L329.659 94.8774C329.659 103.157 322.939 109.877 314.659 109.877L15 109.877C6.72 109.877 0 103.157 0 94.8774L0 15C0 6.72 6.72 0 15 0Z" fill="#C4D9FD" fill-opacity="1.000000" transform="matrix(1 0 0 1 1787.92 12.9666)"/><path d="M15 0L314.659 0C322.939 0 329.659 6.72 329.659 15L329.659 94.8774C329.659 103.157 322.939 109.877 314.659 109.877L15 109.877C6.72 109.877 0 103.157 0 94.8774L0 15C0 6.72 6.72 0 15 0Z" fill="none" stroke="#000000" stroke-opacity="1.000000" stroke-width="2" stroke-dasharray="0 0" transform="matrix(1 0 0 1 1787.92 12.9666)"/><clipPath id="clip_7_31_0"><path d="M1793.82 31.8629L2109.68 31.8629L2109.68 127.948L1793.82 127.948L1793.82 31.8629Z"/></clipPath><g clip-path="url(#clip_7_31_0)"><path d="M156.029 59.701L164.044 47.701C165.052 45.9666 166.013 44.244 166.88 42.5096L167.068 42.5096C166.974 44.3377 166.787 47.1737 166.787 48.8963L166.787 59.701L156.029 59.701ZM175.611 59.701L170.959 59.701L170.959 37.7166L166.107 37.7166L151.47 60.3221L151.47 63.2049L166.787 63.2049L166.787 72.8963L170.959 72.8963L170.959 63.2049L175.611 63.2049L175.611 59.701Z" fill="#19191A" fill-opacity="1.000000" transform="matrix(1 0 0 1 1787.92 12.9666)"/></g><path d="M15 0L314.659 0C322.939 0 329.659 6.72 329.659 15L329.659 94.8774C329.659 103.157 322.939 109.877 314.659 109.877L15 109.877C6.72 109.877 0 103.157 0 94.8774L0 15C0 6.72 6.72 0 15 0Z" fill="#C4D9FD" fill-opacity="1.000000" transform="matrix(1 0 0 1 2197.13 12.9662)"/><path d="M15 0L314.659 0C322.939 0 329.659 6.72 329.659 15L329.659 94.8774C329.659 103.157 322.939 109.877 314.659 109.877L15 109.877C6.72 109.877 0 103.157 0 94.8774L0 15C0 6.72 6.72 0 15 0Z" fill="none" stroke="#000000" stroke-opacity="1.000000" stroke-width="2" stroke-dasharray="0 0" transform="matrix(1 0 0 1 2197.13 12.9662)"/><clipPath id="clip_7_32_0"><path d="M2203.02 31.8626L2518.89 31.8626L2518.89 127.947L2203.02 127.947L2203.02 31.8626Z"/></clipPath><g clip-path="url(#clip_7_32_0)"><path d="M163.037 73.5174C168.99 73.5174 174.556 69.158 174.556 61.4237C174.556 53.701 169.81 50.244 163.951 50.244C161.841 50.244 160.248 50.7713 158.712 51.6268L159.58 41.4549L172.88 41.4549L172.88 37.7166L155.736 37.7166L154.634 54.1815L156.99 55.6112C159.005 54.2752 160.494 53.5487 162.849 53.5487C167.267 53.5487 170.138 56.5252 170.138 61.5643C170.138 66.7088 166.787 69.8729 162.65 69.8729C158.572 69.8729 156.029 67.9979 154.013 65.9823L151.857 68.8651C154.201 71.2205 157.564 73.5174 163.037 73.5174Z" fill="#19191A" fill-opacity="1.000000" transform="matrix(1 0 0 1 2197.13 12.9662)"/></g><path d="M13.9688 47.3789C11.332 49.9688 7.05469 52.6523 3.11719 54.3867C3.9375 54.9609 5.28516 56.1094 5.85938 56.7305C9.64453 54.8203 14.1562 51.6445 17.2852 48.6211L13.9688 47.3789ZM38.2031 44.1094C39.5039 45.5039 40.6055 46.8047 41.3789 47.8594L44.0625 45.9844C42.0469 43.3945 37.7812 39.3633 34.418 36.6211L31.875 38.2031C33.1172 39.2109 34.4648 40.4648 35.7656 41.707L14.8828 42.8203C21.5508 40.3242 28.3242 37.0547 34.8047 33.1641L32.3086 31.0078C30.1875 32.3555 27.8906 33.6914 25.582 34.8984L14.8828 35.5195C18.1875 33.9375 21.5039 31.9688 24.4805 29.8125L23.0391 28.6992L41.2852 28.6992L41.2852 34.5586L44.7891 34.5586L44.7891 25.6289L25.8281 25.6289L25.8281 21.1641L44.1562 21.1641L44.1562 18.0469L25.8281 18.0469L25.8281 13.8281L22.1719 13.8281L22.1719 18.0469L3.84375 18.0469L3.84375 21.1641L22.1719 21.1641L22.1719 25.6289L3.36328 25.6289L3.36328 34.5586L6.71484 34.5586L6.71484 28.6992L20.9297 28.6992C17.5195 31.3477 13.2422 33.6445 11.9531 34.2773C10.5586 34.9922 9.45703 35.4258 8.49609 35.5664C8.83594 36.3867 9.31641 38.0156 9.45703 38.6367C10.2188 38.3555 11.5195 38.1562 20.3555 37.582C16.418 39.5039 13.0078 40.9453 11.5195 41.4727C8.73047 42.6211 6.62109 43.3008 5.03906 43.4883C5.42578 44.3086 5.85938 45.9375 6 46.5586C7.30078 46.1719 9.11719 45.9844 22.9922 45.0703L22.9922 53.4258C22.9922 54 22.8047 54.1406 21.9844 54.1875C21.2695 54.2344 18.7148 54.2344 15.7969 54.1406C16.3242 55.1016 16.8984 56.4023 17.0859 57.457C20.5898 57.457 22.9453 57.4102 24.4805 56.8828C26.0156 56.3086 26.4492 55.3945 26.4492 53.5195L26.4492 44.8828L38.2031 44.1094ZM30.3398 48.9141C34.418 51.1172 39.5508 54.4336 42 56.5898L44.8359 54.5742C42.1406 52.3711 37.0078 49.1953 33.0234 47.1328L30.3398 48.9141ZM56.7306 37.5352C57.1642 35.2852 57.5977 32.6836 58.0313 30.1875L74.0157 30.1875L74.0157 15.8438L53.2267 15.8438L53.2267 19.1953L70.5118 19.1953L70.5118 26.8359L55.0079 26.8359C54.3868 31.3477 53.2852 37.1484 52.3712 40.8984L56.0157 40.8516L70.4649 40.8516C69.797 48.9141 69.0235 52.418 67.922 53.332C67.3946 53.8125 66.8673 53.8594 65.8126 53.8594C64.6056 53.8594 61.4884 53.8594 58.3243 53.5664C59.0392 54.5742 59.5196 56.0625 59.6134 57.2109C62.6368 57.4102 65.6134 57.4102 67.1017 57.3164C68.8829 57.2109 69.9376 56.8828 70.9454 55.7812C72.5274 54.1406 73.3477 49.875 74.1563 39.2109C74.2618 38.6836 74.3087 37.5352 74.3087 37.5352L56.7306 37.5352ZM85.4415 14.3555L85.4415 57.6914L88.9923 57.6914L88.9923 14.3555L85.4415 14.3555Z" fill="#19191A" fill-opacity="1.000000" transform="matrix(1 0 0 1 7.22937 31.905)"/><path d="M12.7734 13.9219C10.2773 21.1641 6.14062 28.2773 1.72266 32.9297C2.30859 33.7969 3.36328 35.6133 3.69141 36.4336C5.08594 34.8516 6.48047 33.1172 7.78125 31.1953L7.78125 57.6445L11.0859 57.6445L11.0859 25.875C13.0078 22.418 14.6836 18.668 15.9844 14.9297L12.7734 13.9219ZM21.5977 49.2422L38.2617 49.2422L38.2617 53.1797L21.5977 53.1797L21.5977 49.2422ZM38.2617 29.1328L38.2617 33.1641L21.5977 33.1641L21.5977 29.1328L38.2617 29.1328ZM38.2617 39.8906L21.5977 39.8906L21.5977 35.8125L38.2617 35.8125L38.2617 39.8906ZM21.5977 42.4805L38.2617 42.4805L38.2617 46.6055L21.5977 46.6055L21.5977 42.4805ZM41.5664 53.1797L41.5664 26.3555L29.8594 26.3555C30.2344 25.0547 30.5742 23.4727 30.9609 21.8906L44.4023 21.8906L44.4023 18.7734L31.582 18.7734C31.9219 17.1797 32.2031 15.5508 32.4961 14.1094L28.6992 13.875C28.5586 15.3164 28.3242 17.0391 28.0781 18.7734L15.8438 18.7734L15.8438 21.8906L27.5508 21.8906C27.2109 23.4727 26.9297 25.0547 26.6367 26.3555L18.3867 26.3555L18.3867 53.1797L13.8281 53.1797L13.8281 56.2617L45.8438 56.2617L45.8438 53.1797L41.5664 53.1797Z" fill="#19191A" fill-opacity="1.000000" transform="matrix(1 0 0 1 7.22937 240.86)"/><path d="M11.6602 28.6992L17.2852 28.6992L17.2852 25.3008L11.6602 25.3008L11.6602 14.4023L8.30859 14.4023L8.30859 25.3008L2.15625 25.3008L2.15625 28.6992L8.30859 28.6992L8.30859 43.9219C5.8125 44.9766 3.50391 45.8906 1.72266 46.5117L3.11719 50.0625C7.34766 48.1875 12.7734 45.8438 17.8594 43.4414L17.1328 40.2773C15.2695 40.9922 13.4414 41.8125 11.6602 42.5742L11.6602 28.6992ZM27.7383 53.3789C24.6211 53.3789 24 52.7578 24 50.2031L24 33.5977L30.4336 30.8672L30.4336 47.0391L33.8438 47.0391L33.8438 29.4258L40.5117 26.5898C40.5117 34.2188 40.418 39.5508 40.1719 40.6992C39.9375 41.7656 39.457 41.9531 38.7305 41.9531C38.2031 41.9531 36.668 41.9531 35.5195 41.9062C35.9531 42.668 36.2344 44.0156 36.3867 44.9766C37.7227 44.9766 39.5508 44.9766 40.8984 44.6367C42.2344 44.3086 43.1953 43.4414 43.4414 41.4727C43.8281 39.6445 43.9219 32.4961 43.9219 23.5195L44.1094 22.8516L41.6133 21.8906L40.9453 22.418L40.1719 23.0859L33.8438 25.7812L33.8438 13.8281L30.4336 13.8281L30.4336 27.1641L24 29.9062L24 18.293L20.5898 18.293L20.5898 31.3477L15.4102 33.5508L16.8047 36.6211L20.5898 35.0391L20.5898 50.1562C20.5898 55.3008 22.2188 56.5898 27.6445 56.5898L39.4102 56.5898C44.4492 56.5898 45.5508 54.4805 46.125 47.9531C45.1172 47.7656 43.7812 47.1797 42.9141 46.5586C42.5742 52.0781 42.0938 53.3789 39.3164 53.3789L27.7383 53.3789ZM66.2345 39.8438L60.1876 42.2344L60.1876 28.6992L66.4337 28.6992L66.4337 25.3008L60.1876 25.3008L60.1876 14.4492L56.836 14.4492L56.836 25.3008L50.3087 25.3008L50.3087 28.6992L56.836 28.6992L56.836 43.5352C54.1876 44.543 51.7384 45.457 49.8282 46.1719L51.1173 49.6289C55.5821 47.8125 61.4415 45.3164 66.9142 42.9609L66.2345 39.8438ZM82.9923 52.5586L82.9923 33.7969L93.3165 33.7969L93.3165 30.3867L82.9923 30.3867L82.9923 14.1562L79.4415 14.1562L79.4415 52.5586L72.3868 52.5586L72.3868 24.293L68.8829 24.293L68.8829 52.5586L63.0235 52.5586L63.0235 55.9688L93.9845 55.9688L93.9845 52.5586L82.9923 52.5586Z" fill="#19191A" fill-opacity="1.000000" transform="matrix(1 0 0 1 7.22943 439.742)"/></svg>